M48
; DRILL file {KiCad (6.0.0-0)} date 2022 January 05, Wednesday 19:35:18
; FORMAT={-:-/ absolute / inch / decimal}
; #@! TF.CreationDate,2022-01-05T19:35:18+07:00
; #@! TF.GenerationSoftware,Kicad,Pcbnew,(6.0.0-0)
; #@! TF.FileFunction,NonPlated,1,2,NPTH
FMAT,2
INCH
; #@! TA.AperFunction,NonPlated,NPTH,ComponentDrill
T1C0.0709
; #@! TA.AperFunction,NonPlated,NPTH,ComponentDrill
T2C0.1570
%
G90
G05
T1
X-0.3032Y-2.7847
X-0.173Y-3.519
X-0.0427Y-4.2576
X0.0907Y-2.7153
X0.2209Y-3.4495
X0.3512Y-4.1881
X0.5793Y-2.6153
X0.6837Y-3.358
X0.7881Y-4.1007
X0.9754Y-2.5596
X1.0798Y-3.3023
X1.1842Y-4.045
X1.4155Y-2.0212
X1.4939Y-2.7671
X1.5723Y-3.513
X1.8133Y-1.9794
X1.8917Y-2.7253
X1.9701Y-3.4712
X2.3141Y-1.8431
X2.3664Y-2.5913
X2.4187Y-3.3395
X2.7131Y-1.8152
X2.7654Y-2.5634
X2.8177Y-3.3116
X3.227Y-1.8722
X3.2532Y-2.6218
X3.2794Y-3.3713
X3.3002Y-4.243
X3.6268Y-1.8583
X3.653Y-2.6078
X3.6791Y-3.3574
X3.6999Y-4.257
X4.0699Y-4.2791
X4.1Y-1.95
X4.1Y-2.7
X4.1Y-3.45
X4.4677Y-4.3209
X4.5Y-1.95
X4.5Y-2.7
X4.5Y-3.45
X4.853Y-4.3687
X5.247Y-4.4382
X5.8685Y-4.4382
X6.2624Y-4.3687
X6.6154Y-1.95
X6.6154Y-2.7
X6.6154Y-3.45
X6.6477Y-4.3209
X7.0154Y-1.95
X7.0154Y-2.7
X7.0154Y-3.45
X7.0456Y-4.2791
X7.4227Y-4.257
X7.4368Y-3.3574
X7.4629Y-2.6078
X7.4891Y-1.8583
X7.8225Y-4.243
X7.8365Y-3.3713
X7.8627Y-2.6218
X7.8889Y-1.8722
X8.2982Y-3.3116
X8.3505Y-2.5634
X8.4028Y-1.8152
X8.6972Y-3.3395
X8.7495Y-2.5913
X8.8018Y-1.8431
X9.1458Y-3.4712
X9.2242Y-2.7253
X9.3026Y-1.9794
X9.5436Y-3.513
X9.622Y-2.7671
X9.7004Y-2.0212
X9.9317Y-4.045
X10.0361Y-3.3023
X10.1405Y-2.5596
X10.3278Y-4.1007
X10.4322Y-3.358
X10.5366Y-2.6153
X10.7647Y-4.1881
X10.895Y-3.4495
X11.0252Y-2.7153
X11.1586Y-4.2576
X11.2889Y-3.519
X11.4191Y-2.7847
T2
X-0.1062Y-2.75
X0.024Y-3.4842
X0.1542Y-4.2081
X0.7774Y-2.5874
X0.8817Y-3.3301
X0.9861Y-4.0728
X1.6144Y-2.0003
X1.6928Y-2.7462
X1.7712Y-3.4921
X2.5136Y-1.8292
X2.5659Y-2.5774
X2.6182Y-3.3255
X3.4269Y-1.8652
X3.4531Y-2.6148
X3.4793Y-3.3643
X3.5Y-4.25
X4.2688Y-4.3
X4.3Y-1.95
X4.3Y-2.7
X4.3Y-3.45
X5.05Y-4.4034
X6.0654Y-4.4034
X6.8154Y-1.95
X6.8154Y-2.7
X6.8154Y-3.45
X6.8466Y-4.3
X7.6226Y-4.25
X7.6366Y-3.3643
X7.6628Y-2.6148
X7.689Y-1.8652
X8.4977Y-3.3255
X8.55Y-2.5774
X8.6023Y-1.8292
X9.3447Y-3.4921
X9.4231Y-2.7462
X9.5015Y-2.0003
X10.1298Y-4.0728
X10.2342Y-3.3301
X10.3385Y-2.5874
X10.9617Y-4.2228
X11.0919Y-3.4842
X11.2221Y-2.75
T0
M30
