M48
; DRILL file {KiCad (6.0.0-0)} date 2022 January 05, Wednesday 19:35:18
; FORMAT={-:-/ absolute / inch / decimal}
; #@! TF.CreationDate,2022-01-05T19:35:18+07:00
; #@! TF.GenerationSoftware,Kicad,Pcbnew,(6.0.0-0)
; #@! TF.FileFunction,Plated,1,2,PTH
FMAT,2
INCH
; #@! TA.AperFunction,Plated,PTH,ComponentDrill
T1C0.0390
; #@! TA.AperFunction,Plated,PTH,ComponentDrill
T2C0.0400
; #@! TA.AperFunction,Plated,PTH,ComponentDrill
T3C0.0430
; #@! TA.AperFunction,Plated,PTH,ComponentDrill
T4C0.0591
%
G90
G05
T1
X0.2102Y-2.5523
X0.2623Y-2.8477
X0.3362Y-3.2904
X0.3883Y-3.5858
X0.4582Y-4.0023
X0.5103Y-4.2977
X1.0972Y-2.4196
X1.139Y-2.7167
X1.2035Y-3.1554
X1.2453Y-3.4525
X1.2941Y-3.8981
X1.3358Y-4.1952
X1.9343Y-1.8008
X1.9657Y-2.0992
X2.0119Y-2.5508
X2.0432Y-2.8492
X2.0843Y-3.3008
X2.1157Y-3.5992
X2.8395Y-1.6376
X2.8605Y-1.9368
X2.8895Y-2.3857
X2.9105Y-2.685
X2.9395Y-3.1339
X2.9605Y-3.4332
X3.7625Y-1.698
X3.773Y-1.9978
X3.7861Y-2.4475
X3.7966Y-2.7473
X3.8176Y-3.247
X3.8281Y-3.5468
X3.8373Y-4.4104
X3.8478Y-4.1106
X4.5827Y-4.4992
X4.6141Y-4.2008
X4.65Y-1.8
X4.65Y-2.1
X4.65Y-2.55
X4.65Y-2.85
X4.65Y-3.3
X4.65Y-3.6
X5.348Y-4.6477
X5.4001Y-4.3523
X5.7173Y-4.3523
X5.7694Y-4.6477
X6.4796Y-1.8
X6.4796Y-2.1
X6.4796Y-2.55
X6.4796Y-2.85
X6.4796Y-3.3
X6.4796Y-3.6
X6.4998Y-4.2008
X6.5311Y-4.4992
X7.2815Y-4.1227
X7.2919Y-4.4225
X7.2933Y-3.502
X7.3037Y-3.2022
X7.3169Y-2.7525
X7.3274Y-2.4527
X7.3445Y-2.0029
X7.3549Y-1.7031
X8.1503Y-3.4508
X8.1712Y-3.1515
X8.1975Y-2.7026
X8.2184Y-2.4033
X8.2526Y-1.9544
X8.2735Y-1.6551
X8.9915Y-3.6047
X9.0228Y-3.3063
X9.0702Y-2.8588
X9.1016Y-2.5605
X9.149Y-2.1129
X9.1803Y-1.8146
X9.7737Y-4.1727
X9.8154Y-3.8756
X9.8721Y-3.48
X9.9139Y-3.1829
X9.9824Y-2.6873
X10.0241Y-2.3902
X10.5992Y-4.3098
X10.6513Y-4.0143
X10.7331Y-3.5712
X10.7852Y-3.2757
X10.863Y-2.8326
X10.9151Y-2.5371
T2
X5.15Y-3.35
X5.15Y-3.45
X5.15Y-3.55
X5.15Y-3.65
X5.15Y-3.75
X5.25Y-3.35
X5.25Y-3.45
X5.25Y-3.55
X5.25Y-3.65
X5.25Y-3.75
X5.8654Y-3.35
X5.8654Y-3.45
X5.8654Y-3.55
X5.8654Y-3.65
X5.8654Y-3.75
X5.9654Y-3.35
X5.9654Y-3.45
X5.9654Y-3.55
X5.9654Y-3.65
X5.9654Y-3.75
T3
X4.85Y-1.6665
X4.85Y-1.7665
X4.85Y-1.8665
X4.85Y-1.9665
X4.85Y-2.0665
X4.85Y-2.1665
X4.85Y-2.2665
X4.85Y-2.3665
X4.85Y-2.4665
X4.85Y-2.5665
X4.85Y-2.6665
X4.85Y-2.7665
X5.45Y-1.6665
X5.45Y-1.7665
X5.45Y-1.8665
X5.45Y-1.9665
X5.45Y-2.0665
X5.45Y-2.1665
X5.45Y-2.2665
X5.45Y-2.3665
X5.45Y-2.4665
X5.45Y-2.5665
X5.45Y-2.6665
X5.45Y-2.7665
T4
X-0.2606Y-2.6465
X-0.1304Y-3.3807
X-0.0413Y-2.5471
X-0.0002Y-4.1193
X0.0889Y-3.2813
X0.2192Y-4.0199
X0.6267Y-2.4786
X0.7311Y-3.2213
X0.8355Y-3.964
X0.8494Y-2.3869
X0.9537Y-3.1296
X1.0581Y-3.8723
X1.4676Y-1.8863
X1.546Y-2.6322
X1.6244Y-3.3781
X1.6933Y-1.8024
X1.7717Y-2.5483
X1.8501Y-3.2942
X2.3709Y-1.7101
X2.4232Y-2.4583
X2.4755Y-3.2065
X2.5994Y-1.6341
X2.6517Y-2.3823
X2.704Y-3.1305
X3.2884Y-1.7413
X3.3146Y-2.4908
X3.3408Y-3.2404
X3.3705Y-4.1167
X3.5195Y-1.6733
X3.5457Y-2.4229
X3.5718Y-3.1724
X3.6058Y-4.065
X4.1489Y-4.158
X4.1659Y-1.8213
X4.1659Y-2.5713
X4.1659Y-3.3213
X4.3872Y-4.1228
X4.3992Y-1.7614
X4.3992Y-2.5114
X4.3992Y-3.2614
X4.9403Y-4.2534
X5.1805Y-4.235
X5.9111Y-4.2999
X6.1304Y-4.2005
X6.6814Y-1.8213
X6.6814Y-2.5713
X6.6814Y-3.3213
X6.6999Y-4.186
X6.9147Y-1.7614
X6.9147Y-2.5114
X6.9147Y-3.2614
X6.9256Y-4.1021
X7.4841Y-4.126
X7.5072Y-3.231
X7.5333Y-2.4815
X7.5595Y-1.7319
X7.7152Y-4.0581
X7.7424Y-3.1793
X7.7685Y-2.4298
X7.7947Y-1.6802
X8.3729Y-3.1878
X8.4253Y-2.4396
X8.4776Y-1.6914
X8.6098Y-3.1443
X8.6621Y-2.3962
X8.7144Y-1.648
X9.2249Y-3.3501
X9.3032Y-2.6042
X9.3816Y-1.8583
X9.4631Y-3.3149
X9.5415Y-2.569
X9.6199Y-1.8232
X10.0149Y-3.9267
X10.1193Y-3.184
X10.2237Y-2.4413
X10.2543Y-3.8999
X10.3587Y-3.1572
X10.463Y-2.4145
X10.852Y-4.0728
X10.9822Y-3.3342
X11.0921Y-4.0543
X11.1125Y-2.5999
X11.2224Y-3.3157
X11.3526Y-2.5815
T0
M30
