%TF.GenerationSoftware,KiCad,Pcbnew,(6.0.0-0)*%
%TF.CreationDate,2022-01-29T19:54:47+07:00*%
%TF.ProjectId,kibod-01-mirrored,6b69626f-642d-4303-912d-6d6972726f72,rev?*%
%TF.SameCoordinates,Original*%
%TF.FileFunction,Soldermask,Bot*%
%TF.FilePolarity,Negative*%
%FSLAX46Y46*%
G04 Gerber Fmt 4.6, Leading zero omitted, Abs format (unit mm)*
G04 Created by KiCad (PCBNEW (6.0.0-0)) date 2022-01-29 19:54:47*
%MOMM*%
%LPD*%
G01*
G04 APERTURE LIST*
G04 Aperture macros list*
%AMRotRect*
0 Rectangle, with rotation*
0 The origin of the aperture is its center*
0 $1 length*
0 $2 width*
0 $3 Rotation angle, in degrees counterclockwise*
0 Add horizontal line*
21,1,$1,$2,0,0,$3*%
G04 Aperture macros list end*
%ADD10RotRect,1.651000X1.651000X10.000000*%
%ADD11C,1.651000*%
%ADD12RotRect,1.651000X1.651000X8.000000*%
%ADD13RotRect,1.651000X1.651000X6.000000*%
%ADD14RotRect,1.651000X1.651000X4.000000*%
%ADD15RotRect,1.651000X1.651000X2.000000*%
%ADD16R,1.651000X1.651000*%
%ADD17RotRect,1.651000X1.651000X358.000000*%
%ADD18RotRect,1.651000X1.651000X354.000000*%
%ADD19RotRect,1.651000X1.651000X350.000000*%
%ADD20C,1.800000*%
%ADD21C,3.987800*%
%ADD22C,2.200000*%
%ADD23C,2.082800*%
%ADD24C,1.500000*%
%ADD25O,2.200000X1.600000*%
%ADD26R,1.752600X1.752600*%
%ADD27C,1.752600*%
G04 APERTURE END LIST*
D10*
%TO.C,D-0-0*%
X34291111Y-52388457D03*
D11*
X32967911Y-44884221D03*
%TD*%
D12*
%TO.C,D-0-1*%
X56559761Y-49061067D03*
D11*
X55499261Y-41515225D03*
%TD*%
D13*
%TO.C,D-0-2*%
X77557764Y-33375467D03*
D11*
X76761258Y-25797211D03*
%TD*%
D14*
%TO.C,D-0-3*%
X100285283Y-29251659D03*
D11*
X99753739Y-21650221D03*
%TD*%
D15*
%TO.C,D-0-4*%
X123462478Y-30800167D03*
D11*
X123196544Y-23184809D03*
%TD*%
D16*
%TO.C,D-0-5*%
X145739511Y-33396339D03*
D11*
X145739511Y-25776339D03*
%TD*%
D10*
%TO.C,D-1-0*%
X37491111Y-71136787D03*
D11*
X36167911Y-63632551D03*
%TD*%
D12*
%TO.C,D-1-1*%
X59259761Y-67748925D03*
D11*
X58199261Y-60203083D03*
%TD*%
D13*
%TO.C,D-1-2*%
X79527764Y-52425467D03*
D11*
X78731258Y-44847211D03*
%TD*%
D14*
%TO.C,D-1-3*%
X101555283Y-48255254D03*
D11*
X101023739Y-40653816D03*
%TD*%
D15*
%TO.C,D-1-4*%
X124062478Y-49838563D03*
D11*
X123796544Y-42223205D03*
%TD*%
D16*
%TO.C,D-1-5*%
X145739511Y-52446339D03*
D11*
X145739511Y-44826339D03*
%TD*%
D10*
%TO.C,D-2-0*%
X40591111Y-89218457D03*
D11*
X39267911Y-81714221D03*
%TD*%
D12*
%TO.C,D-2-1*%
X61559761Y-86613532D03*
D11*
X60499261Y-79067690D03*
%TD*%
D13*
%TO.C,D-2-2*%
X81367764Y-71475467D03*
D11*
X80571258Y-63897211D03*
%TD*%
D14*
%TO.C,D-2-3*%
X102825283Y-67258849D03*
D11*
X102293739Y-59657411D03*
%TD*%
D15*
%TO.C,D-2-4*%
X124862478Y-70146184D03*
D11*
X124596544Y-62530826D03*
%TD*%
D16*
%TO.C,D-2-5*%
X145739511Y-71496339D03*
D11*
X145739511Y-63876339D03*
%TD*%
D17*
%TO.C,D-3-3*%
X125096544Y-92079952D03*
D11*
X125362478Y-84464594D03*
%TD*%
D18*
%TO.C,D-3-4*%
X144031258Y-94335467D03*
D11*
X144827764Y-86757211D03*
%TD*%
D19*
%TO.C,D-3-5*%
X163467911Y-98108457D03*
D11*
X164791111Y-90604221D03*
%TD*%
D20*
%TO.C,K-0-0*%
X19927981Y-50788472D03*
D21*
X24930804Y-49906339D03*
D20*
X29933627Y-49024206D03*
D22*
X21617314Y-45626703D03*
X21009704Y-47277290D03*
X27716245Y-46094746D03*
X26580745Y-44751516D03*
%TD*%
D20*
%TO.C,K-0-1*%
X52405006Y-45070511D03*
X42343882Y-46484509D03*
D21*
X47374444Y-45777510D03*
D22*
X43547485Y-43013218D03*
X44212329Y-41384842D03*
X49203280Y-40683410D03*
X50291211Y-42065449D03*
%TD*%
D20*
%TO.C,K-0-2*%
X63582860Y-31395719D03*
D21*
X68635031Y-30864714D03*
D20*
X73687202Y-30333709D03*
D22*
X64906876Y-27968547D03*
X65628144Y-26364366D03*
X71679570Y-27256708D03*
X70640535Y-25837542D03*
%TD*%
D21*
%TO.C,K-0-3*%
X91474509Y-26517791D03*
D20*
X86406884Y-26872154D03*
X96542134Y-26163428D03*
D22*
X88626514Y-21915246D03*
X87849700Y-23493277D03*
X94643111Y-23018236D03*
X93654237Y-21563673D03*
%TD*%
D20*
%TO.C,K-0-4*%
X119749946Y-27256347D03*
X109596136Y-27610925D03*
D21*
X114673041Y-27433636D03*
D22*
X111155994Y-24284461D03*
X111987408Y-22734501D03*
X117024337Y-22558607D03*
X117961845Y-24046795D03*
%TD*%
D20*
%TO.C,K-0-5*%
X141929511Y-29586339D03*
D21*
X136849511Y-29586339D03*
D20*
X131769511Y-29586339D03*
D22*
X133444511Y-26316339D03*
X134329511Y-24796339D03*
X140254511Y-26316339D03*
X139369511Y-24796339D03*
%TD*%
D20*
%TO.C,K-1-0*%
X33241624Y-67673437D03*
D21*
X28238801Y-68555570D03*
D20*
X23235978Y-69437703D03*
D22*
X24925311Y-64275934D03*
X24317701Y-65926521D03*
X29888742Y-63400747D03*
X31024242Y-64743977D03*
%TD*%
D20*
%TO.C,K-1-1*%
X55056251Y-63935117D03*
D21*
X50025689Y-64642116D03*
D20*
X44995127Y-65349115D03*
D22*
X46198730Y-61877824D03*
X46863574Y-60249448D03*
X51854525Y-59548016D03*
X52942456Y-60930055D03*
%TD*%
D20*
%TO.C,K-1-2*%
X75678467Y-49279352D03*
D21*
X70626296Y-49810357D03*
D20*
X65574125Y-50341362D03*
D22*
X67619409Y-45310009D03*
X66898141Y-46914190D03*
X72631800Y-44783185D03*
X73670835Y-46202351D03*
%TD*%
D20*
%TO.C,K-1-3*%
X87735744Y-45875748D03*
X97870994Y-45167022D03*
D21*
X92803369Y-45521385D03*
D22*
X89955374Y-40918840D03*
X89178560Y-42496871D03*
X94983097Y-40567267D03*
X95971971Y-42021830D03*
%TD*%
D20*
%TO.C,K-1-4*%
X110260971Y-46649320D03*
X120414781Y-46294742D03*
D21*
X115337876Y-46472031D03*
D22*
X111820829Y-43322856D03*
X112652243Y-41772896D03*
X117689172Y-41597002D03*
X118626680Y-43085190D03*
%TD*%
D20*
%TO.C,K-1-5*%
X141929511Y-48636339D03*
X131769511Y-48636339D03*
D21*
X136849511Y-48636339D03*
D22*
X134329511Y-43846339D03*
X133444511Y-45366339D03*
X139369511Y-43846339D03*
X140254511Y-45366339D03*
%TD*%
D20*
%TO.C,K-2-0*%
X26543976Y-88198291D03*
X36549622Y-86434025D03*
D21*
X31546799Y-87316158D03*
D22*
X28233309Y-83036522D03*
X27625699Y-84687109D03*
X34332240Y-83504565D03*
X33196740Y-82161335D03*
%TD*%
D20*
%TO.C,K-2-1*%
X57707501Y-82799724D03*
X47646377Y-84213722D03*
D21*
X52676939Y-83506723D03*
D22*
X49514824Y-79114055D03*
X48849980Y-80742431D03*
X54505775Y-78412623D03*
X55593706Y-79794662D03*
%TD*%
D20*
%TO.C,K-2-2*%
X67565393Y-69287002D03*
D21*
X72617564Y-68755997D03*
D20*
X77669735Y-68224992D03*
D22*
X68889409Y-65859830D03*
X69610677Y-64255649D03*
X75662103Y-65147991D03*
X74623068Y-63728825D03*
%TD*%
D20*
%TO.C,K-2-3*%
X89064605Y-64879344D03*
D21*
X94132230Y-64524981D03*
D20*
X99199855Y-64170618D03*
D22*
X90507421Y-61500467D03*
X91284235Y-59922436D03*
X96311958Y-59570863D03*
X97300832Y-61025426D03*
%TD*%
D20*
%TO.C,K-2-4*%
X121079616Y-65333137D03*
X110925806Y-65687715D03*
D21*
X116002711Y-65510426D03*
D22*
X112485664Y-62361251D03*
X113317078Y-60811291D03*
X118354007Y-60635397D03*
X119291515Y-62123585D03*
%TD*%
D20*
%TO.C,K-2-5*%
X131769511Y-67686339D03*
X141929511Y-67686339D03*
D21*
X136849511Y-67686339D03*
D22*
X133444511Y-64416339D03*
X134329511Y-62896339D03*
X140254511Y-64416339D03*
X139369511Y-62896339D03*
%TD*%
D20*
%TO.C,K-3-3*%
X111453379Y-87829050D03*
X121607189Y-88183628D03*
D21*
X116530284Y-88006339D03*
D22*
X114178988Y-83131310D03*
X113241480Y-84619498D03*
X120047331Y-84857164D03*
X119215917Y-83307204D03*
%TD*%
D21*
%TO.C,K-3-4*%
X136056794Y-89276339D03*
D20*
X141108965Y-89807344D03*
X131004623Y-88745334D03*
D22*
X134051290Y-84249167D03*
X133012255Y-85668333D03*
X139784949Y-86380172D03*
X139063681Y-84775991D03*
%TD*%
D20*
%TO.C,K-3-5*%
X150896688Y-91021609D03*
D21*
X155899511Y-91903742D03*
D20*
X160902334Y-92785875D03*
D22*
X153114070Y-88092149D03*
X154249570Y-86748919D03*
X159213001Y-87624106D03*
X159820611Y-89274693D03*
%TD*%
D23*
%TO.C,J1*%
X154019911Y-65488570D03*
X156559911Y-65488570D03*
X154019911Y-68028570D03*
X156559911Y-68028570D03*
X154019911Y-70568570D03*
X156559911Y-70568570D03*
X154019911Y-73108570D03*
X156559911Y-73108570D03*
X154019911Y-75648570D03*
X156559911Y-75648570D03*
%TD*%
D24*
%TO.C,U2*%
X159125111Y-60842339D03*
X159125111Y-56242339D03*
X166125111Y-56242339D03*
X166125111Y-60842339D03*
D25*
X156425111Y-53942339D03*
X156425111Y-63142339D03*
X157525111Y-58542339D03*
X161525111Y-58542339D03*
X164525111Y-58542339D03*
%TD*%
D26*
%TO.C,U1*%
X166059511Y-22386339D03*
D27*
X166059511Y-24926339D03*
X166059511Y-27466339D03*
X166059511Y-30006339D03*
X166059511Y-32546339D03*
X166059511Y-35086339D03*
X166059511Y-37626339D03*
X166059511Y-40166339D03*
X166059511Y-42706339D03*
X166059511Y-45246339D03*
X166059511Y-47786339D03*
X166059511Y-50326339D03*
X150819511Y-50326339D03*
X150819511Y-47786339D03*
X150819511Y-45246339D03*
X150819511Y-42706339D03*
X150819511Y-40166339D03*
X150819511Y-37626339D03*
X150819511Y-35086339D03*
X150819511Y-32546339D03*
X150819511Y-30006339D03*
X150819511Y-27466339D03*
X150819511Y-24926339D03*
X150819511Y-22386339D03*
%TD*%
D23*
%TO.C,J2*%
X163316311Y-65488570D03*
X160776311Y-65488570D03*
X163316311Y-68028570D03*
X160776311Y-68028570D03*
X163316311Y-70568570D03*
X160776311Y-70568570D03*
X163316311Y-73108570D03*
X160776311Y-73108570D03*
X163316311Y-75648570D03*
X160776311Y-75648570D03*
%TD*%
M02*
