%TF.GenerationSoftware,KiCad,Pcbnew,(6.0.0-0)*%
%TF.CreationDate,2022-01-29T19:54:47+07:00*%
%TF.ProjectId,kibod-01-mirrored,6b69626f-642d-4303-912d-6d6972726f72,rev?*%
%TF.SameCoordinates,Original*%
%TF.FileFunction,Legend,Bot*%
%TF.FilePolarity,Positive*%
%FSLAX46Y46*%
G04 Gerber Fmt 4.6, Leading zero omitted, Abs format (unit mm)*
G04 Created by KiCad (PCBNEW (6.0.0-0)) date 2022-01-29 19:54:47*
%MOMM*%
%LPD*%
G01*
G04 APERTURE LIST*
%ADD10C,0.150000*%
%ADD11C,0.127000*%
%ADD12C,0.203200*%
%ADD13C,0.381000*%
%ADD14R,1.752600X1.752600*%
%ADD15C,1.752600*%
G04 APERTURE END LIST*
D10*
X101571803Y-94125374D02*
X101487185Y-94930463D01*
X101524588Y-95030157D01*
X101566969Y-95082493D01*
X101656708Y-95139806D01*
X101798782Y-95154739D01*
X101898476Y-95117336D01*
X101507095Y-94741030D02*
X101596834Y-94798344D01*
X101786267Y-94818254D01*
X101885961Y-94780851D01*
X101938296Y-94738470D01*
X101995610Y-94648731D01*
X102025475Y-94364582D01*
X101988072Y-94264888D01*
X101945691Y-94212553D01*
X101855952Y-94155239D01*
X101666520Y-94135329D01*
X101566826Y-94172732D01*
X101028536Y-94738613D02*
X101098222Y-94075599D01*
X101133064Y-93744091D02*
X101175445Y-93796427D01*
X101123109Y-93838808D01*
X101080729Y-93786472D01*
X101133064Y-93744091D01*
X101123109Y-93838808D01*
X100766714Y-94040756D02*
X100387849Y-94000935D01*
X100659482Y-93694316D02*
X100569887Y-94546763D01*
X100512573Y-94636502D01*
X100412879Y-94673905D01*
X100318163Y-94663950D01*
X99986656Y-94629107D02*
X100091184Y-93634585D01*
X99560432Y-94584309D02*
X99615185Y-94063369D01*
X99672498Y-93973630D01*
X99772192Y-93936227D01*
X99914267Y-93951160D01*
X100004006Y-94008473D01*
X100046386Y-94060809D01*
X98730312Y-93826721D02*
X98660627Y-94489736D01*
X99156536Y-93871519D02*
X99101783Y-94392459D01*
X99044470Y-94482198D01*
X98944776Y-94519601D01*
X98802701Y-94504668D01*
X98712962Y-94447355D01*
X98670582Y-94395019D01*
X98187045Y-94439960D02*
X98291573Y-93445438D01*
X98251753Y-93824304D02*
X98162014Y-93766991D01*
X97972581Y-93747080D01*
X97872887Y-93784484D01*
X97820552Y-93826864D01*
X97763238Y-93916603D01*
X97733373Y-94200752D01*
X97770776Y-94300446D01*
X97813157Y-94352782D01*
X97902896Y-94410095D01*
X98092328Y-94430005D01*
X98192022Y-94392602D01*
X97297194Y-94250671D02*
X97244859Y-94293051D01*
X97287239Y-94345387D01*
X97339575Y-94303006D01*
X97297194Y-94250671D01*
X97287239Y-94345387D01*
X96392411Y-94203455D02*
X96482150Y-94260769D01*
X96671583Y-94280679D01*
X96771277Y-94243276D01*
X96823612Y-94200895D01*
X96880926Y-94111156D01*
X96910791Y-93827007D01*
X96873388Y-93727313D01*
X96831007Y-93674978D01*
X96741268Y-93617664D01*
X96551836Y-93597754D01*
X96452142Y-93635157D01*
X95819135Y-94191083D02*
X95918829Y-94153680D01*
X95971165Y-94111299D01*
X96028478Y-94021561D01*
X96058344Y-93737411D01*
X96020941Y-93637717D01*
X95978560Y-93585382D01*
X95888821Y-93528068D01*
X95746747Y-93513136D01*
X95647053Y-93550539D01*
X95594717Y-93592920D01*
X95537404Y-93682658D01*
X95507538Y-93966808D01*
X95544941Y-94066501D01*
X95587322Y-94118837D01*
X95677061Y-94176150D01*
X95819135Y-94191083D01*
X95061405Y-94111442D02*
X95131090Y-93448428D01*
X95121135Y-93543144D02*
X95078754Y-93490808D01*
X94989016Y-93433495D01*
X94846941Y-93418562D01*
X94747247Y-93455966D01*
X94689934Y-93545704D01*
X94635181Y-94066644D01*
X94689934Y-93545704D02*
X94652531Y-93446010D01*
X94562792Y-93388697D01*
X94420717Y-93373765D01*
X94321023Y-93411168D01*
X94263710Y-93500906D01*
X94208957Y-94021847D01*
X93134509Y-92855528D02*
X93852562Y-94223795D01*
X92272106Y-92860648D02*
X92371800Y-92823245D01*
X92513875Y-92838178D01*
X92650972Y-92900469D01*
X92735733Y-93005140D01*
X92773136Y-93104834D01*
X92800584Y-93299244D01*
X92785651Y-93441319D01*
X92718383Y-93625774D01*
X92661070Y-93715513D01*
X92556398Y-93800274D01*
X92409346Y-93832700D01*
X92314630Y-93822745D01*
X92177533Y-93760454D01*
X92135152Y-93708118D01*
X92169995Y-93376611D01*
X92359428Y-93396521D01*
X91698973Y-93758037D02*
X91768659Y-93095022D01*
X91748749Y-93284455D02*
X91711346Y-93184761D01*
X91668965Y-93132425D01*
X91579226Y-93075112D01*
X91484510Y-93065157D01*
X90709429Y-93606150D02*
X90799168Y-93663463D01*
X90988601Y-93683373D01*
X91088294Y-93645970D01*
X91145608Y-93556231D01*
X91185428Y-93177366D01*
X91148025Y-93077672D01*
X91058286Y-93020359D01*
X90868853Y-93000449D01*
X90769160Y-93037852D01*
X90711846Y-93127591D01*
X90701891Y-93222307D01*
X91165518Y-93366799D01*
X89856982Y-93516554D02*
X89946720Y-93573867D01*
X90136153Y-93593778D01*
X90235847Y-93556374D01*
X90293160Y-93466636D01*
X90332981Y-93087770D01*
X90295578Y-92988076D01*
X90205839Y-92930763D01*
X90016406Y-92910853D01*
X89916712Y-92948256D01*
X89859399Y-93037995D01*
X89849444Y-93132711D01*
X90313071Y-93277203D01*
X89448108Y-92851122D02*
X89378422Y-93514137D01*
X89438153Y-92945839D02*
X89395772Y-92893503D01*
X89306033Y-92836190D01*
X89163959Y-92821257D01*
X89064265Y-92858660D01*
X89006952Y-92948399D01*
X88952199Y-93469339D01*
X88478617Y-93419563D02*
X88583145Y-92425042D01*
X88176975Y-93100572D01*
X87920131Y-92355356D01*
X87815602Y-93349878D01*
X86915797Y-93255304D02*
X86970550Y-92734364D01*
X87027863Y-92644626D01*
X87127557Y-92607222D01*
X87316990Y-92627133D01*
X87406728Y-92684446D01*
X86920774Y-93207946D02*
X87010513Y-93265260D01*
X87247304Y-93290147D01*
X87346998Y-93252744D01*
X87404311Y-93163005D01*
X87414266Y-93068289D01*
X87376863Y-92968595D01*
X87287124Y-92911282D01*
X87050333Y-92886394D01*
X86960595Y-92829081D01*
X86494550Y-93163148D02*
X86394857Y-93200551D01*
X86205424Y-93180641D01*
X86115685Y-93123328D01*
X86078282Y-93023634D01*
X86083259Y-92976276D01*
X86140573Y-92886537D01*
X86240267Y-92849134D01*
X86382341Y-92864067D01*
X86482035Y-92826664D01*
X86539348Y-92736925D01*
X86544326Y-92689566D01*
X86506923Y-92589873D01*
X86417184Y-92532559D01*
X86275109Y-92517627D01*
X86175416Y-92555030D01*
X85637126Y-93120911D02*
X85741654Y-92126389D01*
X85210902Y-93076113D02*
X85265655Y-92555173D01*
X85322968Y-92465434D01*
X85422662Y-92428031D01*
X85564737Y-92442963D01*
X85654475Y-92500277D01*
X85696856Y-92552612D01*
X84363432Y-92939159D02*
X84453171Y-92996472D01*
X84642604Y-93016382D01*
X84742298Y-92978979D01*
X84799611Y-92889240D01*
X84839431Y-92510375D01*
X84802028Y-92410681D01*
X84712289Y-92353368D01*
X84522857Y-92333457D01*
X84423163Y-92370861D01*
X84365849Y-92460599D01*
X84355894Y-92555316D01*
X84819521Y-92699808D01*
X83458649Y-92891944D02*
X83563178Y-91897422D01*
X83463627Y-92844585D02*
X83553365Y-92901899D01*
X83742798Y-92921809D01*
X83842492Y-92884406D01*
X83894828Y-92842025D01*
X83952141Y-92752286D01*
X83982006Y-92468137D01*
X83944603Y-92368443D01*
X83902223Y-92316108D01*
X83812484Y-92258794D01*
X83623051Y-92238884D01*
X83523357Y-92276287D01*
X82985067Y-92842168D02*
X83089596Y-91847646D01*
X82710730Y-91807826D01*
X82611036Y-91845229D01*
X82558701Y-91887610D01*
X82501387Y-91977348D01*
X82486455Y-92119423D01*
X82523858Y-92219117D01*
X82566238Y-92271453D01*
X82655977Y-92328766D01*
X83034843Y-92368586D01*
X81848471Y-92722707D02*
X81948165Y-92685304D01*
X82000500Y-92642923D01*
X82057814Y-92553184D01*
X82087679Y-92269035D01*
X82050276Y-92169341D01*
X82007895Y-92117006D01*
X81918156Y-92059692D01*
X81776082Y-92044760D01*
X81676388Y-92082163D01*
X81624052Y-92124544D01*
X81566739Y-92214282D01*
X81536874Y-92498431D01*
X81574277Y-92598125D01*
X81616657Y-92650461D01*
X81706396Y-92707774D01*
X81848471Y-92722707D01*
X81302500Y-91994984D02*
X80923634Y-91955164D01*
X81195268Y-91648544D02*
X81105672Y-92500992D01*
X81048359Y-92590731D01*
X80948665Y-92628134D01*
X80853949Y-92618179D01*
X80096218Y-92538538D02*
X80150971Y-92017598D01*
X80208284Y-91927859D01*
X80307978Y-91890456D01*
X80497411Y-91910366D01*
X80587150Y-91967679D01*
X80101195Y-92491180D02*
X80190934Y-92548493D01*
X80427725Y-92573381D01*
X80527419Y-92535978D01*
X80584732Y-92446239D01*
X80594687Y-92351522D01*
X80557284Y-92251828D01*
X80467546Y-92194515D01*
X80230755Y-92169627D01*
X80141016Y-92112314D01*
X79834396Y-91840680D02*
X79455531Y-91800860D01*
X79727164Y-91494240D02*
X79637569Y-92346688D01*
X79580255Y-92436427D01*
X79480561Y-92473830D01*
X79385845Y-92463875D01*
X78912263Y-92414099D02*
X79011957Y-92376696D01*
X79064293Y-92334315D01*
X79121606Y-92244577D01*
X79151471Y-91960428D01*
X79114068Y-91860734D01*
X79071688Y-91808398D01*
X78981949Y-91751085D01*
X78839874Y-91736152D01*
X78740180Y-91773555D01*
X78687845Y-91815936D01*
X78630531Y-91905675D01*
X78600666Y-92189824D01*
X78638069Y-92289518D01*
X78680450Y-92341853D01*
X78770189Y-92399167D01*
X78912263Y-92414099D01*
X77553666Y-91217915D02*
X78271719Y-92586182D01*
X77112652Y-92224952D02*
X77217181Y-91230431D01*
X77057756Y-91836132D02*
X76733787Y-92185132D01*
X76803472Y-91522117D02*
X77142517Y-91940803D01*
X76307563Y-92140334D02*
X76377249Y-91477320D01*
X76412092Y-91145812D02*
X76454472Y-91198148D01*
X76402136Y-91240529D01*
X76359756Y-91188193D01*
X76412092Y-91145812D01*
X76402136Y-91240529D01*
X75833981Y-92090559D02*
X75938510Y-91096037D01*
X75898689Y-91474902D02*
X75808950Y-91417589D01*
X75619518Y-91397679D01*
X75519824Y-91435082D01*
X75467488Y-91477463D01*
X75410175Y-91567201D01*
X75380310Y-91851351D01*
X75417713Y-91951044D01*
X75460093Y-92003380D01*
X75549832Y-92060693D01*
X75739265Y-92080604D01*
X75838959Y-92043201D01*
X74792101Y-91981053D02*
X74891795Y-91943650D01*
X74944131Y-91901269D01*
X75001444Y-91811530D01*
X75031309Y-91527381D01*
X74993906Y-91427687D01*
X74951526Y-91375351D01*
X74861787Y-91318038D01*
X74719712Y-91303105D01*
X74620018Y-91340509D01*
X74567683Y-91382889D01*
X74510369Y-91472628D01*
X74480504Y-91756777D01*
X74517907Y-91856471D01*
X74560288Y-91908807D01*
X74650027Y-91966120D01*
X74792101Y-91981053D01*
X73608146Y-91856614D02*
X73712675Y-90862092D01*
X73613124Y-91809256D02*
X73702863Y-91866569D01*
X73892296Y-91886479D01*
X73991990Y-91849076D01*
X74044325Y-91806696D01*
X74101639Y-91716957D01*
X74131504Y-91432808D01*
X74094101Y-91333114D01*
X74051720Y-91280778D01*
X73961981Y-91223465D01*
X73772548Y-91203555D01*
X73672855Y-91240958D01*
X73174385Y-91427973D02*
X72416654Y-91348332D01*
X71818348Y-90662990D02*
X71723631Y-90653035D01*
X71623937Y-90690438D01*
X71571601Y-90732819D01*
X71514288Y-90822558D01*
X71447020Y-91007013D01*
X71422132Y-91243804D01*
X71449580Y-91438214D01*
X71486983Y-91537908D01*
X71529364Y-91590244D01*
X71619103Y-91647557D01*
X71713819Y-91657512D01*
X71813513Y-91620109D01*
X71865849Y-91577728D01*
X71923162Y-91487990D01*
X71990430Y-91303534D01*
X72015318Y-91066744D01*
X71987870Y-90872333D01*
X71950467Y-90772639D01*
X71908086Y-90720304D01*
X71818348Y-90662990D01*
X70435148Y-91523118D02*
X71003446Y-91582849D01*
X70719297Y-91552984D02*
X70823826Y-90558462D01*
X70903609Y-90710492D01*
X70988371Y-90815163D01*
X71078109Y-90872476D01*
X94692451Y-95719621D02*
X94796979Y-94725099D01*
X94124153Y-95659890D02*
X94610107Y-95136390D01*
X94228681Y-94665368D02*
X94737249Y-95293397D01*
X93697929Y-95615092D02*
X93767615Y-94952078D01*
X93802457Y-94620571D02*
X93844838Y-94672906D01*
X93792502Y-94715287D01*
X93750122Y-94662951D01*
X93802457Y-94620571D01*
X93792502Y-94715287D01*
X93224347Y-95565317D02*
X93328876Y-94570795D01*
X93289055Y-94949661D02*
X93199316Y-94892347D01*
X93009884Y-94872437D01*
X92910190Y-94909840D01*
X92857854Y-94952221D01*
X92800541Y-95041960D01*
X92770675Y-95326109D01*
X92808079Y-95425803D01*
X92850459Y-95478138D01*
X92940198Y-95535452D01*
X93129631Y-95555362D01*
X93229325Y-95517959D01*
X92182467Y-95455811D02*
X92282161Y-95418408D01*
X92334497Y-95376027D01*
X92391810Y-95286288D01*
X92421675Y-95002139D01*
X92384272Y-94902445D01*
X92341891Y-94850110D01*
X92252153Y-94792796D01*
X92110078Y-94777864D01*
X92010384Y-94815267D01*
X91958048Y-94857647D01*
X91900735Y-94947386D01*
X91870870Y-95231535D01*
X91908273Y-95331229D01*
X91950654Y-95383565D01*
X92040392Y-95440878D01*
X92182467Y-95455811D01*
X90998512Y-95331372D02*
X91103041Y-94336850D01*
X91003490Y-95284014D02*
X91093229Y-95341327D01*
X91282661Y-95361238D01*
X91382355Y-95323835D01*
X91434691Y-95281454D01*
X91492004Y-95191715D01*
X91521870Y-94907566D01*
X91484467Y-94807872D01*
X91442086Y-94755536D01*
X91352347Y-94698223D01*
X91162914Y-94678313D01*
X91063220Y-94715716D01*
X90564751Y-94902731D02*
X89807020Y-94823091D01*
X89208713Y-94137749D02*
X89113997Y-94127794D01*
X89014303Y-94165197D01*
X88961967Y-94207577D01*
X88904654Y-94297316D01*
X88837386Y-94481771D01*
X88812498Y-94718562D01*
X88839946Y-94912972D01*
X88877349Y-95012666D01*
X88919730Y-95065002D01*
X89009469Y-95122315D01*
X89104185Y-95132271D01*
X89203879Y-95094867D01*
X89256215Y-95052487D01*
X89313528Y-94962748D01*
X89380796Y-94778293D01*
X89405684Y-94541502D01*
X89378236Y-94347092D01*
X89340833Y-94247398D01*
X89298452Y-94195062D01*
X89208713Y-94137749D01*
X87825514Y-94997877D02*
X88393812Y-95057607D01*
X88109663Y-95027742D02*
X88214192Y-94033220D01*
X88293975Y-94185250D01*
X88378737Y-94289921D01*
X88468475Y-94347235D01*
X86641559Y-94873438D02*
X86746088Y-93878916D01*
X86706267Y-94257782D02*
X86616529Y-94200468D01*
X86427096Y-94180558D01*
X86327402Y-94217961D01*
X86275066Y-94260342D01*
X86217753Y-94350081D01*
X86187888Y-94634230D01*
X86225291Y-94733924D01*
X86267671Y-94786260D01*
X86357410Y-94843573D01*
X86546843Y-94863483D01*
X86646537Y-94826080D01*
X85906156Y-94125805D02*
X85599679Y-94763932D01*
X85432574Y-94076030D02*
X85599679Y-94763932D01*
X85669508Y-95010678D01*
X85711889Y-95063014D01*
X85801627Y-95120327D01*
X84226292Y-94619583D02*
X84330820Y-93625061D01*
X83924650Y-94300591D01*
X83667806Y-93555376D01*
X83563277Y-94549898D01*
X83089695Y-94500122D02*
X83159381Y-93837108D01*
X83194224Y-93505600D02*
X83236605Y-93557936D01*
X83184269Y-93600317D01*
X83141888Y-93547981D01*
X83194224Y-93505600D01*
X83184269Y-93600317D01*
X82194867Y-94358191D02*
X82284606Y-94415504D01*
X82474039Y-94435414D01*
X82573733Y-94398011D01*
X82626069Y-94355630D01*
X82683382Y-94265892D01*
X82713247Y-93981742D01*
X82675844Y-93882049D01*
X82633463Y-93829713D01*
X82543725Y-93772399D01*
X82354292Y-93752489D01*
X82254598Y-93789892D01*
X81763666Y-94360751D02*
X81868195Y-93366229D01*
X81337443Y-94315953D02*
X81392196Y-93795013D01*
X81449509Y-93705274D01*
X81549203Y-93667871D01*
X81691277Y-93682804D01*
X81781016Y-93740117D01*
X81823397Y-93792453D01*
X80437637Y-94221380D02*
X80492390Y-93700440D01*
X80549703Y-93610701D01*
X80649397Y-93573298D01*
X80838830Y-93593208D01*
X80928569Y-93650521D01*
X80442615Y-94174021D02*
X80532353Y-94231335D01*
X80769144Y-94256222D01*
X80868838Y-94218819D01*
X80926152Y-94129081D01*
X80936107Y-94034364D01*
X80898704Y-93934670D01*
X80808965Y-93877357D01*
X80572174Y-93852469D01*
X80482435Y-93795156D01*
X79590167Y-94084426D02*
X79679906Y-94141739D01*
X79869339Y-94161649D01*
X79969033Y-94124246D01*
X80026346Y-94034507D01*
X80066166Y-93655642D01*
X80028763Y-93555948D01*
X79939024Y-93498634D01*
X79749592Y-93478724D01*
X79649898Y-93516127D01*
X79592584Y-93605866D01*
X79582629Y-93700583D01*
X80046256Y-93845074D01*
X78969533Y-94067076D02*
X79069227Y-94029673D01*
X79126540Y-93939934D01*
X79216136Y-93087486D01*
X77411548Y-92945698D02*
X77511242Y-92908295D01*
X77653316Y-92923227D01*
X77790413Y-92985518D01*
X77875174Y-93090190D01*
X77912578Y-93189884D01*
X77940026Y-93384294D01*
X77925093Y-93526368D01*
X77857825Y-93710824D01*
X77800511Y-93800562D01*
X77695840Y-93885324D01*
X77548788Y-93917749D01*
X77454071Y-93907794D01*
X77316974Y-93845503D01*
X77274594Y-93793168D01*
X77309437Y-93461660D01*
X77498869Y-93481571D01*
%TO.C,U1*%
X164033844Y-40452053D02*
X164071939Y-40490148D01*
X164186225Y-40528243D01*
X164262415Y-40528243D01*
X164376701Y-40490148D01*
X164452891Y-40413958D01*
X164490987Y-40337767D01*
X164529082Y-40185386D01*
X164529082Y-40071100D01*
X164490987Y-39918719D01*
X164452891Y-39842529D01*
X164376701Y-39766339D01*
X164262415Y-39728243D01*
X164186225Y-39728243D01*
X164071939Y-39766339D01*
X164033844Y-39804434D01*
X163348130Y-39728243D02*
X163500511Y-39728243D01*
X163576701Y-39766339D01*
X163614796Y-39804434D01*
X163690987Y-39918719D01*
X163729082Y-40071100D01*
X163729082Y-40375862D01*
X163690987Y-40452053D01*
X163652891Y-40490148D01*
X163576701Y-40528243D01*
X163424320Y-40528243D01*
X163348130Y-40490148D01*
X163310034Y-40452053D01*
X163271939Y-40375862D01*
X163271939Y-40185386D01*
X163310034Y-40109196D01*
X163348130Y-40071100D01*
X163424320Y-40033005D01*
X163576701Y-40033005D01*
X163652891Y-40071100D01*
X163690987Y-40109196D01*
X163729082Y-40185386D01*
X154045177Y-29568243D02*
X153778511Y-30368243D01*
X153511844Y-29568243D01*
X152788034Y-30292053D02*
X152826130Y-30330148D01*
X152940415Y-30368243D01*
X153016606Y-30368243D01*
X153130891Y-30330148D01*
X153207082Y-30253958D01*
X153245177Y-30177767D01*
X153283272Y-30025386D01*
X153283272Y-29911100D01*
X153245177Y-29758719D01*
X153207082Y-29682529D01*
X153130891Y-29606339D01*
X153016606Y-29568243D01*
X152940415Y-29568243D01*
X152826130Y-29606339D01*
X152788034Y-29644434D01*
X151988034Y-30292053D02*
X152026130Y-30330148D01*
X152140415Y-30368243D01*
X152216606Y-30368243D01*
X152330891Y-30330148D01*
X152407082Y-30253958D01*
X152445177Y-30177767D01*
X152483272Y-30025386D01*
X152483272Y-29911100D01*
X152445177Y-29758719D01*
X152407082Y-29682529D01*
X152330891Y-29606339D01*
X152216606Y-29568243D01*
X152140415Y-29568243D01*
X152026130Y-29606339D01*
X151988034Y-29644434D01*
X164510034Y-29606339D02*
X164586225Y-29568243D01*
X164700511Y-29568243D01*
X164814796Y-29606339D01*
X164890987Y-29682529D01*
X164929082Y-29758719D01*
X164967177Y-29911100D01*
X164967177Y-30025386D01*
X164929082Y-30177767D01*
X164890987Y-30253958D01*
X164814796Y-30330148D01*
X164700511Y-30368243D01*
X164624320Y-30368243D01*
X164510034Y-30330148D01*
X164471939Y-30292053D01*
X164471939Y-30025386D01*
X164624320Y-30025386D01*
X164129082Y-30368243D02*
X164129082Y-29568243D01*
X163671939Y-30368243D01*
X163671939Y-29568243D01*
X163290987Y-30368243D02*
X163290987Y-29568243D01*
X163100511Y-29568243D01*
X162986225Y-29606339D01*
X162910034Y-29682529D01*
X162871939Y-29758719D01*
X162833844Y-29911100D01*
X162833844Y-30025386D01*
X162871939Y-30177767D01*
X162910034Y-30253958D01*
X162986225Y-30330148D01*
X163100511Y-30368243D01*
X163290987Y-30368243D01*
X153245177Y-35029196D02*
X153511844Y-35029196D01*
X153511844Y-35448243D02*
X153511844Y-34648243D01*
X153130891Y-34648243D01*
X152445177Y-34648243D02*
X152826130Y-34648243D01*
X152864225Y-35029196D01*
X152826130Y-34991100D01*
X152749939Y-34953005D01*
X152559463Y-34953005D01*
X152483272Y-34991100D01*
X152445177Y-35029196D01*
X152407082Y-35105386D01*
X152407082Y-35295862D01*
X152445177Y-35372053D01*
X152483272Y-35410148D01*
X152559463Y-35448243D01*
X152749939Y-35448243D01*
X152826130Y-35410148D01*
X152864225Y-35372053D01*
X153245177Y-40109196D02*
X153511844Y-40109196D01*
X153511844Y-40528243D02*
X153511844Y-39728243D01*
X153130891Y-39728243D01*
X152902320Y-39728243D02*
X152368987Y-39728243D01*
X152711844Y-40528243D01*
X164201859Y-21948243D02*
X163744716Y-21948243D01*
X163973287Y-22748243D02*
X163973287Y-21948243D01*
X163554240Y-21948243D02*
X163020906Y-22748243D01*
X163020906Y-21948243D02*
X163554240Y-22748243D01*
X162563763Y-21948243D02*
X162487573Y-21948243D01*
X162411383Y-21986339D01*
X162373287Y-22024434D01*
X162335192Y-22100624D01*
X162297097Y-22253005D01*
X162297097Y-22443481D01*
X162335192Y-22595862D01*
X162373287Y-22672053D01*
X162411383Y-22710148D01*
X162487573Y-22748243D01*
X162563763Y-22748243D01*
X162639954Y-22710148D01*
X162678049Y-22672053D01*
X162716144Y-22595862D01*
X162754240Y-22443481D01*
X162754240Y-22253005D01*
X162716144Y-22100624D01*
X162678049Y-22024434D01*
X162639954Y-21986339D01*
X162563763Y-21948243D01*
X161382811Y-21910148D02*
X162068525Y-22938719D01*
X161116144Y-22748243D02*
X161116144Y-21948243D01*
X160925668Y-21948243D01*
X160811383Y-21986339D01*
X160735192Y-22062529D01*
X160697097Y-22138719D01*
X160659002Y-22291100D01*
X160659002Y-22405386D01*
X160697097Y-22557767D01*
X160735192Y-22633958D01*
X160811383Y-22710148D01*
X160925668Y-22748243D01*
X161116144Y-22748243D01*
X160392335Y-21948243D02*
X159897097Y-21948243D01*
X160163763Y-22253005D01*
X160049478Y-22253005D01*
X159973287Y-22291100D01*
X159935192Y-22329196D01*
X159897097Y-22405386D01*
X159897097Y-22595862D01*
X159935192Y-22672053D01*
X159973287Y-22710148D01*
X160049478Y-22748243D01*
X160278049Y-22748243D01*
X160354240Y-22710148D01*
X160392335Y-22672053D01*
X164490987Y-37988243D02*
X164490987Y-37188243D01*
X164300511Y-37188243D01*
X164186225Y-37226339D01*
X164110034Y-37302529D01*
X164071939Y-37378719D01*
X164033844Y-37531100D01*
X164033844Y-37645386D01*
X164071939Y-37797767D01*
X164110034Y-37873958D01*
X164186225Y-37950148D01*
X164300511Y-37988243D01*
X164490987Y-37988243D01*
X163348130Y-37454910D02*
X163348130Y-37988243D01*
X163538606Y-37150148D02*
X163729082Y-37721577D01*
X163233844Y-37721577D01*
X153245177Y-37569196D02*
X153511844Y-37569196D01*
X153511844Y-37988243D02*
X153511844Y-37188243D01*
X153130891Y-37188243D01*
X152483272Y-37188243D02*
X152635653Y-37188243D01*
X152711844Y-37226339D01*
X152749939Y-37264434D01*
X152826130Y-37378719D01*
X152864225Y-37531100D01*
X152864225Y-37835862D01*
X152826130Y-37912053D01*
X152788034Y-37950148D01*
X152711844Y-37988243D01*
X152559463Y-37988243D01*
X152483272Y-37950148D01*
X152445177Y-37912053D01*
X152407082Y-37835862D01*
X152407082Y-37645386D01*
X152445177Y-37569196D01*
X152483272Y-37531100D01*
X152559463Y-37493005D01*
X152711844Y-37493005D01*
X152788034Y-37531100D01*
X152826130Y-37569196D01*
X152864225Y-37645386D01*
X153302320Y-47729196D02*
X153188034Y-47767291D01*
X153149939Y-47805386D01*
X153111844Y-47881577D01*
X153111844Y-47995862D01*
X153149939Y-48072053D01*
X153188034Y-48110148D01*
X153264225Y-48148243D01*
X153568987Y-48148243D01*
X153568987Y-47348243D01*
X153302320Y-47348243D01*
X153226130Y-47386339D01*
X153188034Y-47424434D01*
X153149939Y-47500624D01*
X153149939Y-47576815D01*
X153188034Y-47653005D01*
X153226130Y-47691100D01*
X153302320Y-47729196D01*
X153568987Y-47729196D01*
X152807082Y-47424434D02*
X152768987Y-47386339D01*
X152692796Y-47348243D01*
X152502320Y-47348243D01*
X152426130Y-47386339D01*
X152388034Y-47424434D01*
X152349939Y-47500624D01*
X152349939Y-47576815D01*
X152388034Y-47691100D01*
X152845177Y-48148243D01*
X152349939Y-48148243D01*
X164490987Y-25288243D02*
X164490987Y-24488243D01*
X164300511Y-24488243D01*
X164186225Y-24526339D01*
X164110034Y-24602529D01*
X164071939Y-24678719D01*
X164033844Y-24831100D01*
X164033844Y-24945386D01*
X164071939Y-25097767D01*
X164110034Y-25173958D01*
X164186225Y-25250148D01*
X164300511Y-25288243D01*
X164490987Y-25288243D01*
X163729082Y-24564434D02*
X163690987Y-24526339D01*
X163614796Y-24488243D01*
X163424320Y-24488243D01*
X163348130Y-24526339D01*
X163310034Y-24564434D01*
X163271939Y-24640624D01*
X163271939Y-24716815D01*
X163310034Y-24831100D01*
X163767177Y-25288243D01*
X163271939Y-25288243D01*
X164224320Y-50269196D02*
X164110034Y-50307291D01*
X164071939Y-50345386D01*
X164033844Y-50421577D01*
X164033844Y-50535862D01*
X164071939Y-50612053D01*
X164110034Y-50650148D01*
X164186225Y-50688243D01*
X164490987Y-50688243D01*
X164490987Y-49888243D01*
X164224320Y-49888243D01*
X164148130Y-49926339D01*
X164110034Y-49964434D01*
X164071939Y-50040624D01*
X164071939Y-50116815D01*
X164110034Y-50193005D01*
X164148130Y-50231100D01*
X164224320Y-50269196D01*
X164490987Y-50269196D01*
X163310034Y-49888243D02*
X163690987Y-49888243D01*
X163729082Y-50269196D01*
X163690987Y-50231100D01*
X163614796Y-50193005D01*
X163424320Y-50193005D01*
X163348130Y-50231100D01*
X163310034Y-50269196D01*
X163271939Y-50345386D01*
X163271939Y-50535862D01*
X163310034Y-50612053D01*
X163348130Y-50650148D01*
X163424320Y-50688243D01*
X163614796Y-50688243D01*
X163690987Y-50650148D01*
X163729082Y-50612053D01*
X153245177Y-32489196D02*
X153511844Y-32489196D01*
X153511844Y-32908243D02*
X153511844Y-32108243D01*
X153130891Y-32108243D01*
X152483272Y-32374910D02*
X152483272Y-32908243D01*
X152673749Y-32070148D02*
X152864225Y-32641577D01*
X152368987Y-32641577D01*
X153530891Y-22748243D02*
X153797558Y-22367291D01*
X153988034Y-22748243D02*
X153988034Y-21948243D01*
X153683272Y-21948243D01*
X153607082Y-21986339D01*
X153568987Y-22024434D01*
X153530891Y-22100624D01*
X153530891Y-22214910D01*
X153568987Y-22291100D01*
X153607082Y-22329196D01*
X153683272Y-22367291D01*
X153988034Y-22367291D01*
X153226130Y-22519672D02*
X152845177Y-22519672D01*
X153302320Y-22748243D02*
X153035653Y-21948243D01*
X152768987Y-22748243D01*
X152578511Y-21948243D02*
X152388034Y-22748243D01*
X152235653Y-22176815D01*
X152083272Y-22748243D01*
X151892796Y-21948243D01*
X164452891Y-45189196D02*
X164186225Y-45189196D01*
X164071939Y-45608243D02*
X164452891Y-45608243D01*
X164452891Y-44808243D01*
X164071939Y-44808243D01*
X163386225Y-44808243D02*
X163538606Y-44808243D01*
X163614796Y-44846339D01*
X163652891Y-44884434D01*
X163729082Y-44998719D01*
X163767177Y-45151100D01*
X163767177Y-45455862D01*
X163729082Y-45532053D01*
X163690987Y-45570148D01*
X163614796Y-45608243D01*
X163462415Y-45608243D01*
X163386225Y-45570148D01*
X163348130Y-45532053D01*
X163310034Y-45455862D01*
X163310034Y-45265386D01*
X163348130Y-45189196D01*
X163386225Y-45151100D01*
X163462415Y-45113005D01*
X163614796Y-45113005D01*
X163690987Y-45151100D01*
X163729082Y-45189196D01*
X163767177Y-45265386D01*
X164490987Y-32908243D02*
X164490987Y-32108243D01*
X164300511Y-32108243D01*
X164186225Y-32146339D01*
X164110034Y-32222529D01*
X164071939Y-32298719D01*
X164033844Y-32451100D01*
X164033844Y-32565386D01*
X164071939Y-32717767D01*
X164110034Y-32793958D01*
X164186225Y-32870148D01*
X164300511Y-32908243D01*
X164490987Y-32908243D01*
X163271939Y-32908243D02*
X163729082Y-32908243D01*
X163500511Y-32908243D02*
X163500511Y-32108243D01*
X163576701Y-32222529D01*
X163652891Y-32298719D01*
X163729082Y-32336815D01*
X164224320Y-47729196D02*
X164110034Y-47767291D01*
X164071939Y-47805386D01*
X164033844Y-47881577D01*
X164033844Y-47995862D01*
X164071939Y-48072053D01*
X164110034Y-48110148D01*
X164186225Y-48148243D01*
X164490987Y-48148243D01*
X164490987Y-47348243D01*
X164224320Y-47348243D01*
X164148130Y-47386339D01*
X164110034Y-47424434D01*
X164071939Y-47500624D01*
X164071939Y-47576815D01*
X164110034Y-47653005D01*
X164148130Y-47691100D01*
X164224320Y-47729196D01*
X164490987Y-47729196D01*
X163348130Y-47614910D02*
X163348130Y-48148243D01*
X163538606Y-47310148D02*
X163729082Y-47881577D01*
X163233844Y-47881577D01*
X153302320Y-45189196D02*
X153188034Y-45227291D01*
X153149939Y-45265386D01*
X153111844Y-45341577D01*
X153111844Y-45455862D01*
X153149939Y-45532053D01*
X153188034Y-45570148D01*
X153264225Y-45608243D01*
X153568987Y-45608243D01*
X153568987Y-44808243D01*
X153302320Y-44808243D01*
X153226130Y-44846339D01*
X153188034Y-44884434D01*
X153149939Y-44960624D01*
X153149939Y-45036815D01*
X153188034Y-45113005D01*
X153226130Y-45151100D01*
X153302320Y-45189196D01*
X153568987Y-45189196D01*
X152845177Y-44808243D02*
X152349939Y-44808243D01*
X152616606Y-45113005D01*
X152502320Y-45113005D01*
X152426130Y-45151100D01*
X152388034Y-45189196D01*
X152349939Y-45265386D01*
X152349939Y-45455862D01*
X152388034Y-45532053D01*
X152426130Y-45570148D01*
X152502320Y-45608243D01*
X152730891Y-45608243D01*
X152807082Y-45570148D01*
X152845177Y-45532053D01*
X164510034Y-27066339D02*
X164586225Y-27028243D01*
X164700511Y-27028243D01*
X164814796Y-27066339D01*
X164890987Y-27142529D01*
X164929082Y-27218719D01*
X164967177Y-27371100D01*
X164967177Y-27485386D01*
X164929082Y-27637767D01*
X164890987Y-27713958D01*
X164814796Y-27790148D01*
X164700511Y-27828243D01*
X164624320Y-27828243D01*
X164510034Y-27790148D01*
X164471939Y-27752053D01*
X164471939Y-27485386D01*
X164624320Y-27485386D01*
X164129082Y-27828243D02*
X164129082Y-27028243D01*
X163671939Y-27828243D01*
X163671939Y-27028243D01*
X163290987Y-27828243D02*
X163290987Y-27028243D01*
X163100511Y-27028243D01*
X162986225Y-27066339D01*
X162910034Y-27142529D01*
X162871939Y-27218719D01*
X162833844Y-27371100D01*
X162833844Y-27485386D01*
X162871939Y-27637767D01*
X162910034Y-27713958D01*
X162986225Y-27790148D01*
X163100511Y-27828243D01*
X163290987Y-27828243D01*
X153302320Y-50269196D02*
X153188034Y-50307291D01*
X153149939Y-50345386D01*
X153111844Y-50421577D01*
X153111844Y-50535862D01*
X153149939Y-50612053D01*
X153188034Y-50650148D01*
X153264225Y-50688243D01*
X153568987Y-50688243D01*
X153568987Y-49888243D01*
X153302320Y-49888243D01*
X153226130Y-49926339D01*
X153188034Y-49964434D01*
X153149939Y-50040624D01*
X153149939Y-50116815D01*
X153188034Y-50193005D01*
X153226130Y-50231100D01*
X153302320Y-50269196D01*
X153568987Y-50269196D01*
X152426130Y-49888243D02*
X152578511Y-49888243D01*
X152654701Y-49926339D01*
X152692796Y-49964434D01*
X152768987Y-50078719D01*
X152807082Y-50231100D01*
X152807082Y-50535862D01*
X152768987Y-50612053D01*
X152730891Y-50650148D01*
X152654701Y-50688243D01*
X152502320Y-50688243D01*
X152426130Y-50650148D01*
X152388034Y-50612053D01*
X152349939Y-50535862D01*
X152349939Y-50345386D01*
X152388034Y-50269196D01*
X152426130Y-50231100D01*
X152502320Y-50193005D01*
X152654701Y-50193005D01*
X152730891Y-50231100D01*
X152768987Y-50269196D01*
X152807082Y-50345386D01*
X153302320Y-42649196D02*
X153188034Y-42687291D01*
X153149939Y-42725386D01*
X153111844Y-42801577D01*
X153111844Y-42915862D01*
X153149939Y-42992053D01*
X153188034Y-43030148D01*
X153264225Y-43068243D01*
X153568987Y-43068243D01*
X153568987Y-42268243D01*
X153302320Y-42268243D01*
X153226130Y-42306339D01*
X153188034Y-42344434D01*
X153149939Y-42420624D01*
X153149939Y-42496815D01*
X153188034Y-42573005D01*
X153226130Y-42611100D01*
X153302320Y-42649196D01*
X153568987Y-42649196D01*
X152349939Y-43068243D02*
X152807082Y-43068243D01*
X152578511Y-43068243D02*
X152578511Y-42268243D01*
X152654701Y-42382529D01*
X152730891Y-42458719D01*
X152807082Y-42496815D01*
X164490987Y-35448243D02*
X164490987Y-34648243D01*
X164300511Y-34648243D01*
X164186225Y-34686339D01*
X164110034Y-34762529D01*
X164071939Y-34838719D01*
X164033844Y-34991100D01*
X164033844Y-35105386D01*
X164071939Y-35257767D01*
X164110034Y-35333958D01*
X164186225Y-35410148D01*
X164300511Y-35448243D01*
X164490987Y-35448243D01*
X163538606Y-34648243D02*
X163462415Y-34648243D01*
X163386225Y-34686339D01*
X163348130Y-34724434D01*
X163310034Y-34800624D01*
X163271939Y-34953005D01*
X163271939Y-35143481D01*
X163310034Y-35295862D01*
X163348130Y-35372053D01*
X163386225Y-35410148D01*
X163462415Y-35448243D01*
X163538606Y-35448243D01*
X163614796Y-35410148D01*
X163652891Y-35372053D01*
X163690987Y-35295862D01*
X163729082Y-35143481D01*
X163729082Y-34953005D01*
X163690987Y-34800624D01*
X163652891Y-34724434D01*
X163614796Y-34686339D01*
X163538606Y-34648243D01*
X164490987Y-43068243D02*
X164490987Y-42268243D01*
X164300511Y-42268243D01*
X164186225Y-42306339D01*
X164110034Y-42382529D01*
X164071939Y-42458719D01*
X164033844Y-42611100D01*
X164033844Y-42725386D01*
X164071939Y-42877767D01*
X164110034Y-42953958D01*
X164186225Y-43030148D01*
X164300511Y-43068243D01*
X164490987Y-43068243D01*
X163767177Y-42268243D02*
X163233844Y-42268243D01*
X163576701Y-43068243D01*
X153239724Y-27760148D02*
X153125438Y-27798243D01*
X152934962Y-27798243D01*
X152858771Y-27760148D01*
X152820676Y-27722053D01*
X152782581Y-27645862D01*
X152782581Y-27569672D01*
X152820676Y-27493481D01*
X152858771Y-27455386D01*
X152934962Y-27417291D01*
X153087343Y-27379196D01*
X153163533Y-27341100D01*
X153201629Y-27303005D01*
X153239724Y-27226815D01*
X153239724Y-27150624D01*
X153201629Y-27074434D01*
X153163533Y-27036339D01*
X153087343Y-26998243D01*
X152896867Y-26998243D01*
X152782581Y-27036339D01*
X152554010Y-26998243D02*
X152096867Y-26998243D01*
X152325438Y-27798243D02*
X152325438Y-26998243D01*
X153588034Y-24526339D02*
X153664225Y-24488243D01*
X153778511Y-24488243D01*
X153892796Y-24526339D01*
X153968987Y-24602529D01*
X154007082Y-24678719D01*
X154045177Y-24831100D01*
X154045177Y-24945386D01*
X154007082Y-25097767D01*
X153968987Y-25173958D01*
X153892796Y-25250148D01*
X153778511Y-25288243D01*
X153702320Y-25288243D01*
X153588034Y-25250148D01*
X153549939Y-25212053D01*
X153549939Y-24945386D01*
X153702320Y-24945386D01*
X153207082Y-25288243D02*
X153207082Y-24488243D01*
X152749939Y-25288243D01*
X152749939Y-24488243D01*
X152368987Y-25288243D02*
X152368987Y-24488243D01*
X152178511Y-24488243D01*
X152064225Y-24526339D01*
X151988034Y-24602529D01*
X151949939Y-24678719D01*
X151911844Y-24831100D01*
X151911844Y-24945386D01*
X151949939Y-25097767D01*
X151988034Y-25173958D01*
X152064225Y-25250148D01*
X152178511Y-25288243D01*
X152368987Y-25288243D01*
D11*
%TO.C,J2*%
X162249511Y-62234741D02*
X162249511Y-62670170D01*
X162278539Y-62757255D01*
X162336596Y-62815312D01*
X162423682Y-62844341D01*
X162481739Y-62844341D01*
X161988253Y-62292798D02*
X161959225Y-62263770D01*
X161901168Y-62234741D01*
X161756025Y-62234741D01*
X161697968Y-62263770D01*
X161668939Y-62292798D01*
X161639911Y-62350855D01*
X161639911Y-62408912D01*
X161668939Y-62495998D01*
X162017282Y-62844341D01*
X161639911Y-62844341D01*
X163192939Y-63234741D02*
X163134882Y-63234741D01*
X163076825Y-63263770D01*
X163047796Y-63292798D01*
X163018768Y-63350855D01*
X162989739Y-63466970D01*
X162989739Y-63612112D01*
X163018768Y-63728227D01*
X163047796Y-63786284D01*
X163076825Y-63815312D01*
X163134882Y-63844341D01*
X163192939Y-63844341D01*
X163250996Y-63815312D01*
X163280025Y-63786284D01*
X163309053Y-63728227D01*
X163338082Y-63612112D01*
X163338082Y-63466970D01*
X163309053Y-63350855D01*
X163280025Y-63292798D01*
X163250996Y-63263770D01*
X163192939Y-63234741D01*
X162757511Y-63292798D02*
X162728482Y-63263770D01*
X162670425Y-63234741D01*
X162525282Y-63234741D01*
X162467225Y-63263770D01*
X162438196Y-63292798D01*
X162409168Y-63350855D01*
X162409168Y-63408912D01*
X162438196Y-63495998D01*
X162786539Y-63844341D01*
X162409168Y-63844341D01*
X162205968Y-63844341D02*
X161886653Y-63437941D01*
X162205968Y-63437941D02*
X161886653Y-63844341D01*
X161538311Y-63234741D02*
X161480253Y-63234741D01*
X161422196Y-63263770D01*
X161393168Y-63292798D01*
X161364139Y-63350855D01*
X161335111Y-63466970D01*
X161335111Y-63612112D01*
X161364139Y-63728227D01*
X161393168Y-63786284D01*
X161422196Y-63815312D01*
X161480253Y-63844341D01*
X161538311Y-63844341D01*
X161596368Y-63815312D01*
X161625396Y-63786284D01*
X161654425Y-63728227D01*
X161683453Y-63612112D01*
X161683453Y-63466970D01*
X161654425Y-63350855D01*
X161625396Y-63292798D01*
X161596368Y-63263770D01*
X161538311Y-63234741D01*
X160783568Y-63234741D02*
X161073853Y-63234741D01*
X161102882Y-63525027D01*
X161073853Y-63495998D01*
X161015796Y-63466970D01*
X160870653Y-63466970D01*
X160812596Y-63495998D01*
X160783568Y-63525027D01*
X160754539Y-63583084D01*
X160754539Y-63728227D01*
X160783568Y-63786284D01*
X160812596Y-63815312D01*
X160870653Y-63844341D01*
X161015796Y-63844341D01*
X161073853Y-63815312D01*
X161102882Y-63786284D01*
D12*
%TO.C,D-0-0*%
X32239236Y-47333972D02*
X34490506Y-46937012D01*
D10*
X34903813Y-49528615D02*
X32737235Y-49910641D01*
D12*
X32768516Y-50335666D02*
X32239236Y-47333972D01*
D10*
X32771965Y-50107602D02*
X34840061Y-49742941D01*
D12*
X35019786Y-49938706D02*
X32768516Y-50335666D01*
D10*
X34938542Y-49725576D02*
X34840061Y-49742941D01*
D12*
X34490506Y-46937012D02*
X35019786Y-49938706D01*
D10*
X32702506Y-49713679D02*
X34869083Y-49331653D01*
X34840061Y-49742941D02*
X34938542Y-49725576D01*
D12*
%TO.C,D-0-1*%
X54685535Y-43938052D02*
X56949288Y-43619903D01*
D10*
X57299731Y-46422404D02*
X57200704Y-46436321D01*
D12*
X56949288Y-43619903D02*
X57373487Y-46638240D01*
X55109734Y-46956389D02*
X54685535Y-43938052D01*
D10*
X55065472Y-46332478D02*
X57244062Y-46026297D01*
X55121141Y-46728585D02*
X57200704Y-46436321D01*
D12*
X57373487Y-46638240D02*
X55109734Y-46956389D01*
D10*
X57200704Y-46436321D02*
X57299731Y-46422404D01*
X57271896Y-46224350D02*
X55093307Y-46530531D01*
%TO.C,D-0-2*%
X76201424Y-30994199D02*
X78289920Y-30774689D01*
D12*
X76182074Y-31221466D02*
X75863471Y-28190164D01*
X78136948Y-27951212D02*
X78455551Y-30982514D01*
X78455551Y-30982514D02*
X76182074Y-31221466D01*
D10*
X78389372Y-30764236D02*
X78289920Y-30774689D01*
X76159613Y-30596390D02*
X78347561Y-30366427D01*
D12*
X75863471Y-28190164D02*
X78136948Y-27951212D01*
D10*
X78289920Y-30774689D02*
X78389372Y-30764236D01*
X78368466Y-30565332D02*
X76180518Y-30795294D01*
%TO.C,D-0-3*%
X101193564Y-26471528D02*
X98998923Y-26624993D01*
D12*
X98985604Y-27050959D02*
X98772986Y-24010384D01*
X98772986Y-24010384D02*
X101053418Y-23850921D01*
D10*
X101207515Y-26671041D02*
X101107758Y-26678017D01*
X99012874Y-26824505D02*
X101107758Y-26678017D01*
D12*
X101053418Y-23850921D02*
X101266036Y-26891496D01*
D10*
X101107758Y-26678017D02*
X101207515Y-26671041D01*
D12*
X101266036Y-26891496D02*
X98985604Y-27050959D01*
D10*
X98984971Y-26425480D02*
X101179612Y-26272016D01*
%TO.C,D-0-4*%
X124374271Y-28256797D02*
X124474210Y-28253307D01*
D12*
X124418628Y-25429526D02*
X124525002Y-28475669D01*
X124525002Y-28475669D02*
X122240394Y-28555450D01*
X122134020Y-25509307D02*
X124418628Y-25429526D01*
D10*
X124474210Y-28253307D02*
X124374271Y-28256797D01*
X122261591Y-27930329D02*
X124460250Y-27853550D01*
X124467230Y-28053428D02*
X122268571Y-28130207D01*
D12*
X122240394Y-28555450D02*
X122134020Y-25509307D01*
D10*
X122275550Y-28330086D02*
X124374271Y-28256797D01*
%TO.C,D-0-5*%
X144639511Y-30886339D02*
X146739511Y-30886339D01*
D12*
X146882511Y-31110339D02*
X144596511Y-31110339D01*
X144596511Y-28062339D02*
X146882511Y-28062339D01*
D10*
X144639511Y-30486339D02*
X146839511Y-30486339D01*
D12*
X144596511Y-31110339D02*
X144596511Y-28062339D01*
D10*
X146839511Y-30886339D02*
X146739511Y-30886339D01*
X146839511Y-30686339D02*
X144639511Y-30686339D01*
D12*
X146882511Y-28062339D02*
X146882511Y-31110339D01*
D10*
X146739511Y-30886339D02*
X146839511Y-30886339D01*
%TO.C,D-1-0*%
X38103813Y-68276945D02*
X35937235Y-68658971D01*
X35971965Y-68855932D02*
X38040061Y-68491271D01*
D12*
X35968516Y-69083996D02*
X35439236Y-66082302D01*
D10*
X35902506Y-68462009D02*
X38069083Y-68079983D01*
D12*
X35439236Y-66082302D02*
X37690506Y-65685342D01*
X38219786Y-68687036D02*
X35968516Y-69083996D01*
X37690506Y-65685342D02*
X38219786Y-68687036D01*
D10*
X38040061Y-68491271D02*
X38138542Y-68473906D01*
X38138542Y-68473906D02*
X38040061Y-68491271D01*
%TO.C,D-1-1*%
X59971896Y-64912208D02*
X57793307Y-65218389D01*
D12*
X59649288Y-62307761D02*
X60073487Y-65326098D01*
D10*
X57765472Y-65020336D02*
X59944062Y-64714155D01*
X59900704Y-65124179D02*
X59999731Y-65110262D01*
X57821141Y-65416443D02*
X59900704Y-65124179D01*
X59999731Y-65110262D02*
X59900704Y-65124179D01*
D12*
X57385535Y-62625910D02*
X59649288Y-62307761D01*
X57809734Y-65644247D02*
X57385535Y-62625910D01*
X60073487Y-65326098D02*
X57809734Y-65644247D01*
D10*
%TO.C,D-1-2*%
X80338466Y-49615332D02*
X78150518Y-49845294D01*
D12*
X77833471Y-47240164D02*
X80106948Y-47001212D01*
D10*
X78129613Y-49646390D02*
X80317561Y-49416427D01*
X78171424Y-50044199D02*
X80259920Y-49824689D01*
X80259920Y-49824689D02*
X80359372Y-49814236D01*
D12*
X80425551Y-50032514D02*
X78152074Y-50271466D01*
X80106948Y-47001212D02*
X80425551Y-50032514D01*
X78152074Y-50271466D02*
X77833471Y-47240164D01*
D10*
X80359372Y-49814236D02*
X80259920Y-49824689D01*
%TO.C,D-1-3*%
X102477515Y-45674636D02*
X102377758Y-45681612D01*
D12*
X100255604Y-46054554D02*
X100042986Y-43013979D01*
X102536036Y-45895091D02*
X100255604Y-46054554D01*
X100042986Y-43013979D02*
X102323418Y-42854516D01*
D10*
X102377758Y-45681612D02*
X102477515Y-45674636D01*
X100282874Y-45828100D02*
X102377758Y-45681612D01*
X102463564Y-45475123D02*
X100268923Y-45628588D01*
D12*
X102323418Y-42854516D02*
X102536036Y-45895091D01*
D10*
X100254971Y-45429075D02*
X102449612Y-45275611D01*
D12*
%TO.C,D-1-4*%
X125018628Y-44467922D02*
X125125002Y-47514065D01*
X122734020Y-44547703D02*
X125018628Y-44467922D01*
D10*
X124974271Y-47295193D02*
X125074210Y-47291703D01*
D12*
X125125002Y-47514065D02*
X122840394Y-47593846D01*
D10*
X125067230Y-47091824D02*
X122868571Y-47168603D01*
X122875550Y-47368482D02*
X124974271Y-47295193D01*
X125074210Y-47291703D02*
X124974271Y-47295193D01*
X122861591Y-46968725D02*
X125060250Y-46891946D01*
D12*
X122840394Y-47593846D02*
X122734020Y-44547703D01*
D10*
%TO.C,D-1-5*%
X144639511Y-49536339D02*
X146839511Y-49536339D01*
X146839511Y-49936339D02*
X146739511Y-49936339D01*
X144639511Y-49936339D02*
X146739511Y-49936339D01*
D12*
X146882511Y-50160339D02*
X144596511Y-50160339D01*
X146882511Y-47112339D02*
X146882511Y-50160339D01*
X144596511Y-47112339D02*
X146882511Y-47112339D01*
X144596511Y-50160339D02*
X144596511Y-47112339D01*
D10*
X146739511Y-49936339D02*
X146839511Y-49936339D01*
X146839511Y-49736339D02*
X144639511Y-49736339D01*
%TO.C,D-2-0*%
X41203813Y-86358615D02*
X39037235Y-86740641D01*
X41140061Y-86572941D02*
X41238542Y-86555576D01*
D12*
X39068516Y-87165666D02*
X38539236Y-84163972D01*
D10*
X39002506Y-86543679D02*
X41169083Y-86161653D01*
X41238542Y-86555576D02*
X41140061Y-86572941D01*
D12*
X41319786Y-86768706D02*
X39068516Y-87165666D01*
D10*
X39071965Y-86937602D02*
X41140061Y-86572941D01*
D12*
X40790506Y-83767012D02*
X41319786Y-86768706D01*
X38539236Y-84163972D02*
X40790506Y-83767012D01*
%TO.C,D-2-1*%
X61949288Y-81172368D02*
X62373487Y-84190705D01*
X59685535Y-81490517D02*
X61949288Y-81172368D01*
X62373487Y-84190705D02*
X60109734Y-84508854D01*
D10*
X62200704Y-83988786D02*
X62299731Y-83974869D01*
D12*
X60109734Y-84508854D02*
X59685535Y-81490517D01*
D10*
X62299731Y-83974869D02*
X62200704Y-83988786D01*
X62271896Y-83776815D02*
X60093307Y-84082996D01*
X60065472Y-83884943D02*
X62244062Y-83578762D01*
X60121141Y-84281050D02*
X62200704Y-83988786D01*
%TO.C,D-2-2*%
X82199372Y-68864236D02*
X82099920Y-68874689D01*
D12*
X81946948Y-66051212D02*
X82265551Y-69082514D01*
X79992074Y-69321466D02*
X79673471Y-66290164D01*
D10*
X79969613Y-68696390D02*
X82157561Y-68466427D01*
X82099920Y-68874689D02*
X82199372Y-68864236D01*
D12*
X82265551Y-69082514D02*
X79992074Y-69321466D01*
D10*
X80011424Y-69094199D02*
X82099920Y-68874689D01*
X82178466Y-68665332D02*
X79990518Y-68895294D01*
D12*
X79673471Y-66290164D02*
X81946948Y-66051212D01*
D10*
%TO.C,D-2-3*%
X101524971Y-64432670D02*
X103719612Y-64279206D01*
X103733564Y-64478718D02*
X101538923Y-64632183D01*
D12*
X103593418Y-61858111D02*
X103806036Y-64898686D01*
X101312986Y-62017574D02*
X103593418Y-61858111D01*
X101525604Y-65058149D02*
X101312986Y-62017574D01*
D10*
X103647758Y-64685207D02*
X103747515Y-64678231D01*
X101552874Y-64831695D02*
X103647758Y-64685207D01*
D12*
X103806036Y-64898686D02*
X101525604Y-65058149D01*
D10*
X103747515Y-64678231D02*
X103647758Y-64685207D01*
D12*
%TO.C,D-2-4*%
X123640394Y-67901467D02*
X123534020Y-64855324D01*
D10*
X125874210Y-67599324D02*
X125774271Y-67602814D01*
D12*
X125818628Y-64775543D02*
X125925002Y-67821686D01*
D10*
X125867230Y-67399445D02*
X123668571Y-67476224D01*
D12*
X123534020Y-64855324D02*
X125818628Y-64775543D01*
D10*
X123675550Y-67676103D02*
X125774271Y-67602814D01*
X125774271Y-67602814D02*
X125874210Y-67599324D01*
X123661591Y-67276346D02*
X125860250Y-67199567D01*
D12*
X125925002Y-67821686D02*
X123640394Y-67901467D01*
D10*
%TO.C,D-2-5*%
X146839511Y-68786339D02*
X144639511Y-68786339D01*
X144639511Y-68986339D02*
X146739511Y-68986339D01*
X144639511Y-68586339D02*
X146839511Y-68586339D01*
D12*
X144596511Y-66162339D02*
X146882511Y-66162339D01*
X144596511Y-69210339D02*
X144596511Y-66162339D01*
X146882511Y-69210339D02*
X144596511Y-69210339D01*
X146882511Y-66162339D02*
X146882511Y-69210339D01*
D10*
X146839511Y-68986339D02*
X146739511Y-68986339D01*
X146739511Y-68986339D02*
X146839511Y-68986339D01*
D12*
%TO.C,D-3-3*%
X124034020Y-89755454D02*
X124140394Y-86709311D01*
D10*
X126290451Y-89409992D02*
X124091792Y-89333213D01*
X124098772Y-89133335D02*
X126297431Y-89210114D01*
D12*
X126318628Y-89835235D02*
X124034020Y-89755454D01*
X126425002Y-86789092D02*
X126318628Y-89835235D01*
D10*
X126183532Y-89606381D02*
X126283472Y-89609871D01*
X124084812Y-89533092D02*
X126183532Y-89606381D01*
D12*
X124140394Y-86709311D02*
X126425002Y-86789092D01*
D10*
X126283472Y-89609871D02*
X126183532Y-89606381D01*
D12*
%TO.C,D-3-4*%
X145406948Y-92181466D02*
X143133471Y-91942514D01*
D10*
X143199650Y-91724236D02*
X145288146Y-91943746D01*
X143241461Y-91326427D02*
X145429409Y-91556390D01*
X145387598Y-91954199D02*
X145288146Y-91943746D01*
D12*
X143452074Y-88911212D02*
X145725551Y-89150164D01*
X145725551Y-89150164D02*
X145406948Y-92181466D01*
D10*
X145408504Y-91755294D02*
X143220556Y-91525332D01*
D12*
X143133471Y-91942514D02*
X143452074Y-88911212D01*
D10*
X145288146Y-91943746D02*
X145387598Y-91954199D01*
%TO.C,D-3-5*%
X162820480Y-95445576D02*
X164888576Y-95810237D01*
X162889939Y-95051653D02*
X165056516Y-95433679D01*
X164987057Y-95827602D02*
X164888576Y-95810237D01*
D12*
X163268516Y-92657012D02*
X165519786Y-93053972D01*
D10*
X164888576Y-95810237D02*
X164987057Y-95827602D01*
X165021787Y-95630641D02*
X162855209Y-95248615D01*
D12*
X162739236Y-95658706D02*
X163268516Y-92657012D01*
X165519786Y-93053972D02*
X164990506Y-96055666D01*
X164990506Y-96055666D02*
X162739236Y-95658706D01*
D13*
%TO.C,U1*%
X149549511Y-51596339D02*
X149549511Y-21116339D01*
X149549511Y-21116339D02*
X149549511Y-18576339D01*
X164789511Y-21116339D02*
X167329511Y-21116339D01*
X167329511Y-51596339D02*
X149549511Y-51596339D01*
X167329511Y-18576339D02*
X167329511Y-21116339D01*
X149549511Y-18576339D02*
X167329511Y-18576339D01*
X167329511Y-21116339D02*
X167329511Y-51596339D01*
X164789511Y-23656339D02*
X167329511Y-23656339D01*
X164789511Y-21116339D02*
X164789511Y-23656339D01*
D10*
X153507943Y-27595699D02*
X153507943Y-27795699D01*
X153507943Y-27795699D02*
X153607943Y-27795699D01*
X153607943Y-27795699D02*
X153607943Y-27595699D01*
X153607943Y-27595699D02*
X153507943Y-27595699D01*
G36*
X153607943Y-27795699D02*
G01*
X153507943Y-27795699D01*
X153507943Y-27595699D01*
X153607943Y-27595699D01*
X153607943Y-27795699D01*
G37*
X153607943Y-27795699D02*
X153507943Y-27795699D01*
X153507943Y-27595699D01*
X153607943Y-27595699D01*
X153607943Y-27795699D01*
X153507943Y-26995699D02*
X153507943Y-27095699D01*
X153507943Y-27095699D02*
X154007943Y-27095699D01*
X154007943Y-27095699D02*
X154007943Y-26995699D01*
X154007943Y-26995699D02*
X153507943Y-26995699D01*
G36*
X154007943Y-27095699D02*
G01*
X153507943Y-27095699D01*
X153507943Y-26995699D01*
X154007943Y-26995699D01*
X154007943Y-27095699D01*
G37*
X154007943Y-27095699D02*
X153507943Y-27095699D01*
X153507943Y-26995699D01*
X154007943Y-26995699D01*
X154007943Y-27095699D01*
X153907943Y-26995699D02*
X153907943Y-27795699D01*
X153907943Y-27795699D02*
X154007943Y-27795699D01*
X154007943Y-27795699D02*
X154007943Y-26995699D01*
X154007943Y-26995699D02*
X153907943Y-26995699D01*
G36*
X154007943Y-27795699D02*
G01*
X153907943Y-27795699D01*
X153907943Y-26995699D01*
X154007943Y-26995699D01*
X154007943Y-27795699D01*
G37*
X154007943Y-27795699D02*
X153907943Y-27795699D01*
X153907943Y-26995699D01*
X154007943Y-26995699D01*
X154007943Y-27795699D01*
X153507943Y-26995699D02*
X153507943Y-27295699D01*
X153507943Y-27295699D02*
X153607943Y-27295699D01*
X153607943Y-27295699D02*
X153607943Y-26995699D01*
X153607943Y-26995699D02*
X153507943Y-26995699D01*
G36*
X153607943Y-27295699D02*
G01*
X153507943Y-27295699D01*
X153507943Y-26995699D01*
X153607943Y-26995699D01*
X153607943Y-27295699D01*
G37*
X153607943Y-27295699D02*
X153507943Y-27295699D01*
X153507943Y-26995699D01*
X153607943Y-26995699D01*
X153607943Y-27295699D01*
X153707943Y-27395699D02*
X153707943Y-27495699D01*
X153707943Y-27495699D02*
X153807943Y-27495699D01*
X153807943Y-27495699D02*
X153807943Y-27395699D01*
X153807943Y-27395699D02*
X153707943Y-27395699D01*
G36*
X153807943Y-27495699D02*
G01*
X153707943Y-27495699D01*
X153707943Y-27395699D01*
X153807943Y-27395699D01*
X153807943Y-27495699D01*
G37*
X153807943Y-27495699D02*
X153707943Y-27495699D01*
X153707943Y-27395699D01*
X153807943Y-27395699D01*
X153807943Y-27495699D01*
D12*
%TO.C,J2*%
X166544651Y-80667610D02*
X166544651Y-72768210D01*
X157547971Y-80667610D02*
X166544651Y-80667610D01*
X166544651Y-68368930D02*
X166544651Y-60469530D01*
X164819991Y-64853570D02*
X164819991Y-66123570D01*
X164858091Y-64853570D02*
X164858091Y-66123570D01*
X166544651Y-60469530D02*
X157647031Y-60469530D01*
X166544651Y-68368930D02*
X165046051Y-68368930D01*
X165046051Y-68368930D02*
X165046051Y-72768210D01*
X165046051Y-72768210D02*
X166544651Y-72768210D01*
X157547971Y-60469530D02*
X157547971Y-80667610D01*
X166544651Y-72768210D02*
X166544651Y-68368930D01*
%TD*%
D14*
%TO.C,U1*%
X166059511Y-22386339D03*
D15*
X166059511Y-24926339D03*
X166059511Y-27466339D03*
X166059511Y-30006339D03*
X166059511Y-32546339D03*
X166059511Y-35086339D03*
X166059511Y-37626339D03*
X166059511Y-40166339D03*
X166059511Y-42706339D03*
X166059511Y-45246339D03*
X166059511Y-47786339D03*
X166059511Y-50326339D03*
X150819511Y-50326339D03*
X150819511Y-47786339D03*
X150819511Y-45246339D03*
X150819511Y-42706339D03*
X150819511Y-40166339D03*
X150819511Y-37626339D03*
X150819511Y-35086339D03*
X150819511Y-32546339D03*
X150819511Y-30006339D03*
X150819511Y-27466339D03*
X150819511Y-24926339D03*
X150819511Y-22386339D03*
%TD*%
M02*
