%TF.GenerationSoftware,KiCad,Pcbnew,(6.0.0)*%
%TF.CreationDate,2022-02-12T21:01:19+07:00*%
%TF.ProjectId,PCB Top,50434220-546f-4702-9e6b-696361645f70,rev?*%
%TF.SameCoordinates,Original*%
%TF.FileFunction,Legend,Top*%
%TF.FilePolarity,Positive*%
%FSLAX46Y46*%
G04 Gerber Fmt 4.6, Leading zero omitted, Abs format (unit mm)*
G04 Created by KiCad (PCBNEW (6.0.0)) date 2022-02-12 21:01:19*
%MOMM*%
%LPD*%
G01*
G04 APERTURE LIST*
%ADD10C,0.400000*%
%ADD11C,0.200000*%
%ADD12C,0.150000*%
G04 APERTURE END LIST*
D10*
X67266036Y-93931059D02*
X67548383Y-94126493D01*
X68024501Y-94134803D01*
X68218272Y-93947680D01*
X68316820Y-93758895D01*
X68418692Y-93379663D01*
X68425341Y-92998769D01*
X68336766Y-92616212D01*
X68244866Y-92424103D01*
X68057744Y-92230331D01*
X67680173Y-92033236D01*
X67493051Y-91839464D01*
X67401151Y-91647355D01*
X67312576Y-91264798D01*
X67319225Y-90883904D01*
X67421097Y-90504672D01*
X67519645Y-90315887D01*
X67713416Y-90128764D01*
X68189534Y-90137075D01*
X68471881Y-90332508D01*
X69262408Y-94156411D02*
X69332217Y-90157020D01*
X70119420Y-94171370D02*
X70155987Y-92076451D01*
X70067412Y-91693895D01*
X69880289Y-91500123D01*
X69594618Y-91495137D01*
X69400847Y-91682260D01*
X69302299Y-91871045D01*
X71071656Y-94187992D02*
X71118195Y-91521731D01*
X71104898Y-92283520D02*
X71206771Y-91904288D01*
X71305318Y-91715502D01*
X71499090Y-91528380D01*
X71689537Y-91531704D01*
X72309562Y-94209599D02*
X72356102Y-91543339D01*
X72379372Y-90210209D02*
X72280824Y-90398994D01*
X72372723Y-90591103D01*
X72471271Y-90402318D01*
X72379372Y-90210209D01*
X72372723Y-90591103D01*
X73261798Y-94226221D02*
X73308338Y-91559960D01*
X73301690Y-91940854D02*
X73400237Y-91752069D01*
X73594009Y-91564947D01*
X73879680Y-91569933D01*
X74066803Y-91763704D01*
X74155378Y-92146261D01*
X74118811Y-94241180D01*
X74155378Y-92146261D02*
X74257250Y-91767029D01*
X74451021Y-91579906D01*
X74736692Y-91584892D01*
X74923815Y-91778664D01*
X75012390Y-92161220D01*
X74975823Y-94256139D01*
X75974599Y-91606500D02*
X75904789Y-95605891D01*
X75971274Y-91796947D02*
X76165046Y-91609824D01*
X76545940Y-91616473D01*
X76733063Y-91810244D01*
X76824962Y-92002353D01*
X76913537Y-92384910D01*
X76893592Y-93527593D01*
X76791720Y-93906825D01*
X76693172Y-94095610D01*
X76499400Y-94282733D01*
X76118506Y-94276085D01*
X75931383Y-94082313D01*
X80164437Y-91679634D02*
X80117897Y-94345894D01*
X79714913Y-90147746D02*
X79188931Y-92996143D01*
X80426837Y-93017750D01*
X81133294Y-90744019D02*
X81231842Y-90555234D01*
X81425613Y-90368111D01*
X81901731Y-90376422D01*
X82088854Y-90570193D01*
X82180753Y-90762303D01*
X82269328Y-91144859D01*
X82262680Y-91525754D01*
X82157483Y-92095433D01*
X80974909Y-94360853D01*
X82212816Y-94382461D01*
D11*
X83705155Y-94488621D02*
X83388494Y-93530568D01*
X83133814Y-94478648D02*
X83168718Y-92478953D01*
X83549613Y-92485602D01*
X83643174Y-92582487D01*
X83689124Y-92678542D01*
X83733411Y-92869820D01*
X83728425Y-93155491D01*
X83677489Y-93345107D01*
X83628215Y-93439500D01*
X83531329Y-93533061D01*
X83150435Y-93526412D01*
X84516218Y-94407526D02*
X84419332Y-94501087D01*
X84228885Y-94497763D01*
X84135323Y-94400877D01*
X84091036Y-94209599D01*
X84104333Y-93447810D01*
X84155269Y-93258194D01*
X84252155Y-93164633D01*
X84442602Y-93167957D01*
X84536163Y-93264843D01*
X84580451Y-93456121D01*
X84577127Y-93646568D01*
X84097684Y-93828705D01*
X84918720Y-93176268D02*
X85133509Y-94513553D01*
X85394838Y-93184578D01*
X86498220Y-92727575D02*
X86547494Y-92633182D01*
X86644379Y-92539621D01*
X86882438Y-92543776D01*
X86976000Y-92640662D01*
X87021949Y-92736717D01*
X87066237Y-92927995D01*
X87062913Y-93118442D01*
X87010315Y-93403282D01*
X86419027Y-94535992D01*
X87037981Y-94546796D01*
D12*
X69910322Y-96558841D02*
X69910322Y-97368365D01*
X69862703Y-97463603D01*
X69815084Y-97511222D01*
X69719845Y-97558841D01*
X69576988Y-97558841D01*
X69481750Y-97511222D01*
X69910322Y-97177888D02*
X69815084Y-97225507D01*
X69624607Y-97225507D01*
X69529369Y-97177888D01*
X69481750Y-97130269D01*
X69434131Y-97035031D01*
X69434131Y-96749317D01*
X69481750Y-96654079D01*
X69529369Y-96606460D01*
X69624607Y-96558841D01*
X69815084Y-96558841D01*
X69910322Y-96606460D01*
X70386512Y-97225507D02*
X70386512Y-96558841D01*
X70386512Y-96225507D02*
X70338893Y-96273127D01*
X70386512Y-96320746D01*
X70434131Y-96273127D01*
X70386512Y-96225507D01*
X70386512Y-96320746D01*
X70719845Y-96558841D02*
X71100798Y-96558841D01*
X70862703Y-96225507D02*
X70862703Y-97082650D01*
X70910322Y-97177888D01*
X71005560Y-97225507D01*
X71100798Y-97225507D01*
X71434131Y-97225507D02*
X71434131Y-96225507D01*
X71862703Y-97225507D02*
X71862703Y-96701698D01*
X71815084Y-96606460D01*
X71719845Y-96558841D01*
X71576988Y-96558841D01*
X71481750Y-96606460D01*
X71434131Y-96654079D01*
X72767465Y-96558841D02*
X72767465Y-97225507D01*
X72338893Y-96558841D02*
X72338893Y-97082650D01*
X72386512Y-97177888D01*
X72481750Y-97225507D01*
X72624607Y-97225507D01*
X72719845Y-97177888D01*
X72767465Y-97130269D01*
X73243655Y-97225507D02*
X73243655Y-96225507D01*
X73243655Y-96606460D02*
X73338893Y-96558841D01*
X73529369Y-96558841D01*
X73624607Y-96606460D01*
X73672226Y-96654079D01*
X73719845Y-96749317D01*
X73719845Y-97035031D01*
X73672226Y-97130269D01*
X73624607Y-97177888D01*
X73529369Y-97225507D01*
X73338893Y-97225507D01*
X73243655Y-97177888D01*
X74148417Y-97130269D02*
X74196036Y-97177888D01*
X74148417Y-97225507D01*
X74100798Y-97177888D01*
X74148417Y-97130269D01*
X74148417Y-97225507D01*
X75053179Y-97177888D02*
X74957941Y-97225507D01*
X74767465Y-97225507D01*
X74672226Y-97177888D01*
X74624607Y-97130269D01*
X74576988Y-97035031D01*
X74576988Y-96749317D01*
X74624607Y-96654079D01*
X74672226Y-96606460D01*
X74767465Y-96558841D01*
X74957941Y-96558841D01*
X75053179Y-96606460D01*
X75624607Y-97225507D02*
X75529369Y-97177888D01*
X75481750Y-97130269D01*
X75434131Y-97035031D01*
X75434131Y-96749317D01*
X75481750Y-96654079D01*
X75529369Y-96606460D01*
X75624607Y-96558841D01*
X75767465Y-96558841D01*
X75862703Y-96606460D01*
X75910322Y-96654079D01*
X75957941Y-96749317D01*
X75957941Y-97035031D01*
X75910322Y-97130269D01*
X75862703Y-97177888D01*
X75767465Y-97225507D01*
X75624607Y-97225507D01*
X76386512Y-97225507D02*
X76386512Y-96558841D01*
X76386512Y-96654079D02*
X76434131Y-96606460D01*
X76529369Y-96558841D01*
X76672226Y-96558841D01*
X76767465Y-96606460D01*
X76815084Y-96701698D01*
X76815084Y-97225507D01*
X76815084Y-96701698D02*
X76862703Y-96606460D01*
X76957941Y-96558841D01*
X77100798Y-96558841D01*
X77196036Y-96606460D01*
X77243655Y-96701698D01*
X77243655Y-97225507D01*
X78434131Y-96177888D02*
X77576988Y-97463603D01*
X79291274Y-96273127D02*
X79196036Y-96225507D01*
X79053179Y-96225507D01*
X78910322Y-96273127D01*
X78815084Y-96368365D01*
X78767465Y-96463603D01*
X78719845Y-96654079D01*
X78719845Y-96796936D01*
X78767465Y-96987412D01*
X78815084Y-97082650D01*
X78910322Y-97177888D01*
X79053179Y-97225507D01*
X79148417Y-97225507D01*
X79291274Y-97177888D01*
X79338893Y-97130269D01*
X79338893Y-96796936D01*
X79148417Y-96796936D01*
X79767465Y-97225507D02*
X79767465Y-96558841D01*
X79767465Y-96749317D02*
X79815084Y-96654079D01*
X79862703Y-96606460D01*
X79957941Y-96558841D01*
X80053179Y-96558841D01*
X80767465Y-97177888D02*
X80672226Y-97225507D01*
X80481750Y-97225507D01*
X80386512Y-97177888D01*
X80338893Y-97082650D01*
X80338893Y-96701698D01*
X80386512Y-96606460D01*
X80481750Y-96558841D01*
X80672226Y-96558841D01*
X80767465Y-96606460D01*
X80815084Y-96701698D01*
X80815084Y-96796936D01*
X80338893Y-96892174D01*
X81624607Y-97177888D02*
X81529369Y-97225507D01*
X81338893Y-97225507D01*
X81243655Y-97177888D01*
X81196036Y-97082650D01*
X81196036Y-96701698D01*
X81243655Y-96606460D01*
X81338893Y-96558841D01*
X81529369Y-96558841D01*
X81624607Y-96606460D01*
X81672226Y-96701698D01*
X81672226Y-96796936D01*
X81196036Y-96892174D01*
X82100798Y-96558841D02*
X82100798Y-97225507D01*
X82100798Y-96654079D02*
X82148417Y-96606460D01*
X82243655Y-96558841D01*
X82386512Y-96558841D01*
X82481750Y-96606460D01*
X82529369Y-96701698D01*
X82529369Y-97225507D01*
X83005560Y-97225507D02*
X83005560Y-96225507D01*
X83338893Y-96939793D01*
X83672226Y-96225507D01*
X83672226Y-97225507D01*
X84576988Y-97225507D02*
X84576988Y-96701698D01*
X84529369Y-96606460D01*
X84434131Y-96558841D01*
X84243655Y-96558841D01*
X84148417Y-96606460D01*
X84576988Y-97177888D02*
X84481750Y-97225507D01*
X84243655Y-97225507D01*
X84148417Y-97177888D01*
X84100798Y-97082650D01*
X84100798Y-96987412D01*
X84148417Y-96892174D01*
X84243655Y-96844555D01*
X84481750Y-96844555D01*
X84576988Y-96796936D01*
X85005560Y-97177888D02*
X85100798Y-97225507D01*
X85291274Y-97225507D01*
X85386512Y-97177888D01*
X85434131Y-97082650D01*
X85434131Y-97035031D01*
X85386512Y-96939793D01*
X85291274Y-96892174D01*
X85148417Y-96892174D01*
X85053179Y-96844555D01*
X85005560Y-96749317D01*
X85005560Y-96701698D01*
X85053179Y-96606460D01*
X85148417Y-96558841D01*
X85291274Y-96558841D01*
X85386512Y-96606460D01*
X85862703Y-97225507D02*
X85862703Y-96225507D01*
X86291274Y-97225507D02*
X86291274Y-96701698D01*
X86243655Y-96606460D01*
X86148417Y-96558841D01*
X86005560Y-96558841D01*
X85910322Y-96606460D01*
X85862703Y-96654079D01*
X87148417Y-97177888D02*
X87053179Y-97225507D01*
X86862703Y-97225507D01*
X86767465Y-97177888D01*
X86719845Y-97082650D01*
X86719845Y-96701698D01*
X86767465Y-96606460D01*
X86862703Y-96558841D01*
X87053179Y-96558841D01*
X87148417Y-96606460D01*
X87196036Y-96701698D01*
X87196036Y-96796936D01*
X86719845Y-96892174D01*
X88053179Y-97225507D02*
X88053179Y-96225507D01*
X88053179Y-97177888D02*
X87957941Y-97225507D01*
X87767465Y-97225507D01*
X87672226Y-97177888D01*
X87624607Y-97130269D01*
X87576988Y-97035031D01*
X87576988Y-96749317D01*
X87624607Y-96654079D01*
X87672226Y-96606460D01*
X87767465Y-96558841D01*
X87957941Y-96558841D01*
X88053179Y-96606460D01*
X88529369Y-97225507D02*
X88529369Y-96225507D01*
X88910322Y-96225507D01*
X89005560Y-96273127D01*
X89053179Y-96320746D01*
X89100798Y-96415984D01*
X89100798Y-96558841D01*
X89053179Y-96654079D01*
X89005560Y-96701698D01*
X88910322Y-96749317D01*
X88529369Y-96749317D01*
X89672226Y-97225507D02*
X89576988Y-97177888D01*
X89529369Y-97130269D01*
X89481750Y-97035031D01*
X89481750Y-96749317D01*
X89529369Y-96654079D01*
X89576988Y-96606460D01*
X89672226Y-96558841D01*
X89815084Y-96558841D01*
X89910322Y-96606460D01*
X89957941Y-96654079D01*
X90005560Y-96749317D01*
X90005560Y-97035031D01*
X89957941Y-97130269D01*
X89910322Y-97177888D01*
X89815084Y-97225507D01*
X89672226Y-97225507D01*
X90291274Y-96558841D02*
X90672226Y-96558841D01*
X90434131Y-96225507D02*
X90434131Y-97082650D01*
X90481750Y-97177888D01*
X90576988Y-97225507D01*
X90672226Y-97225507D01*
X91434131Y-97225507D02*
X91434131Y-96701698D01*
X91386512Y-96606460D01*
X91291274Y-96558841D01*
X91100798Y-96558841D01*
X91005560Y-96606460D01*
X91434131Y-97177888D02*
X91338893Y-97225507D01*
X91100798Y-97225507D01*
X91005560Y-97177888D01*
X90957941Y-97082650D01*
X90957941Y-96987412D01*
X91005560Y-96892174D01*
X91100798Y-96844555D01*
X91338893Y-96844555D01*
X91434131Y-96796936D01*
X91767465Y-96558841D02*
X92148417Y-96558841D01*
X91910322Y-96225507D02*
X91910322Y-97082650D01*
X91957941Y-97177888D01*
X92053179Y-97225507D01*
X92148417Y-97225507D01*
X92624607Y-97225507D02*
X92529369Y-97177888D01*
X92481750Y-97130269D01*
X92434131Y-97035031D01*
X92434131Y-96749317D01*
X92481750Y-96654079D01*
X92529369Y-96606460D01*
X92624607Y-96558841D01*
X92767465Y-96558841D01*
X92862703Y-96606460D01*
X92910322Y-96654079D01*
X92957941Y-96749317D01*
X92957941Y-97035031D01*
X92910322Y-97130269D01*
X92862703Y-97177888D01*
X92767465Y-97225507D01*
X92624607Y-97225507D01*
X94100798Y-96177888D02*
X93243655Y-97463603D01*
X94386512Y-97177888D02*
X94529369Y-97225507D01*
X94767465Y-97225507D01*
X94862703Y-97177888D01*
X94910322Y-97130269D01*
X94957941Y-97035031D01*
X94957941Y-96939793D01*
X94910322Y-96844555D01*
X94862703Y-96796936D01*
X94767465Y-96749317D01*
X94576988Y-96701698D01*
X94481750Y-96654079D01*
X94434131Y-96606460D01*
X94386512Y-96511222D01*
X94386512Y-96415984D01*
X94434131Y-96320746D01*
X94481750Y-96273127D01*
X94576988Y-96225507D01*
X94815084Y-96225507D01*
X94957941Y-96273127D01*
X95386512Y-97225507D02*
X95386512Y-96225507D01*
X95815084Y-97225507D02*
X95815084Y-96701698D01*
X95767465Y-96606460D01*
X95672226Y-96558841D01*
X95529369Y-96558841D01*
X95434131Y-96606460D01*
X95386512Y-96654079D01*
X96291274Y-97225507D02*
X96291274Y-96558841D01*
X96291274Y-96749317D02*
X96338893Y-96654079D01*
X96386512Y-96606460D01*
X96481750Y-96558841D01*
X96576988Y-96558841D01*
X96910322Y-97225507D02*
X96910322Y-96558841D01*
X96910322Y-96225507D02*
X96862703Y-96273127D01*
X96910322Y-96320746D01*
X96957941Y-96273127D01*
X96910322Y-96225507D01*
X96910322Y-96320746D01*
X97386512Y-97225507D02*
X97386512Y-96558841D01*
X97386512Y-96654079D02*
X97434131Y-96606460D01*
X97529369Y-96558841D01*
X97672226Y-96558841D01*
X97767465Y-96606460D01*
X97815084Y-96701698D01*
X97815084Y-97225507D01*
X97815084Y-96701698D02*
X97862703Y-96606460D01*
X97957941Y-96558841D01*
X98100798Y-96558841D01*
X98196036Y-96606460D01*
X98243655Y-96701698D01*
X98243655Y-97225507D01*
X98719845Y-96558841D02*
X98719845Y-97558841D01*
X98719845Y-96606460D02*
X98815084Y-96558841D01*
X99005560Y-96558841D01*
X99100798Y-96606460D01*
X99148417Y-96654079D01*
X99196036Y-96749317D01*
X99196036Y-97035031D01*
X99148417Y-97130269D01*
X99100798Y-97177888D01*
X99005560Y-97225507D01*
X98815084Y-97225507D01*
X98719845Y-97177888D01*
X100053179Y-96558841D02*
X100053179Y-97225507D01*
X99815084Y-96177888D02*
X99576988Y-96892174D01*
X100196036Y-96892174D01*
X100529369Y-96320746D02*
X100576988Y-96273127D01*
X100672226Y-96225507D01*
X100910322Y-96225507D01*
X101005560Y-96273127D01*
X101053179Y-96320746D01*
X101100798Y-96415984D01*
X101100798Y-96511222D01*
X101053179Y-96654079D01*
X100481750Y-97225507D01*
X101100798Y-97225507D01*
%TO.C,Ref\u002A\u002A*%
X135893673Y-79499128D02*
X135560340Y-79022938D01*
X135322244Y-79499128D02*
X135322244Y-78499128D01*
X135703197Y-78499128D01*
X135798435Y-78546748D01*
X135846054Y-78594367D01*
X135893673Y-78689605D01*
X135893673Y-78832462D01*
X135846054Y-78927700D01*
X135798435Y-78975319D01*
X135703197Y-79022938D01*
X135322244Y-79022938D01*
X136703197Y-79451509D02*
X136607959Y-79499128D01*
X136417482Y-79499128D01*
X136322244Y-79451509D01*
X136274625Y-79356271D01*
X136274625Y-78975319D01*
X136322244Y-78880081D01*
X136417482Y-78832462D01*
X136607959Y-78832462D01*
X136703197Y-78880081D01*
X136750816Y-78975319D01*
X136750816Y-79070557D01*
X136274625Y-79165795D01*
X137036530Y-78832462D02*
X137417482Y-78832462D01*
X137179387Y-79499128D02*
X137179387Y-78641986D01*
X137227006Y-78546748D01*
X137322244Y-78499128D01*
X137417482Y-78499128D01*
X137893673Y-78499128D02*
X137893673Y-78737224D01*
X137655578Y-78641986D02*
X137893673Y-78737224D01*
X138131768Y-78641986D01*
X137750816Y-78927700D02*
X137893673Y-78737224D01*
X138036530Y-78927700D01*
X138655578Y-78499128D02*
X138655578Y-78737224D01*
X138417482Y-78641986D02*
X138655578Y-78737224D01*
X138893673Y-78641986D01*
X138512720Y-78927700D02*
X138655578Y-78737224D01*
X138798435Y-78927700D01*
X38870526Y-67916275D02*
X38537193Y-67440085D01*
X38299097Y-67916275D02*
X38299097Y-66916275D01*
X38680050Y-66916275D01*
X38775288Y-66963895D01*
X38822907Y-67011514D01*
X38870526Y-67106752D01*
X38870526Y-67249609D01*
X38822907Y-67344847D01*
X38775288Y-67392466D01*
X38680050Y-67440085D01*
X38299097Y-67440085D01*
X39680050Y-67868656D02*
X39584812Y-67916275D01*
X39394335Y-67916275D01*
X39299097Y-67868656D01*
X39251478Y-67773418D01*
X39251478Y-67392466D01*
X39299097Y-67297228D01*
X39394335Y-67249609D01*
X39584812Y-67249609D01*
X39680050Y-67297228D01*
X39727669Y-67392466D01*
X39727669Y-67487704D01*
X39251478Y-67582942D01*
X40013383Y-67249609D02*
X40394335Y-67249609D01*
X40156240Y-67916275D02*
X40156240Y-67059133D01*
X40203859Y-66963895D01*
X40299097Y-66916275D01*
X40394335Y-66916275D01*
X40870526Y-66916275D02*
X40870526Y-67154371D01*
X40632431Y-67059133D02*
X40870526Y-67154371D01*
X41108621Y-67059133D01*
X40727669Y-67344847D02*
X40870526Y-67154371D01*
X41013383Y-67344847D01*
X41632431Y-66916275D02*
X41632431Y-67154371D01*
X41394335Y-67059133D02*
X41632431Y-67154371D01*
X41870526Y-67059133D01*
X41489573Y-67344847D02*
X41632431Y-67154371D01*
X41775288Y-67344847D01*
X43493326Y-87525075D02*
X43159993Y-87048885D01*
X42921897Y-87525075D02*
X42921897Y-86525075D01*
X43302850Y-86525075D01*
X43398088Y-86572695D01*
X43445707Y-86620314D01*
X43493326Y-86715552D01*
X43493326Y-86858409D01*
X43445707Y-86953647D01*
X43398088Y-87001266D01*
X43302850Y-87048885D01*
X42921897Y-87048885D01*
X44302850Y-87477456D02*
X44207612Y-87525075D01*
X44017135Y-87525075D01*
X43921897Y-87477456D01*
X43874278Y-87382218D01*
X43874278Y-87001266D01*
X43921897Y-86906028D01*
X44017135Y-86858409D01*
X44207612Y-86858409D01*
X44302850Y-86906028D01*
X44350469Y-87001266D01*
X44350469Y-87096504D01*
X43874278Y-87191742D01*
X44636183Y-86858409D02*
X45017135Y-86858409D01*
X44779040Y-87525075D02*
X44779040Y-86667933D01*
X44826659Y-86572695D01*
X44921897Y-86525075D01*
X45017135Y-86525075D01*
X45493326Y-86525075D02*
X45493326Y-86763171D01*
X45255231Y-86667933D02*
X45493326Y-86763171D01*
X45731421Y-86667933D01*
X45350469Y-86953647D02*
X45493326Y-86763171D01*
X45636183Y-86953647D01*
X46255231Y-86525075D02*
X46255231Y-86763171D01*
X46017135Y-86667933D02*
X46255231Y-86763171D01*
X46493326Y-86667933D01*
X46112373Y-86953647D02*
X46255231Y-86763171D01*
X46398088Y-86953647D01*
X77224526Y-44599075D02*
X76891193Y-44122885D01*
X76653097Y-44599075D02*
X76653097Y-43599075D01*
X77034050Y-43599075D01*
X77129288Y-43646695D01*
X77176907Y-43694314D01*
X77224526Y-43789552D01*
X77224526Y-43932409D01*
X77176907Y-44027647D01*
X77129288Y-44075266D01*
X77034050Y-44122885D01*
X76653097Y-44122885D01*
X78034050Y-44551456D02*
X77938812Y-44599075D01*
X77748335Y-44599075D01*
X77653097Y-44551456D01*
X77605478Y-44456218D01*
X77605478Y-44075266D01*
X77653097Y-43980028D01*
X77748335Y-43932409D01*
X77938812Y-43932409D01*
X78034050Y-43980028D01*
X78081669Y-44075266D01*
X78081669Y-44170504D01*
X77605478Y-44265742D01*
X78367383Y-43932409D02*
X78748335Y-43932409D01*
X78510240Y-44599075D02*
X78510240Y-43741933D01*
X78557859Y-43646695D01*
X78653097Y-43599075D01*
X78748335Y-43599075D01*
X79224526Y-43599075D02*
X79224526Y-43837171D01*
X78986431Y-43741933D02*
X79224526Y-43837171D01*
X79462621Y-43741933D01*
X79081669Y-44027647D02*
X79224526Y-43837171D01*
X79367383Y-44027647D01*
X79986431Y-43599075D02*
X79986431Y-43837171D01*
X79748335Y-43741933D02*
X79986431Y-43837171D01*
X80224526Y-43741933D01*
X79843573Y-44027647D02*
X79986431Y-43837171D01*
X80129288Y-44027647D01*
X83258932Y-84783672D02*
X82925599Y-84307482D01*
X82687503Y-84783672D02*
X82687503Y-83783672D01*
X83068456Y-83783672D01*
X83163694Y-83831292D01*
X83211313Y-83878911D01*
X83258932Y-83974149D01*
X83258932Y-84117006D01*
X83211313Y-84212244D01*
X83163694Y-84259863D01*
X83068456Y-84307482D01*
X82687503Y-84307482D01*
X84068456Y-84736053D02*
X83973218Y-84783672D01*
X83782741Y-84783672D01*
X83687503Y-84736053D01*
X83639884Y-84640815D01*
X83639884Y-84259863D01*
X83687503Y-84164625D01*
X83782741Y-84117006D01*
X83973218Y-84117006D01*
X84068456Y-84164625D01*
X84116075Y-84259863D01*
X84116075Y-84355101D01*
X83639884Y-84450339D01*
X84401789Y-84117006D02*
X84782741Y-84117006D01*
X84544646Y-84783672D02*
X84544646Y-83926530D01*
X84592265Y-83831292D01*
X84687503Y-83783672D01*
X84782741Y-83783672D01*
X85258932Y-83783672D02*
X85258932Y-84021768D01*
X85020837Y-83926530D02*
X85258932Y-84021768D01*
X85497027Y-83926530D01*
X85116075Y-84212244D02*
X85258932Y-84021768D01*
X85401789Y-84212244D01*
X86020837Y-83783672D02*
X86020837Y-84021768D01*
X85782741Y-83926530D02*
X86020837Y-84021768D01*
X86258932Y-83926530D01*
X85877979Y-84212244D02*
X86020837Y-84021768D01*
X86163694Y-84212244D01*
X119693673Y-41099128D02*
X119360340Y-40622938D01*
X119122244Y-41099128D02*
X119122244Y-40099128D01*
X119503197Y-40099128D01*
X119598435Y-40146748D01*
X119646054Y-40194367D01*
X119693673Y-40289605D01*
X119693673Y-40432462D01*
X119646054Y-40527700D01*
X119598435Y-40575319D01*
X119503197Y-40622938D01*
X119122244Y-40622938D01*
X120503197Y-41051509D02*
X120407959Y-41099128D01*
X120217482Y-41099128D01*
X120122244Y-41051509D01*
X120074625Y-40956271D01*
X120074625Y-40575319D01*
X120122244Y-40480081D01*
X120217482Y-40432462D01*
X120407959Y-40432462D01*
X120503197Y-40480081D01*
X120550816Y-40575319D01*
X120550816Y-40670557D01*
X120074625Y-40765795D01*
X120836530Y-40432462D02*
X121217482Y-40432462D01*
X120979387Y-41099128D02*
X120979387Y-40241986D01*
X121027006Y-40146748D01*
X121122244Y-40099128D01*
X121217482Y-40099128D01*
X121693673Y-40099128D02*
X121693673Y-40337224D01*
X121455578Y-40241986D02*
X121693673Y-40337224D01*
X121931768Y-40241986D01*
X121550816Y-40527700D02*
X121693673Y-40337224D01*
X121836530Y-40527700D01*
X122455578Y-40099128D02*
X122455578Y-40337224D01*
X122217482Y-40241986D02*
X122455578Y-40337224D01*
X122693673Y-40241986D01*
X122312720Y-40527700D02*
X122455578Y-40337224D01*
X122598435Y-40527700D01*
%TO.C,G\u002A\u002A\u002A*%
G36*
X96454168Y-92575809D02*
G01*
X96771197Y-92062498D01*
X97004615Y-91506745D01*
X97151159Y-90916889D01*
X97207568Y-90301263D01*
X97170583Y-89668203D01*
X97138554Y-89463656D01*
X97102586Y-89253839D01*
X97077164Y-89084442D01*
X97065305Y-88976993D01*
X97066578Y-88950254D01*
X97116250Y-88963763D01*
X97226969Y-89014648D01*
X97345361Y-89076185D01*
X97888240Y-89326568D01*
X98429097Y-89490304D01*
X98958980Y-89566403D01*
X99468937Y-89553874D01*
X99950017Y-89451723D01*
X100133703Y-89384995D01*
X100383492Y-89282394D01*
X100372274Y-89442807D01*
X100344499Y-89637540D01*
X100288354Y-89893621D01*
X100212399Y-90179467D01*
X100125195Y-90463496D01*
X100035303Y-90714125D01*
X100012575Y-90769853D01*
X99693790Y-91406185D01*
X99304797Y-91974817D01*
X98851131Y-92471890D01*
X98338331Y-92893543D01*
X97771934Y-93235915D01*
X97157476Y-93495145D01*
X96500497Y-93667374D01*
X95806532Y-93748742D01*
X95735404Y-93751729D01*
X95182698Y-93771221D01*
X92644114Y-94843217D01*
X90105531Y-95915211D01*
X89855081Y-95603651D01*
X89702191Y-95394983D01*
X89606060Y-95210276D01*
X89546402Y-95009748D01*
X89542239Y-94990101D01*
X89510008Y-94732492D01*
X89799962Y-94732492D01*
X89838564Y-94948108D01*
X89902052Y-95124778D01*
X89987287Y-95294412D01*
X90078607Y-95431428D01*
X90160353Y-95510243D01*
X90188597Y-95519866D01*
X90245701Y-95501457D01*
X90385192Y-95447608D01*
X90597530Y-95362251D01*
X90873178Y-95249310D01*
X91202597Y-95112715D01*
X91576247Y-94956394D01*
X91984590Y-94784275D01*
X92313582Y-94644757D01*
X92817032Y-94429983D01*
X93234155Y-94250290D01*
X93571131Y-94102771D01*
X93834137Y-93984524D01*
X94029351Y-93892642D01*
X94162954Y-93824220D01*
X94241122Y-93776355D01*
X94270033Y-93746141D01*
X94257056Y-93731006D01*
X94180128Y-93712969D01*
X94019947Y-93678745D01*
X93790097Y-93631041D01*
X93504159Y-93572563D01*
X93175715Y-93506020D01*
X92818348Y-93434117D01*
X92445641Y-93359562D01*
X92071176Y-93285063D01*
X91708536Y-93213325D01*
X91371303Y-93147056D01*
X91073059Y-93088964D01*
X90827387Y-93041755D01*
X90647869Y-93008136D01*
X90548089Y-92990814D01*
X90534648Y-92989112D01*
X90468716Y-93024295D01*
X90369125Y-93121589D01*
X90258888Y-93258031D01*
X90042077Y-93615097D01*
X89889853Y-93993799D01*
X89807415Y-94373233D01*
X89799962Y-94732492D01*
X89510008Y-94732492D01*
X89503976Y-94684279D01*
X89505177Y-94361945D01*
X89506461Y-94352188D01*
X89544168Y-94065584D01*
X89584417Y-93919565D01*
X89614439Y-93806358D01*
X89611793Y-93696480D01*
X89572404Y-93553836D01*
X89530252Y-93439618D01*
X89470381Y-93264348D01*
X89439362Y-93106187D01*
X89433356Y-92948521D01*
X89737802Y-92948521D01*
X89750540Y-93127153D01*
X89775811Y-93230115D01*
X89810953Y-93296085D01*
X89844480Y-93308725D01*
X89895048Y-93258542D01*
X89981316Y-93136040D01*
X89992283Y-93119947D01*
X90106857Y-92962554D01*
X90222827Y-92819808D01*
X90275513Y-92762579D01*
X90400093Y-92638062D01*
X92253483Y-93012575D01*
X92766298Y-93116005D01*
X93189288Y-93200708D01*
X93530588Y-93268043D01*
X93798333Y-93319372D01*
X94000659Y-93356058D01*
X94145701Y-93379459D01*
X94241596Y-93390940D01*
X94296476Y-93391859D01*
X94318480Y-93383579D01*
X94315743Y-93367461D01*
X94307017Y-93356177D01*
X94257049Y-93317807D01*
X94133418Y-93229840D01*
X93945337Y-93098635D01*
X93702020Y-92930549D01*
X93412684Y-92731944D01*
X93086538Y-92509179D01*
X92732801Y-92268615D01*
X92648181Y-92211215D01*
X91033454Y-91116428D01*
X90866749Y-91188376D01*
X90676900Y-91298956D01*
X90460702Y-91469055D01*
X90244871Y-91673430D01*
X90056121Y-91886838D01*
X89923671Y-92079501D01*
X89832205Y-92264585D01*
X89778416Y-92439531D01*
X89749173Y-92651860D01*
X89742999Y-92733266D01*
X89737802Y-92948521D01*
X89433356Y-92948521D01*
X89432472Y-92925325D01*
X89442967Y-92712286D01*
X89443247Y-92706606D01*
X89460727Y-92496826D01*
X89486384Y-92341953D01*
X89531847Y-92206235D01*
X89608745Y-92053922D01*
X89714262Y-91873402D01*
X89858212Y-91609508D01*
X89944764Y-91397822D01*
X89968443Y-91284761D01*
X90016104Y-91075847D01*
X90338064Y-91075847D01*
X90376813Y-91101683D01*
X90487390Y-91062896D01*
X90674434Y-90962554D01*
X90675235Y-90962093D01*
X90844478Y-90871843D01*
X90983831Y-90810076D01*
X91068745Y-90787317D01*
X91078761Y-90789034D01*
X91131099Y-90821996D01*
X91257070Y-90905167D01*
X91447647Y-91032478D01*
X91693801Y-91197857D01*
X91986507Y-91395236D01*
X92316739Y-91618545D01*
X92675468Y-91861713D01*
X92829799Y-91966497D01*
X93195880Y-92214907D01*
X93535671Y-92444975D01*
X93840406Y-92650800D01*
X94101318Y-92826487D01*
X94309643Y-92966140D01*
X94456614Y-93063857D01*
X94533468Y-93113744D01*
X94542780Y-93119022D01*
X94521263Y-93082787D01*
X94449242Y-92983207D01*
X94338025Y-92835544D01*
X94200032Y-92656486D01*
X94071744Y-92491317D01*
X93894676Y-92262907D01*
X93681151Y-91987175D01*
X93443492Y-91680039D01*
X93194022Y-91357420D01*
X92953022Y-91045541D01*
X92066921Y-89898401D01*
X91819017Y-89945591D01*
X91429630Y-90058494D01*
X91067327Y-90237321D01*
X90753683Y-90468251D01*
X90510268Y-90737457D01*
X90457503Y-90818030D01*
X90366507Y-90982319D01*
X90338064Y-91075847D01*
X90016104Y-91075847D01*
X90021160Y-91053687D01*
X90032461Y-91004154D01*
X90176833Y-90712234D01*
X90386429Y-90427395D01*
X90646118Y-90168032D01*
X90940768Y-89952541D01*
X91158175Y-89838332D01*
X91380580Y-89752708D01*
X91625283Y-89677899D01*
X91860124Y-89622062D01*
X92052946Y-89593355D01*
X92129075Y-89592059D01*
X92185827Y-89634393D01*
X92301294Y-89757492D01*
X92475378Y-89961241D01*
X92707987Y-90245524D01*
X92999025Y-90610226D01*
X93348400Y-91055230D01*
X93756015Y-91580421D01*
X93779369Y-91610656D01*
X95332996Y-93622494D01*
X95582315Y-93441767D01*
X95720491Y-93324282D01*
X96304282Y-93324282D01*
X96332018Y-93340631D01*
X96427925Y-93330915D01*
X96605012Y-93295301D01*
X96648561Y-93285698D01*
X97215908Y-93109514D01*
X97756880Y-92843577D01*
X98262395Y-92496630D01*
X98723370Y-92077413D01*
X99130721Y-91594668D01*
X99475367Y-91057137D01*
X99748223Y-90473561D01*
X99840086Y-90214170D01*
X99890810Y-90045715D01*
X99922797Y-89918296D01*
X99929601Y-89857835D01*
X99928962Y-89856773D01*
X99872880Y-89853138D01*
X99763946Y-89874657D01*
X99761217Y-89875394D01*
X99441327Y-89927640D01*
X99063148Y-89933420D01*
X98655460Y-89895447D01*
X98247041Y-89816439D01*
X97866673Y-89699113D01*
X97857860Y-89695747D01*
X97549720Y-89577411D01*
X97568930Y-89863316D01*
X97573957Y-90178115D01*
X97554084Y-90536953D01*
X97513324Y-90901586D01*
X97455688Y-91233771D01*
X97403534Y-91439487D01*
X97248378Y-91886182D01*
X97068332Y-92278066D01*
X96846773Y-92643721D01*
X96567068Y-93011726D01*
X96331709Y-93281708D01*
X96304282Y-93324282D01*
X95720491Y-93324282D01*
X95764854Y-93286562D01*
X96056786Y-93038344D01*
X96454168Y-92575809D01*
G37*
G36*
X83727921Y-78803184D02*
G01*
X83596066Y-78730623D01*
X83487351Y-78648423D01*
X83378444Y-78541235D01*
X83246016Y-78393709D01*
X83224131Y-78368805D01*
X83060163Y-78166578D01*
X82916295Y-77960921D01*
X82814237Y-77783686D01*
X82793472Y-77736962D01*
X82718130Y-77431997D01*
X82715802Y-77160448D01*
X83021698Y-77160448D01*
X83044548Y-77460297D01*
X83164323Y-77767287D01*
X83382023Y-78083711D01*
X83466723Y-78180979D01*
X83594464Y-78313996D01*
X83713530Y-78415298D01*
X83850033Y-78501546D01*
X84030086Y-78589398D01*
X84261137Y-78687816D01*
X84500656Y-78784557D01*
X84680667Y-78848389D01*
X84833224Y-78886603D01*
X84990385Y-78906484D01*
X85184206Y-78915322D01*
X85270230Y-78917225D01*
X85492048Y-78917739D01*
X85687198Y-78911361D01*
X85826211Y-78899346D01*
X85864670Y-78891852D01*
X85909146Y-78870444D01*
X85891897Y-78843846D01*
X85801703Y-78805683D01*
X85627340Y-78749581D01*
X85599030Y-78740978D01*
X85057726Y-78528055D01*
X84533723Y-78225941D01*
X84044262Y-77845443D01*
X83805917Y-77616898D01*
X83625565Y-77426403D01*
X83461905Y-77245230D01*
X83332924Y-77093821D01*
X83256606Y-76992620D01*
X83256466Y-76992400D01*
X83168887Y-76884921D01*
X83101749Y-76873160D01*
X83053721Y-76958071D01*
X83023475Y-77140606D01*
X83021698Y-77160448D01*
X82715802Y-77160448D01*
X82715619Y-77139044D01*
X82715354Y-77108141D01*
X82783491Y-76802381D01*
X82841070Y-76672585D01*
X82905951Y-76544018D01*
X82925990Y-76454298D01*
X82903418Y-76355548D01*
X82860821Y-76249043D01*
X82801380Y-76036703D01*
X82766581Y-75770137D01*
X82759072Y-75492673D01*
X82781502Y-75247638D01*
X82795598Y-75182525D01*
X82883313Y-75001474D01*
X83039317Y-74817088D01*
X83236437Y-74655808D01*
X83447501Y-74544075D01*
X83454342Y-74541555D01*
X83672045Y-74487437D01*
X83971201Y-74449178D01*
X84334558Y-74426579D01*
X84744870Y-74419445D01*
X85184881Y-74427577D01*
X85637346Y-74450782D01*
X86085011Y-74488862D01*
X86510627Y-74541619D01*
X86741338Y-74579000D01*
X87338439Y-74686256D01*
X87847690Y-74779140D01*
X88279868Y-74859782D01*
X88645753Y-74930307D01*
X88956122Y-74992847D01*
X89221757Y-75049528D01*
X89453432Y-75102478D01*
X89661928Y-75153826D01*
X89692460Y-75161673D01*
X90009902Y-75242942D01*
X90371240Y-75334245D01*
X90723503Y-75422245D01*
X90923835Y-75471681D01*
X91213876Y-75544291D01*
X91520506Y-75623574D01*
X91802909Y-75698855D01*
X91982103Y-75748494D01*
X92214651Y-75808417D01*
X92527355Y-75879799D01*
X92901514Y-75959041D01*
X93318423Y-76042542D01*
X93759379Y-76126703D01*
X94205680Y-76207923D01*
X94638623Y-76282604D01*
X95039503Y-76347144D01*
X95270957Y-76381516D01*
X95647854Y-76431306D01*
X96076181Y-76481328D01*
X96539426Y-76530212D01*
X97021077Y-76576584D01*
X97504623Y-76619071D01*
X97973551Y-76656298D01*
X98411350Y-76686894D01*
X98801509Y-76709486D01*
X99127513Y-76722699D01*
X99372854Y-76725162D01*
X99397035Y-76724646D01*
X99623550Y-76714181D01*
X99863707Y-76693286D01*
X100125099Y-76660267D01*
X100415322Y-76613436D01*
X100741968Y-76551099D01*
X101112632Y-76471566D01*
X101534907Y-76373146D01*
X102016388Y-76254147D01*
X102564668Y-76112878D01*
X103187340Y-75947647D01*
X103892001Y-75756765D01*
X104533841Y-75580598D01*
X105044747Y-75448311D01*
X105487129Y-75354255D01*
X105883574Y-75295450D01*
X106256674Y-75268918D01*
X106629015Y-75271677D01*
X106800772Y-75281570D01*
X107069418Y-75305036D01*
X107251119Y-75333616D01*
X107358927Y-75372135D01*
X107405894Y-75425412D01*
X107405073Y-75498268D01*
X107403563Y-75504227D01*
X107383893Y-75542550D01*
X107337927Y-75568014D01*
X107249142Y-75582659D01*
X107101017Y-75588527D01*
X106877028Y-75587659D01*
X106745048Y-75585578D01*
X106382185Y-75584527D01*
X106061192Y-75597680D01*
X105756305Y-75628758D01*
X105441766Y-75681481D01*
X105091810Y-75759567D01*
X104680680Y-75866736D01*
X104552000Y-75902210D01*
X103698733Y-76137065D01*
X102935474Y-76341906D01*
X102257211Y-76517886D01*
X101658934Y-76666156D01*
X101135629Y-76787871D01*
X100682287Y-76884182D01*
X100293896Y-76956243D01*
X99965444Y-77005204D01*
X99691921Y-77032220D01*
X99622033Y-77036120D01*
X99387646Y-77038651D01*
X99070043Y-77030303D01*
X98685273Y-77012302D01*
X98249385Y-76985875D01*
X97778427Y-76952245D01*
X97288450Y-76912638D01*
X96795501Y-76868281D01*
X96315629Y-76820397D01*
X95864883Y-76770214D01*
X95459313Y-76718955D01*
X95447922Y-76717402D01*
X95044597Y-76658411D01*
X94594545Y-76586009D01*
X94116246Y-76503715D01*
X93628183Y-76415047D01*
X93148830Y-76323523D01*
X92696673Y-76232662D01*
X92290187Y-76145981D01*
X91947855Y-76067000D01*
X91713458Y-76006410D01*
X91310621Y-75897093D01*
X90851643Y-75778391D01*
X90357078Y-75655153D01*
X89847477Y-75532225D01*
X89343395Y-75414454D01*
X88865386Y-75306688D01*
X88434002Y-75213776D01*
X88069797Y-75140563D01*
X87941327Y-75116768D01*
X87602196Y-75056101D01*
X87251535Y-74993351D01*
X86919284Y-74933879D01*
X86635387Y-74883044D01*
X86486621Y-74856392D01*
X86151290Y-74808519D01*
X85752910Y-74771010D01*
X85321170Y-74745017D01*
X84885755Y-74731690D01*
X84476351Y-74732181D01*
X84122645Y-74747638D01*
X83990829Y-74759643D01*
X83692905Y-74806676D01*
X83471011Y-74877117D01*
X83302250Y-74979746D01*
X83222814Y-75054126D01*
X83157017Y-75179426D01*
X83113230Y-75371040D01*
X83092522Y-75597494D01*
X83095957Y-75827319D01*
X83124603Y-76029046D01*
X83179526Y-76171204D01*
X83184706Y-76178549D01*
X83229512Y-76162985D01*
X83330321Y-76102799D01*
X83425794Y-76038433D01*
X83806111Y-75818965D01*
X84226597Y-75668618D01*
X84692495Y-75587332D01*
X85209052Y-75575050D01*
X85781511Y-75631710D01*
X86415116Y-75757256D01*
X87115112Y-75951628D01*
X87253357Y-75995464D01*
X87487581Y-76066912D01*
X87798352Y-76155499D01*
X88164831Y-76255629D01*
X88566183Y-76361706D01*
X88981572Y-76468131D01*
X89386410Y-76568399D01*
X89805952Y-76672452D01*
X90241833Y-76784381D01*
X90670905Y-76897971D01*
X91070024Y-77007011D01*
X91416044Y-77105286D01*
X91666215Y-77180419D01*
X92227553Y-77351333D01*
X92827006Y-77525378D01*
X93448341Y-77698396D01*
X94075320Y-77866231D01*
X94691711Y-78024726D01*
X95281278Y-78169724D01*
X95827788Y-78297070D01*
X96315005Y-78402606D01*
X96726694Y-78482175D01*
X96800121Y-78494874D01*
X97439309Y-78569953D01*
X98102385Y-78587674D01*
X98761904Y-78549625D01*
X99390417Y-78457396D01*
X99960478Y-78312574D01*
X99962804Y-78311827D01*
X100178920Y-78254630D01*
X100427283Y-78207903D01*
X100682213Y-78174308D01*
X100918030Y-78156506D01*
X101109055Y-78157162D01*
X101229606Y-78178938D01*
X101232390Y-78180188D01*
X101308604Y-78253618D01*
X101322052Y-78283199D01*
X101310361Y-78377338D01*
X101207328Y-78441672D01*
X101011208Y-78476908D01*
X100823452Y-78484611D01*
X100351014Y-78535867D01*
X100046675Y-78616452D01*
X99438906Y-78770758D01*
X98770213Y-78865883D01*
X98061420Y-78900233D01*
X97333358Y-78872214D01*
X97057826Y-78845097D01*
X96698340Y-78793065D01*
X96254822Y-78711082D01*
X95737793Y-78601750D01*
X95157774Y-78467674D01*
X94525287Y-78311456D01*
X93850851Y-78135701D01*
X93144990Y-77943011D01*
X92418222Y-77735990D01*
X91681069Y-77517242D01*
X91633872Y-77502930D01*
X91245052Y-77388391D01*
X90790178Y-77260137D01*
X90300692Y-77126674D01*
X89808040Y-76996507D01*
X89343668Y-76878140D01*
X89127362Y-76824938D01*
X88730113Y-76726497D01*
X88325458Y-76622263D01*
X87935324Y-76518169D01*
X87581640Y-76420150D01*
X87286331Y-76334136D01*
X87110521Y-76279167D01*
X86564543Y-76119408D01*
X86025479Y-75998692D01*
X85515089Y-75920666D01*
X85055128Y-75888975D01*
X84811284Y-75893789D01*
X84451001Y-75944662D01*
X84095580Y-76046271D01*
X83775274Y-76187506D01*
X83520333Y-76357260D01*
X83499468Y-76375494D01*
X83319506Y-76537327D01*
X83471126Y-76755590D01*
X83568016Y-76880603D01*
X83714444Y-77052182D01*
X83889262Y-77246159D01*
X84043397Y-77409576D01*
X84490719Y-77812872D01*
X84978094Y-78132746D01*
X85522370Y-78379441D01*
X85783543Y-78467234D01*
X85875057Y-78494418D01*
X85965178Y-78518577D01*
X86061911Y-78540493D01*
X86173262Y-78560948D01*
X86307236Y-78580723D01*
X86471838Y-78600599D01*
X86675075Y-78621360D01*
X86924949Y-78643784D01*
X87229469Y-78668655D01*
X87596638Y-78696754D01*
X88034463Y-78728861D01*
X88550948Y-78765760D01*
X89154099Y-78808231D01*
X89586660Y-78838514D01*
X92942029Y-79073144D01*
X92888990Y-79407759D01*
X92760529Y-79913776D01*
X92545323Y-80397464D01*
X92254533Y-80847287D01*
X91899324Y-81251706D01*
X91490857Y-81599182D01*
X91040297Y-81878179D01*
X90558805Y-82077159D01*
X90226614Y-82159575D01*
X89839402Y-82204342D01*
X89428335Y-82208402D01*
X89042890Y-82172081D01*
X88928052Y-82150930D01*
X88422200Y-81993671D01*
X87940907Y-81747175D01*
X87497449Y-81421563D01*
X87105096Y-81026958D01*
X86777124Y-80573481D01*
X86711393Y-80460482D01*
X86621728Y-80275696D01*
X86529267Y-80046107D01*
X86442584Y-79798240D01*
X86370250Y-79558619D01*
X86320838Y-79353768D01*
X86302919Y-79210210D01*
X86303323Y-79197855D01*
X86302007Y-79123547D01*
X86296246Y-79110293D01*
X86245150Y-79120853D01*
X86123199Y-79148759D01*
X85956767Y-79187976D01*
X85956325Y-79188081D01*
X85607703Y-79239266D01*
X85207666Y-79243173D01*
X85192498Y-79242382D01*
X84991084Y-79227363D01*
X84817870Y-79201846D01*
X84643403Y-79158411D01*
X84442682Y-79091127D01*
X86620396Y-79091127D01*
X86621838Y-79230174D01*
X86657937Y-79433320D01*
X86721307Y-79673933D01*
X86804562Y-79925379D01*
X86900319Y-80161025D01*
X86940170Y-80244304D01*
X87199070Y-80657126D01*
X87535583Y-81039722D01*
X87927842Y-81372048D01*
X88353980Y-81634063D01*
X88556787Y-81726034D01*
X88931133Y-81836491D01*
X89355454Y-81895533D01*
X89792259Y-81900222D01*
X90176862Y-81853213D01*
X90677558Y-81703531D01*
X91143755Y-81465791D01*
X91565571Y-81148860D01*
X91933127Y-80761600D01*
X92236546Y-80312875D01*
X92465946Y-79811552D01*
X92472395Y-79793497D01*
X92529103Y-79615378D01*
X92562639Y-79473273D01*
X92567151Y-79393170D01*
X92563996Y-79386809D01*
X92508680Y-79375884D01*
X92362409Y-79359423D01*
X92134032Y-79338128D01*
X91832402Y-79312697D01*
X91466367Y-79283829D01*
X91044780Y-79252227D01*
X90576489Y-79218589D01*
X90070345Y-79183614D01*
X89585993Y-79151325D01*
X86645176Y-78958619D01*
X86620396Y-79091127D01*
X84442682Y-79091127D01*
X84438234Y-79089636D01*
X84172913Y-78988100D01*
X84154382Y-78980783D01*
X83966430Y-78905544D01*
X83906250Y-78881453D01*
X83727921Y-78803184D01*
G37*
G36*
X90593642Y-82293350D02*
G01*
X91099072Y-82135736D01*
X91528396Y-81937628D01*
X91901518Y-81686501D01*
X92238340Y-81369833D01*
X92440859Y-81131041D01*
X92731546Y-80700427D01*
X92926410Y-80267537D01*
X92958843Y-80164291D01*
X93008191Y-80020773D01*
X93054960Y-79958658D01*
X93108189Y-79959036D01*
X93509151Y-80116527D01*
X93928771Y-80282017D01*
X94356864Y-80451429D01*
X94783246Y-80620691D01*
X95197728Y-80785723D01*
X95590128Y-80942456D01*
X95950258Y-81086810D01*
X96267934Y-81214712D01*
X96532971Y-81322089D01*
X96735181Y-81404862D01*
X96864380Y-81458959D01*
X96910292Y-81480157D01*
X96904522Y-81542679D01*
X96851098Y-81669127D01*
X96760191Y-81841839D01*
X96641967Y-82043153D01*
X96506597Y-82255407D01*
X96364251Y-82460940D01*
X96283371Y-82568986D01*
X95971743Y-82925065D01*
X95605622Y-83268080D01*
X95217224Y-83570110D01*
X94892405Y-83774436D01*
X94367749Y-84008538D01*
X93803512Y-84159496D01*
X93219434Y-84224675D01*
X92635253Y-84201435D01*
X92231749Y-84129934D01*
X91985050Y-84050639D01*
X91695607Y-83926358D01*
X91398899Y-83774409D01*
X91130403Y-83612102D01*
X91037330Y-83547038D01*
X90834337Y-83377012D01*
X90607279Y-83154673D01*
X90386292Y-82911745D01*
X90201511Y-82679953D01*
X90185155Y-82656791D01*
X90583654Y-82656791D01*
X90608270Y-82712359D01*
X90692497Y-82815156D01*
X90819383Y-82948078D01*
X90971979Y-83094023D01*
X91133331Y-83235891D01*
X91251430Y-83330493D01*
X91460538Y-83465036D01*
X91729183Y-83603897D01*
X92019327Y-83729502D01*
X92292932Y-83824279D01*
X92359535Y-83842429D01*
X92584062Y-83881120D01*
X92869403Y-83904893D01*
X93177332Y-83912677D01*
X93469625Y-83903401D01*
X93687339Y-83879646D01*
X94065810Y-83782610D01*
X94474209Y-83620634D01*
X94883302Y-83409393D01*
X95263852Y-83164568D01*
X95586624Y-82901835D01*
X95676210Y-82813104D01*
X95838505Y-82632086D01*
X96004051Y-82429428D01*
X96161774Y-82221037D01*
X96300600Y-82022825D01*
X96409456Y-81850703D01*
X96477267Y-81720578D01*
X96492960Y-81648362D01*
X96490214Y-81643598D01*
X96435727Y-81615067D01*
X96301698Y-81556716D01*
X96101163Y-81473614D01*
X95847161Y-81370830D01*
X95552726Y-81253434D01*
X95230895Y-81126495D01*
X94894704Y-80995084D01*
X94557188Y-80864268D01*
X94231385Y-80739117D01*
X93930331Y-80624701D01*
X93667061Y-80526088D01*
X93454612Y-80448349D01*
X93306021Y-80396553D01*
X93234322Y-80375769D01*
X93230147Y-80375870D01*
X93184064Y-80441236D01*
X93181620Y-80456371D01*
X93156214Y-80521655D01*
X93090971Y-80651684D01*
X92996937Y-80825116D01*
X92925350Y-80951461D01*
X92623728Y-81388738D01*
X92256149Y-81778226D01*
X91839221Y-82106783D01*
X91389553Y-82361268D01*
X90936402Y-82525281D01*
X90766790Y-82574801D01*
X90640399Y-82621742D01*
X90583953Y-82656141D01*
X90583654Y-82656791D01*
X90185155Y-82656791D01*
X90166279Y-82630060D01*
X90164514Y-82627482D01*
X90034306Y-82437262D01*
X90593642Y-82293350D01*
G37*
G36*
X93485222Y-84479883D02*
G01*
X93531766Y-84418141D01*
X93657241Y-84388694D01*
X93825484Y-84375327D01*
X94256553Y-84306673D01*
X94708846Y-84160008D01*
X95159906Y-83947280D01*
X95587278Y-83680433D01*
X95968507Y-83371416D01*
X96229902Y-83096175D01*
X96345016Y-82963803D01*
X96437886Y-82869082D01*
X96488745Y-82832148D01*
X96489195Y-82832138D01*
X96537765Y-82858529D01*
X96658220Y-82932507D01*
X96839003Y-83046546D01*
X97068558Y-83193123D01*
X97335327Y-83364712D01*
X97627752Y-83553789D01*
X97934276Y-83752828D01*
X98243343Y-83954306D01*
X98543394Y-84150698D01*
X98822873Y-84334478D01*
X99070221Y-84498123D01*
X99273883Y-84634107D01*
X99422300Y-84734907D01*
X99503915Y-84792995D01*
X99514659Y-84801945D01*
X99512103Y-84866012D01*
X99446659Y-84982750D01*
X99329921Y-85138095D01*
X99173480Y-85317991D01*
X98988928Y-85508379D01*
X98787862Y-85695199D01*
X98753446Y-85725098D01*
X98260233Y-86089489D01*
X97740330Y-86357939D01*
X97194865Y-86530036D01*
X96624966Y-86605369D01*
X96335272Y-86606768D01*
X96096545Y-86593034D01*
X95872940Y-86571068D01*
X95698265Y-86544571D01*
X95638896Y-86530502D01*
X95122556Y-86328964D01*
X94649673Y-86048977D01*
X94232307Y-85700828D01*
X93882518Y-85294802D01*
X93612368Y-84841184D01*
X93582625Y-84776791D01*
X93556963Y-84715229D01*
X93911569Y-84715229D01*
X93922394Y-84784423D01*
X93986337Y-84904308D01*
X94108418Y-85086418D01*
X94146952Y-85140703D01*
X94478531Y-85521348D01*
X94880054Y-85842244D01*
X95332976Y-86090217D01*
X95646962Y-86206299D01*
X95972883Y-86274236D01*
X96349041Y-86304161D01*
X96732896Y-86295374D01*
X97081909Y-86247179D01*
X97150924Y-86230927D01*
X97572324Y-86094933D01*
X97957534Y-85908247D01*
X98334375Y-85655586D01*
X98610457Y-85429212D01*
X98789928Y-85267123D01*
X98938321Y-85123202D01*
X99040766Y-85012580D01*
X99082398Y-84950385D01*
X99082629Y-84948660D01*
X99043157Y-84901052D01*
X98927213Y-84806484D01*
X98743143Y-84670959D01*
X98499297Y-84500486D01*
X98204019Y-84301071D01*
X97949256Y-84133141D01*
X97642592Y-83932888D01*
X97358272Y-83747164D01*
X97108607Y-83584016D01*
X96905907Y-83451490D01*
X96762483Y-83357631D01*
X96691057Y-83310761D01*
X96640692Y-83282108D01*
X96590896Y-83274898D01*
X96527318Y-83297430D01*
X96435611Y-83357999D01*
X96301425Y-83464902D01*
X96110410Y-83626436D01*
X96038132Y-83688288D01*
X95786269Y-83897835D01*
X95577760Y-84054259D01*
X95385440Y-84175338D01*
X95182141Y-84278851D01*
X95040143Y-84341381D01*
X94804353Y-84435522D01*
X94566489Y-84521295D01*
X94364541Y-84585333D01*
X94295036Y-84603607D01*
X94130040Y-84642378D01*
X94000075Y-84673022D01*
X93948845Y-84685185D01*
X93911569Y-84715229D01*
X93556963Y-84715229D01*
X93546316Y-84689688D01*
X93506033Y-84593055D01*
X93485222Y-84479883D01*
G37*
G36*
X95745687Y-86794645D02*
G01*
X96331667Y-86837207D01*
X96776702Y-86854742D01*
X97129946Y-86835943D01*
X97242888Y-86818804D01*
X97469533Y-86762353D01*
X97739513Y-86674061D01*
X98023141Y-86565808D01*
X98290732Y-86449477D01*
X98512600Y-86336949D01*
X98628283Y-86264287D01*
X98791592Y-86145294D01*
X99940700Y-87267246D01*
X100220021Y-87541727D01*
X100474817Y-87795498D01*
X100696567Y-88019804D01*
X100876751Y-88205890D01*
X101006846Y-88345003D01*
X101078333Y-88428388D01*
X101089590Y-88447575D01*
X101046782Y-88523008D01*
X100931136Y-88626786D01*
X100761181Y-88746609D01*
X100555446Y-88870170D01*
X100332458Y-88985172D01*
X100176625Y-89053747D01*
X99677071Y-89207001D01*
X99166935Y-89264516D01*
X98637187Y-89226870D01*
X98352485Y-89170240D01*
X97833179Y-88995566D01*
X97339200Y-88730704D01*
X96880634Y-88384295D01*
X96467571Y-87964985D01*
X96110103Y-87481417D01*
X95945126Y-87185173D01*
X96270155Y-87185173D01*
X96363776Y-87338226D01*
X96500604Y-87530224D01*
X96689877Y-87754788D01*
X96904806Y-87983469D01*
X97118611Y-88187817D01*
X97304508Y-88339380D01*
X97309834Y-88343138D01*
X97796894Y-88637363D01*
X98283353Y-88834459D01*
X98777627Y-88936889D01*
X99288130Y-88947118D01*
X99354735Y-88941928D01*
X99562208Y-88909555D01*
X99795390Y-88850996D01*
X100034142Y-88774165D01*
X100258324Y-88686982D01*
X100447798Y-88597362D01*
X100582421Y-88513223D01*
X100642056Y-88442483D01*
X100643206Y-88435421D01*
X100609654Y-88390905D01*
X100513644Y-88286370D01*
X100364518Y-88131400D01*
X100171616Y-87935581D01*
X99944280Y-87708498D01*
X99703325Y-87470975D01*
X98760590Y-86547355D01*
X98609296Y-86639899D01*
X98432060Y-86731447D01*
X98189956Y-86834337D01*
X97915409Y-86936814D01*
X97640845Y-87027125D01*
X97398693Y-87093517D01*
X97302269Y-87113654D01*
X97084944Y-87143553D01*
X96829692Y-87166588D01*
X96633965Y-87176312D01*
X96270155Y-87185173D01*
X95945126Y-87185173D01*
X95931956Y-87161524D01*
X95862803Y-87037346D01*
X95745687Y-86794645D01*
G37*
G36*
X87811819Y-79484953D02*
G01*
X87930326Y-79574767D01*
X87998916Y-79714944D01*
X87999243Y-79871723D01*
X87942594Y-80016960D01*
X87840255Y-80122515D01*
X87703512Y-80160243D01*
X87695685Y-80159825D01*
X87594956Y-80122958D01*
X87481002Y-80043038D01*
X87478462Y-80040752D01*
X87380028Y-79895100D01*
X87373799Y-79736284D01*
X87458907Y-79587722D01*
X87496498Y-79553167D01*
X87657663Y-79470601D01*
X87811819Y-79484953D01*
G37*
%TD*%
M02*
