%TF.GenerationSoftware,KiCad,Pcbnew,(6.0.0-0)*%
%TF.CreationDate,2022-02-08T20:12:04+07:00*%
%TF.ProjectId,PCB Top,50434220-546f-4702-9e6b-696361645f70,rev?*%
%TF.SameCoordinates,Original*%
%TF.FileFunction,Profile,NP*%
%FSLAX46Y46*%
G04 Gerber Fmt 4.6, Leading zero omitted, Abs format (unit mm)*
G04 Created by KiCad (PCBNEW (6.0.0-0)) date 2022-02-08 20:12:04*
%MOMM*%
%LPD*%
G01*
G04 APERTURE LIST*
%TA.AperFunction,Profile*%
%ADD10C,0.050000*%
%TD*%
%TA.AperFunction,Profile*%
%ADD11C,0.100000*%
%TD*%
G04 APERTURE END LIST*
D10*
X29175187Y-106535145D02*
X66208387Y-97594345D01*
X140681187Y-80109803D02*
X140782787Y-17524203D01*
X54219587Y-25458345D02*
X76419187Y-22003945D01*
X14341587Y-51315545D02*
X29175187Y-106535145D01*
X160899587Y-83615003D02*
X157581600Y-102565200D01*
X95265987Y-17584345D02*
X76165187Y-19565545D01*
X100549187Y-96425945D02*
X66208387Y-97594345D01*
X160899587Y-83615003D02*
X140681187Y-80109803D01*
X35728387Y-45473545D02*
X14341587Y-51315545D01*
X35728387Y-45473545D02*
X56657987Y-40901545D01*
X140782787Y-17524203D02*
X117922787Y-17524203D01*
X76419187Y-22003945D02*
X76165187Y-19565545D01*
X56657987Y-40901545D02*
X54219587Y-25458345D01*
X95265987Y-17584345D02*
X95413194Y-19048203D01*
X138684000Y-99263200D02*
X157581600Y-102565200D01*
X95413194Y-19048203D02*
X117922787Y-17524203D01*
X100549187Y-96425945D02*
X138684000Y-99263200D01*
D11*
%TO.C,K-1-0*%
X22464796Y-71424539D02*
X35987757Y-67801072D01*
X35987757Y-67801072D02*
X39611224Y-81324033D01*
X26088263Y-84947500D02*
X22464796Y-71424539D01*
X39611224Y-81324033D02*
X26088263Y-84947500D01*
%TO.C,K-3-3*%
X117393839Y-94463632D02*
X103402368Y-93975039D01*
X103890961Y-79983568D02*
X117882432Y-80472161D01*
X117882432Y-80472161D02*
X117393839Y-94463632D01*
X103402368Y-93975039D02*
X103890961Y-79983568D01*
%TO.C,K-2-0*%
X44541728Y-99724919D02*
X31018767Y-103348386D01*
X40918261Y-86201958D02*
X44541728Y-99724919D01*
X27395300Y-89825425D02*
X40918261Y-86201958D01*
X31018767Y-103348386D02*
X27395300Y-89825425D01*
%TO.C,K-0-0*%
X21167467Y-66657546D02*
X17544000Y-53134585D01*
X34690428Y-63034079D02*
X21167467Y-66657546D01*
X31066961Y-49511118D02*
X34690428Y-63034079D01*
X17544000Y-53134585D02*
X31066961Y-49511118D01*
%TO.C,K-0-5*%
X137972698Y-35323884D02*
X123972698Y-35323884D01*
X123972698Y-35323884D02*
X123972698Y-21323884D01*
X123972698Y-21323884D02*
X137972698Y-21323884D01*
X137972698Y-21323884D02*
X137972698Y-35323884D01*
%TO.C,K-1-1*%
X56410838Y-63231530D02*
X59321602Y-76925596D01*
X45627536Y-79836360D02*
X42716772Y-66142294D01*
X59321602Y-76925596D02*
X45627536Y-79836360D01*
X42716772Y-66142294D02*
X56410838Y-63231530D01*
%TO.C,K-3-4*%
X124021246Y-80952647D02*
X137944553Y-82416046D01*
X122557847Y-94875954D02*
X124021246Y-80952647D01*
X136481154Y-96339353D02*
X122557847Y-94875954D01*
X137944553Y-82416046D02*
X136481154Y-96339353D01*
%TO.C,K-2-2*%
X65352174Y-79060067D02*
X63162091Y-65232430D01*
X76989728Y-63042347D02*
X79179811Y-76869984D01*
X79179811Y-76869984D02*
X65352174Y-79060067D01*
X63162091Y-65232430D02*
X76989728Y-63042347D01*
%TO.C,K-1-2*%
X76199734Y-58054522D02*
X62372097Y-60244605D01*
X62372097Y-60244605D02*
X60182014Y-46416968D01*
X60182014Y-46416968D02*
X74009651Y-44226885D01*
X74009651Y-44226885D02*
X76199734Y-58054522D01*
%TO.C,K-2-3*%
X96932258Y-58348675D02*
X98395657Y-72271982D01*
X84472350Y-73735381D02*
X83008951Y-59812074D01*
X98395657Y-72271982D02*
X84472350Y-73735381D01*
X83008951Y-59812074D02*
X96932258Y-58348675D01*
%TO.C,K-2-5*%
X123972698Y-59423884D02*
X137972698Y-59423884D01*
X137972698Y-73423884D02*
X123972698Y-73423884D01*
X123972698Y-73423884D02*
X123972698Y-59423884D01*
X137972698Y-59423884D02*
X137972698Y-73423884D01*
%TO.C,K-0-4*%
X116224345Y-35487415D02*
X102243532Y-36220118D01*
X115491642Y-21506602D02*
X116224345Y-35487415D01*
X101510829Y-22239305D02*
X115491642Y-21506602D01*
X102243532Y-36220118D02*
X101510829Y-22239305D01*
%TO.C,K-2-1*%
X63282323Y-95559307D02*
X49588257Y-98470071D01*
X46677493Y-84776005D02*
X60371559Y-81865241D01*
X60371559Y-81865241D02*
X63282323Y-95559307D01*
X49588257Y-98470071D02*
X46677493Y-84776005D01*
%TO.C,K-1-4*%
X102507828Y-41263197D02*
X116488641Y-40530494D01*
X116488641Y-40530494D02*
X117221344Y-54511307D01*
X117221344Y-54511307D02*
X103240531Y-55244010D01*
X103240531Y-55244010D02*
X102507828Y-41263197D01*
%TO.C,K-0-2*%
X71029577Y-25411423D02*
X73219660Y-39239060D01*
X73219660Y-39239060D02*
X59392023Y-41429143D01*
X57201940Y-27601506D02*
X71029577Y-25411423D01*
X59392023Y-41429143D02*
X57201940Y-27601506D01*
%TO.C,K-0-1*%
X41666822Y-61202648D02*
X38756058Y-47508582D01*
X52450124Y-44597818D02*
X55360888Y-58291884D01*
X38756058Y-47508582D02*
X52450124Y-44597818D01*
X55360888Y-58291884D02*
X41666822Y-61202648D01*
%TO.C,K-3-5*%
X155436517Y-99549192D02*
X141649208Y-97118117D01*
X157867592Y-85761883D02*
X155436517Y-99549192D01*
X141649208Y-97118117D02*
X144080283Y-83330808D01*
X144080283Y-83330808D02*
X157867592Y-85761883D01*
%TO.C,K-1-5*%
X123972698Y-54373884D02*
X123972698Y-40373884D01*
X137972698Y-54373884D02*
X123972698Y-54373884D01*
X123972698Y-40373884D02*
X137972698Y-40373884D01*
X137972698Y-40373884D02*
X137972698Y-54373884D01*
%TO.C,K-0-3*%
X92949724Y-20457392D02*
X94413123Y-34380699D01*
X80489816Y-35844098D02*
X79026417Y-21920791D01*
X94413123Y-34380699D02*
X80489816Y-35844098D01*
X79026417Y-21920791D02*
X92949724Y-20457392D01*
%TO.C,K-2-4*%
X103504829Y-60287090D02*
X117485642Y-59554387D01*
X118218345Y-73535200D02*
X104237532Y-74267903D01*
X104237532Y-74267903D02*
X103504829Y-60287090D01*
X117485642Y-59554387D02*
X118218345Y-73535200D01*
%TO.C,K-1-3*%
X82481084Y-54789738D02*
X81017685Y-40866431D01*
X81017685Y-40866431D02*
X94940992Y-39403032D01*
X94940992Y-39403032D02*
X96404391Y-53326339D01*
X96404391Y-53326339D02*
X82481084Y-54789738D01*
%TD*%
M02*
