%TF.GenerationSoftware,KiCad,Pcbnew,(6.0.0-0)*%
%TF.CreationDate,2022-02-08T20:12:03+07:00*%
%TF.ProjectId,PCB Top,50434220-546f-4702-9e6b-696361645f70,rev?*%
%TF.SameCoordinates,Original*%
%TF.FileFunction,Copper,L2,Bot*%
%TF.FilePolarity,Positive*%
%FSLAX46Y46*%
G04 Gerber Fmt 4.6, Leading zero omitted, Abs format (unit mm)*
G04 Created by KiCad (PCBNEW (6.0.0-0)) date 2022-02-08 20:12:03*
%MOMM*%
%LPD*%
G01*
G04 APERTURE LIST*
%TA.AperFunction,ComponentPad*%
%ADD10C,4.200000*%
%TD*%
G04 APERTURE END LIST*
D10*
%TO.P,Ref\u002A\u002A,*%
%TO.N,*%
X120355994Y-40181003D03*
%TD*%
%TO.P,Ref\u002A\u002A,*%
%TO.N,*%
X83667600Y-83667600D03*
%TD*%
%TO.P,Ref\u002A\u002A,*%
%TO.N,*%
X77633194Y-43483003D03*
%TD*%
%TO.P,Ref\u002A\u002A,*%
%TO.N,*%
X43901994Y-86409003D03*
%TD*%
%TO.P,,*%
%TO.N,*%
X135431941Y-77784656D03*
%TD*%
%TO.P,Ref\u002A\u002A,*%
%TO.N,*%
X39279194Y-66800203D03*
%TD*%
%TA.AperFunction,NonConductor*%
G36*
X140215878Y-18052205D02*
G01*
X140262371Y-18105861D01*
X140273757Y-18158408D01*
X140173278Y-80052762D01*
X140171293Y-80074836D01*
X140168286Y-80091574D01*
X140172414Y-80130101D01*
X140172750Y-80136501D01*
X140172824Y-80136496D01*
X140173135Y-80140965D01*
X140173128Y-80145455D01*
X140176044Y-80166054D01*
X140176653Y-80170358D01*
X140177180Y-80174594D01*
X140183787Y-80236261D01*
X140187109Y-80244315D01*
X140187138Y-80244420D01*
X140188359Y-80253048D01*
X140192062Y-80261227D01*
X140192062Y-80261228D01*
X140213928Y-80309529D01*
X140215624Y-80313449D01*
X140224496Y-80334959D01*
X140239272Y-80370782D01*
X140244721Y-80377579D01*
X140244779Y-80377674D01*
X140248372Y-80385611D01*
X140254220Y-80392420D01*
X140254221Y-80392422D01*
X140288789Y-80432672D01*
X140291517Y-80435960D01*
X140324666Y-80477316D01*
X140324671Y-80477320D01*
X140330283Y-80484322D01*
X140337420Y-80489317D01*
X140337499Y-80489389D01*
X140343179Y-80496002D01*
X140395185Y-80529830D01*
X140398685Y-80532193D01*
X140442144Y-80562608D01*
X140442150Y-80562611D01*
X140449503Y-80567757D01*
X140457761Y-80570549D01*
X140457853Y-80570594D01*
X140465158Y-80575346D01*
X140473751Y-80577931D01*
X140524540Y-80593210D01*
X140528611Y-80594511D01*
X140550800Y-80602016D01*
X140550813Y-80602019D01*
X140555416Y-80603576D01*
X140560208Y-80604407D01*
X140564932Y-80605607D01*
X140564894Y-80605755D01*
X140571148Y-80607231D01*
X140604504Y-80617266D01*
X140613483Y-80617335D01*
X140613486Y-80617336D01*
X140625426Y-80617428D01*
X140645973Y-80619276D01*
X160187084Y-84007057D01*
X160250787Y-84038401D01*
X160287431Y-84099210D01*
X160289673Y-84152935D01*
X158036460Y-97021828D01*
X157190517Y-101853306D01*
X157159066Y-101916956D01*
X157098196Y-101953498D01*
X157044718Y-101955694D01*
X138789564Y-98765949D01*
X138782694Y-98764550D01*
X138765901Y-98760640D01*
X138765890Y-98760638D01*
X138761159Y-98759537D01*
X138756303Y-98759176D01*
X138756298Y-98759175D01*
X138752919Y-98758923D01*
X138740600Y-98757393D01*
X138735506Y-98756503D01*
X138712475Y-98755795D01*
X138707015Y-98755509D01*
X116434449Y-97098415D01*
X141136362Y-97098415D01*
X141139424Y-97127795D01*
X141140037Y-97144913D01*
X141139083Y-97174435D01*
X141141322Y-97183123D01*
X141141322Y-97183124D01*
X141145483Y-97199269D01*
X141148790Y-97217649D01*
X141151447Y-97243146D01*
X141154846Y-97251454D01*
X141154847Y-97251459D01*
X141162629Y-97270482D01*
X141168024Y-97286746D01*
X141175394Y-97315346D01*
X141188503Y-97337381D01*
X141196835Y-97354092D01*
X141203143Y-97369513D01*
X141203147Y-97369520D01*
X141206545Y-97377826D01*
X141212140Y-97384848D01*
X141212141Y-97384849D01*
X141224950Y-97400923D01*
X141234695Y-97415023D01*
X141249795Y-97440403D01*
X141256367Y-97446521D01*
X141256368Y-97446522D01*
X141268563Y-97457874D01*
X141281251Y-97471576D01*
X141297229Y-97491627D01*
X141321385Y-97508636D01*
X141334680Y-97519421D01*
X141356304Y-97539550D01*
X141379221Y-97551051D01*
X141395239Y-97560638D01*
X141408870Y-97570236D01*
X141408872Y-97570237D01*
X141416209Y-97575403D01*
X141424702Y-97578302D01*
X141424705Y-97578304D01*
X141444160Y-97584946D01*
X141459966Y-97591574D01*
X141478335Y-97600793D01*
X141478338Y-97600794D01*
X141486360Y-97604820D01*
X141495190Y-97606433D01*
X141495191Y-97606433D01*
X141506046Y-97608416D01*
X141520202Y-97611001D01*
X141520975Y-97611171D01*
X141522019Y-97611527D01*
X141524941Y-97612042D01*
X141524949Y-97612044D01*
X141552546Y-97616910D01*
X141553247Y-97617036D01*
X141629506Y-97630963D01*
X141630899Y-97630818D01*
X141632228Y-97630960D01*
X155334001Y-100046953D01*
X155339871Y-100047988D01*
X155340628Y-100048124D01*
X155407986Y-100060426D01*
X155407989Y-100060426D01*
X155416815Y-100062038D01*
X155446195Y-100058976D01*
X155463313Y-100058363D01*
X155492836Y-100059317D01*
X155517676Y-100052916D01*
X155536050Y-100049610D01*
X155539755Y-100049224D01*
X155552618Y-100047884D01*
X155552621Y-100047883D01*
X155561546Y-100046953D01*
X155569851Y-100043555D01*
X155569856Y-100043554D01*
X155588872Y-100035774D01*
X155605141Y-100030378D01*
X155625052Y-100025247D01*
X155625055Y-100025246D01*
X155633747Y-100023006D01*
X155655779Y-100009898D01*
X155672492Y-100001565D01*
X155687917Y-99995254D01*
X155696226Y-99991855D01*
X155719328Y-99973446D01*
X155733421Y-99963706D01*
X155751087Y-99953196D01*
X155751090Y-99953194D01*
X155758803Y-99948605D01*
X155776278Y-99929833D01*
X155789974Y-99917152D01*
X155803002Y-99906770D01*
X155803005Y-99906767D01*
X155810027Y-99901171D01*
X155827032Y-99877021D01*
X155837825Y-99863716D01*
X155851836Y-99848665D01*
X155857951Y-99842096D01*
X155869451Y-99819181D01*
X155879043Y-99803153D01*
X155888636Y-99789530D01*
X155888638Y-99789527D01*
X155893803Y-99782191D01*
X155903346Y-99754238D01*
X155909973Y-99738436D01*
X155912245Y-99733909D01*
X155923220Y-99712040D01*
X155929401Y-99678197D01*
X155929570Y-99677425D01*
X155929927Y-99676381D01*
X155930448Y-99673429D01*
X155935293Y-99645957D01*
X155935428Y-99645201D01*
X155948655Y-99572776D01*
X155949364Y-99568894D01*
X155949219Y-99567500D01*
X155949362Y-99566158D01*
X155956437Y-99526037D01*
X156616089Y-95784961D01*
X158366370Y-85858632D01*
X158366506Y-85857875D01*
X158378827Y-85790415D01*
X158378827Y-85790410D01*
X158380439Y-85781585D01*
X158379509Y-85772661D01*
X158379509Y-85772656D01*
X158377377Y-85752204D01*
X158376764Y-85735076D01*
X158377427Y-85714539D01*
X158377717Y-85705564D01*
X158371318Y-85680731D01*
X158368013Y-85662362D01*
X158366285Y-85645783D01*
X158366285Y-85645781D01*
X158365354Y-85636854D01*
X158354171Y-85609519D01*
X158348777Y-85593257D01*
X158341406Y-85564653D01*
X158328297Y-85542618D01*
X158319964Y-85525906D01*
X158313655Y-85510484D01*
X158313654Y-85510482D01*
X158310255Y-85502174D01*
X158291846Y-85479072D01*
X158282106Y-85464979D01*
X158271596Y-85447313D01*
X158271594Y-85447310D01*
X158267005Y-85439597D01*
X158248233Y-85422122D01*
X158235552Y-85408426D01*
X158225170Y-85395398D01*
X158225167Y-85395395D01*
X158219571Y-85388373D01*
X158195421Y-85371368D01*
X158182120Y-85360578D01*
X158160496Y-85340449D01*
X158137581Y-85328949D01*
X158121553Y-85319357D01*
X158107930Y-85309764D01*
X158107927Y-85309762D01*
X158100591Y-85304597D01*
X158072638Y-85295054D01*
X158056836Y-85288427D01*
X158030440Y-85275180D01*
X157996597Y-85268999D01*
X157995825Y-85268830D01*
X157994781Y-85268473D01*
X157991839Y-85267954D01*
X157991829Y-85267952D01*
X157964357Y-85263107D01*
X157963601Y-85262972D01*
X157891176Y-85249745D01*
X157887294Y-85249036D01*
X157885900Y-85249181D01*
X157884559Y-85249038D01*
X153833836Y-84534786D01*
X144177032Y-82832030D01*
X144176275Y-82831894D01*
X144108815Y-82819573D01*
X144108810Y-82819573D01*
X144099985Y-82817961D01*
X144091061Y-82818891D01*
X144091056Y-82818891D01*
X144070604Y-82821023D01*
X144053476Y-82821636D01*
X144034266Y-82821016D01*
X144023965Y-82820683D01*
X143999128Y-82827083D01*
X143980760Y-82830388D01*
X143976309Y-82830851D01*
X143964181Y-82832115D01*
X143964177Y-82832116D01*
X143955254Y-82833046D01*
X143930966Y-82842982D01*
X143927918Y-82844229D01*
X143911653Y-82849624D01*
X143883054Y-82856994D01*
X143866725Y-82866708D01*
X143861019Y-82870103D01*
X143844306Y-82878436D01*
X143828879Y-82884747D01*
X143828877Y-82884748D01*
X143820574Y-82888145D01*
X143813558Y-82893736D01*
X143813556Y-82893737D01*
X143797477Y-82906550D01*
X143783377Y-82916295D01*
X143757997Y-82931395D01*
X143751879Y-82937967D01*
X143751878Y-82937968D01*
X143740526Y-82950163D01*
X143726824Y-82962851D01*
X143706773Y-82978829D01*
X143689764Y-83002985D01*
X143678979Y-83016280D01*
X143658850Y-83037904D01*
X143647351Y-83060817D01*
X143637762Y-83076839D01*
X143622997Y-83097809D01*
X143620098Y-83106302D01*
X143620096Y-83106305D01*
X143613454Y-83125760D01*
X143606826Y-83141566D01*
X143597607Y-83159935D01*
X143597606Y-83159938D01*
X143593580Y-83167960D01*
X143591967Y-83176790D01*
X143591967Y-83176791D01*
X143587400Y-83201798D01*
X143587229Y-83202575D01*
X143586873Y-83203619D01*
X143586358Y-83206541D01*
X143586356Y-83206549D01*
X143581490Y-83234146D01*
X143581364Y-83234847D01*
X143567437Y-83311106D01*
X143567582Y-83312499D01*
X143567440Y-83313828D01*
X141187643Y-96810321D01*
X141150412Y-97021471D01*
X141150276Y-97022228D01*
X141138090Y-97088955D01*
X141136362Y-97098415D01*
X116434449Y-97098415D01*
X100602348Y-95920496D01*
X100596581Y-95919932D01*
X100571467Y-95916893D01*
X100566244Y-95917071D01*
X100559453Y-95916934D01*
X100559453Y-95916986D01*
X100554971Y-95916972D01*
X100550502Y-95916639D01*
X100546037Y-95916943D01*
X100546033Y-95916943D01*
X100524229Y-95918428D01*
X100519954Y-95918646D01*
X97956796Y-96005854D01*
X66263018Y-97084192D01*
X66251205Y-97084040D01*
X66247862Y-97083840D01*
X66239066Y-97082038D01*
X66230120Y-97082777D01*
X66230118Y-97082777D01*
X66203573Y-97084970D01*
X66180999Y-97086836D01*
X66174923Y-97087190D01*
X66154657Y-97087879D01*
X66150243Y-97088665D01*
X66150244Y-97088665D01*
X66148613Y-97088955D01*
X66136897Y-97090479D01*
X66127639Y-97091244D01*
X66122910Y-97092386D01*
X66122908Y-97092386D01*
X66108505Y-97095863D01*
X66101030Y-97097430D01*
X66095500Y-97098415D01*
X66047675Y-97106933D01*
X66039631Y-97110926D01*
X66031111Y-97113735D01*
X66030941Y-97113219D01*
X66019724Y-97117297D01*
X46402963Y-101853306D01*
X29656717Y-105896296D01*
X29585806Y-105892839D01*
X29528019Y-105851593D01*
X29505462Y-105806503D01*
X25207666Y-89807514D01*
X26882388Y-89807514D01*
X26885553Y-89836887D01*
X26886226Y-89854003D01*
X26885375Y-89883524D01*
X26887645Y-89892206D01*
X26887645Y-89892210D01*
X26894075Y-89916807D01*
X26894248Y-89917579D01*
X26894366Y-89918677D01*
X26901614Y-89945727D01*
X26902381Y-89948588D01*
X26902578Y-89949332D01*
X26922177Y-90024307D01*
X26922896Y-90025507D01*
X26923331Y-90026777D01*
X30525830Y-103471481D01*
X30526027Y-103472225D01*
X30545644Y-103547268D01*
X30550258Y-103554963D01*
X30550259Y-103554964D01*
X30560833Y-103572596D01*
X30568629Y-103587864D01*
X30580238Y-103615016D01*
X30596538Y-103634825D01*
X30607294Y-103650073D01*
X30620482Y-103672064D01*
X30627068Y-103678152D01*
X30627072Y-103678157D01*
X30642167Y-103692110D01*
X30653934Y-103704575D01*
X30672699Y-103727379D01*
X30693887Y-103741805D01*
X30708502Y-103753430D01*
X30727336Y-103770840D01*
X30735366Y-103774835D01*
X30735369Y-103774837D01*
X30753784Y-103783998D01*
X30768566Y-103792653D01*
X30792980Y-103809276D01*
X30817371Y-103817177D01*
X30834660Y-103824232D01*
X30857618Y-103835654D01*
X30886685Y-103840858D01*
X30903314Y-103845019D01*
X30922872Y-103851355D01*
X30922874Y-103851355D01*
X30931411Y-103854121D01*
X30957044Y-103854859D01*
X30975610Y-103856778D01*
X31000856Y-103861298D01*
X31009775Y-103860337D01*
X31009777Y-103860337D01*
X31016430Y-103859620D01*
X31030223Y-103858134D01*
X31047339Y-103857461D01*
X31076866Y-103858312D01*
X31110146Y-103849612D01*
X31110924Y-103849438D01*
X31112019Y-103849320D01*
X31114893Y-103848550D01*
X31141921Y-103841308D01*
X31142665Y-103841112D01*
X31213828Y-103822509D01*
X31213842Y-103822504D01*
X31217649Y-103821509D01*
X31218847Y-103820791D01*
X31220121Y-103820355D01*
X44664854Y-100217848D01*
X44665597Y-100217652D01*
X44710624Y-100205881D01*
X44740610Y-100198042D01*
X44748310Y-100193425D01*
X44748316Y-100193422D01*
X44765948Y-100182849D01*
X44781211Y-100175055D01*
X44800102Y-100166978D01*
X44808358Y-100163448D01*
X44828158Y-100147155D01*
X44843420Y-100136389D01*
X44857707Y-100127822D01*
X44857708Y-100127821D01*
X44865406Y-100123205D01*
X44885455Y-100101516D01*
X44897919Y-100089750D01*
X44913789Y-100076691D01*
X44920721Y-100070987D01*
X44935152Y-100049793D01*
X44946767Y-100035191D01*
X44964182Y-100016351D01*
X44977339Y-99989905D01*
X44985997Y-99975117D01*
X44997564Y-99958129D01*
X44997565Y-99958128D01*
X45002618Y-99950706D01*
X45010521Y-99926310D01*
X45017573Y-99909029D01*
X45024997Y-99894106D01*
X45028996Y-99886068D01*
X45034200Y-99857001D01*
X45038361Y-99840372D01*
X45044697Y-99820814D01*
X45044697Y-99820812D01*
X45047463Y-99812275D01*
X45048201Y-99786642D01*
X45050120Y-99768076D01*
X45054640Y-99742830D01*
X45051476Y-99713463D01*
X45050803Y-99696340D01*
X45051343Y-99677605D01*
X45051654Y-99666820D01*
X45049383Y-99658135D01*
X45049383Y-99658131D01*
X45042954Y-99633539D01*
X45042779Y-99632758D01*
X45042662Y-99631668D01*
X45041890Y-99628786D01*
X45034642Y-99601733D01*
X45034446Y-99600992D01*
X45015848Y-99529851D01*
X45014851Y-99526037D01*
X45014130Y-99524836D01*
X45013696Y-99523568D01*
X44868188Y-98980525D01*
X42082901Y-88585693D01*
X42084591Y-88514718D01*
X42124385Y-88455922D01*
X42189649Y-88427974D01*
X42259663Y-88439747D01*
X42283646Y-88454955D01*
X42385224Y-88536772D01*
X42385229Y-88536776D01*
X42388177Y-88539150D01*
X42391397Y-88541158D01*
X42651823Y-88703576D01*
X42651830Y-88703580D01*
X42655050Y-88705588D01*
X42939986Y-88838758D01*
X42943596Y-88839941D01*
X42943600Y-88839943D01*
X43031756Y-88868842D01*
X43238856Y-88936733D01*
X43547333Y-88998093D01*
X43551105Y-88998380D01*
X43551113Y-88998381D01*
X43857170Y-89021662D01*
X43857175Y-89021662D01*
X43860947Y-89021949D01*
X44175155Y-89007955D01*
X44178893Y-89007333D01*
X44178901Y-89007332D01*
X44329891Y-88982200D01*
X44485406Y-88956315D01*
X44787207Y-88867777D01*
X45076185Y-88743622D01*
X45079462Y-88741718D01*
X45079469Y-88741715D01*
X45237225Y-88650082D01*
X45348154Y-88585649D01*
X45519997Y-88455922D01*
X45596150Y-88398433D01*
X45596156Y-88398428D01*
X45599176Y-88396148D01*
X45825613Y-88177861D01*
X46024186Y-87933953D01*
X46192018Y-87667954D01*
X46326679Y-87383720D01*
X46415792Y-87116613D01*
X46456325Y-87058325D01*
X46521937Y-87031202D01*
X46591796Y-87043858D01*
X46643724Y-87092273D01*
X46658563Y-87130293D01*
X47257769Y-89949332D01*
X49089643Y-98567620D01*
X49105374Y-98643919D01*
X49109580Y-98651846D01*
X49119216Y-98670007D01*
X49126199Y-98685656D01*
X49133280Y-98704953D01*
X49133283Y-98704958D01*
X49136375Y-98713385D01*
X49151617Y-98734022D01*
X49161557Y-98749806D01*
X49173578Y-98772461D01*
X49179839Y-98778888D01*
X49194183Y-98793613D01*
X49205279Y-98806674D01*
X49222828Y-98830433D01*
X49243245Y-98845958D01*
X49257226Y-98858328D01*
X49275116Y-98876693D01*
X49300837Y-98891216D01*
X49315139Y-98900628D01*
X49338658Y-98918512D01*
X49347035Y-98921720D01*
X49347038Y-98921721D01*
X49362605Y-98927681D01*
X49379493Y-98935627D01*
X49401827Y-98948237D01*
X49410570Y-98950280D01*
X49410571Y-98950280D01*
X49430582Y-98954955D01*
X49446970Y-98959981D01*
X49466168Y-98967331D01*
X49466170Y-98967331D01*
X49474553Y-98970541D01*
X49483497Y-98971269D01*
X49483499Y-98971269D01*
X49500111Y-98972620D01*
X49518560Y-98975509D01*
X49543527Y-98981342D01*
X49552485Y-98980849D01*
X49573018Y-98979719D01*
X49590157Y-98979944D01*
X49610640Y-98981610D01*
X49619589Y-98982338D01*
X49653283Y-98975391D01*
X49654057Y-98975260D01*
X49655164Y-98975199D01*
X49685586Y-98968733D01*
X49686328Y-98968578D01*
X49758246Y-98953750D01*
X49758250Y-98953749D01*
X49762105Y-98952954D01*
X49763339Y-98952299D01*
X49764627Y-98951932D01*
X56070733Y-97611527D01*
X63379764Y-96057944D01*
X63379987Y-96057897D01*
X63456171Y-96042190D01*
X63482270Y-96028342D01*
X63497911Y-96021362D01*
X63525637Y-96011189D01*
X63532857Y-96005856D01*
X63532861Y-96005854D01*
X63546259Y-95995958D01*
X63562064Y-95986004D01*
X63576786Y-95978193D01*
X63576787Y-95978193D01*
X63584713Y-95973987D01*
X63605869Y-95953378D01*
X63618930Y-95942282D01*
X63635463Y-95930070D01*
X63642685Y-95924736D01*
X63658203Y-95904329D01*
X63670575Y-95890346D01*
X63682510Y-95878719D01*
X63682514Y-95878714D01*
X63688945Y-95872449D01*
X63703468Y-95846727D01*
X63712883Y-95832420D01*
X63730764Y-95808906D01*
X63733974Y-95800521D01*
X63733977Y-95800516D01*
X63739932Y-95784961D01*
X63747883Y-95768064D01*
X63756073Y-95753559D01*
X63756074Y-95753556D01*
X63760489Y-95745737D01*
X63767207Y-95716982D01*
X63772233Y-95700594D01*
X63779583Y-95681396D01*
X63779583Y-95681394D01*
X63782793Y-95673011D01*
X63784872Y-95647453D01*
X63787761Y-95629005D01*
X63791552Y-95612776D01*
X63793594Y-95604037D01*
X63791971Y-95574546D01*
X63792196Y-95557407D01*
X63793862Y-95536924D01*
X63794590Y-95527975D01*
X63787643Y-95494281D01*
X63787512Y-95493507D01*
X63787451Y-95492400D01*
X63780985Y-95461978D01*
X63780830Y-95461236D01*
X63766002Y-95389318D01*
X63766001Y-95389314D01*
X63765206Y-95385459D01*
X63764551Y-95384225D01*
X63764184Y-95382937D01*
X63475950Y-94026903D01*
X102891771Y-94026903D01*
X102893936Y-94035617D01*
X102898890Y-94055559D01*
X102901882Y-94072438D01*
X102905046Y-94101805D01*
X102914843Y-94125517D01*
X102920670Y-94143242D01*
X102926852Y-94168126D01*
X102941731Y-94193640D01*
X102949333Y-94208990D01*
X102960614Y-94236291D01*
X102966232Y-94243291D01*
X102966234Y-94243294D01*
X102976662Y-94256286D01*
X102987239Y-94271675D01*
X103000157Y-94293827D01*
X103021606Y-94314146D01*
X103033208Y-94326742D01*
X103051695Y-94349776D01*
X103059051Y-94354917D01*
X103059053Y-94354919D01*
X103072713Y-94364466D01*
X103087184Y-94376268D01*
X103099281Y-94387728D01*
X103099284Y-94387730D01*
X103105797Y-94393900D01*
X103113784Y-94397996D01*
X103132081Y-94407379D01*
X103146758Y-94416215D01*
X103170967Y-94433135D01*
X103190219Y-94439633D01*
X103195256Y-94441333D01*
X103212458Y-94448599D01*
X103235279Y-94460302D01*
X103264285Y-94465861D01*
X103280862Y-94470226D01*
X103299819Y-94476624D01*
X103308841Y-94479669D01*
X103343228Y-94481080D01*
X103343998Y-94481139D01*
X103345086Y-94481348D01*
X103376096Y-94482430D01*
X103376560Y-94482448D01*
X103454232Y-94485636D01*
X103455590Y-94485299D01*
X103456937Y-94485254D01*
X109110100Y-94682667D01*
X117367697Y-94971030D01*
X117368188Y-94971048D01*
X117420214Y-94973183D01*
X117436732Y-94973861D01*
X117436733Y-94973861D01*
X117445703Y-94974229D01*
X117474363Y-94967109D01*
X117491238Y-94964118D01*
X117497389Y-94963455D01*
X117511678Y-94961916D01*
X117511679Y-94961916D01*
X117520605Y-94960954D01*
X117544317Y-94951157D01*
X117562042Y-94945330D01*
X117586926Y-94939148D01*
X117612440Y-94924269D01*
X117627791Y-94916666D01*
X117646792Y-94908815D01*
X117655091Y-94905386D01*
X117662091Y-94899768D01*
X117662094Y-94899766D01*
X117671677Y-94892074D01*
X122044876Y-94892074D01*
X122046427Y-94900914D01*
X122046427Y-94900919D01*
X122049980Y-94921173D01*
X122051786Y-94938215D01*
X122052053Y-94945329D01*
X122052894Y-94967720D01*
X122055735Y-94976235D01*
X122061009Y-94992044D01*
X122065590Y-95010147D01*
X122070020Y-95035401D01*
X122073989Y-95043450D01*
X122073990Y-95043452D01*
X122083080Y-95061884D01*
X122089596Y-95077734D01*
X122096102Y-95097236D01*
X122096105Y-95097241D01*
X122098945Y-95105755D01*
X122104060Y-95113128D01*
X122104064Y-95113136D01*
X122113564Y-95126829D01*
X122123038Y-95142910D01*
X122134379Y-95165909D01*
X122140448Y-95172521D01*
X122140449Y-95172522D01*
X122154347Y-95187662D01*
X122165048Y-95201042D01*
X122181888Y-95225316D01*
X122201832Y-95241437D01*
X122215439Y-95254216D01*
X122232780Y-95273107D01*
X122240462Y-95277750D01*
X122240463Y-95277751D01*
X122258052Y-95288382D01*
X122272084Y-95298226D01*
X122288071Y-95311149D01*
X122288074Y-95311151D01*
X122295054Y-95316793D01*
X122307358Y-95321927D01*
X122318715Y-95326667D01*
X122335366Y-95335114D01*
X122349630Y-95343735D01*
X122357315Y-95348380D01*
X122365994Y-95350681D01*
X122365996Y-95350682D01*
X122385859Y-95355948D01*
X122402084Y-95361455D01*
X122429346Y-95372831D01*
X122438261Y-95373823D01*
X122438264Y-95373824D01*
X122463541Y-95376637D01*
X122464321Y-95376752D01*
X122465386Y-95377034D01*
X122468335Y-95377344D01*
X122468342Y-95377345D01*
X122496146Y-95380267D01*
X122496911Y-95380350D01*
X122515981Y-95382472D01*
X122573967Y-95388925D01*
X122575344Y-95388684D01*
X122576688Y-95388733D01*
X136419490Y-96843670D01*
X136420255Y-96843753D01*
X136470502Y-96849345D01*
X136497274Y-96852324D01*
X136506114Y-96850773D01*
X136506119Y-96850773D01*
X136526373Y-96847220D01*
X136543415Y-96845414D01*
X136563948Y-96844643D01*
X136563949Y-96844643D01*
X136572920Y-96844306D01*
X136597243Y-96836191D01*
X136615348Y-96831610D01*
X136640601Y-96827180D01*
X136648650Y-96823211D01*
X136648652Y-96823210D01*
X136667084Y-96814120D01*
X136682934Y-96807604D01*
X136702436Y-96801098D01*
X136702441Y-96801095D01*
X136710955Y-96798255D01*
X136718332Y-96793138D01*
X136718335Y-96793136D01*
X136732027Y-96783638D01*
X136748113Y-96774162D01*
X136763057Y-96766792D01*
X136763058Y-96766791D01*
X136771109Y-96762821D01*
X136792871Y-96742845D01*
X136806240Y-96732154D01*
X136830517Y-96715312D01*
X136846636Y-96695371D01*
X136859420Y-96681757D01*
X136871693Y-96670491D01*
X136878307Y-96664420D01*
X136882949Y-96656739D01*
X136882952Y-96656736D01*
X136893582Y-96639148D01*
X136903428Y-96625112D01*
X136916351Y-96609125D01*
X136921993Y-96602146D01*
X136927127Y-96589842D01*
X136931867Y-96578485D01*
X136940314Y-96561834D01*
X136948935Y-96547570D01*
X136953580Y-96539885D01*
X136961148Y-96511340D01*
X136966655Y-96495116D01*
X136978031Y-96467854D01*
X136981837Y-96433656D01*
X136981952Y-96432878D01*
X136982234Y-96431814D01*
X136985457Y-96401148D01*
X136985540Y-96400381D01*
X136993689Y-96327159D01*
X136994126Y-96323233D01*
X136993884Y-96321851D01*
X136993933Y-96320503D01*
X137021532Y-96057921D01*
X137707224Y-89533994D01*
X138448860Y-82477804D01*
X138448943Y-82477038D01*
X138456532Y-82408848D01*
X138457525Y-82399926D01*
X138455974Y-82391086D01*
X138455974Y-82391081D01*
X138452420Y-82370822D01*
X138450614Y-82353781D01*
X138449843Y-82333253D01*
X138449843Y-82333252D01*
X138449506Y-82324280D01*
X138441393Y-82299962D01*
X138436812Y-82281858D01*
X138433932Y-82265441D01*
X138432381Y-82256599D01*
X138419317Y-82230108D01*
X138412802Y-82214260D01*
X138406297Y-82194762D01*
X138406295Y-82194759D01*
X138403455Y-82186245D01*
X138388841Y-82165179D01*
X138379363Y-82149089D01*
X138368022Y-82126091D01*
X138348051Y-82104334D01*
X138337349Y-82090952D01*
X138325628Y-82074057D01*
X138325627Y-82074055D01*
X138320512Y-82066683D01*
X138300572Y-82050565D01*
X138286957Y-82037780D01*
X138275690Y-82025505D01*
X138275688Y-82025503D01*
X138269620Y-82018893D01*
X138261942Y-82014252D01*
X138261937Y-82014248D01*
X138244343Y-82003614D01*
X138230322Y-81993779D01*
X138207346Y-81975207D01*
X138183679Y-81965331D01*
X138167035Y-81956887D01*
X138157926Y-81951381D01*
X138152765Y-81948261D01*
X138152763Y-81948260D01*
X138145086Y-81943620D01*
X138136413Y-81941320D01*
X138136412Y-81941320D01*
X138116535Y-81936050D01*
X138100304Y-81930540D01*
X138081337Y-81922625D01*
X138081335Y-81922624D01*
X138073054Y-81919169D01*
X138042685Y-81915789D01*
X138038856Y-81915363D01*
X138038078Y-81915248D01*
X138037014Y-81914966D01*
X138034061Y-81914656D01*
X138034050Y-81914654D01*
X138006348Y-81911743D01*
X138005581Y-81911660D01*
X137976844Y-81908462D01*
X137928433Y-81903074D01*
X137927051Y-81903316D01*
X137925706Y-81903267D01*
X131489172Y-81226760D01*
X124083004Y-80448340D01*
X124082238Y-80448257D01*
X124014048Y-80440668D01*
X124005126Y-80439675D01*
X123996286Y-80441226D01*
X123996281Y-80441226D01*
X123976022Y-80444780D01*
X123958981Y-80446586D01*
X123938453Y-80447357D01*
X123938452Y-80447357D01*
X123929480Y-80447694D01*
X123909922Y-80454219D01*
X123905162Y-80455807D01*
X123887059Y-80460388D01*
X123861799Y-80464819D01*
X123835310Y-80477882D01*
X123819460Y-80484398D01*
X123799964Y-80490902D01*
X123799959Y-80490905D01*
X123791445Y-80493745D01*
X123784068Y-80498862D01*
X123784069Y-80498862D01*
X123770380Y-80508358D01*
X123754293Y-80517834D01*
X123745404Y-80522218D01*
X123731291Y-80529178D01*
X123713873Y-80545166D01*
X123709532Y-80549151D01*
X123696150Y-80559853D01*
X123679368Y-80571496D01*
X123671884Y-80576688D01*
X123666245Y-80583664D01*
X123666244Y-80583665D01*
X123655765Y-80596629D01*
X123642982Y-80610241D01*
X123624093Y-80627580D01*
X123608815Y-80652857D01*
X123598978Y-80666880D01*
X123580407Y-80689854D01*
X123570531Y-80713521D01*
X123562087Y-80730165D01*
X123548820Y-80752114D01*
X123546520Y-80760787D01*
X123546520Y-80760788D01*
X123541250Y-80780665D01*
X123535740Y-80796895D01*
X123524369Y-80824146D01*
X123523377Y-80833061D01*
X123523376Y-80833064D01*
X123520563Y-80858341D01*
X123520448Y-80859121D01*
X123520166Y-80860186D01*
X123519856Y-80863135D01*
X123519855Y-80863142D01*
X123516933Y-80890946D01*
X123516850Y-80891711D01*
X123508275Y-80968767D01*
X123508516Y-80970144D01*
X123508467Y-80971488D01*
X122053530Y-94814290D01*
X122053447Y-94815055D01*
X122044876Y-94892074D01*
X117671677Y-94892074D01*
X117675086Y-94889338D01*
X117690475Y-94878761D01*
X117712627Y-94865843D01*
X117732946Y-94844394D01*
X117745542Y-94832792D01*
X117761574Y-94819925D01*
X117761575Y-94819924D01*
X117768576Y-94814305D01*
X117773717Y-94806949D01*
X117773719Y-94806947D01*
X117783266Y-94793287D01*
X117795068Y-94778816D01*
X117806528Y-94766719D01*
X117806530Y-94766716D01*
X117812700Y-94760203D01*
X117826179Y-94733919D01*
X117835015Y-94719242D01*
X117851935Y-94695033D01*
X117860133Y-94670744D01*
X117867399Y-94653542D01*
X117869348Y-94649740D01*
X117879102Y-94630721D01*
X117884661Y-94601714D01*
X117889026Y-94585138D01*
X117895597Y-94565668D01*
X117898469Y-94557159D01*
X117899880Y-94522772D01*
X117899939Y-94522002D01*
X117900148Y-94520914D01*
X117901230Y-94489904D01*
X117901248Y-94489440D01*
X117904436Y-94411768D01*
X117904099Y-94410410D01*
X117904054Y-94409063D01*
X118159562Y-87092273D01*
X118389830Y-80498303D01*
X118389853Y-80497680D01*
X118390074Y-80492312D01*
X118393029Y-80420297D01*
X118385909Y-80391637D01*
X118382918Y-80374761D01*
X118380716Y-80354322D01*
X118380716Y-80354321D01*
X118379754Y-80345395D01*
X118369957Y-80321683D01*
X118364129Y-80303956D01*
X118360113Y-80287788D01*
X118360112Y-80287786D01*
X118357948Y-80279074D01*
X118343072Y-80253565D01*
X118335470Y-80238219D01*
X118324186Y-80210909D01*
X118308131Y-80190905D01*
X118297559Y-80175522D01*
X118289165Y-80161127D01*
X118289161Y-80161122D01*
X118284642Y-80153373D01*
X118263202Y-80133063D01*
X118251592Y-80120458D01*
X118238726Y-80104427D01*
X118238724Y-80104425D01*
X118233105Y-80097424D01*
X118212082Y-80082731D01*
X118197616Y-80070932D01*
X118185520Y-80059474D01*
X118185518Y-80059473D01*
X118179002Y-80053300D01*
X118171021Y-80049207D01*
X118171018Y-80049205D01*
X118152721Y-80039822D01*
X118138040Y-80030983D01*
X118121191Y-80019207D01*
X118121189Y-80019206D01*
X118113833Y-80014065D01*
X118105327Y-80011194D01*
X118089544Y-80005867D01*
X118072342Y-79998601D01*
X118068540Y-79996652D01*
X118049521Y-79986898D01*
X118020514Y-79981339D01*
X118003938Y-79976974D01*
X117984468Y-79970403D01*
X117975959Y-79967531D01*
X117941573Y-79966120D01*
X117940800Y-79966061D01*
X117939713Y-79965852D01*
X117908870Y-79964775D01*
X117908095Y-79964746D01*
X117900077Y-79964417D01*
X117830568Y-79961564D01*
X117829211Y-79961901D01*
X117827862Y-79961946D01*
X103917270Y-79476177D01*
X103916500Y-79476148D01*
X103848070Y-79473339D01*
X103848068Y-79473339D01*
X103839097Y-79472971D01*
X103810437Y-79480091D01*
X103793562Y-79483082D01*
X103787411Y-79483745D01*
X103773122Y-79485284D01*
X103773121Y-79485284D01*
X103764195Y-79486246D01*
X103740483Y-79496043D01*
X103722758Y-79501870D01*
X103717842Y-79503092D01*
X103706588Y-79505887D01*
X103706586Y-79505888D01*
X103697874Y-79508052D01*
X103690119Y-79512575D01*
X103690118Y-79512575D01*
X103672366Y-79522928D01*
X103657019Y-79530530D01*
X103629709Y-79541814D01*
X103609705Y-79557869D01*
X103594322Y-79568441D01*
X103579927Y-79576835D01*
X103579922Y-79576839D01*
X103572173Y-79581358D01*
X103551863Y-79602798D01*
X103539258Y-79614408D01*
X103523227Y-79627274D01*
X103523225Y-79627276D01*
X103516224Y-79632895D01*
X103501531Y-79653918D01*
X103489732Y-79668384D01*
X103478274Y-79680480D01*
X103478273Y-79680482D01*
X103472100Y-79686998D01*
X103468007Y-79694979D01*
X103468005Y-79694982D01*
X103458622Y-79713279D01*
X103449783Y-79727960D01*
X103432865Y-79752167D01*
X103429994Y-79760672D01*
X103429994Y-79760673D01*
X103424667Y-79776456D01*
X103417401Y-79793658D01*
X103405698Y-79816479D01*
X103400139Y-79845485D01*
X103395774Y-79862062D01*
X103389376Y-79881019D01*
X103386331Y-79890041D01*
X103385963Y-79899011D01*
X103384921Y-79924416D01*
X103384861Y-79925200D01*
X103384652Y-79926287D01*
X103384548Y-79929268D01*
X103383575Y-79957135D01*
X103383546Y-79957905D01*
X103380364Y-80035432D01*
X103380701Y-80036789D01*
X103380746Y-80038138D01*
X102894977Y-93948730D01*
X102894948Y-93949500D01*
X102891771Y-94026903D01*
X63475950Y-94026903D01*
X62526572Y-89560436D01*
X61268194Y-83640234D01*
X81054475Y-83640234D01*
X81070114Y-83954365D01*
X81070755Y-83958096D01*
X81070756Y-83958104D01*
X81122733Y-84260597D01*
X81122735Y-84260605D01*
X81123377Y-84264342D01*
X81124465Y-84267981D01*
X81124466Y-84267984D01*
X81208913Y-84550353D01*
X81213495Y-84565675D01*
X81339161Y-84853999D01*
X81498555Y-85125137D01*
X81500856Y-85128152D01*
X81687069Y-85372150D01*
X81687074Y-85372155D01*
X81689369Y-85375163D01*
X81692013Y-85377877D01*
X81882431Y-85573346D01*
X81908838Y-85600454D01*
X82018828Y-85689046D01*
X82150830Y-85795369D01*
X82150835Y-85795373D01*
X82153783Y-85797747D01*
X82222500Y-85840603D01*
X82417429Y-85962173D01*
X82417436Y-85962177D01*
X82420656Y-85964185D01*
X82705592Y-86097355D01*
X82709202Y-86098538D01*
X82709206Y-86098540D01*
X83000865Y-86194151D01*
X83004462Y-86195330D01*
X83312939Y-86256690D01*
X83316711Y-86256977D01*
X83316719Y-86256978D01*
X83622776Y-86280259D01*
X83622781Y-86280259D01*
X83626553Y-86280546D01*
X83940761Y-86266552D01*
X83944499Y-86265930D01*
X83944507Y-86265929D01*
X84095497Y-86240797D01*
X84251012Y-86214912D01*
X84552813Y-86126374D01*
X84841791Y-86002219D01*
X84845068Y-86000315D01*
X84845075Y-86000312D01*
X85055166Y-85878280D01*
X85113760Y-85844246D01*
X85246997Y-85743663D01*
X85361756Y-85657030D01*
X85361762Y-85657025D01*
X85364782Y-85654745D01*
X85561633Y-85464979D01*
X85588492Y-85439087D01*
X85588493Y-85439086D01*
X85591219Y-85436458D01*
X85789792Y-85192550D01*
X85957624Y-84926551D01*
X86092285Y-84642317D01*
X86191823Y-84343964D01*
X86254797Y-84035813D01*
X86280295Y-83722328D01*
X86280868Y-83667600D01*
X86270074Y-83488545D01*
X86262169Y-83357428D01*
X86262169Y-83357424D01*
X86261941Y-83353650D01*
X86254171Y-83311106D01*
X86206114Y-83047970D01*
X86206113Y-83047966D01*
X86205434Y-83044248D01*
X86112166Y-82743876D01*
X85983487Y-82456883D01*
X85821263Y-82187429D01*
X85818936Y-82184445D01*
X85818931Y-82184438D01*
X85630172Y-81942403D01*
X85630166Y-81942396D01*
X85627841Y-81939415D01*
X85406025Y-81716434D01*
X85159028Y-81521717D01*
X84890426Y-81358084D01*
X84752679Y-81295454D01*
X84607563Y-81229473D01*
X84607555Y-81229470D01*
X84604111Y-81227904D01*
X84304231Y-81133064D01*
X84166963Y-81107251D01*
X83998853Y-81075638D01*
X83998848Y-81075637D01*
X83995129Y-81074938D01*
X83681283Y-81054368D01*
X83677503Y-81054576D01*
X83677502Y-81054576D01*
X83585931Y-81059616D01*
X83367238Y-81071651D01*
X83363511Y-81072312D01*
X83363507Y-81072312D01*
X83253848Y-81091747D01*
X83057545Y-81126537D01*
X83053929Y-81127639D01*
X83053921Y-81127641D01*
X82760312Y-81217126D01*
X82760305Y-81217129D01*
X82756688Y-81218231D01*
X82469026Y-81345405D01*
X82465772Y-81347341D01*
X82465766Y-81347344D01*
X82227057Y-81489361D01*
X82198725Y-81506217D01*
X82195724Y-81508532D01*
X82195720Y-81508535D01*
X82152739Y-81541695D01*
X81949702Y-81698337D01*
X81947003Y-81700993D01*
X81947004Y-81700993D01*
X81729643Y-81914966D01*
X81725563Y-81918982D01*
X81709281Y-81939415D01*
X81531921Y-82161988D01*
X81531915Y-82161997D01*
X81529556Y-82164957D01*
X81364518Y-82432698D01*
X81232841Y-82718327D01*
X81191250Y-82847481D01*
X81138915Y-83010001D01*
X81136433Y-83017707D01*
X81135714Y-83021423D01*
X81135712Y-83021431D01*
X81077408Y-83322781D01*
X81077407Y-83322790D01*
X81076689Y-83326500D01*
X81076422Y-83330276D01*
X81076421Y-83330281D01*
X81054743Y-83636445D01*
X81054475Y-83640234D01*
X61268194Y-83640234D01*
X60870173Y-81767692D01*
X60854442Y-81691393D01*
X60840594Y-81665294D01*
X60833614Y-81649653D01*
X60823441Y-81621927D01*
X60818108Y-81614707D01*
X60818106Y-81614703D01*
X60808210Y-81601305D01*
X60798256Y-81585500D01*
X60790445Y-81570778D01*
X60790445Y-81570777D01*
X60786239Y-81562851D01*
X60765630Y-81541695D01*
X60754534Y-81528634D01*
X60742322Y-81512101D01*
X60736988Y-81504879D01*
X60716581Y-81489361D01*
X60702598Y-81476989D01*
X60690971Y-81465054D01*
X60690966Y-81465050D01*
X60684701Y-81458619D01*
X60658979Y-81444096D01*
X60644672Y-81434681D01*
X60621158Y-81416800D01*
X60612773Y-81413590D01*
X60612768Y-81413587D01*
X60597213Y-81407632D01*
X60580316Y-81399681D01*
X60565811Y-81391491D01*
X60565808Y-81391490D01*
X60557989Y-81387075D01*
X60529234Y-81380357D01*
X60512846Y-81375331D01*
X60493648Y-81367981D01*
X60493646Y-81367981D01*
X60485263Y-81364771D01*
X60476319Y-81364043D01*
X60476317Y-81364043D01*
X60459705Y-81362692D01*
X60441257Y-81359803D01*
X60438732Y-81359213D01*
X60416289Y-81353970D01*
X60407331Y-81354463D01*
X60386798Y-81355593D01*
X60369659Y-81355368D01*
X60349176Y-81353702D01*
X60340227Y-81352974D01*
X60306533Y-81359921D01*
X60305759Y-81360052D01*
X60304652Y-81360113D01*
X60301731Y-81360734D01*
X60301730Y-81360734D01*
X60274240Y-81366577D01*
X60273488Y-81366734D01*
X60201570Y-81381562D01*
X60201566Y-81381563D01*
X60197711Y-81382358D01*
X60196477Y-81383013D01*
X60195189Y-81383380D01*
X55412719Y-82399926D01*
X46580052Y-84277368D01*
X46579829Y-84277415D01*
X46503645Y-84293122D01*
X46495718Y-84297328D01*
X46477557Y-84306964D01*
X46461908Y-84313947D01*
X46442611Y-84321028D01*
X46442606Y-84321031D01*
X46434179Y-84324123D01*
X46413542Y-84339365D01*
X46397758Y-84349305D01*
X46375103Y-84361326D01*
X46368676Y-84367587D01*
X46353951Y-84381931D01*
X46340890Y-84393027D01*
X46317131Y-84410576D01*
X46301606Y-84430993D01*
X46289233Y-84444977D01*
X46278439Y-84455492D01*
X46270871Y-84462864D01*
X46256348Y-84488585D01*
X46246936Y-84502887D01*
X46229052Y-84526406D01*
X46225844Y-84534783D01*
X46225843Y-84534786D01*
X46219883Y-84550353D01*
X46211937Y-84567241D01*
X46199327Y-84589575D01*
X46197284Y-84598318D01*
X46197284Y-84598319D01*
X46192609Y-84618330D01*
X46187583Y-84634718D01*
X46177023Y-84662301D01*
X46176295Y-84671245D01*
X46176295Y-84671247D01*
X46174944Y-84687859D01*
X46172055Y-84706307D01*
X46166222Y-84731275D01*
X46163920Y-84730737D01*
X46142722Y-84784915D01*
X46085216Y-84826550D01*
X46014328Y-84830485D01*
X45952566Y-84795471D01*
X45943714Y-84785294D01*
X45943419Y-84784915D01*
X45901166Y-84730737D01*
X45864566Y-84683806D01*
X45864560Y-84683799D01*
X45862235Y-84680818D01*
X45640419Y-84457837D01*
X45393422Y-84263120D01*
X45124820Y-84099487D01*
X44921532Y-84007057D01*
X44841957Y-83970876D01*
X44841949Y-83970873D01*
X44838505Y-83969307D01*
X44538625Y-83874467D01*
X44401357Y-83848654D01*
X44233247Y-83817041D01*
X44233242Y-83817040D01*
X44229523Y-83816341D01*
X43915677Y-83795771D01*
X43911897Y-83795979D01*
X43911896Y-83795979D01*
X43820325Y-83801019D01*
X43601632Y-83813054D01*
X43597905Y-83813715D01*
X43597901Y-83813715D01*
X43488242Y-83833150D01*
X43291939Y-83867940D01*
X43288323Y-83869042D01*
X43288315Y-83869044D01*
X42994706Y-83958529D01*
X42994699Y-83958532D01*
X42991082Y-83959634D01*
X42703420Y-84086808D01*
X42700166Y-84088744D01*
X42700160Y-84088747D01*
X42436378Y-84245681D01*
X42433119Y-84247620D01*
X42430118Y-84249935D01*
X42430114Y-84249938D01*
X42376487Y-84291311D01*
X42184096Y-84439740D01*
X41959957Y-84660385D01*
X41943675Y-84680818D01*
X41766315Y-84903391D01*
X41766309Y-84903400D01*
X41763950Y-84906360D01*
X41598912Y-85174101D01*
X41467235Y-85459730D01*
X41404435Y-85654745D01*
X41387714Y-85706670D01*
X41347794Y-85765381D01*
X41282470Y-85793189D01*
X41212482Y-85781265D01*
X41210077Y-85779859D01*
X41209693Y-85779504D01*
X41183244Y-85766346D01*
X41168469Y-85757695D01*
X41144049Y-85741068D01*
X41119651Y-85733164D01*
X41102374Y-85726114D01*
X41079410Y-85714690D01*
X41070573Y-85713108D01*
X41070570Y-85713107D01*
X41050341Y-85709486D01*
X41033713Y-85705325D01*
X41019542Y-85700734D01*
X41005617Y-85696223D01*
X40979984Y-85695484D01*
X40961420Y-85693566D01*
X40936172Y-85689046D01*
X40906799Y-85692211D01*
X40889683Y-85692884D01*
X40860162Y-85692033D01*
X40841643Y-85696874D01*
X40826876Y-85700734D01*
X40826111Y-85700905D01*
X40825010Y-85701024D01*
X40795154Y-85709024D01*
X40794476Y-85709204D01*
X40723190Y-85727838D01*
X40723180Y-85727841D01*
X40719379Y-85728835D01*
X40718179Y-85729555D01*
X40716914Y-85729989D01*
X30232983Y-88539150D01*
X27272246Y-89332477D01*
X27271502Y-89332674D01*
X27196418Y-89352302D01*
X27188725Y-89356915D01*
X27188716Y-89356919D01*
X27171080Y-89367495D01*
X27155818Y-89375288D01*
X27128670Y-89386896D01*
X27108861Y-89403196D01*
X27093613Y-89413952D01*
X27071622Y-89427140D01*
X27065534Y-89433726D01*
X27065529Y-89433730D01*
X27051576Y-89448825D01*
X27039111Y-89460592D01*
X27016307Y-89479357D01*
X27001875Y-89500553D01*
X26990252Y-89515164D01*
X26972846Y-89533994D01*
X26968851Y-89542024D01*
X26968849Y-89542027D01*
X26959691Y-89560436D01*
X26951029Y-89575229D01*
X26934410Y-89599637D01*
X26931642Y-89608182D01*
X26926510Y-89624024D01*
X26919454Y-89641317D01*
X26908032Y-89664276D01*
X26906451Y-89673107D01*
X26906450Y-89673110D01*
X26902828Y-89693345D01*
X26898667Y-89709972D01*
X26889565Y-89738069D01*
X26889307Y-89747038D01*
X26888827Y-89763697D01*
X26886908Y-89782266D01*
X26882388Y-89807514D01*
X25207666Y-89807514D01*
X20264650Y-71406628D01*
X21951884Y-71406628D01*
X21955049Y-71436001D01*
X21955722Y-71453117D01*
X21954871Y-71482638D01*
X21957141Y-71491320D01*
X21957141Y-71491324D01*
X21963571Y-71515921D01*
X21963744Y-71516693D01*
X21963862Y-71517791D01*
X21971110Y-71544841D01*
X21971877Y-71547702D01*
X21972074Y-71548446D01*
X21991673Y-71623421D01*
X21992392Y-71624621D01*
X21992827Y-71625890D01*
X22782542Y-74573148D01*
X25595326Y-85070595D01*
X25595523Y-85071339D01*
X25615140Y-85146382D01*
X25619754Y-85154077D01*
X25619755Y-85154078D01*
X25630329Y-85171710D01*
X25638125Y-85186978D01*
X25649734Y-85214130D01*
X25666034Y-85233939D01*
X25676790Y-85249187D01*
X25689978Y-85271178D01*
X25696564Y-85277266D01*
X25696568Y-85277271D01*
X25711663Y-85291224D01*
X25723430Y-85303689D01*
X25742195Y-85326493D01*
X25763383Y-85340919D01*
X25777998Y-85352544D01*
X25796832Y-85369954D01*
X25804862Y-85373949D01*
X25804865Y-85373951D01*
X25823280Y-85383112D01*
X25838062Y-85391767D01*
X25862476Y-85408390D01*
X25886867Y-85416291D01*
X25904156Y-85423346D01*
X25927114Y-85434768D01*
X25956181Y-85439972D01*
X25972810Y-85444133D01*
X25992368Y-85450469D01*
X25992370Y-85450469D01*
X26000907Y-85453235D01*
X26026540Y-85453973D01*
X26045106Y-85455892D01*
X26070352Y-85460412D01*
X26079271Y-85459451D01*
X26079273Y-85459451D01*
X26085926Y-85458734D01*
X26099719Y-85457248D01*
X26116835Y-85456575D01*
X26146362Y-85457426D01*
X26179642Y-85448726D01*
X26180420Y-85448552D01*
X26181515Y-85448434D01*
X26185699Y-85447313D01*
X26211417Y-85440422D01*
X26212161Y-85440226D01*
X26283324Y-85421623D01*
X26283338Y-85421618D01*
X26287145Y-85420623D01*
X26288343Y-85419905D01*
X26289617Y-85419469D01*
X39734350Y-81816962D01*
X39735093Y-81816766D01*
X39780120Y-81804995D01*
X39810106Y-81797156D01*
X39817806Y-81792539D01*
X39817812Y-81792536D01*
X39835444Y-81781963D01*
X39850707Y-81774169D01*
X39869598Y-81766092D01*
X39877854Y-81762562D01*
X39897654Y-81746269D01*
X39912916Y-81735503D01*
X39927203Y-81726936D01*
X39927204Y-81726935D01*
X39934902Y-81722319D01*
X39954951Y-81700630D01*
X39967415Y-81688864D01*
X39983285Y-81675805D01*
X39990217Y-81670101D01*
X40004648Y-81648907D01*
X40016263Y-81634305D01*
X40033678Y-81615465D01*
X40046835Y-81589019D01*
X40055493Y-81574231D01*
X40067060Y-81557243D01*
X40067061Y-81557242D01*
X40072114Y-81549820D01*
X40080017Y-81525424D01*
X40087069Y-81508143D01*
X40094493Y-81493220D01*
X40098492Y-81485182D01*
X40103696Y-81456115D01*
X40107857Y-81439486D01*
X40114193Y-81419928D01*
X40114193Y-81419926D01*
X40116959Y-81411389D01*
X40117697Y-81385756D01*
X40119616Y-81367190D01*
X40124136Y-81341944D01*
X40120972Y-81312577D01*
X40120299Y-81295454D01*
X40120891Y-81274906D01*
X40121150Y-81265934D01*
X40118879Y-81257249D01*
X40118879Y-81257245D01*
X40112450Y-81232653D01*
X40112275Y-81231872D01*
X40112158Y-81230782D01*
X40111386Y-81227900D01*
X40104138Y-81200847D01*
X40103942Y-81200106D01*
X40085344Y-81128965D01*
X40084347Y-81125151D01*
X40083626Y-81123950D01*
X40083192Y-81122682D01*
X40070333Y-81074690D01*
X36480667Y-67677877D01*
X36480585Y-67677565D01*
X36460880Y-67602190D01*
X36456262Y-67594489D01*
X36445690Y-67576859D01*
X36437894Y-67561592D01*
X36429815Y-67542696D01*
X36426286Y-67534442D01*
X36409993Y-67514642D01*
X36399227Y-67499380D01*
X36390660Y-67485093D01*
X36390659Y-67485092D01*
X36386043Y-67477394D01*
X36364354Y-67457345D01*
X36352588Y-67444881D01*
X36339527Y-67429009D01*
X36333825Y-67422079D01*
X36312635Y-67407651D01*
X36298022Y-67396027D01*
X36291837Y-67390310D01*
X36279189Y-67378618D01*
X36252740Y-67365460D01*
X36237965Y-67356809D01*
X36213545Y-67340182D01*
X36189147Y-67332278D01*
X36171870Y-67325228D01*
X36148906Y-67313804D01*
X36140069Y-67312222D01*
X36140066Y-67312221D01*
X36119837Y-67308600D01*
X36103209Y-67304439D01*
X36089038Y-67299848D01*
X36075113Y-67295337D01*
X36049480Y-67294598D01*
X36030916Y-67292680D01*
X36005668Y-67288160D01*
X35976295Y-67291325D01*
X35959179Y-67291998D01*
X35929658Y-67291147D01*
X35907343Y-67296980D01*
X35896372Y-67299848D01*
X35895607Y-67300019D01*
X35894506Y-67300138D01*
X35864650Y-67308138D01*
X35863972Y-67308318D01*
X35792686Y-67326952D01*
X35792676Y-67326955D01*
X35788875Y-67327949D01*
X35787675Y-67328669D01*
X35786410Y-67329103D01*
X24594264Y-70328030D01*
X22341742Y-70931591D01*
X22340998Y-70931788D01*
X22265914Y-70951416D01*
X22258221Y-70956029D01*
X22258212Y-70956033D01*
X22240576Y-70966609D01*
X22225314Y-70974402D01*
X22198166Y-70986010D01*
X22178357Y-71002310D01*
X22163109Y-71013066D01*
X22141118Y-71026254D01*
X22135030Y-71032840D01*
X22135025Y-71032844D01*
X22121072Y-71047939D01*
X22108607Y-71059706D01*
X22085803Y-71078471D01*
X22071371Y-71099667D01*
X22059748Y-71114278D01*
X22042342Y-71133108D01*
X22038347Y-71141138D01*
X22038345Y-71141141D01*
X22029187Y-71159550D01*
X22020525Y-71174343D01*
X22003906Y-71198751D01*
X22001138Y-71207296D01*
X21996006Y-71223138D01*
X21988950Y-71240431D01*
X21977528Y-71263390D01*
X21975947Y-71272221D01*
X21975946Y-71272224D01*
X21972324Y-71292459D01*
X21968163Y-71309086D01*
X21959061Y-71337183D01*
X21958803Y-71346152D01*
X21958323Y-71362811D01*
X21956404Y-71381380D01*
X21951884Y-71406628D01*
X20264650Y-71406628D01*
X15351433Y-53116674D01*
X17031088Y-53116674D01*
X17034253Y-53146047D01*
X17034926Y-53163163D01*
X17034075Y-53192684D01*
X17036345Y-53201366D01*
X17036345Y-53201370D01*
X17042775Y-53225967D01*
X17042948Y-53226739D01*
X17043066Y-53227837D01*
X17050314Y-53254887D01*
X17051081Y-53257748D01*
X17051278Y-53258492D01*
X17061642Y-53298140D01*
X17070877Y-53333467D01*
X17071596Y-53334667D01*
X17072031Y-53335936D01*
X18415488Y-58349786D01*
X20674530Y-66780641D01*
X20674727Y-66781385D01*
X20694344Y-66856428D01*
X20698958Y-66864123D01*
X20698959Y-66864124D01*
X20709533Y-66881756D01*
X20717329Y-66897024D01*
X20728938Y-66924176D01*
X20745238Y-66943985D01*
X20755994Y-66959233D01*
X20769182Y-66981224D01*
X20775768Y-66987312D01*
X20775772Y-66987317D01*
X20790867Y-67001270D01*
X20802634Y-67013735D01*
X20821399Y-67036539D01*
X20842587Y-67050965D01*
X20857202Y-67062590D01*
X20876036Y-67080000D01*
X20884066Y-67083995D01*
X20884069Y-67083997D01*
X20902484Y-67093158D01*
X20917266Y-67101813D01*
X20941680Y-67118436D01*
X20966071Y-67126337D01*
X20983360Y-67133392D01*
X21006318Y-67144814D01*
X21035385Y-67150018D01*
X21052014Y-67154179D01*
X21071572Y-67160515D01*
X21071574Y-67160515D01*
X21080111Y-67163281D01*
X21105744Y-67164019D01*
X21124310Y-67165938D01*
X21149556Y-67170458D01*
X21158475Y-67169497D01*
X21158477Y-67169497D01*
X21165130Y-67168780D01*
X21178923Y-67167294D01*
X21196039Y-67166621D01*
X21225566Y-67167472D01*
X21258846Y-67158772D01*
X21259624Y-67158598D01*
X21260719Y-67158480D01*
X21263593Y-67157710D01*
X21290621Y-67150468D01*
X21291365Y-67150272D01*
X21362528Y-67131669D01*
X21362542Y-67131664D01*
X21366349Y-67130669D01*
X21367547Y-67129951D01*
X21368821Y-67129515D01*
X22699961Y-66772837D01*
X36666069Y-66772837D01*
X36667542Y-66802424D01*
X36679916Y-67050965D01*
X36681708Y-67086968D01*
X36682349Y-67090699D01*
X36682350Y-67090707D01*
X36734327Y-67393200D01*
X36734329Y-67393208D01*
X36734971Y-67396945D01*
X36736059Y-67400584D01*
X36736060Y-67400587D01*
X36818940Y-67677716D01*
X36825089Y-67698278D01*
X36950755Y-67986602D01*
X37110149Y-68257740D01*
X37112450Y-68260755D01*
X37298663Y-68504753D01*
X37298668Y-68504758D01*
X37300963Y-68507766D01*
X37520432Y-68733057D01*
X37587836Y-68787348D01*
X37762424Y-68927972D01*
X37762429Y-68927976D01*
X37765377Y-68930350D01*
X37768597Y-68932358D01*
X38029023Y-69094776D01*
X38029030Y-69094780D01*
X38032250Y-69096788D01*
X38317186Y-69229958D01*
X38320796Y-69231141D01*
X38320800Y-69231143D01*
X38408956Y-69260042D01*
X38616056Y-69327933D01*
X38924533Y-69389293D01*
X38928305Y-69389580D01*
X38928313Y-69389581D01*
X39234370Y-69412862D01*
X39234375Y-69412862D01*
X39238147Y-69413149D01*
X39552355Y-69399155D01*
X39556093Y-69398533D01*
X39556101Y-69398532D01*
X39707091Y-69373400D01*
X39862606Y-69347515D01*
X40164407Y-69258977D01*
X40453385Y-69134822D01*
X40456662Y-69132918D01*
X40456669Y-69132915D01*
X40614425Y-69041282D01*
X40725354Y-68976849D01*
X40814293Y-68909707D01*
X40973350Y-68789633D01*
X40973356Y-68789628D01*
X40976376Y-68787348D01*
X41202813Y-68569061D01*
X41401386Y-68325153D01*
X41569218Y-68059154D01*
X41703879Y-67774920D01*
X41803417Y-67476567D01*
X41866391Y-67168416D01*
X41891889Y-66854931D01*
X41892462Y-66800203D01*
X41873535Y-66486253D01*
X41842467Y-66316142D01*
X41817708Y-66180573D01*
X41817707Y-66180569D01*
X41817028Y-66176851D01*
X41816027Y-66173626D01*
X42204505Y-66173626D01*
X42211452Y-66207320D01*
X42211583Y-66208094D01*
X42211644Y-66209201D01*
X42212265Y-66212122D01*
X42212265Y-66212123D01*
X42218108Y-66239613D01*
X42218262Y-66240349D01*
X42233889Y-66316142D01*
X42234544Y-66317376D01*
X42234911Y-66318664D01*
X43339623Y-71515921D01*
X45128922Y-79933909D01*
X45144653Y-80010208D01*
X45158037Y-80035432D01*
X45158495Y-80036296D01*
X45165478Y-80051945D01*
X45172559Y-80071242D01*
X45172562Y-80071247D01*
X45175654Y-80079674D01*
X45190896Y-80100311D01*
X45200836Y-80116095D01*
X45212857Y-80138750D01*
X45223721Y-80149902D01*
X45233462Y-80159902D01*
X45244558Y-80172963D01*
X45262107Y-80196722D01*
X45282524Y-80212247D01*
X45296505Y-80224617D01*
X45314395Y-80242982D01*
X45340116Y-80257505D01*
X45354418Y-80266917D01*
X45377937Y-80284801D01*
X45386314Y-80288009D01*
X45386317Y-80288010D01*
X45401884Y-80293970D01*
X45418772Y-80301916D01*
X45441106Y-80314526D01*
X45449849Y-80316569D01*
X45449850Y-80316569D01*
X45469861Y-80321244D01*
X45486249Y-80326270D01*
X45505447Y-80333620D01*
X45505449Y-80333620D01*
X45513832Y-80336830D01*
X45522776Y-80337558D01*
X45522778Y-80337558D01*
X45539390Y-80338909D01*
X45557839Y-80341798D01*
X45582806Y-80347631D01*
X45591764Y-80347138D01*
X45612297Y-80346008D01*
X45629436Y-80346233D01*
X45649919Y-80347899D01*
X45658868Y-80348627D01*
X45692562Y-80341680D01*
X45693336Y-80341549D01*
X45694443Y-80341488D01*
X45724865Y-80335022D01*
X45725607Y-80334867D01*
X45797525Y-80320039D01*
X45797529Y-80320038D01*
X45801384Y-80319243D01*
X45802618Y-80318588D01*
X45803906Y-80318221D01*
X51386219Y-79131663D01*
X59419043Y-77424233D01*
X59419266Y-77424186D01*
X59495450Y-77408479D01*
X59521549Y-77394631D01*
X59537190Y-77387651D01*
X59564916Y-77377478D01*
X59572136Y-77372145D01*
X59572140Y-77372143D01*
X59585538Y-77362247D01*
X59601343Y-77352293D01*
X59616065Y-77344482D01*
X59616066Y-77344482D01*
X59623992Y-77340276D01*
X59645148Y-77319667D01*
X59658209Y-77308571D01*
X59674742Y-77296359D01*
X59681964Y-77291025D01*
X59697482Y-77270618D01*
X59709854Y-77256635D01*
X59721789Y-77245008D01*
X59721793Y-77245003D01*
X59728224Y-77238738D01*
X59742747Y-77213016D01*
X59752162Y-77198709D01*
X59770043Y-77175195D01*
X59773253Y-77166810D01*
X59773256Y-77166805D01*
X59779211Y-77151250D01*
X59787162Y-77134353D01*
X59795352Y-77119848D01*
X59795353Y-77119845D01*
X59799768Y-77112026D01*
X59806486Y-77083271D01*
X59811512Y-77066883D01*
X59818862Y-77047685D01*
X59818862Y-77047683D01*
X59822072Y-77039300D01*
X59824151Y-77013742D01*
X59827040Y-76995294D01*
X59830831Y-76979065D01*
X59832873Y-76970326D01*
X59831250Y-76940835D01*
X59831475Y-76923696D01*
X59833141Y-76903213D01*
X59833869Y-76894264D01*
X59826922Y-76860570D01*
X59826791Y-76859796D01*
X59826730Y-76858689D01*
X59820264Y-76828267D01*
X59820109Y-76827525D01*
X59805281Y-76755607D01*
X59805280Y-76755603D01*
X59804485Y-76751748D01*
X59803830Y-76750514D01*
X59803463Y-76749226D01*
X58587007Y-71026254D01*
X57356443Y-65236909D01*
X62648886Y-65236909D01*
X62650236Y-65245782D01*
X62650236Y-65245785D01*
X62654060Y-65270918D01*
X62654151Y-65271708D01*
X62654154Y-65272809D01*
X62654619Y-65275743D01*
X62654621Y-65275763D01*
X62658993Y-65303364D01*
X62659102Y-65304065D01*
X62670771Y-65380768D01*
X62671362Y-65382038D01*
X62671661Y-65383345D01*
X64849086Y-79131055D01*
X64849158Y-79131520D01*
X64860854Y-79208405D01*
X64873314Y-79235186D01*
X64879469Y-79251179D01*
X64885529Y-79270819D01*
X64885531Y-79270824D01*
X64888177Y-79279397D01*
X64893124Y-79286885D01*
X64902309Y-79300789D01*
X64911417Y-79317086D01*
X64918449Y-79332201D01*
X64918453Y-79332208D01*
X64922237Y-79340340D01*
X64928154Y-79347087D01*
X64941708Y-79362542D01*
X64952108Y-79376170D01*
X64963438Y-79393321D01*
X64963440Y-79393324D01*
X64968386Y-79400810D01*
X64987958Y-79417379D01*
X65001267Y-79430457D01*
X65018181Y-79449744D01*
X65043110Y-79465595D01*
X65056910Y-79475751D01*
X65057413Y-79476177D01*
X65079447Y-79494830D01*
X65102879Y-79505238D01*
X65119334Y-79514061D01*
X65133399Y-79523004D01*
X65140975Y-79527821D01*
X65149596Y-79530318D01*
X65149597Y-79530318D01*
X65169346Y-79536037D01*
X65185443Y-79541912D01*
X65204230Y-79550257D01*
X65204233Y-79550258D01*
X65212433Y-79553900D01*
X65221329Y-79555095D01*
X65221333Y-79555096D01*
X65237842Y-79557314D01*
X65256113Y-79561164D01*
X65272123Y-79565800D01*
X65272125Y-79565800D01*
X65280747Y-79568297D01*
X65289719Y-79568273D01*
X65289723Y-79568274D01*
X65310290Y-79568220D01*
X65327390Y-79569341D01*
X65347759Y-79572077D01*
X65347763Y-79572077D01*
X65356653Y-79573271D01*
X65375634Y-79570383D01*
X65390665Y-79568097D01*
X65391445Y-79568007D01*
X65392553Y-79568004D01*
X65423343Y-79563127D01*
X65423847Y-79563049D01*
X65496615Y-79551980D01*
X65496618Y-79551979D01*
X65500512Y-79551387D01*
X65501780Y-79550797D01*
X65503090Y-79550497D01*
X76824950Y-77757290D01*
X132818816Y-77757290D01*
X132834455Y-78071421D01*
X132835096Y-78075152D01*
X132835097Y-78075160D01*
X132887074Y-78377653D01*
X132887076Y-78377661D01*
X132887718Y-78381398D01*
X132977836Y-78682731D01*
X133103502Y-78971055D01*
X133262896Y-79242193D01*
X133265197Y-79245208D01*
X133451410Y-79489206D01*
X133451415Y-79489211D01*
X133453710Y-79492219D01*
X133491038Y-79530537D01*
X133625323Y-79668384D01*
X133673179Y-79717510D01*
X133740583Y-79771801D01*
X133915171Y-79912425D01*
X133915176Y-79912429D01*
X133918124Y-79914803D01*
X133921344Y-79916811D01*
X134181770Y-80079229D01*
X134181777Y-80079233D01*
X134184997Y-80081241D01*
X134469933Y-80214411D01*
X134473543Y-80215594D01*
X134473547Y-80215596D01*
X134761872Y-80310114D01*
X134768803Y-80312386D01*
X135077280Y-80373746D01*
X135081052Y-80374033D01*
X135081060Y-80374034D01*
X135387117Y-80397315D01*
X135387122Y-80397315D01*
X135390894Y-80397602D01*
X135705102Y-80383608D01*
X135708840Y-80382986D01*
X135708848Y-80382985D01*
X135881051Y-80354322D01*
X136015353Y-80331968D01*
X136317154Y-80243430D01*
X136606132Y-80119275D01*
X136609409Y-80117371D01*
X136609416Y-80117368D01*
X136792206Y-80011194D01*
X136878101Y-79961302D01*
X137031518Y-79845485D01*
X137126097Y-79774086D01*
X137126103Y-79774081D01*
X137129123Y-79771801D01*
X137279046Y-79627274D01*
X137352833Y-79556143D01*
X137352834Y-79556142D01*
X137355560Y-79553514D01*
X137554133Y-79309606D01*
X137721965Y-79043607D01*
X137856626Y-78759373D01*
X137956164Y-78461020D01*
X138019138Y-78152869D01*
X138044636Y-77839384D01*
X138045209Y-77784656D01*
X138026282Y-77470706D01*
X138009820Y-77380569D01*
X137970455Y-77165026D01*
X137970454Y-77165022D01*
X137969775Y-77161304D01*
X137961407Y-77134353D01*
X137919947Y-77000831D01*
X137876507Y-76860932D01*
X137747828Y-76573939D01*
X137585604Y-76304485D01*
X137583277Y-76301501D01*
X137583272Y-76301494D01*
X137394513Y-76059459D01*
X137394507Y-76059452D01*
X137392182Y-76056471D01*
X137170366Y-75833490D01*
X136923369Y-75638773D01*
X136654767Y-75475140D01*
X136540395Y-75423138D01*
X136371904Y-75346529D01*
X136371896Y-75346526D01*
X136368452Y-75344960D01*
X136068572Y-75250120D01*
X135931304Y-75224307D01*
X135763194Y-75192694D01*
X135763189Y-75192693D01*
X135759470Y-75191994D01*
X135445624Y-75171424D01*
X135441844Y-75171632D01*
X135441843Y-75171632D01*
X135350272Y-75176672D01*
X135131579Y-75188707D01*
X135127852Y-75189368D01*
X135127848Y-75189368D01*
X135018189Y-75208803D01*
X134821886Y-75243593D01*
X134818270Y-75244695D01*
X134818262Y-75244697D01*
X134524653Y-75334182D01*
X134524646Y-75334185D01*
X134521029Y-75335287D01*
X134233367Y-75462461D01*
X134230113Y-75464397D01*
X134230107Y-75464400D01*
X133966325Y-75621334D01*
X133963066Y-75623273D01*
X133714043Y-75815393D01*
X133489904Y-76036038D01*
X133473622Y-76056471D01*
X133296262Y-76279044D01*
X133296256Y-76279053D01*
X133293897Y-76282013D01*
X133128859Y-76549754D01*
X132997182Y-76835383D01*
X132934396Y-77030354D01*
X132905760Y-77119281D01*
X132900774Y-77134763D01*
X132900055Y-77138479D01*
X132900053Y-77138487D01*
X132841749Y-77439837D01*
X132841748Y-77439846D01*
X132841030Y-77443556D01*
X132840763Y-77447332D01*
X132840762Y-77447337D01*
X132838840Y-77474484D01*
X132818816Y-77757290D01*
X76824950Y-77757290D01*
X79250730Y-77373084D01*
X79251491Y-77372966D01*
X79306849Y-77364544D01*
X79328149Y-77361304D01*
X79354930Y-77348844D01*
X79370923Y-77342689D01*
X79390563Y-77336629D01*
X79390568Y-77336627D01*
X79399141Y-77333981D01*
X79420534Y-77319849D01*
X79436830Y-77310741D01*
X79451945Y-77303709D01*
X79451952Y-77303705D01*
X79460084Y-77299921D01*
X79482289Y-77280448D01*
X79495914Y-77270050D01*
X79513065Y-77258720D01*
X79513068Y-77258718D01*
X79520554Y-77253772D01*
X79537123Y-77234200D01*
X79550201Y-77220891D01*
X79569488Y-77203977D01*
X79585339Y-77179048D01*
X79595495Y-77165248D01*
X79608774Y-77149562D01*
X79614574Y-77142711D01*
X79624982Y-77119279D01*
X79633805Y-77102824D01*
X79642748Y-77088759D01*
X79642748Y-77088758D01*
X79647565Y-77081183D01*
X79655782Y-77052810D01*
X79661656Y-77036715D01*
X79670001Y-77017926D01*
X79673644Y-77009725D01*
X79675583Y-76995294D01*
X79677057Y-76984314D01*
X79680907Y-76966046D01*
X79688041Y-76941410D01*
X79688017Y-76932440D01*
X79688018Y-76932436D01*
X79687964Y-76911868D01*
X79689085Y-76894768D01*
X79691821Y-76874399D01*
X79691821Y-76874395D01*
X79693015Y-76865505D01*
X79688981Y-76838990D01*
X79687841Y-76831493D01*
X79687751Y-76830713D01*
X79687748Y-76829605D01*
X79682871Y-76798815D01*
X79682793Y-76798311D01*
X79671724Y-76725543D01*
X79671723Y-76725540D01*
X79671131Y-76721646D01*
X79670541Y-76720378D01*
X79670241Y-76719068D01*
X77492820Y-62971379D01*
X77492702Y-62970618D01*
X77488455Y-62942699D01*
X77481048Y-62894009D01*
X77477263Y-62885873D01*
X77468588Y-62867227D01*
X77462433Y-62851233D01*
X77456374Y-62831601D01*
X77456374Y-62831600D01*
X77453725Y-62823017D01*
X77445382Y-62810387D01*
X77439593Y-62801625D01*
X77430485Y-62785328D01*
X77423453Y-62770213D01*
X77423449Y-62770206D01*
X77419665Y-62762074D01*
X77400192Y-62739869D01*
X77389794Y-62726244D01*
X77378464Y-62709093D01*
X77378462Y-62709090D01*
X77373516Y-62701604D01*
X77353944Y-62685035D01*
X77340625Y-62671946D01*
X77323721Y-62652670D01*
X77316145Y-62647853D01*
X77316144Y-62647852D01*
X77298801Y-62636825D01*
X77284995Y-62626665D01*
X77269307Y-62613384D01*
X77262455Y-62607583D01*
X77239023Y-62597175D01*
X77222564Y-62588351D01*
X77208500Y-62579408D01*
X77208498Y-62579407D01*
X77200927Y-62574593D01*
X77192306Y-62572097D01*
X77192305Y-62572096D01*
X77172556Y-62566377D01*
X77156462Y-62560503D01*
X77129469Y-62548514D01*
X77104048Y-62545099D01*
X77085787Y-62541250D01*
X77069780Y-62536614D01*
X77069775Y-62536613D01*
X77061154Y-62534117D01*
X77052181Y-62534141D01*
X77052177Y-62534140D01*
X77031613Y-62534194D01*
X77014513Y-62533073D01*
X76985249Y-62529142D01*
X76976376Y-62530492D01*
X76976373Y-62530492D01*
X76951240Y-62534316D01*
X76950450Y-62534407D01*
X76949349Y-62534410D01*
X76946415Y-62534875D01*
X76946395Y-62534877D01*
X76918794Y-62539249D01*
X76918093Y-62539358D01*
X76841390Y-62551027D01*
X76840120Y-62551618D01*
X76838813Y-62551917D01*
X73404831Y-63095807D01*
X63091208Y-64729325D01*
X63090447Y-64729443D01*
X63073574Y-64732010D01*
X63013753Y-64741110D01*
X63005619Y-64744894D01*
X63005617Y-64744895D01*
X62986971Y-64753570D01*
X62970977Y-64759725D01*
X62951345Y-64765784D01*
X62942761Y-64768433D01*
X62935271Y-64773381D01*
X62935269Y-64773382D01*
X62921369Y-64782565D01*
X62905072Y-64791673D01*
X62889957Y-64798705D01*
X62889950Y-64798709D01*
X62881818Y-64802493D01*
X62875071Y-64808410D01*
X62859616Y-64821964D01*
X62845988Y-64832364D01*
X62828837Y-64843694D01*
X62828834Y-64843696D01*
X62821348Y-64848642D01*
X62815551Y-64855490D01*
X62804782Y-64868211D01*
X62791693Y-64881530D01*
X62772414Y-64898437D01*
X62767597Y-64906013D01*
X62767596Y-64906014D01*
X62756569Y-64923357D01*
X62746409Y-64937163D01*
X62727327Y-64959703D01*
X62723683Y-64967906D01*
X62723683Y-64967907D01*
X62716920Y-64983134D01*
X62708095Y-64999594D01*
X62694337Y-65021231D01*
X62691840Y-65029854D01*
X62691839Y-65029856D01*
X62686122Y-65049600D01*
X62680246Y-65065699D01*
X62668258Y-65092689D01*
X62667064Y-65101582D01*
X62667063Y-65101584D01*
X62664845Y-65118099D01*
X62660993Y-65136374D01*
X62653861Y-65161003D01*
X62653885Y-65169972D01*
X62653884Y-65169976D01*
X62653938Y-65190546D01*
X62652817Y-65207642D01*
X62648886Y-65236909D01*
X57356443Y-65236909D01*
X56909452Y-63133981D01*
X56893721Y-63057682D01*
X56879873Y-63031583D01*
X56872893Y-63015942D01*
X56862720Y-62988216D01*
X56857387Y-62980996D01*
X56857385Y-62980992D01*
X56847489Y-62967594D01*
X56837535Y-62951789D01*
X56829724Y-62937067D01*
X56829724Y-62937066D01*
X56825518Y-62929140D01*
X56804909Y-62907984D01*
X56793813Y-62894923D01*
X56781601Y-62878390D01*
X56776267Y-62871168D01*
X56755860Y-62855650D01*
X56741877Y-62843278D01*
X56730250Y-62831343D01*
X56730245Y-62831339D01*
X56723980Y-62824908D01*
X56698258Y-62810385D01*
X56683951Y-62800970D01*
X56660437Y-62783089D01*
X56652052Y-62779879D01*
X56652047Y-62779876D01*
X56636492Y-62773921D01*
X56619595Y-62765970D01*
X56605090Y-62757780D01*
X56605087Y-62757779D01*
X56597268Y-62753364D01*
X56568513Y-62746646D01*
X56552125Y-62741620D01*
X56532927Y-62734270D01*
X56532925Y-62734270D01*
X56524542Y-62731060D01*
X56515598Y-62730332D01*
X56515596Y-62730332D01*
X56498984Y-62728981D01*
X56480536Y-62726092D01*
X56478011Y-62725502D01*
X56455568Y-62720259D01*
X56446610Y-62720752D01*
X56426077Y-62721882D01*
X56408938Y-62721657D01*
X56388455Y-62719991D01*
X56379506Y-62719263D01*
X56345812Y-62726210D01*
X56345038Y-62726341D01*
X56343931Y-62726402D01*
X56341010Y-62727023D01*
X56341009Y-62727023D01*
X56313519Y-62732866D01*
X56312767Y-62733023D01*
X56240849Y-62747851D01*
X56240845Y-62747852D01*
X56236990Y-62748647D01*
X56235756Y-62749302D01*
X56234468Y-62749669D01*
X52577378Y-63527008D01*
X42619331Y-65643657D01*
X42619108Y-65643704D01*
X42542924Y-65659411D01*
X42534997Y-65663617D01*
X42516836Y-65673253D01*
X42501187Y-65680236D01*
X42481890Y-65687317D01*
X42481885Y-65687320D01*
X42473458Y-65690412D01*
X42452821Y-65705654D01*
X42437037Y-65715594D01*
X42414382Y-65727615D01*
X42407955Y-65733876D01*
X42393230Y-65748220D01*
X42380169Y-65759316D01*
X42356410Y-65776865D01*
X42340885Y-65797282D01*
X42328515Y-65811263D01*
X42310150Y-65829153D01*
X42295627Y-65854874D01*
X42286215Y-65869176D01*
X42268331Y-65892695D01*
X42265123Y-65901072D01*
X42265122Y-65901075D01*
X42259162Y-65916642D01*
X42251216Y-65933530D01*
X42238606Y-65955864D01*
X42236563Y-65964607D01*
X42236563Y-65964608D01*
X42231888Y-65984619D01*
X42226862Y-66001007D01*
X42216302Y-66028590D01*
X42215574Y-66037534D01*
X42215574Y-66037536D01*
X42214223Y-66054148D01*
X42211334Y-66072596D01*
X42205501Y-66097564D01*
X42205994Y-66106522D01*
X42207124Y-66127055D01*
X42206899Y-66144194D01*
X42204505Y-66173626D01*
X41816027Y-66173626D01*
X41723760Y-65876479D01*
X41595081Y-65589486D01*
X41432857Y-65320032D01*
X41430530Y-65317048D01*
X41430525Y-65317041D01*
X41241766Y-65075006D01*
X41241760Y-65074999D01*
X41239435Y-65072018D01*
X41049945Y-64881533D01*
X41020289Y-64851721D01*
X41017619Y-64849037D01*
X40770622Y-64654320D01*
X40502020Y-64490687D01*
X40387648Y-64438685D01*
X40219157Y-64362076D01*
X40219149Y-64362073D01*
X40215705Y-64360507D01*
X39915825Y-64265667D01*
X39778557Y-64239854D01*
X39610447Y-64208241D01*
X39610442Y-64208240D01*
X39606723Y-64207541D01*
X39292877Y-64186971D01*
X39289097Y-64187179D01*
X39289096Y-64187179D01*
X39197525Y-64192219D01*
X38978832Y-64204254D01*
X38975105Y-64204915D01*
X38975101Y-64204915D01*
X38865442Y-64224350D01*
X38669139Y-64259140D01*
X38665523Y-64260242D01*
X38665515Y-64260244D01*
X38371906Y-64349729D01*
X38371899Y-64349732D01*
X38368282Y-64350834D01*
X38080620Y-64478008D01*
X38077366Y-64479944D01*
X38077360Y-64479947D01*
X37813578Y-64636881D01*
X37810319Y-64638820D01*
X37561296Y-64830940D01*
X37558597Y-64833596D01*
X37558598Y-64833596D01*
X37375686Y-65013657D01*
X37337157Y-65051585D01*
X37304403Y-65092689D01*
X37143515Y-65294591D01*
X37143509Y-65294600D01*
X37141150Y-65297560D01*
X36976112Y-65565301D01*
X36844435Y-65850930D01*
X36789924Y-66020205D01*
X36749997Y-66144194D01*
X36748027Y-66150310D01*
X36747308Y-66154026D01*
X36747306Y-66154034D01*
X36689002Y-66455384D01*
X36689001Y-66455393D01*
X36688283Y-66459103D01*
X36688016Y-66462879D01*
X36688015Y-66462884D01*
X36686093Y-66490031D01*
X36666069Y-66772837D01*
X22699961Y-66772837D01*
X34813554Y-63527008D01*
X34814297Y-63526812D01*
X34859324Y-63515041D01*
X34889310Y-63507202D01*
X34897010Y-63502585D01*
X34897016Y-63502582D01*
X34914648Y-63492009D01*
X34929911Y-63484215D01*
X34948802Y-63476138D01*
X34957058Y-63472608D01*
X34976858Y-63456315D01*
X34992120Y-63445549D01*
X35006407Y-63436982D01*
X35006408Y-63436981D01*
X35014106Y-63432365D01*
X35034155Y-63410676D01*
X35046619Y-63398910D01*
X35062489Y-63385851D01*
X35069421Y-63380147D01*
X35083852Y-63358953D01*
X35095467Y-63344351D01*
X35112882Y-63325511D01*
X35126039Y-63299065D01*
X35134697Y-63284277D01*
X35146264Y-63267289D01*
X35146265Y-63267288D01*
X35151318Y-63259866D01*
X35159221Y-63235470D01*
X35166273Y-63218189D01*
X35173697Y-63203266D01*
X35177696Y-63195228D01*
X35182900Y-63166161D01*
X35187061Y-63149532D01*
X35193397Y-63129974D01*
X35193397Y-63129972D01*
X35196163Y-63121435D01*
X35196901Y-63095802D01*
X35198820Y-63077236D01*
X35203340Y-63051990D01*
X35200176Y-63022623D01*
X35199503Y-63005500D01*
X35200354Y-62975980D01*
X35198083Y-62967295D01*
X35198083Y-62967291D01*
X35191654Y-62942699D01*
X35191479Y-62941918D01*
X35191362Y-62940828D01*
X35190354Y-62937067D01*
X35183342Y-62910893D01*
X35183146Y-62910152D01*
X35166645Y-62847032D01*
X35163551Y-62835197D01*
X35162830Y-62833996D01*
X35162396Y-62832728D01*
X35159794Y-62823017D01*
X31559871Y-49387923D01*
X31559789Y-49387611D01*
X31540084Y-49312236D01*
X31535466Y-49304535D01*
X31524894Y-49286905D01*
X31517098Y-49271638D01*
X31509019Y-49252742D01*
X31505490Y-49244488D01*
X31489197Y-49224688D01*
X31478431Y-49209426D01*
X31469864Y-49195139D01*
X31469863Y-49195138D01*
X31465247Y-49187440D01*
X31443558Y-49167391D01*
X31431792Y-49154927D01*
X31418731Y-49139055D01*
X31413029Y-49132125D01*
X31391839Y-49117697D01*
X31377226Y-49106073D01*
X31371041Y-49100356D01*
X31358393Y-49088664D01*
X31331944Y-49075506D01*
X31317169Y-49066855D01*
X31292749Y-49050228D01*
X31268351Y-49042324D01*
X31251074Y-49035274D01*
X31228110Y-49023850D01*
X31219273Y-49022268D01*
X31219270Y-49022267D01*
X31199041Y-49018646D01*
X31182413Y-49014485D01*
X31168242Y-49009894D01*
X31154317Y-49005383D01*
X31128684Y-49004644D01*
X31110120Y-49002726D01*
X31084872Y-48998206D01*
X31055499Y-49001371D01*
X31038383Y-49002044D01*
X31008862Y-49001193D01*
X30986547Y-49007026D01*
X30975576Y-49009894D01*
X30974811Y-49010065D01*
X30973710Y-49010184D01*
X30943854Y-49018184D01*
X30943176Y-49018364D01*
X30871890Y-49036998D01*
X30871880Y-49037001D01*
X30868079Y-49037995D01*
X30866879Y-49038715D01*
X30865614Y-49039149D01*
X19673468Y-52038076D01*
X17420946Y-52641637D01*
X17420202Y-52641834D01*
X17345118Y-52661462D01*
X17337425Y-52666075D01*
X17337416Y-52666079D01*
X17319780Y-52676655D01*
X17304518Y-52684448D01*
X17277370Y-52696056D01*
X17257561Y-52712356D01*
X17242313Y-52723112D01*
X17220322Y-52736300D01*
X17214234Y-52742886D01*
X17214229Y-52742890D01*
X17200276Y-52757985D01*
X17187811Y-52769752D01*
X17165007Y-52788517D01*
X17150575Y-52809713D01*
X17138952Y-52824324D01*
X17121546Y-52843154D01*
X17117551Y-52851184D01*
X17117549Y-52851187D01*
X17108391Y-52869596D01*
X17099729Y-52884389D01*
X17083110Y-52908797D01*
X17080342Y-52917342D01*
X17075210Y-52933184D01*
X17068154Y-52950477D01*
X17056732Y-52973436D01*
X17055151Y-52982267D01*
X17055150Y-52982270D01*
X17051528Y-53002505D01*
X17047367Y-53019132D01*
X17038265Y-53047229D01*
X17038007Y-53056198D01*
X17037527Y-53072857D01*
X17035608Y-53091426D01*
X17031088Y-53116674D01*
X15351433Y-53116674D01*
X14995981Y-51793467D01*
X14997626Y-51722490D01*
X15037382Y-51663669D01*
X15084464Y-51639232D01*
X23325816Y-49388032D01*
X30091536Y-47539914D01*
X38243791Y-47539914D01*
X38250738Y-47573608D01*
X38250869Y-47574382D01*
X38250930Y-47575489D01*
X38251551Y-47578410D01*
X38251551Y-47578411D01*
X38257394Y-47605901D01*
X38257548Y-47606637D01*
X38273175Y-47682430D01*
X38273830Y-47683664D01*
X38274197Y-47684952D01*
X39065793Y-51409114D01*
X41168208Y-61300197D01*
X41183939Y-61376496D01*
X41188145Y-61384423D01*
X41197781Y-61402584D01*
X41204764Y-61418233D01*
X41211845Y-61437530D01*
X41211848Y-61437535D01*
X41214940Y-61445962D01*
X41230182Y-61466599D01*
X41240122Y-61482383D01*
X41252143Y-61505038D01*
X41258404Y-61511465D01*
X41272748Y-61526190D01*
X41283844Y-61539251D01*
X41301393Y-61563010D01*
X41321810Y-61578535D01*
X41335791Y-61590905D01*
X41353681Y-61609270D01*
X41379402Y-61623793D01*
X41393704Y-61633205D01*
X41417223Y-61651089D01*
X41425600Y-61654297D01*
X41425603Y-61654298D01*
X41441170Y-61660258D01*
X41458058Y-61668204D01*
X41480392Y-61680814D01*
X41489135Y-61682857D01*
X41489136Y-61682857D01*
X41509147Y-61687532D01*
X41525535Y-61692558D01*
X41544733Y-61699908D01*
X41544735Y-61699908D01*
X41553118Y-61703118D01*
X41562062Y-61703846D01*
X41562064Y-61703846D01*
X41578676Y-61705197D01*
X41597125Y-61708086D01*
X41622092Y-61713919D01*
X41631050Y-61713426D01*
X41651583Y-61712296D01*
X41668722Y-61712521D01*
X41689205Y-61714187D01*
X41698154Y-61714915D01*
X41731848Y-61707968D01*
X41732622Y-61707837D01*
X41733729Y-61707776D01*
X41764151Y-61701310D01*
X41764893Y-61701155D01*
X41836811Y-61686327D01*
X41836815Y-61686326D01*
X41840670Y-61685531D01*
X41841904Y-61684876D01*
X41843192Y-61684509D01*
X47484896Y-60485327D01*
X55458329Y-58790521D01*
X55458552Y-58790474D01*
X55534736Y-58774767D01*
X55560835Y-58760919D01*
X55576476Y-58753939D01*
X55604202Y-58743766D01*
X55611422Y-58738433D01*
X55611426Y-58738431D01*
X55624824Y-58728535D01*
X55640629Y-58718581D01*
X55655351Y-58710770D01*
X55655352Y-58710770D01*
X55663278Y-58706564D01*
X55684434Y-58685955D01*
X55697495Y-58674859D01*
X55714028Y-58662647D01*
X55721250Y-58657313D01*
X55736768Y-58636906D01*
X55749140Y-58622923D01*
X55761075Y-58611296D01*
X55761079Y-58611291D01*
X55767510Y-58605026D01*
X55782033Y-58579304D01*
X55791448Y-58564997D01*
X55809329Y-58541483D01*
X55812539Y-58533098D01*
X55812542Y-58533093D01*
X55818497Y-58517538D01*
X55826448Y-58500641D01*
X55834638Y-58486136D01*
X55834639Y-58486133D01*
X55839054Y-58478314D01*
X55845772Y-58449559D01*
X55850798Y-58433171D01*
X55858148Y-58413973D01*
X55858148Y-58413971D01*
X55861358Y-58405588D01*
X55862266Y-58394432D01*
X55863437Y-58380030D01*
X55866326Y-58361582D01*
X55867550Y-58356343D01*
X55872159Y-58336614D01*
X55870536Y-58307123D01*
X55870761Y-58289984D01*
X55872427Y-58269501D01*
X55873155Y-58260552D01*
X55866208Y-58226858D01*
X55866077Y-58226084D01*
X55866016Y-58224977D01*
X55865225Y-58221253D01*
X55859552Y-58194565D01*
X55859395Y-58193813D01*
X55844567Y-58121895D01*
X55844566Y-58121891D01*
X55843771Y-58118036D01*
X55843116Y-58116802D01*
X55842749Y-58115514D01*
X54483869Y-51722490D01*
X53357097Y-46421447D01*
X59668809Y-46421447D01*
X59670159Y-46430320D01*
X59670159Y-46430323D01*
X59673983Y-46455456D01*
X59674074Y-46456246D01*
X59674077Y-46457347D01*
X59674542Y-46460281D01*
X59674544Y-46460301D01*
X59678916Y-46487902D01*
X59679025Y-46488603D01*
X59690694Y-46565306D01*
X59691285Y-46566576D01*
X59691584Y-46567883D01*
X61869009Y-60315593D01*
X61869081Y-60316058D01*
X61880777Y-60392943D01*
X61893237Y-60419724D01*
X61899392Y-60435717D01*
X61905452Y-60455357D01*
X61905454Y-60455362D01*
X61908100Y-60463935D01*
X61913047Y-60471423D01*
X61922232Y-60485327D01*
X61931340Y-60501624D01*
X61938372Y-60516739D01*
X61938376Y-60516746D01*
X61942160Y-60524878D01*
X61948077Y-60531625D01*
X61961631Y-60547080D01*
X61972031Y-60560708D01*
X61983361Y-60577859D01*
X61983363Y-60577862D01*
X61988309Y-60585348D01*
X62007881Y-60601917D01*
X62021190Y-60614995D01*
X62038104Y-60634282D01*
X62063033Y-60650133D01*
X62076834Y-60660289D01*
X62099370Y-60679368D01*
X62122802Y-60689776D01*
X62139257Y-60698599D01*
X62160898Y-60712359D01*
X62169519Y-60714856D01*
X62169520Y-60714856D01*
X62189269Y-60720575D01*
X62205366Y-60726450D01*
X62224153Y-60734795D01*
X62224156Y-60734796D01*
X62232356Y-60738438D01*
X62241252Y-60739633D01*
X62241256Y-60739634D01*
X62257765Y-60741852D01*
X62276036Y-60745702D01*
X62292046Y-60750338D01*
X62292048Y-60750338D01*
X62300670Y-60752835D01*
X62309642Y-60752811D01*
X62309646Y-60752812D01*
X62330213Y-60752758D01*
X62347313Y-60753879D01*
X62367682Y-60756615D01*
X62367686Y-60756615D01*
X62376576Y-60757809D01*
X62395557Y-60754921D01*
X62410588Y-60752635D01*
X62411368Y-60752545D01*
X62412476Y-60752542D01*
X62443266Y-60747665D01*
X62443770Y-60747587D01*
X62516538Y-60736518D01*
X62516541Y-60736517D01*
X62520435Y-60735925D01*
X62521703Y-60735335D01*
X62523013Y-60735035D01*
X68491697Y-59789688D01*
X82496215Y-59789688D01*
X82499602Y-59823925D01*
X82499652Y-59824713D01*
X82499597Y-59825814D01*
X82499906Y-59828759D01*
X82499907Y-59828767D01*
X82501449Y-59843434D01*
X82502372Y-59852214D01*
X82502825Y-59856527D01*
X82502896Y-59857227D01*
X82510541Y-59934495D01*
X82511065Y-59935794D01*
X82511295Y-59937115D01*
X83152476Y-66037536D01*
X83966225Y-73779848D01*
X83966303Y-73780613D01*
X83972585Y-73844103D01*
X83973940Y-73857802D01*
X83984860Y-73884896D01*
X83984978Y-73885188D01*
X83990289Y-73901488D01*
X83995314Y-73921420D01*
X83995316Y-73921425D01*
X83997510Y-73930128D01*
X84002057Y-73937863D01*
X84002059Y-73937867D01*
X84010504Y-73952231D01*
X84018752Y-73968992D01*
X84024979Y-73984445D01*
X84024982Y-73984449D01*
X84028334Y-73992768D01*
X84033889Y-73999815D01*
X84033891Y-73999818D01*
X84046618Y-74015963D01*
X84056287Y-74030111D01*
X84066704Y-74047831D01*
X84066707Y-74047835D01*
X84071255Y-74055571D01*
X84089931Y-74073140D01*
X84102547Y-74086909D01*
X84118420Y-74107044D01*
X84125734Y-74112251D01*
X84142477Y-74124172D01*
X84155729Y-74135038D01*
X84164192Y-74142999D01*
X84177243Y-74155276D01*
X84185242Y-74159343D01*
X84185245Y-74159345D01*
X84200104Y-74166899D01*
X84216074Y-74176570D01*
X84236960Y-74191440D01*
X84264853Y-74201126D01*
X84280625Y-74207838D01*
X84298946Y-74217153D01*
X84298952Y-74217155D01*
X84306955Y-74221224D01*
X84332166Y-74225965D01*
X84350193Y-74230762D01*
X84374422Y-74239176D01*
X84400439Y-74240471D01*
X84403917Y-74240644D01*
X84420940Y-74242659D01*
X84441139Y-74246458D01*
X84441144Y-74246458D01*
X84449964Y-74248117D01*
X84484205Y-74244730D01*
X84484989Y-74244680D01*
X84486090Y-74244735D01*
X84489035Y-74244426D01*
X84489043Y-74244425D01*
X84505844Y-74242659D01*
X84516899Y-74241497D01*
X84517503Y-74241436D01*
X84594771Y-74233791D01*
X84596070Y-74233267D01*
X84597391Y-74233037D01*
X91363099Y-73521932D01*
X98440124Y-72778107D01*
X98440889Y-72778029D01*
X98509144Y-72771276D01*
X98509145Y-72771276D01*
X98518078Y-72770392D01*
X98526404Y-72767036D01*
X98526406Y-72767036D01*
X98545475Y-72759351D01*
X98561769Y-72754041D01*
X98563034Y-72753722D01*
X98590404Y-72746822D01*
X98612510Y-72733826D01*
X98629263Y-72725583D01*
X98644722Y-72719353D01*
X98653044Y-72715999D01*
X98660089Y-72710445D01*
X98660096Y-72710441D01*
X98676241Y-72697713D01*
X98690390Y-72688042D01*
X98715847Y-72673077D01*
X98733413Y-72654404D01*
X98747178Y-72641790D01*
X98760274Y-72631466D01*
X98767320Y-72625912D01*
X98784448Y-72601855D01*
X98795314Y-72588603D01*
X98803275Y-72580140D01*
X98815552Y-72567089D01*
X98827176Y-72544227D01*
X98836844Y-72528261D01*
X98851716Y-72507373D01*
X98861403Y-72479477D01*
X98868115Y-72463705D01*
X98877429Y-72445386D01*
X98877431Y-72445380D01*
X98881500Y-72437377D01*
X98886241Y-72412166D01*
X98891038Y-72394139D01*
X98899452Y-72369910D01*
X98900920Y-72340415D01*
X98902935Y-72323392D01*
X98906734Y-72303193D01*
X98906734Y-72303188D01*
X98908393Y-72294368D01*
X98905006Y-72260127D01*
X98904956Y-72259343D01*
X98905011Y-72258242D01*
X98901773Y-72227433D01*
X98901705Y-72226764D01*
X98894455Y-72153484D01*
X98894067Y-72149561D01*
X98893543Y-72148262D01*
X98893312Y-72146938D01*
X98855140Y-71783750D01*
X98134083Y-64923357D01*
X97641622Y-60237900D01*
X102993967Y-60237900D01*
X102994382Y-60246867D01*
X102994382Y-60246869D01*
X102995558Y-60272273D01*
X102995566Y-60273060D01*
X102995454Y-60274154D01*
X102995610Y-60277130D01*
X102997068Y-60304950D01*
X102997099Y-60305584D01*
X103000695Y-60383258D01*
X103001150Y-60384583D01*
X103001311Y-60385916D01*
X103280398Y-65711210D01*
X103729774Y-74285831D01*
X103729812Y-74286599D01*
X103733398Y-74364071D01*
X103742994Y-74392018D01*
X103747438Y-74408548D01*
X103753151Y-74437531D01*
X103764977Y-74460297D01*
X103772325Y-74477441D01*
X103780654Y-74501700D01*
X103785833Y-74509028D01*
X103785834Y-74509030D01*
X103797701Y-74525821D01*
X103806616Y-74540455D01*
X103820229Y-74566662D01*
X103826438Y-74573148D01*
X103837957Y-74585181D01*
X103849834Y-74599588D01*
X103864636Y-74620533D01*
X103887767Y-74638899D01*
X103900425Y-74650436D01*
X103920854Y-74671777D01*
X103928630Y-74676258D01*
X103928632Y-74676259D01*
X103943071Y-74684579D01*
X103958514Y-74695074D01*
X103971564Y-74705435D01*
X103978596Y-74711018D01*
X104005954Y-74722155D01*
X104021350Y-74729681D01*
X104046937Y-74744424D01*
X104071858Y-74750476D01*
X104089620Y-74756213D01*
X104113372Y-74765882D01*
X104122299Y-74766797D01*
X104122300Y-74766797D01*
X104142758Y-74768893D01*
X104159649Y-74771796D01*
X104175540Y-74775655D01*
X104188342Y-74778764D01*
X104197311Y-74778349D01*
X104197312Y-74778349D01*
X104222701Y-74777174D01*
X104223496Y-74777166D01*
X104224596Y-74777278D01*
X104227571Y-74777122D01*
X104227579Y-74777122D01*
X104255564Y-74775655D01*
X104256332Y-74775617D01*
X104329769Y-74772218D01*
X104329770Y-74772218D01*
X104333700Y-74772036D01*
X104335020Y-74771583D01*
X104336356Y-74771421D01*
X118236430Y-74042950D01*
X118237198Y-74042912D01*
X118256534Y-74042017D01*
X118314513Y-74039333D01*
X118342444Y-74029743D01*
X118358994Y-74025293D01*
X118360358Y-74025024D01*
X118387973Y-74019581D01*
X118410729Y-74007761D01*
X118427887Y-74000407D01*
X118443652Y-73994994D01*
X118443657Y-73994991D01*
X118452142Y-73992078D01*
X118476259Y-73975034D01*
X118490893Y-73966119D01*
X118509139Y-73956641D01*
X118509141Y-73956639D01*
X118517104Y-73952503D01*
X118523587Y-73946297D01*
X118523591Y-73946294D01*
X118535629Y-73934770D01*
X118550036Y-73922893D01*
X118570975Y-73908095D01*
X118589345Y-73884959D01*
X118600880Y-73872306D01*
X118615735Y-73858086D01*
X118615738Y-73858082D01*
X118622219Y-73851878D01*
X118635021Y-73829658D01*
X118645519Y-73814212D01*
X118661460Y-73794136D01*
X118672596Y-73766780D01*
X118680118Y-73751391D01*
X118694866Y-73725795D01*
X118698123Y-73712386D01*
X118700917Y-73700880D01*
X118706657Y-73683108D01*
X118712941Y-73667672D01*
X118712942Y-73667666D01*
X118716324Y-73659359D01*
X118719335Y-73629974D01*
X118722238Y-73613085D01*
X118727087Y-73593118D01*
X118727087Y-73593115D01*
X118729206Y-73584390D01*
X118727616Y-73550031D01*
X118727608Y-73549236D01*
X118727720Y-73548136D01*
X118726097Y-73517163D01*
X118726059Y-73516400D01*
X118725001Y-73493536D01*
X123464222Y-73493536D01*
X123466688Y-73502165D01*
X123466689Y-73502170D01*
X123472337Y-73521932D01*
X123475915Y-73538693D01*
X123478828Y-73559036D01*
X123478831Y-73559046D01*
X123480103Y-73567929D01*
X123490719Y-73591279D01*
X123497162Y-73608791D01*
X123498821Y-73614594D01*
X123504210Y-73633449D01*
X123519972Y-73658432D01*
X123528102Y-73673498D01*
X123540331Y-73700394D01*
X123557072Y-73719823D01*
X123568177Y-73734831D01*
X123581858Y-73756515D01*
X123588586Y-73762457D01*
X123603994Y-73776065D01*
X123616038Y-73788257D01*
X123635317Y-73810631D01*
X123642845Y-73815510D01*
X123642848Y-73815513D01*
X123656837Y-73824580D01*
X123671711Y-73835870D01*
X123690926Y-73852840D01*
X123699052Y-73856655D01*
X123699053Y-73856656D01*
X123701494Y-73857802D01*
X123717664Y-73865394D01*
X123732633Y-73873708D01*
X123757425Y-73889777D01*
X123774348Y-73894838D01*
X123781988Y-73897123D01*
X123799434Y-73903785D01*
X123822646Y-73914683D01*
X123851828Y-73919227D01*
X123868547Y-73923010D01*
X123888234Y-73928898D01*
X123888237Y-73928899D01*
X123896839Y-73931471D01*
X123905814Y-73931526D01*
X123905815Y-73931526D01*
X123912508Y-73931567D01*
X123931254Y-73931681D01*
X123932026Y-73931714D01*
X123933121Y-73931884D01*
X123963996Y-73931884D01*
X123964766Y-73931886D01*
X124038414Y-73932336D01*
X124038415Y-73932336D01*
X124042350Y-73932360D01*
X124043694Y-73931976D01*
X124045039Y-73931884D01*
X137963996Y-73931884D01*
X137964767Y-73931886D01*
X138042350Y-73932360D01*
X138050979Y-73929894D01*
X138050984Y-73929893D01*
X138070746Y-73924245D01*
X138087507Y-73920667D01*
X138107850Y-73917754D01*
X138107860Y-73917751D01*
X138116743Y-73916479D01*
X138140093Y-73905863D01*
X138157605Y-73899420D01*
X138173635Y-73894838D01*
X138182263Y-73892372D01*
X138207246Y-73876610D01*
X138222312Y-73868480D01*
X138249208Y-73856251D01*
X138268637Y-73839510D01*
X138283645Y-73828405D01*
X138297737Y-73819514D01*
X138305329Y-73814724D01*
X138324880Y-73792587D01*
X138337072Y-73780543D01*
X138352647Y-73767123D01*
X138352648Y-73767121D01*
X138359445Y-73761265D01*
X138364324Y-73753737D01*
X138364327Y-73753734D01*
X138373394Y-73739745D01*
X138384684Y-73724871D01*
X138389151Y-73719813D01*
X138401654Y-73705656D01*
X138414208Y-73678918D01*
X138422522Y-73663949D01*
X138438591Y-73639157D01*
X138445937Y-73614593D01*
X138452599Y-73597148D01*
X138459681Y-73582063D01*
X138463497Y-73573936D01*
X138468041Y-73544754D01*
X138471824Y-73528035D01*
X138477712Y-73508348D01*
X138477713Y-73508345D01*
X138480285Y-73499743D01*
X138480495Y-73465328D01*
X138480528Y-73464556D01*
X138480698Y-73463461D01*
X138480698Y-73432586D01*
X138480700Y-73431816D01*
X138481150Y-73358168D01*
X138481150Y-73358167D01*
X138481174Y-73354232D01*
X138480790Y-73352888D01*
X138480698Y-73351543D01*
X138480698Y-59432586D01*
X138480700Y-59431816D01*
X138481036Y-59376799D01*
X138481174Y-59354232D01*
X138478708Y-59345603D01*
X138478707Y-59345598D01*
X138473059Y-59325836D01*
X138469481Y-59309075D01*
X138466568Y-59288732D01*
X138466565Y-59288722D01*
X138465293Y-59279839D01*
X138454677Y-59256489D01*
X138448234Y-59238977D01*
X138443652Y-59222947D01*
X138441186Y-59214319D01*
X138425424Y-59189336D01*
X138417294Y-59174270D01*
X138405065Y-59147374D01*
X138388324Y-59127945D01*
X138377219Y-59112937D01*
X138368328Y-59098845D01*
X138363538Y-59091253D01*
X138341401Y-59071702D01*
X138329357Y-59059510D01*
X138315937Y-59043935D01*
X138315935Y-59043934D01*
X138310079Y-59037137D01*
X138302551Y-59032258D01*
X138302548Y-59032255D01*
X138288559Y-59023188D01*
X138273685Y-59011898D01*
X138261200Y-59000872D01*
X138254470Y-58994928D01*
X138246344Y-58991113D01*
X138246343Y-58991112D01*
X138240677Y-58988452D01*
X138227732Y-58982374D01*
X138212763Y-58974060D01*
X138187971Y-58957991D01*
X138163407Y-58950645D01*
X138145962Y-58943983D01*
X138141525Y-58941900D01*
X138122750Y-58933085D01*
X138093568Y-58928541D01*
X138076849Y-58924758D01*
X138057162Y-58918870D01*
X138057159Y-58918869D01*
X138048557Y-58916297D01*
X138039582Y-58916242D01*
X138039581Y-58916242D01*
X138032888Y-58916201D01*
X138014142Y-58916087D01*
X138013370Y-58916054D01*
X138012275Y-58915884D01*
X137981400Y-58915884D01*
X137980630Y-58915882D01*
X137906982Y-58915432D01*
X137906981Y-58915432D01*
X137903046Y-58915408D01*
X137901702Y-58915792D01*
X137900357Y-58915884D01*
X123981400Y-58915884D01*
X123980630Y-58915882D01*
X123979776Y-58915877D01*
X123903046Y-58915408D01*
X123894417Y-58917874D01*
X123894412Y-58917875D01*
X123874650Y-58923523D01*
X123857889Y-58927101D01*
X123837546Y-58930014D01*
X123837536Y-58930017D01*
X123828653Y-58931289D01*
X123805303Y-58941905D01*
X123787791Y-58948348D01*
X123779755Y-58950645D01*
X123763133Y-58955396D01*
X123738150Y-58971158D01*
X123723084Y-58979288D01*
X123696188Y-58991517D01*
X123676759Y-59008258D01*
X123661751Y-59019363D01*
X123640067Y-59033044D01*
X123634125Y-59039772D01*
X123620517Y-59055180D01*
X123608324Y-59067225D01*
X123595975Y-59077866D01*
X123585951Y-59086503D01*
X123581072Y-59094031D01*
X123581069Y-59094034D01*
X123572002Y-59108023D01*
X123560712Y-59122897D01*
X123543742Y-59142112D01*
X123539927Y-59150238D01*
X123539926Y-59150239D01*
X123537435Y-59155545D01*
X123531188Y-59168850D01*
X123522874Y-59183819D01*
X123506805Y-59208611D01*
X123504233Y-59217211D01*
X123499459Y-59233174D01*
X123492797Y-59250620D01*
X123481899Y-59273832D01*
X123479466Y-59289459D01*
X123477356Y-59303012D01*
X123473572Y-59319733D01*
X123467684Y-59339420D01*
X123467683Y-59339423D01*
X123465111Y-59348025D01*
X123465056Y-59357000D01*
X123465056Y-59357001D01*
X123464901Y-59382430D01*
X123464868Y-59383212D01*
X123464698Y-59384307D01*
X123464698Y-59415182D01*
X123464696Y-59415952D01*
X123464222Y-59493536D01*
X123464606Y-59494880D01*
X123464698Y-59496225D01*
X123464698Y-73415182D01*
X123464696Y-73415952D01*
X123464222Y-73493536D01*
X118725001Y-73493536D01*
X118722660Y-73442963D01*
X118722660Y-73442962D01*
X118722478Y-73439032D01*
X118722025Y-73437712D01*
X118721863Y-73436376D01*
X117993391Y-59536287D01*
X117993353Y-59535519D01*
X117990190Y-59467187D01*
X117989775Y-59458219D01*
X117980185Y-59430288D01*
X117975735Y-59413738D01*
X117971758Y-59393563D01*
X117970023Y-59384759D01*
X117958203Y-59362003D01*
X117950849Y-59344845D01*
X117945436Y-59329080D01*
X117945433Y-59329075D01*
X117942520Y-59320590D01*
X117925476Y-59296473D01*
X117916561Y-59281839D01*
X117907083Y-59263593D01*
X117907081Y-59263591D01*
X117902945Y-59255628D01*
X117896739Y-59249145D01*
X117896736Y-59249141D01*
X117885212Y-59237103D01*
X117873335Y-59222696D01*
X117858537Y-59201757D01*
X117835401Y-59183387D01*
X117822748Y-59171852D01*
X117808528Y-59156997D01*
X117808524Y-59156994D01*
X117802320Y-59150513D01*
X117787740Y-59142112D01*
X117780101Y-59137711D01*
X117764654Y-59127213D01*
X117744578Y-59111272D01*
X117717222Y-59100136D01*
X117701833Y-59092614D01*
X117676237Y-59077866D01*
X117651325Y-59071816D01*
X117633553Y-59066076D01*
X117618115Y-59059792D01*
X117618112Y-59059791D01*
X117609801Y-59056408D01*
X117600878Y-59055494D01*
X117600875Y-59055493D01*
X117586666Y-59054038D01*
X117580427Y-59053398D01*
X117563532Y-59050495D01*
X117543557Y-59045644D01*
X117534832Y-59043525D01*
X117525865Y-59043940D01*
X117525863Y-59043940D01*
X117500459Y-59045116D01*
X117499672Y-59045124D01*
X117498578Y-59045012D01*
X117467617Y-59046634D01*
X117467148Y-59046657D01*
X117389474Y-59050253D01*
X117388149Y-59050708D01*
X117386816Y-59050869D01*
X105537305Y-59671875D01*
X103486899Y-59779332D01*
X103486131Y-59779370D01*
X103463340Y-59780425D01*
X103408661Y-59782956D01*
X103380714Y-59792552D01*
X103364184Y-59796996D01*
X103335201Y-59802709D01*
X103312435Y-59814535D01*
X103295291Y-59821883D01*
X103271032Y-59830212D01*
X103263704Y-59835391D01*
X103263702Y-59835392D01*
X103246911Y-59847259D01*
X103232277Y-59856174D01*
X103206070Y-59869787D01*
X103199584Y-59875996D01*
X103187551Y-59887515D01*
X103173144Y-59899392D01*
X103152199Y-59914194D01*
X103134805Y-59936102D01*
X103133837Y-59937321D01*
X103122296Y-59949983D01*
X103100955Y-59970412D01*
X103096474Y-59978188D01*
X103096473Y-59978190D01*
X103088153Y-59992629D01*
X103077658Y-60008072D01*
X103067297Y-60021122D01*
X103061714Y-60028154D01*
X103050577Y-60055512D01*
X103043051Y-60070908D01*
X103032788Y-60088718D01*
X103032786Y-60088724D01*
X103028308Y-60096495D01*
X103026191Y-60105211D01*
X103026190Y-60105214D01*
X103022256Y-60121415D01*
X103016516Y-60139185D01*
X103006850Y-60162930D01*
X103005936Y-60171856D01*
X103005935Y-60171858D01*
X103003841Y-60192302D01*
X103000937Y-60209199D01*
X102996086Y-60229173D01*
X102996086Y-60229176D01*
X102993967Y-60237900D01*
X97641622Y-60237900D01*
X97438383Y-58304208D01*
X97438305Y-58303443D01*
X97434061Y-58260552D01*
X97430668Y-58226254D01*
X97427316Y-58217935D01*
X97427314Y-58217929D01*
X97419627Y-58198856D01*
X97414317Y-58182562D01*
X97409293Y-58162634D01*
X97409292Y-58162632D01*
X97407098Y-58153929D01*
X97394106Y-58131828D01*
X97385863Y-58115078D01*
X97376275Y-58091288D01*
X97366830Y-58079306D01*
X97357986Y-58068088D01*
X97348317Y-58053939D01*
X97337903Y-58036224D01*
X97337902Y-58036222D01*
X97333353Y-58028485D01*
X97314678Y-58010917D01*
X97302064Y-57997152D01*
X97286188Y-57977012D01*
X97278873Y-57971804D01*
X97278871Y-57971802D01*
X97262123Y-57959878D01*
X97248876Y-57949017D01*
X97227365Y-57928781D01*
X97219358Y-57924710D01*
X97204506Y-57917158D01*
X97188535Y-57907486D01*
X97174957Y-57897819D01*
X97167649Y-57892616D01*
X97139750Y-57882927D01*
X97123980Y-57876217D01*
X97105654Y-57866900D01*
X97105655Y-57866900D01*
X97097653Y-57862832D01*
X97072442Y-57858091D01*
X97054415Y-57853294D01*
X97030186Y-57844880D01*
X97004169Y-57843585D01*
X97000691Y-57843412D01*
X96983668Y-57841397D01*
X96963469Y-57837598D01*
X96963464Y-57837598D01*
X96954644Y-57835939D01*
X96920403Y-57839326D01*
X96919619Y-57839376D01*
X96918518Y-57839321D01*
X96915573Y-57839630D01*
X96915565Y-57839631D01*
X96900898Y-57841173D01*
X96887709Y-57842559D01*
X96887105Y-57842620D01*
X96809837Y-57850265D01*
X96808538Y-57850789D01*
X96807217Y-57851019D01*
X91451072Y-58413973D01*
X82964484Y-59305949D01*
X82963719Y-59306027D01*
X82895464Y-59312780D01*
X82895463Y-59312780D01*
X82886530Y-59313664D01*
X82859130Y-59324707D01*
X82842839Y-59330015D01*
X82822910Y-59335039D01*
X82822908Y-59335040D01*
X82814205Y-59337234D01*
X82806467Y-59341783D01*
X82792094Y-59350232D01*
X82775340Y-59358476D01*
X82759888Y-59364703D01*
X82759886Y-59364704D01*
X82751564Y-59368058D01*
X82744516Y-59373614D01*
X82744511Y-59373617D01*
X82728369Y-59386342D01*
X82714221Y-59396011D01*
X82696500Y-59406429D01*
X82696498Y-59406431D01*
X82688761Y-59410979D01*
X82671195Y-59429652D01*
X82657430Y-59442266D01*
X82637288Y-59458144D01*
X82632084Y-59465454D01*
X82620159Y-59482203D01*
X82609290Y-59495458D01*
X82589057Y-59516967D01*
X82584990Y-59524967D01*
X82584989Y-59524968D01*
X82577435Y-59539826D01*
X82567761Y-59555800D01*
X82552892Y-59576684D01*
X82543206Y-59604577D01*
X82536496Y-59620344D01*
X82527179Y-59638669D01*
X82527176Y-59638678D01*
X82523108Y-59646679D01*
X82518367Y-59671890D01*
X82513570Y-59689917D01*
X82505156Y-59714146D01*
X82504710Y-59723114D01*
X82503688Y-59743641D01*
X82501673Y-59760664D01*
X82498159Y-59779353D01*
X82496215Y-59789688D01*
X68491697Y-59789688D01*
X76270653Y-58557622D01*
X76271414Y-58557504D01*
X76329758Y-58548628D01*
X76348072Y-58545842D01*
X76374853Y-58533382D01*
X76390846Y-58527227D01*
X76410486Y-58521167D01*
X76410491Y-58521165D01*
X76419064Y-58518519D01*
X76440457Y-58504387D01*
X76456753Y-58495279D01*
X76471868Y-58488247D01*
X76471875Y-58488243D01*
X76480007Y-58484459D01*
X76502212Y-58464986D01*
X76515837Y-58454588D01*
X76532988Y-58443258D01*
X76532991Y-58443256D01*
X76540477Y-58438310D01*
X76557046Y-58418738D01*
X76570124Y-58405429D01*
X76589411Y-58388515D01*
X76605262Y-58363586D01*
X76615418Y-58349786D01*
X76628697Y-58334100D01*
X76634497Y-58327249D01*
X76644905Y-58303817D01*
X76653728Y-58287362D01*
X76662671Y-58273297D01*
X76662671Y-58273296D01*
X76667488Y-58265721D01*
X76675705Y-58237348D01*
X76681579Y-58221253D01*
X76689924Y-58202464D01*
X76693567Y-58194263D01*
X76696980Y-58168852D01*
X76700830Y-58150584D01*
X76707964Y-58125948D01*
X76707940Y-58116978D01*
X76707941Y-58116974D01*
X76707887Y-58096406D01*
X76709008Y-58079306D01*
X76711744Y-58058937D01*
X76711744Y-58058933D01*
X76712938Y-58050043D01*
X76707764Y-58016031D01*
X76707674Y-58015251D01*
X76707671Y-58014143D01*
X76702794Y-57983353D01*
X76702716Y-57982849D01*
X76691647Y-57910081D01*
X76691646Y-57910078D01*
X76691054Y-57906184D01*
X76690464Y-57904916D01*
X76690164Y-57903606D01*
X74512743Y-44155917D01*
X74512625Y-44155156D01*
X74506202Y-44112934D01*
X74500971Y-44078547D01*
X74497186Y-44070411D01*
X74488511Y-44051765D01*
X74482356Y-44035771D01*
X74476297Y-44016139D01*
X74476297Y-44016138D01*
X74473648Y-44007555D01*
X74459516Y-43986162D01*
X74450408Y-43969866D01*
X74443376Y-43954751D01*
X74443372Y-43954744D01*
X74439588Y-43946612D01*
X74420115Y-43924407D01*
X74409717Y-43910782D01*
X74398387Y-43893631D01*
X74398385Y-43893628D01*
X74393439Y-43886142D01*
X74373867Y-43869573D01*
X74360548Y-43856484D01*
X74359188Y-43854933D01*
X74343644Y-43837208D01*
X74336068Y-43832391D01*
X74336067Y-43832390D01*
X74318724Y-43821363D01*
X74304918Y-43811203D01*
X74289230Y-43797922D01*
X74282378Y-43792121D01*
X74258946Y-43781713D01*
X74242487Y-43772889D01*
X74228423Y-43763946D01*
X74228421Y-43763945D01*
X74220850Y-43759131D01*
X74212229Y-43756635D01*
X74212228Y-43756634D01*
X74192479Y-43750915D01*
X74176385Y-43745041D01*
X74149392Y-43733052D01*
X74123971Y-43729637D01*
X74105710Y-43725788D01*
X74089703Y-43721152D01*
X74089698Y-43721151D01*
X74081077Y-43718655D01*
X74072104Y-43718679D01*
X74072100Y-43718678D01*
X74051536Y-43718732D01*
X74034436Y-43717611D01*
X74005172Y-43713680D01*
X73996299Y-43715030D01*
X73996296Y-43715030D01*
X73971163Y-43718854D01*
X73970373Y-43718945D01*
X73969272Y-43718948D01*
X73966338Y-43719413D01*
X73966318Y-43719415D01*
X73938717Y-43723787D01*
X73938016Y-43723896D01*
X73861313Y-43735565D01*
X73860043Y-43736156D01*
X73858736Y-43736455D01*
X69039448Y-44499756D01*
X60111131Y-45913863D01*
X60110370Y-45913981D01*
X60093497Y-45916548D01*
X60033676Y-45925648D01*
X60025542Y-45929432D01*
X60025540Y-45929433D01*
X60006894Y-45938108D01*
X59990900Y-45944263D01*
X59971268Y-45950322D01*
X59962684Y-45952971D01*
X59955194Y-45957919D01*
X59955192Y-45957920D01*
X59941292Y-45967103D01*
X59924995Y-45976211D01*
X59909880Y-45983243D01*
X59909873Y-45983247D01*
X59901741Y-45987031D01*
X59894994Y-45992948D01*
X59879539Y-46006502D01*
X59865911Y-46016902D01*
X59848760Y-46028232D01*
X59848757Y-46028234D01*
X59841271Y-46033180D01*
X59835474Y-46040028D01*
X59824705Y-46052749D01*
X59811616Y-46066068D01*
X59792337Y-46082975D01*
X59787520Y-46090551D01*
X59787519Y-46090552D01*
X59776492Y-46107895D01*
X59766332Y-46121701D01*
X59747250Y-46144241D01*
X59743606Y-46152444D01*
X59743606Y-46152445D01*
X59736843Y-46167672D01*
X59728018Y-46184132D01*
X59714260Y-46205769D01*
X59711763Y-46214392D01*
X59711762Y-46214394D01*
X59706045Y-46234138D01*
X59700169Y-46250237D01*
X59688181Y-46277227D01*
X59686987Y-46286120D01*
X59686986Y-46286122D01*
X59684768Y-46302637D01*
X59680916Y-46320912D01*
X59673784Y-46345541D01*
X59673808Y-46354510D01*
X59673807Y-46354514D01*
X59673861Y-46375084D01*
X59672740Y-46392180D01*
X59668809Y-46421447D01*
X53357097Y-46421447D01*
X52948738Y-44500269D01*
X52933007Y-44423970D01*
X52919159Y-44397871D01*
X52912179Y-44382230D01*
X52902006Y-44354504D01*
X52896673Y-44347284D01*
X52896671Y-44347280D01*
X52886775Y-44333882D01*
X52876821Y-44318077D01*
X52869010Y-44303355D01*
X52869010Y-44303354D01*
X52864804Y-44295428D01*
X52844195Y-44274272D01*
X52833099Y-44261211D01*
X52820887Y-44244678D01*
X52815553Y-44237456D01*
X52795146Y-44221938D01*
X52781163Y-44209566D01*
X52769536Y-44197631D01*
X52769531Y-44197627D01*
X52763266Y-44191196D01*
X52737544Y-44176673D01*
X52723237Y-44167258D01*
X52699723Y-44149377D01*
X52691338Y-44146167D01*
X52691333Y-44146164D01*
X52675778Y-44140209D01*
X52658881Y-44132258D01*
X52644376Y-44124068D01*
X52644373Y-44124067D01*
X52636554Y-44119652D01*
X52607799Y-44112934D01*
X52591411Y-44107908D01*
X52572213Y-44100558D01*
X52572211Y-44100558D01*
X52563828Y-44097348D01*
X52554884Y-44096620D01*
X52554882Y-44096620D01*
X52538270Y-44095269D01*
X52519822Y-44092380D01*
X52517297Y-44091790D01*
X52494854Y-44086547D01*
X52485896Y-44087040D01*
X52465363Y-44088170D01*
X52448224Y-44087945D01*
X52427741Y-44086279D01*
X52418792Y-44085551D01*
X52385098Y-44092498D01*
X52384324Y-44092629D01*
X52383217Y-44092690D01*
X52380296Y-44093311D01*
X52380295Y-44093311D01*
X52352805Y-44099154D01*
X52352053Y-44099311D01*
X52280135Y-44114139D01*
X52280131Y-44114140D01*
X52276276Y-44114935D01*
X52275042Y-44115590D01*
X52273754Y-44115957D01*
X48063395Y-45010897D01*
X38658617Y-47009945D01*
X38658394Y-47009992D01*
X38582210Y-47025699D01*
X38574283Y-47029905D01*
X38556122Y-47039541D01*
X38540473Y-47046524D01*
X38521176Y-47053605D01*
X38521171Y-47053608D01*
X38512744Y-47056700D01*
X38492107Y-47071942D01*
X38476323Y-47081882D01*
X38453668Y-47093903D01*
X38447241Y-47100164D01*
X38432516Y-47114508D01*
X38419455Y-47125604D01*
X38395696Y-47143153D01*
X38380171Y-47163570D01*
X38367801Y-47177551D01*
X38349436Y-47195441D01*
X38334913Y-47221162D01*
X38325501Y-47235464D01*
X38307617Y-47258983D01*
X38304409Y-47267360D01*
X38304408Y-47267363D01*
X38298448Y-47282930D01*
X38290502Y-47299818D01*
X38277892Y-47322152D01*
X38275849Y-47330895D01*
X38275849Y-47330896D01*
X38271174Y-47350907D01*
X38266148Y-47367295D01*
X38255588Y-47394878D01*
X38254860Y-47403822D01*
X38254860Y-47403824D01*
X38253509Y-47420436D01*
X38250620Y-47438884D01*
X38244787Y-47463852D01*
X38245280Y-47472810D01*
X38246410Y-47493343D01*
X38246185Y-47510482D01*
X38243791Y-47539914D01*
X30091536Y-47539914D01*
X35846472Y-45967901D01*
X35852784Y-45966351D01*
X47346273Y-43455637D01*
X75020069Y-43455637D01*
X75021542Y-43485224D01*
X75034651Y-43748527D01*
X75035708Y-43769768D01*
X75036349Y-43773499D01*
X75036350Y-43773507D01*
X75088327Y-44076000D01*
X75088329Y-44076008D01*
X75088971Y-44079745D01*
X75090059Y-44083384D01*
X75090060Y-44083387D01*
X75173662Y-44362930D01*
X75179089Y-44381078D01*
X75304755Y-44669402D01*
X75464149Y-44940540D01*
X75466450Y-44943555D01*
X75652663Y-45187553D01*
X75652668Y-45187558D01*
X75654963Y-45190566D01*
X75874432Y-45415857D01*
X75941836Y-45470148D01*
X76116424Y-45610772D01*
X76116429Y-45610776D01*
X76119377Y-45613150D01*
X76122597Y-45615158D01*
X76383023Y-45777576D01*
X76383030Y-45777580D01*
X76386250Y-45779588D01*
X76671186Y-45912758D01*
X76674796Y-45913941D01*
X76674800Y-45913943D01*
X76915803Y-45992948D01*
X76970056Y-46010733D01*
X77278533Y-46072093D01*
X77282305Y-46072380D01*
X77282313Y-46072381D01*
X77588370Y-46095662D01*
X77588375Y-46095662D01*
X77592147Y-46095949D01*
X77906355Y-46081955D01*
X77910093Y-46081333D01*
X77910101Y-46081332D01*
X78081823Y-46052749D01*
X78216606Y-46030315D01*
X78518407Y-45941777D01*
X78807385Y-45817622D01*
X78810662Y-45815718D01*
X78810669Y-45815715D01*
X78968425Y-45724082D01*
X79079354Y-45659649D01*
X79168293Y-45592507D01*
X79327350Y-45472433D01*
X79327356Y-45472428D01*
X79330376Y-45470148D01*
X79556813Y-45251861D01*
X79755386Y-45007953D01*
X79923218Y-44741954D01*
X80057879Y-44457720D01*
X80157417Y-44159367D01*
X80220391Y-43851216D01*
X80245889Y-43537731D01*
X80246462Y-43483003D01*
X80227535Y-43169053D01*
X80171028Y-42859651D01*
X80143220Y-42770093D01*
X80124167Y-42708733D01*
X80077760Y-42559279D01*
X79949081Y-42272286D01*
X79786857Y-42002832D01*
X79784530Y-41999848D01*
X79784525Y-41999841D01*
X79595766Y-41757806D01*
X79595760Y-41757799D01*
X79593435Y-41754818D01*
X79371619Y-41531837D01*
X79124622Y-41337120D01*
X78856020Y-41173487D01*
X78708950Y-41106618D01*
X78573157Y-41044876D01*
X78573149Y-41044873D01*
X78569705Y-41043307D01*
X78269825Y-40948467D01*
X78119284Y-40920158D01*
X77964447Y-40891041D01*
X77964442Y-40891040D01*
X77960723Y-40890341D01*
X77646877Y-40869771D01*
X77643097Y-40869979D01*
X77643096Y-40869979D01*
X77551525Y-40875019D01*
X77332832Y-40887054D01*
X77329105Y-40887715D01*
X77329101Y-40887715D01*
X77219442Y-40907150D01*
X77023139Y-40941940D01*
X77019523Y-40943042D01*
X77019515Y-40943044D01*
X76725906Y-41032529D01*
X76725899Y-41032532D01*
X76722282Y-41033634D01*
X76434620Y-41160808D01*
X76431366Y-41162744D01*
X76431360Y-41162747D01*
X76167578Y-41319681D01*
X76164319Y-41321620D01*
X76161318Y-41323935D01*
X76161314Y-41323938D01*
X76113270Y-41361004D01*
X75915296Y-41513740D01*
X75912597Y-41516396D01*
X75912598Y-41516396D01*
X75709668Y-41716163D01*
X75691157Y-41734385D01*
X75662868Y-41769886D01*
X75497515Y-41977391D01*
X75497509Y-41977400D01*
X75495150Y-41980360D01*
X75330112Y-42248101D01*
X75198435Y-42533730D01*
X75102027Y-42833110D01*
X75101308Y-42836826D01*
X75101306Y-42836834D01*
X75043002Y-43138184D01*
X75043001Y-43138193D01*
X75042283Y-43141903D01*
X75042016Y-43145679D01*
X75042015Y-43145684D01*
X75040093Y-43172831D01*
X75020069Y-43455637D01*
X47346273Y-43455637D01*
X50196063Y-42833110D01*
X56745782Y-41402346D01*
X56753768Y-41400870D01*
X56806090Y-41392935D01*
X56817009Y-41387862D01*
X56849729Y-41372658D01*
X56858753Y-41368884D01*
X56895428Y-41355191D01*
X56895430Y-41355190D01*
X56903840Y-41352050D01*
X56911030Y-41346677D01*
X56915745Y-41344104D01*
X56925423Y-41338323D01*
X56929914Y-41335399D01*
X56938054Y-41331616D01*
X56944803Y-41325703D01*
X56944806Y-41325701D01*
X56974253Y-41299901D01*
X56981857Y-41293744D01*
X57013209Y-41270314D01*
X57020400Y-41264940D01*
X57025794Y-41257763D01*
X57029609Y-41253958D01*
X57037233Y-41245740D01*
X57040749Y-41241642D01*
X57047504Y-41235724D01*
X57052326Y-41228148D01*
X57052328Y-41228146D01*
X57073345Y-41195127D01*
X57078904Y-41187098D01*
X57107826Y-41148616D01*
X57110988Y-41140215D01*
X57113575Y-41135505D01*
X57118606Y-41125437D01*
X57120819Y-41120541D01*
X57125640Y-41112968D01*
X57130121Y-41097522D01*
X57139047Y-41066755D01*
X57142134Y-41057476D01*
X57155926Y-41020834D01*
X57155927Y-41020832D01*
X57159089Y-41012430D01*
X57159766Y-41003481D01*
X57160928Y-40998233D01*
X57162935Y-40987135D01*
X57163683Y-40981833D01*
X57166183Y-40973214D01*
X57166164Y-40964240D01*
X57166080Y-40925092D01*
X57166439Y-40915314D01*
X57169393Y-40876284D01*
X57169393Y-40876279D01*
X57170070Y-40867330D01*
X57158250Y-40811594D01*
X57157056Y-40805130D01*
X57155930Y-40797995D01*
X55072982Y-27605985D01*
X56688735Y-27605985D01*
X56690085Y-27614858D01*
X56690085Y-27614861D01*
X56693909Y-27639994D01*
X56694000Y-27640784D01*
X56694003Y-27641885D01*
X56694468Y-27644819D01*
X56694470Y-27644839D01*
X56698842Y-27672440D01*
X56698951Y-27673141D01*
X56710620Y-27749844D01*
X56711211Y-27751114D01*
X56711510Y-27752421D01*
X58888935Y-41500131D01*
X58889007Y-41500596D01*
X58900703Y-41577481D01*
X58913163Y-41604262D01*
X58919318Y-41620255D01*
X58925378Y-41639895D01*
X58925380Y-41639900D01*
X58928026Y-41648473D01*
X58932973Y-41655961D01*
X58942158Y-41669865D01*
X58951266Y-41686162D01*
X58958298Y-41701277D01*
X58958302Y-41701284D01*
X58962086Y-41709416D01*
X58968003Y-41716163D01*
X58981557Y-41731618D01*
X58991957Y-41745246D01*
X59003287Y-41762397D01*
X59003289Y-41762400D01*
X59008235Y-41769886D01*
X59027807Y-41786455D01*
X59041116Y-41799533D01*
X59058030Y-41818820D01*
X59082959Y-41834671D01*
X59096760Y-41844827D01*
X59119296Y-41863906D01*
X59142728Y-41874314D01*
X59159183Y-41883137D01*
X59171990Y-41891280D01*
X59180824Y-41896897D01*
X59189445Y-41899394D01*
X59189446Y-41899394D01*
X59209195Y-41905113D01*
X59225292Y-41910988D01*
X59244079Y-41919333D01*
X59244082Y-41919334D01*
X59252282Y-41922976D01*
X59261178Y-41924171D01*
X59261182Y-41924172D01*
X59277691Y-41926390D01*
X59295962Y-41930240D01*
X59311972Y-41934876D01*
X59311974Y-41934876D01*
X59320596Y-41937373D01*
X59329568Y-41937349D01*
X59329572Y-41937350D01*
X59350139Y-41937296D01*
X59367239Y-41938417D01*
X59387608Y-41941153D01*
X59387612Y-41941153D01*
X59396502Y-41942347D01*
X59415483Y-41939459D01*
X59430514Y-41937173D01*
X59431294Y-41937083D01*
X59432402Y-41937080D01*
X59463192Y-41932203D01*
X59463696Y-41932125D01*
X59536464Y-41921056D01*
X59536467Y-41921055D01*
X59540361Y-41920463D01*
X59541629Y-41919873D01*
X59542939Y-41919573D01*
X66333553Y-40844045D01*
X80504949Y-40844045D01*
X80507526Y-40870098D01*
X80508336Y-40878282D01*
X80508386Y-40879070D01*
X80508331Y-40880171D01*
X80508640Y-40883116D01*
X80508641Y-40883124D01*
X80511559Y-40910884D01*
X80511630Y-40911584D01*
X80519275Y-40988852D01*
X80519799Y-40990151D01*
X80520029Y-40991472D01*
X81152599Y-47009968D01*
X81974959Y-54834205D01*
X81975037Y-54834970D01*
X81981372Y-54898996D01*
X81982674Y-54912159D01*
X81993712Y-54939545D01*
X81999023Y-54955845D01*
X82004048Y-54975777D01*
X82004050Y-54975782D01*
X82006244Y-54984485D01*
X82010791Y-54992220D01*
X82010793Y-54992224D01*
X82019238Y-55006588D01*
X82027486Y-55023349D01*
X82033713Y-55038802D01*
X82033716Y-55038806D01*
X82037068Y-55047125D01*
X82042623Y-55054172D01*
X82042625Y-55054175D01*
X82055352Y-55070320D01*
X82065021Y-55084468D01*
X82075438Y-55102188D01*
X82075441Y-55102192D01*
X82079989Y-55109928D01*
X82098665Y-55127497D01*
X82111281Y-55141266D01*
X82127154Y-55161401D01*
X82134468Y-55166608D01*
X82151211Y-55178529D01*
X82164463Y-55189395D01*
X82172926Y-55197356D01*
X82185977Y-55209633D01*
X82193976Y-55213700D01*
X82193979Y-55213702D01*
X82208838Y-55221256D01*
X82224808Y-55230927D01*
X82245694Y-55245797D01*
X82273587Y-55255483D01*
X82289359Y-55262195D01*
X82307680Y-55271510D01*
X82307686Y-55271512D01*
X82315689Y-55275581D01*
X82340900Y-55280322D01*
X82358927Y-55285119D01*
X82383156Y-55293533D01*
X82409173Y-55294828D01*
X82412651Y-55295001D01*
X82429674Y-55297016D01*
X82449873Y-55300815D01*
X82449878Y-55300815D01*
X82458698Y-55302474D01*
X82492939Y-55299087D01*
X82493723Y-55299037D01*
X82494824Y-55299092D01*
X82497769Y-55298783D01*
X82497777Y-55298782D01*
X82514578Y-55297016D01*
X82525633Y-55295854D01*
X82526237Y-55295793D01*
X82603505Y-55288148D01*
X82604804Y-55287624D01*
X82606125Y-55287394D01*
X89385800Y-54574821D01*
X96448858Y-53832464D01*
X96449623Y-53832386D01*
X96517878Y-53825633D01*
X96517879Y-53825633D01*
X96526812Y-53824749D01*
X96535138Y-53821393D01*
X96535140Y-53821393D01*
X96554209Y-53813708D01*
X96570503Y-53808398D01*
X96571768Y-53808079D01*
X96599138Y-53801179D01*
X96621244Y-53788183D01*
X96637997Y-53779940D01*
X96653456Y-53773710D01*
X96661778Y-53770356D01*
X96668823Y-53764802D01*
X96668830Y-53764798D01*
X96684975Y-53752070D01*
X96699124Y-53742399D01*
X96724581Y-53727434D01*
X96742147Y-53708761D01*
X96755912Y-53696147D01*
X96769008Y-53685823D01*
X96776054Y-53680269D01*
X96793182Y-53656212D01*
X96804048Y-53642960D01*
X96812009Y-53634497D01*
X96824286Y-53621446D01*
X96835910Y-53598584D01*
X96845578Y-53582618D01*
X96860450Y-53561730D01*
X96870137Y-53533834D01*
X96876849Y-53518062D01*
X96886163Y-53499743D01*
X96886165Y-53499737D01*
X96890234Y-53491734D01*
X96894975Y-53466523D01*
X96899772Y-53448496D01*
X96908186Y-53424267D01*
X96909654Y-53394772D01*
X96911669Y-53377749D01*
X96915468Y-53357550D01*
X96915468Y-53357545D01*
X96917127Y-53348725D01*
X96913740Y-53314484D01*
X96913690Y-53313700D01*
X96913745Y-53312599D01*
X96910507Y-53281790D01*
X96910439Y-53281121D01*
X96903189Y-53207841D01*
X96902801Y-53203918D01*
X96902277Y-53202619D01*
X96902046Y-53201295D01*
X96900199Y-53183716D01*
X96135821Y-45911145D01*
X95642132Y-41214007D01*
X101996966Y-41214007D01*
X101997381Y-41222974D01*
X101997381Y-41222976D01*
X101998557Y-41248380D01*
X101998565Y-41249167D01*
X101998453Y-41250261D01*
X101998609Y-41253237D01*
X102000067Y-41281057D01*
X102000098Y-41281691D01*
X102003694Y-41359365D01*
X102004149Y-41360690D01*
X102004310Y-41362023D01*
X102318174Y-47350907D01*
X102732773Y-55261938D01*
X102732811Y-55262706D01*
X102733849Y-55285121D01*
X102736397Y-55340178D01*
X102745993Y-55368125D01*
X102750437Y-55384655D01*
X102756150Y-55413638D01*
X102767976Y-55436404D01*
X102775324Y-55453548D01*
X102783653Y-55477807D01*
X102788832Y-55485135D01*
X102788833Y-55485137D01*
X102800700Y-55501928D01*
X102809615Y-55516562D01*
X102823228Y-55542769D01*
X102829437Y-55549255D01*
X102840956Y-55561288D01*
X102852833Y-55575695D01*
X102867635Y-55596640D01*
X102890766Y-55615006D01*
X102903424Y-55626543D01*
X102923853Y-55647884D01*
X102931629Y-55652365D01*
X102931631Y-55652366D01*
X102946070Y-55660686D01*
X102961513Y-55671181D01*
X102974563Y-55681542D01*
X102981595Y-55687125D01*
X103008953Y-55698262D01*
X103024349Y-55705788D01*
X103049936Y-55720531D01*
X103074857Y-55726583D01*
X103092619Y-55732320D01*
X103116371Y-55741989D01*
X103125298Y-55742904D01*
X103125299Y-55742904D01*
X103145757Y-55745000D01*
X103162648Y-55747903D01*
X103178539Y-55751762D01*
X103191341Y-55754871D01*
X103200310Y-55754456D01*
X103200311Y-55754456D01*
X103225700Y-55753281D01*
X103226495Y-55753273D01*
X103227595Y-55753385D01*
X103230570Y-55753229D01*
X103230578Y-55753229D01*
X103258563Y-55751762D01*
X103259331Y-55751724D01*
X103332768Y-55748325D01*
X103332769Y-55748325D01*
X103336699Y-55748143D01*
X103338019Y-55747690D01*
X103339355Y-55747528D01*
X117239429Y-55019057D01*
X117240197Y-55019019D01*
X117259533Y-55018124D01*
X117317512Y-55015440D01*
X117345443Y-55005850D01*
X117361993Y-55001400D01*
X117363357Y-55001131D01*
X117390972Y-54995688D01*
X117413728Y-54983868D01*
X117430886Y-54976514D01*
X117446651Y-54971101D01*
X117446656Y-54971098D01*
X117455141Y-54968185D01*
X117479258Y-54951141D01*
X117493892Y-54942226D01*
X117512138Y-54932748D01*
X117512140Y-54932746D01*
X117520103Y-54928610D01*
X117526586Y-54922404D01*
X117526590Y-54922401D01*
X117538628Y-54910877D01*
X117553035Y-54899000D01*
X117573974Y-54884202D01*
X117592344Y-54861066D01*
X117603879Y-54848413D01*
X117618734Y-54834193D01*
X117618737Y-54834189D01*
X117625218Y-54827985D01*
X117638020Y-54805765D01*
X117648518Y-54790319D01*
X117654010Y-54783402D01*
X117664459Y-54770243D01*
X117675595Y-54742887D01*
X117683117Y-54727498D01*
X117697865Y-54701902D01*
X117700818Y-54689745D01*
X117703916Y-54676987D01*
X117709656Y-54659215D01*
X117715940Y-54643779D01*
X117715941Y-54643773D01*
X117719323Y-54635466D01*
X117722334Y-54606081D01*
X117725237Y-54589192D01*
X117730086Y-54569225D01*
X117730086Y-54569222D01*
X117732205Y-54560497D01*
X117730615Y-54526138D01*
X117730607Y-54525343D01*
X117730719Y-54524243D01*
X117729096Y-54493270D01*
X117729058Y-54492507D01*
X117726791Y-54443536D01*
X123464222Y-54443536D01*
X123466688Y-54452165D01*
X123466689Y-54452170D01*
X123472337Y-54471932D01*
X123475915Y-54488693D01*
X123478828Y-54509036D01*
X123478831Y-54509046D01*
X123480103Y-54517929D01*
X123490719Y-54541279D01*
X123497162Y-54558791D01*
X123504210Y-54583449D01*
X123519972Y-54608432D01*
X123528102Y-54623498D01*
X123540331Y-54650394D01*
X123557072Y-54669823D01*
X123568177Y-54684831D01*
X123581858Y-54706515D01*
X123588586Y-54712457D01*
X123603994Y-54726065D01*
X123616038Y-54738257D01*
X123635317Y-54760631D01*
X123642845Y-54765510D01*
X123642848Y-54765513D01*
X123656837Y-54774580D01*
X123671711Y-54785870D01*
X123690926Y-54802840D01*
X123699052Y-54806655D01*
X123699053Y-54806656D01*
X123704719Y-54809316D01*
X123717664Y-54815394D01*
X123732633Y-54823708D01*
X123757425Y-54839777D01*
X123774348Y-54844838D01*
X123781988Y-54847123D01*
X123799434Y-54853785D01*
X123822646Y-54864683D01*
X123851828Y-54869227D01*
X123868547Y-54873010D01*
X123888234Y-54878898D01*
X123888237Y-54878899D01*
X123896839Y-54881471D01*
X123905814Y-54881526D01*
X123905815Y-54881526D01*
X123912508Y-54881567D01*
X123931254Y-54881681D01*
X123932026Y-54881714D01*
X123933121Y-54881884D01*
X123963996Y-54881884D01*
X123964766Y-54881886D01*
X124038414Y-54882336D01*
X124038415Y-54882336D01*
X124042350Y-54882360D01*
X124043694Y-54881976D01*
X124045039Y-54881884D01*
X137963996Y-54881884D01*
X137964767Y-54881886D01*
X138042350Y-54882360D01*
X138050979Y-54879894D01*
X138050984Y-54879893D01*
X138070746Y-54874245D01*
X138087507Y-54870667D01*
X138107850Y-54867754D01*
X138107860Y-54867751D01*
X138116743Y-54866479D01*
X138140093Y-54855863D01*
X138157605Y-54849420D01*
X138173635Y-54844838D01*
X138182263Y-54842372D01*
X138207246Y-54826610D01*
X138222312Y-54818480D01*
X138249208Y-54806251D01*
X138268637Y-54789510D01*
X138283645Y-54778405D01*
X138297737Y-54769514D01*
X138305329Y-54764724D01*
X138324880Y-54742587D01*
X138337072Y-54730543D01*
X138352647Y-54717123D01*
X138352648Y-54717121D01*
X138359445Y-54711265D01*
X138364324Y-54703737D01*
X138364327Y-54703734D01*
X138373394Y-54689745D01*
X138384684Y-54674871D01*
X138395710Y-54662386D01*
X138401654Y-54655656D01*
X138407231Y-54643779D01*
X138411133Y-54635466D01*
X138414208Y-54628918D01*
X138422522Y-54613949D01*
X138438591Y-54589157D01*
X138445937Y-54564593D01*
X138452599Y-54547148D01*
X138459681Y-54532063D01*
X138463497Y-54523936D01*
X138468041Y-54494754D01*
X138471824Y-54478035D01*
X138477712Y-54458348D01*
X138477713Y-54458345D01*
X138480285Y-54449743D01*
X138480495Y-54415328D01*
X138480528Y-54414556D01*
X138480698Y-54413461D01*
X138480698Y-54382586D01*
X138480700Y-54381816D01*
X138481150Y-54308168D01*
X138481150Y-54308167D01*
X138481174Y-54304232D01*
X138480790Y-54302888D01*
X138480698Y-54301543D01*
X138480698Y-40382586D01*
X138480700Y-40381816D01*
X138481119Y-40313206D01*
X138481174Y-40304232D01*
X138478708Y-40295603D01*
X138478707Y-40295598D01*
X138473059Y-40275836D01*
X138469481Y-40259075D01*
X138466568Y-40238732D01*
X138466565Y-40238722D01*
X138465293Y-40229839D01*
X138454677Y-40206489D01*
X138448234Y-40188977D01*
X138443652Y-40172947D01*
X138441186Y-40164319D01*
X138425424Y-40139336D01*
X138417294Y-40124270D01*
X138405065Y-40097374D01*
X138388324Y-40077945D01*
X138377219Y-40062937D01*
X138368328Y-40048845D01*
X138363538Y-40041253D01*
X138341401Y-40021702D01*
X138329357Y-40009510D01*
X138315937Y-39993935D01*
X138315935Y-39993934D01*
X138310079Y-39987137D01*
X138302551Y-39982258D01*
X138302548Y-39982255D01*
X138288559Y-39973188D01*
X138273685Y-39961898D01*
X138261200Y-39950872D01*
X138254470Y-39944928D01*
X138246344Y-39941113D01*
X138246343Y-39941112D01*
X138240677Y-39938452D01*
X138227732Y-39932374D01*
X138212763Y-39924060D01*
X138187971Y-39907991D01*
X138163407Y-39900645D01*
X138145962Y-39893983D01*
X138141525Y-39891900D01*
X138122750Y-39883085D01*
X138093568Y-39878541D01*
X138076849Y-39874758D01*
X138057162Y-39868870D01*
X138057159Y-39868869D01*
X138048557Y-39866297D01*
X138039582Y-39866242D01*
X138039581Y-39866242D01*
X138032888Y-39866201D01*
X138014142Y-39866087D01*
X138013370Y-39866054D01*
X138012275Y-39865884D01*
X137981400Y-39865884D01*
X137980630Y-39865882D01*
X137906982Y-39865432D01*
X137906981Y-39865432D01*
X137903046Y-39865408D01*
X137901702Y-39865792D01*
X137900357Y-39865884D01*
X123981400Y-39865884D01*
X123980630Y-39865882D01*
X123979776Y-39865877D01*
X123903046Y-39865408D01*
X123894417Y-39867874D01*
X123894412Y-39867875D01*
X123874650Y-39873523D01*
X123857889Y-39877101D01*
X123837546Y-39880014D01*
X123837536Y-39880017D01*
X123828653Y-39881289D01*
X123805303Y-39891905D01*
X123787791Y-39898348D01*
X123779755Y-39900645D01*
X123763133Y-39905396D01*
X123738150Y-39921158D01*
X123723084Y-39929288D01*
X123696188Y-39941517D01*
X123676759Y-39958258D01*
X123661751Y-39969363D01*
X123640067Y-39983044D01*
X123634125Y-39989772D01*
X123620517Y-40005180D01*
X123608324Y-40017225D01*
X123597934Y-40026178D01*
X123585951Y-40036503D01*
X123581072Y-40044031D01*
X123581069Y-40044034D01*
X123572002Y-40058023D01*
X123560712Y-40072897D01*
X123543742Y-40092112D01*
X123531188Y-40118850D01*
X123522874Y-40133819D01*
X123506805Y-40158611D01*
X123500770Y-40178792D01*
X123499459Y-40183174D01*
X123492797Y-40200620D01*
X123481899Y-40223832D01*
X123477356Y-40253012D01*
X123473572Y-40269733D01*
X123467684Y-40289420D01*
X123467683Y-40289423D01*
X123465111Y-40298025D01*
X123465056Y-40307000D01*
X123465056Y-40307001D01*
X123464901Y-40332430D01*
X123464868Y-40333212D01*
X123464698Y-40334307D01*
X123464698Y-40365182D01*
X123464696Y-40365952D01*
X123464222Y-40443536D01*
X123464606Y-40444880D01*
X123464698Y-40446225D01*
X123464698Y-54365182D01*
X123464696Y-54365952D01*
X123464222Y-54443536D01*
X117726791Y-54443536D01*
X117725659Y-54419070D01*
X117725659Y-54419069D01*
X117725477Y-54415139D01*
X117725024Y-54413819D01*
X117724862Y-54412483D01*
X116996390Y-40512394D01*
X116996352Y-40511626D01*
X116993189Y-40443294D01*
X116992774Y-40434326D01*
X116988685Y-40422415D01*
X116983184Y-40406395D01*
X116978734Y-40389845D01*
X116976608Y-40379061D01*
X116973022Y-40360866D01*
X116961202Y-40338110D01*
X116953848Y-40320952D01*
X116948435Y-40305187D01*
X116948432Y-40305182D01*
X116945519Y-40296697D01*
X116928475Y-40272580D01*
X116919560Y-40257946D01*
X116910082Y-40239700D01*
X116910080Y-40239698D01*
X116905944Y-40231735D01*
X116899738Y-40225252D01*
X116899735Y-40225248D01*
X116888211Y-40213210D01*
X116876334Y-40198803D01*
X116861536Y-40177864D01*
X116838400Y-40159494D01*
X116831975Y-40153637D01*
X117742869Y-40153637D01*
X117747154Y-40239700D01*
X117757642Y-40450368D01*
X117758508Y-40467768D01*
X117759149Y-40471499D01*
X117759150Y-40471507D01*
X117811127Y-40774000D01*
X117811129Y-40774008D01*
X117811771Y-40777745D01*
X117812859Y-40781384D01*
X117812860Y-40781387D01*
X117898204Y-41066755D01*
X117901889Y-41079078D01*
X118027555Y-41367402D01*
X118186949Y-41638540D01*
X118189250Y-41641555D01*
X118375463Y-41885553D01*
X118375468Y-41885558D01*
X118377763Y-41888566D01*
X118597232Y-42113857D01*
X118664636Y-42168148D01*
X118839224Y-42308772D01*
X118839229Y-42308776D01*
X118842177Y-42311150D01*
X118845397Y-42313158D01*
X119105823Y-42475576D01*
X119105830Y-42475580D01*
X119109050Y-42477588D01*
X119393986Y-42610758D01*
X119397596Y-42611941D01*
X119397600Y-42611943D01*
X119485756Y-42640842D01*
X119692856Y-42708733D01*
X120001333Y-42770093D01*
X120005105Y-42770380D01*
X120005113Y-42770381D01*
X120311170Y-42793662D01*
X120311175Y-42793662D01*
X120314947Y-42793949D01*
X120629155Y-42779955D01*
X120632893Y-42779333D01*
X120632901Y-42779332D01*
X120783891Y-42754200D01*
X120939406Y-42728315D01*
X121241207Y-42639777D01*
X121530185Y-42515622D01*
X121533462Y-42513718D01*
X121533469Y-42513715D01*
X121691225Y-42422082D01*
X121802154Y-42357649D01*
X121919546Y-42269028D01*
X122050150Y-42170433D01*
X122050156Y-42170428D01*
X122053176Y-42168148D01*
X122279613Y-41949861D01*
X122478186Y-41705953D01*
X122586351Y-41534521D01*
X122643995Y-41443161D01*
X122643998Y-41443155D01*
X122646018Y-41439954D01*
X122772262Y-41173487D01*
X122779054Y-41159150D01*
X122780679Y-41155720D01*
X122880217Y-40857367D01*
X122882940Y-40844045D01*
X122890892Y-40805130D01*
X122943191Y-40549216D01*
X122968689Y-40235731D01*
X122969262Y-40181003D01*
X122968777Y-40172947D01*
X122950563Y-39870831D01*
X122950563Y-39870827D01*
X122950335Y-39867053D01*
X122944697Y-39836184D01*
X122894508Y-39561373D01*
X122894507Y-39561369D01*
X122893828Y-39557651D01*
X122890872Y-39548129D01*
X122840840Y-39387002D01*
X122800560Y-39257279D01*
X122671881Y-38970286D01*
X122509657Y-38700832D01*
X122507330Y-38697848D01*
X122507325Y-38697841D01*
X122318566Y-38455806D01*
X122318560Y-38455799D01*
X122316235Y-38452818D01*
X122094419Y-38229837D01*
X121847422Y-38035120D01*
X121578820Y-37871487D01*
X121464448Y-37819485D01*
X121295957Y-37742876D01*
X121295949Y-37742873D01*
X121292505Y-37741307D01*
X120992625Y-37646467D01*
X120855357Y-37620654D01*
X120687247Y-37589041D01*
X120687242Y-37589040D01*
X120683523Y-37588341D01*
X120369677Y-37567771D01*
X120365897Y-37567979D01*
X120365896Y-37567979D01*
X120274325Y-37573019D01*
X120055632Y-37585054D01*
X120051905Y-37585715D01*
X120051901Y-37585715D01*
X119942242Y-37605150D01*
X119745939Y-37639940D01*
X119742323Y-37641042D01*
X119742315Y-37641044D01*
X119448706Y-37730529D01*
X119448699Y-37730532D01*
X119445082Y-37731634D01*
X119157420Y-37858808D01*
X119154166Y-37860744D01*
X119154160Y-37860747D01*
X118890378Y-38017681D01*
X118887119Y-38019620D01*
X118638096Y-38211740D01*
X118413957Y-38432385D01*
X118397675Y-38452818D01*
X118220315Y-38675391D01*
X118220309Y-38675400D01*
X118217950Y-38678360D01*
X118052912Y-38946101D01*
X117921235Y-39231730D01*
X117865183Y-39405791D01*
X117838595Y-39488357D01*
X117824827Y-39531110D01*
X117824108Y-39534826D01*
X117824106Y-39534834D01*
X117765802Y-39836184D01*
X117765801Y-39836193D01*
X117765083Y-39839903D01*
X117764816Y-39843679D01*
X117764815Y-39843684D01*
X117743881Y-40139346D01*
X117742869Y-40153637D01*
X116831975Y-40153637D01*
X116825747Y-40147959D01*
X116811527Y-40133104D01*
X116811523Y-40133101D01*
X116805319Y-40126620D01*
X116791822Y-40118843D01*
X116783100Y-40113818D01*
X116767653Y-40103320D01*
X116763773Y-40100239D01*
X116747577Y-40087379D01*
X116720221Y-40076243D01*
X116704832Y-40068721D01*
X116679236Y-40053973D01*
X116654324Y-40047923D01*
X116636552Y-40042183D01*
X116621114Y-40035899D01*
X116621111Y-40035898D01*
X116612800Y-40032515D01*
X116603877Y-40031601D01*
X116603874Y-40031600D01*
X116589665Y-40030145D01*
X116583426Y-40029505D01*
X116566531Y-40026602D01*
X116546556Y-40021751D01*
X116537831Y-40019632D01*
X116528864Y-40020047D01*
X116528862Y-40020047D01*
X116503458Y-40021223D01*
X116502671Y-40021231D01*
X116501577Y-40021119D01*
X116470616Y-40022741D01*
X116470147Y-40022764D01*
X116392473Y-40026360D01*
X116391148Y-40026815D01*
X116389815Y-40026976D01*
X104331327Y-40658934D01*
X102489898Y-40755439D01*
X102489130Y-40755477D01*
X102466339Y-40756532D01*
X102411660Y-40759063D01*
X102383713Y-40768659D01*
X102367183Y-40773103D01*
X102338200Y-40778816D01*
X102315434Y-40790642D01*
X102298290Y-40797990D01*
X102274031Y-40806319D01*
X102266703Y-40811498D01*
X102266701Y-40811499D01*
X102249910Y-40823366D01*
X102235276Y-40832281D01*
X102209069Y-40845894D01*
X102202583Y-40852103D01*
X102190550Y-40863622D01*
X102176143Y-40875499D01*
X102155198Y-40890301D01*
X102138544Y-40911277D01*
X102136836Y-40913428D01*
X102125295Y-40926090D01*
X102103954Y-40946519D01*
X102099473Y-40954295D01*
X102099472Y-40954297D01*
X102091152Y-40968736D01*
X102080657Y-40984179D01*
X102074085Y-40992457D01*
X102064713Y-41004261D01*
X102053576Y-41031619D01*
X102046050Y-41047015D01*
X102035787Y-41064825D01*
X102035785Y-41064831D01*
X102031307Y-41072602D01*
X102029190Y-41081318D01*
X102029189Y-41081321D01*
X102025255Y-41097522D01*
X102019515Y-41115292D01*
X102009849Y-41139037D01*
X102008935Y-41147963D01*
X102008934Y-41147965D01*
X102006840Y-41168409D01*
X102003936Y-41185306D01*
X101999085Y-41205280D01*
X101999085Y-41205283D01*
X101996966Y-41214007D01*
X95642132Y-41214007D01*
X95447117Y-39358565D01*
X95447039Y-39357800D01*
X95440285Y-39289540D01*
X95439402Y-39280611D01*
X95436050Y-39272292D01*
X95436048Y-39272286D01*
X95428361Y-39253213D01*
X95423051Y-39236919D01*
X95418027Y-39216991D01*
X95418026Y-39216989D01*
X95415832Y-39208286D01*
X95410186Y-39198681D01*
X95402840Y-39186185D01*
X95394597Y-39169435D01*
X95385009Y-39145645D01*
X95366720Y-39122445D01*
X95357051Y-39108296D01*
X95346637Y-39090581D01*
X95346636Y-39090579D01*
X95342087Y-39082842D01*
X95323412Y-39065274D01*
X95310798Y-39051509D01*
X95294922Y-39031369D01*
X95287607Y-39026161D01*
X95287605Y-39026159D01*
X95270857Y-39014235D01*
X95257610Y-39003374D01*
X95236099Y-38983138D01*
X95228092Y-38979067D01*
X95213240Y-38971515D01*
X95197269Y-38961843D01*
X95183691Y-38952176D01*
X95176383Y-38946973D01*
X95148484Y-38937284D01*
X95132714Y-38930574D01*
X95114388Y-38921257D01*
X95114389Y-38921257D01*
X95106387Y-38917189D01*
X95081176Y-38912448D01*
X95063149Y-38907651D01*
X95038920Y-38899237D01*
X95012903Y-38897942D01*
X95009425Y-38897769D01*
X94992402Y-38895754D01*
X94972203Y-38891955D01*
X94972198Y-38891955D01*
X94963378Y-38890296D01*
X94929137Y-38893683D01*
X94928353Y-38893733D01*
X94927252Y-38893678D01*
X94924307Y-38893987D01*
X94924299Y-38893988D01*
X94909632Y-38895530D01*
X94896443Y-38896916D01*
X94895839Y-38896977D01*
X94818571Y-38904622D01*
X94817272Y-38905146D01*
X94815951Y-38905376D01*
X89350695Y-39479798D01*
X80973218Y-40360306D01*
X80972453Y-40360384D01*
X80904198Y-40367137D01*
X80904197Y-40367137D01*
X80895264Y-40368021D01*
X80867864Y-40379064D01*
X80851573Y-40384372D01*
X80831644Y-40389396D01*
X80831642Y-40389397D01*
X80822939Y-40391591D01*
X80815201Y-40396140D01*
X80800828Y-40404589D01*
X80784074Y-40412833D01*
X80768622Y-40419060D01*
X80768620Y-40419061D01*
X80760298Y-40422415D01*
X80753250Y-40427971D01*
X80753245Y-40427974D01*
X80737103Y-40440699D01*
X80722955Y-40450368D01*
X80705234Y-40460786D01*
X80705232Y-40460788D01*
X80697495Y-40465336D01*
X80679929Y-40484009D01*
X80666164Y-40496623D01*
X80646022Y-40512501D01*
X80640818Y-40519811D01*
X80628893Y-40536560D01*
X80618024Y-40549815D01*
X80597791Y-40571324D01*
X80593724Y-40579324D01*
X80593723Y-40579325D01*
X80586169Y-40594183D01*
X80576495Y-40610157D01*
X80561626Y-40631041D01*
X80551940Y-40658934D01*
X80545230Y-40674701D01*
X80535913Y-40693026D01*
X80535910Y-40693035D01*
X80531842Y-40701036D01*
X80527101Y-40726247D01*
X80522304Y-40744274D01*
X80513890Y-40768503D01*
X80512595Y-40794520D01*
X80512422Y-40797998D01*
X80510407Y-40815021D01*
X80506608Y-40835220D01*
X80506608Y-40835225D01*
X80504949Y-40844045D01*
X66333553Y-40844045D01*
X73290579Y-39742160D01*
X73291340Y-39742042D01*
X73346698Y-39733620D01*
X73367998Y-39730380D01*
X73394779Y-39717920D01*
X73410772Y-39711765D01*
X73430412Y-39705705D01*
X73430417Y-39705703D01*
X73438990Y-39703057D01*
X73460383Y-39688925D01*
X73476679Y-39679817D01*
X73491794Y-39672785D01*
X73491801Y-39672781D01*
X73499933Y-39668997D01*
X73522138Y-39649524D01*
X73535763Y-39639126D01*
X73552914Y-39627796D01*
X73552917Y-39627794D01*
X73560403Y-39622848D01*
X73576972Y-39603276D01*
X73590050Y-39589967D01*
X73609337Y-39573053D01*
X73625188Y-39548124D01*
X73635344Y-39534324D01*
X73648623Y-39518638D01*
X73654423Y-39511787D01*
X73664831Y-39488355D01*
X73673654Y-39471900D01*
X73682597Y-39457835D01*
X73682597Y-39457834D01*
X73687414Y-39450259D01*
X73695631Y-39421886D01*
X73701505Y-39405791D01*
X73709850Y-39387002D01*
X73713493Y-39378801D01*
X73716906Y-39353390D01*
X73720756Y-39335122D01*
X73727890Y-39310486D01*
X73727866Y-39301516D01*
X73727867Y-39301512D01*
X73727813Y-39280944D01*
X73728934Y-39263844D01*
X73731670Y-39243475D01*
X73731670Y-39243471D01*
X73732864Y-39234581D01*
X73727690Y-39200569D01*
X73727600Y-39199791D01*
X73727597Y-39198681D01*
X73725618Y-39186185D01*
X73722738Y-39167998D01*
X73722620Y-39167239D01*
X73718263Y-39138599D01*
X73710980Y-39090722D01*
X73710390Y-39089454D01*
X73710090Y-39088144D01*
X71532669Y-25340455D01*
X71532551Y-25339694D01*
X71529139Y-25317266D01*
X71520897Y-25263085D01*
X71513377Y-25246922D01*
X71508437Y-25236303D01*
X71502282Y-25220309D01*
X71496223Y-25200677D01*
X71496223Y-25200676D01*
X71493574Y-25192093D01*
X71479442Y-25170700D01*
X71470334Y-25154404D01*
X71463302Y-25139289D01*
X71463298Y-25139282D01*
X71459514Y-25131150D01*
X71440041Y-25108945D01*
X71429643Y-25095320D01*
X71418313Y-25078169D01*
X71418311Y-25078166D01*
X71413365Y-25070680D01*
X71393793Y-25054111D01*
X71380474Y-25041022D01*
X71363570Y-25021746D01*
X71355994Y-25016929D01*
X71355993Y-25016928D01*
X71338650Y-25005901D01*
X71324844Y-24995741D01*
X71309156Y-24982460D01*
X71302304Y-24976659D01*
X71278872Y-24966251D01*
X71262413Y-24957427D01*
X71248349Y-24948484D01*
X71248347Y-24948483D01*
X71240776Y-24943669D01*
X71232155Y-24941173D01*
X71232154Y-24941172D01*
X71212405Y-24935453D01*
X71196311Y-24929579D01*
X71169318Y-24917590D01*
X71143897Y-24914175D01*
X71125636Y-24910326D01*
X71109629Y-24905690D01*
X71109624Y-24905689D01*
X71101003Y-24903193D01*
X71092030Y-24903217D01*
X71092026Y-24903216D01*
X71071462Y-24903270D01*
X71054362Y-24902149D01*
X71025098Y-24898218D01*
X71016225Y-24899568D01*
X71016222Y-24899568D01*
X70991089Y-24903392D01*
X70990299Y-24903483D01*
X70989198Y-24903486D01*
X70986264Y-24903951D01*
X70986244Y-24903953D01*
X70958643Y-24908325D01*
X70957942Y-24908434D01*
X70881239Y-24920103D01*
X70879969Y-24920694D01*
X70878662Y-24920993D01*
X65047376Y-25844579D01*
X57131057Y-27098401D01*
X57130296Y-27098519D01*
X57113423Y-27101086D01*
X57053602Y-27110186D01*
X57045468Y-27113970D01*
X57045466Y-27113971D01*
X57026820Y-27122646D01*
X57010826Y-27128801D01*
X56991194Y-27134860D01*
X56982610Y-27137509D01*
X56975120Y-27142457D01*
X56975118Y-27142458D01*
X56961218Y-27151641D01*
X56944921Y-27160749D01*
X56929806Y-27167781D01*
X56929799Y-27167785D01*
X56921667Y-27171569D01*
X56914920Y-27177486D01*
X56899465Y-27191040D01*
X56885837Y-27201440D01*
X56868686Y-27212770D01*
X56868683Y-27212772D01*
X56861197Y-27217718D01*
X56855400Y-27224566D01*
X56844631Y-27237287D01*
X56831542Y-27250606D01*
X56812263Y-27267513D01*
X56807446Y-27275089D01*
X56807445Y-27275090D01*
X56796418Y-27292433D01*
X56786258Y-27306239D01*
X56767176Y-27328779D01*
X56763532Y-27336982D01*
X56763532Y-27336983D01*
X56756769Y-27352210D01*
X56747944Y-27368670D01*
X56734186Y-27390307D01*
X56731689Y-27398930D01*
X56731688Y-27398932D01*
X56725971Y-27418676D01*
X56720095Y-27434775D01*
X56708107Y-27461765D01*
X56706913Y-27470658D01*
X56706912Y-27470660D01*
X56704694Y-27487175D01*
X56700842Y-27505450D01*
X56693710Y-27530079D01*
X56693734Y-27539048D01*
X56693733Y-27539052D01*
X56693787Y-27559622D01*
X56692666Y-27576718D01*
X56688735Y-27605985D01*
X55072982Y-27605985D01*
X54820472Y-26006756D01*
X54829605Y-25936351D01*
X54875353Y-25882058D01*
X54925555Y-25862605D01*
X65884587Y-24157309D01*
X76478843Y-22508776D01*
X76485927Y-22507879D01*
X76506123Y-22505900D01*
X76541145Y-22502468D01*
X76583479Y-22485453D01*
X76593625Y-22481871D01*
X76628675Y-22471159D01*
X76628678Y-22471158D01*
X76637259Y-22468535D01*
X76645197Y-22463322D01*
X76667365Y-22451735D01*
X76667368Y-22451734D01*
X76676162Y-22448199D01*
X76683218Y-22442648D01*
X76683222Y-22442645D01*
X76712004Y-22419999D01*
X76720742Y-22413708D01*
X76758888Y-22388656D01*
X76764707Y-22381820D01*
X76764710Y-22381817D01*
X76765037Y-22381433D01*
X76783067Y-22364084D01*
X76783465Y-22363771D01*
X76783467Y-22363769D01*
X76790521Y-22358219D01*
X76804848Y-22338136D01*
X76817015Y-22321081D01*
X76823642Y-22312585D01*
X76847393Y-22284683D01*
X76847394Y-22284682D01*
X76853210Y-22277849D01*
X76856876Y-22269656D01*
X76856878Y-22269653D01*
X76857089Y-22269182D01*
X76869516Y-22247485D01*
X76869813Y-22247068D01*
X76875028Y-22239758D01*
X76878655Y-22229345D01*
X76890033Y-22196678D01*
X76894009Y-22186664D01*
X76896370Y-22181388D01*
X76912640Y-22145024D01*
X76913929Y-22135621D01*
X76919773Y-22111290D01*
X76922891Y-22102339D01*
X76925202Y-22056774D01*
X76926204Y-22046072D01*
X76932402Y-22000857D01*
X76923600Y-21941921D01*
X76922898Y-21936380D01*
X76922706Y-21934531D01*
X76918943Y-21898405D01*
X78513681Y-21898405D01*
X78514565Y-21907338D01*
X78517068Y-21932642D01*
X78517118Y-21933430D01*
X78517063Y-21934531D01*
X78517372Y-21937476D01*
X78517373Y-21937484D01*
X78520291Y-21965244D01*
X78520362Y-21965944D01*
X78528007Y-22043212D01*
X78528531Y-22044511D01*
X78528761Y-22045832D01*
X79083301Y-27321927D01*
X79983691Y-35888565D01*
X79983769Y-35889330D01*
X79990332Y-35955660D01*
X79991406Y-35966519D01*
X80000319Y-35988633D01*
X80002444Y-35993905D01*
X80007755Y-36010205D01*
X80012780Y-36030137D01*
X80012782Y-36030142D01*
X80014976Y-36038845D01*
X80019523Y-36046580D01*
X80019525Y-36046584D01*
X80027970Y-36060948D01*
X80036218Y-36077709D01*
X80042445Y-36093162D01*
X80042448Y-36093166D01*
X80045800Y-36101485D01*
X80051355Y-36108532D01*
X80051357Y-36108535D01*
X80064084Y-36124680D01*
X80073753Y-36138828D01*
X80084170Y-36156548D01*
X80084173Y-36156552D01*
X80088721Y-36164288D01*
X80107397Y-36181857D01*
X80120013Y-36195626D01*
X80135886Y-36215761D01*
X80143200Y-36220968D01*
X80159943Y-36232889D01*
X80173195Y-36243755D01*
X80181658Y-36251716D01*
X80194709Y-36263993D01*
X80202708Y-36268060D01*
X80202711Y-36268062D01*
X80217570Y-36275616D01*
X80233540Y-36285287D01*
X80254426Y-36300157D01*
X80282319Y-36309843D01*
X80298091Y-36316555D01*
X80316412Y-36325870D01*
X80316418Y-36325872D01*
X80324421Y-36329941D01*
X80349632Y-36334682D01*
X80367659Y-36339479D01*
X80391888Y-36347893D01*
X80417905Y-36349188D01*
X80421383Y-36349361D01*
X80438406Y-36351376D01*
X80458605Y-36355175D01*
X80458610Y-36355175D01*
X80467430Y-36356834D01*
X80501671Y-36353447D01*
X80502455Y-36353397D01*
X80503556Y-36353452D01*
X80506501Y-36353143D01*
X80506509Y-36353142D01*
X80523310Y-36351376D01*
X80534365Y-36350214D01*
X80534969Y-36350153D01*
X80612237Y-36342508D01*
X80613536Y-36341984D01*
X80614857Y-36341754D01*
X86948461Y-35676065D01*
X94457590Y-34886824D01*
X94458355Y-34886746D01*
X94526610Y-34879993D01*
X94526611Y-34879993D01*
X94535544Y-34879109D01*
X94543870Y-34875753D01*
X94543872Y-34875753D01*
X94562941Y-34868068D01*
X94579235Y-34862758D01*
X94580500Y-34862439D01*
X94607870Y-34855539D01*
X94629976Y-34842543D01*
X94646729Y-34834300D01*
X94662188Y-34828070D01*
X94670510Y-34824716D01*
X94677555Y-34819162D01*
X94677562Y-34819158D01*
X94693707Y-34806430D01*
X94707856Y-34796759D01*
X94733313Y-34781794D01*
X94750879Y-34763121D01*
X94764644Y-34750507D01*
X94777740Y-34740183D01*
X94784786Y-34734629D01*
X94801914Y-34710572D01*
X94812780Y-34697320D01*
X94820741Y-34688857D01*
X94833018Y-34675806D01*
X94844642Y-34652944D01*
X94854310Y-34636978D01*
X94869182Y-34616090D01*
X94878869Y-34588194D01*
X94885581Y-34572422D01*
X94894895Y-34554103D01*
X94894897Y-34554097D01*
X94898966Y-34546094D01*
X94903707Y-34520883D01*
X94908504Y-34502856D01*
X94916918Y-34478627D01*
X94918386Y-34449132D01*
X94920401Y-34432109D01*
X94924200Y-34411910D01*
X94924200Y-34411905D01*
X94925859Y-34403085D01*
X94922472Y-34368844D01*
X94922422Y-34368060D01*
X94922477Y-34366959D01*
X94919239Y-34336150D01*
X94919171Y-34335481D01*
X94911921Y-34262201D01*
X94911533Y-34258278D01*
X94911009Y-34256979D01*
X94910778Y-34255655D01*
X93642639Y-22190115D01*
X100999967Y-22190115D01*
X101000382Y-22199082D01*
X101000382Y-22199084D01*
X101001558Y-22224488D01*
X101001566Y-22225275D01*
X101001454Y-22226369D01*
X101002561Y-22247485D01*
X101003068Y-22257165D01*
X101003095Y-22257713D01*
X101006695Y-22335473D01*
X101007150Y-22336798D01*
X101007311Y-22338131D01*
X101275829Y-27461765D01*
X101735774Y-36238046D01*
X101735812Y-36238814D01*
X101738411Y-36294954D01*
X101739398Y-36316286D01*
X101748994Y-36344233D01*
X101753438Y-36360763D01*
X101759151Y-36389746D01*
X101770977Y-36412512D01*
X101778325Y-36429656D01*
X101786654Y-36453915D01*
X101791833Y-36461243D01*
X101791834Y-36461245D01*
X101803701Y-36478036D01*
X101812616Y-36492670D01*
X101826229Y-36518877D01*
X101832438Y-36525363D01*
X101843957Y-36537396D01*
X101855834Y-36551803D01*
X101870636Y-36572748D01*
X101893767Y-36591114D01*
X101906425Y-36602651D01*
X101926854Y-36623992D01*
X101934630Y-36628473D01*
X101934632Y-36628474D01*
X101949071Y-36636794D01*
X101964514Y-36647289D01*
X101977564Y-36657650D01*
X101984596Y-36663233D01*
X102011954Y-36674370D01*
X102027350Y-36681896D01*
X102052937Y-36696639D01*
X102077858Y-36702691D01*
X102095620Y-36708428D01*
X102119372Y-36718097D01*
X102128299Y-36719012D01*
X102128300Y-36719012D01*
X102148758Y-36721108D01*
X102165649Y-36724011D01*
X102181540Y-36727870D01*
X102194342Y-36730979D01*
X102203311Y-36730564D01*
X102203312Y-36730564D01*
X102228701Y-36729389D01*
X102229496Y-36729381D01*
X102230596Y-36729493D01*
X102233571Y-36729337D01*
X102233579Y-36729337D01*
X102261564Y-36727870D01*
X102262332Y-36727832D01*
X102335769Y-36724433D01*
X102335770Y-36724433D01*
X102339700Y-36724251D01*
X102341020Y-36723798D01*
X102342356Y-36723636D01*
X116242430Y-35995165D01*
X116243198Y-35995127D01*
X116262534Y-35994232D01*
X116320513Y-35991548D01*
X116348444Y-35981958D01*
X116364994Y-35977508D01*
X116366358Y-35977239D01*
X116393973Y-35971796D01*
X116416729Y-35959976D01*
X116433887Y-35952622D01*
X116449652Y-35947209D01*
X116449657Y-35947206D01*
X116458142Y-35944293D01*
X116482259Y-35927249D01*
X116496893Y-35918334D01*
X116515139Y-35908856D01*
X116515141Y-35908854D01*
X116523104Y-35904718D01*
X116529587Y-35898512D01*
X116529591Y-35898509D01*
X116541629Y-35886985D01*
X116556036Y-35875108D01*
X116576975Y-35860310D01*
X116595345Y-35837174D01*
X116606880Y-35824521D01*
X116621735Y-35810301D01*
X116621738Y-35810297D01*
X116628219Y-35804093D01*
X116634973Y-35792372D01*
X116641021Y-35781874D01*
X116651519Y-35766427D01*
X116667460Y-35746351D01*
X116678596Y-35718995D01*
X116686118Y-35703606D01*
X116700866Y-35678010D01*
X116706917Y-35653095D01*
X116712657Y-35635323D01*
X116718941Y-35619887D01*
X116718942Y-35619881D01*
X116722324Y-35611574D01*
X116725335Y-35582189D01*
X116728238Y-35565300D01*
X116733087Y-35545333D01*
X116733087Y-35545330D01*
X116735206Y-35536605D01*
X116733616Y-35502246D01*
X116733608Y-35501451D01*
X116733720Y-35500351D01*
X116732097Y-35469378D01*
X116732059Y-35468615D01*
X116728660Y-35395178D01*
X116728660Y-35395177D01*
X116728584Y-35393536D01*
X123464222Y-35393536D01*
X123466688Y-35402165D01*
X123466689Y-35402170D01*
X123472337Y-35421932D01*
X123475915Y-35438693D01*
X123478828Y-35459036D01*
X123478831Y-35459046D01*
X123480103Y-35467929D01*
X123490719Y-35491279D01*
X123497162Y-35508791D01*
X123504210Y-35533449D01*
X123519972Y-35558432D01*
X123528102Y-35573498D01*
X123540331Y-35600394D01*
X123557072Y-35619823D01*
X123568177Y-35634831D01*
X123581858Y-35656515D01*
X123588586Y-35662457D01*
X123603994Y-35676065D01*
X123616038Y-35688257D01*
X123635317Y-35710631D01*
X123642845Y-35715510D01*
X123642848Y-35715513D01*
X123656837Y-35724580D01*
X123671711Y-35735870D01*
X123690926Y-35752840D01*
X123699052Y-35756655D01*
X123699053Y-35756656D01*
X123704719Y-35759316D01*
X123717664Y-35765394D01*
X123732633Y-35773708D01*
X123757425Y-35789777D01*
X123774348Y-35794838D01*
X123781988Y-35797123D01*
X123799434Y-35803785D01*
X123822646Y-35814683D01*
X123851828Y-35819227D01*
X123868547Y-35823010D01*
X123888234Y-35828898D01*
X123888237Y-35828899D01*
X123896839Y-35831471D01*
X123905814Y-35831526D01*
X123905815Y-35831526D01*
X123912508Y-35831567D01*
X123931254Y-35831681D01*
X123932026Y-35831714D01*
X123933121Y-35831884D01*
X123963996Y-35831884D01*
X123964766Y-35831886D01*
X124038414Y-35832336D01*
X124038415Y-35832336D01*
X124042350Y-35832360D01*
X124043694Y-35831976D01*
X124045039Y-35831884D01*
X137963996Y-35831884D01*
X137964767Y-35831886D01*
X138042350Y-35832360D01*
X138050979Y-35829894D01*
X138050984Y-35829893D01*
X138070746Y-35824245D01*
X138087507Y-35820667D01*
X138107850Y-35817754D01*
X138107860Y-35817751D01*
X138116743Y-35816479D01*
X138140093Y-35805863D01*
X138157605Y-35799420D01*
X138173635Y-35794838D01*
X138182263Y-35792372D01*
X138207246Y-35776610D01*
X138222312Y-35768480D01*
X138249208Y-35756251D01*
X138268637Y-35739510D01*
X138283645Y-35728405D01*
X138297737Y-35719514D01*
X138305329Y-35714724D01*
X138324880Y-35692587D01*
X138337072Y-35680543D01*
X138352647Y-35667123D01*
X138352648Y-35667121D01*
X138359445Y-35661265D01*
X138364324Y-35653737D01*
X138364327Y-35653734D01*
X138373394Y-35639745D01*
X138384684Y-35624871D01*
X138395710Y-35612386D01*
X138401654Y-35605656D01*
X138414208Y-35578918D01*
X138422522Y-35563949D01*
X138438591Y-35539157D01*
X138445937Y-35514593D01*
X138452599Y-35497148D01*
X138459681Y-35482063D01*
X138463497Y-35473936D01*
X138468041Y-35444754D01*
X138471824Y-35428035D01*
X138477712Y-35408348D01*
X138477713Y-35408345D01*
X138480285Y-35399743D01*
X138480495Y-35365328D01*
X138480528Y-35364556D01*
X138480698Y-35363461D01*
X138480698Y-35332586D01*
X138480700Y-35331816D01*
X138481150Y-35258168D01*
X138481150Y-35258167D01*
X138481174Y-35254232D01*
X138480790Y-35252888D01*
X138480698Y-35251543D01*
X138480698Y-21332586D01*
X138480700Y-21331816D01*
X138480802Y-21315182D01*
X138481174Y-21254232D01*
X138478708Y-21245603D01*
X138478707Y-21245598D01*
X138473059Y-21225836D01*
X138469481Y-21209075D01*
X138466568Y-21188732D01*
X138466565Y-21188722D01*
X138465293Y-21179839D01*
X138454677Y-21156489D01*
X138448234Y-21138977D01*
X138443652Y-21122947D01*
X138441186Y-21114319D01*
X138425424Y-21089336D01*
X138417294Y-21074270D01*
X138405065Y-21047374D01*
X138388324Y-21027945D01*
X138377219Y-21012937D01*
X138368328Y-20998845D01*
X138368325Y-20998841D01*
X138363538Y-20991253D01*
X138341401Y-20971702D01*
X138329357Y-20959510D01*
X138315937Y-20943935D01*
X138315935Y-20943934D01*
X138310079Y-20937137D01*
X138302551Y-20932258D01*
X138302548Y-20932255D01*
X138288559Y-20923188D01*
X138273685Y-20911898D01*
X138261200Y-20900872D01*
X138254470Y-20894928D01*
X138246344Y-20891113D01*
X138246343Y-20891112D01*
X138240677Y-20888452D01*
X138227732Y-20882374D01*
X138212763Y-20874060D01*
X138187971Y-20857991D01*
X138163407Y-20850645D01*
X138145962Y-20843983D01*
X138141525Y-20841900D01*
X138122750Y-20833085D01*
X138093568Y-20828541D01*
X138076849Y-20824758D01*
X138057162Y-20818870D01*
X138057159Y-20818869D01*
X138048557Y-20816297D01*
X138039582Y-20816242D01*
X138039581Y-20816242D01*
X138032888Y-20816201D01*
X138014142Y-20816087D01*
X138013370Y-20816054D01*
X138012275Y-20815884D01*
X137981400Y-20815884D01*
X137980630Y-20815882D01*
X137906982Y-20815432D01*
X137906981Y-20815432D01*
X137903046Y-20815408D01*
X137901702Y-20815792D01*
X137900357Y-20815884D01*
X123981400Y-20815884D01*
X123980630Y-20815882D01*
X123979776Y-20815877D01*
X123903046Y-20815408D01*
X123894417Y-20817874D01*
X123894412Y-20817875D01*
X123874650Y-20823523D01*
X123857889Y-20827101D01*
X123837546Y-20830014D01*
X123837536Y-20830017D01*
X123828653Y-20831289D01*
X123805303Y-20841905D01*
X123787791Y-20848348D01*
X123779755Y-20850645D01*
X123763133Y-20855396D01*
X123738150Y-20871158D01*
X123723084Y-20879288D01*
X123696188Y-20891517D01*
X123676759Y-20908258D01*
X123661751Y-20919363D01*
X123640067Y-20933044D01*
X123634125Y-20939772D01*
X123620517Y-20955180D01*
X123608325Y-20967224D01*
X123585951Y-20986503D01*
X123581072Y-20994031D01*
X123581069Y-20994034D01*
X123572002Y-21008023D01*
X123560712Y-21022897D01*
X123543742Y-21042112D01*
X123531188Y-21068850D01*
X123522874Y-21083819D01*
X123506805Y-21108611D01*
X123504233Y-21117211D01*
X123499459Y-21133174D01*
X123492797Y-21150620D01*
X123481899Y-21173832D01*
X123479488Y-21189318D01*
X123477356Y-21203012D01*
X123473572Y-21219733D01*
X123467684Y-21239420D01*
X123467683Y-21239423D01*
X123465111Y-21248025D01*
X123465056Y-21257000D01*
X123465056Y-21257001D01*
X123464901Y-21282430D01*
X123464868Y-21283212D01*
X123464698Y-21284307D01*
X123464698Y-21315182D01*
X123464696Y-21315952D01*
X123464391Y-21365953D01*
X123464222Y-21393536D01*
X123464606Y-21394880D01*
X123464698Y-21396225D01*
X123464698Y-35315182D01*
X123464696Y-35315952D01*
X123464222Y-35393536D01*
X116728584Y-35393536D01*
X116728478Y-35391247D01*
X116728025Y-35389927D01*
X116727863Y-35388591D01*
X115999391Y-21488502D01*
X115999353Y-21487734D01*
X115996190Y-21419402D01*
X115995775Y-21410434D01*
X115990897Y-21396225D01*
X115986185Y-21382503D01*
X115981735Y-21365953D01*
X115977758Y-21345778D01*
X115976023Y-21336974D01*
X115964203Y-21314218D01*
X115956849Y-21297060D01*
X115951436Y-21281295D01*
X115951433Y-21281290D01*
X115948520Y-21272805D01*
X115931476Y-21248688D01*
X115922561Y-21234054D01*
X115913083Y-21215808D01*
X115913081Y-21215806D01*
X115908945Y-21207843D01*
X115902739Y-21201360D01*
X115902736Y-21201356D01*
X115891212Y-21189318D01*
X115879335Y-21174911D01*
X115864537Y-21153972D01*
X115841401Y-21135602D01*
X115828748Y-21124067D01*
X115814528Y-21109212D01*
X115814524Y-21109209D01*
X115808320Y-21102728D01*
X115786100Y-21089926D01*
X115770654Y-21079428D01*
X115750578Y-21063487D01*
X115723222Y-21052351D01*
X115707833Y-21044829D01*
X115682237Y-21030081D01*
X115657325Y-21024031D01*
X115639553Y-21018291D01*
X115624115Y-21012007D01*
X115624112Y-21012006D01*
X115615801Y-21008623D01*
X115606878Y-21007709D01*
X115606875Y-21007708D01*
X115592666Y-21006253D01*
X115586427Y-21005613D01*
X115569532Y-21002710D01*
X115549557Y-20997859D01*
X115540832Y-20995740D01*
X115531865Y-20996155D01*
X115531863Y-20996155D01*
X115506459Y-20997331D01*
X115505672Y-20997339D01*
X115504578Y-20997227D01*
X115473617Y-20998849D01*
X115473148Y-20998872D01*
X115395474Y-21002468D01*
X115394149Y-21002923D01*
X115392816Y-21003084D01*
X103360221Y-21633685D01*
X101492899Y-21731547D01*
X101492131Y-21731585D01*
X101469340Y-21732640D01*
X101414661Y-21735171D01*
X101386714Y-21744767D01*
X101370184Y-21749211D01*
X101341201Y-21754924D01*
X101318435Y-21766750D01*
X101301291Y-21774098D01*
X101277032Y-21782427D01*
X101269704Y-21787606D01*
X101269702Y-21787607D01*
X101252911Y-21799474D01*
X101238277Y-21808389D01*
X101212070Y-21822002D01*
X101205584Y-21828211D01*
X101193551Y-21839730D01*
X101179144Y-21851607D01*
X101158199Y-21866409D01*
X101152618Y-21873438D01*
X101139837Y-21889536D01*
X101128296Y-21902198D01*
X101106955Y-21922627D01*
X101102474Y-21930403D01*
X101102473Y-21930405D01*
X101094153Y-21944844D01*
X101083658Y-21960287D01*
X101073297Y-21973337D01*
X101067714Y-21980369D01*
X101056577Y-22007727D01*
X101049051Y-22023123D01*
X101038788Y-22040933D01*
X101038786Y-22040939D01*
X101034308Y-22048710D01*
X101032191Y-22057426D01*
X101032190Y-22057429D01*
X101028256Y-22073630D01*
X101022516Y-22091400D01*
X101012850Y-22115145D01*
X101011936Y-22124071D01*
X101011935Y-22124073D01*
X101009841Y-22144517D01*
X101006937Y-22161414D01*
X101002086Y-22181388D01*
X101002086Y-22181391D01*
X100999967Y-22190115D01*
X93642639Y-22190115D01*
X93455849Y-20412925D01*
X93455771Y-20412160D01*
X93449017Y-20343900D01*
X93448134Y-20334971D01*
X93444782Y-20326652D01*
X93444780Y-20326646D01*
X93437093Y-20307573D01*
X93431783Y-20291279D01*
X93426759Y-20271351D01*
X93426758Y-20271349D01*
X93424564Y-20262646D01*
X93411572Y-20240545D01*
X93403329Y-20223795D01*
X93393741Y-20200005D01*
X93375452Y-20176805D01*
X93365783Y-20162656D01*
X93355369Y-20144941D01*
X93355368Y-20144939D01*
X93350819Y-20137202D01*
X93332144Y-20119634D01*
X93319530Y-20105869D01*
X93303654Y-20085729D01*
X93296339Y-20080521D01*
X93296337Y-20080519D01*
X93279589Y-20068595D01*
X93266342Y-20057734D01*
X93244831Y-20037498D01*
X93236824Y-20033427D01*
X93221972Y-20025875D01*
X93206001Y-20016203D01*
X93192423Y-20006536D01*
X93185115Y-20001333D01*
X93157216Y-19991644D01*
X93141446Y-19984934D01*
X93123120Y-19975617D01*
X93123121Y-19975617D01*
X93115119Y-19971549D01*
X93089908Y-19966808D01*
X93071881Y-19962011D01*
X93047652Y-19953597D01*
X93021635Y-19952302D01*
X93018157Y-19952129D01*
X93001134Y-19950114D01*
X92980935Y-19946315D01*
X92980930Y-19946315D01*
X92972110Y-19944656D01*
X92937869Y-19948043D01*
X92937085Y-19948093D01*
X92935984Y-19948038D01*
X92933039Y-19948347D01*
X92933031Y-19948348D01*
X92918364Y-19949890D01*
X92905175Y-19951276D01*
X92904571Y-19951337D01*
X92827303Y-19958982D01*
X92826004Y-19959506D01*
X92824683Y-19959736D01*
X86671765Y-20606434D01*
X78981950Y-21414666D01*
X78981185Y-21414744D01*
X78912930Y-21421497D01*
X78912929Y-21421497D01*
X78903996Y-21422381D01*
X78876596Y-21433424D01*
X78860305Y-21438732D01*
X78840376Y-21443756D01*
X78840374Y-21443757D01*
X78831671Y-21445951D01*
X78823933Y-21450500D01*
X78809560Y-21458949D01*
X78792806Y-21467193D01*
X78777354Y-21473420D01*
X78777352Y-21473421D01*
X78769030Y-21476775D01*
X78761982Y-21482331D01*
X78761977Y-21482334D01*
X78745835Y-21495059D01*
X78731687Y-21504728D01*
X78713966Y-21515146D01*
X78713964Y-21515148D01*
X78706227Y-21519696D01*
X78688661Y-21538369D01*
X78674896Y-21550983D01*
X78654754Y-21566861D01*
X78649550Y-21574171D01*
X78637625Y-21590920D01*
X78626756Y-21604175D01*
X78606523Y-21625684D01*
X78602456Y-21633684D01*
X78602455Y-21633685D01*
X78594901Y-21648543D01*
X78585227Y-21664517D01*
X78570358Y-21685401D01*
X78560672Y-21713294D01*
X78553962Y-21729061D01*
X78544645Y-21747386D01*
X78544642Y-21747395D01*
X78540574Y-21755396D01*
X78535833Y-21780607D01*
X78531036Y-21798634D01*
X78522622Y-21822863D01*
X78522176Y-21831831D01*
X78521154Y-21852358D01*
X78519139Y-21869381D01*
X78515340Y-21889580D01*
X78515340Y-21889585D01*
X78513681Y-21898405D01*
X76918943Y-21898405D01*
X76736168Y-20143777D01*
X76749005Y-20073952D01*
X76797555Y-20022150D01*
X76848491Y-20005396D01*
X87337457Y-18917445D01*
X94685804Y-18155249D01*
X94755624Y-18168117D01*
X94807405Y-18216689D01*
X94824171Y-18267970D01*
X94906408Y-19085758D01*
X94906802Y-19090621D01*
X94910584Y-19152043D01*
X94913627Y-19160483D01*
X94913628Y-19160490D01*
X94924122Y-19189599D01*
X94927903Y-19202074D01*
X94937484Y-19240812D01*
X94941998Y-19248570D01*
X94945140Y-19253970D01*
X94954765Y-19274604D01*
X94956887Y-19280491D01*
X94956889Y-19280495D01*
X94959932Y-19288936D01*
X94965222Y-19296185D01*
X94965223Y-19296186D01*
X94983458Y-19321172D01*
X94990586Y-19332082D01*
X95006147Y-19358825D01*
X95010663Y-19366586D01*
X95017174Y-19372766D01*
X95017176Y-19372769D01*
X95021706Y-19377069D01*
X95036738Y-19394175D01*
X95040420Y-19399220D01*
X95040424Y-19399224D01*
X95045716Y-19406475D01*
X95052830Y-19411949D01*
X95052831Y-19411950D01*
X95077349Y-19430816D01*
X95087253Y-19439288D01*
X95109689Y-19460584D01*
X95109693Y-19460587D01*
X95116203Y-19466766D01*
X95124188Y-19470871D01*
X95129739Y-19473725D01*
X95148966Y-19485923D01*
X95153923Y-19489737D01*
X95153927Y-19489739D01*
X95161041Y-19495213D01*
X95169408Y-19498471D01*
X95198241Y-19509699D01*
X95210117Y-19515046D01*
X95245617Y-19533297D01*
X95254433Y-19534996D01*
X95260566Y-19536178D01*
X95282446Y-19542490D01*
X95296638Y-19548017D01*
X95305578Y-19548795D01*
X95305580Y-19548796D01*
X95322187Y-19550242D01*
X95336403Y-19551480D01*
X95349313Y-19553281D01*
X95379687Y-19559135D01*
X95379693Y-19559135D01*
X95388503Y-19560833D01*
X95454125Y-19554638D01*
X95457416Y-19554372D01*
X117935715Y-18032491D01*
X117944226Y-18032203D01*
X140147757Y-18032203D01*
X140215878Y-18052205D01*
G37*
%TD.AperFunction*%
M02*
