%TF.GenerationSoftware,KiCad,Pcbnew,(6.0.0)*%
%TF.CreationDate,2022-02-12T21:01:19+07:00*%
%TF.ProjectId,PCB Top,50434220-546f-4702-9e6b-696361645f70,rev?*%
%TF.SameCoordinates,Original*%
%TF.FileFunction,Legend,Bot*%
%TF.FilePolarity,Positive*%
%FSLAX46Y46*%
G04 Gerber Fmt 4.6, Leading zero omitted, Abs format (unit mm)*
G04 Created by KiCad (PCBNEW (6.0.0)) date 2022-02-12 21:01:19*
%MOMM*%
%LPD*%
G01*
G04 APERTURE LIST*
%ADD10C,0.200000*%
%ADD11C,0.150000*%
%ADD12C,0.400000*%
G04 APERTURE END LIST*
D10*
X70601485Y-94275057D02*
X70951389Y-93328639D01*
X71172827Y-94285030D02*
X71207732Y-92285334D01*
X70826837Y-92278686D01*
X70729952Y-92372247D01*
X70680678Y-92466640D01*
X70629742Y-92656256D01*
X70624755Y-92941927D01*
X70669043Y-93133205D01*
X70714992Y-93229260D01*
X70808554Y-93326145D01*
X71189448Y-93332794D01*
X69793747Y-94165705D02*
X69887308Y-94262591D01*
X70077756Y-94265915D01*
X70174641Y-94172354D01*
X70225577Y-93982738D01*
X70238874Y-93220949D01*
X70194587Y-93029671D01*
X70101026Y-92932785D01*
X69910578Y-92929461D01*
X69813693Y-93023022D01*
X69762757Y-93212638D01*
X69759432Y-93403085D01*
X70232226Y-93601843D01*
X69434460Y-92921150D02*
X69173132Y-94250125D01*
X68958342Y-92912839D01*
X67871582Y-92417607D02*
X67825632Y-92321552D01*
X67732071Y-92224667D01*
X67494012Y-92220511D01*
X67397126Y-92314073D01*
X67347852Y-92408465D01*
X67296916Y-92598081D01*
X67293592Y-92788528D01*
X67336217Y-93075030D01*
X67887613Y-94227686D01*
X67268660Y-94216882D01*
D11*
X100579396Y-96503011D02*
X100579396Y-97312535D01*
X100627015Y-97407773D01*
X100674634Y-97455392D01*
X100769873Y-97503011D01*
X100912730Y-97503011D01*
X101007968Y-97455392D01*
X100579396Y-97122058D02*
X100674634Y-97169677D01*
X100865111Y-97169677D01*
X100960349Y-97122058D01*
X101007968Y-97074439D01*
X101055587Y-96979201D01*
X101055587Y-96693487D01*
X101007968Y-96598249D01*
X100960349Y-96550630D01*
X100865111Y-96503011D01*
X100674634Y-96503011D01*
X100579396Y-96550630D01*
X100103206Y-97169677D02*
X100103206Y-96503011D01*
X100103206Y-96169677D02*
X100150825Y-96217297D01*
X100103206Y-96264916D01*
X100055587Y-96217297D01*
X100103206Y-96169677D01*
X100103206Y-96264916D01*
X99769873Y-96503011D02*
X99388920Y-96503011D01*
X99627015Y-96169677D02*
X99627015Y-97026820D01*
X99579396Y-97122058D01*
X99484158Y-97169677D01*
X99388920Y-97169677D01*
X99055587Y-97169677D02*
X99055587Y-96169677D01*
X98627015Y-97169677D02*
X98627015Y-96645868D01*
X98674634Y-96550630D01*
X98769873Y-96503011D01*
X98912730Y-96503011D01*
X99007968Y-96550630D01*
X99055587Y-96598249D01*
X97722254Y-96503011D02*
X97722254Y-97169677D01*
X98150825Y-96503011D02*
X98150825Y-97026820D01*
X98103206Y-97122058D01*
X98007968Y-97169677D01*
X97865111Y-97169677D01*
X97769873Y-97122058D01*
X97722254Y-97074439D01*
X97246063Y-97169677D02*
X97246063Y-96169677D01*
X97246063Y-96550630D02*
X97150825Y-96503011D01*
X96960349Y-96503011D01*
X96865111Y-96550630D01*
X96817492Y-96598249D01*
X96769873Y-96693487D01*
X96769873Y-96979201D01*
X96817492Y-97074439D01*
X96865111Y-97122058D01*
X96960349Y-97169677D01*
X97150825Y-97169677D01*
X97246063Y-97122058D01*
X96341301Y-97074439D02*
X96293682Y-97122058D01*
X96341301Y-97169677D01*
X96388920Y-97122058D01*
X96341301Y-97074439D01*
X96341301Y-97169677D01*
X95436539Y-97122058D02*
X95531777Y-97169677D01*
X95722254Y-97169677D01*
X95817492Y-97122058D01*
X95865111Y-97074439D01*
X95912730Y-96979201D01*
X95912730Y-96693487D01*
X95865111Y-96598249D01*
X95817492Y-96550630D01*
X95722254Y-96503011D01*
X95531777Y-96503011D01*
X95436539Y-96550630D01*
X94865111Y-97169677D02*
X94960349Y-97122058D01*
X95007968Y-97074439D01*
X95055587Y-96979201D01*
X95055587Y-96693487D01*
X95007968Y-96598249D01*
X94960349Y-96550630D01*
X94865111Y-96503011D01*
X94722254Y-96503011D01*
X94627015Y-96550630D01*
X94579396Y-96598249D01*
X94531777Y-96693487D01*
X94531777Y-96979201D01*
X94579396Y-97074439D01*
X94627015Y-97122058D01*
X94722254Y-97169677D01*
X94865111Y-97169677D01*
X94103206Y-97169677D02*
X94103206Y-96503011D01*
X94103206Y-96598249D02*
X94055587Y-96550630D01*
X93960349Y-96503011D01*
X93817492Y-96503011D01*
X93722254Y-96550630D01*
X93674634Y-96645868D01*
X93674634Y-97169677D01*
X93674634Y-96645868D02*
X93627015Y-96550630D01*
X93531777Y-96503011D01*
X93388920Y-96503011D01*
X93293682Y-96550630D01*
X93246063Y-96645868D01*
X93246063Y-97169677D01*
X92055587Y-96122058D02*
X92912730Y-97407773D01*
X91198444Y-96217297D02*
X91293682Y-96169677D01*
X91436539Y-96169677D01*
X91579396Y-96217297D01*
X91674634Y-96312535D01*
X91722254Y-96407773D01*
X91769873Y-96598249D01*
X91769873Y-96741106D01*
X91722254Y-96931582D01*
X91674634Y-97026820D01*
X91579396Y-97122058D01*
X91436539Y-97169677D01*
X91341301Y-97169677D01*
X91198444Y-97122058D01*
X91150825Y-97074439D01*
X91150825Y-96741106D01*
X91341301Y-96741106D01*
X90722254Y-97169677D02*
X90722254Y-96503011D01*
X90722254Y-96693487D02*
X90674634Y-96598249D01*
X90627015Y-96550630D01*
X90531777Y-96503011D01*
X90436539Y-96503011D01*
X89722254Y-97122058D02*
X89817492Y-97169677D01*
X90007968Y-97169677D01*
X90103206Y-97122058D01*
X90150825Y-97026820D01*
X90150825Y-96645868D01*
X90103206Y-96550630D01*
X90007968Y-96503011D01*
X89817492Y-96503011D01*
X89722254Y-96550630D01*
X89674634Y-96645868D01*
X89674634Y-96741106D01*
X90150825Y-96836344D01*
X88865111Y-97122058D02*
X88960349Y-97169677D01*
X89150825Y-97169677D01*
X89246063Y-97122058D01*
X89293682Y-97026820D01*
X89293682Y-96645868D01*
X89246063Y-96550630D01*
X89150825Y-96503011D01*
X88960349Y-96503011D01*
X88865111Y-96550630D01*
X88817492Y-96645868D01*
X88817492Y-96741106D01*
X89293682Y-96836344D01*
X88388920Y-96503011D02*
X88388920Y-97169677D01*
X88388920Y-96598249D02*
X88341301Y-96550630D01*
X88246063Y-96503011D01*
X88103206Y-96503011D01*
X88007968Y-96550630D01*
X87960349Y-96645868D01*
X87960349Y-97169677D01*
X87484158Y-97169677D02*
X87484158Y-96169677D01*
X87150825Y-96883963D01*
X86817492Y-96169677D01*
X86817492Y-97169677D01*
X85912730Y-97169677D02*
X85912730Y-96645868D01*
X85960349Y-96550630D01*
X86055587Y-96503011D01*
X86246063Y-96503011D01*
X86341301Y-96550630D01*
X85912730Y-97122058D02*
X86007968Y-97169677D01*
X86246063Y-97169677D01*
X86341301Y-97122058D01*
X86388920Y-97026820D01*
X86388920Y-96931582D01*
X86341301Y-96836344D01*
X86246063Y-96788725D01*
X86007968Y-96788725D01*
X85912730Y-96741106D01*
X85484158Y-97122058D02*
X85388920Y-97169677D01*
X85198444Y-97169677D01*
X85103206Y-97122058D01*
X85055587Y-97026820D01*
X85055587Y-96979201D01*
X85103206Y-96883963D01*
X85198444Y-96836344D01*
X85341301Y-96836344D01*
X85436539Y-96788725D01*
X85484158Y-96693487D01*
X85484158Y-96645868D01*
X85436539Y-96550630D01*
X85341301Y-96503011D01*
X85198444Y-96503011D01*
X85103206Y-96550630D01*
X84627015Y-97169677D02*
X84627015Y-96169677D01*
X84198444Y-97169677D02*
X84198444Y-96645868D01*
X84246063Y-96550630D01*
X84341301Y-96503011D01*
X84484158Y-96503011D01*
X84579396Y-96550630D01*
X84627015Y-96598249D01*
X83341301Y-97122058D02*
X83436539Y-97169677D01*
X83627015Y-97169677D01*
X83722254Y-97122058D01*
X83769873Y-97026820D01*
X83769873Y-96645868D01*
X83722254Y-96550630D01*
X83627015Y-96503011D01*
X83436539Y-96503011D01*
X83341301Y-96550630D01*
X83293682Y-96645868D01*
X83293682Y-96741106D01*
X83769873Y-96836344D01*
X82436539Y-97169677D02*
X82436539Y-96169677D01*
X82436539Y-97122058D02*
X82531777Y-97169677D01*
X82722254Y-97169677D01*
X82817492Y-97122058D01*
X82865111Y-97074439D01*
X82912730Y-96979201D01*
X82912730Y-96693487D01*
X82865111Y-96598249D01*
X82817492Y-96550630D01*
X82722254Y-96503011D01*
X82531777Y-96503011D01*
X82436539Y-96550630D01*
X81960349Y-97169677D02*
X81960349Y-96169677D01*
X81579396Y-96169677D01*
X81484158Y-96217297D01*
X81436539Y-96264916D01*
X81388920Y-96360154D01*
X81388920Y-96503011D01*
X81436539Y-96598249D01*
X81484158Y-96645868D01*
X81579396Y-96693487D01*
X81960349Y-96693487D01*
X80817492Y-97169677D02*
X80912730Y-97122058D01*
X80960349Y-97074439D01*
X81007968Y-96979201D01*
X81007968Y-96693487D01*
X80960349Y-96598249D01*
X80912730Y-96550630D01*
X80817492Y-96503011D01*
X80674634Y-96503011D01*
X80579396Y-96550630D01*
X80531777Y-96598249D01*
X80484158Y-96693487D01*
X80484158Y-96979201D01*
X80531777Y-97074439D01*
X80579396Y-97122058D01*
X80674634Y-97169677D01*
X80817492Y-97169677D01*
X80198444Y-96503011D02*
X79817492Y-96503011D01*
X80055587Y-96169677D02*
X80055587Y-97026820D01*
X80007968Y-97122058D01*
X79912730Y-97169677D01*
X79817492Y-97169677D01*
X79055587Y-97169677D02*
X79055587Y-96645868D01*
X79103206Y-96550630D01*
X79198444Y-96503011D01*
X79388920Y-96503011D01*
X79484158Y-96550630D01*
X79055587Y-97122058D02*
X79150825Y-97169677D01*
X79388920Y-97169677D01*
X79484158Y-97122058D01*
X79531777Y-97026820D01*
X79531777Y-96931582D01*
X79484158Y-96836344D01*
X79388920Y-96788725D01*
X79150825Y-96788725D01*
X79055587Y-96741106D01*
X78722254Y-96503011D02*
X78341301Y-96503011D01*
X78579396Y-96169677D02*
X78579396Y-97026820D01*
X78531777Y-97122058D01*
X78436539Y-97169677D01*
X78341301Y-97169677D01*
X77865111Y-97169677D02*
X77960349Y-97122058D01*
X78007968Y-97074439D01*
X78055587Y-96979201D01*
X78055587Y-96693487D01*
X78007968Y-96598249D01*
X77960349Y-96550630D01*
X77865111Y-96503011D01*
X77722254Y-96503011D01*
X77627015Y-96550630D01*
X77579396Y-96598249D01*
X77531777Y-96693487D01*
X77531777Y-96979201D01*
X77579396Y-97074439D01*
X77627015Y-97122058D01*
X77722254Y-97169677D01*
X77865111Y-97169677D01*
X76388920Y-96122058D02*
X77246063Y-97407773D01*
X76103206Y-97122058D02*
X75960349Y-97169677D01*
X75722254Y-97169677D01*
X75627015Y-97122058D01*
X75579396Y-97074439D01*
X75531777Y-96979201D01*
X75531777Y-96883963D01*
X75579396Y-96788725D01*
X75627015Y-96741106D01*
X75722254Y-96693487D01*
X75912730Y-96645868D01*
X76007968Y-96598249D01*
X76055587Y-96550630D01*
X76103206Y-96455392D01*
X76103206Y-96360154D01*
X76055587Y-96264916D01*
X76007968Y-96217297D01*
X75912730Y-96169677D01*
X75674634Y-96169677D01*
X75531777Y-96217297D01*
X75103206Y-97169677D02*
X75103206Y-96169677D01*
X74674634Y-97169677D02*
X74674634Y-96645868D01*
X74722254Y-96550630D01*
X74817492Y-96503011D01*
X74960349Y-96503011D01*
X75055587Y-96550630D01*
X75103206Y-96598249D01*
X74198444Y-97169677D02*
X74198444Y-96503011D01*
X74198444Y-96693487D02*
X74150825Y-96598249D01*
X74103206Y-96550630D01*
X74007968Y-96503011D01*
X73912730Y-96503011D01*
X73579396Y-97169677D02*
X73579396Y-96503011D01*
X73579396Y-96169677D02*
X73627015Y-96217297D01*
X73579396Y-96264916D01*
X73531777Y-96217297D01*
X73579396Y-96169677D01*
X73579396Y-96264916D01*
X73103206Y-97169677D02*
X73103206Y-96503011D01*
X73103206Y-96598249D02*
X73055587Y-96550630D01*
X72960349Y-96503011D01*
X72817492Y-96503011D01*
X72722254Y-96550630D01*
X72674634Y-96645868D01*
X72674634Y-97169677D01*
X72674634Y-96645868D02*
X72627015Y-96550630D01*
X72531777Y-96503011D01*
X72388920Y-96503011D01*
X72293682Y-96550630D01*
X72246063Y-96645868D01*
X72246063Y-97169677D01*
X71769873Y-96503011D02*
X71769873Y-97503011D01*
X71769873Y-96550630D02*
X71674634Y-96503011D01*
X71484158Y-96503011D01*
X71388920Y-96550630D01*
X71341301Y-96598249D01*
X71293682Y-96693487D01*
X71293682Y-96979201D01*
X71341301Y-97074439D01*
X71388920Y-97122058D01*
X71484158Y-97169677D01*
X71674634Y-97169677D01*
X71769873Y-97122058D01*
X70436539Y-96503011D02*
X70436539Y-97169677D01*
X70674634Y-96122058D02*
X70912730Y-96836344D01*
X70293682Y-96836344D01*
X69960349Y-96264916D02*
X69912730Y-96217297D01*
X69817492Y-96169677D01*
X69579396Y-96169677D01*
X69484158Y-96217297D01*
X69436539Y-96264916D01*
X69388920Y-96360154D01*
X69388920Y-96455392D01*
X69436539Y-96598249D01*
X70007968Y-97169677D01*
X69388920Y-97169677D01*
D12*
X87048065Y-94277434D02*
X86759070Y-94462895D01*
X86282952Y-94454584D01*
X86095829Y-94260813D01*
X86003930Y-94068703D01*
X85915355Y-93686147D01*
X85922003Y-93305253D01*
X86023875Y-92926020D01*
X86122423Y-92737235D01*
X86316195Y-92550112D01*
X86700413Y-92366314D01*
X86894185Y-92179191D01*
X86992733Y-91990406D01*
X87094605Y-91611174D01*
X87101253Y-91230279D01*
X87012678Y-90847723D01*
X86920779Y-90655613D01*
X86733656Y-90461842D01*
X86257538Y-90453531D01*
X85968543Y-90638992D01*
X85045045Y-94432976D02*
X85114855Y-90433586D01*
X84188033Y-94418017D02*
X84224600Y-92323098D01*
X84326472Y-91943866D01*
X84520244Y-91756743D01*
X84805914Y-91761729D01*
X84993037Y-91955501D01*
X85084937Y-92147610D01*
X83235797Y-94401396D02*
X83282337Y-91735135D01*
X83269040Y-92496924D02*
X83180465Y-92114368D01*
X83088565Y-91922258D01*
X82901443Y-91728487D01*
X82710995Y-91725163D01*
X81997891Y-94379788D02*
X82044430Y-91713528D01*
X82067700Y-90380397D02*
X82159599Y-90572507D01*
X82061052Y-90761292D01*
X81969152Y-90569182D01*
X82067700Y-90380397D01*
X82061052Y-90761292D01*
X81045655Y-94363167D02*
X81092194Y-91696906D01*
X81085546Y-92077801D02*
X80993646Y-91885691D01*
X80806524Y-91691920D01*
X80520853Y-91686933D01*
X80327081Y-91874056D01*
X80225209Y-92253289D01*
X80188642Y-94348208D01*
X80225209Y-92253289D02*
X80136634Y-91870732D01*
X79949511Y-91676961D01*
X79663841Y-91671974D01*
X79470069Y-91859097D01*
X79368197Y-92238329D01*
X79331630Y-94333248D01*
X78425934Y-91650367D02*
X78356124Y-95649757D01*
X78422610Y-91840814D02*
X78235487Y-91647042D01*
X77854592Y-91640394D01*
X77660821Y-91827517D01*
X77562273Y-92016302D01*
X77460401Y-92395534D01*
X77440455Y-93538217D01*
X77529030Y-93920773D01*
X77620930Y-94112883D01*
X77808053Y-94306654D01*
X78188947Y-94313303D01*
X78382718Y-94126180D01*
X74236096Y-91577233D02*
X74189556Y-94243493D01*
X74738808Y-90061966D02*
X75165062Y-92926984D01*
X73927155Y-92905376D01*
X73300481Y-90608375D02*
X73208582Y-90416266D01*
X73021459Y-90222495D01*
X72545341Y-90214184D01*
X72351570Y-90401307D01*
X72253022Y-90590092D01*
X72151150Y-90969324D01*
X72144501Y-91350218D01*
X72229752Y-91923222D01*
X73332544Y-94228534D01*
X72094637Y-94206926D01*
%TO.C,G\u002A\u002A\u002A*%
G36*
X96453601Y-92534650D02*
G01*
X96770630Y-92021339D01*
X97004048Y-91465587D01*
X97150592Y-90875730D01*
X97207001Y-90260104D01*
X97170016Y-89627044D01*
X97137987Y-89422497D01*
X97102019Y-89212680D01*
X97076597Y-89043283D01*
X97064738Y-88935834D01*
X97066010Y-88909095D01*
X97115683Y-88922604D01*
X97226402Y-88973490D01*
X97344794Y-89035026D01*
X97887673Y-89285409D01*
X98428529Y-89449145D01*
X98958413Y-89525245D01*
X99468370Y-89512715D01*
X99949450Y-89410564D01*
X100133136Y-89343836D01*
X100382924Y-89241236D01*
X100371707Y-89401648D01*
X100343932Y-89596381D01*
X100287786Y-89852462D01*
X100211832Y-90138308D01*
X100124628Y-90422337D01*
X100034736Y-90672966D01*
X100012008Y-90728694D01*
X99693223Y-91365026D01*
X99304230Y-91933658D01*
X98850564Y-92430731D01*
X98337763Y-92852384D01*
X97771367Y-93194756D01*
X97156909Y-93453986D01*
X96499930Y-93626215D01*
X95805964Y-93707583D01*
X95734837Y-93710571D01*
X95182131Y-93730062D01*
X92643547Y-94802058D01*
X90104964Y-95874053D01*
X89854514Y-95562492D01*
X89701624Y-95353824D01*
X89605493Y-95169117D01*
X89545835Y-94968589D01*
X89541672Y-94948942D01*
X89509441Y-94691333D01*
X89799395Y-94691333D01*
X89837997Y-94906949D01*
X89901485Y-95083619D01*
X89986719Y-95253253D01*
X90078040Y-95390269D01*
X90159785Y-95469084D01*
X90188030Y-95478707D01*
X90245134Y-95460298D01*
X90384624Y-95406450D01*
X90596963Y-95321092D01*
X90872611Y-95208151D01*
X91202029Y-95071556D01*
X91575680Y-94915235D01*
X91984023Y-94743116D01*
X92313015Y-94603598D01*
X92816465Y-94388824D01*
X93233588Y-94209131D01*
X93570564Y-94061613D01*
X93833569Y-93943365D01*
X94028784Y-93851484D01*
X94162387Y-93783062D01*
X94240555Y-93735196D01*
X94269466Y-93704982D01*
X94256489Y-93689847D01*
X94179561Y-93671811D01*
X94019380Y-93637587D01*
X93789530Y-93589882D01*
X93503591Y-93531404D01*
X93175147Y-93464861D01*
X92817780Y-93392958D01*
X92445074Y-93318403D01*
X92070609Y-93243904D01*
X91707969Y-93172166D01*
X91370736Y-93105897D01*
X91072492Y-93047805D01*
X90826819Y-93000596D01*
X90647302Y-92966977D01*
X90547521Y-92949655D01*
X90534080Y-92947953D01*
X90468149Y-92983136D01*
X90368558Y-93080430D01*
X90258321Y-93216872D01*
X90041510Y-93573938D01*
X89889285Y-93952640D01*
X89806848Y-94332074D01*
X89799395Y-94691333D01*
X89509441Y-94691333D01*
X89503409Y-94643120D01*
X89504610Y-94320786D01*
X89505893Y-94311029D01*
X89543601Y-94024425D01*
X89583850Y-93878406D01*
X89613872Y-93765199D01*
X89611226Y-93655321D01*
X89571836Y-93512677D01*
X89529685Y-93398459D01*
X89469813Y-93223189D01*
X89438795Y-93065028D01*
X89432789Y-92907362D01*
X89737235Y-92907362D01*
X89749973Y-93085994D01*
X89775243Y-93188956D01*
X89810386Y-93254926D01*
X89843913Y-93267566D01*
X89894481Y-93217384D01*
X89980748Y-93094881D01*
X89991716Y-93078788D01*
X90106290Y-92921396D01*
X90222260Y-92778649D01*
X90274945Y-92721420D01*
X90399526Y-92596903D01*
X92252916Y-92971416D01*
X92765731Y-93074847D01*
X93188721Y-93159549D01*
X93530021Y-93226884D01*
X93797766Y-93278213D01*
X94000092Y-93314899D01*
X94145133Y-93338301D01*
X94241028Y-93349781D01*
X94295909Y-93350700D01*
X94317913Y-93342420D01*
X94315176Y-93326302D01*
X94306450Y-93315018D01*
X94256481Y-93276649D01*
X94132850Y-93188681D01*
X93944770Y-93057476D01*
X93701453Y-92889391D01*
X93412116Y-92690786D01*
X93085971Y-92468020D01*
X92732233Y-92227456D01*
X92647614Y-92170056D01*
X91032886Y-91075270D01*
X90866181Y-91147217D01*
X90676332Y-91257797D01*
X90460135Y-91427896D01*
X90244304Y-91632271D01*
X90055553Y-91845679D01*
X89923103Y-92038342D01*
X89831638Y-92223427D01*
X89777849Y-92398373D01*
X89748606Y-92610701D01*
X89742432Y-92692108D01*
X89737235Y-92907362D01*
X89432789Y-92907362D01*
X89431905Y-92884166D01*
X89442400Y-92671127D01*
X89442679Y-92665447D01*
X89460159Y-92455667D01*
X89485816Y-92300794D01*
X89531279Y-92165077D01*
X89608177Y-92012764D01*
X89713695Y-91832243D01*
X89857645Y-91568349D01*
X89944196Y-91356663D01*
X89967876Y-91243602D01*
X90015537Y-91034688D01*
X90337497Y-91034688D01*
X90376245Y-91060524D01*
X90486822Y-91021737D01*
X90673866Y-90921395D01*
X90674668Y-90920935D01*
X90843910Y-90830684D01*
X90983263Y-90768917D01*
X91068178Y-90746158D01*
X91078193Y-90747876D01*
X91130532Y-90780837D01*
X91256503Y-90864008D01*
X91447079Y-90991319D01*
X91693234Y-91156698D01*
X91985940Y-91354077D01*
X92316171Y-91577386D01*
X92674901Y-91820554D01*
X92829231Y-91925338D01*
X93195313Y-92173748D01*
X93535104Y-92403816D01*
X93839838Y-92609641D01*
X94100751Y-92785329D01*
X94309076Y-92924981D01*
X94456047Y-93022698D01*
X94532900Y-93072586D01*
X94542213Y-93077863D01*
X94520696Y-93041628D01*
X94448675Y-92942048D01*
X94337458Y-92794386D01*
X94199465Y-92615327D01*
X94071177Y-92450158D01*
X93894109Y-92221748D01*
X93680584Y-91946016D01*
X93442924Y-91638880D01*
X93193455Y-91316261D01*
X92952455Y-91004382D01*
X92066354Y-89857243D01*
X91818449Y-89904433D01*
X91429063Y-90017335D01*
X91066760Y-90196162D01*
X90753115Y-90427092D01*
X90509701Y-90696298D01*
X90456935Y-90776871D01*
X90365940Y-90941160D01*
X90337497Y-91034688D01*
X90015537Y-91034688D01*
X90020593Y-91012528D01*
X90031894Y-90962995D01*
X90176266Y-90671075D01*
X90385862Y-90386236D01*
X90645551Y-90126873D01*
X90940201Y-89911382D01*
X91157608Y-89797173D01*
X91380013Y-89711549D01*
X91624716Y-89636740D01*
X91859557Y-89580903D01*
X92052379Y-89552196D01*
X92128508Y-89550900D01*
X92185260Y-89593234D01*
X92300726Y-89716333D01*
X92474811Y-89920082D01*
X92707420Y-90204366D01*
X92998458Y-90569067D01*
X93347832Y-91014071D01*
X93755448Y-91539262D01*
X93778802Y-91569497D01*
X95332428Y-93581335D01*
X95581748Y-93400609D01*
X95719924Y-93283123D01*
X96303715Y-93283123D01*
X96331451Y-93299472D01*
X96427358Y-93289756D01*
X96604445Y-93254142D01*
X96647994Y-93244539D01*
X97215341Y-93068355D01*
X97756312Y-92802418D01*
X98261828Y-92455471D01*
X98722803Y-92036254D01*
X99130153Y-91553509D01*
X99474799Y-91015978D01*
X99747656Y-90432402D01*
X99839519Y-90173011D01*
X99890243Y-90004556D01*
X99922230Y-89877137D01*
X99929034Y-89816677D01*
X99928394Y-89815614D01*
X99872312Y-89811979D01*
X99763379Y-89833498D01*
X99760650Y-89834236D01*
X99440760Y-89886481D01*
X99062581Y-89892261D01*
X98654892Y-89854289D01*
X98246474Y-89775280D01*
X97866106Y-89657954D01*
X97857293Y-89654588D01*
X97549153Y-89536252D01*
X97568363Y-89822157D01*
X97573390Y-90136956D01*
X97553516Y-90495794D01*
X97512757Y-90860427D01*
X97455121Y-91192612D01*
X97402967Y-91398328D01*
X97247810Y-91845023D01*
X97067765Y-92236907D01*
X96846206Y-92602563D01*
X96566501Y-92970567D01*
X96331141Y-93240549D01*
X96303715Y-93283123D01*
X95719924Y-93283123D01*
X95764287Y-93245403D01*
X96056219Y-92997185D01*
X96453601Y-92534650D01*
G37*
G36*
X93484655Y-84438724D02*
G01*
X93531199Y-84376982D01*
X93656674Y-84347535D01*
X93824917Y-84334168D01*
X94255986Y-84265514D01*
X94708279Y-84118850D01*
X95159339Y-83906121D01*
X95586711Y-83639275D01*
X95967940Y-83330257D01*
X96229335Y-83055017D01*
X96344448Y-82922644D01*
X96437319Y-82827924D01*
X96488177Y-82790989D01*
X96488628Y-82790979D01*
X96537197Y-82817370D01*
X96657652Y-82891348D01*
X96838436Y-83005387D01*
X97067990Y-83151964D01*
X97334760Y-83323553D01*
X97627185Y-83512630D01*
X97933709Y-83711669D01*
X98242776Y-83913147D01*
X98542827Y-84109539D01*
X98822306Y-84293320D01*
X99069654Y-84456964D01*
X99273315Y-84592948D01*
X99421733Y-84693748D01*
X99503347Y-84751837D01*
X99514092Y-84760786D01*
X99511536Y-84824854D01*
X99446092Y-84941591D01*
X99329354Y-85096936D01*
X99172912Y-85276832D01*
X98988361Y-85467221D01*
X98787294Y-85654040D01*
X98752879Y-85683939D01*
X98259666Y-86048330D01*
X97739762Y-86316780D01*
X97194298Y-86488877D01*
X96624399Y-86564210D01*
X96334705Y-86565609D01*
X96095978Y-86551875D01*
X95872372Y-86529909D01*
X95697698Y-86503413D01*
X95638329Y-86489343D01*
X95121989Y-86287805D01*
X94649106Y-86007818D01*
X94231740Y-85659669D01*
X93881951Y-85253643D01*
X93611800Y-84800025D01*
X93582058Y-84735632D01*
X93556395Y-84674070D01*
X93911001Y-84674070D01*
X93921827Y-84743264D01*
X93985770Y-84863149D01*
X94107851Y-85045259D01*
X94146385Y-85099544D01*
X94477963Y-85480189D01*
X94879487Y-85801085D01*
X95332408Y-86049058D01*
X95646395Y-86165140D01*
X95972316Y-86233077D01*
X96348474Y-86263002D01*
X96732329Y-86254215D01*
X97081342Y-86206020D01*
X97150356Y-86189768D01*
X97571756Y-86053774D01*
X97956966Y-85867088D01*
X98333808Y-85614427D01*
X98609890Y-85388053D01*
X98789361Y-85225964D01*
X98937753Y-85082043D01*
X99040199Y-84971421D01*
X99081831Y-84909226D01*
X99082061Y-84907501D01*
X99042589Y-84859893D01*
X98926646Y-84765325D01*
X98742576Y-84629801D01*
X98498729Y-84459327D01*
X98203452Y-84259912D01*
X97948688Y-84091983D01*
X97642024Y-83891729D01*
X97357705Y-83706005D01*
X97108040Y-83542857D01*
X96905339Y-83410331D01*
X96761915Y-83316472D01*
X96690490Y-83269602D01*
X96640125Y-83240949D01*
X96590328Y-83233740D01*
X96526751Y-83256272D01*
X96435043Y-83316840D01*
X96300857Y-83423743D01*
X96109843Y-83585277D01*
X96037564Y-83647129D01*
X95785702Y-83856676D01*
X95577193Y-84013100D01*
X95384872Y-84134180D01*
X95181574Y-84237692D01*
X95039576Y-84300222D01*
X94803785Y-84394363D01*
X94565922Y-84480136D01*
X94363974Y-84544174D01*
X94294469Y-84562448D01*
X94129472Y-84601219D01*
X93999508Y-84631863D01*
X93948278Y-84644026D01*
X93911001Y-84674070D01*
X93556395Y-84674070D01*
X93545748Y-84648529D01*
X93505466Y-84551896D01*
X93484655Y-84438724D01*
G37*
G36*
X95745119Y-86753486D02*
G01*
X96331100Y-86796048D01*
X96776135Y-86813583D01*
X97129379Y-86794784D01*
X97242320Y-86777645D01*
X97468966Y-86721195D01*
X97738946Y-86632902D01*
X98022574Y-86524649D01*
X98290165Y-86408318D01*
X98512033Y-86295790D01*
X98627716Y-86223129D01*
X98791024Y-86104136D01*
X99940132Y-87226087D01*
X100219454Y-87500568D01*
X100474249Y-87754339D01*
X100696000Y-87978645D01*
X100876184Y-88164731D01*
X101006279Y-88303844D01*
X101077765Y-88387229D01*
X101089022Y-88406416D01*
X101046215Y-88481850D01*
X100930569Y-88585627D01*
X100760614Y-88705450D01*
X100554878Y-88829011D01*
X100331891Y-88944013D01*
X100176058Y-89012588D01*
X99676504Y-89165843D01*
X99166368Y-89223357D01*
X98636619Y-89185711D01*
X98351917Y-89129082D01*
X97832612Y-88954407D01*
X97338632Y-88689545D01*
X96880067Y-88343136D01*
X96467004Y-87923826D01*
X96109535Y-87440258D01*
X95944559Y-87144014D01*
X96269588Y-87144014D01*
X96363209Y-87297068D01*
X96500037Y-87489065D01*
X96689309Y-87713629D01*
X96904239Y-87942310D01*
X97118044Y-88146658D01*
X97303940Y-88298221D01*
X97309267Y-88301979D01*
X97796326Y-88596204D01*
X98282786Y-88793300D01*
X98777060Y-88895731D01*
X99287563Y-88905959D01*
X99354168Y-88900769D01*
X99561641Y-88868397D01*
X99794822Y-88809837D01*
X100033575Y-88733006D01*
X100257757Y-88645823D01*
X100447230Y-88556203D01*
X100581853Y-88472065D01*
X100641488Y-88401324D01*
X100642639Y-88394262D01*
X100609086Y-88349746D01*
X100513076Y-88245211D01*
X100363950Y-88090241D01*
X100171049Y-87894422D01*
X99943713Y-87667339D01*
X99702758Y-87429816D01*
X98760023Y-86506196D01*
X98608729Y-86598740D01*
X98431493Y-86690288D01*
X98189389Y-86793178D01*
X97914842Y-86895655D01*
X97640278Y-86985967D01*
X97398126Y-87052359D01*
X97301702Y-87072496D01*
X97084377Y-87102395D01*
X96829125Y-87125429D01*
X96633397Y-87135154D01*
X96269588Y-87144014D01*
X95944559Y-87144014D01*
X95931389Y-87120365D01*
X95862236Y-86996188D01*
X95745119Y-86753486D01*
G37*
G36*
X90593075Y-82252191D02*
G01*
X91098505Y-82094577D01*
X91527829Y-81896469D01*
X91900950Y-81645342D01*
X92237772Y-81328674D01*
X92440292Y-81089882D01*
X92730978Y-80659269D01*
X92925843Y-80226378D01*
X92958276Y-80123132D01*
X93007623Y-79979614D01*
X93054392Y-79917499D01*
X93107622Y-79917877D01*
X93508583Y-80075368D01*
X93928203Y-80240859D01*
X94356297Y-80410271D01*
X94782678Y-80579532D01*
X95197161Y-80744565D01*
X95589561Y-80901297D01*
X95949691Y-81045651D01*
X96267367Y-81173553D01*
X96532403Y-81280930D01*
X96734614Y-81363703D01*
X96863813Y-81417800D01*
X96909724Y-81438999D01*
X96903955Y-81501520D01*
X96850531Y-81627968D01*
X96759624Y-81800680D01*
X96641400Y-82001994D01*
X96506030Y-82214248D01*
X96363684Y-82419781D01*
X96282803Y-82527827D01*
X95971175Y-82883906D01*
X95605055Y-83226921D01*
X95216656Y-83528951D01*
X94891838Y-83733277D01*
X94367182Y-83967379D01*
X93802945Y-84118337D01*
X93218867Y-84183516D01*
X92634686Y-84160276D01*
X92231181Y-84088775D01*
X91984483Y-84009480D01*
X91695040Y-83885199D01*
X91398332Y-83733250D01*
X91129836Y-83570943D01*
X91036763Y-83505879D01*
X90833770Y-83335853D01*
X90606712Y-83113514D01*
X90385725Y-82870586D01*
X90200943Y-82638794D01*
X90184588Y-82615632D01*
X90583087Y-82615632D01*
X90607703Y-82671200D01*
X90691930Y-82773997D01*
X90818816Y-82906919D01*
X90971411Y-83052864D01*
X91132764Y-83194732D01*
X91250863Y-83289334D01*
X91459971Y-83423877D01*
X91728616Y-83562738D01*
X92018760Y-83688343D01*
X92292365Y-83783120D01*
X92358968Y-83801270D01*
X92583495Y-83839961D01*
X92868836Y-83863734D01*
X93176765Y-83871518D01*
X93469058Y-83862242D01*
X93686771Y-83838487D01*
X94065242Y-83741451D01*
X94473642Y-83579475D01*
X94882735Y-83368235D01*
X95263285Y-83123409D01*
X95586057Y-82860676D01*
X95675642Y-82771945D01*
X95837938Y-82590928D01*
X96003484Y-82388269D01*
X96161207Y-82179878D01*
X96300032Y-81981667D01*
X96408888Y-81809544D01*
X96476700Y-81679419D01*
X96492392Y-81607203D01*
X96489647Y-81602440D01*
X96435159Y-81573908D01*
X96301130Y-81515557D01*
X96100596Y-81432455D01*
X95846594Y-81329671D01*
X95552159Y-81212275D01*
X95230328Y-81085336D01*
X94894136Y-80953925D01*
X94556620Y-80823109D01*
X94230818Y-80697958D01*
X93929764Y-80583542D01*
X93666493Y-80484929D01*
X93454045Y-80407190D01*
X93305454Y-80355394D01*
X93233755Y-80334610D01*
X93229580Y-80334711D01*
X93183497Y-80400077D01*
X93181053Y-80415212D01*
X93155647Y-80480497D01*
X93090404Y-80610525D01*
X92996370Y-80783957D01*
X92924783Y-80910302D01*
X92623160Y-81347579D01*
X92255582Y-81737067D01*
X91838654Y-82065624D01*
X91388986Y-82320109D01*
X90935835Y-82484122D01*
X90766222Y-82533642D01*
X90639832Y-82580583D01*
X90583386Y-82614982D01*
X90583087Y-82615632D01*
X90184588Y-82615632D01*
X90165712Y-82588901D01*
X90163947Y-82586323D01*
X90033738Y-82396104D01*
X90593075Y-82252191D01*
G37*
G36*
X83727354Y-78762025D02*
G01*
X83595498Y-78689464D01*
X83486783Y-78607265D01*
X83377877Y-78500077D01*
X83245448Y-78352550D01*
X83223563Y-78327646D01*
X83059596Y-78125419D01*
X82915728Y-77919762D01*
X82813670Y-77742527D01*
X82792904Y-77695803D01*
X82717562Y-77390838D01*
X82715234Y-77119289D01*
X83021131Y-77119289D01*
X83043980Y-77419138D01*
X83163755Y-77726128D01*
X83381456Y-78042552D01*
X83466155Y-78139820D01*
X83593897Y-78272837D01*
X83712962Y-78374139D01*
X83849466Y-78460387D01*
X84029519Y-78548239D01*
X84260569Y-78646657D01*
X84500089Y-78743398D01*
X84680099Y-78807230D01*
X84832656Y-78845444D01*
X84989817Y-78865326D01*
X85183639Y-78874163D01*
X85269663Y-78876066D01*
X85491480Y-78876580D01*
X85686631Y-78870202D01*
X85825643Y-78858187D01*
X85864103Y-78850693D01*
X85908578Y-78829285D01*
X85891330Y-78802687D01*
X85801136Y-78764524D01*
X85626773Y-78708422D01*
X85598463Y-78699819D01*
X85057158Y-78486896D01*
X84533155Y-78184782D01*
X84043695Y-77804284D01*
X83805350Y-77575739D01*
X83624998Y-77385244D01*
X83461338Y-77204072D01*
X83332357Y-77052662D01*
X83256038Y-76951461D01*
X83255898Y-76951241D01*
X83168319Y-76843762D01*
X83101181Y-76832001D01*
X83053154Y-76916913D01*
X83022907Y-77099447D01*
X83021131Y-77119289D01*
X82715234Y-77119289D01*
X82715051Y-77097886D01*
X82714787Y-77066982D01*
X82782923Y-76761222D01*
X82840503Y-76631426D01*
X82905384Y-76502859D01*
X82925422Y-76413139D01*
X82902851Y-76314389D01*
X82860254Y-76207884D01*
X82800813Y-75995544D01*
X82766014Y-75728978D01*
X82758504Y-75451514D01*
X82780935Y-75206479D01*
X82795031Y-75141366D01*
X82882745Y-74960315D01*
X83038749Y-74775929D01*
X83235870Y-74614649D01*
X83446933Y-74502916D01*
X83453775Y-74500396D01*
X83671478Y-74446278D01*
X83970634Y-74408019D01*
X84333991Y-74385421D01*
X84744302Y-74378286D01*
X85184314Y-74386419D01*
X85636778Y-74409623D01*
X86084444Y-74447703D01*
X86510060Y-74500460D01*
X86740771Y-74537841D01*
X87337871Y-74645097D01*
X87847123Y-74737981D01*
X88279301Y-74818623D01*
X88645186Y-74889148D01*
X88955555Y-74951688D01*
X89221189Y-75008369D01*
X89452865Y-75061319D01*
X89661361Y-75112667D01*
X89691893Y-75120515D01*
X90009334Y-75201783D01*
X90370673Y-75293086D01*
X90722936Y-75381086D01*
X90923268Y-75430522D01*
X91213309Y-75503132D01*
X91519939Y-75582415D01*
X91802342Y-75657696D01*
X91981536Y-75707336D01*
X92214083Y-75767258D01*
X92526788Y-75838640D01*
X92900947Y-75917882D01*
X93317856Y-76001383D01*
X93758812Y-76085544D01*
X94205112Y-76166765D01*
X94638056Y-76241445D01*
X95038936Y-76305985D01*
X95270390Y-76340357D01*
X95647287Y-76390147D01*
X96075614Y-76440169D01*
X96538859Y-76489054D01*
X97020510Y-76535425D01*
X97504055Y-76577912D01*
X97972984Y-76615139D01*
X98410783Y-76645735D01*
X98800941Y-76668327D01*
X99126946Y-76681540D01*
X99372287Y-76684003D01*
X99396468Y-76683487D01*
X99622982Y-76673022D01*
X99863140Y-76652127D01*
X100124532Y-76619108D01*
X100414755Y-76572277D01*
X100741401Y-76509940D01*
X101112065Y-76430407D01*
X101534340Y-76331987D01*
X102015820Y-76212989D01*
X102564100Y-76071720D01*
X103186773Y-75906488D01*
X103891434Y-75715606D01*
X104533273Y-75539439D01*
X105044180Y-75407152D01*
X105486561Y-75313096D01*
X105883007Y-75254292D01*
X106256107Y-75227759D01*
X106628447Y-75230518D01*
X106800205Y-75240411D01*
X107068851Y-75263877D01*
X107250552Y-75292458D01*
X107358360Y-75330976D01*
X107405327Y-75384253D01*
X107404506Y-75457109D01*
X107402996Y-75463068D01*
X107383326Y-75501391D01*
X107337360Y-75526855D01*
X107248575Y-75541500D01*
X107100450Y-75547368D01*
X106876461Y-75546500D01*
X106744480Y-75544420D01*
X106381618Y-75543368D01*
X106060624Y-75556521D01*
X105755738Y-75587600D01*
X105441199Y-75640322D01*
X105091243Y-75718408D01*
X104680113Y-75825578D01*
X104551433Y-75861051D01*
X103698166Y-76095906D01*
X102934907Y-76300748D01*
X102256644Y-76476727D01*
X101658366Y-76624997D01*
X101135061Y-76746712D01*
X100681720Y-76843023D01*
X100293329Y-76915084D01*
X99964876Y-76964045D01*
X99691354Y-76991061D01*
X99621465Y-76994962D01*
X99387079Y-76997492D01*
X99069475Y-76989145D01*
X98684706Y-76971144D01*
X98248817Y-76944716D01*
X97777860Y-76911086D01*
X97287882Y-76871479D01*
X96794934Y-76827122D01*
X96315062Y-76779238D01*
X95864316Y-76729055D01*
X95458745Y-76677796D01*
X95447355Y-76676243D01*
X95044030Y-76617252D01*
X94593978Y-76544850D01*
X94115679Y-76462557D01*
X93627615Y-76373888D01*
X93148263Y-76282364D01*
X92696106Y-76191503D01*
X92289620Y-76104823D01*
X91947288Y-76025841D01*
X91712890Y-75965251D01*
X91310054Y-75855934D01*
X90851076Y-75737232D01*
X90356511Y-75613994D01*
X89846909Y-75491066D01*
X89342828Y-75373295D01*
X88864819Y-75265529D01*
X88433435Y-75172617D01*
X88069230Y-75099404D01*
X87940760Y-75075609D01*
X87601629Y-75014942D01*
X87250968Y-74952192D01*
X86918717Y-74892720D01*
X86634819Y-74841885D01*
X86486053Y-74815233D01*
X86150723Y-74767360D01*
X85752343Y-74729851D01*
X85320602Y-74703858D01*
X84885187Y-74690531D01*
X84475784Y-74691022D01*
X84122078Y-74706479D01*
X83990261Y-74718485D01*
X83692338Y-74765517D01*
X83470444Y-74835958D01*
X83301683Y-74938587D01*
X83222247Y-75012967D01*
X83156450Y-75138267D01*
X83112663Y-75329881D01*
X83091955Y-75556335D01*
X83095389Y-75786160D01*
X83124035Y-75987887D01*
X83178959Y-76130045D01*
X83184139Y-76137390D01*
X83228945Y-76121826D01*
X83329754Y-76061640D01*
X83425227Y-75997274D01*
X83805544Y-75777806D01*
X84226030Y-75627459D01*
X84691928Y-75546174D01*
X85208485Y-75533891D01*
X85780944Y-75590552D01*
X86414549Y-75716097D01*
X87114544Y-75910469D01*
X87252789Y-75954305D01*
X87487014Y-76025753D01*
X87797784Y-76114340D01*
X88164263Y-76214470D01*
X88565616Y-76320547D01*
X88981005Y-76426972D01*
X89385842Y-76527240D01*
X89805385Y-76631294D01*
X90241266Y-76743222D01*
X90670338Y-76856812D01*
X91069457Y-76965852D01*
X91415477Y-77064127D01*
X91665647Y-77139260D01*
X92226986Y-77310175D01*
X92826439Y-77484219D01*
X93447773Y-77657237D01*
X94074753Y-77825072D01*
X94691144Y-77983567D01*
X95280711Y-78128565D01*
X95827220Y-78255911D01*
X96314437Y-78361447D01*
X96726127Y-78441017D01*
X96799554Y-78453716D01*
X97438741Y-78528794D01*
X98101818Y-78546515D01*
X98761336Y-78508466D01*
X99389850Y-78416237D01*
X99959911Y-78271415D01*
X99962237Y-78270668D01*
X100178353Y-78213471D01*
X100426715Y-78166744D01*
X100681646Y-78133149D01*
X100917463Y-78115347D01*
X101108488Y-78116003D01*
X101229038Y-78137779D01*
X101231823Y-78139029D01*
X101308036Y-78212460D01*
X101321485Y-78242040D01*
X101309793Y-78336180D01*
X101206761Y-78400513D01*
X101010641Y-78435749D01*
X100822884Y-78443452D01*
X100350447Y-78494708D01*
X100046107Y-78575293D01*
X99438339Y-78729599D01*
X98769645Y-78824724D01*
X98060853Y-78859074D01*
X97332791Y-78831055D01*
X97057259Y-78803938D01*
X96697773Y-78751906D01*
X96254254Y-78669923D01*
X95737226Y-78560592D01*
X95157206Y-78426515D01*
X94524720Y-78270297D01*
X93850284Y-78094542D01*
X93144423Y-77901852D01*
X92417655Y-77694831D01*
X91680502Y-77476083D01*
X91633305Y-77461771D01*
X91244485Y-77347232D01*
X90789611Y-77218978D01*
X90300125Y-77085515D01*
X89807473Y-76955348D01*
X89343101Y-76836981D01*
X89126795Y-76783779D01*
X88729545Y-76685338D01*
X88324891Y-76581104D01*
X87934756Y-76477010D01*
X87581072Y-76378991D01*
X87285764Y-76292978D01*
X87109953Y-76238008D01*
X86563975Y-76078249D01*
X86024912Y-75957533D01*
X85514522Y-75879507D01*
X85054561Y-75847816D01*
X84810717Y-75852630D01*
X84450434Y-75903503D01*
X84095013Y-76005112D01*
X83774707Y-76146347D01*
X83519766Y-76316101D01*
X83498900Y-76334335D01*
X83318939Y-76496168D01*
X83470558Y-76714431D01*
X83567449Y-76839444D01*
X83713877Y-77011023D01*
X83888694Y-77205000D01*
X84042830Y-77368417D01*
X84490152Y-77771713D01*
X84977527Y-78091587D01*
X85521803Y-78338282D01*
X85782976Y-78426076D01*
X85874490Y-78453259D01*
X85964611Y-78477418D01*
X86061344Y-78499334D01*
X86172695Y-78519789D01*
X86306669Y-78539564D01*
X86471270Y-78559440D01*
X86674507Y-78580201D01*
X86924382Y-78602625D01*
X87228902Y-78627496D01*
X87596071Y-78655595D01*
X88033896Y-78687702D01*
X88550381Y-78724601D01*
X89153532Y-78767072D01*
X89586093Y-78797355D01*
X92941461Y-79031985D01*
X92888423Y-79366601D01*
X92759962Y-79872617D01*
X92544755Y-80356305D01*
X92253966Y-80806128D01*
X91898757Y-81210547D01*
X91490290Y-81558023D01*
X91039730Y-81837020D01*
X90558238Y-82036001D01*
X90226046Y-82118416D01*
X89838834Y-82163183D01*
X89427768Y-82167243D01*
X89042322Y-82130922D01*
X88927485Y-82109771D01*
X88421633Y-81952512D01*
X87940340Y-81706016D01*
X87496881Y-81380404D01*
X87104529Y-80985799D01*
X86776557Y-80532322D01*
X86710826Y-80419324D01*
X86621161Y-80234537D01*
X86528700Y-80004948D01*
X86442017Y-79757081D01*
X86369683Y-79517460D01*
X86320270Y-79312609D01*
X86302352Y-79169051D01*
X86302756Y-79156696D01*
X86301440Y-79082389D01*
X86295678Y-79069134D01*
X86244582Y-79079694D01*
X86122632Y-79107600D01*
X85956200Y-79146817D01*
X85955758Y-79146922D01*
X85607135Y-79198107D01*
X85207098Y-79202015D01*
X85191931Y-79201224D01*
X84990517Y-79186204D01*
X84817303Y-79160687D01*
X84642836Y-79117252D01*
X84442111Y-79049968D01*
X86619829Y-79049968D01*
X86621271Y-79189016D01*
X86657370Y-79392162D01*
X86720739Y-79632774D01*
X86803995Y-79884220D01*
X86899751Y-80119866D01*
X86939602Y-80203146D01*
X87198503Y-80615967D01*
X87535016Y-80998563D01*
X87927275Y-81330889D01*
X88353413Y-81592904D01*
X88556220Y-81684876D01*
X88930566Y-81795332D01*
X89354887Y-81854375D01*
X89791692Y-81859063D01*
X90176295Y-81812054D01*
X90676991Y-81662372D01*
X91143187Y-81424632D01*
X91565004Y-81107701D01*
X91932560Y-80720441D01*
X92235979Y-80271716D01*
X92465379Y-79770393D01*
X92471827Y-79752338D01*
X92528535Y-79574219D01*
X92562072Y-79432114D01*
X92566583Y-79352012D01*
X92563428Y-79345650D01*
X92508113Y-79334725D01*
X92361842Y-79318264D01*
X92133465Y-79296969D01*
X91831835Y-79271538D01*
X91465800Y-79242671D01*
X91044213Y-79211068D01*
X90575921Y-79177430D01*
X90069777Y-79142455D01*
X89585426Y-79110166D01*
X86644609Y-78917460D01*
X86619829Y-79049968D01*
X84442111Y-79049968D01*
X84437666Y-79048478D01*
X84172346Y-78946941D01*
X84153815Y-78939624D01*
X83965863Y-78864385D01*
X83905682Y-78840294D01*
X83727354Y-78762025D01*
G37*
G36*
X87811251Y-79443794D02*
G01*
X87929759Y-79533608D01*
X87998349Y-79673786D01*
X87998676Y-79830564D01*
X87942027Y-79975801D01*
X87839687Y-80081356D01*
X87702945Y-80119084D01*
X87695118Y-80118666D01*
X87594389Y-80081800D01*
X87480434Y-80001879D01*
X87477895Y-79999593D01*
X87379461Y-79853941D01*
X87373231Y-79695126D01*
X87458340Y-79546563D01*
X87495931Y-79512009D01*
X87657096Y-79429442D01*
X87811251Y-79443794D01*
G37*
%TD*%
M02*
