%TF.GenerationSoftware,KiCad,Pcbnew,(6.0.0-0)*%
%TF.CreationDate,2022-02-08T20:12:03+07:00*%
%TF.ProjectId,PCB Top,50434220-546f-4702-9e6b-696361645f70,rev?*%
%TF.SameCoordinates,Original*%
%TF.FileFunction,Legend,Top*%
%TF.FilePolarity,Positive*%
%FSLAX46Y46*%
G04 Gerber Fmt 4.6, Leading zero omitted, Abs format (unit mm)*
G04 Created by KiCad (PCBNEW (6.0.0-0)) date 2022-02-08 20:12:03*
%MOMM*%
%LPD*%
G01*
G04 APERTURE LIST*
%ADD10C,0.150000*%
G04 APERTURE END LIST*
D10*
%TO.C,Ref\u002A\u002A*%
X119189327Y-41133383D02*
X118855994Y-40657193D01*
X118617898Y-41133383D02*
X118617898Y-40133383D01*
X118998851Y-40133383D01*
X119094089Y-40181003D01*
X119141708Y-40228622D01*
X119189327Y-40323860D01*
X119189327Y-40466717D01*
X119141708Y-40561955D01*
X119094089Y-40609574D01*
X118998851Y-40657193D01*
X118617898Y-40657193D01*
X119998851Y-41085764D02*
X119903613Y-41133383D01*
X119713136Y-41133383D01*
X119617898Y-41085764D01*
X119570279Y-40990526D01*
X119570279Y-40609574D01*
X119617898Y-40514336D01*
X119713136Y-40466717D01*
X119903613Y-40466717D01*
X119998851Y-40514336D01*
X120046470Y-40609574D01*
X120046470Y-40704812D01*
X119570279Y-40800050D01*
X120332184Y-40466717D02*
X120713136Y-40466717D01*
X120475041Y-41133383D02*
X120475041Y-40276241D01*
X120522660Y-40181003D01*
X120617898Y-40133383D01*
X120713136Y-40133383D01*
X121189327Y-40133383D02*
X121189327Y-40371479D01*
X120951232Y-40276241D02*
X121189327Y-40371479D01*
X121427422Y-40276241D01*
X121046470Y-40561955D02*
X121189327Y-40371479D01*
X121332184Y-40561955D01*
X121951232Y-40133383D02*
X121951232Y-40371479D01*
X121713136Y-40276241D02*
X121951232Y-40371479D01*
X122189327Y-40276241D01*
X121808374Y-40561955D02*
X121951232Y-40371479D01*
X122094089Y-40561955D01*
X82500933Y-84619980D02*
X82167600Y-84143790D01*
X81929504Y-84619980D02*
X81929504Y-83619980D01*
X82310457Y-83619980D01*
X82405695Y-83667600D01*
X82453314Y-83715219D01*
X82500933Y-83810457D01*
X82500933Y-83953314D01*
X82453314Y-84048552D01*
X82405695Y-84096171D01*
X82310457Y-84143790D01*
X81929504Y-84143790D01*
X83310457Y-84572361D02*
X83215219Y-84619980D01*
X83024742Y-84619980D01*
X82929504Y-84572361D01*
X82881885Y-84477123D01*
X82881885Y-84096171D01*
X82929504Y-84000933D01*
X83024742Y-83953314D01*
X83215219Y-83953314D01*
X83310457Y-84000933D01*
X83358076Y-84096171D01*
X83358076Y-84191409D01*
X82881885Y-84286647D01*
X83643790Y-83953314D02*
X84024742Y-83953314D01*
X83786647Y-84619980D02*
X83786647Y-83762838D01*
X83834266Y-83667600D01*
X83929504Y-83619980D01*
X84024742Y-83619980D01*
X84500933Y-83619980D02*
X84500933Y-83858076D01*
X84262838Y-83762838D02*
X84500933Y-83858076D01*
X84739028Y-83762838D01*
X84358076Y-84048552D02*
X84500933Y-83858076D01*
X84643790Y-84048552D01*
X85262838Y-83619980D02*
X85262838Y-83858076D01*
X85024742Y-83762838D02*
X85262838Y-83858076D01*
X85500933Y-83762838D01*
X85119980Y-84048552D02*
X85262838Y-83858076D01*
X85405695Y-84048552D01*
X76466527Y-44435383D02*
X76133194Y-43959193D01*
X75895098Y-44435383D02*
X75895098Y-43435383D01*
X76276051Y-43435383D01*
X76371289Y-43483003D01*
X76418908Y-43530622D01*
X76466527Y-43625860D01*
X76466527Y-43768717D01*
X76418908Y-43863955D01*
X76371289Y-43911574D01*
X76276051Y-43959193D01*
X75895098Y-43959193D01*
X77276051Y-44387764D02*
X77180813Y-44435383D01*
X76990336Y-44435383D01*
X76895098Y-44387764D01*
X76847479Y-44292526D01*
X76847479Y-43911574D01*
X76895098Y-43816336D01*
X76990336Y-43768717D01*
X77180813Y-43768717D01*
X77276051Y-43816336D01*
X77323670Y-43911574D01*
X77323670Y-44006812D01*
X76847479Y-44102050D01*
X77609384Y-43768717D02*
X77990336Y-43768717D01*
X77752241Y-44435383D02*
X77752241Y-43578241D01*
X77799860Y-43483003D01*
X77895098Y-43435383D01*
X77990336Y-43435383D01*
X78466527Y-43435383D02*
X78466527Y-43673479D01*
X78228432Y-43578241D02*
X78466527Y-43673479D01*
X78704622Y-43578241D01*
X78323670Y-43863955D02*
X78466527Y-43673479D01*
X78609384Y-43863955D01*
X79228432Y-43435383D02*
X79228432Y-43673479D01*
X78990336Y-43578241D02*
X79228432Y-43673479D01*
X79466527Y-43578241D01*
X79085574Y-43863955D02*
X79228432Y-43673479D01*
X79371289Y-43863955D01*
X42735327Y-87361383D02*
X42401994Y-86885193D01*
X42163898Y-87361383D02*
X42163898Y-86361383D01*
X42544851Y-86361383D01*
X42640089Y-86409003D01*
X42687708Y-86456622D01*
X42735327Y-86551860D01*
X42735327Y-86694717D01*
X42687708Y-86789955D01*
X42640089Y-86837574D01*
X42544851Y-86885193D01*
X42163898Y-86885193D01*
X43544851Y-87313764D02*
X43449613Y-87361383D01*
X43259136Y-87361383D01*
X43163898Y-87313764D01*
X43116279Y-87218526D01*
X43116279Y-86837574D01*
X43163898Y-86742336D01*
X43259136Y-86694717D01*
X43449613Y-86694717D01*
X43544851Y-86742336D01*
X43592470Y-86837574D01*
X43592470Y-86932812D01*
X43116279Y-87028050D01*
X43878184Y-86694717D02*
X44259136Y-86694717D01*
X44021041Y-87361383D02*
X44021041Y-86504241D01*
X44068660Y-86409003D01*
X44163898Y-86361383D01*
X44259136Y-86361383D01*
X44735327Y-86361383D02*
X44735327Y-86599479D01*
X44497232Y-86504241D02*
X44735327Y-86599479D01*
X44973422Y-86504241D01*
X44592470Y-86789955D02*
X44735327Y-86599479D01*
X44878184Y-86789955D01*
X45497232Y-86361383D02*
X45497232Y-86599479D01*
X45259136Y-86504241D02*
X45497232Y-86599479D01*
X45735327Y-86504241D01*
X45354374Y-86789955D02*
X45497232Y-86599479D01*
X45640089Y-86789955D01*
%TO.C,*%
%TO.C,Ref\u002A\u002A*%
X38112527Y-67752583D02*
X37779194Y-67276393D01*
X37541098Y-67752583D02*
X37541098Y-66752583D01*
X37922051Y-66752583D01*
X38017289Y-66800203D01*
X38064908Y-66847822D01*
X38112527Y-66943060D01*
X38112527Y-67085917D01*
X38064908Y-67181155D01*
X38017289Y-67228774D01*
X37922051Y-67276393D01*
X37541098Y-67276393D01*
X38922051Y-67704964D02*
X38826813Y-67752583D01*
X38636336Y-67752583D01*
X38541098Y-67704964D01*
X38493479Y-67609726D01*
X38493479Y-67228774D01*
X38541098Y-67133536D01*
X38636336Y-67085917D01*
X38826813Y-67085917D01*
X38922051Y-67133536D01*
X38969670Y-67228774D01*
X38969670Y-67324012D01*
X38493479Y-67419250D01*
X39255384Y-67085917D02*
X39636336Y-67085917D01*
X39398241Y-67752583D02*
X39398241Y-66895441D01*
X39445860Y-66800203D01*
X39541098Y-66752583D01*
X39636336Y-66752583D01*
X40112527Y-66752583D02*
X40112527Y-66990679D01*
X39874432Y-66895441D02*
X40112527Y-66990679D01*
X40350622Y-66895441D01*
X39969670Y-67181155D02*
X40112527Y-66990679D01*
X40255384Y-67181155D01*
X40874432Y-66752583D02*
X40874432Y-66990679D01*
X40636336Y-66895441D02*
X40874432Y-66990679D01*
X41112527Y-66895441D01*
X40731574Y-67181155D02*
X40874432Y-66990679D01*
X41017289Y-67181155D01*
%TD*%
M02*
