%TF.GenerationSoftware,KiCad,Pcbnew,(6.0.0)*%
%TF.CreationDate,2022-02-12T21:01:19+07:00*%
%TF.ProjectId,PCB Top,50434220-546f-4702-9e6b-696361645f70,rev?*%
%TF.SameCoordinates,Original*%
%TF.FileFunction,Copper,L2,Bot*%
%TF.FilePolarity,Positive*%
%FSLAX46Y46*%
G04 Gerber Fmt 4.6, Leading zero omitted, Abs format (unit mm)*
G04 Created by KiCad (PCBNEW (6.0.0)) date 2022-02-12 21:01:19*
%MOMM*%
%LPD*%
G01*
G04 APERTURE LIST*
%TA.AperFunction,ComponentPad*%
%ADD10C,4.200000*%
%TD*%
G04 APERTURE END LIST*
D10*
%TO.P,Ref\u002A\u002A,*%
%TO.N,*%
X137060340Y-78546748D03*
%TD*%
%TO.P,Ref\u002A\u002A,*%
%TO.N,*%
X40037193Y-66963895D03*
%TD*%
%TO.P,Ref\u002A\u002A,*%
%TO.N,*%
X44659993Y-86572695D03*
%TD*%
%TO.P,Ref\u002A\u002A,*%
%TO.N,*%
X78391193Y-43646695D03*
%TD*%
%TO.P,Ref\u002A\u002A,*%
%TO.N,*%
X84425599Y-83831292D03*
%TD*%
%TO.P,Ref\u002A\u002A,*%
%TO.N,*%
X120860340Y-40146748D03*
%TD*%
%TA.AperFunction,NonConductor*%
G36*
X141867055Y-18207678D02*
G01*
X141935166Y-18227715D01*
X141981631Y-18281394D01*
X141992991Y-18333480D01*
X142091904Y-81539023D01*
X142091909Y-81542130D01*
X142089821Y-81565168D01*
X142089304Y-81567977D01*
X142087187Y-81579461D01*
X142089158Y-81598670D01*
X142091394Y-81620468D01*
X142091989Y-81631940D01*
X142092051Y-81632793D01*
X142092058Y-81637272D01*
X142092701Y-81641711D01*
X142095315Y-81659768D01*
X142095957Y-81664965D01*
X142100673Y-81710936D01*
X142102035Y-81724217D01*
X142105212Y-81732021D01*
X142105279Y-81732359D01*
X142106307Y-81736144D01*
X142106423Y-81736476D01*
X142107631Y-81744815D01*
X142132378Y-81799018D01*
X142134441Y-81803799D01*
X142156914Y-81858986D01*
X142162154Y-81865585D01*
X142162317Y-81865898D01*
X142164362Y-81869235D01*
X142164566Y-81869520D01*
X142168066Y-81877186D01*
X142187449Y-81899610D01*
X142207016Y-81922247D01*
X142210360Y-81926282D01*
X142215009Y-81932135D01*
X142247412Y-81972935D01*
X142254293Y-81977797D01*
X142254534Y-81978049D01*
X142257446Y-81980689D01*
X142257716Y-81980901D01*
X142263225Y-81987274D01*
X142270760Y-81992141D01*
X142270761Y-81992142D01*
X142313268Y-82019599D01*
X142317606Y-82022531D01*
X142366255Y-82056905D01*
X142374225Y-82059641D01*
X142374519Y-82059810D01*
X142378061Y-82061531D01*
X142378382Y-82061660D01*
X142385456Y-82066229D01*
X142440758Y-82082674D01*
X142442540Y-82083204D01*
X142447510Y-82084795D01*
X142472006Y-82093202D01*
X142476793Y-82094054D01*
X142480646Y-82095052D01*
X142489178Y-82097073D01*
X142516332Y-82105147D01*
X142524935Y-82107705D01*
X142533907Y-82107746D01*
X142533909Y-82107746D01*
X142543390Y-82107789D01*
X142564898Y-82109738D01*
X160987176Y-85389097D01*
X161050737Y-85420728D01*
X161087107Y-85481701D01*
X161089158Y-85535150D01*
X158263164Y-101468786D01*
X157949831Y-103235430D01*
X157918240Y-103299011D01*
X157857289Y-103335419D01*
X157804094Y-103337548D01*
X149332563Y-101858204D01*
X139546567Y-100149321D01*
X139540079Y-100148011D01*
X139522245Y-100143921D01*
X139522234Y-100143919D01*
X139517497Y-100142833D01*
X139512639Y-100142488D01*
X139512634Y-100142487D01*
X139510264Y-100142318D01*
X139498739Y-100140907D01*
X139497882Y-100140819D01*
X139493453Y-100140046D01*
X139469333Y-100139307D01*
X139464273Y-100139049D01*
X116479945Y-98505163D01*
X141938302Y-98505163D01*
X141941364Y-98534543D01*
X141941977Y-98551661D01*
X141941023Y-98581183D01*
X141943262Y-98589871D01*
X141943262Y-98589872D01*
X141947423Y-98606017D01*
X141950730Y-98624397D01*
X141953387Y-98649894D01*
X141956786Y-98658202D01*
X141956787Y-98658207D01*
X141964569Y-98677230D01*
X141969964Y-98693494D01*
X141977334Y-98722094D01*
X141990443Y-98744129D01*
X141998775Y-98760840D01*
X142005083Y-98776261D01*
X142005087Y-98776268D01*
X142008485Y-98784574D01*
X142014080Y-98791596D01*
X142014081Y-98791597D01*
X142026890Y-98807671D01*
X142036635Y-98821771D01*
X142051735Y-98847151D01*
X142058307Y-98853269D01*
X142058308Y-98853270D01*
X142070503Y-98864622D01*
X142083191Y-98878324D01*
X142099169Y-98898375D01*
X142123325Y-98915384D01*
X142136620Y-98926169D01*
X142158244Y-98946298D01*
X142181161Y-98957799D01*
X142197179Y-98967386D01*
X142210810Y-98976984D01*
X142210812Y-98976985D01*
X142218149Y-98982151D01*
X142226642Y-98985050D01*
X142226645Y-98985052D01*
X142246100Y-98991694D01*
X142261906Y-98998322D01*
X142280275Y-99007541D01*
X142280278Y-99007542D01*
X142288300Y-99011568D01*
X142297130Y-99013181D01*
X142297131Y-99013181D01*
X142307986Y-99015164D01*
X142322142Y-99017749D01*
X142322915Y-99017919D01*
X142323959Y-99018275D01*
X142326881Y-99018790D01*
X142326889Y-99018792D01*
X142354486Y-99023658D01*
X142355187Y-99023784D01*
X142431446Y-99037711D01*
X142432839Y-99037566D01*
X142434168Y-99037708D01*
X156135941Y-101453701D01*
X156141811Y-101454736D01*
X156142568Y-101454872D01*
X156209926Y-101467174D01*
X156209929Y-101467174D01*
X156218755Y-101468786D01*
X156248135Y-101465724D01*
X156265253Y-101465111D01*
X156294776Y-101466065D01*
X156319616Y-101459664D01*
X156337990Y-101456358D01*
X156341695Y-101455972D01*
X156354558Y-101454632D01*
X156354561Y-101454631D01*
X156363486Y-101453701D01*
X156371791Y-101450303D01*
X156371796Y-101450302D01*
X156390812Y-101442522D01*
X156407081Y-101437126D01*
X156426992Y-101431995D01*
X156426995Y-101431994D01*
X156435687Y-101429754D01*
X156457719Y-101416646D01*
X156474432Y-101408313D01*
X156489857Y-101402002D01*
X156498166Y-101398603D01*
X156521268Y-101380194D01*
X156535361Y-101370454D01*
X156553027Y-101359944D01*
X156553030Y-101359942D01*
X156560743Y-101355353D01*
X156578218Y-101336581D01*
X156591914Y-101323900D01*
X156604942Y-101313518D01*
X156604945Y-101313515D01*
X156611967Y-101307919D01*
X156628972Y-101283769D01*
X156639765Y-101270464D01*
X156653776Y-101255413D01*
X156659891Y-101248844D01*
X156671391Y-101225929D01*
X156680983Y-101209901D01*
X156690576Y-101196278D01*
X156690578Y-101196275D01*
X156695743Y-101188939D01*
X156705286Y-101160986D01*
X156711913Y-101145184D01*
X156725160Y-101118788D01*
X156731341Y-101084945D01*
X156731510Y-101084173D01*
X156731867Y-101083129D01*
X156732388Y-101080177D01*
X156737233Y-101052705D01*
X156737368Y-101051949D01*
X156750595Y-100979524D01*
X156751304Y-100975642D01*
X156751159Y-100974248D01*
X156751302Y-100972906D01*
X157075382Y-99134961D01*
X157499897Y-96727415D01*
X159168310Y-87265380D01*
X159168446Y-87264623D01*
X159180767Y-87197163D01*
X159180767Y-87197158D01*
X159182379Y-87188333D01*
X159181449Y-87179409D01*
X159181449Y-87179404D01*
X159179317Y-87158952D01*
X159178704Y-87141824D01*
X159179367Y-87121287D01*
X159179657Y-87112312D01*
X159173258Y-87087479D01*
X159169953Y-87069110D01*
X159168225Y-87052531D01*
X159168225Y-87052529D01*
X159167294Y-87043602D01*
X159156111Y-87016267D01*
X159150717Y-87000005D01*
X159143346Y-86971401D01*
X159130237Y-86949366D01*
X159121904Y-86932654D01*
X159115595Y-86917232D01*
X159115594Y-86917230D01*
X159112195Y-86908922D01*
X159093786Y-86885820D01*
X159084046Y-86871727D01*
X159073536Y-86854061D01*
X159073534Y-86854058D01*
X159068945Y-86846345D01*
X159050173Y-86828870D01*
X159037492Y-86815174D01*
X159027110Y-86802146D01*
X159027107Y-86802143D01*
X159021511Y-86795121D01*
X158997361Y-86778116D01*
X158984060Y-86767326D01*
X158962436Y-86747197D01*
X158939521Y-86735697D01*
X158923493Y-86726105D01*
X158909870Y-86716512D01*
X158909867Y-86716510D01*
X158902531Y-86711345D01*
X158874578Y-86701802D01*
X158858776Y-86695175D01*
X158832380Y-86681928D01*
X158798537Y-86675747D01*
X158797765Y-86675578D01*
X158796721Y-86675221D01*
X158793779Y-86674702D01*
X158793769Y-86674700D01*
X158766297Y-86669855D01*
X158765541Y-86669720D01*
X158693116Y-86656493D01*
X158689234Y-86655784D01*
X158687840Y-86655929D01*
X158686499Y-86655786D01*
X154655189Y-85944957D01*
X144978972Y-84238778D01*
X144978215Y-84238642D01*
X144910755Y-84226321D01*
X144910750Y-84226321D01*
X144901925Y-84224709D01*
X144893001Y-84225639D01*
X144892996Y-84225639D01*
X144872544Y-84227771D01*
X144855416Y-84228384D01*
X144836206Y-84227764D01*
X144825905Y-84227431D01*
X144801068Y-84233831D01*
X144782700Y-84237136D01*
X144778249Y-84237599D01*
X144766121Y-84238863D01*
X144766117Y-84238864D01*
X144757194Y-84239794D01*
X144734769Y-84248968D01*
X144729858Y-84250977D01*
X144713593Y-84256372D01*
X144684994Y-84263742D01*
X144676306Y-84268911D01*
X144662959Y-84276851D01*
X144646246Y-84285184D01*
X144630819Y-84291495D01*
X144630817Y-84291496D01*
X144622514Y-84294893D01*
X144615498Y-84300484D01*
X144615496Y-84300485D01*
X144599417Y-84313298D01*
X144585317Y-84323043D01*
X144559937Y-84338143D01*
X144553819Y-84344715D01*
X144553818Y-84344716D01*
X144542466Y-84356911D01*
X144528764Y-84369599D01*
X144508713Y-84385577D01*
X144491704Y-84409733D01*
X144480919Y-84423028D01*
X144460790Y-84444652D01*
X144449291Y-84467565D01*
X144439702Y-84483587D01*
X144437177Y-84487174D01*
X144424937Y-84504557D01*
X144422038Y-84513050D01*
X144422036Y-84513053D01*
X144415394Y-84532508D01*
X144408766Y-84548314D01*
X144399547Y-84566683D01*
X144399546Y-84566686D01*
X144395520Y-84574708D01*
X144393907Y-84583538D01*
X144393907Y-84583539D01*
X144389340Y-84608546D01*
X144389169Y-84609323D01*
X144388813Y-84610367D01*
X144388298Y-84613289D01*
X144388296Y-84613297D01*
X144383430Y-84640894D01*
X144383304Y-84641595D01*
X144369377Y-84717854D01*
X144369522Y-84719247D01*
X144369380Y-84720576D01*
X141984454Y-98246162D01*
X141952352Y-98428219D01*
X141952219Y-98428959D01*
X141938302Y-98505163D01*
X116479945Y-98505163D01*
X101524966Y-97442059D01*
X101513840Y-97440769D01*
X101507506Y-97439747D01*
X101507494Y-97439746D01*
X101502695Y-97438972D01*
X101483889Y-97438869D01*
X101475645Y-97438554D01*
X101464453Y-97437758D01*
X101464448Y-97437758D01*
X101459976Y-97437440D01*
X101447895Y-97438303D01*
X101438260Y-97438620D01*
X67031896Y-97250388D01*
X67007297Y-97247826D01*
X67006271Y-97247616D01*
X66997065Y-97245730D01*
X66951867Y-97249464D01*
X66940814Y-97249890D01*
X66932689Y-97249845D01*
X66928251Y-97250456D01*
X66928246Y-97250456D01*
X66914191Y-97252390D01*
X66907394Y-97253138D01*
X66903119Y-97253491D01*
X66885638Y-97254936D01*
X66880900Y-97256080D01*
X66878432Y-97256676D01*
X66866041Y-97259018D01*
X66857720Y-97260163D01*
X66825038Y-97264661D01*
X66816847Y-97268332D01*
X66816845Y-97268332D01*
X66811929Y-97270535D01*
X66789977Y-97278031D01*
X59060151Y-99144217D01*
X30414716Y-106059988D01*
X30343805Y-106056531D01*
X30286018Y-106015285D01*
X30263461Y-105970195D01*
X25965665Y-89971206D01*
X27640387Y-89971206D01*
X27643552Y-90000579D01*
X27644225Y-90017695D01*
X27643374Y-90047216D01*
X27645644Y-90055898D01*
X27645644Y-90055902D01*
X27652074Y-90080499D01*
X27652247Y-90081271D01*
X27652365Y-90082369D01*
X27659613Y-90109419D01*
X27660380Y-90112280D01*
X27660577Y-90113024D01*
X27680176Y-90187999D01*
X27680895Y-90189199D01*
X27681330Y-90190469D01*
X31283829Y-103635173D01*
X31284026Y-103635917D01*
X31303643Y-103710960D01*
X31308257Y-103718655D01*
X31308258Y-103718656D01*
X31318832Y-103736288D01*
X31326628Y-103751556D01*
X31338237Y-103778708D01*
X31354537Y-103798517D01*
X31365293Y-103813765D01*
X31378481Y-103835756D01*
X31385067Y-103841844D01*
X31385071Y-103841849D01*
X31400166Y-103855802D01*
X31411933Y-103868267D01*
X31430698Y-103891071D01*
X31451886Y-103905497D01*
X31466501Y-103917122D01*
X31485335Y-103934532D01*
X31493365Y-103938527D01*
X31493368Y-103938529D01*
X31511783Y-103947690D01*
X31526565Y-103956345D01*
X31550979Y-103972968D01*
X31575370Y-103980869D01*
X31592659Y-103987924D01*
X31615617Y-103999346D01*
X31644684Y-104004550D01*
X31661313Y-104008711D01*
X31680871Y-104015047D01*
X31680873Y-104015047D01*
X31689410Y-104017813D01*
X31715043Y-104018551D01*
X31733609Y-104020470D01*
X31758855Y-104024990D01*
X31767774Y-104024029D01*
X31767776Y-104024029D01*
X31774429Y-104023312D01*
X31788222Y-104021826D01*
X31805338Y-104021153D01*
X31834865Y-104022004D01*
X31868145Y-104013304D01*
X31868923Y-104013130D01*
X31870018Y-104013012D01*
X31872892Y-104012242D01*
X31899920Y-104005000D01*
X31900664Y-104004804D01*
X31971827Y-103986201D01*
X31971841Y-103986196D01*
X31975648Y-103985201D01*
X31976846Y-103984483D01*
X31978120Y-103984047D01*
X45422853Y-100381540D01*
X45423596Y-100381344D01*
X45476766Y-100367444D01*
X45498609Y-100361734D01*
X45506309Y-100357117D01*
X45506315Y-100357114D01*
X45523947Y-100346541D01*
X45539210Y-100338747D01*
X45558101Y-100330670D01*
X45566357Y-100327140D01*
X45586157Y-100310847D01*
X45601419Y-100300081D01*
X45615706Y-100291514D01*
X45615707Y-100291513D01*
X45623405Y-100286897D01*
X45643454Y-100265208D01*
X45655918Y-100253442D01*
X45671788Y-100240383D01*
X45678720Y-100234679D01*
X45693151Y-100213485D01*
X45704766Y-100198883D01*
X45722181Y-100180043D01*
X45735338Y-100153597D01*
X45743996Y-100138809D01*
X45755563Y-100121821D01*
X45755564Y-100121820D01*
X45760617Y-100114398D01*
X45768520Y-100090002D01*
X45775572Y-100072721D01*
X45782996Y-100057798D01*
X45786995Y-100049760D01*
X45792199Y-100020693D01*
X45796360Y-100004064D01*
X45802696Y-99984506D01*
X45802696Y-99984504D01*
X45805462Y-99975967D01*
X45806200Y-99950334D01*
X45808119Y-99931768D01*
X45812639Y-99906522D01*
X45809475Y-99877155D01*
X45808802Y-99860032D01*
X45809394Y-99839484D01*
X45809653Y-99830512D01*
X45807382Y-99821827D01*
X45807382Y-99821823D01*
X45800953Y-99797231D01*
X45800778Y-99796450D01*
X45800661Y-99795360D01*
X45799889Y-99792478D01*
X45792641Y-99765425D01*
X45792445Y-99764684D01*
X45773847Y-99693543D01*
X45772850Y-99689729D01*
X45772129Y-99688528D01*
X45771695Y-99687260D01*
X45626187Y-99144217D01*
X42840900Y-88749385D01*
X42842590Y-88678410D01*
X42882384Y-88619614D01*
X42947648Y-88591666D01*
X43017662Y-88603439D01*
X43041645Y-88618647D01*
X43143223Y-88700464D01*
X43143228Y-88700468D01*
X43146176Y-88702842D01*
X43149396Y-88704850D01*
X43409822Y-88867268D01*
X43409829Y-88867272D01*
X43413049Y-88869280D01*
X43697985Y-89002450D01*
X43701595Y-89003633D01*
X43701599Y-89003635D01*
X43789755Y-89032534D01*
X43996855Y-89100425D01*
X44305332Y-89161785D01*
X44309104Y-89162072D01*
X44309112Y-89162073D01*
X44615169Y-89185354D01*
X44615174Y-89185354D01*
X44618946Y-89185641D01*
X44933154Y-89171647D01*
X44936892Y-89171025D01*
X44936900Y-89171024D01*
X45087890Y-89145892D01*
X45243405Y-89120007D01*
X45545206Y-89031469D01*
X45834184Y-88907314D01*
X45837461Y-88905410D01*
X45837468Y-88905407D01*
X45995224Y-88813774D01*
X46106153Y-88749341D01*
X46277996Y-88619614D01*
X46354149Y-88562125D01*
X46354155Y-88562120D01*
X46357175Y-88559840D01*
X46583612Y-88341553D01*
X46782185Y-88097645D01*
X46950017Y-87831646D01*
X47084678Y-87547412D01*
X47173791Y-87280305D01*
X47214324Y-87222017D01*
X47279936Y-87194894D01*
X47349795Y-87207550D01*
X47401723Y-87255965D01*
X47416562Y-87293985D01*
X48015768Y-90113024D01*
X49847642Y-98731312D01*
X49863373Y-98807611D01*
X49867579Y-98815538D01*
X49877215Y-98833699D01*
X49884198Y-98849348D01*
X49891279Y-98868645D01*
X49891282Y-98868650D01*
X49894374Y-98877077D01*
X49909616Y-98897714D01*
X49919556Y-98913498D01*
X49931577Y-98936153D01*
X49937838Y-98942580D01*
X49952182Y-98957305D01*
X49963278Y-98970366D01*
X49980827Y-98994125D01*
X50001244Y-99009650D01*
X50015225Y-99022020D01*
X50033115Y-99040385D01*
X50058836Y-99054908D01*
X50073138Y-99064320D01*
X50096657Y-99082204D01*
X50105034Y-99085412D01*
X50105037Y-99085413D01*
X50120604Y-99091373D01*
X50137492Y-99099319D01*
X50159826Y-99111929D01*
X50168569Y-99113972D01*
X50168570Y-99113972D01*
X50188581Y-99118647D01*
X50204969Y-99123673D01*
X50224167Y-99131023D01*
X50224169Y-99131023D01*
X50232552Y-99134233D01*
X50241496Y-99134961D01*
X50241498Y-99134961D01*
X50258110Y-99136312D01*
X50276559Y-99139201D01*
X50301526Y-99145034D01*
X50310484Y-99144541D01*
X50331017Y-99143411D01*
X50348156Y-99143636D01*
X50368639Y-99145302D01*
X50377588Y-99146030D01*
X50411282Y-99139083D01*
X50412056Y-99138952D01*
X50413163Y-99138891D01*
X50443585Y-99132425D01*
X50444327Y-99132270D01*
X50516245Y-99117442D01*
X50516249Y-99117441D01*
X50520104Y-99116646D01*
X50521338Y-99115991D01*
X50522626Y-99115624D01*
X56184810Y-97912089D01*
X64137763Y-96221636D01*
X64137986Y-96221589D01*
X64214170Y-96205882D01*
X64240269Y-96192034D01*
X64255910Y-96185054D01*
X64283636Y-96174881D01*
X64290856Y-96169548D01*
X64290860Y-96169546D01*
X64304258Y-96159650D01*
X64320063Y-96149696D01*
X64334785Y-96141885D01*
X64334786Y-96141885D01*
X64342712Y-96137679D01*
X64363868Y-96117070D01*
X64376929Y-96105974D01*
X64393462Y-96093762D01*
X64400684Y-96088428D01*
X64416202Y-96068021D01*
X64428574Y-96054038D01*
X64440509Y-96042411D01*
X64440513Y-96042406D01*
X64446944Y-96036141D01*
X64461467Y-96010419D01*
X64470882Y-95996112D01*
X64488763Y-95972598D01*
X64491973Y-95964213D01*
X64491976Y-95964208D01*
X64497931Y-95948653D01*
X64505882Y-95931756D01*
X64514072Y-95917251D01*
X64514073Y-95917248D01*
X64518488Y-95909429D01*
X64525206Y-95880674D01*
X64530232Y-95864286D01*
X64537582Y-95845088D01*
X64537582Y-95845086D01*
X64540792Y-95836703D01*
X64542871Y-95811145D01*
X64545760Y-95792697D01*
X64546947Y-95787614D01*
X64551593Y-95767729D01*
X64549970Y-95738238D01*
X64550195Y-95721099D01*
X64551861Y-95700616D01*
X64552589Y-95691667D01*
X64545642Y-95657973D01*
X64545511Y-95657199D01*
X64545450Y-95656092D01*
X64544398Y-95651140D01*
X64538986Y-95625680D01*
X64538829Y-95624928D01*
X64524001Y-95553010D01*
X64524000Y-95553006D01*
X64523205Y-95549151D01*
X64522550Y-95547917D01*
X64522183Y-95546629D01*
X64501655Y-95450051D01*
X103649770Y-95450051D01*
X103651935Y-95458765D01*
X103656889Y-95478707D01*
X103659881Y-95495586D01*
X103663045Y-95524953D01*
X103672842Y-95548665D01*
X103678669Y-95566390D01*
X103684851Y-95591274D01*
X103699730Y-95616788D01*
X103707332Y-95632138D01*
X103718613Y-95659439D01*
X103724231Y-95666439D01*
X103724233Y-95666442D01*
X103734661Y-95679434D01*
X103745238Y-95694823D01*
X103758156Y-95716975D01*
X103779605Y-95737294D01*
X103791207Y-95749890D01*
X103809694Y-95772924D01*
X103817050Y-95778065D01*
X103817052Y-95778067D01*
X103830712Y-95787614D01*
X103845183Y-95799416D01*
X103857280Y-95810876D01*
X103857283Y-95810878D01*
X103863796Y-95817048D01*
X103871783Y-95821144D01*
X103890080Y-95830527D01*
X103904757Y-95839363D01*
X103928966Y-95856283D01*
X103948218Y-95862781D01*
X103953255Y-95864481D01*
X103970457Y-95871747D01*
X103993278Y-95883450D01*
X104022284Y-95889009D01*
X104038861Y-95893374D01*
X104057818Y-95899772D01*
X104066840Y-95902817D01*
X104101227Y-95904228D01*
X104101997Y-95904287D01*
X104103085Y-95904496D01*
X104134095Y-95905578D01*
X104134559Y-95905596D01*
X104212231Y-95908784D01*
X104213589Y-95908447D01*
X104214936Y-95908402D01*
X109868099Y-96105815D01*
X118125696Y-96394178D01*
X118126187Y-96394196D01*
X118178213Y-96396331D01*
X118194731Y-96397009D01*
X118194732Y-96397009D01*
X118203702Y-96397377D01*
X118232362Y-96390257D01*
X118249237Y-96387266D01*
X118255388Y-96386603D01*
X118269677Y-96385064D01*
X118269678Y-96385064D01*
X118278604Y-96384102D01*
X118302316Y-96374305D01*
X118320041Y-96368478D01*
X118344925Y-96362296D01*
X118370439Y-96347417D01*
X118385790Y-96339814D01*
X118404791Y-96331963D01*
X118413090Y-96328534D01*
X118420090Y-96322916D01*
X118420093Y-96322914D01*
X118433085Y-96312486D01*
X118448474Y-96301909D01*
X118464057Y-96292822D01*
X122854016Y-96292822D01*
X122855567Y-96301662D01*
X122855567Y-96301667D01*
X122859120Y-96321921D01*
X122860926Y-96338963D01*
X122861697Y-96359496D01*
X122862034Y-96368468D01*
X122864875Y-96376983D01*
X122870149Y-96392792D01*
X122874730Y-96410895D01*
X122879160Y-96436149D01*
X122883129Y-96444198D01*
X122883130Y-96444200D01*
X122892220Y-96462632D01*
X122898736Y-96478482D01*
X122905242Y-96497984D01*
X122905245Y-96497989D01*
X122908085Y-96506503D01*
X122913200Y-96513876D01*
X122913204Y-96513884D01*
X122922704Y-96527577D01*
X122932178Y-96543658D01*
X122943519Y-96566657D01*
X122949588Y-96573269D01*
X122949589Y-96573270D01*
X122963487Y-96588410D01*
X122974188Y-96601790D01*
X122991028Y-96626064D01*
X123010972Y-96642185D01*
X123024579Y-96654964D01*
X123041920Y-96673855D01*
X123049602Y-96678498D01*
X123049603Y-96678499D01*
X123067192Y-96689130D01*
X123081224Y-96698974D01*
X123097211Y-96711897D01*
X123097214Y-96711899D01*
X123104194Y-96717541D01*
X123116498Y-96722675D01*
X123127855Y-96727415D01*
X123144506Y-96735862D01*
X123158770Y-96744483D01*
X123166455Y-96749128D01*
X123175134Y-96751429D01*
X123175136Y-96751430D01*
X123194999Y-96756696D01*
X123211224Y-96762203D01*
X123238486Y-96773579D01*
X123247401Y-96774571D01*
X123247404Y-96774572D01*
X123272681Y-96777385D01*
X123273461Y-96777500D01*
X123274526Y-96777782D01*
X123277475Y-96778092D01*
X123277482Y-96778093D01*
X123305286Y-96781015D01*
X123306051Y-96781098D01*
X123325121Y-96783220D01*
X123383107Y-96789673D01*
X123384484Y-96789432D01*
X123385828Y-96789481D01*
X137228630Y-98244418D01*
X137229395Y-98244501D01*
X137279642Y-98250093D01*
X137306414Y-98253072D01*
X137315254Y-98251521D01*
X137315259Y-98251521D01*
X137335513Y-98247968D01*
X137352555Y-98246162D01*
X137373088Y-98245391D01*
X137373089Y-98245391D01*
X137382060Y-98245054D01*
X137406383Y-98236939D01*
X137424488Y-98232358D01*
X137449741Y-98227928D01*
X137457790Y-98223959D01*
X137457792Y-98223958D01*
X137476224Y-98214868D01*
X137492074Y-98208352D01*
X137511576Y-98201846D01*
X137511581Y-98201843D01*
X137520095Y-98199003D01*
X137527472Y-98193886D01*
X137527475Y-98193884D01*
X137541167Y-98184386D01*
X137557253Y-98174910D01*
X137572197Y-98167540D01*
X137572198Y-98167539D01*
X137580249Y-98163569D01*
X137602011Y-98143593D01*
X137615380Y-98132902D01*
X137639657Y-98116060D01*
X137655776Y-98096119D01*
X137668560Y-98082505D01*
X137680833Y-98071239D01*
X137687447Y-98065168D01*
X137692089Y-98057487D01*
X137692092Y-98057484D01*
X137702722Y-98039896D01*
X137712568Y-98025860D01*
X137725491Y-98009873D01*
X137731133Y-98002894D01*
X137736267Y-97990590D01*
X137741007Y-97979233D01*
X137749454Y-97962582D01*
X137758075Y-97948318D01*
X137762720Y-97940633D01*
X137770288Y-97912088D01*
X137775795Y-97895864D01*
X137787171Y-97868602D01*
X137790977Y-97834404D01*
X137791092Y-97833626D01*
X137791374Y-97832562D01*
X137794597Y-97801896D01*
X137794680Y-97801129D01*
X137802829Y-97727907D01*
X137803266Y-97723981D01*
X137803024Y-97722599D01*
X137803073Y-97721251D01*
X137832745Y-97438946D01*
X138609647Y-90047216D01*
X139258000Y-83878552D01*
X139258083Y-83877786D01*
X139265672Y-83809596D01*
X139266665Y-83800674D01*
X139265114Y-83791834D01*
X139265114Y-83791829D01*
X139261560Y-83771570D01*
X139259754Y-83754529D01*
X139258983Y-83734001D01*
X139258983Y-83734000D01*
X139258646Y-83725028D01*
X139250533Y-83700710D01*
X139245952Y-83682606D01*
X139243072Y-83666189D01*
X139241521Y-83657347D01*
X139228457Y-83630856D01*
X139221942Y-83615008D01*
X139215437Y-83595510D01*
X139215435Y-83595507D01*
X139212595Y-83586993D01*
X139197981Y-83565927D01*
X139188503Y-83549837D01*
X139177162Y-83526839D01*
X139171091Y-83520225D01*
X139157191Y-83505082D01*
X139146489Y-83491700D01*
X139134768Y-83474805D01*
X139134767Y-83474803D01*
X139129652Y-83467431D01*
X139109712Y-83451313D01*
X139096097Y-83438528D01*
X139084830Y-83426253D01*
X139084828Y-83426251D01*
X139078760Y-83419641D01*
X139071082Y-83415000D01*
X139071077Y-83414996D01*
X139053483Y-83404362D01*
X139039462Y-83394527D01*
X139016486Y-83375955D01*
X138992819Y-83366079D01*
X138976175Y-83357635D01*
X138967066Y-83352129D01*
X138961905Y-83349009D01*
X138961903Y-83349008D01*
X138954226Y-83344368D01*
X138945553Y-83342068D01*
X138945552Y-83342068D01*
X138925675Y-83336798D01*
X138909444Y-83331288D01*
X138890477Y-83323373D01*
X138890475Y-83323372D01*
X138882194Y-83319917D01*
X138851825Y-83316537D01*
X138847996Y-83316111D01*
X138847218Y-83315996D01*
X138846154Y-83315714D01*
X138843201Y-83315404D01*
X138843190Y-83315402D01*
X138815488Y-83312491D01*
X138814721Y-83312408D01*
X138785984Y-83309210D01*
X138737573Y-83303822D01*
X138736191Y-83304064D01*
X138734846Y-83304015D01*
X131971522Y-82593161D01*
X124892144Y-81849088D01*
X124891378Y-81849005D01*
X124823188Y-81841416D01*
X124814266Y-81840423D01*
X124805426Y-81841974D01*
X124805421Y-81841974D01*
X124785162Y-81845528D01*
X124768121Y-81847334D01*
X124747593Y-81848105D01*
X124747592Y-81848105D01*
X124738620Y-81848442D01*
X124726289Y-81852556D01*
X124714302Y-81856555D01*
X124696199Y-81861136D01*
X124670939Y-81865567D01*
X124644450Y-81878630D01*
X124628600Y-81885146D01*
X124609104Y-81891650D01*
X124609099Y-81891653D01*
X124600585Y-81894493D01*
X124593208Y-81899610D01*
X124593209Y-81899610D01*
X124579520Y-81909106D01*
X124563433Y-81918582D01*
X124557318Y-81921598D01*
X124540431Y-81929926D01*
X124523296Y-81945655D01*
X124518672Y-81949899D01*
X124505290Y-81960601D01*
X124501661Y-81963119D01*
X124481024Y-81977436D01*
X124475385Y-81984412D01*
X124475384Y-81984413D01*
X124464905Y-81997377D01*
X124452122Y-82010989D01*
X124433233Y-82028328D01*
X124417955Y-82053605D01*
X124408118Y-82067628D01*
X124389547Y-82090602D01*
X124379671Y-82114269D01*
X124371227Y-82130913D01*
X124357960Y-82152862D01*
X124355660Y-82161535D01*
X124355660Y-82161536D01*
X124350390Y-82181413D01*
X124344880Y-82197643D01*
X124333509Y-82224894D01*
X124332517Y-82233809D01*
X124332516Y-82233812D01*
X124329703Y-82259089D01*
X124329588Y-82259869D01*
X124329306Y-82260934D01*
X124328996Y-82263883D01*
X124328995Y-82263890D01*
X124326073Y-82291694D01*
X124325990Y-82292459D01*
X124317415Y-82369515D01*
X124317656Y-82370892D01*
X124317607Y-82372236D01*
X122862670Y-96215038D01*
X122862587Y-96215803D01*
X122857522Y-96261315D01*
X122854016Y-96292822D01*
X118464057Y-96292822D01*
X118470626Y-96288991D01*
X118490945Y-96267542D01*
X118503541Y-96255940D01*
X118519573Y-96243073D01*
X118519574Y-96243072D01*
X118526575Y-96237453D01*
X118531716Y-96230097D01*
X118531718Y-96230095D01*
X118541265Y-96216435D01*
X118553067Y-96201964D01*
X118564527Y-96189867D01*
X118564529Y-96189864D01*
X118570699Y-96183351D01*
X118584178Y-96157067D01*
X118593014Y-96142390D01*
X118609934Y-96118181D01*
X118618132Y-96093892D01*
X118625398Y-96076690D01*
X118629843Y-96068021D01*
X118637101Y-96053869D01*
X118642660Y-96024862D01*
X118647025Y-96008286D01*
X118653596Y-95988816D01*
X118656468Y-95980307D01*
X118657879Y-95945920D01*
X118657938Y-95945150D01*
X118658147Y-95944062D01*
X118659229Y-95913052D01*
X118659247Y-95912588D01*
X118662435Y-95834916D01*
X118662098Y-95833558D01*
X118662053Y-95832211D01*
X118882459Y-89520611D01*
X119147829Y-81921451D01*
X119147852Y-81920828D01*
X119147864Y-81920549D01*
X119150302Y-81861136D01*
X119150660Y-81852416D01*
X119150660Y-81852415D01*
X119151028Y-81843445D01*
X119143908Y-81814785D01*
X119140917Y-81797909D01*
X119138715Y-81777470D01*
X119138715Y-81777469D01*
X119137753Y-81768543D01*
X119127956Y-81744831D01*
X119122128Y-81727104D01*
X119118112Y-81710936D01*
X119118111Y-81710934D01*
X119115947Y-81702222D01*
X119101071Y-81676713D01*
X119093469Y-81661367D01*
X119082185Y-81634057D01*
X119066130Y-81614053D01*
X119055558Y-81598670D01*
X119047164Y-81584275D01*
X119047160Y-81584270D01*
X119042641Y-81576521D01*
X119021201Y-81556211D01*
X119009591Y-81543606D01*
X118996725Y-81527575D01*
X118996723Y-81527573D01*
X118991104Y-81520572D01*
X118970081Y-81505879D01*
X118955615Y-81494080D01*
X118943519Y-81482622D01*
X118943517Y-81482621D01*
X118937001Y-81476448D01*
X118929020Y-81472355D01*
X118929017Y-81472353D01*
X118910720Y-81462970D01*
X118896039Y-81454131D01*
X118879190Y-81442355D01*
X118879188Y-81442354D01*
X118871832Y-81437213D01*
X118847543Y-81429015D01*
X118830341Y-81421749D01*
X118826539Y-81419800D01*
X118807520Y-81410046D01*
X118778513Y-81404487D01*
X118761937Y-81400122D01*
X118742467Y-81393551D01*
X118733958Y-81390679D01*
X118699572Y-81389268D01*
X118698799Y-81389209D01*
X118697712Y-81389000D01*
X118666869Y-81387923D01*
X118666094Y-81387894D01*
X118658076Y-81387565D01*
X118588567Y-81384712D01*
X118587210Y-81385049D01*
X118585861Y-81385094D01*
X104675269Y-80899325D01*
X104674499Y-80899296D01*
X104606069Y-80896487D01*
X104606067Y-80896487D01*
X104597096Y-80896119D01*
X104568436Y-80903239D01*
X104551561Y-80906230D01*
X104545410Y-80906893D01*
X104531121Y-80908432D01*
X104531120Y-80908432D01*
X104522194Y-80909394D01*
X104498482Y-80919191D01*
X104480757Y-80925018D01*
X104475841Y-80926240D01*
X104464587Y-80929035D01*
X104464585Y-80929036D01*
X104455873Y-80931200D01*
X104448118Y-80935723D01*
X104448117Y-80935723D01*
X104430365Y-80946076D01*
X104415018Y-80953678D01*
X104387708Y-80964962D01*
X104367704Y-80981017D01*
X104352321Y-80991589D01*
X104337926Y-80999983D01*
X104337921Y-80999987D01*
X104330172Y-81004506D01*
X104309862Y-81025946D01*
X104297257Y-81037556D01*
X104281226Y-81050422D01*
X104281224Y-81050424D01*
X104274223Y-81056043D01*
X104259530Y-81077066D01*
X104247731Y-81091532D01*
X104236273Y-81103628D01*
X104236272Y-81103630D01*
X104230099Y-81110146D01*
X104226006Y-81118127D01*
X104226004Y-81118130D01*
X104216621Y-81136427D01*
X104207782Y-81151108D01*
X104201900Y-81159525D01*
X104190864Y-81175315D01*
X104187993Y-81183820D01*
X104187993Y-81183821D01*
X104182666Y-81199604D01*
X104175400Y-81216806D01*
X104163697Y-81239627D01*
X104158138Y-81268633D01*
X104153773Y-81285210D01*
X104149490Y-81297902D01*
X104144330Y-81313189D01*
X104143962Y-81322159D01*
X104142920Y-81347564D01*
X104142860Y-81348348D01*
X104142651Y-81349435D01*
X104142547Y-81352416D01*
X104141574Y-81380283D01*
X104141545Y-81381053D01*
X104138363Y-81458580D01*
X104138700Y-81459937D01*
X104138745Y-81461286D01*
X103652976Y-95371878D01*
X103652947Y-95372648D01*
X103649770Y-95450051D01*
X64501655Y-95450051D01*
X63284571Y-89724128D01*
X62026193Y-83803926D01*
X81812474Y-83803926D01*
X81828113Y-84118057D01*
X81828754Y-84121788D01*
X81828755Y-84121796D01*
X81880732Y-84424289D01*
X81880734Y-84424297D01*
X81881376Y-84428034D01*
X81882464Y-84431673D01*
X81882465Y-84431676D01*
X81968867Y-84720582D01*
X81971494Y-84729367D01*
X82097160Y-85017691D01*
X82256554Y-85288829D01*
X82258855Y-85291844D01*
X82445068Y-85535842D01*
X82445073Y-85535847D01*
X82447368Y-85538855D01*
X82450012Y-85541569D01*
X82526436Y-85620020D01*
X82666837Y-85764146D01*
X82734241Y-85818437D01*
X82908829Y-85959061D01*
X82908834Y-85959065D01*
X82911782Y-85961439D01*
X82980499Y-86004295D01*
X83175428Y-86125865D01*
X83175435Y-86125869D01*
X83178655Y-86127877D01*
X83463591Y-86261047D01*
X83467201Y-86262230D01*
X83467205Y-86262232D01*
X83555361Y-86291131D01*
X83762461Y-86359022D01*
X84070938Y-86420382D01*
X84074710Y-86420669D01*
X84074718Y-86420670D01*
X84380775Y-86443951D01*
X84380780Y-86443951D01*
X84384552Y-86444238D01*
X84698760Y-86430244D01*
X84702498Y-86429622D01*
X84702506Y-86429621D01*
X84853496Y-86404489D01*
X85009011Y-86378604D01*
X85310812Y-86290066D01*
X85599790Y-86165911D01*
X85603067Y-86164007D01*
X85603074Y-86164004D01*
X85813165Y-86041972D01*
X85871759Y-86007938D01*
X86001743Y-85909811D01*
X86119755Y-85820722D01*
X86119761Y-85820717D01*
X86122781Y-85818437D01*
X86257252Y-85688806D01*
X86346491Y-85602779D01*
X86346492Y-85602778D01*
X86349218Y-85600150D01*
X86547791Y-85356242D01*
X86715623Y-85090243D01*
X86850284Y-84806009D01*
X86949822Y-84507656D01*
X87012796Y-84199505D01*
X87038294Y-83886020D01*
X87038867Y-83831292D01*
X87031948Y-83716513D01*
X87020168Y-83521120D01*
X87020168Y-83521116D01*
X87019940Y-83517342D01*
X86992315Y-83366082D01*
X86964113Y-83211662D01*
X86964112Y-83211658D01*
X86963433Y-83207940D01*
X86870165Y-82907568D01*
X86741486Y-82620575D01*
X86579262Y-82351121D01*
X86576935Y-82348137D01*
X86576930Y-82348130D01*
X86388171Y-82106095D01*
X86388165Y-82106088D01*
X86385840Y-82103107D01*
X86164024Y-81880126D01*
X85917027Y-81685409D01*
X85648425Y-81521776D01*
X85515385Y-81461286D01*
X85365562Y-81393165D01*
X85365554Y-81393162D01*
X85362110Y-81391596D01*
X85062230Y-81296756D01*
X84912678Y-81268633D01*
X84756852Y-81239330D01*
X84756847Y-81239329D01*
X84753128Y-81238630D01*
X84439282Y-81218060D01*
X84435502Y-81218268D01*
X84435501Y-81218268D01*
X84343930Y-81223308D01*
X84125237Y-81235343D01*
X84121510Y-81236004D01*
X84121506Y-81236004D01*
X84011847Y-81255439D01*
X83815544Y-81290229D01*
X83811928Y-81291331D01*
X83811920Y-81291333D01*
X83518311Y-81380818D01*
X83518304Y-81380821D01*
X83514687Y-81381923D01*
X83227025Y-81509097D01*
X83223771Y-81511033D01*
X83223765Y-81511036D01*
X82971105Y-81661353D01*
X82956724Y-81669909D01*
X82953723Y-81672224D01*
X82953719Y-81672227D01*
X82891646Y-81720116D01*
X82707701Y-81862029D01*
X82692304Y-81877186D01*
X82504322Y-82062238D01*
X82483562Y-82082674D01*
X82467280Y-82103107D01*
X82289920Y-82325680D01*
X82289914Y-82325689D01*
X82287555Y-82328649D01*
X82122517Y-82596390D01*
X81990840Y-82882019D01*
X81894432Y-83181399D01*
X81893713Y-83185115D01*
X81893711Y-83185123D01*
X81835407Y-83486473D01*
X81835406Y-83486482D01*
X81834688Y-83490192D01*
X81834421Y-83493968D01*
X81834420Y-83493973D01*
X81812742Y-83800137D01*
X81812474Y-83803926D01*
X62026193Y-83803926D01*
X61628172Y-81931384D01*
X61612441Y-81855085D01*
X61608158Y-81847012D01*
X61601143Y-81833793D01*
X61598593Y-81828986D01*
X61591613Y-81813345D01*
X61581440Y-81785619D01*
X61576107Y-81778399D01*
X61576105Y-81778395D01*
X61566209Y-81764997D01*
X61556255Y-81749192D01*
X61548444Y-81734470D01*
X61548444Y-81734469D01*
X61544238Y-81726543D01*
X61523629Y-81705387D01*
X61512533Y-81692326D01*
X61503586Y-81680213D01*
X61494987Y-81668571D01*
X61487841Y-81663137D01*
X61474580Y-81653053D01*
X61460597Y-81640681D01*
X61448970Y-81628746D01*
X61448965Y-81628742D01*
X61442700Y-81622311D01*
X61416978Y-81607788D01*
X61402671Y-81598373D01*
X61379157Y-81580492D01*
X61370772Y-81577282D01*
X61370767Y-81577279D01*
X61355212Y-81571324D01*
X61338315Y-81563373D01*
X61323810Y-81555183D01*
X61323807Y-81555182D01*
X61315988Y-81550767D01*
X61287233Y-81544049D01*
X61270845Y-81539023D01*
X61251647Y-81531673D01*
X61251645Y-81531673D01*
X61243262Y-81528463D01*
X61234318Y-81527735D01*
X61234316Y-81527735D01*
X61217704Y-81526384D01*
X61199256Y-81523495D01*
X61196731Y-81522905D01*
X61174288Y-81517662D01*
X61165330Y-81518155D01*
X61144797Y-81519285D01*
X61127658Y-81519060D01*
X61107175Y-81517394D01*
X61098226Y-81516666D01*
X61064532Y-81523613D01*
X61063758Y-81523744D01*
X61062651Y-81523805D01*
X61059730Y-81524426D01*
X61059729Y-81524426D01*
X61032239Y-81530269D01*
X61031487Y-81530426D01*
X60959569Y-81545254D01*
X60959565Y-81545255D01*
X60955710Y-81546050D01*
X60954476Y-81546705D01*
X60953188Y-81547072D01*
X56031729Y-82593161D01*
X47338051Y-84441060D01*
X47337828Y-84441107D01*
X47261644Y-84456814D01*
X47241382Y-84467565D01*
X47235556Y-84470656D01*
X47219907Y-84477639D01*
X47200610Y-84484720D01*
X47200605Y-84484723D01*
X47192178Y-84487815D01*
X47171541Y-84503057D01*
X47155757Y-84512997D01*
X47133102Y-84525018D01*
X47126675Y-84531279D01*
X47111950Y-84545623D01*
X47098889Y-84556719D01*
X47075130Y-84574268D01*
X47059605Y-84594685D01*
X47047232Y-84608669D01*
X47036438Y-84619184D01*
X47028870Y-84626556D01*
X47014347Y-84652277D01*
X47004935Y-84666579D01*
X46987051Y-84690098D01*
X46983843Y-84698475D01*
X46983842Y-84698478D01*
X46977882Y-84714045D01*
X46969936Y-84730933D01*
X46957326Y-84753267D01*
X46955283Y-84762010D01*
X46955283Y-84762011D01*
X46950608Y-84782022D01*
X46945582Y-84798410D01*
X46935022Y-84825993D01*
X46934294Y-84834937D01*
X46934294Y-84834939D01*
X46932943Y-84851551D01*
X46930054Y-84869999D01*
X46924221Y-84894967D01*
X46921919Y-84894429D01*
X46900721Y-84948607D01*
X46843215Y-84990242D01*
X46772327Y-84994177D01*
X46710565Y-84959163D01*
X46701713Y-84948986D01*
X46701418Y-84948607D01*
X46659165Y-84894429D01*
X46622565Y-84847498D01*
X46622559Y-84847491D01*
X46620234Y-84844510D01*
X46398418Y-84621529D01*
X46151421Y-84426812D01*
X45882819Y-84263179D01*
X45734447Y-84195718D01*
X45599956Y-84134568D01*
X45599948Y-84134565D01*
X45596504Y-84132999D01*
X45296624Y-84038159D01*
X45159356Y-84012346D01*
X44991246Y-83980733D01*
X44991241Y-83980732D01*
X44987522Y-83980033D01*
X44673676Y-83959463D01*
X44669896Y-83959671D01*
X44669895Y-83959671D01*
X44578324Y-83964711D01*
X44359631Y-83976746D01*
X44355904Y-83977407D01*
X44355900Y-83977407D01*
X44246241Y-83996842D01*
X44049938Y-84031632D01*
X44046322Y-84032734D01*
X44046314Y-84032736D01*
X43752705Y-84122221D01*
X43752698Y-84122224D01*
X43749081Y-84123326D01*
X43461419Y-84250500D01*
X43458165Y-84252436D01*
X43458159Y-84252439D01*
X43194377Y-84409373D01*
X43191118Y-84411312D01*
X43188117Y-84413627D01*
X43188113Y-84413630D01*
X43147903Y-84444652D01*
X42942095Y-84603432D01*
X42717956Y-84824077D01*
X42701674Y-84844510D01*
X42524314Y-85067083D01*
X42524308Y-85067092D01*
X42521949Y-85070052D01*
X42356911Y-85337793D01*
X42225234Y-85623422D01*
X42162434Y-85818437D01*
X42145713Y-85870362D01*
X42105793Y-85929073D01*
X42040469Y-85956881D01*
X41970481Y-85944957D01*
X41968076Y-85943551D01*
X41967692Y-85943196D01*
X41941243Y-85930038D01*
X41926468Y-85921387D01*
X41902048Y-85904760D01*
X41877650Y-85896856D01*
X41860373Y-85889806D01*
X41837409Y-85878382D01*
X41828572Y-85876800D01*
X41828569Y-85876799D01*
X41808340Y-85873178D01*
X41791712Y-85869017D01*
X41777541Y-85864426D01*
X41763616Y-85859915D01*
X41737983Y-85859176D01*
X41719419Y-85857258D01*
X41694171Y-85852738D01*
X41664798Y-85855903D01*
X41647682Y-85856576D01*
X41618161Y-85855725D01*
X41595846Y-85861558D01*
X41584875Y-85864426D01*
X41584110Y-85864597D01*
X41583009Y-85864716D01*
X41553153Y-85872716D01*
X41552475Y-85872896D01*
X41481189Y-85891530D01*
X41481179Y-85891533D01*
X41477378Y-85892527D01*
X41476178Y-85893247D01*
X41474913Y-85893681D01*
X30990982Y-88702842D01*
X28030245Y-89496169D01*
X28029501Y-89496366D01*
X27954417Y-89515994D01*
X27946724Y-89520607D01*
X27946715Y-89520611D01*
X27929079Y-89531187D01*
X27913817Y-89538980D01*
X27886669Y-89550588D01*
X27866860Y-89566888D01*
X27851612Y-89577644D01*
X27829621Y-89590832D01*
X27823533Y-89597418D01*
X27823528Y-89597422D01*
X27809575Y-89612517D01*
X27797110Y-89624284D01*
X27774306Y-89643049D01*
X27759874Y-89664245D01*
X27748251Y-89678856D01*
X27730845Y-89697686D01*
X27726850Y-89705716D01*
X27726848Y-89705719D01*
X27717690Y-89724128D01*
X27709028Y-89738921D01*
X27692409Y-89763329D01*
X27689641Y-89771874D01*
X27684509Y-89787716D01*
X27677453Y-89805009D01*
X27666031Y-89827968D01*
X27664450Y-89836799D01*
X27664449Y-89836802D01*
X27660827Y-89857037D01*
X27656666Y-89873664D01*
X27647564Y-89901761D01*
X27647306Y-89910730D01*
X27646826Y-89927389D01*
X27644907Y-89945958D01*
X27640387Y-89971206D01*
X25965665Y-89971206D01*
X21022649Y-71570320D01*
X22709883Y-71570320D01*
X22713048Y-71599693D01*
X22713721Y-71616809D01*
X22712870Y-71646330D01*
X22715140Y-71655012D01*
X22715140Y-71655016D01*
X22721570Y-71679613D01*
X22721743Y-71680385D01*
X22721861Y-71681483D01*
X22729109Y-71708533D01*
X22729876Y-71711394D01*
X22730073Y-71712138D01*
X22749672Y-71787113D01*
X22750391Y-71788313D01*
X22750826Y-71789582D01*
X23540541Y-74736840D01*
X26353325Y-85234287D01*
X26353522Y-85235031D01*
X26373139Y-85310074D01*
X26377753Y-85317769D01*
X26377754Y-85317770D01*
X26388328Y-85335402D01*
X26396124Y-85350670D01*
X26407733Y-85377822D01*
X26424033Y-85397631D01*
X26434789Y-85412879D01*
X26447977Y-85434870D01*
X26454563Y-85440958D01*
X26454567Y-85440963D01*
X26469662Y-85454916D01*
X26481429Y-85467381D01*
X26500194Y-85490185D01*
X26521382Y-85504611D01*
X26535997Y-85516236D01*
X26554831Y-85533646D01*
X26562861Y-85537641D01*
X26562864Y-85537643D01*
X26581279Y-85546804D01*
X26596061Y-85555459D01*
X26620475Y-85572082D01*
X26644866Y-85579983D01*
X26662155Y-85587038D01*
X26685113Y-85598460D01*
X26714180Y-85603664D01*
X26730809Y-85607825D01*
X26750367Y-85614161D01*
X26750369Y-85614161D01*
X26758906Y-85616927D01*
X26784539Y-85617665D01*
X26803105Y-85619584D01*
X26828351Y-85624104D01*
X26837270Y-85623143D01*
X26837272Y-85623143D01*
X26843925Y-85622426D01*
X26857718Y-85620940D01*
X26874834Y-85620267D01*
X26904361Y-85621118D01*
X26937641Y-85612418D01*
X26938419Y-85612244D01*
X26939514Y-85612126D01*
X26942388Y-85611356D01*
X26969416Y-85604114D01*
X26970160Y-85603918D01*
X27041323Y-85585315D01*
X27041337Y-85585310D01*
X27045144Y-85584315D01*
X27046342Y-85583597D01*
X27047616Y-85583161D01*
X40492349Y-81980654D01*
X40493092Y-81980458D01*
X40548760Y-81965905D01*
X40568105Y-81960848D01*
X40575805Y-81956231D01*
X40575811Y-81956228D01*
X40593443Y-81945655D01*
X40608706Y-81937861D01*
X40627597Y-81929784D01*
X40635853Y-81926254D01*
X40655653Y-81909961D01*
X40670915Y-81899195D01*
X40685202Y-81890628D01*
X40685203Y-81890627D01*
X40692901Y-81886011D01*
X40708409Y-81869235D01*
X40712950Y-81864322D01*
X40725414Y-81852556D01*
X40741284Y-81839497D01*
X40748216Y-81833793D01*
X40762647Y-81812599D01*
X40774262Y-81797997D01*
X40791677Y-81779157D01*
X40804834Y-81752711D01*
X40813492Y-81737923D01*
X40825059Y-81720935D01*
X40825060Y-81720934D01*
X40830113Y-81713512D01*
X40838016Y-81689116D01*
X40845068Y-81671835D01*
X40852492Y-81656912D01*
X40856491Y-81648874D01*
X40861695Y-81619807D01*
X40865856Y-81603178D01*
X40872192Y-81583620D01*
X40872192Y-81583618D01*
X40874958Y-81575081D01*
X40875696Y-81549448D01*
X40877615Y-81530882D01*
X40882135Y-81505636D01*
X40878971Y-81476269D01*
X40878298Y-81459146D01*
X40878301Y-81459052D01*
X40879149Y-81429626D01*
X40876878Y-81420941D01*
X40876878Y-81420937D01*
X40870449Y-81396345D01*
X40870274Y-81395564D01*
X40870157Y-81394474D01*
X40869140Y-81390679D01*
X40862137Y-81364539D01*
X40861941Y-81363798D01*
X40843343Y-81292657D01*
X40842346Y-81288843D01*
X40841625Y-81287642D01*
X40841191Y-81286374D01*
X40838698Y-81277070D01*
X37238666Y-67841569D01*
X37238584Y-67841257D01*
X37218879Y-67765882D01*
X37214261Y-67758181D01*
X37203689Y-67740551D01*
X37195893Y-67725284D01*
X37187814Y-67706388D01*
X37184285Y-67698134D01*
X37167992Y-67678334D01*
X37157226Y-67663072D01*
X37148659Y-67648785D01*
X37148658Y-67648784D01*
X37144042Y-67641086D01*
X37122353Y-67621037D01*
X37110587Y-67608573D01*
X37097526Y-67592701D01*
X37091824Y-67585771D01*
X37070634Y-67571343D01*
X37056021Y-67559719D01*
X37049836Y-67554002D01*
X37037188Y-67542310D01*
X37010739Y-67529152D01*
X36995964Y-67520501D01*
X36971544Y-67503874D01*
X36947146Y-67495970D01*
X36929869Y-67488920D01*
X36906905Y-67477496D01*
X36898068Y-67475914D01*
X36898065Y-67475913D01*
X36877836Y-67472292D01*
X36861208Y-67468131D01*
X36847037Y-67463540D01*
X36833112Y-67459029D01*
X36807479Y-67458290D01*
X36788915Y-67456372D01*
X36763667Y-67451852D01*
X36734294Y-67455017D01*
X36717178Y-67455690D01*
X36687657Y-67454839D01*
X36665342Y-67460672D01*
X36654371Y-67463540D01*
X36653606Y-67463711D01*
X36652505Y-67463830D01*
X36622649Y-67471830D01*
X36621971Y-67472010D01*
X36550685Y-67490644D01*
X36550675Y-67490647D01*
X36546874Y-67491641D01*
X36545674Y-67492361D01*
X36544409Y-67492795D01*
X25352263Y-70491722D01*
X23099741Y-71095283D01*
X23098997Y-71095480D01*
X23023913Y-71115108D01*
X23016220Y-71119721D01*
X23016211Y-71119725D01*
X22998575Y-71130301D01*
X22983313Y-71138094D01*
X22956165Y-71149702D01*
X22936356Y-71166002D01*
X22921108Y-71176758D01*
X22899117Y-71189946D01*
X22893029Y-71196532D01*
X22893024Y-71196536D01*
X22879071Y-71211631D01*
X22866606Y-71223398D01*
X22843802Y-71242163D01*
X22829370Y-71263359D01*
X22817747Y-71277970D01*
X22800341Y-71296800D01*
X22796346Y-71304830D01*
X22796344Y-71304833D01*
X22787186Y-71323242D01*
X22778524Y-71338035D01*
X22761905Y-71362443D01*
X22759137Y-71370988D01*
X22754005Y-71386830D01*
X22746949Y-71404123D01*
X22735527Y-71427082D01*
X22733946Y-71435913D01*
X22733945Y-71435916D01*
X22730323Y-71456151D01*
X22726162Y-71472778D01*
X22717060Y-71500875D01*
X22716802Y-71509844D01*
X22716322Y-71526503D01*
X22714403Y-71545072D01*
X22709883Y-71570320D01*
X21022649Y-71570320D01*
X16109432Y-53280366D01*
X17789087Y-53280366D01*
X17792252Y-53309739D01*
X17792925Y-53326855D01*
X17792074Y-53356376D01*
X17794344Y-53365058D01*
X17794344Y-53365062D01*
X17800774Y-53389659D01*
X17800947Y-53390431D01*
X17801065Y-53391529D01*
X17808313Y-53418579D01*
X17809080Y-53421440D01*
X17809277Y-53422184D01*
X17819641Y-53461832D01*
X17828876Y-53497159D01*
X17829595Y-53498359D01*
X17830030Y-53499628D01*
X19173487Y-58513478D01*
X21432529Y-66944333D01*
X21432726Y-66945077D01*
X21452343Y-67020120D01*
X21456957Y-67027815D01*
X21456958Y-67027816D01*
X21467532Y-67045448D01*
X21475328Y-67060716D01*
X21486937Y-67087868D01*
X21503237Y-67107677D01*
X21513993Y-67122925D01*
X21527181Y-67144916D01*
X21533767Y-67151004D01*
X21533771Y-67151009D01*
X21548866Y-67164962D01*
X21560633Y-67177427D01*
X21579398Y-67200231D01*
X21600586Y-67214657D01*
X21615201Y-67226282D01*
X21634035Y-67243692D01*
X21642065Y-67247687D01*
X21642068Y-67247689D01*
X21660483Y-67256850D01*
X21675265Y-67265505D01*
X21699679Y-67282128D01*
X21724070Y-67290029D01*
X21741359Y-67297084D01*
X21764317Y-67308506D01*
X21793384Y-67313710D01*
X21810013Y-67317871D01*
X21829571Y-67324207D01*
X21829573Y-67324207D01*
X21838110Y-67326973D01*
X21863743Y-67327711D01*
X21882309Y-67329630D01*
X21907555Y-67334150D01*
X21916474Y-67333189D01*
X21916476Y-67333189D01*
X21923129Y-67332472D01*
X21936922Y-67330986D01*
X21954038Y-67330313D01*
X21983565Y-67331164D01*
X22016845Y-67322464D01*
X22017623Y-67322290D01*
X22018718Y-67322172D01*
X22021592Y-67321402D01*
X22048620Y-67314160D01*
X22049364Y-67313964D01*
X22120527Y-67295361D01*
X22120541Y-67295356D01*
X22124348Y-67294361D01*
X22125546Y-67293643D01*
X22126820Y-67293207D01*
X23457960Y-66936529D01*
X37424068Y-66936529D01*
X37425541Y-66966116D01*
X37437915Y-67214657D01*
X37439707Y-67250660D01*
X37440348Y-67254391D01*
X37440349Y-67254399D01*
X37492326Y-67556892D01*
X37492328Y-67556900D01*
X37492970Y-67560637D01*
X37494058Y-67564276D01*
X37494059Y-67564279D01*
X37576939Y-67841408D01*
X37583088Y-67861970D01*
X37708754Y-68150294D01*
X37868148Y-68421432D01*
X37870449Y-68424447D01*
X38056662Y-68668445D01*
X38056667Y-68668450D01*
X38058962Y-68671458D01*
X38278431Y-68896749D01*
X38345835Y-68951040D01*
X38520423Y-69091664D01*
X38520428Y-69091668D01*
X38523376Y-69094042D01*
X38526596Y-69096050D01*
X38787022Y-69258468D01*
X38787029Y-69258472D01*
X38790249Y-69260480D01*
X39075185Y-69393650D01*
X39078795Y-69394833D01*
X39078799Y-69394835D01*
X39166955Y-69423734D01*
X39374055Y-69491625D01*
X39682532Y-69552985D01*
X39686304Y-69553272D01*
X39686312Y-69553273D01*
X39992369Y-69576554D01*
X39992374Y-69576554D01*
X39996146Y-69576841D01*
X40310354Y-69562847D01*
X40314092Y-69562225D01*
X40314100Y-69562224D01*
X40465090Y-69537092D01*
X40620605Y-69511207D01*
X40922406Y-69422669D01*
X41211384Y-69298514D01*
X41214661Y-69296610D01*
X41214668Y-69296607D01*
X41372424Y-69204974D01*
X41483353Y-69140541D01*
X41572292Y-69073399D01*
X41731349Y-68953325D01*
X41731355Y-68953320D01*
X41734375Y-68951040D01*
X41960812Y-68732753D01*
X42159385Y-68488845D01*
X42327217Y-68222846D01*
X42461878Y-67938612D01*
X42561416Y-67640259D01*
X42624390Y-67332108D01*
X42649888Y-67018623D01*
X42650461Y-66963895D01*
X42631534Y-66649945D01*
X42600466Y-66479834D01*
X42575707Y-66344265D01*
X42575706Y-66344261D01*
X42575027Y-66340543D01*
X42574026Y-66337318D01*
X42962504Y-66337318D01*
X42969451Y-66371012D01*
X42969582Y-66371786D01*
X42969643Y-66372893D01*
X42970264Y-66375814D01*
X42970264Y-66375815D01*
X42976107Y-66403305D01*
X42976261Y-66404041D01*
X42991888Y-66479834D01*
X42992543Y-66481068D01*
X42992910Y-66482356D01*
X44097622Y-71679613D01*
X45886921Y-80097601D01*
X45902652Y-80173900D01*
X45906858Y-80181827D01*
X45916494Y-80199988D01*
X45923477Y-80215637D01*
X45930558Y-80234934D01*
X45930561Y-80234939D01*
X45933653Y-80243366D01*
X45948895Y-80264003D01*
X45958835Y-80279787D01*
X45970856Y-80302442D01*
X45977117Y-80308869D01*
X45991461Y-80323594D01*
X46002557Y-80336655D01*
X46020106Y-80360414D01*
X46040523Y-80375939D01*
X46054504Y-80388309D01*
X46072394Y-80406674D01*
X46098115Y-80421197D01*
X46112417Y-80430609D01*
X46135936Y-80448493D01*
X46144313Y-80451701D01*
X46144316Y-80451702D01*
X46159883Y-80457662D01*
X46176771Y-80465608D01*
X46199105Y-80478218D01*
X46207848Y-80480261D01*
X46207849Y-80480261D01*
X46227860Y-80484936D01*
X46244248Y-80489962D01*
X46263446Y-80497312D01*
X46263448Y-80497312D01*
X46271831Y-80500522D01*
X46280775Y-80501250D01*
X46280777Y-80501250D01*
X46297389Y-80502601D01*
X46315838Y-80505490D01*
X46340805Y-80511323D01*
X46349763Y-80510830D01*
X46370296Y-80509700D01*
X46387435Y-80509925D01*
X46407918Y-80511591D01*
X46416867Y-80512319D01*
X46450561Y-80505372D01*
X46451335Y-80505241D01*
X46452442Y-80505180D01*
X46482864Y-80498714D01*
X46483606Y-80498559D01*
X46555524Y-80483731D01*
X46555528Y-80483730D01*
X46559383Y-80482935D01*
X46560617Y-80482280D01*
X46561905Y-80481913D01*
X52144218Y-79295355D01*
X60177042Y-77587925D01*
X60177265Y-77587878D01*
X60253449Y-77572171D01*
X60279548Y-77558323D01*
X60295189Y-77551343D01*
X60322915Y-77541170D01*
X60330135Y-77535837D01*
X60330139Y-77535835D01*
X60343537Y-77525939D01*
X60359342Y-77515985D01*
X60374064Y-77508174D01*
X60374065Y-77508174D01*
X60381991Y-77503968D01*
X60403147Y-77483359D01*
X60416208Y-77472263D01*
X60432741Y-77460051D01*
X60439963Y-77454717D01*
X60455481Y-77434310D01*
X60467853Y-77420327D01*
X60479788Y-77408700D01*
X60479792Y-77408695D01*
X60486223Y-77402430D01*
X60500746Y-77376708D01*
X60510161Y-77362401D01*
X60528042Y-77338887D01*
X60531252Y-77330502D01*
X60531255Y-77330497D01*
X60537210Y-77314942D01*
X60545161Y-77298045D01*
X60553351Y-77283540D01*
X60553352Y-77283537D01*
X60557767Y-77275718D01*
X60564485Y-77246963D01*
X60569511Y-77230575D01*
X60576861Y-77211377D01*
X60576861Y-77211375D01*
X60580071Y-77202992D01*
X60582150Y-77177434D01*
X60585039Y-77158986D01*
X60588830Y-77142757D01*
X60590872Y-77134018D01*
X60589249Y-77104527D01*
X60589474Y-77087388D01*
X60591140Y-77066905D01*
X60591868Y-77057956D01*
X60584921Y-77024262D01*
X60584790Y-77023488D01*
X60584729Y-77022381D01*
X60578263Y-76991959D01*
X60578108Y-76991217D01*
X60563280Y-76919299D01*
X60563279Y-76919295D01*
X60562484Y-76915440D01*
X60561829Y-76914206D01*
X60561462Y-76912918D01*
X59345006Y-71189946D01*
X58114442Y-65400601D01*
X63406885Y-65400601D01*
X63408235Y-65409474D01*
X63408235Y-65409477D01*
X63412059Y-65434610D01*
X63412150Y-65435400D01*
X63412153Y-65436501D01*
X63412618Y-65439435D01*
X63412620Y-65439455D01*
X63416992Y-65467056D01*
X63417101Y-65467757D01*
X63428770Y-65544460D01*
X63429361Y-65545730D01*
X63429660Y-65547037D01*
X65607085Y-79294747D01*
X65607157Y-79295212D01*
X65618853Y-79372097D01*
X65631313Y-79398878D01*
X65637468Y-79414871D01*
X65643528Y-79434511D01*
X65643530Y-79434516D01*
X65646176Y-79443089D01*
X65651123Y-79450577D01*
X65660308Y-79464481D01*
X65669416Y-79480778D01*
X65676448Y-79495893D01*
X65676452Y-79495900D01*
X65680236Y-79504032D01*
X65698533Y-79524895D01*
X65699707Y-79526234D01*
X65710107Y-79539862D01*
X65721437Y-79557013D01*
X65721439Y-79557016D01*
X65726385Y-79564502D01*
X65745957Y-79581071D01*
X65759266Y-79594149D01*
X65776180Y-79613436D01*
X65801109Y-79629287D01*
X65814910Y-79639443D01*
X65837446Y-79658522D01*
X65860878Y-79668930D01*
X65877333Y-79677753D01*
X65898974Y-79691513D01*
X65907595Y-79694010D01*
X65907596Y-79694010D01*
X65927345Y-79699729D01*
X65943442Y-79705604D01*
X65962229Y-79713949D01*
X65962232Y-79713950D01*
X65970432Y-79717592D01*
X65979328Y-79718787D01*
X65979332Y-79718788D01*
X65995841Y-79721006D01*
X66014112Y-79724856D01*
X66030122Y-79729492D01*
X66030124Y-79729492D01*
X66038746Y-79731989D01*
X66047718Y-79731965D01*
X66047722Y-79731966D01*
X66068289Y-79731912D01*
X66085389Y-79733033D01*
X66105758Y-79735769D01*
X66105762Y-79735769D01*
X66114652Y-79736963D01*
X66133633Y-79734075D01*
X66148664Y-79731789D01*
X66149444Y-79731699D01*
X66150552Y-79731696D01*
X66181342Y-79726819D01*
X66181846Y-79726741D01*
X66254614Y-79715672D01*
X66254617Y-79715671D01*
X66258511Y-79715079D01*
X66259779Y-79714489D01*
X66261089Y-79714189D01*
X73804801Y-78519382D01*
X134447215Y-78519382D01*
X134462854Y-78833513D01*
X134463495Y-78837244D01*
X134463496Y-78837252D01*
X134515473Y-79139745D01*
X134515475Y-79139753D01*
X134516117Y-79143490D01*
X134517205Y-79147129D01*
X134517206Y-79147132D01*
X134594824Y-79406666D01*
X134606235Y-79444823D01*
X134731901Y-79733147D01*
X134891295Y-80004285D01*
X134893596Y-80007300D01*
X135079809Y-80251298D01*
X135079814Y-80251303D01*
X135082109Y-80254311D01*
X135121277Y-80294518D01*
X135295932Y-80473806D01*
X135301578Y-80479602D01*
X135368982Y-80533893D01*
X135543570Y-80674517D01*
X135543575Y-80674521D01*
X135546523Y-80676895D01*
X135549743Y-80678903D01*
X135810169Y-80841321D01*
X135810176Y-80841325D01*
X135813396Y-80843333D01*
X136098332Y-80976503D01*
X136101942Y-80977686D01*
X136101946Y-80977688D01*
X136393605Y-81073299D01*
X136397202Y-81074478D01*
X136400916Y-81075217D01*
X136400917Y-81075217D01*
X136425436Y-81080094D01*
X136705679Y-81135838D01*
X136709451Y-81136125D01*
X136709459Y-81136126D01*
X137015516Y-81159407D01*
X137015521Y-81159407D01*
X137019293Y-81159694D01*
X137333501Y-81145700D01*
X137337239Y-81145078D01*
X137337247Y-81145077D01*
X137499140Y-81118130D01*
X137643752Y-81094060D01*
X137945553Y-81005522D01*
X138234531Y-80881367D01*
X138237808Y-80879463D01*
X138237815Y-80879460D01*
X138395571Y-80787827D01*
X138506500Y-80723394D01*
X138595439Y-80656252D01*
X138754496Y-80536178D01*
X138754502Y-80536173D01*
X138757522Y-80533893D01*
X138983959Y-80315606D01*
X139182532Y-80071698D01*
X139350364Y-79805699D01*
X139464635Y-79564502D01*
X139483400Y-79524895D01*
X139485025Y-79521465D01*
X139584563Y-79223112D01*
X139647537Y-78914961D01*
X139673035Y-78601476D01*
X139673608Y-78546748D01*
X139654681Y-78232798D01*
X139598174Y-77923396D01*
X139504906Y-77623024D01*
X139376227Y-77336031D01*
X139214003Y-77066577D01*
X139211676Y-77063593D01*
X139211671Y-77063586D01*
X139022912Y-76821551D01*
X139022906Y-76821544D01*
X139020581Y-76818563D01*
X138798765Y-76595582D01*
X138551768Y-76400865D01*
X138283166Y-76237232D01*
X138168794Y-76185230D01*
X138000303Y-76108621D01*
X138000295Y-76108618D01*
X137996851Y-76107052D01*
X137696971Y-76012212D01*
X137559703Y-75986399D01*
X137391593Y-75954786D01*
X137391588Y-75954785D01*
X137387869Y-75954086D01*
X137074023Y-75933516D01*
X137070243Y-75933724D01*
X137070242Y-75933724D01*
X136978671Y-75938764D01*
X136759978Y-75950799D01*
X136756251Y-75951460D01*
X136756247Y-75951460D01*
X136646588Y-75970895D01*
X136450285Y-76005685D01*
X136446669Y-76006787D01*
X136446661Y-76006789D01*
X136153052Y-76096274D01*
X136153045Y-76096277D01*
X136149428Y-76097379D01*
X135861766Y-76224553D01*
X135858512Y-76226489D01*
X135858506Y-76226492D01*
X135594724Y-76383426D01*
X135591465Y-76385365D01*
X135342442Y-76577485D01*
X135118303Y-76798130D01*
X135102021Y-76818563D01*
X134924661Y-77041136D01*
X134924655Y-77041145D01*
X134922296Y-77044105D01*
X134757258Y-77311846D01*
X134625581Y-77597475D01*
X134529173Y-77896855D01*
X134528454Y-77900571D01*
X134528452Y-77900579D01*
X134470148Y-78201929D01*
X134470147Y-78201938D01*
X134469429Y-78205648D01*
X134469162Y-78209424D01*
X134469161Y-78209429D01*
X134467239Y-78236576D01*
X134447215Y-78519382D01*
X73804801Y-78519382D01*
X80008729Y-77536776D01*
X80009490Y-77536658D01*
X80064848Y-77528236D01*
X80086148Y-77524996D01*
X80112929Y-77512536D01*
X80128922Y-77506381D01*
X80148562Y-77500321D01*
X80148567Y-77500319D01*
X80157140Y-77497673D01*
X80178533Y-77483541D01*
X80194829Y-77474433D01*
X80209944Y-77467401D01*
X80209951Y-77467397D01*
X80218083Y-77463613D01*
X80240288Y-77444140D01*
X80253913Y-77433742D01*
X80271064Y-77422412D01*
X80271067Y-77422410D01*
X80278553Y-77417464D01*
X80295122Y-77397892D01*
X80308200Y-77384583D01*
X80327487Y-77367669D01*
X80343338Y-77342740D01*
X80353494Y-77328940D01*
X80366773Y-77313254D01*
X80372573Y-77306403D01*
X80382981Y-77282971D01*
X80391804Y-77266516D01*
X80400747Y-77252451D01*
X80400747Y-77252450D01*
X80405564Y-77244875D01*
X80413781Y-77216502D01*
X80419655Y-77200407D01*
X80428000Y-77181618D01*
X80431643Y-77173417D01*
X80433582Y-77158986D01*
X80435056Y-77148006D01*
X80438906Y-77129738D01*
X80446040Y-77105102D01*
X80446016Y-77096132D01*
X80446017Y-77096128D01*
X80445963Y-77075560D01*
X80447084Y-77058460D01*
X80449820Y-77038091D01*
X80449820Y-77038087D01*
X80451014Y-77029197D01*
X80445840Y-76995185D01*
X80445750Y-76994405D01*
X80445747Y-76993297D01*
X80440870Y-76962507D01*
X80440792Y-76962003D01*
X80429723Y-76889235D01*
X80429722Y-76889232D01*
X80429130Y-76885338D01*
X80428540Y-76884070D01*
X80428240Y-76882760D01*
X78250819Y-63135071D01*
X78250701Y-63134310D01*
X78246454Y-63106391D01*
X78239047Y-63057701D01*
X78235262Y-63049565D01*
X78226587Y-63030919D01*
X78220432Y-63014925D01*
X78214373Y-62995293D01*
X78214373Y-62995292D01*
X78211724Y-62986709D01*
X78203381Y-62974079D01*
X78197592Y-62965317D01*
X78188484Y-62949020D01*
X78181452Y-62933905D01*
X78181448Y-62933898D01*
X78177664Y-62925766D01*
X78158191Y-62903561D01*
X78147793Y-62889936D01*
X78136463Y-62872785D01*
X78136461Y-62872782D01*
X78131515Y-62865296D01*
X78111943Y-62848727D01*
X78098624Y-62835638D01*
X78081720Y-62816362D01*
X78074144Y-62811545D01*
X78074143Y-62811544D01*
X78056800Y-62800517D01*
X78042994Y-62790357D01*
X78027306Y-62777076D01*
X78020454Y-62771275D01*
X77997022Y-62760867D01*
X77980563Y-62752043D01*
X77966499Y-62743100D01*
X77966497Y-62743099D01*
X77958926Y-62738285D01*
X77950305Y-62735789D01*
X77950304Y-62735788D01*
X77930555Y-62730069D01*
X77914461Y-62724195D01*
X77887468Y-62712206D01*
X77862047Y-62708791D01*
X77843786Y-62704942D01*
X77827779Y-62700306D01*
X77827774Y-62700305D01*
X77819153Y-62697809D01*
X77810180Y-62697833D01*
X77810176Y-62697832D01*
X77789612Y-62697886D01*
X77772512Y-62696765D01*
X77743248Y-62692834D01*
X77734375Y-62694184D01*
X77734372Y-62694184D01*
X77709239Y-62698008D01*
X77708449Y-62698099D01*
X77707348Y-62698102D01*
X77704414Y-62698567D01*
X77704394Y-62698569D01*
X77676793Y-62702941D01*
X77676092Y-62703050D01*
X77599389Y-62714719D01*
X77598119Y-62715310D01*
X77596812Y-62715609D01*
X74162830Y-63259499D01*
X63849207Y-64893017D01*
X63848446Y-64893135D01*
X63831573Y-64895702D01*
X63771752Y-64904802D01*
X63763618Y-64908586D01*
X63763616Y-64908587D01*
X63744970Y-64917262D01*
X63728976Y-64923417D01*
X63709344Y-64929476D01*
X63700760Y-64932125D01*
X63693270Y-64937073D01*
X63693268Y-64937074D01*
X63679368Y-64946257D01*
X63663071Y-64955365D01*
X63647956Y-64962397D01*
X63647949Y-64962401D01*
X63639817Y-64966185D01*
X63633070Y-64972102D01*
X63617615Y-64985656D01*
X63603987Y-64996056D01*
X63586836Y-65007386D01*
X63586833Y-65007388D01*
X63579347Y-65012334D01*
X63573550Y-65019182D01*
X63562781Y-65031903D01*
X63549692Y-65045222D01*
X63530413Y-65062129D01*
X63525596Y-65069705D01*
X63525595Y-65069706D01*
X63514568Y-65087049D01*
X63504408Y-65100855D01*
X63485326Y-65123395D01*
X63481682Y-65131598D01*
X63481682Y-65131599D01*
X63474919Y-65146826D01*
X63466094Y-65163286D01*
X63452336Y-65184923D01*
X63449839Y-65193546D01*
X63449838Y-65193548D01*
X63444121Y-65213292D01*
X63438245Y-65229391D01*
X63426257Y-65256381D01*
X63425063Y-65265274D01*
X63425062Y-65265276D01*
X63422844Y-65281791D01*
X63418992Y-65300066D01*
X63411860Y-65324695D01*
X63411884Y-65333664D01*
X63411883Y-65333668D01*
X63411937Y-65354238D01*
X63410816Y-65371334D01*
X63406885Y-65400601D01*
X58114442Y-65400601D01*
X57667451Y-63297673D01*
X57651720Y-63221374D01*
X57637872Y-63195275D01*
X57630892Y-63179634D01*
X57620719Y-63151908D01*
X57615386Y-63144688D01*
X57615384Y-63144684D01*
X57605488Y-63131286D01*
X57595534Y-63115481D01*
X57587723Y-63100759D01*
X57587723Y-63100758D01*
X57583517Y-63092832D01*
X57562908Y-63071676D01*
X57551812Y-63058615D01*
X57539600Y-63042082D01*
X57534266Y-63034860D01*
X57513859Y-63019342D01*
X57499876Y-63006970D01*
X57488249Y-62995035D01*
X57488244Y-62995031D01*
X57481979Y-62988600D01*
X57456257Y-62974077D01*
X57441950Y-62964662D01*
X57418436Y-62946781D01*
X57410051Y-62943571D01*
X57410046Y-62943568D01*
X57394491Y-62937613D01*
X57377594Y-62929662D01*
X57363089Y-62921472D01*
X57363086Y-62921471D01*
X57355267Y-62917056D01*
X57326512Y-62910338D01*
X57310124Y-62905312D01*
X57290926Y-62897962D01*
X57290924Y-62897962D01*
X57282541Y-62894752D01*
X57273597Y-62894024D01*
X57273595Y-62894024D01*
X57256983Y-62892673D01*
X57238535Y-62889784D01*
X57236010Y-62889194D01*
X57213567Y-62883951D01*
X57204609Y-62884444D01*
X57184076Y-62885574D01*
X57166937Y-62885349D01*
X57146454Y-62883683D01*
X57137505Y-62882955D01*
X57103811Y-62889902D01*
X57103037Y-62890033D01*
X57101930Y-62890094D01*
X57099009Y-62890715D01*
X57099008Y-62890715D01*
X57071518Y-62896558D01*
X57070766Y-62896715D01*
X56998848Y-62911543D01*
X56998844Y-62911544D01*
X56994989Y-62912339D01*
X56993755Y-62912994D01*
X56992467Y-62913361D01*
X53335377Y-63690700D01*
X43377330Y-65807349D01*
X43377107Y-65807396D01*
X43300923Y-65823103D01*
X43292996Y-65827309D01*
X43274835Y-65836945D01*
X43259186Y-65843928D01*
X43239889Y-65851009D01*
X43239884Y-65851012D01*
X43231457Y-65854104D01*
X43210820Y-65869346D01*
X43195036Y-65879286D01*
X43172381Y-65891307D01*
X43165954Y-65897568D01*
X43151229Y-65911912D01*
X43138168Y-65923008D01*
X43114409Y-65940557D01*
X43098884Y-65960974D01*
X43086514Y-65974955D01*
X43068149Y-65992845D01*
X43053626Y-66018566D01*
X43044214Y-66032868D01*
X43026330Y-66056387D01*
X43023122Y-66064764D01*
X43023121Y-66064767D01*
X43017161Y-66080334D01*
X43009215Y-66097222D01*
X42996605Y-66119556D01*
X42994562Y-66128299D01*
X42994562Y-66128300D01*
X42989887Y-66148311D01*
X42984861Y-66164699D01*
X42974301Y-66192282D01*
X42973573Y-66201226D01*
X42973573Y-66201228D01*
X42972222Y-66217840D01*
X42969333Y-66236288D01*
X42963500Y-66261256D01*
X42963993Y-66270214D01*
X42965123Y-66290747D01*
X42964898Y-66307886D01*
X42962504Y-66337318D01*
X42574026Y-66337318D01*
X42481759Y-66040171D01*
X42353080Y-65753178D01*
X42190856Y-65483724D01*
X42188529Y-65480740D01*
X42188524Y-65480733D01*
X41999765Y-65238698D01*
X41999759Y-65238691D01*
X41997434Y-65235710D01*
X41807944Y-65045225D01*
X41778288Y-65015413D01*
X41775618Y-65012729D01*
X41528621Y-64818012D01*
X41260019Y-64654379D01*
X41145647Y-64602377D01*
X40977156Y-64525768D01*
X40977148Y-64525765D01*
X40973704Y-64524199D01*
X40673824Y-64429359D01*
X40536556Y-64403546D01*
X40368446Y-64371933D01*
X40368441Y-64371932D01*
X40364722Y-64371233D01*
X40050876Y-64350663D01*
X40047096Y-64350871D01*
X40047095Y-64350871D01*
X39955524Y-64355911D01*
X39736831Y-64367946D01*
X39733104Y-64368607D01*
X39733100Y-64368607D01*
X39623441Y-64388042D01*
X39427138Y-64422832D01*
X39423522Y-64423934D01*
X39423514Y-64423936D01*
X39129905Y-64513421D01*
X39129898Y-64513424D01*
X39126281Y-64514526D01*
X38838619Y-64641700D01*
X38835365Y-64643636D01*
X38835359Y-64643639D01*
X38571577Y-64800573D01*
X38568318Y-64802512D01*
X38319295Y-64994632D01*
X38316596Y-64997288D01*
X38316597Y-64997288D01*
X38133685Y-65177349D01*
X38095156Y-65215277D01*
X38062402Y-65256381D01*
X37901514Y-65458283D01*
X37901508Y-65458292D01*
X37899149Y-65461252D01*
X37734111Y-65728993D01*
X37602434Y-66014622D01*
X37547923Y-66183897D01*
X37507996Y-66307886D01*
X37506026Y-66314002D01*
X37505307Y-66317718D01*
X37505305Y-66317726D01*
X37447001Y-66619076D01*
X37447000Y-66619085D01*
X37446282Y-66622795D01*
X37446015Y-66626571D01*
X37446014Y-66626576D01*
X37444092Y-66653723D01*
X37424068Y-66936529D01*
X23457960Y-66936529D01*
X35571553Y-63690700D01*
X35572296Y-63690504D01*
X35617323Y-63678733D01*
X35647309Y-63670894D01*
X35655009Y-63666277D01*
X35655015Y-63666274D01*
X35672647Y-63655701D01*
X35687910Y-63647907D01*
X35706801Y-63639830D01*
X35715057Y-63636300D01*
X35734857Y-63620007D01*
X35750119Y-63609241D01*
X35764406Y-63600674D01*
X35764407Y-63600673D01*
X35772105Y-63596057D01*
X35792154Y-63574368D01*
X35804618Y-63562602D01*
X35820488Y-63549543D01*
X35827420Y-63543839D01*
X35841851Y-63522645D01*
X35853466Y-63508043D01*
X35870881Y-63489203D01*
X35884038Y-63462757D01*
X35892696Y-63447969D01*
X35904263Y-63430981D01*
X35904264Y-63430980D01*
X35909317Y-63423558D01*
X35917220Y-63399162D01*
X35924272Y-63381881D01*
X35931696Y-63366958D01*
X35935695Y-63358920D01*
X35940899Y-63329853D01*
X35945060Y-63313224D01*
X35951396Y-63293666D01*
X35951396Y-63293664D01*
X35954162Y-63285127D01*
X35954900Y-63259494D01*
X35956819Y-63240928D01*
X35961339Y-63215682D01*
X35958175Y-63186315D01*
X35957502Y-63169192D01*
X35958353Y-63139672D01*
X35956082Y-63130987D01*
X35956082Y-63130983D01*
X35949653Y-63106391D01*
X35949478Y-63105610D01*
X35949361Y-63104520D01*
X35948353Y-63100759D01*
X35941341Y-63074585D01*
X35941145Y-63073844D01*
X35924644Y-63010724D01*
X35921550Y-62998889D01*
X35920829Y-62997688D01*
X35920395Y-62996420D01*
X35917793Y-62986709D01*
X32317870Y-49551615D01*
X32317788Y-49551303D01*
X32298083Y-49475928D01*
X32293465Y-49468227D01*
X32282893Y-49450597D01*
X32275097Y-49435330D01*
X32267018Y-49416434D01*
X32263489Y-49408180D01*
X32247196Y-49388380D01*
X32236430Y-49373118D01*
X32227863Y-49358831D01*
X32227862Y-49358830D01*
X32223246Y-49351132D01*
X32201557Y-49331083D01*
X32189791Y-49318619D01*
X32176730Y-49302747D01*
X32171028Y-49295817D01*
X32149838Y-49281389D01*
X32135225Y-49269765D01*
X32129040Y-49264048D01*
X32116392Y-49252356D01*
X32089943Y-49239198D01*
X32075168Y-49230547D01*
X32050748Y-49213920D01*
X32026350Y-49206016D01*
X32009073Y-49198966D01*
X31986109Y-49187542D01*
X31977272Y-49185960D01*
X31977269Y-49185959D01*
X31957040Y-49182338D01*
X31940412Y-49178177D01*
X31926241Y-49173586D01*
X31912316Y-49169075D01*
X31886683Y-49168336D01*
X31868119Y-49166418D01*
X31842871Y-49161898D01*
X31813498Y-49165063D01*
X31796382Y-49165736D01*
X31766861Y-49164885D01*
X31744546Y-49170718D01*
X31733575Y-49173586D01*
X31732810Y-49173757D01*
X31731709Y-49173876D01*
X31701853Y-49181876D01*
X31701175Y-49182056D01*
X31629889Y-49200690D01*
X31629879Y-49200693D01*
X31626078Y-49201687D01*
X31624878Y-49202407D01*
X31623613Y-49202841D01*
X20431467Y-52201768D01*
X18178945Y-52805329D01*
X18178201Y-52805526D01*
X18103117Y-52825154D01*
X18095424Y-52829767D01*
X18095415Y-52829771D01*
X18077779Y-52840347D01*
X18062517Y-52848140D01*
X18035369Y-52859748D01*
X18015560Y-52876048D01*
X18000312Y-52886804D01*
X17978321Y-52899992D01*
X17972233Y-52906578D01*
X17972228Y-52906582D01*
X17958275Y-52921677D01*
X17945810Y-52933444D01*
X17923006Y-52952209D01*
X17908574Y-52973405D01*
X17896951Y-52988016D01*
X17879545Y-53006846D01*
X17875550Y-53014876D01*
X17875548Y-53014879D01*
X17866390Y-53033288D01*
X17857728Y-53048081D01*
X17841109Y-53072489D01*
X17838341Y-53081034D01*
X17833209Y-53096876D01*
X17826153Y-53114169D01*
X17814731Y-53137128D01*
X17813150Y-53145959D01*
X17813149Y-53145962D01*
X17809527Y-53166197D01*
X17805366Y-53182824D01*
X17796264Y-53210921D01*
X17796006Y-53219890D01*
X17795526Y-53236549D01*
X17793607Y-53255118D01*
X17789087Y-53280366D01*
X16109432Y-53280366D01*
X15753980Y-51957159D01*
X15755625Y-51886182D01*
X15795381Y-51827361D01*
X15842463Y-51802924D01*
X24083815Y-49551724D01*
X30849535Y-47703606D01*
X39001790Y-47703606D01*
X39008737Y-47737300D01*
X39008868Y-47738074D01*
X39008929Y-47739181D01*
X39009550Y-47742102D01*
X39009550Y-47742103D01*
X39015393Y-47769593D01*
X39015547Y-47770329D01*
X39031174Y-47846122D01*
X39031829Y-47847356D01*
X39032196Y-47848644D01*
X39823792Y-51572806D01*
X41926207Y-61463889D01*
X41941938Y-61540188D01*
X41946144Y-61548115D01*
X41955780Y-61566276D01*
X41962763Y-61581925D01*
X41969844Y-61601222D01*
X41969847Y-61601227D01*
X41972939Y-61609654D01*
X41988181Y-61630291D01*
X41998121Y-61646075D01*
X42010142Y-61668730D01*
X42016403Y-61675157D01*
X42030747Y-61689882D01*
X42041843Y-61702943D01*
X42059392Y-61726702D01*
X42079809Y-61742227D01*
X42093790Y-61754597D01*
X42111680Y-61772962D01*
X42137401Y-61787485D01*
X42151703Y-61796897D01*
X42175222Y-61814781D01*
X42183599Y-61817989D01*
X42183602Y-61817990D01*
X42199169Y-61823950D01*
X42216057Y-61831896D01*
X42238391Y-61844506D01*
X42247134Y-61846549D01*
X42247135Y-61846549D01*
X42267146Y-61851224D01*
X42283534Y-61856250D01*
X42302732Y-61863600D01*
X42302734Y-61863600D01*
X42311117Y-61866810D01*
X42320061Y-61867538D01*
X42320063Y-61867538D01*
X42336675Y-61868889D01*
X42355124Y-61871778D01*
X42380091Y-61877611D01*
X42389049Y-61877118D01*
X42409582Y-61875988D01*
X42426721Y-61876213D01*
X42447204Y-61877879D01*
X42456153Y-61878607D01*
X42489847Y-61871660D01*
X42490621Y-61871529D01*
X42491728Y-61871468D01*
X42522150Y-61865002D01*
X42522892Y-61864847D01*
X42594810Y-61850019D01*
X42594814Y-61850018D01*
X42598669Y-61849223D01*
X42599903Y-61848568D01*
X42601191Y-61848201D01*
X48242895Y-60649019D01*
X56216328Y-58954213D01*
X56216551Y-58954166D01*
X56292735Y-58938459D01*
X56318834Y-58924611D01*
X56334475Y-58917631D01*
X56362201Y-58907458D01*
X56369421Y-58902125D01*
X56369425Y-58902123D01*
X56382823Y-58892227D01*
X56398628Y-58882273D01*
X56413350Y-58874462D01*
X56413351Y-58874462D01*
X56421277Y-58870256D01*
X56442433Y-58849647D01*
X56455494Y-58838551D01*
X56472027Y-58826339D01*
X56479249Y-58821005D01*
X56494767Y-58800598D01*
X56507139Y-58786615D01*
X56519074Y-58774988D01*
X56519078Y-58774983D01*
X56525509Y-58768718D01*
X56540032Y-58742996D01*
X56549447Y-58728689D01*
X56567328Y-58705175D01*
X56570538Y-58696790D01*
X56570541Y-58696785D01*
X56576496Y-58681230D01*
X56584447Y-58664333D01*
X56592637Y-58649828D01*
X56592638Y-58649825D01*
X56597053Y-58642006D01*
X56603771Y-58613251D01*
X56608797Y-58596863D01*
X56616147Y-58577665D01*
X56616147Y-58577663D01*
X56619357Y-58569280D01*
X56620265Y-58558124D01*
X56621436Y-58543722D01*
X56624325Y-58525274D01*
X56625549Y-58520035D01*
X56630158Y-58500306D01*
X56628535Y-58470815D01*
X56628760Y-58453676D01*
X56630426Y-58433193D01*
X56631154Y-58424244D01*
X56624207Y-58390550D01*
X56624076Y-58389776D01*
X56624015Y-58388669D01*
X56623224Y-58384945D01*
X56617551Y-58358257D01*
X56617394Y-58357505D01*
X56602566Y-58285587D01*
X56602565Y-58285583D01*
X56601770Y-58281728D01*
X56601115Y-58280494D01*
X56600748Y-58279206D01*
X55241868Y-51886182D01*
X54115096Y-46585139D01*
X60426808Y-46585139D01*
X60428158Y-46594012D01*
X60428158Y-46594015D01*
X60431982Y-46619148D01*
X60432073Y-46619938D01*
X60432076Y-46621039D01*
X60432541Y-46623973D01*
X60432543Y-46623993D01*
X60436915Y-46651594D01*
X60437024Y-46652295D01*
X60448693Y-46728998D01*
X60449284Y-46730268D01*
X60449583Y-46731575D01*
X62627008Y-60479285D01*
X62627080Y-60479750D01*
X62638776Y-60556635D01*
X62651236Y-60583416D01*
X62657391Y-60599409D01*
X62663451Y-60619049D01*
X62663453Y-60619054D01*
X62666099Y-60627627D01*
X62671046Y-60635115D01*
X62680231Y-60649019D01*
X62689339Y-60665316D01*
X62696371Y-60680431D01*
X62696375Y-60680438D01*
X62700159Y-60688570D01*
X62706076Y-60695317D01*
X62719630Y-60710772D01*
X62730030Y-60724400D01*
X62741360Y-60741551D01*
X62741362Y-60741554D01*
X62746308Y-60749040D01*
X62765880Y-60765609D01*
X62779189Y-60778687D01*
X62796103Y-60797974D01*
X62821032Y-60813825D01*
X62834833Y-60823981D01*
X62857369Y-60843060D01*
X62880801Y-60853468D01*
X62897256Y-60862291D01*
X62918897Y-60876051D01*
X62927518Y-60878548D01*
X62927519Y-60878548D01*
X62947268Y-60884267D01*
X62963365Y-60890142D01*
X62982152Y-60898487D01*
X62982155Y-60898488D01*
X62990355Y-60902130D01*
X62999251Y-60903325D01*
X62999255Y-60903326D01*
X63015764Y-60905544D01*
X63034035Y-60909394D01*
X63050045Y-60914030D01*
X63050047Y-60914030D01*
X63058669Y-60916527D01*
X63067641Y-60916503D01*
X63067645Y-60916504D01*
X63088212Y-60916450D01*
X63105312Y-60917571D01*
X63125681Y-60920307D01*
X63125685Y-60920307D01*
X63134575Y-60921501D01*
X63153556Y-60918613D01*
X63168587Y-60916327D01*
X63169367Y-60916237D01*
X63170475Y-60916234D01*
X63201265Y-60911357D01*
X63201769Y-60911279D01*
X63274537Y-60900210D01*
X63274540Y-60900209D01*
X63278434Y-60899617D01*
X63279702Y-60899027D01*
X63281012Y-60898727D01*
X69249696Y-59953380D01*
X83254214Y-59953380D01*
X83257601Y-59987617D01*
X83257651Y-59988405D01*
X83257596Y-59989506D01*
X83257905Y-59992451D01*
X83257906Y-59992459D01*
X83259448Y-60007126D01*
X83260371Y-60015906D01*
X83260824Y-60020219D01*
X83260895Y-60020919D01*
X83268540Y-60098187D01*
X83269064Y-60099486D01*
X83269294Y-60100807D01*
X83910475Y-66201228D01*
X84724224Y-73943540D01*
X84724302Y-73944305D01*
X84730584Y-74007795D01*
X84731939Y-74021494D01*
X84742859Y-74048588D01*
X84742977Y-74048880D01*
X84748288Y-74065180D01*
X84753313Y-74085112D01*
X84753315Y-74085117D01*
X84755509Y-74093820D01*
X84760056Y-74101555D01*
X84760058Y-74101559D01*
X84768503Y-74115923D01*
X84776751Y-74132684D01*
X84782978Y-74148137D01*
X84782981Y-74148141D01*
X84786333Y-74156460D01*
X84791888Y-74163507D01*
X84791890Y-74163510D01*
X84804617Y-74179655D01*
X84814286Y-74193803D01*
X84824703Y-74211523D01*
X84824706Y-74211527D01*
X84829254Y-74219263D01*
X84847930Y-74236832D01*
X84860546Y-74250601D01*
X84876419Y-74270736D01*
X84883733Y-74275943D01*
X84900476Y-74287864D01*
X84913728Y-74298730D01*
X84922191Y-74306691D01*
X84935242Y-74318968D01*
X84943241Y-74323035D01*
X84943244Y-74323037D01*
X84958103Y-74330591D01*
X84974073Y-74340262D01*
X84994959Y-74355132D01*
X85022852Y-74364818D01*
X85038624Y-74371530D01*
X85056945Y-74380845D01*
X85056951Y-74380847D01*
X85064954Y-74384916D01*
X85090165Y-74389657D01*
X85108192Y-74394454D01*
X85132421Y-74402868D01*
X85158438Y-74404163D01*
X85161916Y-74404336D01*
X85178939Y-74406351D01*
X85199138Y-74410150D01*
X85199143Y-74410150D01*
X85207963Y-74411809D01*
X85242204Y-74408422D01*
X85242988Y-74408372D01*
X85244089Y-74408427D01*
X85247034Y-74408118D01*
X85247042Y-74408117D01*
X85263843Y-74406351D01*
X85274898Y-74405189D01*
X85275502Y-74405128D01*
X85352770Y-74397483D01*
X85354069Y-74396959D01*
X85355390Y-74396729D01*
X92121098Y-73685624D01*
X99198123Y-72941799D01*
X99198888Y-72941721D01*
X99267143Y-72934968D01*
X99267144Y-72934968D01*
X99276077Y-72934084D01*
X99284403Y-72930728D01*
X99284405Y-72930728D01*
X99303474Y-72923043D01*
X99319768Y-72917733D01*
X99321033Y-72917414D01*
X99348403Y-72910514D01*
X99370509Y-72897518D01*
X99387262Y-72889275D01*
X99402721Y-72883045D01*
X99411043Y-72879691D01*
X99418088Y-72874137D01*
X99418095Y-72874133D01*
X99434240Y-72861405D01*
X99448389Y-72851734D01*
X99473846Y-72836769D01*
X99491412Y-72818096D01*
X99505177Y-72805482D01*
X99518273Y-72795158D01*
X99525319Y-72789604D01*
X99542447Y-72765547D01*
X99553313Y-72752295D01*
X99561274Y-72743832D01*
X99573551Y-72730781D01*
X99585175Y-72707919D01*
X99594843Y-72691953D01*
X99609715Y-72671065D01*
X99619402Y-72643169D01*
X99626114Y-72627397D01*
X99635428Y-72609078D01*
X99635430Y-72609072D01*
X99639499Y-72601069D01*
X99644240Y-72575858D01*
X99649037Y-72557831D01*
X99657451Y-72533602D01*
X99658919Y-72504107D01*
X99660934Y-72487084D01*
X99664733Y-72466885D01*
X99664733Y-72466880D01*
X99666392Y-72458060D01*
X99663005Y-72423819D01*
X99662955Y-72423035D01*
X99663010Y-72421934D01*
X99659772Y-72391125D01*
X99659704Y-72390456D01*
X99652454Y-72317176D01*
X99652066Y-72313253D01*
X99651542Y-72311954D01*
X99651311Y-72310630D01*
X99613139Y-71947442D01*
X98892082Y-65087049D01*
X98399621Y-60401592D01*
X103751966Y-60401592D01*
X103752381Y-60410559D01*
X103752381Y-60410561D01*
X103753557Y-60435965D01*
X103753565Y-60436752D01*
X103753453Y-60437846D01*
X103753609Y-60440822D01*
X103755067Y-60468642D01*
X103755098Y-60469276D01*
X103758694Y-60546950D01*
X103759149Y-60548275D01*
X103759310Y-60549608D01*
X104038397Y-65874902D01*
X104487773Y-74449523D01*
X104487811Y-74450291D01*
X104491397Y-74527763D01*
X104500993Y-74555710D01*
X104505437Y-74572240D01*
X104511150Y-74601223D01*
X104522976Y-74623989D01*
X104530324Y-74641133D01*
X104538653Y-74665392D01*
X104543832Y-74672720D01*
X104543833Y-74672722D01*
X104555700Y-74689513D01*
X104564615Y-74704147D01*
X104578228Y-74730354D01*
X104584437Y-74736840D01*
X104595956Y-74748873D01*
X104607833Y-74763280D01*
X104622635Y-74784225D01*
X104645766Y-74802591D01*
X104658424Y-74814128D01*
X104678853Y-74835469D01*
X104686629Y-74839950D01*
X104686631Y-74839951D01*
X104701070Y-74848271D01*
X104716513Y-74858766D01*
X104729563Y-74869127D01*
X104736595Y-74874710D01*
X104763953Y-74885847D01*
X104779349Y-74893373D01*
X104804936Y-74908116D01*
X104829857Y-74914168D01*
X104847619Y-74919905D01*
X104871371Y-74929574D01*
X104880298Y-74930489D01*
X104880299Y-74930489D01*
X104900757Y-74932585D01*
X104917648Y-74935488D01*
X104933539Y-74939347D01*
X104946341Y-74942456D01*
X104955310Y-74942041D01*
X104955311Y-74942041D01*
X104980700Y-74940866D01*
X104981495Y-74940858D01*
X104982595Y-74940970D01*
X104985570Y-74940814D01*
X104985578Y-74940814D01*
X105013563Y-74939347D01*
X105014331Y-74939309D01*
X105087768Y-74935910D01*
X105087769Y-74935910D01*
X105091699Y-74935728D01*
X105093019Y-74935275D01*
X105094355Y-74935113D01*
X118994429Y-74206642D01*
X118995197Y-74206604D01*
X119014533Y-74205709D01*
X119072512Y-74203025D01*
X119100443Y-74193435D01*
X119116993Y-74188985D01*
X119118357Y-74188716D01*
X119145972Y-74183273D01*
X119168728Y-74171453D01*
X119185886Y-74164099D01*
X119201651Y-74158686D01*
X119201656Y-74158683D01*
X119210141Y-74155770D01*
X119234258Y-74138726D01*
X119248892Y-74129811D01*
X119267138Y-74120333D01*
X119267140Y-74120331D01*
X119275103Y-74116195D01*
X119281586Y-74109989D01*
X119281590Y-74109986D01*
X119293628Y-74098462D01*
X119308035Y-74086585D01*
X119328974Y-74071787D01*
X119347344Y-74048651D01*
X119358879Y-74035998D01*
X119373734Y-74021778D01*
X119373737Y-74021774D01*
X119380218Y-74015570D01*
X119393020Y-73993350D01*
X119403518Y-73977904D01*
X119419459Y-73957828D01*
X119430595Y-73930472D01*
X119438117Y-73915083D01*
X119452865Y-73889487D01*
X119456122Y-73876078D01*
X119458916Y-73864572D01*
X119464656Y-73846800D01*
X119470940Y-73831364D01*
X119470941Y-73831358D01*
X119474323Y-73823051D01*
X119477334Y-73793666D01*
X119480237Y-73776777D01*
X119485086Y-73756810D01*
X119485086Y-73756807D01*
X119487205Y-73748082D01*
X119485615Y-73713723D01*
X119485607Y-73712928D01*
X119485719Y-73711828D01*
X119484096Y-73680855D01*
X119484058Y-73680092D01*
X119483000Y-73657228D01*
X124222221Y-73657228D01*
X124224687Y-73665857D01*
X124224688Y-73665862D01*
X124230336Y-73685624D01*
X124233914Y-73702385D01*
X124236827Y-73722728D01*
X124236830Y-73722738D01*
X124238102Y-73731621D01*
X124248718Y-73754971D01*
X124255161Y-73772483D01*
X124256820Y-73778286D01*
X124262209Y-73797141D01*
X124277971Y-73822124D01*
X124286101Y-73837190D01*
X124298330Y-73864086D01*
X124315071Y-73883515D01*
X124326176Y-73898523D01*
X124339857Y-73920207D01*
X124346585Y-73926149D01*
X124361993Y-73939757D01*
X124374037Y-73951949D01*
X124393316Y-73974323D01*
X124400844Y-73979202D01*
X124400847Y-73979205D01*
X124414836Y-73988272D01*
X124429710Y-73999562D01*
X124448925Y-74016532D01*
X124457051Y-74020347D01*
X124457052Y-74020348D01*
X124459493Y-74021494D01*
X124475663Y-74029086D01*
X124490632Y-74037400D01*
X124515424Y-74053469D01*
X124532347Y-74058530D01*
X124539987Y-74060815D01*
X124557433Y-74067477D01*
X124580645Y-74078375D01*
X124609827Y-74082919D01*
X124626546Y-74086702D01*
X124646233Y-74092590D01*
X124646236Y-74092591D01*
X124654838Y-74095163D01*
X124663813Y-74095218D01*
X124663814Y-74095218D01*
X124670507Y-74095259D01*
X124689253Y-74095373D01*
X124690025Y-74095406D01*
X124691120Y-74095576D01*
X124721995Y-74095576D01*
X124722765Y-74095578D01*
X124796413Y-74096028D01*
X124796414Y-74096028D01*
X124800349Y-74096052D01*
X124801693Y-74095668D01*
X124803038Y-74095576D01*
X138721995Y-74095576D01*
X138722766Y-74095578D01*
X138800349Y-74096052D01*
X138808978Y-74093586D01*
X138808983Y-74093585D01*
X138828745Y-74087937D01*
X138845506Y-74084359D01*
X138865849Y-74081446D01*
X138865859Y-74081443D01*
X138874742Y-74080171D01*
X138898092Y-74069555D01*
X138915604Y-74063112D01*
X138931634Y-74058530D01*
X138940262Y-74056064D01*
X138965245Y-74040302D01*
X138980311Y-74032172D01*
X139007207Y-74019943D01*
X139026636Y-74003202D01*
X139041644Y-73992097D01*
X139055736Y-73983206D01*
X139063328Y-73978416D01*
X139082879Y-73956279D01*
X139095071Y-73944235D01*
X139110646Y-73930815D01*
X139110647Y-73930813D01*
X139117444Y-73924957D01*
X139122323Y-73917429D01*
X139122326Y-73917426D01*
X139131393Y-73903437D01*
X139142683Y-73888563D01*
X139147150Y-73883505D01*
X139159653Y-73869348D01*
X139172207Y-73842610D01*
X139180521Y-73827641D01*
X139196590Y-73802849D01*
X139203936Y-73778285D01*
X139210598Y-73760840D01*
X139217680Y-73745755D01*
X139221496Y-73737628D01*
X139226040Y-73708446D01*
X139229823Y-73691727D01*
X139235711Y-73672040D01*
X139235712Y-73672037D01*
X139238284Y-73663435D01*
X139238494Y-73629020D01*
X139238527Y-73628248D01*
X139238697Y-73627153D01*
X139238697Y-73596278D01*
X139238699Y-73595508D01*
X139239149Y-73521860D01*
X139239149Y-73521859D01*
X139239173Y-73517924D01*
X139238789Y-73516580D01*
X139238697Y-73515235D01*
X139238697Y-59596278D01*
X139238699Y-59595508D01*
X139239035Y-59540491D01*
X139239173Y-59517924D01*
X139236707Y-59509295D01*
X139236706Y-59509290D01*
X139231058Y-59489528D01*
X139227480Y-59472767D01*
X139224567Y-59452424D01*
X139224564Y-59452414D01*
X139223292Y-59443531D01*
X139212676Y-59420181D01*
X139206233Y-59402669D01*
X139201651Y-59386639D01*
X139199185Y-59378011D01*
X139183423Y-59353028D01*
X139175293Y-59337962D01*
X139163064Y-59311066D01*
X139146323Y-59291637D01*
X139135218Y-59276629D01*
X139126327Y-59262537D01*
X139121537Y-59254945D01*
X139099400Y-59235394D01*
X139087356Y-59223202D01*
X139073936Y-59207627D01*
X139073934Y-59207626D01*
X139068078Y-59200829D01*
X139060550Y-59195950D01*
X139060547Y-59195947D01*
X139046558Y-59186880D01*
X139031684Y-59175590D01*
X139019199Y-59164564D01*
X139012469Y-59158620D01*
X139004343Y-59154805D01*
X139004342Y-59154804D01*
X138998676Y-59152144D01*
X138985731Y-59146066D01*
X138970762Y-59137752D01*
X138945970Y-59121683D01*
X138921406Y-59114337D01*
X138903961Y-59107675D01*
X138899524Y-59105592D01*
X138880749Y-59096777D01*
X138851567Y-59092233D01*
X138834848Y-59088450D01*
X138815161Y-59082562D01*
X138815158Y-59082561D01*
X138806556Y-59079989D01*
X138797581Y-59079934D01*
X138797580Y-59079934D01*
X138790887Y-59079893D01*
X138772141Y-59079779D01*
X138771369Y-59079746D01*
X138770274Y-59079576D01*
X138739399Y-59079576D01*
X138738629Y-59079574D01*
X138664981Y-59079124D01*
X138664980Y-59079124D01*
X138661045Y-59079100D01*
X138659701Y-59079484D01*
X138658356Y-59079576D01*
X124739399Y-59079576D01*
X124738629Y-59079574D01*
X124737775Y-59079569D01*
X124661045Y-59079100D01*
X124652416Y-59081566D01*
X124652411Y-59081567D01*
X124632649Y-59087215D01*
X124615888Y-59090793D01*
X124595545Y-59093706D01*
X124595535Y-59093709D01*
X124586652Y-59094981D01*
X124563302Y-59105597D01*
X124545790Y-59112040D01*
X124537754Y-59114337D01*
X124521132Y-59119088D01*
X124496149Y-59134850D01*
X124481083Y-59142980D01*
X124454187Y-59155209D01*
X124434758Y-59171950D01*
X124419750Y-59183055D01*
X124398066Y-59196736D01*
X124392124Y-59203464D01*
X124378516Y-59218872D01*
X124366323Y-59230917D01*
X124353974Y-59241558D01*
X124343950Y-59250195D01*
X124339071Y-59257723D01*
X124339068Y-59257726D01*
X124330001Y-59271715D01*
X124318711Y-59286589D01*
X124301741Y-59305804D01*
X124297926Y-59313930D01*
X124297925Y-59313931D01*
X124295434Y-59319237D01*
X124289187Y-59332542D01*
X124280873Y-59347511D01*
X124264804Y-59372303D01*
X124262232Y-59380903D01*
X124257458Y-59396866D01*
X124250796Y-59414312D01*
X124239898Y-59437524D01*
X124237465Y-59453151D01*
X124235355Y-59466704D01*
X124231571Y-59483425D01*
X124225683Y-59503112D01*
X124225682Y-59503115D01*
X124223110Y-59511717D01*
X124223055Y-59520692D01*
X124223055Y-59520693D01*
X124222900Y-59546122D01*
X124222867Y-59546904D01*
X124222697Y-59547999D01*
X124222697Y-59578874D01*
X124222695Y-59579644D01*
X124222221Y-59657228D01*
X124222605Y-59658572D01*
X124222697Y-59659917D01*
X124222697Y-73578874D01*
X124222695Y-73579644D01*
X124222221Y-73657228D01*
X119483000Y-73657228D01*
X119480659Y-73606655D01*
X119480659Y-73606654D01*
X119480477Y-73602724D01*
X119480024Y-73601404D01*
X119479862Y-73600068D01*
X118751390Y-59699979D01*
X118751352Y-59699211D01*
X118748189Y-59630879D01*
X118747774Y-59621911D01*
X118738184Y-59593980D01*
X118733734Y-59577430D01*
X118729757Y-59557255D01*
X118728022Y-59548451D01*
X118716202Y-59525695D01*
X118708848Y-59508537D01*
X118703435Y-59492772D01*
X118703432Y-59492767D01*
X118700519Y-59484282D01*
X118683475Y-59460165D01*
X118674560Y-59445531D01*
X118665082Y-59427285D01*
X118665080Y-59427283D01*
X118660944Y-59419320D01*
X118654738Y-59412837D01*
X118654735Y-59412833D01*
X118643211Y-59400795D01*
X118631334Y-59386388D01*
X118616536Y-59365449D01*
X118593400Y-59347079D01*
X118580747Y-59335544D01*
X118566527Y-59320689D01*
X118566523Y-59320686D01*
X118560319Y-59314205D01*
X118545739Y-59305804D01*
X118538100Y-59301403D01*
X118522653Y-59290905D01*
X118502577Y-59274964D01*
X118475221Y-59263828D01*
X118459832Y-59256306D01*
X118434236Y-59241558D01*
X118409324Y-59235508D01*
X118391552Y-59229768D01*
X118376114Y-59223484D01*
X118376111Y-59223483D01*
X118367800Y-59220100D01*
X118358877Y-59219186D01*
X118358874Y-59219185D01*
X118344665Y-59217730D01*
X118338426Y-59217090D01*
X118321531Y-59214187D01*
X118301556Y-59209336D01*
X118292831Y-59207217D01*
X118283864Y-59207632D01*
X118283862Y-59207632D01*
X118258458Y-59208808D01*
X118257671Y-59208816D01*
X118256577Y-59208704D01*
X118225616Y-59210326D01*
X118225147Y-59210349D01*
X118147473Y-59213945D01*
X118146148Y-59214400D01*
X118144815Y-59214561D01*
X106295304Y-59835567D01*
X104244898Y-59943024D01*
X104244130Y-59943062D01*
X104221339Y-59944117D01*
X104166660Y-59946648D01*
X104138713Y-59956244D01*
X104122183Y-59960688D01*
X104093200Y-59966401D01*
X104070434Y-59978227D01*
X104053290Y-59985575D01*
X104029031Y-59993904D01*
X104021703Y-59999083D01*
X104021701Y-59999084D01*
X104004910Y-60010951D01*
X103990276Y-60019866D01*
X103964069Y-60033479D01*
X103957583Y-60039688D01*
X103945550Y-60051207D01*
X103931143Y-60063084D01*
X103910198Y-60077886D01*
X103892804Y-60099794D01*
X103891836Y-60101013D01*
X103880295Y-60113675D01*
X103858954Y-60134104D01*
X103854473Y-60141880D01*
X103854472Y-60141882D01*
X103846152Y-60156321D01*
X103835657Y-60171764D01*
X103825296Y-60184814D01*
X103819713Y-60191846D01*
X103808576Y-60219204D01*
X103801050Y-60234600D01*
X103790787Y-60252410D01*
X103790785Y-60252416D01*
X103786307Y-60260187D01*
X103784190Y-60268903D01*
X103784189Y-60268906D01*
X103780255Y-60285107D01*
X103774515Y-60302877D01*
X103764849Y-60326622D01*
X103763935Y-60335548D01*
X103763934Y-60335550D01*
X103761840Y-60355994D01*
X103758936Y-60372891D01*
X103754085Y-60392865D01*
X103754085Y-60392868D01*
X103751966Y-60401592D01*
X98399621Y-60401592D01*
X98196382Y-58467900D01*
X98196304Y-58467135D01*
X98192060Y-58424244D01*
X98188667Y-58389946D01*
X98185315Y-58381627D01*
X98185313Y-58381621D01*
X98177626Y-58362548D01*
X98172316Y-58346254D01*
X98167292Y-58326326D01*
X98167291Y-58326324D01*
X98165097Y-58317621D01*
X98152105Y-58295520D01*
X98143862Y-58278770D01*
X98134274Y-58254980D01*
X98124829Y-58242998D01*
X98115985Y-58231780D01*
X98106316Y-58217631D01*
X98095902Y-58199916D01*
X98095901Y-58199914D01*
X98091352Y-58192177D01*
X98072677Y-58174609D01*
X98060063Y-58160844D01*
X98044187Y-58140704D01*
X98036872Y-58135496D01*
X98036870Y-58135494D01*
X98020122Y-58123570D01*
X98006875Y-58112709D01*
X97985364Y-58092473D01*
X97977357Y-58088402D01*
X97962505Y-58080850D01*
X97946534Y-58071178D01*
X97932956Y-58061511D01*
X97925648Y-58056308D01*
X97897749Y-58046619D01*
X97881979Y-58039909D01*
X97863653Y-58030592D01*
X97863654Y-58030592D01*
X97855652Y-58026524D01*
X97830441Y-58021783D01*
X97812414Y-58016986D01*
X97788185Y-58008572D01*
X97762168Y-58007277D01*
X97758690Y-58007104D01*
X97741667Y-58005089D01*
X97721468Y-58001290D01*
X97721463Y-58001290D01*
X97712643Y-57999631D01*
X97678402Y-58003018D01*
X97677618Y-58003068D01*
X97676517Y-58003013D01*
X97673572Y-58003322D01*
X97673564Y-58003323D01*
X97658897Y-58004865D01*
X97645708Y-58006251D01*
X97645104Y-58006312D01*
X97567836Y-58013957D01*
X97566537Y-58014481D01*
X97565216Y-58014711D01*
X92209071Y-58577665D01*
X83722483Y-59469641D01*
X83721718Y-59469719D01*
X83653463Y-59476472D01*
X83653462Y-59476472D01*
X83644529Y-59477356D01*
X83617129Y-59488399D01*
X83600838Y-59493707D01*
X83580909Y-59498731D01*
X83580907Y-59498732D01*
X83572204Y-59500926D01*
X83564466Y-59505475D01*
X83550093Y-59513924D01*
X83533339Y-59522168D01*
X83517887Y-59528395D01*
X83517885Y-59528396D01*
X83509563Y-59531750D01*
X83502515Y-59537306D01*
X83502510Y-59537309D01*
X83486368Y-59550034D01*
X83472220Y-59559703D01*
X83454499Y-59570121D01*
X83454497Y-59570123D01*
X83446760Y-59574671D01*
X83429194Y-59593344D01*
X83415429Y-59605958D01*
X83395287Y-59621836D01*
X83390083Y-59629146D01*
X83378158Y-59645895D01*
X83367289Y-59659150D01*
X83347056Y-59680659D01*
X83342989Y-59688659D01*
X83342988Y-59688660D01*
X83335434Y-59703518D01*
X83325760Y-59719492D01*
X83310891Y-59740376D01*
X83301205Y-59768269D01*
X83294495Y-59784036D01*
X83285178Y-59802361D01*
X83285175Y-59802370D01*
X83281107Y-59810371D01*
X83276366Y-59835582D01*
X83271569Y-59853609D01*
X83263155Y-59877838D01*
X83262709Y-59886806D01*
X83261687Y-59907333D01*
X83259672Y-59924356D01*
X83256158Y-59943045D01*
X83254214Y-59953380D01*
X69249696Y-59953380D01*
X77028652Y-58721314D01*
X77029413Y-58721196D01*
X77087757Y-58712320D01*
X77106071Y-58709534D01*
X77132852Y-58697074D01*
X77148845Y-58690919D01*
X77168485Y-58684859D01*
X77168490Y-58684857D01*
X77177063Y-58682211D01*
X77198456Y-58668079D01*
X77214752Y-58658971D01*
X77229867Y-58651939D01*
X77229874Y-58651935D01*
X77238006Y-58648151D01*
X77260211Y-58628678D01*
X77273836Y-58618280D01*
X77290987Y-58606950D01*
X77290990Y-58606948D01*
X77298476Y-58602002D01*
X77315045Y-58582430D01*
X77328123Y-58569121D01*
X77347410Y-58552207D01*
X77363261Y-58527278D01*
X77373417Y-58513478D01*
X77386696Y-58497792D01*
X77392496Y-58490941D01*
X77402904Y-58467509D01*
X77411727Y-58451054D01*
X77420670Y-58436989D01*
X77420670Y-58436988D01*
X77425487Y-58429413D01*
X77433704Y-58401040D01*
X77439578Y-58384945D01*
X77447923Y-58366156D01*
X77451566Y-58357955D01*
X77454979Y-58332544D01*
X77458829Y-58314276D01*
X77465963Y-58289640D01*
X77465939Y-58280670D01*
X77465940Y-58280666D01*
X77465886Y-58260098D01*
X77467007Y-58242998D01*
X77469743Y-58222629D01*
X77469743Y-58222625D01*
X77470937Y-58213735D01*
X77465763Y-58179723D01*
X77465673Y-58178943D01*
X77465670Y-58177835D01*
X77460793Y-58147045D01*
X77460715Y-58146541D01*
X77449646Y-58073773D01*
X77449645Y-58073770D01*
X77449053Y-58069876D01*
X77448463Y-58068608D01*
X77448163Y-58067298D01*
X75270742Y-44319609D01*
X75270624Y-44318848D01*
X75264201Y-44276626D01*
X75258970Y-44242239D01*
X75255185Y-44234103D01*
X75246510Y-44215457D01*
X75240355Y-44199463D01*
X75234296Y-44179831D01*
X75234296Y-44179830D01*
X75231647Y-44171247D01*
X75217515Y-44149854D01*
X75208407Y-44133558D01*
X75201375Y-44118443D01*
X75201371Y-44118436D01*
X75197587Y-44110304D01*
X75178114Y-44088099D01*
X75167716Y-44074474D01*
X75156386Y-44057323D01*
X75156384Y-44057320D01*
X75151438Y-44049834D01*
X75131866Y-44033265D01*
X75118547Y-44020176D01*
X75117187Y-44018625D01*
X75101643Y-44000900D01*
X75094067Y-43996083D01*
X75094066Y-43996082D01*
X75076723Y-43985055D01*
X75062917Y-43974895D01*
X75047229Y-43961614D01*
X75040377Y-43955813D01*
X75016945Y-43945405D01*
X75000486Y-43936581D01*
X74986422Y-43927638D01*
X74986420Y-43927637D01*
X74978849Y-43922823D01*
X74970228Y-43920327D01*
X74970227Y-43920326D01*
X74950478Y-43914607D01*
X74934384Y-43908733D01*
X74907391Y-43896744D01*
X74881970Y-43893329D01*
X74863709Y-43889480D01*
X74847702Y-43884844D01*
X74847697Y-43884843D01*
X74839076Y-43882347D01*
X74830103Y-43882371D01*
X74830099Y-43882370D01*
X74809535Y-43882424D01*
X74792435Y-43881303D01*
X74763171Y-43877372D01*
X74754298Y-43878722D01*
X74754295Y-43878722D01*
X74729162Y-43882546D01*
X74728372Y-43882637D01*
X74727271Y-43882640D01*
X74724337Y-43883105D01*
X74724317Y-43883107D01*
X74696716Y-43887479D01*
X74696015Y-43887588D01*
X74619312Y-43899257D01*
X74618042Y-43899848D01*
X74616735Y-43900147D01*
X69797447Y-44663448D01*
X60869130Y-46077555D01*
X60868369Y-46077673D01*
X60851496Y-46080240D01*
X60791675Y-46089340D01*
X60783541Y-46093124D01*
X60783539Y-46093125D01*
X60764893Y-46101800D01*
X60748899Y-46107955D01*
X60729267Y-46114014D01*
X60720683Y-46116663D01*
X60713193Y-46121611D01*
X60713191Y-46121612D01*
X60699291Y-46130795D01*
X60682994Y-46139903D01*
X60667879Y-46146935D01*
X60667872Y-46146939D01*
X60659740Y-46150723D01*
X60652993Y-46156640D01*
X60637538Y-46170194D01*
X60623910Y-46180594D01*
X60606759Y-46191924D01*
X60606756Y-46191926D01*
X60599270Y-46196872D01*
X60593473Y-46203720D01*
X60582704Y-46216441D01*
X60569615Y-46229760D01*
X60550336Y-46246667D01*
X60545519Y-46254243D01*
X60545518Y-46254244D01*
X60534491Y-46271587D01*
X60524331Y-46285393D01*
X60505249Y-46307933D01*
X60501605Y-46316136D01*
X60501605Y-46316137D01*
X60494842Y-46331364D01*
X60486017Y-46347824D01*
X60472259Y-46369461D01*
X60469762Y-46378084D01*
X60469761Y-46378086D01*
X60464044Y-46397830D01*
X60458168Y-46413929D01*
X60446180Y-46440919D01*
X60444986Y-46449812D01*
X60444985Y-46449814D01*
X60442767Y-46466329D01*
X60438915Y-46484604D01*
X60431783Y-46509233D01*
X60431807Y-46518202D01*
X60431806Y-46518206D01*
X60431860Y-46538776D01*
X60430739Y-46555872D01*
X60426808Y-46585139D01*
X54115096Y-46585139D01*
X53706737Y-44663961D01*
X53691006Y-44587662D01*
X53677158Y-44561563D01*
X53670178Y-44545922D01*
X53660005Y-44518196D01*
X53654672Y-44510976D01*
X53654670Y-44510972D01*
X53644774Y-44497574D01*
X53634820Y-44481769D01*
X53627009Y-44467047D01*
X53627009Y-44467046D01*
X53622803Y-44459120D01*
X53602194Y-44437964D01*
X53591098Y-44424903D01*
X53578886Y-44408370D01*
X53573552Y-44401148D01*
X53553145Y-44385630D01*
X53539162Y-44373258D01*
X53527535Y-44361323D01*
X53527530Y-44361319D01*
X53521265Y-44354888D01*
X53495543Y-44340365D01*
X53481236Y-44330950D01*
X53457722Y-44313069D01*
X53449337Y-44309859D01*
X53449332Y-44309856D01*
X53433777Y-44303901D01*
X53416880Y-44295950D01*
X53402375Y-44287760D01*
X53402372Y-44287759D01*
X53394553Y-44283344D01*
X53365798Y-44276626D01*
X53349410Y-44271600D01*
X53330212Y-44264250D01*
X53330210Y-44264250D01*
X53321827Y-44261040D01*
X53312883Y-44260312D01*
X53312881Y-44260312D01*
X53296269Y-44258961D01*
X53277821Y-44256072D01*
X53275296Y-44255482D01*
X53252853Y-44250239D01*
X53243895Y-44250732D01*
X53223362Y-44251862D01*
X53206223Y-44251637D01*
X53185740Y-44249971D01*
X53176791Y-44249243D01*
X53143097Y-44256190D01*
X53142323Y-44256321D01*
X53141216Y-44256382D01*
X53138295Y-44257003D01*
X53138294Y-44257003D01*
X53110804Y-44262846D01*
X53110052Y-44263003D01*
X53038134Y-44277831D01*
X53038130Y-44277832D01*
X53034275Y-44278627D01*
X53033041Y-44279282D01*
X53031753Y-44279649D01*
X48821394Y-45174589D01*
X39416616Y-47173637D01*
X39416393Y-47173684D01*
X39340209Y-47189391D01*
X39332282Y-47193597D01*
X39314121Y-47203233D01*
X39298472Y-47210216D01*
X39279175Y-47217297D01*
X39279170Y-47217300D01*
X39270743Y-47220392D01*
X39250106Y-47235634D01*
X39234322Y-47245574D01*
X39211667Y-47257595D01*
X39205240Y-47263856D01*
X39190515Y-47278200D01*
X39177454Y-47289296D01*
X39153695Y-47306845D01*
X39138170Y-47327262D01*
X39125800Y-47341243D01*
X39107435Y-47359133D01*
X39092912Y-47384854D01*
X39083500Y-47399156D01*
X39065616Y-47422675D01*
X39062408Y-47431052D01*
X39062407Y-47431055D01*
X39056447Y-47446622D01*
X39048501Y-47463510D01*
X39035891Y-47485844D01*
X39033848Y-47494587D01*
X39033848Y-47494588D01*
X39029173Y-47514599D01*
X39024147Y-47530987D01*
X39013587Y-47558570D01*
X39012859Y-47567514D01*
X39012859Y-47567516D01*
X39011508Y-47584128D01*
X39008619Y-47602576D01*
X39002786Y-47627544D01*
X39003279Y-47636502D01*
X39004409Y-47657035D01*
X39004184Y-47674174D01*
X39001790Y-47703606D01*
X30849535Y-47703606D01*
X36604471Y-46131593D01*
X36610783Y-46130043D01*
X48104272Y-43619329D01*
X75778068Y-43619329D01*
X75779541Y-43648916D01*
X75792650Y-43912219D01*
X75793707Y-43933460D01*
X75794348Y-43937191D01*
X75794349Y-43937199D01*
X75846326Y-44239692D01*
X75846328Y-44239700D01*
X75846970Y-44243437D01*
X75848058Y-44247076D01*
X75848059Y-44247079D01*
X75931661Y-44526622D01*
X75937088Y-44544770D01*
X76062754Y-44833094D01*
X76222148Y-45104232D01*
X76224449Y-45107247D01*
X76410662Y-45351245D01*
X76410667Y-45351250D01*
X76412962Y-45354258D01*
X76632431Y-45579549D01*
X76699835Y-45633840D01*
X76874423Y-45774464D01*
X76874428Y-45774468D01*
X76877376Y-45776842D01*
X76880596Y-45778850D01*
X77141022Y-45941268D01*
X77141029Y-45941272D01*
X77144249Y-45943280D01*
X77429185Y-46076450D01*
X77432795Y-46077633D01*
X77432799Y-46077635D01*
X77673802Y-46156640D01*
X77728055Y-46174425D01*
X78036532Y-46235785D01*
X78040304Y-46236072D01*
X78040312Y-46236073D01*
X78346369Y-46259354D01*
X78346374Y-46259354D01*
X78350146Y-46259641D01*
X78664354Y-46245647D01*
X78668092Y-46245025D01*
X78668100Y-46245024D01*
X78839822Y-46216441D01*
X78974605Y-46194007D01*
X79276406Y-46105469D01*
X79565384Y-45981314D01*
X79568661Y-45979410D01*
X79568668Y-45979407D01*
X79726424Y-45887774D01*
X79837353Y-45823341D01*
X79926292Y-45756199D01*
X80085349Y-45636125D01*
X80085355Y-45636120D01*
X80088375Y-45633840D01*
X80314812Y-45415553D01*
X80513385Y-45171645D01*
X80681217Y-44905646D01*
X80815878Y-44621412D01*
X80915416Y-44323059D01*
X80978390Y-44014908D01*
X81003888Y-43701423D01*
X81004461Y-43646695D01*
X80985534Y-43332745D01*
X80929027Y-43023343D01*
X80835759Y-42722971D01*
X80707080Y-42435978D01*
X80544856Y-42166524D01*
X80542529Y-42163540D01*
X80542524Y-42163533D01*
X80353765Y-41921498D01*
X80353759Y-41921491D01*
X80351434Y-41918510D01*
X80129618Y-41695529D01*
X79882621Y-41500812D01*
X79614019Y-41337179D01*
X79466949Y-41270310D01*
X79331156Y-41208568D01*
X79331148Y-41208565D01*
X79327704Y-41206999D01*
X79027824Y-41112159D01*
X78877283Y-41083850D01*
X78722446Y-41054733D01*
X78722441Y-41054732D01*
X78718722Y-41054033D01*
X78404876Y-41033463D01*
X78401096Y-41033671D01*
X78401095Y-41033671D01*
X78309524Y-41038711D01*
X78090831Y-41050746D01*
X78087104Y-41051407D01*
X78087100Y-41051407D01*
X77977441Y-41070842D01*
X77781138Y-41105632D01*
X77777522Y-41106734D01*
X77777514Y-41106736D01*
X77483905Y-41196221D01*
X77483898Y-41196224D01*
X77480281Y-41197326D01*
X77192619Y-41324500D01*
X77189365Y-41326436D01*
X77189359Y-41326439D01*
X76925577Y-41483373D01*
X76922318Y-41485312D01*
X76919317Y-41487627D01*
X76919313Y-41487630D01*
X76871269Y-41524696D01*
X76673295Y-41677432D01*
X76670596Y-41680088D01*
X76670597Y-41680088D01*
X76467667Y-41879855D01*
X76449156Y-41898077D01*
X76420867Y-41933578D01*
X76255514Y-42141083D01*
X76255508Y-42141092D01*
X76253149Y-42144052D01*
X76088111Y-42411793D01*
X75956434Y-42697422D01*
X75860026Y-42996802D01*
X75859307Y-43000518D01*
X75859305Y-43000526D01*
X75801001Y-43301876D01*
X75801000Y-43301885D01*
X75800282Y-43305595D01*
X75800015Y-43309371D01*
X75800014Y-43309376D01*
X75798092Y-43336523D01*
X75778068Y-43619329D01*
X48104272Y-43619329D01*
X50954062Y-42996802D01*
X57503781Y-41566038D01*
X57511767Y-41564562D01*
X57564089Y-41556627D01*
X57575008Y-41551554D01*
X57607728Y-41536350D01*
X57616752Y-41532576D01*
X57653427Y-41518883D01*
X57653429Y-41518882D01*
X57661839Y-41515742D01*
X57669029Y-41510369D01*
X57673744Y-41507796D01*
X57683422Y-41502015D01*
X57687913Y-41499091D01*
X57696053Y-41495308D01*
X57702802Y-41489395D01*
X57702805Y-41489393D01*
X57732252Y-41463593D01*
X57739856Y-41457436D01*
X57771208Y-41434006D01*
X57778399Y-41428632D01*
X57783793Y-41421455D01*
X57787608Y-41417650D01*
X57795232Y-41409432D01*
X57798748Y-41405334D01*
X57805503Y-41399416D01*
X57810325Y-41391840D01*
X57810327Y-41391838D01*
X57831344Y-41358819D01*
X57836903Y-41350790D01*
X57865825Y-41312308D01*
X57868987Y-41303907D01*
X57871574Y-41299197D01*
X57876605Y-41289129D01*
X57878818Y-41284233D01*
X57883639Y-41276660D01*
X57897046Y-41230447D01*
X57900133Y-41221168D01*
X57913925Y-41184526D01*
X57913926Y-41184524D01*
X57917088Y-41176122D01*
X57917765Y-41167173D01*
X57918927Y-41161925D01*
X57920934Y-41150827D01*
X57921682Y-41145525D01*
X57924182Y-41136906D01*
X57924149Y-41121465D01*
X57924079Y-41088784D01*
X57924438Y-41079006D01*
X57927392Y-41039976D01*
X57927392Y-41039971D01*
X57928069Y-41031022D01*
X57916249Y-40975286D01*
X57915055Y-40968822D01*
X57913929Y-40961687D01*
X55830981Y-27769677D01*
X57446734Y-27769677D01*
X57448084Y-27778550D01*
X57448084Y-27778553D01*
X57451908Y-27803686D01*
X57451999Y-27804476D01*
X57452002Y-27805577D01*
X57452467Y-27808511D01*
X57452469Y-27808531D01*
X57456841Y-27836132D01*
X57456950Y-27836833D01*
X57468619Y-27913536D01*
X57469210Y-27914806D01*
X57469509Y-27916113D01*
X59646934Y-41663823D01*
X59647006Y-41664288D01*
X59658702Y-41741173D01*
X59671162Y-41767954D01*
X59677317Y-41783947D01*
X59683377Y-41803587D01*
X59683379Y-41803592D01*
X59686025Y-41812165D01*
X59690972Y-41819653D01*
X59700157Y-41833557D01*
X59709265Y-41849854D01*
X59716297Y-41864969D01*
X59716301Y-41864976D01*
X59720085Y-41873108D01*
X59726002Y-41879855D01*
X59739556Y-41895310D01*
X59749956Y-41908938D01*
X59761286Y-41926089D01*
X59761288Y-41926092D01*
X59766234Y-41933578D01*
X59785806Y-41950147D01*
X59799115Y-41963225D01*
X59816029Y-41982512D01*
X59840958Y-41998363D01*
X59854759Y-42008519D01*
X59877295Y-42027598D01*
X59900727Y-42038006D01*
X59917182Y-42046829D01*
X59938823Y-42060589D01*
X59947444Y-42063086D01*
X59947445Y-42063086D01*
X59967194Y-42068805D01*
X59983291Y-42074680D01*
X60002078Y-42083025D01*
X60002081Y-42083026D01*
X60010281Y-42086668D01*
X60019177Y-42087863D01*
X60019181Y-42087864D01*
X60035690Y-42090082D01*
X60053961Y-42093932D01*
X60069971Y-42098568D01*
X60069973Y-42098568D01*
X60078595Y-42101065D01*
X60087567Y-42101041D01*
X60087571Y-42101042D01*
X60108138Y-42100988D01*
X60125238Y-42102109D01*
X60145607Y-42104845D01*
X60145611Y-42104845D01*
X60154501Y-42106039D01*
X60173482Y-42103151D01*
X60188513Y-42100865D01*
X60189293Y-42100775D01*
X60190401Y-42100772D01*
X60221191Y-42095895D01*
X60221695Y-42095817D01*
X60294463Y-42084748D01*
X60294466Y-42084747D01*
X60298360Y-42084155D01*
X60299628Y-42083565D01*
X60300938Y-42083265D01*
X67091552Y-41007737D01*
X81262948Y-41007737D01*
X81265525Y-41033790D01*
X81266335Y-41041974D01*
X81266385Y-41042762D01*
X81266330Y-41043863D01*
X81266639Y-41046808D01*
X81266640Y-41046816D01*
X81269558Y-41074576D01*
X81269629Y-41075276D01*
X81277274Y-41152544D01*
X81277798Y-41153843D01*
X81278028Y-41155164D01*
X81910598Y-47173660D01*
X82732958Y-54997897D01*
X82733036Y-54998662D01*
X82739371Y-55062688D01*
X82740673Y-55075851D01*
X82751711Y-55103237D01*
X82757022Y-55119537D01*
X82762047Y-55139469D01*
X82762049Y-55139474D01*
X82764243Y-55148177D01*
X82768790Y-55155912D01*
X82768792Y-55155916D01*
X82777237Y-55170280D01*
X82785485Y-55187041D01*
X82791712Y-55202494D01*
X82791715Y-55202498D01*
X82795067Y-55210817D01*
X82800622Y-55217864D01*
X82800624Y-55217867D01*
X82813351Y-55234012D01*
X82823020Y-55248160D01*
X82833437Y-55265880D01*
X82833440Y-55265884D01*
X82837988Y-55273620D01*
X82856664Y-55291189D01*
X82869280Y-55304958D01*
X82885153Y-55325093D01*
X82892467Y-55330300D01*
X82909210Y-55342221D01*
X82922462Y-55353087D01*
X82930925Y-55361048D01*
X82943976Y-55373325D01*
X82951975Y-55377392D01*
X82951978Y-55377394D01*
X82966837Y-55384948D01*
X82982807Y-55394619D01*
X83003693Y-55409489D01*
X83031586Y-55419175D01*
X83047358Y-55425887D01*
X83065679Y-55435202D01*
X83065685Y-55435204D01*
X83073688Y-55439273D01*
X83098899Y-55444014D01*
X83116926Y-55448811D01*
X83141155Y-55457225D01*
X83167172Y-55458520D01*
X83170650Y-55458693D01*
X83187673Y-55460708D01*
X83207872Y-55464507D01*
X83207877Y-55464507D01*
X83216697Y-55466166D01*
X83250938Y-55462779D01*
X83251722Y-55462729D01*
X83252823Y-55462784D01*
X83255768Y-55462475D01*
X83255776Y-55462474D01*
X83272577Y-55460708D01*
X83283632Y-55459546D01*
X83284236Y-55459485D01*
X83361504Y-55451840D01*
X83362803Y-55451316D01*
X83364124Y-55451086D01*
X90143799Y-54738513D01*
X97206857Y-53996156D01*
X97207622Y-53996078D01*
X97275877Y-53989325D01*
X97275878Y-53989325D01*
X97284811Y-53988441D01*
X97293137Y-53985085D01*
X97293139Y-53985085D01*
X97312208Y-53977400D01*
X97328502Y-53972090D01*
X97329767Y-53971771D01*
X97357137Y-53964871D01*
X97379243Y-53951875D01*
X97395996Y-53943632D01*
X97411455Y-53937402D01*
X97419777Y-53934048D01*
X97426822Y-53928494D01*
X97426829Y-53928490D01*
X97442974Y-53915762D01*
X97457123Y-53906091D01*
X97482580Y-53891126D01*
X97500146Y-53872453D01*
X97513911Y-53859839D01*
X97527007Y-53849515D01*
X97534053Y-53843961D01*
X97551181Y-53819904D01*
X97562047Y-53806652D01*
X97570008Y-53798189D01*
X97582285Y-53785138D01*
X97593909Y-53762276D01*
X97603577Y-53746310D01*
X97618449Y-53725422D01*
X97628136Y-53697526D01*
X97634848Y-53681754D01*
X97644162Y-53663435D01*
X97644164Y-53663429D01*
X97648233Y-53655426D01*
X97652974Y-53630215D01*
X97657771Y-53612188D01*
X97666185Y-53587959D01*
X97667653Y-53558464D01*
X97669668Y-53541441D01*
X97673467Y-53521242D01*
X97673467Y-53521237D01*
X97675126Y-53512417D01*
X97671739Y-53478176D01*
X97671689Y-53477392D01*
X97671744Y-53476291D01*
X97668506Y-53445482D01*
X97668438Y-53444813D01*
X97661188Y-53371533D01*
X97660800Y-53367610D01*
X97660276Y-53366311D01*
X97660045Y-53364987D01*
X97658198Y-53347408D01*
X96893820Y-46074837D01*
X96400131Y-41377699D01*
X102754965Y-41377699D01*
X102755380Y-41386666D01*
X102755380Y-41386668D01*
X102756556Y-41412072D01*
X102756564Y-41412859D01*
X102756452Y-41413953D01*
X102756608Y-41416929D01*
X102758066Y-41444749D01*
X102758097Y-41445383D01*
X102761693Y-41523057D01*
X102762148Y-41524382D01*
X102762309Y-41525715D01*
X103076173Y-47514599D01*
X103490772Y-55425630D01*
X103490810Y-55426398D01*
X103491848Y-55448813D01*
X103494396Y-55503870D01*
X103503992Y-55531817D01*
X103508436Y-55548347D01*
X103514149Y-55577330D01*
X103525975Y-55600096D01*
X103533323Y-55617240D01*
X103541652Y-55641499D01*
X103546831Y-55648827D01*
X103546832Y-55648829D01*
X103558699Y-55665620D01*
X103567614Y-55680254D01*
X103581227Y-55706461D01*
X103587436Y-55712947D01*
X103598955Y-55724980D01*
X103610832Y-55739387D01*
X103625634Y-55760332D01*
X103648765Y-55778698D01*
X103661423Y-55790235D01*
X103681852Y-55811576D01*
X103689628Y-55816057D01*
X103689630Y-55816058D01*
X103704069Y-55824378D01*
X103719512Y-55834873D01*
X103732562Y-55845234D01*
X103739594Y-55850817D01*
X103766952Y-55861954D01*
X103782348Y-55869480D01*
X103807935Y-55884223D01*
X103832856Y-55890275D01*
X103850618Y-55896012D01*
X103874370Y-55905681D01*
X103883297Y-55906596D01*
X103883298Y-55906596D01*
X103903756Y-55908692D01*
X103920647Y-55911595D01*
X103936538Y-55915454D01*
X103949340Y-55918563D01*
X103958309Y-55918148D01*
X103958310Y-55918148D01*
X103983699Y-55916973D01*
X103984494Y-55916965D01*
X103985594Y-55917077D01*
X103988569Y-55916921D01*
X103988577Y-55916921D01*
X104016562Y-55915454D01*
X104017330Y-55915416D01*
X104090767Y-55912017D01*
X104090768Y-55912017D01*
X104094698Y-55911835D01*
X104096018Y-55911382D01*
X104097354Y-55911220D01*
X117997428Y-55182749D01*
X117998196Y-55182711D01*
X118017532Y-55181816D01*
X118075511Y-55179132D01*
X118103442Y-55169542D01*
X118119992Y-55165092D01*
X118121356Y-55164823D01*
X118148971Y-55159380D01*
X118171727Y-55147560D01*
X118188885Y-55140206D01*
X118204650Y-55134793D01*
X118204655Y-55134790D01*
X118213140Y-55131877D01*
X118237257Y-55114833D01*
X118251891Y-55105918D01*
X118270137Y-55096440D01*
X118270139Y-55096438D01*
X118278102Y-55092302D01*
X118284585Y-55086096D01*
X118284589Y-55086093D01*
X118296627Y-55074569D01*
X118311034Y-55062692D01*
X118331973Y-55047894D01*
X118350343Y-55024758D01*
X118361878Y-55012105D01*
X118376733Y-54997885D01*
X118376736Y-54997881D01*
X118383217Y-54991677D01*
X118396019Y-54969457D01*
X118406517Y-54954011D01*
X118412009Y-54947094D01*
X118422458Y-54933935D01*
X118433594Y-54906579D01*
X118441116Y-54891190D01*
X118455864Y-54865594D01*
X118458817Y-54853437D01*
X118461915Y-54840679D01*
X118467655Y-54822907D01*
X118473939Y-54807471D01*
X118473940Y-54807465D01*
X118477322Y-54799158D01*
X118480333Y-54769773D01*
X118483236Y-54752884D01*
X118488085Y-54732917D01*
X118488085Y-54732914D01*
X118490204Y-54724189D01*
X118488614Y-54689830D01*
X118488606Y-54689035D01*
X118488718Y-54687935D01*
X118487095Y-54656962D01*
X118487057Y-54656199D01*
X118484790Y-54607228D01*
X124222221Y-54607228D01*
X124224687Y-54615857D01*
X124224688Y-54615862D01*
X124230336Y-54635624D01*
X124233914Y-54652385D01*
X124236827Y-54672728D01*
X124236830Y-54672738D01*
X124238102Y-54681621D01*
X124248718Y-54704971D01*
X124255161Y-54722483D01*
X124262209Y-54747141D01*
X124277971Y-54772124D01*
X124286101Y-54787190D01*
X124298330Y-54814086D01*
X124315071Y-54833515D01*
X124326176Y-54848523D01*
X124339857Y-54870207D01*
X124346585Y-54876149D01*
X124361993Y-54889757D01*
X124374037Y-54901949D01*
X124393316Y-54924323D01*
X124400844Y-54929202D01*
X124400847Y-54929205D01*
X124414836Y-54938272D01*
X124429710Y-54949562D01*
X124448925Y-54966532D01*
X124457051Y-54970347D01*
X124457052Y-54970348D01*
X124462718Y-54973008D01*
X124475663Y-54979086D01*
X124490632Y-54987400D01*
X124515424Y-55003469D01*
X124532347Y-55008530D01*
X124539987Y-55010815D01*
X124557433Y-55017477D01*
X124580645Y-55028375D01*
X124609827Y-55032919D01*
X124626546Y-55036702D01*
X124646233Y-55042590D01*
X124646236Y-55042591D01*
X124654838Y-55045163D01*
X124663813Y-55045218D01*
X124663814Y-55045218D01*
X124670507Y-55045259D01*
X124689253Y-55045373D01*
X124690025Y-55045406D01*
X124691120Y-55045576D01*
X124721995Y-55045576D01*
X124722765Y-55045578D01*
X124796413Y-55046028D01*
X124796414Y-55046028D01*
X124800349Y-55046052D01*
X124801693Y-55045668D01*
X124803038Y-55045576D01*
X138721995Y-55045576D01*
X138722766Y-55045578D01*
X138800349Y-55046052D01*
X138808978Y-55043586D01*
X138808983Y-55043585D01*
X138828745Y-55037937D01*
X138845506Y-55034359D01*
X138865849Y-55031446D01*
X138865859Y-55031443D01*
X138874742Y-55030171D01*
X138898092Y-55019555D01*
X138915604Y-55013112D01*
X138931634Y-55008530D01*
X138940262Y-55006064D01*
X138965245Y-54990302D01*
X138980311Y-54982172D01*
X139007207Y-54969943D01*
X139026636Y-54953202D01*
X139041644Y-54942097D01*
X139055736Y-54933206D01*
X139063328Y-54928416D01*
X139082879Y-54906279D01*
X139095071Y-54894235D01*
X139110646Y-54880815D01*
X139110647Y-54880813D01*
X139117444Y-54874957D01*
X139122323Y-54867429D01*
X139122326Y-54867426D01*
X139131393Y-54853437D01*
X139142683Y-54838563D01*
X139153709Y-54826078D01*
X139159653Y-54819348D01*
X139165230Y-54807471D01*
X139169132Y-54799158D01*
X139172207Y-54792610D01*
X139180521Y-54777641D01*
X139196590Y-54752849D01*
X139203936Y-54728285D01*
X139210598Y-54710840D01*
X139217680Y-54695755D01*
X139221496Y-54687628D01*
X139226040Y-54658446D01*
X139229823Y-54641727D01*
X139235711Y-54622040D01*
X139235712Y-54622037D01*
X139238284Y-54613435D01*
X139238494Y-54579020D01*
X139238527Y-54578248D01*
X139238697Y-54577153D01*
X139238697Y-54546278D01*
X139238699Y-54545508D01*
X139239149Y-54471860D01*
X139239149Y-54471859D01*
X139239173Y-54467924D01*
X139238789Y-54466580D01*
X139238697Y-54465235D01*
X139238697Y-40546278D01*
X139238699Y-40545508D01*
X139239118Y-40476898D01*
X139239173Y-40467924D01*
X139236707Y-40459295D01*
X139236706Y-40459290D01*
X139231058Y-40439528D01*
X139227480Y-40422767D01*
X139224567Y-40402424D01*
X139224564Y-40402414D01*
X139223292Y-40393531D01*
X139212676Y-40370181D01*
X139206233Y-40352669D01*
X139201651Y-40336639D01*
X139199185Y-40328011D01*
X139183423Y-40303028D01*
X139175293Y-40287962D01*
X139163064Y-40261066D01*
X139146323Y-40241637D01*
X139135218Y-40226629D01*
X139126327Y-40212537D01*
X139121537Y-40204945D01*
X139099400Y-40185394D01*
X139087356Y-40173202D01*
X139073936Y-40157627D01*
X139073934Y-40157626D01*
X139068078Y-40150829D01*
X139060550Y-40145950D01*
X139060547Y-40145947D01*
X139046558Y-40136880D01*
X139031684Y-40125590D01*
X139019199Y-40114564D01*
X139012469Y-40108620D01*
X139004343Y-40104805D01*
X139004342Y-40104804D01*
X138998676Y-40102144D01*
X138985731Y-40096066D01*
X138970762Y-40087752D01*
X138945970Y-40071683D01*
X138921406Y-40064337D01*
X138903961Y-40057675D01*
X138899524Y-40055592D01*
X138880749Y-40046777D01*
X138851567Y-40042233D01*
X138834848Y-40038450D01*
X138815161Y-40032562D01*
X138815158Y-40032561D01*
X138806556Y-40029989D01*
X138797581Y-40029934D01*
X138797580Y-40029934D01*
X138790887Y-40029893D01*
X138772141Y-40029779D01*
X138771369Y-40029746D01*
X138770274Y-40029576D01*
X138739399Y-40029576D01*
X138738629Y-40029574D01*
X138664981Y-40029124D01*
X138664980Y-40029124D01*
X138661045Y-40029100D01*
X138659701Y-40029484D01*
X138658356Y-40029576D01*
X124739399Y-40029576D01*
X124738629Y-40029574D01*
X124737775Y-40029569D01*
X124661045Y-40029100D01*
X124652416Y-40031566D01*
X124652411Y-40031567D01*
X124632649Y-40037215D01*
X124615888Y-40040793D01*
X124595545Y-40043706D01*
X124595535Y-40043709D01*
X124586652Y-40044981D01*
X124563302Y-40055597D01*
X124545790Y-40062040D01*
X124537754Y-40064337D01*
X124521132Y-40069088D01*
X124496149Y-40084850D01*
X124481083Y-40092980D01*
X124454187Y-40105209D01*
X124434758Y-40121950D01*
X124419750Y-40133055D01*
X124398066Y-40146736D01*
X124392124Y-40153464D01*
X124378516Y-40168872D01*
X124366323Y-40180917D01*
X124355933Y-40189870D01*
X124343950Y-40200195D01*
X124339071Y-40207723D01*
X124339068Y-40207726D01*
X124330001Y-40221715D01*
X124318711Y-40236589D01*
X124301741Y-40255804D01*
X124289187Y-40282542D01*
X124280873Y-40297511D01*
X124264804Y-40322303D01*
X124262232Y-40330903D01*
X124257458Y-40346866D01*
X124250796Y-40364312D01*
X124239898Y-40387524D01*
X124235355Y-40416704D01*
X124231571Y-40433425D01*
X124225683Y-40453112D01*
X124225682Y-40453115D01*
X124223110Y-40461717D01*
X124223055Y-40470692D01*
X124223055Y-40470693D01*
X124222900Y-40496122D01*
X124222867Y-40496904D01*
X124222697Y-40497999D01*
X124222697Y-40528874D01*
X124222695Y-40529644D01*
X124222221Y-40607228D01*
X124222605Y-40608572D01*
X124222697Y-40609917D01*
X124222697Y-54528874D01*
X124222695Y-54529644D01*
X124222221Y-54607228D01*
X118484790Y-54607228D01*
X118483658Y-54582762D01*
X118483658Y-54582761D01*
X118483476Y-54578831D01*
X118483023Y-54577511D01*
X118482861Y-54576175D01*
X117754389Y-40676086D01*
X117754351Y-40675318D01*
X117751188Y-40606986D01*
X117750773Y-40598018D01*
X117746684Y-40586107D01*
X117741183Y-40570087D01*
X117736733Y-40553537D01*
X117734607Y-40542753D01*
X117731021Y-40524558D01*
X117719201Y-40501802D01*
X117711847Y-40484644D01*
X117706434Y-40468879D01*
X117706431Y-40468874D01*
X117703518Y-40460389D01*
X117686474Y-40436272D01*
X117677559Y-40421638D01*
X117668081Y-40403392D01*
X117668079Y-40403390D01*
X117663943Y-40395427D01*
X117657737Y-40388944D01*
X117657734Y-40388940D01*
X117646210Y-40376902D01*
X117634333Y-40362495D01*
X117619535Y-40341556D01*
X117596399Y-40323186D01*
X117583746Y-40311651D01*
X117569526Y-40296796D01*
X117569522Y-40296793D01*
X117563318Y-40290312D01*
X117549821Y-40282535D01*
X117541099Y-40277510D01*
X117525652Y-40267012D01*
X117521772Y-40263931D01*
X117505576Y-40251071D01*
X117478220Y-40239935D01*
X117462831Y-40232413D01*
X117437235Y-40217665D01*
X117412323Y-40211615D01*
X117394551Y-40205875D01*
X117379113Y-40199591D01*
X117379110Y-40199590D01*
X117370799Y-40196207D01*
X117361876Y-40195293D01*
X117361873Y-40195292D01*
X117347664Y-40193837D01*
X117341425Y-40193197D01*
X117324530Y-40190294D01*
X117304555Y-40185443D01*
X117295830Y-40183324D01*
X117286863Y-40183739D01*
X117286861Y-40183739D01*
X117261457Y-40184915D01*
X117260670Y-40184923D01*
X117259576Y-40184811D01*
X117228615Y-40186433D01*
X117228146Y-40186456D01*
X117150472Y-40190052D01*
X117149147Y-40190507D01*
X117147814Y-40190668D01*
X105150729Y-40819408D01*
X103247897Y-40919131D01*
X103247129Y-40919169D01*
X103224338Y-40920224D01*
X103169659Y-40922755D01*
X103141712Y-40932351D01*
X103125182Y-40936795D01*
X103096199Y-40942508D01*
X103073433Y-40954334D01*
X103056289Y-40961682D01*
X103032030Y-40970011D01*
X103024702Y-40975190D01*
X103024700Y-40975191D01*
X103007909Y-40987058D01*
X102993275Y-40995973D01*
X102967068Y-41009586D01*
X102960582Y-41015795D01*
X102948549Y-41027314D01*
X102934142Y-41039191D01*
X102913197Y-41053993D01*
X102896543Y-41074969D01*
X102894835Y-41077120D01*
X102883294Y-41089782D01*
X102861953Y-41110211D01*
X102857472Y-41117987D01*
X102857471Y-41117989D01*
X102849151Y-41132428D01*
X102838656Y-41147871D01*
X102832084Y-41156149D01*
X102822712Y-41167953D01*
X102811575Y-41195311D01*
X102804049Y-41210707D01*
X102793786Y-41228517D01*
X102793784Y-41228523D01*
X102789306Y-41236294D01*
X102787189Y-41245010D01*
X102787188Y-41245013D01*
X102783254Y-41261214D01*
X102777514Y-41278984D01*
X102767848Y-41302729D01*
X102766934Y-41311655D01*
X102766933Y-41311657D01*
X102764839Y-41332101D01*
X102761935Y-41348998D01*
X102757084Y-41368972D01*
X102757084Y-41368975D01*
X102754965Y-41377699D01*
X96400131Y-41377699D01*
X96267876Y-40119382D01*
X118247215Y-40119382D01*
X118250504Y-40185443D01*
X118260036Y-40376902D01*
X118262854Y-40433513D01*
X118263495Y-40437244D01*
X118263496Y-40437252D01*
X118315473Y-40739745D01*
X118315475Y-40739753D01*
X118316117Y-40743490D01*
X118317205Y-40747129D01*
X118317206Y-40747132D01*
X118404552Y-41039194D01*
X118406235Y-41044823D01*
X118531901Y-41333147D01*
X118533824Y-41336418D01*
X118533826Y-41336422D01*
X118597750Y-41445159D01*
X118691295Y-41604285D01*
X118693596Y-41607300D01*
X118879809Y-41851298D01*
X118879814Y-41851303D01*
X118882109Y-41854311D01*
X118922150Y-41895414D01*
X119064760Y-42041807D01*
X119101578Y-42079602D01*
X119181595Y-42144052D01*
X119343570Y-42274517D01*
X119343575Y-42274521D01*
X119346523Y-42276895D01*
X119349743Y-42278903D01*
X119610169Y-42441321D01*
X119610176Y-42441325D01*
X119613396Y-42443333D01*
X119898332Y-42576503D01*
X119901942Y-42577686D01*
X119901946Y-42577688D01*
X119990102Y-42606587D01*
X120197202Y-42674478D01*
X120505679Y-42735838D01*
X120509451Y-42736125D01*
X120509459Y-42736126D01*
X120815516Y-42759407D01*
X120815521Y-42759407D01*
X120819293Y-42759694D01*
X121133501Y-42745700D01*
X121137239Y-42745078D01*
X121137247Y-42745077D01*
X121290825Y-42719514D01*
X121443752Y-42694060D01*
X121745553Y-42605522D01*
X122034531Y-42481367D01*
X122037808Y-42479463D01*
X122037815Y-42479460D01*
X122195571Y-42387827D01*
X122306500Y-42323394D01*
X122395439Y-42256252D01*
X122554496Y-42136178D01*
X122554502Y-42136173D01*
X122557522Y-42133893D01*
X122783959Y-41915606D01*
X122982532Y-41671698D01*
X123078951Y-41518883D01*
X123148341Y-41408906D01*
X123148344Y-41408900D01*
X123150364Y-41405699D01*
X123285025Y-41121465D01*
X123384563Y-40823112D01*
X123447537Y-40514961D01*
X123473035Y-40201476D01*
X123473608Y-40146748D01*
X123472783Y-40133055D01*
X123454909Y-39836576D01*
X123454909Y-39836572D01*
X123454681Y-39832798D01*
X123454001Y-39829074D01*
X123398854Y-39527118D01*
X123398853Y-39527114D01*
X123398174Y-39523396D01*
X123396214Y-39517082D01*
X123339091Y-39333119D01*
X123304906Y-39223024D01*
X123176227Y-38936031D01*
X123014003Y-38666577D01*
X123011676Y-38663593D01*
X123011671Y-38663586D01*
X122822912Y-38421551D01*
X122822906Y-38421544D01*
X122820581Y-38418563D01*
X122598765Y-38195582D01*
X122351768Y-38000865D01*
X122083166Y-37837232D01*
X121968794Y-37785230D01*
X121800303Y-37708621D01*
X121800295Y-37708618D01*
X121796851Y-37707052D01*
X121496971Y-37612212D01*
X121359703Y-37586399D01*
X121191593Y-37554786D01*
X121191588Y-37554785D01*
X121187869Y-37554086D01*
X120874023Y-37533516D01*
X120870243Y-37533724D01*
X120870242Y-37533724D01*
X120778671Y-37538764D01*
X120559978Y-37550799D01*
X120556251Y-37551460D01*
X120556247Y-37551460D01*
X120446588Y-37570895D01*
X120250285Y-37605685D01*
X120246669Y-37606787D01*
X120246661Y-37606789D01*
X119953052Y-37696274D01*
X119953045Y-37696277D01*
X119949428Y-37697379D01*
X119661766Y-37824553D01*
X119658512Y-37826489D01*
X119658506Y-37826492D01*
X119394724Y-37983426D01*
X119391465Y-37985365D01*
X119142442Y-38177485D01*
X118918303Y-38398130D01*
X118902021Y-38418563D01*
X118724661Y-38641136D01*
X118724655Y-38641145D01*
X118722296Y-38644105D01*
X118557258Y-38911846D01*
X118425581Y-39197475D01*
X118376504Y-39349877D01*
X118336476Y-39474178D01*
X118329173Y-39496855D01*
X118328454Y-39500571D01*
X118328452Y-39500579D01*
X118270148Y-39801929D01*
X118270147Y-39801938D01*
X118269429Y-39805648D01*
X118269162Y-39809424D01*
X118269161Y-39809429D01*
X118247556Y-40114564D01*
X118247215Y-40119382D01*
X96267876Y-40119382D01*
X96205116Y-39522257D01*
X96205038Y-39521492D01*
X96198284Y-39453232D01*
X96197401Y-39444303D01*
X96194049Y-39435984D01*
X96194047Y-39435978D01*
X96186360Y-39416905D01*
X96181050Y-39400611D01*
X96176026Y-39380683D01*
X96176025Y-39380681D01*
X96173831Y-39371978D01*
X96168185Y-39362373D01*
X96160839Y-39349877D01*
X96152596Y-39333127D01*
X96143008Y-39309337D01*
X96124719Y-39286137D01*
X96115050Y-39271988D01*
X96104636Y-39254273D01*
X96104635Y-39254271D01*
X96100086Y-39246534D01*
X96081411Y-39228966D01*
X96068797Y-39215201D01*
X96052921Y-39195061D01*
X96045606Y-39189853D01*
X96045604Y-39189851D01*
X96028856Y-39177927D01*
X96015609Y-39167066D01*
X95994098Y-39146830D01*
X95986091Y-39142759D01*
X95971239Y-39135207D01*
X95955268Y-39125535D01*
X95941690Y-39115868D01*
X95934382Y-39110665D01*
X95906483Y-39100976D01*
X95890713Y-39094266D01*
X95872387Y-39084949D01*
X95872388Y-39084949D01*
X95864386Y-39080881D01*
X95839175Y-39076140D01*
X95821148Y-39071343D01*
X95796919Y-39062929D01*
X95770902Y-39061634D01*
X95767424Y-39061461D01*
X95750401Y-39059446D01*
X95730202Y-39055647D01*
X95730197Y-39055647D01*
X95721377Y-39053988D01*
X95687136Y-39057375D01*
X95686352Y-39057425D01*
X95685251Y-39057370D01*
X95682306Y-39057679D01*
X95682298Y-39057680D01*
X95667631Y-39059222D01*
X95654442Y-39060608D01*
X95653838Y-39060669D01*
X95576570Y-39068314D01*
X95575271Y-39068838D01*
X95573950Y-39069068D01*
X90108694Y-39643490D01*
X81731217Y-40523998D01*
X81730452Y-40524076D01*
X81662197Y-40530829D01*
X81662196Y-40530829D01*
X81653263Y-40531713D01*
X81625863Y-40542756D01*
X81609572Y-40548064D01*
X81589643Y-40553088D01*
X81589641Y-40553089D01*
X81580938Y-40555283D01*
X81573200Y-40559832D01*
X81558827Y-40568281D01*
X81542073Y-40576525D01*
X81526621Y-40582752D01*
X81526619Y-40582753D01*
X81518297Y-40586107D01*
X81511249Y-40591663D01*
X81511244Y-40591666D01*
X81495102Y-40604391D01*
X81480954Y-40614060D01*
X81463233Y-40624478D01*
X81463231Y-40624480D01*
X81455494Y-40629028D01*
X81437928Y-40647701D01*
X81424163Y-40660315D01*
X81404021Y-40676193D01*
X81398817Y-40683503D01*
X81386892Y-40700252D01*
X81376023Y-40713507D01*
X81355790Y-40735016D01*
X81351723Y-40743016D01*
X81351722Y-40743017D01*
X81344168Y-40757875D01*
X81334494Y-40773849D01*
X81319625Y-40794733D01*
X81309939Y-40822626D01*
X81303229Y-40838393D01*
X81293912Y-40856718D01*
X81293909Y-40856727D01*
X81289841Y-40864728D01*
X81285100Y-40889939D01*
X81280303Y-40907966D01*
X81271889Y-40932195D01*
X81270594Y-40958212D01*
X81270421Y-40961690D01*
X81268406Y-40978713D01*
X81264607Y-40998912D01*
X81264607Y-40998917D01*
X81262948Y-41007737D01*
X67091552Y-41007737D01*
X74048578Y-39905852D01*
X74049339Y-39905734D01*
X74104697Y-39897312D01*
X74125997Y-39894072D01*
X74152778Y-39881612D01*
X74168771Y-39875457D01*
X74188411Y-39869397D01*
X74188416Y-39869395D01*
X74196989Y-39866749D01*
X74218382Y-39852617D01*
X74234678Y-39843509D01*
X74249793Y-39836477D01*
X74249800Y-39836473D01*
X74257932Y-39832689D01*
X74280137Y-39813216D01*
X74293762Y-39802818D01*
X74310913Y-39791488D01*
X74310916Y-39791486D01*
X74318402Y-39786540D01*
X74334971Y-39766968D01*
X74348049Y-39753659D01*
X74367336Y-39736745D01*
X74383187Y-39711816D01*
X74393343Y-39698016D01*
X74406622Y-39682330D01*
X74412422Y-39675479D01*
X74422830Y-39652047D01*
X74431653Y-39635592D01*
X74440596Y-39621527D01*
X74440596Y-39621526D01*
X74445413Y-39613951D01*
X74453630Y-39585578D01*
X74459504Y-39569483D01*
X74467849Y-39550694D01*
X74471492Y-39542493D01*
X74474905Y-39517082D01*
X74478755Y-39498814D01*
X74485889Y-39474178D01*
X74485865Y-39465208D01*
X74485866Y-39465204D01*
X74485812Y-39444636D01*
X74486933Y-39427536D01*
X74489669Y-39407167D01*
X74489669Y-39407163D01*
X74490863Y-39398273D01*
X74485689Y-39364261D01*
X74485599Y-39363483D01*
X74485596Y-39362373D01*
X74483617Y-39349877D01*
X74480737Y-39331690D01*
X74480619Y-39330931D01*
X74476262Y-39302291D01*
X74468979Y-39254414D01*
X74468389Y-39253146D01*
X74468089Y-39251836D01*
X72290668Y-25504147D01*
X72290550Y-25503386D01*
X72287138Y-25480958D01*
X72278896Y-25426777D01*
X72271376Y-25410614D01*
X72266436Y-25399995D01*
X72260281Y-25384001D01*
X72254222Y-25364369D01*
X72254222Y-25364368D01*
X72251573Y-25355785D01*
X72237441Y-25334392D01*
X72228333Y-25318096D01*
X72221301Y-25302981D01*
X72221297Y-25302974D01*
X72217513Y-25294842D01*
X72198040Y-25272637D01*
X72187642Y-25259012D01*
X72176312Y-25241861D01*
X72176310Y-25241858D01*
X72171364Y-25234372D01*
X72151792Y-25217803D01*
X72138473Y-25204714D01*
X72121569Y-25185438D01*
X72113993Y-25180621D01*
X72113992Y-25180620D01*
X72096649Y-25169593D01*
X72082843Y-25159433D01*
X72067155Y-25146152D01*
X72060303Y-25140351D01*
X72036871Y-25129943D01*
X72020412Y-25121119D01*
X72006348Y-25112176D01*
X72006346Y-25112175D01*
X71998775Y-25107361D01*
X71990154Y-25104865D01*
X71990153Y-25104864D01*
X71970404Y-25099145D01*
X71954310Y-25093271D01*
X71927317Y-25081282D01*
X71901896Y-25077867D01*
X71883635Y-25074018D01*
X71867628Y-25069382D01*
X71867623Y-25069381D01*
X71859002Y-25066885D01*
X71850029Y-25066909D01*
X71850025Y-25066908D01*
X71829461Y-25066962D01*
X71812361Y-25065841D01*
X71783097Y-25061910D01*
X71774224Y-25063260D01*
X71774221Y-25063260D01*
X71749088Y-25067084D01*
X71748298Y-25067175D01*
X71747197Y-25067178D01*
X71744263Y-25067643D01*
X71744243Y-25067645D01*
X71716642Y-25072017D01*
X71715941Y-25072126D01*
X71639238Y-25083795D01*
X71637968Y-25084386D01*
X71636661Y-25084685D01*
X65805375Y-26008271D01*
X57889056Y-27262093D01*
X57888295Y-27262211D01*
X57871422Y-27264778D01*
X57811601Y-27273878D01*
X57803467Y-27277662D01*
X57803465Y-27277663D01*
X57784819Y-27286338D01*
X57768825Y-27292493D01*
X57749193Y-27298552D01*
X57740609Y-27301201D01*
X57733119Y-27306149D01*
X57733117Y-27306150D01*
X57719217Y-27315333D01*
X57702920Y-27324441D01*
X57687805Y-27331473D01*
X57687798Y-27331477D01*
X57679666Y-27335261D01*
X57672919Y-27341178D01*
X57657464Y-27354732D01*
X57643836Y-27365132D01*
X57626685Y-27376462D01*
X57626682Y-27376464D01*
X57619196Y-27381410D01*
X57613399Y-27388258D01*
X57602630Y-27400979D01*
X57589541Y-27414298D01*
X57570262Y-27431205D01*
X57565445Y-27438781D01*
X57565444Y-27438782D01*
X57554417Y-27456125D01*
X57544257Y-27469931D01*
X57525175Y-27492471D01*
X57521531Y-27500674D01*
X57521531Y-27500675D01*
X57514768Y-27515902D01*
X57505943Y-27532362D01*
X57492185Y-27553999D01*
X57489688Y-27562622D01*
X57489687Y-27562624D01*
X57483970Y-27582368D01*
X57478094Y-27598467D01*
X57466106Y-27625457D01*
X57464912Y-27634350D01*
X57464911Y-27634352D01*
X57462693Y-27650867D01*
X57458841Y-27669142D01*
X57451709Y-27693771D01*
X57451733Y-27702740D01*
X57451732Y-27702744D01*
X57451786Y-27723314D01*
X57450665Y-27740410D01*
X57446734Y-27769677D01*
X55830981Y-27769677D01*
X55578471Y-26170448D01*
X55587604Y-26100043D01*
X55633352Y-26045750D01*
X55683554Y-26026297D01*
X66642586Y-24321001D01*
X77236842Y-22672468D01*
X77243926Y-22671571D01*
X77264122Y-22669592D01*
X77299144Y-22666160D01*
X77341478Y-22649145D01*
X77351624Y-22645563D01*
X77386674Y-22634851D01*
X77386677Y-22634850D01*
X77395258Y-22632227D01*
X77403196Y-22627014D01*
X77425364Y-22615427D01*
X77425367Y-22615426D01*
X77434161Y-22611891D01*
X77441217Y-22606340D01*
X77441221Y-22606337D01*
X77470003Y-22583691D01*
X77478741Y-22577400D01*
X77516887Y-22552348D01*
X77522706Y-22545512D01*
X77522709Y-22545509D01*
X77523036Y-22545125D01*
X77541066Y-22527776D01*
X77541464Y-22527463D01*
X77541466Y-22527461D01*
X77548520Y-22521911D01*
X77562847Y-22501828D01*
X77575014Y-22484773D01*
X77581641Y-22476277D01*
X77605392Y-22448375D01*
X77605393Y-22448374D01*
X77611209Y-22441541D01*
X77614875Y-22433348D01*
X77614877Y-22433345D01*
X77615088Y-22432874D01*
X77627515Y-22411177D01*
X77627812Y-22410760D01*
X77633027Y-22403450D01*
X77636654Y-22393037D01*
X77648032Y-22360370D01*
X77652008Y-22350356D01*
X77654369Y-22345080D01*
X77670639Y-22308716D01*
X77671928Y-22299313D01*
X77677772Y-22274982D01*
X77680890Y-22266031D01*
X77683201Y-22220466D01*
X77684203Y-22209764D01*
X77690401Y-22164549D01*
X77681599Y-22105613D01*
X77680897Y-22100072D01*
X77680705Y-22098223D01*
X77676942Y-22062097D01*
X79271680Y-22062097D01*
X79272564Y-22071030D01*
X79275067Y-22096334D01*
X79275117Y-22097122D01*
X79275062Y-22098223D01*
X79275371Y-22101168D01*
X79275372Y-22101176D01*
X79278290Y-22128936D01*
X79278361Y-22129636D01*
X79286006Y-22206904D01*
X79286530Y-22208203D01*
X79286760Y-22209524D01*
X79841300Y-27485619D01*
X80741690Y-36052257D01*
X80741768Y-36053022D01*
X80748331Y-36119352D01*
X80749405Y-36130211D01*
X80758318Y-36152325D01*
X80760443Y-36157597D01*
X80765754Y-36173897D01*
X80770779Y-36193829D01*
X80770781Y-36193834D01*
X80772975Y-36202537D01*
X80777522Y-36210272D01*
X80777524Y-36210276D01*
X80785969Y-36224640D01*
X80794217Y-36241401D01*
X80800444Y-36256854D01*
X80800447Y-36256858D01*
X80803799Y-36265177D01*
X80809354Y-36272224D01*
X80809356Y-36272227D01*
X80822083Y-36288372D01*
X80831752Y-36302520D01*
X80842169Y-36320240D01*
X80842172Y-36320244D01*
X80846720Y-36327980D01*
X80865396Y-36345549D01*
X80878012Y-36359318D01*
X80893885Y-36379453D01*
X80901199Y-36384660D01*
X80917942Y-36396581D01*
X80931194Y-36407447D01*
X80939657Y-36415408D01*
X80952708Y-36427685D01*
X80960707Y-36431752D01*
X80960710Y-36431754D01*
X80975569Y-36439308D01*
X80991539Y-36448979D01*
X81012425Y-36463849D01*
X81040318Y-36473535D01*
X81056090Y-36480247D01*
X81074411Y-36489562D01*
X81074417Y-36489564D01*
X81082420Y-36493633D01*
X81107631Y-36498374D01*
X81125658Y-36503171D01*
X81149887Y-36511585D01*
X81175904Y-36512880D01*
X81179382Y-36513053D01*
X81196405Y-36515068D01*
X81216604Y-36518867D01*
X81216609Y-36518867D01*
X81225429Y-36520526D01*
X81259670Y-36517139D01*
X81260454Y-36517089D01*
X81261555Y-36517144D01*
X81264500Y-36516835D01*
X81264508Y-36516834D01*
X81281309Y-36515068D01*
X81292364Y-36513906D01*
X81292968Y-36513845D01*
X81370236Y-36506200D01*
X81371535Y-36505676D01*
X81372856Y-36505446D01*
X87706460Y-35839757D01*
X95215589Y-35050516D01*
X95216354Y-35050438D01*
X95284609Y-35043685D01*
X95284610Y-35043685D01*
X95293543Y-35042801D01*
X95301869Y-35039445D01*
X95301871Y-35039445D01*
X95320940Y-35031760D01*
X95337234Y-35026450D01*
X95338499Y-35026131D01*
X95365869Y-35019231D01*
X95387975Y-35006235D01*
X95404728Y-34997992D01*
X95420187Y-34991762D01*
X95428509Y-34988408D01*
X95435554Y-34982854D01*
X95435561Y-34982850D01*
X95451706Y-34970122D01*
X95465855Y-34960451D01*
X95491312Y-34945486D01*
X95508878Y-34926813D01*
X95522643Y-34914199D01*
X95535739Y-34903875D01*
X95542785Y-34898321D01*
X95559913Y-34874264D01*
X95570779Y-34861012D01*
X95578740Y-34852549D01*
X95591017Y-34839498D01*
X95602641Y-34816636D01*
X95612309Y-34800670D01*
X95627181Y-34779782D01*
X95636868Y-34751886D01*
X95643580Y-34736114D01*
X95652894Y-34717795D01*
X95652896Y-34717789D01*
X95656965Y-34709786D01*
X95661706Y-34684575D01*
X95666503Y-34666548D01*
X95674917Y-34642319D01*
X95676385Y-34612824D01*
X95678400Y-34595801D01*
X95682199Y-34575602D01*
X95682199Y-34575597D01*
X95683858Y-34566777D01*
X95680471Y-34532536D01*
X95680421Y-34531752D01*
X95680476Y-34530651D01*
X95677238Y-34499842D01*
X95677170Y-34499173D01*
X95669920Y-34425893D01*
X95669532Y-34421970D01*
X95669008Y-34420671D01*
X95668777Y-34419347D01*
X94400638Y-22353807D01*
X101757966Y-22353807D01*
X101758381Y-22362774D01*
X101758381Y-22362776D01*
X101759557Y-22388180D01*
X101759565Y-22388967D01*
X101759453Y-22390061D01*
X101760560Y-22411177D01*
X101761067Y-22420857D01*
X101761094Y-22421405D01*
X101764694Y-22499165D01*
X101765149Y-22500490D01*
X101765310Y-22501823D01*
X102033828Y-27625457D01*
X102493773Y-36401738D01*
X102493811Y-36402506D01*
X102496410Y-36458646D01*
X102497397Y-36479978D01*
X102506993Y-36507925D01*
X102511437Y-36524455D01*
X102517150Y-36553438D01*
X102528976Y-36576204D01*
X102536324Y-36593348D01*
X102544653Y-36617607D01*
X102549832Y-36624935D01*
X102549833Y-36624937D01*
X102561700Y-36641728D01*
X102570615Y-36656362D01*
X102584228Y-36682569D01*
X102590437Y-36689055D01*
X102601956Y-36701088D01*
X102613833Y-36715495D01*
X102628635Y-36736440D01*
X102651766Y-36754806D01*
X102664424Y-36766343D01*
X102684853Y-36787684D01*
X102692629Y-36792165D01*
X102692631Y-36792166D01*
X102707070Y-36800486D01*
X102722513Y-36810981D01*
X102735563Y-36821342D01*
X102742595Y-36826925D01*
X102769953Y-36838062D01*
X102785349Y-36845588D01*
X102810936Y-36860331D01*
X102835857Y-36866383D01*
X102853619Y-36872120D01*
X102877371Y-36881789D01*
X102886298Y-36882704D01*
X102886299Y-36882704D01*
X102906757Y-36884800D01*
X102923648Y-36887703D01*
X102939539Y-36891562D01*
X102952341Y-36894671D01*
X102961310Y-36894256D01*
X102961311Y-36894256D01*
X102986700Y-36893081D01*
X102987495Y-36893073D01*
X102988595Y-36893185D01*
X102991570Y-36893029D01*
X102991578Y-36893029D01*
X103019563Y-36891562D01*
X103020331Y-36891524D01*
X103093768Y-36888125D01*
X103093769Y-36888125D01*
X103097699Y-36887943D01*
X103099019Y-36887490D01*
X103100355Y-36887328D01*
X117000429Y-36158857D01*
X117001197Y-36158819D01*
X117020533Y-36157924D01*
X117078512Y-36155240D01*
X117106443Y-36145650D01*
X117122993Y-36141200D01*
X117124357Y-36140931D01*
X117151972Y-36135488D01*
X117174728Y-36123668D01*
X117191886Y-36116314D01*
X117207651Y-36110901D01*
X117207656Y-36110898D01*
X117216141Y-36107985D01*
X117240258Y-36090941D01*
X117254892Y-36082026D01*
X117273138Y-36072548D01*
X117273140Y-36072546D01*
X117281103Y-36068410D01*
X117287586Y-36062204D01*
X117287590Y-36062201D01*
X117299628Y-36050677D01*
X117314035Y-36038800D01*
X117334974Y-36024002D01*
X117353344Y-36000866D01*
X117364879Y-35988213D01*
X117379734Y-35973993D01*
X117379737Y-35973989D01*
X117386218Y-35967785D01*
X117392972Y-35956064D01*
X117399020Y-35945566D01*
X117409518Y-35930119D01*
X117425459Y-35910043D01*
X117436595Y-35882687D01*
X117444117Y-35867298D01*
X117458865Y-35841702D01*
X117464916Y-35816787D01*
X117470656Y-35799015D01*
X117476940Y-35783579D01*
X117476941Y-35783573D01*
X117480323Y-35775266D01*
X117483334Y-35745881D01*
X117486237Y-35728992D01*
X117491086Y-35709025D01*
X117491086Y-35709022D01*
X117493205Y-35700297D01*
X117491615Y-35665938D01*
X117491607Y-35665143D01*
X117491719Y-35664043D01*
X117490096Y-35633070D01*
X117490058Y-35632307D01*
X117486659Y-35558870D01*
X117486659Y-35558869D01*
X117486583Y-35557228D01*
X124222221Y-35557228D01*
X124224687Y-35565857D01*
X124224688Y-35565862D01*
X124230336Y-35585624D01*
X124233914Y-35602385D01*
X124236827Y-35622728D01*
X124236830Y-35622738D01*
X124238102Y-35631621D01*
X124248718Y-35654971D01*
X124255161Y-35672483D01*
X124262209Y-35697141D01*
X124277971Y-35722124D01*
X124286101Y-35737190D01*
X124298330Y-35764086D01*
X124315071Y-35783515D01*
X124326176Y-35798523D01*
X124339857Y-35820207D01*
X124346585Y-35826149D01*
X124361993Y-35839757D01*
X124374037Y-35851949D01*
X124393316Y-35874323D01*
X124400844Y-35879202D01*
X124400847Y-35879205D01*
X124414836Y-35888272D01*
X124429710Y-35899562D01*
X124448925Y-35916532D01*
X124457051Y-35920347D01*
X124457052Y-35920348D01*
X124462718Y-35923008D01*
X124475663Y-35929086D01*
X124490632Y-35937400D01*
X124515424Y-35953469D01*
X124532347Y-35958530D01*
X124539987Y-35960815D01*
X124557433Y-35967477D01*
X124580645Y-35978375D01*
X124609827Y-35982919D01*
X124626546Y-35986702D01*
X124646233Y-35992590D01*
X124646236Y-35992591D01*
X124654838Y-35995163D01*
X124663813Y-35995218D01*
X124663814Y-35995218D01*
X124670507Y-35995259D01*
X124689253Y-35995373D01*
X124690025Y-35995406D01*
X124691120Y-35995576D01*
X124721995Y-35995576D01*
X124722765Y-35995578D01*
X124796413Y-35996028D01*
X124796414Y-35996028D01*
X124800349Y-35996052D01*
X124801693Y-35995668D01*
X124803038Y-35995576D01*
X138721995Y-35995576D01*
X138722766Y-35995578D01*
X138800349Y-35996052D01*
X138808978Y-35993586D01*
X138808983Y-35993585D01*
X138828745Y-35987937D01*
X138845506Y-35984359D01*
X138865849Y-35981446D01*
X138865859Y-35981443D01*
X138874742Y-35980171D01*
X138898092Y-35969555D01*
X138915604Y-35963112D01*
X138931634Y-35958530D01*
X138940262Y-35956064D01*
X138965245Y-35940302D01*
X138980311Y-35932172D01*
X139007207Y-35919943D01*
X139026636Y-35903202D01*
X139041644Y-35892097D01*
X139055736Y-35883206D01*
X139063328Y-35878416D01*
X139082879Y-35856279D01*
X139095071Y-35844235D01*
X139110646Y-35830815D01*
X139110647Y-35830813D01*
X139117444Y-35824957D01*
X139122323Y-35817429D01*
X139122326Y-35817426D01*
X139131393Y-35803437D01*
X139142683Y-35788563D01*
X139153709Y-35776078D01*
X139159653Y-35769348D01*
X139172207Y-35742610D01*
X139180521Y-35727641D01*
X139196590Y-35702849D01*
X139203936Y-35678285D01*
X139210598Y-35660840D01*
X139217680Y-35645755D01*
X139221496Y-35637628D01*
X139226040Y-35608446D01*
X139229823Y-35591727D01*
X139235711Y-35572040D01*
X139235712Y-35572037D01*
X139238284Y-35563435D01*
X139238494Y-35529020D01*
X139238527Y-35528248D01*
X139238697Y-35527153D01*
X139238697Y-35496278D01*
X139238699Y-35495508D01*
X139239149Y-35421860D01*
X139239149Y-35421859D01*
X139239173Y-35417924D01*
X139238789Y-35416580D01*
X139238697Y-35415235D01*
X139238697Y-21496278D01*
X139238699Y-21495508D01*
X139238801Y-21478874D01*
X139239173Y-21417924D01*
X139236707Y-21409295D01*
X139236706Y-21409290D01*
X139231058Y-21389528D01*
X139227480Y-21372767D01*
X139224567Y-21352424D01*
X139224564Y-21352414D01*
X139223292Y-21343531D01*
X139212676Y-21320181D01*
X139206233Y-21302669D01*
X139201651Y-21286639D01*
X139199185Y-21278011D01*
X139183423Y-21253028D01*
X139175293Y-21237962D01*
X139163064Y-21211066D01*
X139146323Y-21191637D01*
X139135218Y-21176629D01*
X139126327Y-21162537D01*
X139126324Y-21162533D01*
X139121537Y-21154945D01*
X139099400Y-21135394D01*
X139087356Y-21123202D01*
X139073936Y-21107627D01*
X139073934Y-21107626D01*
X139068078Y-21100829D01*
X139060550Y-21095950D01*
X139060547Y-21095947D01*
X139046558Y-21086880D01*
X139031684Y-21075590D01*
X139019199Y-21064564D01*
X139012469Y-21058620D01*
X139004343Y-21054805D01*
X139004342Y-21054804D01*
X138998676Y-21052144D01*
X138985731Y-21046066D01*
X138970762Y-21037752D01*
X138945970Y-21021683D01*
X138921406Y-21014337D01*
X138903961Y-21007675D01*
X138899524Y-21005592D01*
X138880749Y-20996777D01*
X138851567Y-20992233D01*
X138834848Y-20988450D01*
X138815161Y-20982562D01*
X138815158Y-20982561D01*
X138806556Y-20979989D01*
X138797581Y-20979934D01*
X138797580Y-20979934D01*
X138790887Y-20979893D01*
X138772141Y-20979779D01*
X138771369Y-20979746D01*
X138770274Y-20979576D01*
X138739399Y-20979576D01*
X138738629Y-20979574D01*
X138664981Y-20979124D01*
X138664980Y-20979124D01*
X138661045Y-20979100D01*
X138659701Y-20979484D01*
X138658356Y-20979576D01*
X124739399Y-20979576D01*
X124738629Y-20979574D01*
X124737775Y-20979569D01*
X124661045Y-20979100D01*
X124652416Y-20981566D01*
X124652411Y-20981567D01*
X124632649Y-20987215D01*
X124615888Y-20990793D01*
X124595545Y-20993706D01*
X124595535Y-20993709D01*
X124586652Y-20994981D01*
X124563302Y-21005597D01*
X124545790Y-21012040D01*
X124537754Y-21014337D01*
X124521132Y-21019088D01*
X124496149Y-21034850D01*
X124481083Y-21042980D01*
X124454187Y-21055209D01*
X124434758Y-21071950D01*
X124419750Y-21083055D01*
X124398066Y-21096736D01*
X124392124Y-21103464D01*
X124378516Y-21118872D01*
X124366324Y-21130916D01*
X124343950Y-21150195D01*
X124339071Y-21157723D01*
X124339068Y-21157726D01*
X124330001Y-21171715D01*
X124318711Y-21186589D01*
X124301741Y-21205804D01*
X124289187Y-21232542D01*
X124280873Y-21247511D01*
X124264804Y-21272303D01*
X124262232Y-21280903D01*
X124257458Y-21296866D01*
X124250796Y-21314312D01*
X124239898Y-21337524D01*
X124237487Y-21353010D01*
X124235355Y-21366704D01*
X124231571Y-21383425D01*
X124225683Y-21403112D01*
X124225682Y-21403115D01*
X124223110Y-21411717D01*
X124223055Y-21420692D01*
X124223055Y-21420693D01*
X124222900Y-21446122D01*
X124222867Y-21446904D01*
X124222697Y-21447999D01*
X124222697Y-21478874D01*
X124222695Y-21479644D01*
X124222390Y-21529645D01*
X124222221Y-21557228D01*
X124222605Y-21558572D01*
X124222697Y-21559917D01*
X124222697Y-35478874D01*
X124222695Y-35479644D01*
X124222221Y-35557228D01*
X117486583Y-35557228D01*
X117486477Y-35554939D01*
X117486024Y-35553619D01*
X117485862Y-35552283D01*
X116757390Y-21652194D01*
X116757352Y-21651426D01*
X116754189Y-21583094D01*
X116753774Y-21574126D01*
X116748896Y-21559917D01*
X116744184Y-21546195D01*
X116739734Y-21529645D01*
X116735757Y-21509470D01*
X116734022Y-21500666D01*
X116722202Y-21477910D01*
X116714848Y-21460752D01*
X116709435Y-21444987D01*
X116709432Y-21444982D01*
X116706519Y-21436497D01*
X116689475Y-21412380D01*
X116680560Y-21397746D01*
X116671082Y-21379500D01*
X116671080Y-21379498D01*
X116666944Y-21371535D01*
X116660738Y-21365052D01*
X116660735Y-21365048D01*
X116649211Y-21353010D01*
X116637334Y-21338603D01*
X116622536Y-21317664D01*
X116599400Y-21299294D01*
X116586747Y-21287759D01*
X116572527Y-21272904D01*
X116572523Y-21272901D01*
X116566319Y-21266420D01*
X116544099Y-21253618D01*
X116528653Y-21243120D01*
X116508577Y-21227179D01*
X116481221Y-21216043D01*
X116465832Y-21208521D01*
X116440236Y-21193773D01*
X116415324Y-21187723D01*
X116397552Y-21181983D01*
X116382114Y-21175699D01*
X116382111Y-21175698D01*
X116373800Y-21172315D01*
X116364877Y-21171401D01*
X116364874Y-21171400D01*
X116350665Y-21169945D01*
X116344426Y-21169305D01*
X116327531Y-21166402D01*
X116307556Y-21161551D01*
X116298831Y-21159432D01*
X116289864Y-21159847D01*
X116289862Y-21159847D01*
X116264458Y-21161023D01*
X116263671Y-21161031D01*
X116262577Y-21160919D01*
X116231616Y-21162541D01*
X116231147Y-21162564D01*
X116153473Y-21166160D01*
X116152148Y-21166615D01*
X116150815Y-21166776D01*
X104118220Y-21797377D01*
X102250898Y-21895239D01*
X102250130Y-21895277D01*
X102227339Y-21896332D01*
X102172660Y-21898863D01*
X102144713Y-21908459D01*
X102128183Y-21912903D01*
X102099200Y-21918616D01*
X102076434Y-21930442D01*
X102059290Y-21937790D01*
X102035031Y-21946119D01*
X102027703Y-21951298D01*
X102027701Y-21951299D01*
X102010910Y-21963166D01*
X101996276Y-21972081D01*
X101970069Y-21985694D01*
X101963583Y-21991903D01*
X101951550Y-22003422D01*
X101937143Y-22015299D01*
X101916198Y-22030101D01*
X101910617Y-22037130D01*
X101897836Y-22053228D01*
X101886295Y-22065890D01*
X101864954Y-22086319D01*
X101860473Y-22094095D01*
X101860472Y-22094097D01*
X101852152Y-22108536D01*
X101841657Y-22123979D01*
X101831296Y-22137029D01*
X101825713Y-22144061D01*
X101814576Y-22171419D01*
X101807050Y-22186815D01*
X101796787Y-22204625D01*
X101796785Y-22204631D01*
X101792307Y-22212402D01*
X101790190Y-22221118D01*
X101790189Y-22221121D01*
X101786255Y-22237322D01*
X101780515Y-22255092D01*
X101770849Y-22278837D01*
X101769935Y-22287763D01*
X101769934Y-22287765D01*
X101767840Y-22308209D01*
X101764936Y-22325106D01*
X101760085Y-22345080D01*
X101760085Y-22345083D01*
X101757966Y-22353807D01*
X94400638Y-22353807D01*
X94213848Y-20576617D01*
X94213770Y-20575852D01*
X94207016Y-20507592D01*
X94206133Y-20498663D01*
X94202781Y-20490344D01*
X94202779Y-20490338D01*
X94195092Y-20471265D01*
X94189782Y-20454971D01*
X94184758Y-20435043D01*
X94184757Y-20435041D01*
X94182563Y-20426338D01*
X94169571Y-20404237D01*
X94161328Y-20387487D01*
X94151740Y-20363697D01*
X94133451Y-20340497D01*
X94123782Y-20326348D01*
X94113368Y-20308633D01*
X94113367Y-20308631D01*
X94108818Y-20300894D01*
X94090143Y-20283326D01*
X94077529Y-20269561D01*
X94061653Y-20249421D01*
X94054338Y-20244213D01*
X94054336Y-20244211D01*
X94037588Y-20232287D01*
X94024341Y-20221426D01*
X94002830Y-20201190D01*
X93994823Y-20197119D01*
X93979971Y-20189567D01*
X93964000Y-20179895D01*
X93950422Y-20170228D01*
X93943114Y-20165025D01*
X93915215Y-20155336D01*
X93899445Y-20148626D01*
X93881119Y-20139309D01*
X93881120Y-20139309D01*
X93873118Y-20135241D01*
X93847907Y-20130500D01*
X93829880Y-20125703D01*
X93805651Y-20117289D01*
X93779634Y-20115994D01*
X93776156Y-20115821D01*
X93759133Y-20113806D01*
X93738934Y-20110007D01*
X93738929Y-20110007D01*
X93730109Y-20108348D01*
X93695868Y-20111735D01*
X93695084Y-20111785D01*
X93693983Y-20111730D01*
X93691038Y-20112039D01*
X93691030Y-20112040D01*
X93676363Y-20113582D01*
X93663174Y-20114968D01*
X93662570Y-20115029D01*
X93585302Y-20122674D01*
X93584003Y-20123198D01*
X93582682Y-20123428D01*
X87429764Y-20770126D01*
X79739949Y-21578358D01*
X79739184Y-21578436D01*
X79670929Y-21585189D01*
X79670928Y-21585189D01*
X79661995Y-21586073D01*
X79634595Y-21597116D01*
X79618304Y-21602424D01*
X79598375Y-21607448D01*
X79598373Y-21607449D01*
X79589670Y-21609643D01*
X79581932Y-21614192D01*
X79567559Y-21622641D01*
X79550805Y-21630885D01*
X79535353Y-21637112D01*
X79535351Y-21637113D01*
X79527029Y-21640467D01*
X79519981Y-21646023D01*
X79519976Y-21646026D01*
X79503834Y-21658751D01*
X79489686Y-21668420D01*
X79471965Y-21678838D01*
X79471963Y-21678840D01*
X79464226Y-21683388D01*
X79446660Y-21702061D01*
X79432895Y-21714675D01*
X79412753Y-21730553D01*
X79407549Y-21737863D01*
X79395624Y-21754612D01*
X79384755Y-21767867D01*
X79364522Y-21789376D01*
X79360455Y-21797376D01*
X79360454Y-21797377D01*
X79352900Y-21812235D01*
X79343226Y-21828209D01*
X79328357Y-21849093D01*
X79318671Y-21876986D01*
X79311961Y-21892753D01*
X79302644Y-21911078D01*
X79302641Y-21911087D01*
X79298573Y-21919088D01*
X79293832Y-21944299D01*
X79289035Y-21962326D01*
X79280621Y-21986555D01*
X79280175Y-21995523D01*
X79279153Y-22016050D01*
X79277138Y-22033073D01*
X79273339Y-22053272D01*
X79273339Y-22053277D01*
X79271680Y-22062097D01*
X77676942Y-22062097D01*
X77494167Y-20307469D01*
X77507004Y-20237644D01*
X77555554Y-20185842D01*
X77606490Y-20169088D01*
X88095456Y-19081137D01*
X95443803Y-18318941D01*
X95513623Y-18331809D01*
X95565404Y-18380381D01*
X95582170Y-18431662D01*
X95664407Y-19249450D01*
X95664801Y-19254313D01*
X95668583Y-19315735D01*
X95671626Y-19324175D01*
X95671627Y-19324182D01*
X95682121Y-19353291D01*
X95685902Y-19365766D01*
X95695483Y-19404504D01*
X95699997Y-19412262D01*
X95703139Y-19417662D01*
X95712764Y-19438296D01*
X95714886Y-19444183D01*
X95714888Y-19444187D01*
X95717931Y-19452628D01*
X95723221Y-19459877D01*
X95723222Y-19459878D01*
X95741457Y-19484864D01*
X95748585Y-19495774D01*
X95764146Y-19522517D01*
X95768662Y-19530278D01*
X95775173Y-19536458D01*
X95775175Y-19536461D01*
X95779705Y-19540761D01*
X95794737Y-19557867D01*
X95798419Y-19562912D01*
X95798423Y-19562916D01*
X95803715Y-19570167D01*
X95810829Y-19575641D01*
X95810830Y-19575642D01*
X95835348Y-19594508D01*
X95845252Y-19602980D01*
X95867688Y-19624276D01*
X95867692Y-19624279D01*
X95874202Y-19630458D01*
X95882187Y-19634563D01*
X95887738Y-19637417D01*
X95906965Y-19649615D01*
X95911922Y-19653429D01*
X95911926Y-19653431D01*
X95919040Y-19658905D01*
X95927407Y-19662163D01*
X95956240Y-19673391D01*
X95968116Y-19678738D01*
X96003616Y-19696989D01*
X96012432Y-19698688D01*
X96018565Y-19699870D01*
X96040445Y-19706182D01*
X96054637Y-19711709D01*
X96063577Y-19712487D01*
X96063579Y-19712488D01*
X96080186Y-19713934D01*
X96094402Y-19715172D01*
X96107312Y-19716973D01*
X96137686Y-19722827D01*
X96137692Y-19722827D01*
X96146502Y-19724525D01*
X96212124Y-19718330D01*
X96215415Y-19718064D01*
X118693556Y-18196194D01*
X118702121Y-18195906D01*
X141867055Y-18207678D01*
G37*
%TD.AperFunction*%
M02*
