<?xml version="1.0" encoding="UTF-8" standalone="no"?>
<svg
   version="1.1"
   width="29.700220cm"
   height="21.000720cm"
   viewBox="0 0 297002200 210007200"
   id="svg4595"
   sodipodi:docname="kibod-01-User_Eco2.svg.2022_01_05_10_36_38.0.svg"
   inkscape:version="1.1.1 (c3084ef, 2021-09-22)"
   xmlns:inkscape="http://www.inkscape.org/namespaces/inkscape"
   xmlns:sodipodi="http://sodipodi.sourceforge.net/DTD/sodipodi-0.dtd"
   xmlns="http://www.w3.org/2000/svg"
   xmlns:svg="http://www.w3.org/2000/svg">
  <defs
     id="defs4599" />
  <sodipodi:namedview
     id="namedview4597"
     pagecolor="#ffffff"
     bordercolor="#666666"
     borderopacity="1.0"
     inkscape:pageshadow="2"
     inkscape:pageopacity="0.0"
     inkscape:pagecheckerboard="0"
     inkscape:document-units="cm"
     showgrid="false"
     inkscape:zoom="1.1185386"
     inkscape:cx="478.74967"
     inkscape:cy="340.62302"
     inkscape:window-width="1312"
     inkscape:window-height="814"
     inkscape:window-x="0"
     inkscape:window-y="23"
     inkscape:window-maximized="0"
     inkscape:current-layer="g7106" />
  <title
     id="title3011">SVG Picture created as kibod-01-User_Eco2.svg date 2022/01/05 10:23:54 </title>
  <desc
     id="desc3013">Picture generated by PCBNEW </desc>
  <g
     style="fill:#000000; fill-opacity:1.000000;stroke:#000000; stroke-opacity:1.000000; stroke-linecap:round; stroke-linejoin:round;"
     transform="translate(0 0) scale(1 1)"
     id="g3015" />
  <g
     style="fill:#000000; fill-opacity:0.0;  stroke:#000000; stroke-width:120000.000000; stroke-opacity:1;  stroke-linecap:round; stroke-linejoin:round;"
     id="g4325">
    <path
       d="M2979410 61740808 L5410485 75528117 "
       id="path3809" />
    <path
       d="M-8376824 77959192 L-10807899 64171883 "
       id="path3811" />
    <path
       d="M-10807899 64171883 L2979410 61740808 "
       id="path3813" />
    <path
       d="M5410485 75528117 L-8376824 77959192 "
       id="path3815" />
    <path
       d="M25702598 57815083 L27651021 71678836 "
       id="path3817" />
    <path
       d="M27651021 71678836 L13787268 73627259 "
       id="path3819" />
    <path
       d="M11838845 59763506 L25702598 57815083 "
       id="path3821" />
    <path
       d="M13787268 73627259 L11838845 59763506 "
       id="path3823" />
    <path
       d="M48698873 57038329 L34775566 58501728 "
       id="path3825" />
    <path
       d="M34775566 58501728 L33312167 44578421 "
       id="path3827" />
    <path
       d="M47235474 43115022 L48698873 57038329 "
       id="path3829" />
    <path
       d="M33312167 44578421 L47235474 43115022 "
       id="path3831" />
    <path
       d="M57350345 53932696 L56373754 39966799 "
       id="path3833" />
    <path
       d="M71316242 52956105 L57350345 53932696 "
       id="path3835" />
    <path
       d="M56373754 39966799 L70339651 38990208 "
       id="path3837" />
    <path
       d="M70339651 38990208 L71316242 52956105 "
       id="path3839" />
    <path
       d="M79803498 40625858 L93794969 40137265 "
       id="path3841" />
    <path
       d="M94283562 54128736 L80292091 54617329 "
       id="path3843" />
    <path
       d="M93794969 40137265 L94283562 54128736 "
       id="path3845" />
    <path
       d="M80292091 54617329 L79803498 40625858 "
       id="path3847" />
    <path
       d="M102220000 42530000 L116220000 42530000 "
       id="path3849" />
    <path
       d="M116220000 56530000 L102220000 56530000 "
       id="path3851" />
    <path
       d="M116220000 42530000 L116220000 56530000 "
       id="path3853" />
    <path
       d="M102220000 56530000 L102220000 42530000 "
       id="path3855" />
    <path
       d="M6287407 80390039 L8718482 94177348 "
       id="path3857" />
    <path
       d="M-7499902 82821114 L6287407 80390039 "
       id="path3859" />
    <path
       d="M-5068827 96608423 L-7499902 82821114 "
       id="path3861" />
    <path
       d="M8718482 94177348 L-5068827 96608423 "
       id="path3863" />
    <path
       d="M30302266 90543442 L16438513 92491865 "
       id="path3865" />
    <path
       d="M28353843 76679689 L30302266 90543442 "
       id="path3867" />
    <path
       d="M16438513 92491865 L14490090 78628112 "
       id="path3869" />
    <path
       d="M14490090 78628112 L28353843 76679689 "
       id="path3871" />
    <path
       d="M50690138 75983972 L36766831 77447371 "
       id="path3873" />
    <path
       d="M49226739 62060665 L50690138 75983972 "
       id="path3875" />
    <path
       d="M36766831 77447371 L35303432 63524064 "
       id="path3877" />
    <path
       d="M35303432 63524064 L49226739 62060665 "
       id="path3879" />
    <path
       d="M72645102 71959699 L58679205 72936290 "
       id="path3881" />
    <path
       d="M58679205 72936290 L57702614 58970393 "
       id="path3883" />
    <path
       d="M57702614 58970393 L71668511 57993802 "
       id="path3885" />
    <path
       d="M71668511 57993802 L72645102 71959699 "
       id="path3887" />
    <path
       d="M94459804 59175660 L94948397 73167131 "
       id="path3889" />
    <path
       d="M80468333 59664253 L94459804 59175660 "
       id="path3891" />
    <path
       d="M94948397 73167131 L80956926 73655724 "
       id="path3893" />
    <path
       d="M80956926 73655724 L80468333 59664253 "
       id="path3895" />
    <path
       d="M116220000 75580000 L102220000 75580000 "
       id="path3897" />
    <path
       d="M102220000 61580000 L116220000 61580000 "
       id="path3899" />
    <path
       d="M102220000 75580000 L102220000 61580000 "
       id="path3901" />
    <path
       d="M116220000 61580000 L116220000 75580000 "
       id="path3903" />
    <path
       d="M9595405 99150627 L12026480 112937936 "
       id="path3905" />
    <path
       d="M-1760829 115369011 L-4191904 101581702 "
       id="path3907" />
    <path
       d="M12026480 112937936 L-1760829 115369011 "
       id="path3909" />
    <path
       d="M-4191904 101581702 L9595405 99150627 "
       id="path3911" />
    <path
       d="M17141340 97492719 L31005093 95544296 "
       id="path3913" />
    <path
       d="M32953516 109408049 L19089763 111356472 "
       id="path3915" />
    <path
       d="M31005093 95544296 L32953516 109408049 "
       id="path3917" />
    <path
       d="M19089763 111356472 L17141340 97492719 "
       id="path3919" />
    <path
       d="M38758099 96393011 L37294700 82469704 "
       id="path3921" />
    <path
       d="M51218007 81006305 L52681406 94929612 "
       id="path3923" />
    <path
       d="M37294700 82469704 L51218007 81006305 "
       id="path3925" />
    <path
       d="M52681406 94929612 L38758099 96393011 "
       id="path3927" />
    <path
       d="M60008066 91939886 L59031475 77973989 "
       id="path3929" />
    <path
       d="M72997372 76997398 L73973963 90963295 "
       id="path3931" />
    <path
       d="M59031475 77973989 L72997372 76997398 "
       id="path3933" />
    <path
       d="M73973963 90963295 L60008066 91939886 "
       id="path3935" />
    <path
       d="M81133168 78702648 L95124639 78214055 "
       id="path3937" />
    <path
       d="M95124639 78214055 L95613232 92205526 "
       id="path3939" />
    <path
       d="M95613232 92205526 L81621761 92694119 "
       id="path3941" />
    <path
       d="M81621761 92694119 L81133168 78702648 "
       id="path3943" />
    <path
       d="M102220000 94630000 L102220000 80630000 "
       id="path3945" />
    <path
       d="M116220000 94630000 L102220000 94630000 "
       id="path3947" />
    <path
       d="M116220000 80630000 L116220000 94630000 "
       id="path3949" />
    <path
       d="M102220000 80630000 L116220000 80630000 "
       id="path3951" />
    <path
       d="M96140805 101198561 L95652212 115190032 "
       id="path3953" />
    <path
       d="M81660741 114701439 L82149334 100709968 "
       id="path3955" />
    <path
       d="M95652212 115190032 L81660741 114701439 "
       id="path3957" />
    <path
       d="M82149334 100709968 L96140805 101198561 "
       id="path3959" />
    <path
       d="M100733930 115449954 L102197329 101526647 "
       id="path3961" />
    <path
       d="M102197329 101526647 L116120636 102990046 "
       id="path3963" />
    <path
       d="M114657237 116913353 L100733930 115449954 "
       id="path3965" />
    <path
       d="M116120636 102990046 L114657237 116913353 "
       id="path3967" />
    <path
       d="M120160808 117525520 L122591883 103738211 "
       id="path3969" />
    <path
       d="M122591883 103738211 L136379192 106169286 "
       id="path3971" />
    <path
       d="M136379192 106169286 L133948117 119956595 "
       id="path3973" />
    <path
       d="M133948117 119956595 L120160808 117525520 "
       id="path3975" />
    <path
       d="M295281556 78213192 L281494247 75782117 "
       id="path3977" />
    <path
       d="M281494247 75782117 L283925322 61994808 "
       id="path3979" />
    <path
       d="M283925322 61994808 L297712631 64425883 "
       id="path3981" />
    <path
       d="M297712631 64425883 L295281556 78213192 "
       id="path3983" />
    <path
       d="M275065887 60017506 L273117464 73881259 "
       id="path3985" />
    <path
       d="M261202134 58069083 L275065887 60017506 "
       id="path3987" />
    <path
       d="M273117464 73881259 L259253711 71932836 "
       id="path3989" />
    <path
       d="M259253711 71932836 L261202134 58069083 "
       id="path3991" />
    <path
       d="M253592565 44832421 L252129166 58755728 "
       id="path3993" />
    <path
       d="M238205859 57292329 L239669258 43369022 "
       id="path3995" />
    <path
       d="M252129166 58755728 L238205859 57292329 "
       id="path3997" />
    <path
       d="M239669258 43369022 L253592565 44832421 "
       id="path3999" />
    <path
       d="M229554387 54186696 L215588490 53210105 "
       id="path4001" />
    <path
       d="M215588490 53210105 L216565081 39244208 "
       id="path4003" />
    <path
       d="M230530978 40220799 L229554387 54186696 "
       id="path4005" />
    <path
       d="M216565081 39244208 L230530978 40220799 "
       id="path4007" />
    <path
       d="M193109763 40391265 L207101234 40879858 "
       id="path4009" />
    <path
       d="M207101234 40879858 L206612641 54871329 "
       id="path4011" />
    <path
       d="M192621170 54382736 L193109763 40391265 "
       id="path4013" />
    <path
       d="M206612641 54871329 L192621170 54382736 "
       id="path4015" />
    <path
       d="M170673000 42784000 L184673000 42784000 "
       id="path4017" />
    <path
       d="M184673000 56784000 L170673000 56784000 "
       id="path4019" />
    <path
       d="M170673000 56784000 L170673000 42784000 "
       id="path4021" />
    <path
       d="M184673000 42784000 L184673000 56784000 "
       id="path4023" />
    <path
       d="M294404633 83075114 L291973558 96862423 "
       id="path4025" />
    <path
       d="M278186249 94431348 L280617324 80644039 "
       id="path4027" />
    <path
       d="M280617324 80644039 L294404633 83075114 "
       id="path4029" />
    <path
       d="M291973558 96862423 L278186249 94431348 "
       id="path4031" />
    <path
       d="M256602465 90797442 L258550888 76933689 "
       id="path4033" />
    <path
       d="M270466218 92745865 L256602465 90797442 "
       id="path4035" />
    <path
       d="M272414641 78882112 L270466218 92745865 "
       id="path4037" />
    <path
       d="M258550888 76933689 L272414641 78882112 "
       id="path4039" />
    <path
       d="M250137900 77701371 L236214593 76237972 "
       id="path4041" />
    <path
       d="M236214593 76237972 L237677992 62314665 "
       id="path4043" />
    <path
       d="M251601299 63778064 L250137900 77701371 "
       id="path4045" />
    <path
       d="M237677992 62314665 L251601299 63778064 "
       id="path4047" />
    <path
       d="M214259629 72213699 L215236220 58247802 "
       id="path4049" />
    <path
       d="M228225526 73190290 L214259629 72213699 "
       id="path4051" />
    <path
       d="M215236220 58247802 L229202117 59224393 "
       id="path4053" />
    <path
       d="M229202117 59224393 L228225526 73190290 "
       id="path4055" />
    <path
       d="M192444927 59429660 L206436398 59918253 "
       id="path4057" />
    <path
       d="M206436398 59918253 L205947805 73909724 "
       id="path4059" />
    <path
       d="M191956334 73421131 L192444927 59429660 "
       id="path4061" />
    <path
       d="M205947805 73909724 L191956334 73421131 "
       id="path4063" />
    <path
       d="M184673000 75834000 L170673000 75834000 "
       id="path4065" />
    <path
       d="M184673000 61834000 L184673000 75834000 "
       id="path4067" />
    <path
       d="M170673000 75834000 L170673000 61834000 "
       id="path4069" />
    <path
       d="M170673000 61834000 L184673000 61834000 "
       id="path4071" />
    <path
       d="M274878251 113191936 L277309326 99404627 "
       id="path4073" />
    <path
       d="M288665560 115623011 L274878251 113191936 "
       id="path4075" />
    <path
       d="M291096635 101835702 L288665560 115623011 "
       id="path4077" />
    <path
       d="M277309326 99404627 L291096635 101835702 "
       id="path4079" />
    <path
       d="M269763391 97746719 L267814968 111610472 "
       id="path4081" />
    <path
       d="M255899638 95798296 L269763391 97746719 "
       id="path4083" />
    <path
       d="M267814968 111610472 L253951215 109662049 "
       id="path4085" />
    <path
       d="M253951215 109662049 L255899638 95798296 "
       id="path4087" />
    <path
       d="M249610031 82723704 L248146632 96647011 "
       id="path4089" />
    <path
       d="M234223325 95183612 L235686724 81260305 "
       id="path4091" />
    <path
       d="M235686724 81260305 L249610031 82723704 "
       id="path4093" />
    <path
       d="M248146632 96647011 L234223325 95183612 "
       id="path4095" />
    <path
       d="M227873256 78227989 L226896665 92193886 "
       id="path4097" />
    <path
       d="M213907359 77251398 L227873256 78227989 "
       id="path4099" />
    <path
       d="M212930768 91217295 L213907359 77251398 "
       id="path4101" />
    <path
       d="M226896665 92193886 L212930768 91217295 "
       id="path4103" />
    <path
       d="M191780092 78468055 L205771563 78956648 "
       id="path4105" />
    <path
       d="M191291499 92459526 L191780092 78468055 "
       id="path4107" />
    <path
       d="M205771563 78956648 L205282970 92948119 "
       id="path4109" />
    <path
       d="M205282970 92948119 L191291499 92459526 "
       id="path4111" />
    <path
       d="M184673000 80884000 L184673000 94884000 "
       id="path4113" />
    <path
       d="M170673000 80884000 L184673000 80884000 "
       id="path4115" />
    <path
       d="M184673000 94884000 L170673000 94884000 "
       id="path4117" />
    <path
       d="M170673000 94884000 L170673000 80884000 "
       id="path4119" />
    <path
       d="M204926371 100963968 L205414964 114955439 "
       id="path4121" />
    <path
       d="M190934900 101452561 L204926371 100963968 "
       id="path4123" />
    <path
       d="M191423493 115444032 L190934900 101452561 "
       id="path4125" />
    <path
       d="M205414964 114955439 L191423493 115444032 "
       id="path4127" />
    <path
       d="M172235763 117167353 L170772364 103244046 "
       id="path4129" />
    <path
       d="M184695671 101780647 L186159070 115703954 "
       id="path4131" />
    <path
       d="M170772364 103244046 L184695671 101780647 "
       id="path4133" />
    <path
       d="M186159070 115703954 L172235763 117167353 "
       id="path4135" />
    <path
       d="M150513808 106423286 L164301117 103992211 "
       id="path4137" />
    <path
       d="M152944883 120210595 L150513808 106423286 "
       id="path4139" />
    <path
       d="M166732192 117779520 L152944883 120210595 "
       id="path4141" />
    <path
       d="M164301117 103992211 L166732192 117779520 "
       id="path4143" />
    <g
       id="g4145" />
    <g
       id="g4147" />
    <g
       id="g4149" />
    <g
       id="g4151" />
    <g
       id="g4153" />
    <g
       id="g4155" />
    <g
       id="g4157" />
    <g
       id="g4159" />
    <g
       id="g4161" />
    <g
       id="g4163" />
    <g
       id="g4165" />
    <g
       id="g4167" />
    <g
       id="g4169" />
    <g
       id="g4171" />
    <g
       id="g4173" />
    <g
       id="g4175" />
    <g
       id="g4177" />
    <g
       id="g4179" />
    <g
       id="g4181" />
    <g
       id="g4183" />
    <g
       id="g4185" />
    <g
       id="g4187" />
    <g
       id="g4189" />
    <g
       id="g4191" />
    <g
       id="g4193" />
    <g
       id="g4195" />
    <g
       id="g4197" />
    <g
       id="g4199" />
    <g
       id="g4201" />
    <g
       id="g4203" />
    <g
       id="g4205" />
    <g
       id="g4207" />
    <g
       id="g4209" />
    <g
       id="g4211" />
    <g
       id="g4213" />
    <g
       id="g4215" />
    <g
       id="g4217" />
    <g
       id="g4219" />
    <g
       id="g4221" />
    <g
       id="g4223" />
    <g
       id="g4225" />
    <g
       id="g4227" />
    <g
       id="g4229" />
    <g
       id="g4231" />
    <g
       id="g4233" />
    <g
       id="g4235" />
    <g
       id="g4237" />
    <g
       id="g4239" />
    <g
       id="g4241" />
    <g
       id="g4243" />
    <g
       id="g4245" />
    <g
       id="g4247" />
    <g
       id="g4249" />
    <g
       id="g4251" />
    <g
       id="g4253" />
    <g
       id="g4255" />
    <g
       id="g4257" />
    <g
       id="g4259" />
    <g
       id="g4261" />
    <g
       id="g4263" />
    <g
       id="g4265" />
    <g
       id="g4267" />
    <g
       id="g4269" />
    <g
       id="g4271" />
    <g
       id="g4273" />
    <g
       id="g4275" />
    <g
       id="g4277" />
    <g
       id="g4279" />
    <g
       id="g4281" />
    <g
       id="g4283" />
    <g
       id="g4285" />
    <g
       id="g4287" />
    <g
       id="g4289" />
    <g
       id="g4291" />
    <g
       id="g4293" />
    <g
       id="g4295" />
    <g
       id="g4297" />
    <g
       id="g4299" />
    <g
       id="g4301" />
    <g
       id="g4303" />
    <g
       id="g4305" />
    <g
       id="g4307" />
    <g
       id="g4309" />
    <g
       id="g4311" />
    <g
       id="g4313" />
    <g
       id="g4315" />
    <g
       id="g4317" />
    <g
       id="g4319" />
    <g
       id="g4321" />
    <g
       id="g4323" />
  </g>
  <g
     style="fill:#000000; fill-opacity:0.0;  stroke:#000000; stroke-width:120000.000000; stroke-opacity:1;  stroke-linecap:round; stroke-linejoin:round;"
     id="g4327" />
  <g
     style="fill:#000000; fill-opacity:0.0;  stroke:#000000; stroke-width:50000.000000; stroke-opacity:1;  stroke-linecap:round; stroke-linejoin:round;"
     id="g4593">
    <path
       d="M146927873 102743000 L147193000 103886000 "
       id="path4329" />
    <path
       d="M139954000 102489000 L139700000 103632000 "
       id="path4331" />
    <path
       d="M96774000 38227000 L119380000 38100000 "
       id="path4333" />
    <path
       d="M139954000 38100000 L119380000 38100000 "
       id="path4335" />
    <path
       d="M139700000 103632000 L136271000 123317000 "
       id="path4337" />
    <path
       d="M302133000 61214000 L291973000 119634000 "
       id="path4339" />
    <path
       d="M233922873 37338000 L233668873 39751000 "
       id="path4341" />
    <path
       d="M189726873 37465000 L213348873 38354000 "
       id="path4343" />
    <path
       d="M189726873 37465000 L189726873 38481000 "
       id="path4345" />
    <path
       d="M233668873 39751000 L257163873 42291000 "
       id="path4347" />
    <path
       d="M270383000 115824000 L250063000 113284000 "
       id="path4349" />
    <path
       d="M257163873 42291000 L256020873 53594000 "
       id="path4351" />
    <path
       d="M189103000 119634000 L170053000 120904000 "
       id="path4353" />
    <path
       d="M208153000 118364000 L189103000 119634000 "
       id="path4355" />
    <path
       d="M291973000 119634000 L270383000 115824000 "
       id="path4357" />
    <path
       d="M146927873 38354000 L167513000 38354000 "
       id="path4359" />
    <path
       d="M170053000 120904000 L150737873 123571000 "
       id="path4361" />
    <path
       d="M213475873 36068000 L233922873 37338000 "
       id="path4363" />
    <path
       d="M280543000 57404000 L302133000 61214000 "
       id="path4365" />
    <path
       d="M213348873 38354000 L213475873 36068000 "
       id="path4367" />
    <path
       d="M256020873 53594000 L280543000 57404000 "
       id="path4369" />
    <path
       d="M147193000 103886000 L150737873 123571000 "
       id="path4371" />
    <path
       d="M167513000 38354000 L189726873 38481000 "
       id="path4373" />
    <path
       d="M146927873 102743000 L146927873 38354000 "
       id="path4375" />
    <path
       d="M208153000 118364000 L250063000 113284000 "
       id="path4377" />
    <path
       d="M-5080000 119380000 L16510000 115570000 "
       id="path4379" />
    <path
       d="M6350000 57150000 L-15240000 60960000 "
       id="path4381" />
    <path
       d="M97790000 119380000 L116840000 120650000 "
       id="path4383" />
    <path
       d="M139954000 102489000 L139954000 38100000 "
       id="path4385" />
    <path
       d="M52705000 39370000 L29972000 42164000 "
       id="path4387" />
    <path
       d="M73533000 37846000 L73406000 35687000 "
       id="path4389" />
    <path
       d="M-15240000 60960000 L-5080000 119380000 "
       id="path4391" />
    <path
       d="M16510000 115570000 L36830000 113030000 "
       id="path4393" />
    <path
       d="M29972000 42164000 L31115000 53213000 "
       id="path4395" />
    <path
       d="M52578000 37084000 L52705000 39370000 "
       id="path4397" />
    <path
       d="M78740000 118110000 L36830000 113030000 "
       id="path4399" />
    <path
       d="M73406000 35687000 L52578000 37084000 "
       id="path4401" />
    <path
       d="M96774000 37211000 L96774000 38227000 "
       id="path4403" />
    <path
       d="M31115000 53213000 L6350000 57150000 "
       id="path4405" />
    <path
       d="M96774000 37211000 L73533000 37846000 "
       id="path4407" />
    <path
       d="M116840000 120650000 L136271000 123317000 "
       id="path4409" />
    <path
       d="M78740000 118110000 L97790000 119380000 "
       id="path4411" />
    <g
       id="g4413" />
    <g
       id="g4415" />
    <g
       id="g4417" />
    <g
       id="g4419" />
    <g
       id="g4421" />
    <g
       id="g4423" />
    <g
       id="g4425" />
    <g
       id="g4427" />
    <g
       id="g4429" />
    <g
       id="g4431" />
    <g
       id="g4433" />
    <g
       id="g4435" />
    <g
       id="g4437" />
    <g
       id="g4439" />
    <g
       id="g4441" />
    <g
       id="g4443" />
    <g
       id="g4445" />
    <g
       id="g4447" />
    <g
       id="g4449" />
    <g
       id="g4451" />
    <g
       id="g4453" />
    <g
       id="g4455" />
    <g
       id="g4457" />
    <g
       id="g4459" />
    <g
       id="g4461" />
    <g
       id="g4463" />
    <g
       id="g4465" />
    <g
       id="g4467" />
    <g
       id="g4469" />
    <g
       id="g4471" />
    <g
       id="g4473" />
    <g
       id="g4475" />
    <g
       id="g4477" />
    <g
       id="g4479" />
    <g
       id="g4481" />
    <g
       id="g4483" />
    <g
       id="g4485" />
    <g
       id="g4487" />
    <g
       id="g4489" />
    <g
       id="g4491" />
    <g
       id="g4493" />
    <g
       id="g4495" />
    <g
       id="g4497" />
    <g
       id="g4499" />
    <g
       id="g4501" />
    <g
       id="g4503" />
    <g
       id="g4505" />
    <g
       id="g4507" />
    <g
       id="g4509" />
    <g
       id="g4511" />
    <g
       id="g4513" />
    <g
       id="g4515" />
    <g
       id="g4517" />
    <g
       id="g4519" />
    <g
       id="g4521" />
    <g
       id="g4523" />
    <g
       id="g4525" />
    <g
       id="g4527" />
    <g
       id="g4529" />
    <g
       id="g4531" />
    <g
       id="g4533" />
    <g
       id="g4535" />
    <g
       id="g4537" />
    <g
       id="g4539" />
    <g
       id="g4541" />
    <g
       id="g4543" />
    <g
       id="g4545" />
    <g
       id="g4547" />
    <g
       id="g4549" />
    <g
       id="g4551" />
    <g
       id="g4553" />
    <g
       id="g4555" />
    <g
       id="g4557" />
    <g
       id="g4559" />
    <g
       id="g4561" />
    <g
       id="g4563" />
    <g
       id="g4565" />
    <g
       id="g4567" />
    <g
       id="g4569" />
    <g
       id="g4571" />
    <g
       id="g4573" />
    <g
       id="g4575" />
    <g
       id="g4577" />
    <g
       id="g4579" />
    <g
       id="g4581" />
    <g
       id="g4583" />
    <g
       id="g4585" />
    <g
       id="g4587" />
    <g
       id="g4589" />
    <g
       id="g4591" />
  </g>
  <g
     style="fill:#000000;fill-opacity:0;stroke:#000000;stroke-width:203200;stroke-linecap:round;stroke-linejoin:round;stroke-opacity:1"
     id="g7106"
     transform="translate(130386.69)">
    <path
       d="m 127581660,80070960 h 8897620"
       id="path7068" />
    <path
       d="M 127581660,100269040 V 92369640"
       id="path7070" />
    <path
       d="M 127581660,92369640 V 87970360"
       id="path7072" />
    <path
       d="m 136578340,80070960 v 20198080"
       id="path7074" />
    <path
       d="m 136578340,100269040 h -8996680"
       id="path7078" />
    <path
       d="M 127581660,87970360 V 80070960"
       id="path7082" />
    <path
       d="M 150314660,100523040 V 92623640"
       id="path7084" />
    <path
       d="m 159311340,100523040 h -8996680"
       id="path7086" />
    <path
       d="M 150314660,88224360 V 80324960"
       id="path7088" />
    <path
       d="m 150314660,80324960 h 8897620"
       id="path7094" />
    <path
       d="m 159311340,80324960 v 20198080"
       id="path7102" />
    <path
       d="M 150314660,92623640 V 88224360"
       id="path7104" />
  </g>
</svg>
