%TF.GenerationSoftware,KiCad,Pcbnew,(6.0.0-0)*%
%TF.CreationDate,2022-01-25T21:38:05+07:00*%
%TF.ProjectId,kibod-01,6b69626f-642d-4303-912e-6b696361645f,rev?*%
%TF.SameCoordinates,Original*%
%TF.FileFunction,Other,ECO2*%
%FSLAX46Y46*%
G04 Gerber Fmt 4.6, Leading zero omitted, Abs format (unit mm)*
G04 Created by KiCad (PCBNEW (6.0.0-0)) date 2022-01-25 21:38:05*
%MOMM*%
%LPD*%
G01*
G04 APERTURE LIST*
%ADD10C,0.100000*%
G04 APERTURE END LIST*
D10*
%TO.C,K-3-5*%
X150221394Y-83794550D02*
X164008703Y-86225625D01*
X164008703Y-86225625D02*
X161577628Y-100012934D01*
X161577628Y-100012934D02*
X147790319Y-97581859D01*
X147790319Y-97581859D02*
X150221394Y-83794550D01*
%TO.C,K-3-4*%
X129826840Y-81582986D02*
X143750147Y-83046385D01*
X143750147Y-83046385D02*
X142286748Y-96969692D01*
X142286748Y-96969692D02*
X128363441Y-95506293D01*
X128363441Y-95506293D02*
X129826840Y-81582986D01*
%TO.C,K-3-3*%
X109778845Y-80766307D02*
X123770316Y-81254900D01*
X123770316Y-81254900D02*
X123281723Y-95246371D01*
X123281723Y-95246371D02*
X109290252Y-94757778D01*
X109290252Y-94757778D02*
X109778845Y-80766307D01*
%TO.C,K-2-5*%
X129849511Y-60686339D02*
X143849511Y-60686339D01*
X143849511Y-60686339D02*
X143849511Y-74686339D01*
X143849511Y-74686339D02*
X129849511Y-74686339D01*
X129849511Y-74686339D02*
X129849511Y-60686339D01*
%TO.C,K-2-4*%
X108762679Y-58758987D02*
X122754150Y-58270394D01*
X122754150Y-58270394D02*
X123242743Y-72261865D01*
X123242743Y-72261865D02*
X109251272Y-72750458D01*
X109251272Y-72750458D02*
X108762679Y-58758987D01*
%TO.C,K-2-3*%
X86660986Y-58030328D02*
X100626883Y-57053737D01*
X100626883Y-57053737D02*
X101603474Y-71019634D01*
X101603474Y-71019634D02*
X87637577Y-71996225D01*
X87637577Y-71996225D02*
X86660986Y-58030328D01*
%TO.C,K-2-2*%
X64924211Y-62526043D02*
X78847518Y-61062644D01*
X78847518Y-61062644D02*
X80310917Y-74985951D01*
X80310917Y-74985951D02*
X66387610Y-76449350D01*
X66387610Y-76449350D02*
X64924211Y-62526043D01*
%TO.C,K-2-1*%
X44770851Y-77549058D02*
X58634604Y-75600635D01*
X58634604Y-75600635D02*
X60583027Y-89464388D01*
X60583027Y-89464388D02*
X46719274Y-91412811D01*
X46719274Y-91412811D02*
X44770851Y-77549058D01*
%TO.C,K-2-0*%
X23437607Y-81638041D02*
X37224916Y-79206966D01*
X37224916Y-79206966D02*
X39655991Y-92994275D01*
X39655991Y-92994275D02*
X25868682Y-95425350D01*
X25868682Y-95425350D02*
X23437607Y-81638041D01*
%TO.C,K-1-5*%
X129849511Y-41636339D02*
X143849511Y-41636339D01*
X143849511Y-41636339D02*
X143849511Y-55636339D01*
X143849511Y-55636339D02*
X129849511Y-55636339D01*
X129849511Y-55636339D02*
X129849511Y-41636339D01*
%TO.C,K-1-4*%
X108097844Y-39720592D02*
X122089315Y-39231999D01*
X122089315Y-39231999D02*
X122577908Y-53223470D01*
X122577908Y-53223470D02*
X108586437Y-53712063D01*
X108586437Y-53712063D02*
X108097844Y-39720592D01*
%TO.C,K-1-3*%
X85332125Y-39026732D02*
X99298022Y-38050141D01*
X99298022Y-38050141D02*
X100274613Y-52016038D01*
X100274613Y-52016038D02*
X86308716Y-52992629D01*
X86308716Y-52992629D02*
X85332125Y-39026732D01*
%TO.C,K-1-2*%
X62932943Y-43580403D02*
X76856250Y-42117004D01*
X76856250Y-42117004D02*
X78319649Y-56040311D01*
X78319649Y-56040311D02*
X64396342Y-57503710D01*
X64396342Y-57503710D02*
X62932943Y-43580403D01*
%TO.C,K-1-1*%
X42119601Y-58684451D02*
X55983354Y-56736028D01*
X55983354Y-56736028D02*
X57931777Y-70599781D01*
X57931777Y-70599781D02*
X44068024Y-72548204D01*
X44068024Y-72548204D02*
X42119601Y-58684451D01*
%TO.C,K-1-0*%
X20129609Y-62877453D02*
X33916918Y-60446378D01*
X33916918Y-60446378D02*
X36347993Y-74233687D01*
X36347993Y-74233687D02*
X22560684Y-76664762D01*
X22560684Y-76664762D02*
X20129609Y-62877453D01*
%TO.C,K-0-5*%
X129849511Y-22586339D02*
X143849511Y-22586339D01*
X143849511Y-22586339D02*
X143849511Y-36586339D01*
X143849511Y-36586339D02*
X129849511Y-36586339D01*
X129849511Y-36586339D02*
X129849511Y-22586339D01*
%TO.C,K-0-4*%
X107433009Y-20682197D02*
X121424480Y-20193604D01*
X121424480Y-20193604D02*
X121913073Y-34185075D01*
X121913073Y-34185075D02*
X107921602Y-34673668D01*
X107921602Y-34673668D02*
X107433009Y-20682197D01*
%TO.C,K-0-3*%
X84003265Y-20023138D02*
X97969162Y-19046547D01*
X97969162Y-19046547D02*
X98945753Y-33012444D01*
X98945753Y-33012444D02*
X84979856Y-33989035D01*
X84979856Y-33989035D02*
X84003265Y-20023138D01*
%TO.C,K-0-2*%
X60941678Y-24634760D02*
X74864985Y-23171361D01*
X74864985Y-23171361D02*
X76328384Y-37094668D01*
X76328384Y-37094668D02*
X62405077Y-38558067D01*
X62405077Y-38558067D02*
X60941678Y-24634760D01*
%TO.C,K-0-1*%
X39468356Y-39819845D02*
X53332109Y-37871422D01*
X53332109Y-37871422D02*
X55280532Y-51735175D01*
X55280532Y-51735175D02*
X41416779Y-53683598D01*
X41416779Y-53683598D02*
X39468356Y-39819845D01*
%TO.C,K-0-0*%
X16821612Y-44228222D02*
X30608921Y-41797147D01*
X30608921Y-41797147D02*
X33039996Y-55584456D01*
X33039996Y-55584456D02*
X19252687Y-58015531D01*
X19252687Y-58015531D02*
X16821612Y-44228222D01*
%TD*%
M02*
