M48
; DRILL file {KiCad (6.0.0-0)} date 2022 January 05, Wednesday 20:16:14
; FORMAT={-:-/ absolute / inch / decimal}
; #@! TF.CreationDate,2022-01-05T20:16:14+07:00
; #@! TF.GenerationSoftware,Kicad,Pcbnew,(6.0.0-0)
; #@! TF.FileFunction,NonPlated,1,2,NPTH
FMAT,2
INCH
; #@! TA.AperFunction,NonPlated,NPTH,ComponentDrill
T1C0.0591
; #@! TA.AperFunction,NonPlated,NPTH,ComponentDrill
T2C0.0709
; #@! TA.AperFunction,NonPlated,NPTH,ComponentDrill
T3C0.1570
%
G90
G05
T1
X6.2648Y-2.2143
X6.2648Y-2.3954
X6.5404Y-2.2143
X6.5404Y-2.3954
T2
X0.7846Y-1.9995
X0.9148Y-2.7338
X1.045Y-3.4724
X1.1785Y-1.9301
X1.3087Y-2.6643
X1.439Y-3.4029
X1.6671Y-1.8301
X1.7715Y-2.5728
X1.8758Y-3.3155
X2.0632Y-1.7744
X2.1676Y-2.5171
X2.2719Y-3.2598
X2.5033Y-1.2361
X2.5817Y-1.9819
X2.6601Y-2.7278
X2.9011Y-1.1942
X2.9795Y-1.9401
X3.0579Y-2.686
X3.4018Y-1.058
X3.4542Y-1.8061
X3.5065Y-2.5543
X3.8009Y-1.0301
X3.8532Y-1.7782
X3.9055Y-2.5264
X4.3148Y-1.087
X4.341Y-1.8366
X4.3672Y-2.5861
X4.3879Y-3.4578
X4.7146Y-1.0731
X4.7407Y-1.8226
X4.7669Y-2.5722
X4.7877Y-3.4718
X5.1577Y-3.4939
X5.1878Y-1.1648
X5.1878Y-1.9148
X5.1878Y-2.6648
X5.5555Y-3.5357
X5.5878Y-1.1648
X5.5878Y-1.9148
X5.5878Y-2.6648
X5.9408Y-3.5835
X6.3347Y-3.653
T3
X0.9815Y-1.9648
X1.1118Y-2.699
X1.242Y-3.423
X1.8651Y-1.8023
X1.9695Y-2.545
X2.0739Y-3.2877
X2.7022Y-1.2151
X2.7806Y-1.961
X2.859Y-2.7069
X3.6014Y-1.044
X3.6537Y-1.7922
X3.706Y-2.5404
X4.5147Y-1.0801
X4.5409Y-1.8296
X4.567Y-2.5792
X4.5878Y-3.4648
X5.3566Y-3.5148
X5.3878Y-1.1648
X5.3878Y-1.9148
X5.3878Y-2.6648
X6.1378Y-3.6183
T0
M30
