M48
; DRILL file {KiCad (6.0.0-0)} date 2022 January 05, Wednesday 19:55:04
; FORMAT={-:-/ absolute / inch / decimal}
; #@! TF.CreationDate,2022-01-05T19:55:04+07:00
; #@! TF.GenerationSoftware,Kicad,Pcbnew,(6.0.0-0)
; #@! TF.FileFunction,Plated,1,2,PTH
FMAT,2
INCH
; #@! TA.AperFunction,Plated,PTH,ViaDrill
T1C0.0157
; #@! TA.AperFunction,Plated,PTH,ComponentDrill
T2C0.0354
; #@! TA.AperFunction,Plated,PTH,ComponentDrill
T3C0.0390
; #@! TA.AperFunction,Plated,PTH,ComponentDrill
T4C0.0400
; #@! TA.AperFunction,Plated,PTH,ComponentDrill
T5C0.0430
; #@! TA.AperFunction,Plated,PTH,ComponentDrill
T6C0.0591
%
G90
G05
T1
X5.6878Y-2.2328
X5.7738Y-2.2788
X5.8839Y-3.0127
X5.9124Y-3.0528
X5.941Y-3.0868
X6.1393Y-1.6233
X6.1672Y-1.6511
X6.195Y-1.6789
X6.1955Y-2.019
X6.5638Y-2.4708
X6.5658Y-2.5108
X6.5678Y-2.5528
X6.5698Y-2.5928
T3
X1.2979Y-1.7671
X1.35Y-2.0625
X1.4239Y-2.5052
X1.476Y-2.8007
X1.546Y-3.2171
X1.5981Y-3.5125
X2.185Y-1.6345
X2.2268Y-1.9315
X2.2913Y-2.3702
X2.3331Y-2.6673
X2.3819Y-3.1129
X2.4236Y-3.41
X3.0221Y-1.0156
X3.0535Y-1.314
X3.0997Y-1.7656
X3.131Y-2.064
X3.1721Y-2.5156
X3.2035Y-2.814
X3.9273Y-0.8524
X3.9482Y-1.1516
X3.9773Y-1.6005
X3.9982Y-1.8998
X4.0273Y-2.3487
X4.0482Y-2.648
X4.8503Y-0.9128
X4.8607Y-1.2126
X4.8739Y-1.6623
X4.8843Y-1.9621
X4.9054Y-2.4618
X4.9158Y-2.7617
X4.9251Y-3.6252
X4.9355Y-3.3254
X5.6705Y-3.714
X5.7019Y-3.4156
X5.7378Y-1.0148
X5.7378Y-1.3148
X5.7378Y-1.7648
X5.7378Y-2.0648
X5.7378Y-2.5148
X5.7378Y-2.8148
X6.4357Y-3.8625
X6.4878Y-3.5671
T4
X6.0638Y-2.5783
X6.0638Y-2.6783
X6.0638Y-2.7783
X6.0638Y-2.8783
X6.0638Y-2.9783
X6.1638Y-2.5783
X6.1638Y-2.6783
X6.1638Y-2.7783
X6.1638Y-2.8783
X6.1638Y-2.9783
X6.3298Y-2.5783
X6.3298Y-2.6783
X6.3298Y-2.7783
X6.3298Y-2.8783
X6.3298Y-2.9783
X6.4298Y-2.5783
X6.4298Y-2.6783
X6.4298Y-2.7783
X6.4298Y-2.8783
X6.4298Y-2.9783
T5
X5.9378Y-0.8814
X5.9378Y-0.9814
X5.9378Y-1.0814
X5.9378Y-1.1814
X5.9378Y-1.2814
X5.9378Y-1.3814
X5.9378Y-1.4814
X5.9378Y-1.5814
X5.9378Y-1.6814
X5.9378Y-1.7814
X5.9378Y-1.8814
X5.9378Y-1.9814
X6.5378Y-0.8814
X6.5378Y-0.9814
X6.5378Y-1.0814
X6.5378Y-1.1814
X6.5378Y-1.2814
X6.5378Y-1.3814
X6.5378Y-1.4814
X6.5378Y-1.5814
X6.5378Y-1.6814
X6.5378Y-1.7814
X6.5378Y-1.8814
X6.5378Y-1.9814
T6
X0.8272Y-1.8613
X0.9574Y-2.5955
X1.0465Y-1.7619
X1.0876Y-3.3341
X1.1767Y-2.4961
X1.307Y-3.2347
X1.7145Y-1.6934
X1.8188Y-2.4361
X1.9232Y-3.1788
X1.9371Y-1.6017
X2.0415Y-2.3444
X2.1459Y-3.0871
X2.5554Y-1.1011
X2.6338Y-1.847
X2.7122Y-2.5929
X2.7811Y-1.0172
X2.8595Y-1.7631
X2.9379Y-2.509
X3.4586Y-0.9249
X3.511Y-1.6731
X3.5633Y-2.4213
X3.6872Y-0.849
X3.7395Y-1.5971
X3.7918Y-2.3453
X4.3762Y-0.9561
X4.4024Y-1.7056
X4.4286Y-2.4552
X4.4583Y-3.3315
X4.6073Y-0.8881
X4.6334Y-1.6377
X4.6596Y-2.3872
X4.6935Y-3.2798
X5.2367Y-3.3728
X5.2537Y-1.0361
X5.2537Y-1.7861
X5.2537Y-2.5361
X5.4749Y-3.3376
X5.487Y-0.9762
X5.487Y-1.7262
X5.487Y-2.4762
X6.0281Y-3.4682
X6.2682Y-3.4498
T2
G00X6.1703Y-2.1237
M15
G01X6.1467Y-2.1237
M16
G05
G00X6.1703Y-2.4859
M15
G01X6.1467Y-2.4859
M16
G05
G00X6.2136Y-2.3048
M15
G01X6.19Y-2.3048
M16
G05
G00X6.3711Y-2.3048
M15
G01X6.3474Y-2.3048
M16
G05
G00X6.4892Y-2.3048
M15
G01X6.4656Y-2.3048
M16
G05
T0
M30
