%TF.GenerationSoftware,KiCad,Pcbnew,(6.0.0-0)*%
%TF.CreationDate,2022-01-05T19:55:06+07:00*%
%TF.ProjectId,kibod-01,6b69626f-642d-4303-912e-6b696361645f,rev?*%
%TF.SameCoordinates,Original*%
%TF.FileFunction,Copper,L2,Bot*%
%TF.FilePolarity,Positive*%
%FSLAX46Y46*%
G04 Gerber Fmt 4.6, Leading zero omitted, Abs format (unit mm)*
G04 Created by KiCad (PCBNEW (6.0.0-0)) date 2022-01-05 19:55:06*
%MOMM*%
%LPD*%
G01*
G04 APERTURE LIST*
G04 Aperture macros list*
%AMRotRect*
0 Rectangle, with rotation*
0 The origin of the aperture is its center*
0 $1 length*
0 $2 width*
0 $3 Rotation angle, in degrees counterclockwise*
0 Add horizontal line*
21,1,$1,$2,0,0,$3*%
G04 Aperture macros list end*
%TA.AperFunction,ComponentPad*%
%ADD10RotRect,1.651000X1.651000X10.000000*%
%TD*%
%TA.AperFunction,ComponentPad*%
%ADD11C,1.651000*%
%TD*%
%TA.AperFunction,ComponentPad*%
%ADD12RotRect,1.651000X1.651000X8.000000*%
%TD*%
%TA.AperFunction,ComponentPad*%
%ADD13RotRect,1.651000X1.651000X6.000000*%
%TD*%
%TA.AperFunction,ComponentPad*%
%ADD14RotRect,1.651000X1.651000X4.000000*%
%TD*%
%TA.AperFunction,ComponentPad*%
%ADD15RotRect,1.651000X1.651000X2.000000*%
%TD*%
%TA.AperFunction,ComponentPad*%
%ADD16R,1.651000X1.651000*%
%TD*%
%TA.AperFunction,ComponentPad*%
%ADD17RotRect,1.651000X1.651000X358.000000*%
%TD*%
%TA.AperFunction,ComponentPad*%
%ADD18RotRect,1.651000X1.651000X354.000000*%
%TD*%
%TA.AperFunction,ComponentPad*%
%ADD19RotRect,1.651000X1.651000X350.000000*%
%TD*%
%TA.AperFunction,ComponentPad*%
%ADD20C,2.200000*%
%TD*%
%TA.AperFunction,ComponentPad*%
%ADD21C,1.879600*%
%TD*%
%TA.AperFunction,ComponentPad*%
%ADD22O,2.200000X1.600000*%
%TD*%
%TA.AperFunction,ComponentPad*%
%ADD23R,1.752600X1.752600*%
%TD*%
%TA.AperFunction,ComponentPad*%
%ADD24C,1.752600*%
%TD*%
%TA.AperFunction,ViaPad*%
%ADD25C,0.800000*%
%TD*%
%TA.AperFunction,Conductor*%
%ADD26C,0.250000*%
%TD*%
G04 APERTURE END LIST*
D10*
%TO.P,D-0-0,1*%
%TO.N,RL0*%
X34291111Y-52388457D03*
D11*
%TO.P,D-0-0,2*%
%TO.N,Net-(D-0-0-Pad2)*%
X32967911Y-44884221D03*
%TD*%
D12*
%TO.P,D-0-1,1*%
%TO.N,RL0*%
X56559761Y-49061067D03*
D11*
%TO.P,D-0-1,2*%
%TO.N,Net-(D-0-1-Pad2)*%
X55499261Y-41515225D03*
%TD*%
D13*
%TO.P,D-0-2,1*%
%TO.N,RL0*%
X77557764Y-33375467D03*
D11*
%TO.P,D-0-2,2*%
%TO.N,Net-(D-0-2-Pad2)*%
X76761258Y-25797211D03*
%TD*%
D14*
%TO.P,D-0-3,1*%
%TO.N,RL0*%
X100285283Y-29251659D03*
D11*
%TO.P,D-0-3,2*%
%TO.N,Net-(D-0-3-Pad2)*%
X99753739Y-21650221D03*
%TD*%
D15*
%TO.P,D-0-4,1*%
%TO.N,RL0*%
X123462478Y-30800167D03*
D11*
%TO.P,D-0-4,2*%
%TO.N,Net-(D-0-4-Pad2)*%
X123196544Y-23184809D03*
%TD*%
D16*
%TO.P,D-0-5,1*%
%TO.N,RL0*%
X145739511Y-33396339D03*
D11*
%TO.P,D-0-5,2*%
%TO.N,Net-(D-0-5-Pad2)*%
X145739511Y-25776339D03*
%TD*%
D10*
%TO.P,D-1-0,1*%
%TO.N,RL1*%
X37491111Y-71136787D03*
D11*
%TO.P,D-1-0,2*%
%TO.N,Net-(D-1-0-Pad2)*%
X36167911Y-63632551D03*
%TD*%
D12*
%TO.P,D-1-1,1*%
%TO.N,RL1*%
X59259761Y-67748925D03*
D11*
%TO.P,D-1-1,2*%
%TO.N,Net-(D-1-1-Pad2)*%
X58199261Y-60203083D03*
%TD*%
D13*
%TO.P,D-1-2,1*%
%TO.N,RL1*%
X79527764Y-52425467D03*
D11*
%TO.P,D-1-2,2*%
%TO.N,Net-(D-1-2-Pad2)*%
X78731258Y-44847211D03*
%TD*%
D14*
%TO.P,D-1-3,1*%
%TO.N,RL1*%
X101555283Y-48255254D03*
D11*
%TO.P,D-1-3,2*%
%TO.N,Net-(D-1-3-Pad2)*%
X101023739Y-40653816D03*
%TD*%
D15*
%TO.P,D-1-4,1*%
%TO.N,RL1*%
X124062478Y-49838563D03*
D11*
%TO.P,D-1-4,2*%
%TO.N,Net-(D-1-4-Pad2)*%
X123796544Y-42223205D03*
%TD*%
D16*
%TO.P,D-1-5,1*%
%TO.N,RL1*%
X145739511Y-52446339D03*
D11*
%TO.P,D-1-5,2*%
%TO.N,Net-(D-1-5-Pad2)*%
X145739511Y-44826339D03*
%TD*%
D10*
%TO.P,D-2-0,1*%
%TO.N,RL2*%
X40591111Y-89218457D03*
D11*
%TO.P,D-2-0,2*%
%TO.N,Net-(D-2-0-Pad2)*%
X39267911Y-81714221D03*
%TD*%
D12*
%TO.P,D-2-1,1*%
%TO.N,RL2*%
X61559761Y-86613532D03*
D11*
%TO.P,D-2-1,2*%
%TO.N,Net-(D-2-1-Pad2)*%
X60499261Y-79067690D03*
%TD*%
D13*
%TO.P,D-2-2,1*%
%TO.N,RL2*%
X81367764Y-71475467D03*
D11*
%TO.P,D-2-2,2*%
%TO.N,Net-(D-2-2-Pad2)*%
X80571258Y-63897211D03*
%TD*%
D14*
%TO.P,D-2-3,1*%
%TO.N,RL2*%
X102825283Y-67258849D03*
D11*
%TO.P,D-2-3,2*%
%TO.N,Net-(D-2-3-Pad2)*%
X102293739Y-59657411D03*
%TD*%
D15*
%TO.P,D-2-4,1*%
%TO.N,RL2*%
X124862478Y-70146184D03*
D11*
%TO.P,D-2-4,2*%
%TO.N,Net-(D-2-4-Pad2)*%
X124596544Y-62530826D03*
%TD*%
D16*
%TO.P,D-2-5,1*%
%TO.N,RL2*%
X145739511Y-71496339D03*
D11*
%TO.P,D-2-5,2*%
%TO.N,Net-(D-2-5-Pad2)*%
X145739511Y-63876339D03*
%TD*%
D17*
%TO.P,D-3-3,1*%
%TO.N,RL3*%
X125096544Y-92079952D03*
D11*
%TO.P,D-3-3,2*%
%TO.N,Net-(D-3-3-Pad2)*%
X125362478Y-84464594D03*
%TD*%
D18*
%TO.P,D-3-4,1*%
%TO.N,RL3*%
X144031258Y-94335467D03*
D11*
%TO.P,D-3-4,2*%
%TO.N,Net-(D-3-4-Pad2)*%
X144827764Y-86757211D03*
%TD*%
D19*
%TO.P,D-3-5,1*%
%TO.N,RL3*%
X163467911Y-98108457D03*
D11*
%TO.P,D-3-5,2*%
%TO.N,Net-(D-3-5-Pad2)*%
X164791111Y-90604221D03*
%TD*%
D20*
%TO.P,K-0-0,2*%
%TO.N,Net-(D-0-0-Pad2)*%
X26580745Y-44751516D03*
%TO.P,K-0-0,1*%
%TO.N,CL0*%
X21009704Y-47277290D03*
%TD*%
%TO.P,K-0-1,2*%
%TO.N,Net-(D-0-1-Pad2)*%
X49203280Y-40683410D03*
%TO.P,K-0-1,1*%
%TO.N,CL1*%
X43547485Y-43013218D03*
%TD*%
%TO.P,K-0-2,2*%
%TO.N,Net-(D-0-2-Pad2)*%
X70640535Y-25837542D03*
%TO.P,K-0-2,1*%
%TO.N,CL2*%
X64906876Y-27968547D03*
%TD*%
%TO.P,K-0-3,2*%
%TO.N,Net-(D-0-3-Pad2)*%
X93654237Y-21563673D03*
%TO.P,K-0-3,1*%
%TO.N,CL3*%
X87849700Y-23493277D03*
%TD*%
%TO.P,K-0-4,2*%
%TO.N,Net-(D-0-4-Pad2)*%
X117024337Y-22558607D03*
%TO.P,K-0-4,1*%
%TO.N,CL4*%
X111155994Y-24284461D03*
%TD*%
%TO.P,K-0-5,2*%
%TO.N,Net-(D-0-5-Pad2)*%
X139369511Y-24796339D03*
%TO.P,K-0-5,1*%
%TO.N,CL5*%
X133444511Y-26316339D03*
%TD*%
%TO.P,K-1-0,2*%
%TO.N,Net-(D-1-0-Pad2)*%
X29888742Y-63400747D03*
%TO.P,K-1-0,1*%
%TO.N,CL0*%
X24317701Y-65926521D03*
%TD*%
%TO.P,K-1-1,2*%
%TO.N,Net-(D-1-1-Pad2)*%
X51854525Y-59548016D03*
%TO.P,K-1-1,1*%
%TO.N,CL1*%
X46198730Y-61877824D03*
%TD*%
%TO.P,K-1-2,2*%
%TO.N,Net-(D-1-2-Pad2)*%
X72631800Y-44783185D03*
%TO.P,K-1-2,1*%
%TO.N,CL2*%
X66898141Y-46914190D03*
%TD*%
%TO.P,K-1-3,2*%
%TO.N,Net-(D-1-3-Pad2)*%
X94983097Y-40567267D03*
%TO.P,K-1-3,1*%
%TO.N,CL3*%
X89178560Y-42496871D03*
%TD*%
%TO.P,K-1-4,2*%
%TO.N,Net-(D-1-4-Pad2)*%
X117689172Y-41597002D03*
%TO.P,K-1-4,1*%
%TO.N,CL4*%
X111820829Y-43322856D03*
%TD*%
%TO.P,K-1-5,2*%
%TO.N,Net-(D-1-5-Pad2)*%
X139369511Y-43846339D03*
%TO.P,K-1-5,1*%
%TO.N,CL5*%
X133444511Y-45366339D03*
%TD*%
%TO.P,K-2-0,2*%
%TO.N,Net-(D-2-0-Pad2)*%
X33196740Y-82161335D03*
%TO.P,K-2-0,1*%
%TO.N,CL0*%
X27625699Y-84687109D03*
%TD*%
%TO.P,K-2-1,2*%
%TO.N,Net-(D-2-1-Pad2)*%
X54505775Y-78412623D03*
%TO.P,K-2-1,1*%
%TO.N,CL1*%
X48849980Y-80742431D03*
%TD*%
%TO.P,K-2-2,2*%
%TO.N,Net-(D-2-2-Pad2)*%
X74623068Y-63728825D03*
%TO.P,K-2-2,1*%
%TO.N,CL2*%
X68889409Y-65859830D03*
%TD*%
%TO.P,K-2-3,2*%
%TO.N,Net-(D-2-3-Pad2)*%
X96311958Y-59570863D03*
%TO.P,K-2-3,1*%
%TO.N,CL3*%
X90507421Y-61500467D03*
%TD*%
%TO.P,K-2-4,2*%
%TO.N,Net-(D-2-4-Pad2)*%
X118354007Y-60635397D03*
%TO.P,K-2-4,1*%
%TO.N,CL4*%
X112485664Y-62361251D03*
%TD*%
%TO.P,K-2-5,2*%
%TO.N,Net-(D-2-5-Pad2)*%
X139369511Y-62896339D03*
%TO.P,K-2-5,1*%
%TO.N,CL5*%
X133444511Y-64416339D03*
%TD*%
%TO.P,K-3-3,2*%
%TO.N,Net-(D-3-3-Pad2)*%
X119215917Y-83307204D03*
%TO.P,K-3-3,1*%
%TO.N,CL3*%
X113241480Y-84619498D03*
%TD*%
%TO.P,K-3-4,2*%
%TO.N,Net-(D-3-4-Pad2)*%
X139063681Y-84775991D03*
%TO.P,K-3-4,1*%
%TO.N,CL4*%
X133012255Y-85668333D03*
%TD*%
%TO.P,K-3-5,2*%
%TO.N,Net-(D-3-5-Pad2)*%
X159213001Y-87624106D03*
%TO.P,K-3-5,1*%
%TO.N,CL5*%
X153114070Y-88092149D03*
%TD*%
D21*
%TO.P,J1,1,Pin_1*%
%TO.N,CL5*%
X154019911Y-65488570D03*
%TO.P,J1,2,Pin_2*%
%TO.N,RC3*%
X156559911Y-65488570D03*
%TO.P,J1,3,Pin_3*%
%TO.N,CL4*%
X154019911Y-68028570D03*
%TO.P,J1,4,Pin_4*%
%TO.N,RC2*%
X156559911Y-68028570D03*
%TO.P,J1,5,Pin_5*%
%TO.N,CL3*%
X154019911Y-70568570D03*
%TO.P,J1,6,Pin_6*%
%TO.N,RC1*%
X156559911Y-70568570D03*
%TO.P,J1,7,Pin_7*%
%TO.N,CL2*%
X154019911Y-73108570D03*
%TO.P,J1,8,Pin_8*%
%TO.N,RC0*%
X156559911Y-73108570D03*
%TO.P,J1,9,Pin_9*%
%TO.N,CL1*%
X154019911Y-75648570D03*
%TO.P,J1,10,Pin_10*%
%TO.N,CL0*%
X156559911Y-75648570D03*
%TD*%
D22*
%TO.P,U2,4,RING2*%
%TO.N,unconnected-(U2-Pad4)*%
X164525111Y-58542339D03*
%TO.P,U2,3,RING1*%
%TO.N,GND*%
X161525111Y-58542339D03*
%TO.P,U2,2,TIP*%
%TO.N,VCC*%
X157525111Y-58542339D03*
%TO.P,U2,1,SLEEVE*%
%TO.N,SDA*%
X156425111Y-63142339D03*
X156425111Y-53942339D03*
%TD*%
D23*
%TO.P,U1,1,TX*%
%TO.N,unconnected-(U1-Pad1)*%
X166059511Y-22386339D03*
D24*
%TO.P,U1,2,RX*%
%TO.N,unconnected-(U1-Pad2)*%
X166059511Y-24926339D03*
%TO.P,U1,3,GND*%
%TO.N,GND*%
X166059511Y-27466339D03*
%TO.P,U1,4,GND*%
X166059511Y-30006339D03*
%TO.P,U1,5,SDA*%
%TO.N,SDA*%
X166059511Y-32546339D03*
%TO.P,U1,6,SCL*%
%TO.N,unconnected-(U1-Pad6)*%
X166059511Y-35086339D03*
%TO.P,U1,7,D4*%
%TO.N,CL0*%
X166059511Y-37626339D03*
%TO.P,U1,8,C6*%
%TO.N,CL1*%
X166059511Y-40166339D03*
%TO.P,U1,9,D7*%
%TO.N,CL2*%
X166059511Y-42706339D03*
%TO.P,U1,10,E6*%
%TO.N,CL3*%
X166059511Y-45246339D03*
%TO.P,U1,11,B4*%
%TO.N,CL4*%
X166059511Y-47786339D03*
%TO.P,U1,12,B5*%
%TO.N,CL5*%
X166059511Y-50326339D03*
%TO.P,U1,13,B6*%
%TO.N,RC3*%
X150819511Y-50326339D03*
%TO.P,U1,14,B2*%
%TO.N,RC2*%
X150819511Y-47786339D03*
%TO.P,U1,15,B3*%
%TO.N,RC1*%
X150819511Y-45246339D03*
%TO.P,U1,16,B1*%
%TO.N,RC0*%
X150819511Y-42706339D03*
%TO.P,U1,17,F7*%
%TO.N,RL3*%
X150819511Y-40166339D03*
%TO.P,U1,18,F6*%
%TO.N,RL2*%
X150819511Y-37626339D03*
%TO.P,U1,19,F5*%
%TO.N,RL1*%
X150819511Y-35086339D03*
%TO.P,U1,20,F4*%
%TO.N,RL0*%
X150819511Y-32546339D03*
%TO.P,U1,21,VCC*%
%TO.N,VCC*%
X150819511Y-30006339D03*
%TO.P,U1,22,RST*%
%TO.N,unconnected-(U1-Pad22)*%
X150819511Y-27466339D03*
%TO.P,U1,23,GND*%
%TO.N,GND*%
X150819511Y-24926339D03*
%TO.P,U1,24,RAW*%
%TO.N,unconnected-(U1-Pad24)*%
X150819511Y-22386339D03*
%TD*%
D21*
%TO.P,J2,1,Pin_1*%
%TO.N,CL5*%
X163316311Y-65488570D03*
%TO.P,J2,2,Pin_2*%
%TO.N,RL3*%
X160776311Y-65488570D03*
%TO.P,J2,3,Pin_3*%
%TO.N,CL4*%
X163316311Y-68028570D03*
%TO.P,J2,4,Pin_4*%
%TO.N,RL2*%
X160776311Y-68028570D03*
%TO.P,J2,5,Pin_5*%
%TO.N,CL3*%
X163316311Y-70568570D03*
%TO.P,J2,6,Pin_6*%
%TO.N,RL1*%
X160776311Y-70568570D03*
%TO.P,J2,7,Pin_7*%
%TO.N,CL2*%
X163316311Y-73108570D03*
%TO.P,J2,8,Pin_8*%
%TO.N,RL0*%
X160776311Y-73108570D03*
%TO.P,J2,9,Pin_9*%
%TO.N,CL1*%
X163316311Y-75648570D03*
%TO.P,J2,10,Pin_10*%
%TO.N,CL0*%
X160776311Y-75648570D03*
%TD*%
D25*
%TO.N,RL0*%
X166719911Y-62758739D03*
X150900324Y-78405139D03*
X144469511Y-56713539D03*
%TO.N,GND*%
X156645967Y-41937393D03*
%TO.N,SDA*%
X157365174Y-51283091D03*
X157352722Y-42644148D03*
%TO.N,VCC*%
X155939212Y-41230638D03*
%TO.N,RL1*%
X150175824Y-77541539D03*
X166770711Y-63774739D03*
X146653911Y-57881939D03*
%TO.N,RL2*%
X149451324Y-76522126D03*
X166821511Y-64841539D03*
%TO.N,RL3*%
X166872311Y-65857539D03*
%TD*%
D26*
%TO.N,RL1*%
X145739511Y-52446339D02*
X147854845Y-52446339D01*
X147854845Y-52446339D02*
X148719660Y-51581524D01*
X148719660Y-51581524D02*
X148719660Y-37186190D01*
X148719660Y-37186190D02*
X150819511Y-35086339D01*
%TO.N,RL2*%
X145739511Y-71496339D02*
X147009511Y-71496339D01*
X147009511Y-71496339D02*
X148249501Y-70256349D01*
X149169180Y-39276670D02*
X150819511Y-37626339D01*
X148249501Y-70256349D02*
X148249501Y-52687401D01*
X149169180Y-51767722D02*
X149169180Y-39276670D01*
X148249501Y-52687401D02*
X149169180Y-51767722D01*
%TO.N,RL3*%
X150886547Y-81741703D02*
X148699511Y-79554667D01*
X148699511Y-79554667D02*
X148699511Y-52873108D01*
X148699511Y-52873108D02*
X149618700Y-51953918D01*
X149618700Y-51953918D02*
X149618700Y-41367150D01*
X149618700Y-41367150D02*
X150819511Y-40166339D01*
%TO.N,RC3*%
X156559911Y-65488570D02*
X159174742Y-68103401D01*
X159174742Y-68103401D02*
X159174742Y-76814875D01*
X159174742Y-76814875D02*
X157276209Y-78713408D01*
X149155034Y-53053302D02*
X150819511Y-51388825D01*
X157276209Y-78713408D02*
X152667208Y-78713409D01*
X150819511Y-51388825D02*
X150819511Y-50326339D01*
X152667208Y-78713409D02*
X149155034Y-75201239D01*
X149155034Y-75201239D02*
X149155034Y-53053302D01*
%TO.N,CL0*%
X156559911Y-75648570D02*
X155295110Y-76913371D01*
X155295110Y-76913371D02*
X153412806Y-76913371D01*
X153412806Y-76913371D02*
X150955070Y-74455635D01*
X150955070Y-74455635D02*
X150955070Y-53796138D01*
X156141629Y-48162034D02*
X163113730Y-48162034D01*
X150955070Y-53796138D02*
X153368882Y-51382326D01*
X153368882Y-51382326D02*
X153368882Y-50934781D01*
X153368882Y-50934781D02*
X156141629Y-48162034D01*
X163395840Y-47879924D02*
X163395840Y-40290010D01*
X163395840Y-40290010D02*
X166059511Y-37626339D01*
X163113730Y-48162034D02*
X163395840Y-47879924D01*
%TO.N,CL2*%
X154019911Y-73108570D02*
X151855090Y-70943749D01*
X164294880Y-44470970D02*
X166059511Y-42706339D01*
X151855090Y-70943749D02*
X151855090Y-54167553D01*
X156489238Y-49085859D02*
X163461341Y-49085859D01*
X164294880Y-48252320D02*
X164294880Y-44470970D01*
X151855090Y-54167553D02*
X154267922Y-51754720D01*
X154267922Y-51754720D02*
X154267922Y-51307175D01*
X154267922Y-51307175D02*
X156489238Y-49085859D01*
X163461341Y-49085859D02*
X164294880Y-48252320D01*
%TO.N,CL1*%
X154019911Y-75648570D02*
X151405080Y-73033739D01*
X151405080Y-73033739D02*
X151405080Y-53981845D01*
X151405080Y-53981845D02*
X153818402Y-51568522D01*
X163275143Y-48636339D02*
X163845360Y-48066122D01*
X153818402Y-51568522D02*
X153818402Y-51120978D01*
X153818402Y-51120978D02*
X156303041Y-48636339D01*
X156303041Y-48636339D02*
X163275143Y-48636339D01*
X163845360Y-48066122D02*
X163845360Y-42380490D01*
X163845360Y-42380490D02*
X166059511Y-40166339D01*
%TO.N,CL3*%
X162242141Y-49593859D02*
X162386343Y-49593859D01*
X161581431Y-49593859D02*
X162242141Y-49593859D01*
X162242141Y-49593859D02*
X163616273Y-49593859D01*
X163616273Y-49593859D02*
X164744400Y-48465732D01*
X164744400Y-48465732D02*
X164744400Y-46561450D01*
X164744400Y-46561450D02*
X166059511Y-45246339D01*
X166059511Y-45246339D02*
X165331850Y-45974000D01*
%TO.N,RL3*%
X150886547Y-81741703D02*
X151029783Y-81884939D01*
X151029783Y-81884939D02*
X161846359Y-81884939D01*
X161846359Y-81884939D02*
X166597320Y-77133977D01*
X166597320Y-77133977D02*
X166597320Y-66132530D01*
X166597320Y-66132530D02*
X166872311Y-65857539D01*
%TO.N,RL0*%
X165248760Y-76575384D02*
X161328525Y-80495619D01*
X145739511Y-33396339D02*
X149969511Y-33396339D01*
X151547617Y-80495619D02*
X150900324Y-79848326D01*
X161328525Y-80495619D02*
X151547617Y-80495619D01*
X145739511Y-33396339D02*
X144469511Y-34666339D01*
X149969511Y-33396339D02*
X150819511Y-32546339D01*
X144469511Y-56713539D02*
X144469511Y-34666339D01*
X166719911Y-62758739D02*
X165248760Y-64229890D01*
X165248760Y-64229890D02*
X165248760Y-76575384D01*
X150900324Y-79848326D02*
X150900324Y-78405139D01*
%TO.N,GND*%
X156663723Y-26896151D02*
X156663723Y-41919637D01*
X154693911Y-24926339D02*
X156663723Y-26896151D01*
X156663723Y-41919637D02*
X156645967Y-41937393D01*
X150819511Y-24926339D02*
X154693911Y-24926339D01*
X150819511Y-24926339D02*
X163519511Y-24926339D01*
X163519511Y-24926339D02*
X166059511Y-27466339D01*
X166059511Y-27466339D02*
X166059511Y-30006339D01*
%TO.N,SDA*%
X156425111Y-52223154D02*
X157365174Y-51283091D01*
X156074711Y-53942339D02*
X156074711Y-62791939D01*
X159035511Y-32546339D02*
X166059511Y-32546339D01*
X156425111Y-53942339D02*
X156425111Y-52223154D01*
X157370478Y-34211372D02*
X159035511Y-32546339D01*
X157352722Y-42644148D02*
X157370478Y-42626392D01*
X157370478Y-42626392D02*
X157370478Y-34211372D01*
%TO.N,VCC*%
X154158711Y-30006339D02*
X150819511Y-30006339D01*
X155939212Y-31786840D02*
X154158711Y-30006339D01*
X155939212Y-41230638D02*
X155939212Y-31786840D01*
%TO.N,RL1*%
X150175824Y-79759544D02*
X151361419Y-80945139D01*
X161514723Y-80945139D02*
X165698280Y-76761582D01*
X150175824Y-77541539D02*
X150175824Y-79759544D01*
X145739511Y-56967539D02*
X146653911Y-57881939D01*
X151361419Y-80945139D02*
X161514723Y-80945139D01*
X145739511Y-52446339D02*
X145739511Y-56967539D01*
X165698280Y-64847170D02*
X166770711Y-63774739D01*
X165698280Y-76761582D02*
X165698280Y-64847170D01*
%TO.N,RL2*%
X166147800Y-65515250D02*
X166821511Y-64841539D01*
X149451324Y-76522126D02*
X149451324Y-79670762D01*
X161700920Y-81394659D02*
X166147800Y-76947779D01*
X166147800Y-76947780D02*
X166147800Y-65515250D01*
X151175221Y-81394659D02*
X161700920Y-81394659D01*
X149451324Y-79670762D02*
X151175221Y-81394659D01*
%TO.N,RL3*%
X154557399Y-85394227D02*
X155035911Y-85872739D01*
X154539071Y-85394227D02*
X154557399Y-85394227D01*
X149395832Y-94335467D02*
X144031258Y-94335467D01*
X155035911Y-85872739D02*
X155035911Y-88695387D01*
X150886547Y-81741703D02*
X154539071Y-85394227D01*
X155035911Y-88695387D02*
X149395832Y-94335467D01*
%TO.N,CL0*%
X24317701Y-68706424D02*
X27625699Y-72014422D01*
X21009704Y-47277290D02*
X21009704Y-50057193D01*
X21009704Y-50057193D02*
X24317701Y-53365190D01*
X24317701Y-65926521D02*
X24317701Y-68706424D01*
X27625699Y-72014422D02*
X27625699Y-84687109D01*
X24317701Y-53365190D02*
X24317701Y-65926521D01*
%TO.N,CL1*%
X46198730Y-64739716D02*
X48849980Y-67390966D01*
X43547485Y-45875110D02*
X46679511Y-49007136D01*
X43547485Y-43013218D02*
X43547485Y-45875110D01*
X46198730Y-61877824D02*
X46198730Y-64739716D01*
X48849980Y-67390966D02*
X48849980Y-80742431D01*
X46679511Y-49007136D02*
X46679511Y-61397043D01*
%TO.N,RC0*%
X157824712Y-74373371D02*
X157824712Y-76255675D01*
X152919362Y-51196128D02*
X152919362Y-44806190D01*
X152919362Y-44806190D02*
X150819511Y-42706339D01*
X150505061Y-53610429D02*
X152919362Y-51196128D01*
X150505061Y-74642036D02*
X150505061Y-53610429D01*
X156559911Y-73108570D02*
X157824712Y-74373371D01*
X157824712Y-76255675D02*
X156717006Y-77363381D01*
X153226406Y-77363381D02*
X150505061Y-74642036D01*
X156717006Y-77363381D02*
X153226406Y-77363381D01*
%TO.N,CL2*%
X64906876Y-27968547D02*
X64906876Y-44922925D01*
X64906876Y-44922925D02*
X66898141Y-46914190D01*
X66898141Y-46914190D02*
X66898141Y-63868562D01*
X66898141Y-63868562D02*
X68889409Y-65859830D01*
%TO.N,RC1*%
X152469842Y-46896670D02*
X150819511Y-45246339D01*
X150054563Y-64279791D02*
X150054563Y-53425209D01*
X153040006Y-77813391D02*
X156903407Y-77813390D01*
X150054563Y-53425209D02*
X152469842Y-51009930D01*
X158274722Y-72283381D02*
X156559911Y-70568570D01*
X158274722Y-76442075D02*
X158274722Y-72283381D01*
X150055052Y-74828437D02*
X153040006Y-77813391D01*
X150054563Y-64279791D02*
X150055052Y-64280280D01*
X152469842Y-51009930D02*
X152469842Y-46896670D01*
X156903407Y-77813390D02*
X158274722Y-76442075D01*
X150055051Y-74828437D02*
X150055052Y-64280280D01*
%TO.N,CL3*%
X87849700Y-41168011D02*
X89178560Y-42496871D01*
X154019911Y-70568570D02*
X152305100Y-68853759D01*
X87849700Y-23493277D02*
X87849700Y-41168011D01*
X152305100Y-54353260D02*
X154717442Y-51940918D01*
X113241480Y-80202257D02*
X94539690Y-61500467D01*
X89178560Y-60171606D02*
X90507421Y-61500467D01*
X166059511Y-45920691D02*
X166059511Y-45246339D01*
X94539690Y-61500467D02*
X90507421Y-61500467D01*
X156616955Y-49593859D02*
X161581431Y-49593859D01*
X154717442Y-51940918D02*
X154717442Y-51493372D01*
X113241480Y-84619498D02*
X113241480Y-80202257D01*
X89178560Y-42496871D02*
X89178560Y-60171606D01*
X154717442Y-51493372D02*
X156616955Y-49593859D01*
X152305100Y-68853759D02*
X152305100Y-54353260D01*
%TO.N,RC2*%
X158724732Y-76628475D02*
X157089808Y-78263399D01*
X157089808Y-78263399D02*
X152853607Y-78263400D01*
X152020322Y-48987150D02*
X150819511Y-47786339D01*
X158724732Y-70193391D02*
X158724732Y-76628475D01*
X149605043Y-53239011D02*
X152020322Y-50823732D01*
X152853607Y-78263400D02*
X149605043Y-75014838D01*
X149605043Y-75014838D02*
X149605043Y-53239011D01*
X152020322Y-50823732D02*
X152020322Y-48987150D01*
X156559911Y-68028570D02*
X158724732Y-70193391D01*
%TO.N,CL4*%
X152755600Y-56301450D02*
X152755600Y-66764258D01*
X166059511Y-47786339D02*
X163802471Y-50043379D01*
X152755600Y-66764258D02*
X154019911Y-68028570D01*
X155166962Y-51679570D02*
X155166962Y-52127116D01*
X152754620Y-54539458D02*
X152754620Y-56300470D01*
X152754620Y-56300470D02*
X152755600Y-56301450D01*
X112485664Y-62361251D02*
X112485664Y-65425353D01*
X111155994Y-24284461D02*
X111155994Y-42658021D01*
X155166962Y-52127116D02*
X152754620Y-54539458D01*
X163802471Y-50043379D02*
X156803153Y-50043379D01*
X156803153Y-50043379D02*
X155166962Y-51679570D01*
X112485664Y-65425353D02*
X132728644Y-85668333D01*
X111820829Y-43322856D02*
X111820829Y-61696416D01*
%TO.N,CL5*%
X156923659Y-50558591D02*
X155620497Y-51861753D01*
X153205120Y-64673779D02*
X154019911Y-65488570D01*
X133444511Y-64416339D02*
X133444511Y-67713313D01*
X133444511Y-45366339D02*
X133444511Y-64416339D01*
X165827259Y-50558591D02*
X156923659Y-50558591D01*
X153205120Y-54724676D02*
X153205120Y-64673779D01*
X155620497Y-51861753D02*
X155620497Y-52309299D01*
X155620497Y-52309299D02*
X153205120Y-54724676D01*
X133444511Y-67713313D02*
X153114070Y-87382872D01*
X133444511Y-26316339D02*
X133444511Y-45366339D01*
%TD*%
M02*
