%TF.GenerationSoftware,KiCad,Pcbnew,(6.0.0-0)*%
%TF.CreationDate,2022-01-05T20:16:17+07:00*%
%TF.ProjectId,kibod-01,6b69626f-642d-4303-912e-6b696361645f,rev?*%
%TF.SameCoordinates,Original*%
%TF.FileFunction,Legend,Top*%
%TF.FilePolarity,Positive*%
%FSLAX46Y46*%
G04 Gerber Fmt 4.6, Leading zero omitted, Abs format (unit mm)*
G04 Created by KiCad (PCBNEW (6.0.0-0)) date 2022-01-05 20:16:17*
%MOMM*%
%LPD*%
G01*
G04 APERTURE LIST*
%ADD10C,0.150000*%
%ADD11C,0.127000*%
%ADD12C,0.203200*%
%ADD13C,0.381000*%
%ADD14R,1.752600X1.752600*%
%ADD15C,1.752600*%
G04 APERTURE END LIST*
D10*
X77311997Y-93892862D02*
X77416525Y-92898340D01*
X77880295Y-93952592D02*
X77513802Y-93339496D01*
X77984823Y-92958070D02*
X77356795Y-93466638D01*
X78306519Y-93997390D02*
X78376204Y-93334375D01*
X78411047Y-93002868D02*
X78358711Y-93045249D01*
X78401092Y-93097585D01*
X78453428Y-93055204D01*
X78411047Y-93002868D01*
X78401092Y-93097585D01*
X78780101Y-94047166D02*
X78884629Y-93052644D01*
X78844809Y-93431509D02*
X78944503Y-93394106D01*
X79133935Y-93414016D01*
X79223674Y-93471329D01*
X79266055Y-93523665D01*
X79303458Y-93623359D01*
X79273593Y-93907508D01*
X79216279Y-93997247D01*
X79163944Y-94039628D01*
X79064250Y-94077031D01*
X78874817Y-94057121D01*
X78785078Y-93999807D01*
X79821981Y-94156672D02*
X79732242Y-94099358D01*
X79689861Y-94047023D01*
X79652458Y-93947329D01*
X79682323Y-93663179D01*
X79739637Y-93573441D01*
X79791972Y-93531060D01*
X79891666Y-93493657D01*
X80033741Y-93508590D01*
X80123480Y-93565903D01*
X80165860Y-93618239D01*
X80203263Y-93717932D01*
X80173398Y-94002082D01*
X80116085Y-94091820D01*
X80063749Y-94134201D01*
X79964055Y-94171604D01*
X79821981Y-94156672D01*
X81005935Y-94281110D02*
X81110464Y-93286588D01*
X81010913Y-94233752D02*
X80911219Y-94271155D01*
X80721786Y-94251245D01*
X80632047Y-94193932D01*
X80589667Y-94141596D01*
X80552264Y-94041902D01*
X80582129Y-93757753D01*
X80639442Y-93668014D01*
X80691778Y-93625633D01*
X80791472Y-93588230D01*
X80980905Y-93608140D01*
X81070643Y-93665454D01*
X81519337Y-93952020D02*
X82277068Y-94031661D01*
X83004791Y-93485690D02*
X83099507Y-93495645D01*
X83189246Y-93552958D01*
X83231627Y-93605294D01*
X83269030Y-93704988D01*
X83296478Y-93899398D01*
X83271590Y-94136189D01*
X83204322Y-94320645D01*
X83147009Y-94410383D01*
X83094673Y-94452764D01*
X82994979Y-94490167D01*
X82900263Y-94480212D01*
X82810524Y-94422899D01*
X82768143Y-94370563D01*
X82730740Y-94270869D01*
X82703292Y-94076459D01*
X82728180Y-93839668D01*
X82795448Y-93655213D01*
X82852761Y-93565474D01*
X82905097Y-93523093D01*
X83004791Y-93485690D01*
X84178934Y-94614606D02*
X83610635Y-94554875D01*
X83894785Y-94584740D02*
X83999313Y-93590219D01*
X83889664Y-93722338D01*
X83784993Y-93807099D01*
X83685299Y-93844502D01*
X85362888Y-94739044D02*
X85467417Y-93744522D01*
X85427596Y-94123388D02*
X85527290Y-94085985D01*
X85716723Y-94105895D01*
X85806462Y-94163208D01*
X85848843Y-94215544D01*
X85886246Y-94315238D01*
X85856380Y-94599387D01*
X85799067Y-94689126D01*
X85746731Y-94731507D01*
X85647037Y-94768910D01*
X85457605Y-94748999D01*
X85367866Y-94691686D01*
X86237663Y-94160648D02*
X86404768Y-94848550D01*
X86711245Y-94210424D02*
X86404768Y-94848550D01*
X86285164Y-95075386D01*
X86232829Y-95117767D01*
X86133135Y-95155170D01*
X87778156Y-94992899D02*
X87882684Y-93998377D01*
X88139528Y-94743593D01*
X88545699Y-94068063D01*
X88441170Y-95062585D01*
X88914752Y-95112360D02*
X88984438Y-94449346D01*
X89019281Y-94117838D02*
X88966945Y-94160219D01*
X89009326Y-94212555D01*
X89061661Y-94170174D01*
X89019281Y-94117838D01*
X89009326Y-94212555D01*
X89819535Y-95159576D02*
X89719841Y-95196979D01*
X89530409Y-95177068D01*
X89440670Y-95119755D01*
X89398289Y-95067419D01*
X89360886Y-94967726D01*
X89390751Y-94683576D01*
X89448065Y-94593838D01*
X89500400Y-94551457D01*
X89600094Y-94514054D01*
X89789527Y-94533964D01*
X89879266Y-94591277D01*
X90240781Y-95251732D02*
X90345310Y-94257210D01*
X90667005Y-95296530D02*
X90721758Y-94775589D01*
X90684355Y-94675896D01*
X90594616Y-94618582D01*
X90452542Y-94603650D01*
X90352848Y-94641053D01*
X90300512Y-94683433D01*
X91566811Y-95391103D02*
X91621564Y-94870163D01*
X91584161Y-94770469D01*
X91494422Y-94713156D01*
X91304989Y-94693245D01*
X91205295Y-94730649D01*
X91571788Y-95343745D02*
X91472094Y-95381148D01*
X91235303Y-95356260D01*
X91145564Y-95298947D01*
X91108161Y-95199253D01*
X91118116Y-95104537D01*
X91175430Y-95014798D01*
X91275124Y-94977395D01*
X91511915Y-95002282D01*
X91611609Y-94964879D01*
X92424235Y-95433341D02*
X92324542Y-95470744D01*
X92135109Y-95450833D01*
X92045370Y-95393520D01*
X92007967Y-95293826D01*
X92047787Y-94914961D01*
X92105101Y-94825222D01*
X92204794Y-94787819D01*
X92394227Y-94807729D01*
X92483966Y-94865042D01*
X92521369Y-94964736D01*
X92511414Y-95059453D01*
X92027877Y-95104394D01*
X93034914Y-95545407D02*
X92945176Y-95488094D01*
X92907772Y-95388400D01*
X92997368Y-94535952D01*
X94792002Y-94772457D02*
X94702263Y-94715144D01*
X94560188Y-94700211D01*
X94413136Y-94732637D01*
X94308465Y-94817398D01*
X94251152Y-94907137D01*
X94183883Y-95091592D01*
X94168951Y-95233667D01*
X94196399Y-95428077D01*
X94233802Y-95527771D01*
X94318563Y-95632442D01*
X94455660Y-95694733D01*
X94550376Y-95704688D01*
X94697428Y-95672263D01*
X94749764Y-95629882D01*
X94784607Y-95298375D01*
X94595174Y-95278465D01*
X71029216Y-90859079D02*
X70944597Y-91664169D01*
X70887284Y-91753907D01*
X70834948Y-91796288D01*
X70735254Y-91833691D01*
X70593180Y-91818758D01*
X70503441Y-91761445D01*
X70964507Y-91474736D02*
X70864814Y-91512139D01*
X70675381Y-91492229D01*
X70585642Y-91434915D01*
X70543261Y-91382580D01*
X70505858Y-91282886D01*
X70535724Y-90998737D01*
X70593037Y-90908998D01*
X70645373Y-90866617D01*
X70745066Y-90829214D01*
X70934499Y-90849124D01*
X71024238Y-90906438D01*
X71433112Y-91571869D02*
X71502797Y-90908855D01*
X71537640Y-90577348D02*
X71485304Y-90619728D01*
X71527685Y-90672064D01*
X71580021Y-90629683D01*
X71537640Y-90577348D01*
X71527685Y-90672064D01*
X71834305Y-90943698D02*
X72213170Y-90983518D01*
X72011222Y-90627123D02*
X71921626Y-91479570D01*
X71959029Y-91579264D01*
X72048768Y-91636578D01*
X72143485Y-91646533D01*
X72474992Y-91681375D02*
X72579520Y-90686854D01*
X72901216Y-91726173D02*
X72955969Y-91205233D01*
X72918565Y-91105539D01*
X72828827Y-91048226D01*
X72686752Y-91033293D01*
X72587058Y-91070697D01*
X72534722Y-91113077D01*
X73870707Y-91157732D02*
X73801021Y-91820747D01*
X73444483Y-91112934D02*
X73389730Y-91633874D01*
X73427133Y-91733568D01*
X73516872Y-91790881D01*
X73658946Y-91805814D01*
X73758640Y-91768411D01*
X73810976Y-91726030D01*
X74274603Y-91870522D02*
X74379131Y-90876000D01*
X74339311Y-91254866D02*
X74439005Y-91217463D01*
X74628438Y-91237373D01*
X74718176Y-91294686D01*
X74760557Y-91347022D01*
X74797960Y-91446716D01*
X74768095Y-91730865D01*
X74710782Y-91820604D01*
X74658446Y-91862984D01*
X74558752Y-91900387D01*
X74369319Y-91880477D01*
X74279580Y-91823164D01*
X75184364Y-91870379D02*
X75226744Y-91922715D01*
X75174408Y-91965096D01*
X75132028Y-91912760D01*
X75184364Y-91870379D01*
X75174408Y-91965096D01*
X76079191Y-92012311D02*
X75979498Y-92049714D01*
X75790065Y-92029804D01*
X75700326Y-91972490D01*
X75657945Y-91920155D01*
X75620542Y-91820461D01*
X75650408Y-91536312D01*
X75707721Y-91446573D01*
X75760057Y-91404192D01*
X75859750Y-91366789D01*
X76049183Y-91386699D01*
X76138922Y-91444012D01*
X76642512Y-92119399D02*
X76552773Y-92062086D01*
X76510393Y-92009750D01*
X76472990Y-91910057D01*
X76502855Y-91625907D01*
X76560168Y-91536169D01*
X76612504Y-91493788D01*
X76712198Y-91456385D01*
X76854272Y-91471317D01*
X76944011Y-91528631D01*
X76986392Y-91580966D01*
X77023795Y-91680660D01*
X76993930Y-91964810D01*
X76936616Y-92054548D01*
X76884281Y-92096929D01*
X76784587Y-92134332D01*
X76642512Y-92119399D01*
X77400243Y-92199040D02*
X77469929Y-91536026D01*
X77459974Y-91630742D02*
X77512309Y-91588361D01*
X77612003Y-91550958D01*
X77754078Y-91565891D01*
X77843817Y-91623204D01*
X77881220Y-91722898D01*
X77826467Y-92243838D01*
X77881220Y-91722898D02*
X77938533Y-91633159D01*
X78038227Y-91595756D01*
X78180302Y-91610689D01*
X78270040Y-91668002D01*
X78307443Y-91767696D01*
X78252690Y-92288636D01*
X79546151Y-91371195D02*
X78559310Y-92560270D01*
X80388643Y-91555507D02*
X80298905Y-91498193D01*
X80156830Y-91483261D01*
X80009778Y-91515686D01*
X79905106Y-91600448D01*
X79847793Y-91690187D01*
X79780525Y-91874642D01*
X79765592Y-92016716D01*
X79793040Y-92211127D01*
X79830443Y-92310820D01*
X79915205Y-92415492D01*
X80052302Y-92477783D01*
X80147018Y-92487738D01*
X80294070Y-92455312D01*
X80346406Y-92412932D01*
X80381249Y-92081424D01*
X80191816Y-92061514D01*
X80762674Y-92552446D02*
X80832360Y-91889431D01*
X80812450Y-92078864D02*
X80869763Y-91989125D01*
X80922099Y-91946745D01*
X81021793Y-91909342D01*
X81116509Y-91919297D01*
X81762174Y-92609616D02*
X81662480Y-92647019D01*
X81473047Y-92627109D01*
X81383308Y-92569796D01*
X81345905Y-92470102D01*
X81385726Y-92091236D01*
X81443039Y-92001498D01*
X81542733Y-91964095D01*
X81732165Y-91984005D01*
X81821904Y-92041318D01*
X81859307Y-92141012D01*
X81849352Y-92235728D01*
X81365815Y-92280669D01*
X82614621Y-92699212D02*
X82514927Y-92736615D01*
X82325494Y-92716705D01*
X82235756Y-92659392D01*
X82198352Y-92559698D01*
X82238173Y-92180832D01*
X82295486Y-92091093D01*
X82395180Y-92053690D01*
X82584613Y-92073601D01*
X82674352Y-92130914D01*
X82711755Y-92230608D01*
X82701800Y-92325324D01*
X82218263Y-92370265D01*
X83152911Y-92133331D02*
X83083225Y-92796346D01*
X83142956Y-92228047D02*
X83195292Y-92185667D01*
X83294986Y-92148264D01*
X83437060Y-92163196D01*
X83526799Y-92220510D01*
X83564202Y-92320204D01*
X83509449Y-92841144D01*
X83983031Y-92890919D02*
X84087559Y-91896397D01*
X84344403Y-92641613D01*
X84750574Y-91966083D01*
X84646046Y-92960605D01*
X85545851Y-93055178D02*
X85600604Y-92534238D01*
X85563201Y-92434544D01*
X85473462Y-92377231D01*
X85284029Y-92357321D01*
X85184335Y-92394724D01*
X85550829Y-93007820D02*
X85451135Y-93045223D01*
X85214344Y-93020335D01*
X85124605Y-92963022D01*
X85087202Y-92863328D01*
X85097157Y-92768612D01*
X85154470Y-92678873D01*
X85254164Y-92641470D01*
X85490955Y-92666357D01*
X85590649Y-92628954D01*
X85977052Y-93052618D02*
X86066791Y-93109931D01*
X86256224Y-93129841D01*
X86355918Y-93092438D01*
X86413231Y-93002699D01*
X86418209Y-92955341D01*
X86380805Y-92855647D01*
X86291067Y-92798334D01*
X86148992Y-92783401D01*
X86059253Y-92726088D01*
X86021850Y-92626394D01*
X86026828Y-92579036D01*
X86084141Y-92489297D01*
X86183835Y-92451894D01*
X86325909Y-92466827D01*
X86415648Y-92524140D01*
X86824522Y-93189572D02*
X86929051Y-92195050D01*
X87250746Y-93234370D02*
X87305499Y-92713430D01*
X87268096Y-92613736D01*
X87178357Y-92556422D01*
X87036282Y-92541490D01*
X86936588Y-92578893D01*
X86884253Y-92621274D01*
X88108171Y-93276607D02*
X88008477Y-93314010D01*
X87819044Y-93294100D01*
X87729305Y-93236787D01*
X87691902Y-93137093D01*
X87731722Y-92758228D01*
X87789036Y-92668489D01*
X87888730Y-92631086D01*
X88078162Y-92650996D01*
X88167901Y-92708309D01*
X88205304Y-92808003D01*
X88195349Y-92902719D01*
X87711812Y-92947660D01*
X89002999Y-93418539D02*
X89107527Y-92424017D01*
X89007976Y-93371181D02*
X88908282Y-93408584D01*
X88718849Y-93388674D01*
X88629111Y-93331360D01*
X88586730Y-93279025D01*
X88549327Y-93179331D01*
X88579192Y-92895182D01*
X88636505Y-92805443D01*
X88688841Y-92763062D01*
X88788535Y-92725659D01*
X88977968Y-92745569D01*
X89067707Y-92802883D01*
X89476580Y-93468314D02*
X89581109Y-92473792D01*
X89959974Y-92513613D01*
X90049713Y-92570926D01*
X90092094Y-92623262D01*
X90129497Y-92722956D01*
X90114564Y-92865030D01*
X90057251Y-92954769D01*
X90004915Y-92997150D01*
X89905221Y-93034553D01*
X89526356Y-92994733D01*
X90613177Y-93587775D02*
X90523438Y-93530462D01*
X90481057Y-93478126D01*
X90443654Y-93378433D01*
X90473520Y-93094283D01*
X90530833Y-93004545D01*
X90583169Y-92962164D01*
X90682863Y-92924761D01*
X90824937Y-92939694D01*
X90914676Y-92997007D01*
X90957057Y-93049343D01*
X90994460Y-93149036D01*
X90964594Y-93433186D01*
X90907281Y-93522924D01*
X90854945Y-93565305D01*
X90755251Y-93602708D01*
X90613177Y-93587775D01*
X91298519Y-92989469D02*
X91677384Y-93029289D01*
X91475436Y-92672894D02*
X91385840Y-93525342D01*
X91423244Y-93625036D01*
X91512982Y-93682349D01*
X91607699Y-93692304D01*
X92365430Y-93771945D02*
X92420183Y-93251005D01*
X92382780Y-93151311D01*
X92293041Y-93093997D01*
X92103608Y-93074087D01*
X92003914Y-93111490D01*
X92370407Y-93724586D02*
X92270713Y-93761990D01*
X92033922Y-93737102D01*
X91944184Y-93679789D01*
X91906781Y-93580095D01*
X91916736Y-93485378D01*
X91974049Y-93395639D01*
X92073743Y-93358236D01*
X92310534Y-93383124D01*
X92410228Y-93345721D01*
X92766623Y-93143773D02*
X93145488Y-93183593D01*
X92943540Y-92827198D02*
X92853944Y-93679646D01*
X92891347Y-93779339D01*
X92981086Y-93836653D01*
X93075803Y-93846608D01*
X93549384Y-93896383D02*
X93459646Y-93839070D01*
X93417265Y-93786734D01*
X93379862Y-93687040D01*
X93409727Y-93402891D01*
X93467040Y-93313152D01*
X93519376Y-93270772D01*
X93619070Y-93233369D01*
X93761145Y-93248301D01*
X93850883Y-93305615D01*
X93893264Y-93357950D01*
X93930667Y-93457644D01*
X93900802Y-93741793D01*
X93843489Y-93831532D01*
X93791153Y-93873913D01*
X93691459Y-93911316D01*
X93549384Y-93896383D01*
X95126994Y-93008807D02*
X94140153Y-94197882D01*
X95348995Y-94085530D02*
X95453524Y-93091008D01*
X95483532Y-93716620D02*
X95727861Y-94125350D01*
X95797547Y-93462336D02*
X95378861Y-93801381D01*
X96154085Y-94170148D02*
X96223770Y-93507134D01*
X96258613Y-93175626D02*
X96206277Y-93218007D01*
X96248658Y-93270343D01*
X96300994Y-93227962D01*
X96258613Y-93175626D01*
X96248658Y-93270343D01*
X96627666Y-94219924D02*
X96732195Y-93225402D01*
X96692375Y-93604267D02*
X96792068Y-93566864D01*
X96981501Y-93586774D01*
X97071240Y-93644088D01*
X97113621Y-93696423D01*
X97151024Y-93796117D01*
X97121158Y-94080267D01*
X97063845Y-94170005D01*
X97011509Y-94212386D01*
X96911816Y-94249789D01*
X96722383Y-94229879D01*
X96632644Y-94172566D01*
X97669547Y-94329430D02*
X97579808Y-94272117D01*
X97537427Y-94219781D01*
X97500024Y-94120087D01*
X97529889Y-93835938D01*
X97587203Y-93746199D01*
X97639538Y-93703818D01*
X97739232Y-93666415D01*
X97881307Y-93681348D01*
X97971046Y-93738661D01*
X98013426Y-93790997D01*
X98050829Y-93890691D01*
X98020964Y-94174840D01*
X97963651Y-94264579D01*
X97911315Y-94306959D01*
X97811621Y-94344362D01*
X97669547Y-94329430D01*
X98853501Y-94453868D02*
X98958030Y-93459347D01*
X98858479Y-94406510D02*
X98758785Y-94443913D01*
X98569352Y-94424003D01*
X98479613Y-94366690D01*
X98437233Y-94314354D01*
X98399829Y-94214660D01*
X98429695Y-93930511D01*
X98487008Y-93840772D01*
X98539344Y-93798392D01*
X98639038Y-93760989D01*
X98828470Y-93780899D01*
X98918209Y-93838212D01*
X99366903Y-94124778D02*
X100124634Y-94204419D01*
X100852357Y-93658448D02*
X100947073Y-93668403D01*
X101036812Y-93725717D01*
X101079193Y-93778053D01*
X101116596Y-93877746D01*
X101144044Y-94072157D01*
X101119156Y-94308948D01*
X101051888Y-94493403D01*
X100994575Y-94583142D01*
X100942239Y-94625522D01*
X100842545Y-94662925D01*
X100747829Y-94652970D01*
X100658090Y-94595657D01*
X100615709Y-94543321D01*
X100578306Y-94443627D01*
X100550858Y-94249217D01*
X100575746Y-94012426D01*
X100643014Y-93827971D01*
X100700327Y-93738232D01*
X100752663Y-93695851D01*
X100852357Y-93658448D01*
X102026500Y-94787364D02*
X101458201Y-94727633D01*
X101742350Y-94757499D02*
X101846879Y-93762977D01*
X101737230Y-93895096D01*
X101632558Y-93979858D01*
X101532865Y-94017261D01*
D11*
%TO.C,J1*%
X155086711Y-62234741D02*
X155086711Y-62670170D01*
X155057682Y-62757255D01*
X154999625Y-62815312D01*
X154912539Y-62844341D01*
X154854482Y-62844341D01*
X155696311Y-62844341D02*
X155347968Y-62844341D01*
X155522139Y-62844341D02*
X155522139Y-62234741D01*
X155464082Y-62321827D01*
X155406025Y-62379884D01*
X155347968Y-62408912D01*
X154143282Y-63234741D02*
X154201339Y-63234741D01*
X154259396Y-63263770D01*
X154288425Y-63292798D01*
X154317453Y-63350855D01*
X154346482Y-63466970D01*
X154346482Y-63612112D01*
X154317453Y-63728227D01*
X154288425Y-63786284D01*
X154259396Y-63815312D01*
X154201339Y-63844341D01*
X154143282Y-63844341D01*
X154085225Y-63815312D01*
X154056196Y-63786284D01*
X154027168Y-63728227D01*
X153998139Y-63612112D01*
X153998139Y-63466970D01*
X154027168Y-63350855D01*
X154056196Y-63292798D01*
X154085225Y-63263770D01*
X154143282Y-63234741D01*
X154578711Y-63292798D02*
X154607739Y-63263770D01*
X154665796Y-63234741D01*
X154810939Y-63234741D01*
X154868996Y-63263770D01*
X154898025Y-63292798D01*
X154927053Y-63350855D01*
X154927053Y-63408912D01*
X154898025Y-63495998D01*
X154549682Y-63844341D01*
X154927053Y-63844341D01*
X155130253Y-63844341D02*
X155449568Y-63437941D01*
X155130253Y-63437941D02*
X155449568Y-63844341D01*
X155797911Y-63234741D02*
X155855968Y-63234741D01*
X155914025Y-63263770D01*
X155943053Y-63292798D01*
X155972082Y-63350855D01*
X156001111Y-63466970D01*
X156001111Y-63612112D01*
X155972082Y-63728227D01*
X155943053Y-63786284D01*
X155914025Y-63815312D01*
X155855968Y-63844341D01*
X155797911Y-63844341D01*
X155739853Y-63815312D01*
X155710825Y-63786284D01*
X155681796Y-63728227D01*
X155652768Y-63612112D01*
X155652768Y-63466970D01*
X155681796Y-63350855D01*
X155710825Y-63292798D01*
X155739853Y-63263770D01*
X155797911Y-63234741D01*
X156552653Y-63234741D02*
X156262368Y-63234741D01*
X156233339Y-63525027D01*
X156262368Y-63495998D01*
X156320425Y-63466970D01*
X156465568Y-63466970D01*
X156523625Y-63495998D01*
X156552653Y-63525027D01*
X156581682Y-63583084D01*
X156581682Y-63728227D01*
X156552653Y-63786284D01*
X156523625Y-63815312D01*
X156465568Y-63844341D01*
X156320425Y-63844341D01*
X156262368Y-63815312D01*
X156233339Y-63786284D01*
D10*
%TO.C,U1*%
X152866177Y-27770148D02*
X152980463Y-27808243D01*
X153170939Y-27808243D01*
X153247130Y-27770148D01*
X153285225Y-27732053D01*
X153323320Y-27655862D01*
X153323320Y-27579672D01*
X153285225Y-27503481D01*
X153247130Y-27465386D01*
X153170939Y-27427291D01*
X153018558Y-27389196D01*
X152942368Y-27351100D01*
X152904272Y-27313005D01*
X152866177Y-27236815D01*
X152866177Y-27160624D01*
X152904272Y-27084434D01*
X152942368Y-27046339D01*
X153018558Y-27008243D01*
X153209034Y-27008243D01*
X153323320Y-27046339D01*
X153551891Y-27008243D02*
X154009034Y-27008243D01*
X153780463Y-27808243D02*
X153780463Y-27008243D01*
X152654701Y-47729196D02*
X152768987Y-47767291D01*
X152807082Y-47805386D01*
X152845177Y-47881577D01*
X152845177Y-47995862D01*
X152807082Y-48072053D01*
X152768987Y-48110148D01*
X152692796Y-48148243D01*
X152388034Y-48148243D01*
X152388034Y-47348243D01*
X152654701Y-47348243D01*
X152730891Y-47386339D01*
X152768987Y-47424434D01*
X152807082Y-47500624D01*
X152807082Y-47576815D01*
X152768987Y-47653005D01*
X152730891Y-47691100D01*
X152654701Y-47729196D01*
X152388034Y-47729196D01*
X153149939Y-47424434D02*
X153188034Y-47386339D01*
X153264225Y-47348243D01*
X153454701Y-47348243D01*
X153530891Y-47386339D01*
X153568987Y-47424434D01*
X153607082Y-47500624D01*
X153607082Y-47576815D01*
X153568987Y-47691100D01*
X153111844Y-48148243D01*
X153607082Y-48148243D01*
X163348130Y-45189196D02*
X163614796Y-45189196D01*
X163729082Y-45608243D02*
X163348130Y-45608243D01*
X163348130Y-44808243D01*
X163729082Y-44808243D01*
X164414796Y-44808243D02*
X164262415Y-44808243D01*
X164186225Y-44846339D01*
X164148130Y-44884434D01*
X164071939Y-44998719D01*
X164033844Y-45151100D01*
X164033844Y-45455862D01*
X164071939Y-45532053D01*
X164110034Y-45570148D01*
X164186225Y-45608243D01*
X164338606Y-45608243D01*
X164414796Y-45570148D01*
X164452891Y-45532053D01*
X164490987Y-45455862D01*
X164490987Y-45265386D01*
X164452891Y-45189196D01*
X164414796Y-45151100D01*
X164338606Y-45113005D01*
X164186225Y-45113005D01*
X164110034Y-45151100D01*
X164071939Y-45189196D01*
X164033844Y-45265386D01*
X163310034Y-43068243D02*
X163310034Y-42268243D01*
X163500511Y-42268243D01*
X163614796Y-42306339D01*
X163690987Y-42382529D01*
X163729082Y-42458719D01*
X163767177Y-42611100D01*
X163767177Y-42725386D01*
X163729082Y-42877767D01*
X163690987Y-42953958D01*
X163614796Y-43030148D01*
X163500511Y-43068243D01*
X163310034Y-43068243D01*
X164033844Y-42268243D02*
X164567177Y-42268243D01*
X164224320Y-43068243D01*
X163767177Y-40452053D02*
X163729082Y-40490148D01*
X163614796Y-40528243D01*
X163538606Y-40528243D01*
X163424320Y-40490148D01*
X163348130Y-40413958D01*
X163310034Y-40337767D01*
X163271939Y-40185386D01*
X163271939Y-40071100D01*
X163310034Y-39918719D01*
X163348130Y-39842529D01*
X163424320Y-39766339D01*
X163538606Y-39728243D01*
X163614796Y-39728243D01*
X163729082Y-39766339D01*
X163767177Y-39804434D01*
X164452891Y-39728243D02*
X164300511Y-39728243D01*
X164224320Y-39766339D01*
X164186225Y-39804434D01*
X164110034Y-39918719D01*
X164071939Y-40071100D01*
X164071939Y-40375862D01*
X164110034Y-40452053D01*
X164148130Y-40490148D01*
X164224320Y-40528243D01*
X164376701Y-40528243D01*
X164452891Y-40490148D01*
X164490987Y-40452053D01*
X164529082Y-40375862D01*
X164529082Y-40185386D01*
X164490987Y-40109196D01*
X164452891Y-40071100D01*
X164376701Y-40033005D01*
X164224320Y-40033005D01*
X164148130Y-40071100D01*
X164110034Y-40109196D01*
X164071939Y-40185386D01*
X157891891Y-40975386D02*
X158606177Y-40975386D01*
X158749034Y-41023005D01*
X158844272Y-41118243D01*
X158891891Y-41261100D01*
X158891891Y-41356339D01*
X158891891Y-40023005D02*
X158891891Y-40499196D01*
X157891891Y-40499196D01*
X158796653Y-39118243D02*
X158844272Y-39165862D01*
X158891891Y-39308719D01*
X158891891Y-39403958D01*
X158844272Y-39546815D01*
X158749034Y-39642053D01*
X158653796Y-39689672D01*
X158463320Y-39737291D01*
X158320463Y-39737291D01*
X158129987Y-39689672D01*
X158034749Y-39642053D01*
X157939511Y-39546815D01*
X157891891Y-39403958D01*
X157891891Y-39308719D01*
X157939511Y-39165862D01*
X157987130Y-39118243D01*
X157891891Y-38403958D02*
X158606177Y-38403958D01*
X158749034Y-38451577D01*
X158844272Y-38546815D01*
X158891891Y-38689672D01*
X158891891Y-38784910D01*
X158891891Y-37451577D02*
X158891891Y-37927767D01*
X157891891Y-37927767D01*
X158796653Y-36546815D02*
X158844272Y-36594434D01*
X158891891Y-36737291D01*
X158891891Y-36832529D01*
X158844272Y-36975386D01*
X158749034Y-37070624D01*
X158653796Y-37118243D01*
X158463320Y-37165862D01*
X158320463Y-37165862D01*
X158129987Y-37118243D01*
X158034749Y-37070624D01*
X157939511Y-36975386D01*
X157891891Y-36832529D01*
X157891891Y-36737291D01*
X157939511Y-36594434D01*
X157987130Y-36546815D01*
X157891891Y-35832529D02*
X158606177Y-35832529D01*
X158749034Y-35880148D01*
X158844272Y-35975386D01*
X158891891Y-36118243D01*
X158891891Y-36213481D01*
X158891891Y-34880148D02*
X158891891Y-35356339D01*
X157891891Y-35356339D01*
X158796653Y-33975386D02*
X158844272Y-34023005D01*
X158891891Y-34165862D01*
X158891891Y-34261100D01*
X158844272Y-34403958D01*
X158749034Y-34499196D01*
X158653796Y-34546815D01*
X158463320Y-34594434D01*
X158320463Y-34594434D01*
X158129987Y-34546815D01*
X158034749Y-34499196D01*
X157939511Y-34403958D01*
X157891891Y-34261100D01*
X157891891Y-34165862D01*
X157939511Y-34023005D01*
X157987130Y-33975386D01*
X157891891Y-33261100D02*
X158606177Y-33261100D01*
X158749034Y-33308719D01*
X158844272Y-33403958D01*
X158891891Y-33546815D01*
X158891891Y-33642053D01*
X158891891Y-32308719D02*
X158891891Y-32784910D01*
X157891891Y-32784910D01*
X158796653Y-31403958D02*
X158844272Y-31451577D01*
X158891891Y-31594434D01*
X158891891Y-31689672D01*
X158844272Y-31832529D01*
X158749034Y-31927767D01*
X158653796Y-31975386D01*
X158463320Y-32023005D01*
X158320463Y-32023005D01*
X158129987Y-31975386D01*
X158034749Y-31927767D01*
X157939511Y-31832529D01*
X157891891Y-31689672D01*
X157891891Y-31594434D01*
X157939511Y-31451577D01*
X157987130Y-31403958D01*
X163310034Y-35448243D02*
X163310034Y-34648243D01*
X163500511Y-34648243D01*
X163614796Y-34686339D01*
X163690987Y-34762529D01*
X163729082Y-34838719D01*
X163767177Y-34991100D01*
X163767177Y-35105386D01*
X163729082Y-35257767D01*
X163690987Y-35333958D01*
X163614796Y-35410148D01*
X163500511Y-35448243D01*
X163310034Y-35448243D01*
X164262415Y-34648243D02*
X164338606Y-34648243D01*
X164414796Y-34686339D01*
X164452891Y-34724434D01*
X164490987Y-34800624D01*
X164529082Y-34953005D01*
X164529082Y-35143481D01*
X164490987Y-35295862D01*
X164452891Y-35372053D01*
X164414796Y-35410148D01*
X164338606Y-35448243D01*
X164262415Y-35448243D01*
X164186225Y-35410148D01*
X164148130Y-35372053D01*
X164110034Y-35295862D01*
X164071939Y-35143481D01*
X164071939Y-34953005D01*
X164110034Y-34800624D01*
X164148130Y-34724434D01*
X164186225Y-34686339D01*
X164262415Y-34648243D01*
X163310034Y-25288243D02*
X163310034Y-24488243D01*
X163500511Y-24488243D01*
X163614796Y-24526339D01*
X163690987Y-24602529D01*
X163729082Y-24678719D01*
X163767177Y-24831100D01*
X163767177Y-24945386D01*
X163729082Y-25097767D01*
X163690987Y-25173958D01*
X163614796Y-25250148D01*
X163500511Y-25288243D01*
X163310034Y-25288243D01*
X164071939Y-24564434D02*
X164110034Y-24526339D01*
X164186225Y-24488243D01*
X164376701Y-24488243D01*
X164452891Y-24526339D01*
X164490987Y-24564434D01*
X164529082Y-24640624D01*
X164529082Y-24716815D01*
X164490987Y-24831100D01*
X164033844Y-25288243D01*
X164529082Y-25288243D01*
X152711844Y-37569196D02*
X152445177Y-37569196D01*
X152445177Y-37988243D02*
X152445177Y-37188243D01*
X152826130Y-37188243D01*
X153473749Y-37188243D02*
X153321368Y-37188243D01*
X153245177Y-37226339D01*
X153207082Y-37264434D01*
X153130891Y-37378719D01*
X153092796Y-37531100D01*
X153092796Y-37835862D01*
X153130891Y-37912053D01*
X153168987Y-37950148D01*
X153245177Y-37988243D01*
X153397558Y-37988243D01*
X153473749Y-37950148D01*
X153511844Y-37912053D01*
X153549939Y-37835862D01*
X153549939Y-37645386D01*
X153511844Y-37569196D01*
X153473749Y-37531100D01*
X153397558Y-37493005D01*
X153245177Y-37493005D01*
X153168987Y-37531100D01*
X153130891Y-37569196D01*
X153092796Y-37645386D01*
X152654701Y-42649196D02*
X152768987Y-42687291D01*
X152807082Y-42725386D01*
X152845177Y-42801577D01*
X152845177Y-42915862D01*
X152807082Y-42992053D01*
X152768987Y-43030148D01*
X152692796Y-43068243D01*
X152388034Y-43068243D01*
X152388034Y-42268243D01*
X152654701Y-42268243D01*
X152730891Y-42306339D01*
X152768987Y-42344434D01*
X152807082Y-42420624D01*
X152807082Y-42496815D01*
X152768987Y-42573005D01*
X152730891Y-42611100D01*
X152654701Y-42649196D01*
X152388034Y-42649196D01*
X153607082Y-43068243D02*
X153149939Y-43068243D01*
X153378511Y-43068243D02*
X153378511Y-42268243D01*
X153302320Y-42382529D01*
X153226130Y-42458719D01*
X153149939Y-42496815D01*
X163576701Y-50269196D02*
X163690987Y-50307291D01*
X163729082Y-50345386D01*
X163767177Y-50421577D01*
X163767177Y-50535862D01*
X163729082Y-50612053D01*
X163690987Y-50650148D01*
X163614796Y-50688243D01*
X163310034Y-50688243D01*
X163310034Y-49888243D01*
X163576701Y-49888243D01*
X163652891Y-49926339D01*
X163690987Y-49964434D01*
X163729082Y-50040624D01*
X163729082Y-50116815D01*
X163690987Y-50193005D01*
X163652891Y-50231100D01*
X163576701Y-50269196D01*
X163310034Y-50269196D01*
X164490987Y-49888243D02*
X164110034Y-49888243D01*
X164071939Y-50269196D01*
X164110034Y-50231100D01*
X164186225Y-50193005D01*
X164376701Y-50193005D01*
X164452891Y-50231100D01*
X164490987Y-50269196D01*
X164529082Y-50345386D01*
X164529082Y-50535862D01*
X164490987Y-50612053D01*
X164452891Y-50650148D01*
X164376701Y-50688243D01*
X164186225Y-50688243D01*
X164110034Y-50650148D01*
X164071939Y-50612053D01*
X163290987Y-29606339D02*
X163214796Y-29568243D01*
X163100511Y-29568243D01*
X162986225Y-29606339D01*
X162910034Y-29682529D01*
X162871939Y-29758719D01*
X162833844Y-29911100D01*
X162833844Y-30025386D01*
X162871939Y-30177767D01*
X162910034Y-30253958D01*
X162986225Y-30330148D01*
X163100511Y-30368243D01*
X163176701Y-30368243D01*
X163290987Y-30330148D01*
X163329082Y-30292053D01*
X163329082Y-30025386D01*
X163176701Y-30025386D01*
X163671939Y-30368243D02*
X163671939Y-29568243D01*
X164129082Y-30368243D01*
X164129082Y-29568243D01*
X164510034Y-30368243D02*
X164510034Y-29568243D01*
X164700511Y-29568243D01*
X164814796Y-29606339D01*
X164890987Y-29682529D01*
X164929082Y-29758719D01*
X164967177Y-29911100D01*
X164967177Y-30025386D01*
X164929082Y-30177767D01*
X164890987Y-30253958D01*
X164814796Y-30330148D01*
X164700511Y-30368243D01*
X164510034Y-30368243D01*
X163310034Y-32908243D02*
X163310034Y-32108243D01*
X163500511Y-32108243D01*
X163614796Y-32146339D01*
X163690987Y-32222529D01*
X163729082Y-32298719D01*
X163767177Y-32451100D01*
X163767177Y-32565386D01*
X163729082Y-32717767D01*
X163690987Y-32793958D01*
X163614796Y-32870148D01*
X163500511Y-32908243D01*
X163310034Y-32908243D01*
X164529082Y-32908243D02*
X164071939Y-32908243D01*
X164300511Y-32908243D02*
X164300511Y-32108243D01*
X164224320Y-32222529D01*
X164148130Y-32298719D01*
X164071939Y-32336815D01*
X163290987Y-27066339D02*
X163214796Y-27028243D01*
X163100511Y-27028243D01*
X162986225Y-27066339D01*
X162910034Y-27142529D01*
X162871939Y-27218719D01*
X162833844Y-27371100D01*
X162833844Y-27485386D01*
X162871939Y-27637767D01*
X162910034Y-27713958D01*
X162986225Y-27790148D01*
X163100511Y-27828243D01*
X163176701Y-27828243D01*
X163290987Y-27790148D01*
X163329082Y-27752053D01*
X163329082Y-27485386D01*
X163176701Y-27485386D01*
X163671939Y-27828243D02*
X163671939Y-27028243D01*
X164129082Y-27828243D01*
X164129082Y-27028243D01*
X164510034Y-27828243D02*
X164510034Y-27028243D01*
X164700511Y-27028243D01*
X164814796Y-27066339D01*
X164890987Y-27142529D01*
X164929082Y-27218719D01*
X164967177Y-27371100D01*
X164967177Y-27485386D01*
X164929082Y-27637767D01*
X164890987Y-27713958D01*
X164814796Y-27790148D01*
X164700511Y-27828243D01*
X164510034Y-27828243D01*
X151911844Y-29568243D02*
X152178511Y-30368243D01*
X152445177Y-29568243D01*
X153168987Y-30292053D02*
X153130891Y-30330148D01*
X153016606Y-30368243D01*
X152940415Y-30368243D01*
X152826130Y-30330148D01*
X152749939Y-30253958D01*
X152711844Y-30177767D01*
X152673749Y-30025386D01*
X152673749Y-29911100D01*
X152711844Y-29758719D01*
X152749939Y-29682529D01*
X152826130Y-29606339D01*
X152940415Y-29568243D01*
X153016606Y-29568243D01*
X153130891Y-29606339D01*
X153168987Y-29644434D01*
X153968987Y-30292053D02*
X153930891Y-30330148D01*
X153816606Y-30368243D01*
X153740415Y-30368243D01*
X153626130Y-30330148D01*
X153549939Y-30253958D01*
X153511844Y-30177767D01*
X153473749Y-30025386D01*
X153473749Y-29911100D01*
X153511844Y-29758719D01*
X153549939Y-29682529D01*
X153626130Y-29606339D01*
X153740415Y-29568243D01*
X153816606Y-29568243D01*
X153930891Y-29606339D01*
X153968987Y-29644434D01*
X152711844Y-35029196D02*
X152445177Y-35029196D01*
X152445177Y-35448243D02*
X152445177Y-34648243D01*
X152826130Y-34648243D01*
X153511844Y-34648243D02*
X153130891Y-34648243D01*
X153092796Y-35029196D01*
X153130891Y-34991100D01*
X153207082Y-34953005D01*
X153397558Y-34953005D01*
X153473749Y-34991100D01*
X153511844Y-35029196D01*
X153549939Y-35105386D01*
X153549939Y-35295862D01*
X153511844Y-35372053D01*
X153473749Y-35410148D01*
X153397558Y-35448243D01*
X153207082Y-35448243D01*
X153130891Y-35410148D01*
X153092796Y-35372053D01*
X152654701Y-50269196D02*
X152768987Y-50307291D01*
X152807082Y-50345386D01*
X152845177Y-50421577D01*
X152845177Y-50535862D01*
X152807082Y-50612053D01*
X152768987Y-50650148D01*
X152692796Y-50688243D01*
X152388034Y-50688243D01*
X152388034Y-49888243D01*
X152654701Y-49888243D01*
X152730891Y-49926339D01*
X152768987Y-49964434D01*
X152807082Y-50040624D01*
X152807082Y-50116815D01*
X152768987Y-50193005D01*
X152730891Y-50231100D01*
X152654701Y-50269196D01*
X152388034Y-50269196D01*
X153530891Y-49888243D02*
X153378511Y-49888243D01*
X153302320Y-49926339D01*
X153264225Y-49964434D01*
X153188034Y-50078719D01*
X153149939Y-50231100D01*
X153149939Y-50535862D01*
X153188034Y-50612053D01*
X153226130Y-50650148D01*
X153302320Y-50688243D01*
X153454701Y-50688243D01*
X153530891Y-50650148D01*
X153568987Y-50612053D01*
X153607082Y-50535862D01*
X153607082Y-50345386D01*
X153568987Y-50269196D01*
X153530891Y-50231100D01*
X153454701Y-50193005D01*
X153302320Y-50193005D01*
X153226130Y-50231100D01*
X153188034Y-50269196D01*
X153149939Y-50345386D01*
X163310034Y-37988243D02*
X163310034Y-37188243D01*
X163500511Y-37188243D01*
X163614796Y-37226339D01*
X163690987Y-37302529D01*
X163729082Y-37378719D01*
X163767177Y-37531100D01*
X163767177Y-37645386D01*
X163729082Y-37797767D01*
X163690987Y-37873958D01*
X163614796Y-37950148D01*
X163500511Y-37988243D01*
X163310034Y-37988243D01*
X164452891Y-37454910D02*
X164452891Y-37988243D01*
X164262415Y-37150148D02*
X164071939Y-37721577D01*
X164567177Y-37721577D01*
X152654701Y-45189196D02*
X152768987Y-45227291D01*
X152807082Y-45265386D01*
X152845177Y-45341577D01*
X152845177Y-45455862D01*
X152807082Y-45532053D01*
X152768987Y-45570148D01*
X152692796Y-45608243D01*
X152388034Y-45608243D01*
X152388034Y-44808243D01*
X152654701Y-44808243D01*
X152730891Y-44846339D01*
X152768987Y-44884434D01*
X152807082Y-44960624D01*
X152807082Y-45036815D01*
X152768987Y-45113005D01*
X152730891Y-45151100D01*
X152654701Y-45189196D01*
X152388034Y-45189196D01*
X153111844Y-44808243D02*
X153607082Y-44808243D01*
X153340415Y-45113005D01*
X153454701Y-45113005D01*
X153530891Y-45151100D01*
X153568987Y-45189196D01*
X153607082Y-45265386D01*
X153607082Y-45455862D01*
X153568987Y-45532053D01*
X153530891Y-45570148D01*
X153454701Y-45608243D01*
X153226130Y-45608243D01*
X153149939Y-45570148D01*
X153111844Y-45532053D01*
X152368987Y-24526339D02*
X152292796Y-24488243D01*
X152178511Y-24488243D01*
X152064225Y-24526339D01*
X151988034Y-24602529D01*
X151949939Y-24678719D01*
X151911844Y-24831100D01*
X151911844Y-24945386D01*
X151949939Y-25097767D01*
X151988034Y-25173958D01*
X152064225Y-25250148D01*
X152178511Y-25288243D01*
X152254701Y-25288243D01*
X152368987Y-25250148D01*
X152407082Y-25212053D01*
X152407082Y-24945386D01*
X152254701Y-24945386D01*
X152749939Y-25288243D02*
X152749939Y-24488243D01*
X153207082Y-25288243D01*
X153207082Y-24488243D01*
X153588034Y-25288243D02*
X153588034Y-24488243D01*
X153778511Y-24488243D01*
X153892796Y-24526339D01*
X153968987Y-24602529D01*
X154007082Y-24678719D01*
X154045177Y-24831100D01*
X154045177Y-24945386D01*
X154007082Y-25097767D01*
X153968987Y-25173958D01*
X153892796Y-25250148D01*
X153778511Y-25288243D01*
X153588034Y-25288243D01*
X163576701Y-47729196D02*
X163690987Y-47767291D01*
X163729082Y-47805386D01*
X163767177Y-47881577D01*
X163767177Y-47995862D01*
X163729082Y-48072053D01*
X163690987Y-48110148D01*
X163614796Y-48148243D01*
X163310034Y-48148243D01*
X163310034Y-47348243D01*
X163576701Y-47348243D01*
X163652891Y-47386339D01*
X163690987Y-47424434D01*
X163729082Y-47500624D01*
X163729082Y-47576815D01*
X163690987Y-47653005D01*
X163652891Y-47691100D01*
X163576701Y-47729196D01*
X163310034Y-47729196D01*
X164452891Y-47614910D02*
X164452891Y-48148243D01*
X164262415Y-47310148D02*
X164071939Y-47881577D01*
X164567177Y-47881577D01*
X152426130Y-22748243D02*
X152159463Y-22367291D01*
X151968987Y-22748243D02*
X151968987Y-21948243D01*
X152273749Y-21948243D01*
X152349939Y-21986339D01*
X152388034Y-22024434D01*
X152426130Y-22100624D01*
X152426130Y-22214910D01*
X152388034Y-22291100D01*
X152349939Y-22329196D01*
X152273749Y-22367291D01*
X151968987Y-22367291D01*
X152730891Y-22519672D02*
X153111844Y-22519672D01*
X152654701Y-22748243D02*
X152921368Y-21948243D01*
X153188034Y-22748243D01*
X153378511Y-21948243D02*
X153568987Y-22748243D01*
X153721368Y-22176815D01*
X153873749Y-22748243D01*
X154064225Y-21948243D01*
X159820906Y-21948243D02*
X160278049Y-21948243D01*
X160049478Y-22748243D02*
X160049478Y-21948243D01*
X160468525Y-21948243D02*
X161001859Y-22748243D01*
X161001859Y-21948243D02*
X160468525Y-22748243D01*
X161459002Y-21948243D02*
X161535192Y-21948243D01*
X161611383Y-21986339D01*
X161649478Y-22024434D01*
X161687573Y-22100624D01*
X161725668Y-22253005D01*
X161725668Y-22443481D01*
X161687573Y-22595862D01*
X161649478Y-22672053D01*
X161611383Y-22710148D01*
X161535192Y-22748243D01*
X161459002Y-22748243D01*
X161382811Y-22710148D01*
X161344716Y-22672053D01*
X161306621Y-22595862D01*
X161268525Y-22443481D01*
X161268525Y-22253005D01*
X161306621Y-22100624D01*
X161344716Y-22024434D01*
X161382811Y-21986339D01*
X161459002Y-21948243D01*
X162639954Y-21910148D02*
X161954240Y-22938719D01*
X162906621Y-22748243D02*
X162906621Y-21948243D01*
X163097097Y-21948243D01*
X163211383Y-21986339D01*
X163287573Y-22062529D01*
X163325668Y-22138719D01*
X163363763Y-22291100D01*
X163363763Y-22405386D01*
X163325668Y-22557767D01*
X163287573Y-22633958D01*
X163211383Y-22710148D01*
X163097097Y-22748243D01*
X162906621Y-22748243D01*
X163630430Y-21948243D02*
X164125668Y-21948243D01*
X163859002Y-22253005D01*
X163973287Y-22253005D01*
X164049478Y-22291100D01*
X164087573Y-22329196D01*
X164125668Y-22405386D01*
X164125668Y-22595862D01*
X164087573Y-22672053D01*
X164049478Y-22710148D01*
X163973287Y-22748243D01*
X163744716Y-22748243D01*
X163668525Y-22710148D01*
X163630430Y-22672053D01*
X152711844Y-32489196D02*
X152445177Y-32489196D01*
X152445177Y-32908243D02*
X152445177Y-32108243D01*
X152826130Y-32108243D01*
X153473749Y-32374910D02*
X153473749Y-32908243D01*
X153283272Y-32070148D02*
X153092796Y-32641577D01*
X153588034Y-32641577D01*
X152711844Y-40109196D02*
X152445177Y-40109196D01*
X152445177Y-40528243D02*
X152445177Y-39728243D01*
X152826130Y-39728243D01*
X153054701Y-39728243D02*
X153588034Y-39728243D01*
X153245177Y-40528243D01*
D12*
%TO.C,D-0-0*%
X32768516Y-50335666D02*
X32239236Y-47333972D01*
D10*
X34903813Y-49528615D02*
X32737235Y-49910641D01*
D12*
X35019786Y-49938706D02*
X32768516Y-50335666D01*
D10*
X34840061Y-49742941D02*
X34938542Y-49725576D01*
X32702506Y-49713679D02*
X34869083Y-49331653D01*
D12*
X34490506Y-46937012D02*
X35019786Y-49938706D01*
X32239236Y-47333972D02*
X34490506Y-46937012D01*
D10*
X32771965Y-50107602D02*
X34840061Y-49742941D01*
X34938542Y-49725576D02*
X34840061Y-49742941D01*
%TO.C,D-0-1*%
X57200704Y-46436321D02*
X57299731Y-46422404D01*
D12*
X54685535Y-43938052D02*
X56949288Y-43619903D01*
D10*
X57271896Y-46224350D02*
X55093307Y-46530531D01*
X57299731Y-46422404D02*
X57200704Y-46436321D01*
X55121141Y-46728585D02*
X57200704Y-46436321D01*
D12*
X57373487Y-46638240D02*
X55109734Y-46956389D01*
D10*
X55065472Y-46332478D02*
X57244062Y-46026297D01*
D12*
X56949288Y-43619903D02*
X57373487Y-46638240D01*
X55109734Y-46956389D02*
X54685535Y-43938052D01*
%TO.C,D-0-2*%
X78136948Y-27951212D02*
X78455551Y-30982514D01*
D10*
X76201424Y-30994199D02*
X78289920Y-30774689D01*
D12*
X76182074Y-31221466D02*
X75863471Y-28190164D01*
D10*
X76159613Y-30596390D02*
X78347561Y-30366427D01*
X78368466Y-30565332D02*
X76180518Y-30795294D01*
D12*
X75863471Y-28190164D02*
X78136948Y-27951212D01*
D10*
X78389372Y-30764236D02*
X78289920Y-30774689D01*
X78289920Y-30774689D02*
X78389372Y-30764236D01*
D12*
X78455551Y-30982514D02*
X76182074Y-31221466D01*
D10*
%TO.C,D-0-3*%
X99012874Y-26824505D02*
X101107758Y-26678017D01*
X101193564Y-26471528D02*
X98998923Y-26624993D01*
X101107758Y-26678017D02*
X101207515Y-26671041D01*
D12*
X101266036Y-26891496D02*
X98985604Y-27050959D01*
X98772986Y-24010384D02*
X101053418Y-23850921D01*
D10*
X101207515Y-26671041D02*
X101107758Y-26678017D01*
D12*
X101053418Y-23850921D02*
X101266036Y-26891496D01*
D10*
X98984971Y-26425480D02*
X101179612Y-26272016D01*
D12*
X98985604Y-27050959D02*
X98772986Y-24010384D01*
%TO.C,D-0-4*%
X124525002Y-28475669D02*
X122240394Y-28555450D01*
D10*
X124374271Y-28256797D02*
X124474210Y-28253307D01*
X122261591Y-27930329D02*
X124460250Y-27853550D01*
D12*
X122240394Y-28555450D02*
X122134020Y-25509307D01*
X124418628Y-25429526D02*
X124525002Y-28475669D01*
D10*
X124474210Y-28253307D02*
X124374271Y-28256797D01*
D12*
X122134020Y-25509307D02*
X124418628Y-25429526D01*
D10*
X122275550Y-28330086D02*
X124374271Y-28256797D01*
X124467230Y-28053428D02*
X122268571Y-28130207D01*
D12*
%TO.C,D-0-5*%
X144596511Y-28062339D02*
X146882511Y-28062339D01*
X144596511Y-31110339D02*
X144596511Y-28062339D01*
D10*
X146739511Y-30886339D02*
X146839511Y-30886339D01*
X144639511Y-30486339D02*
X146839511Y-30486339D01*
D12*
X146882511Y-31110339D02*
X144596511Y-31110339D01*
D10*
X146839511Y-30686339D02*
X144639511Y-30686339D01*
X146839511Y-30886339D02*
X146739511Y-30886339D01*
X144639511Y-30886339D02*
X146739511Y-30886339D01*
D12*
X146882511Y-28062339D02*
X146882511Y-31110339D01*
D10*
%TO.C,D-1-0*%
X38103813Y-68276945D02*
X35937235Y-68658971D01*
X35902506Y-68462009D02*
X38069083Y-68079983D01*
D12*
X38219786Y-68687036D02*
X35968516Y-69083996D01*
D10*
X38138542Y-68473906D02*
X38040061Y-68491271D01*
D12*
X37690506Y-65685342D02*
X38219786Y-68687036D01*
D10*
X35971965Y-68855932D02*
X38040061Y-68491271D01*
D12*
X35968516Y-69083996D02*
X35439236Y-66082302D01*
D10*
X38040061Y-68491271D02*
X38138542Y-68473906D01*
D12*
X35439236Y-66082302D02*
X37690506Y-65685342D01*
D10*
%TO.C,D-1-1*%
X59900704Y-65124179D02*
X59999731Y-65110262D01*
D12*
X57809734Y-65644247D02*
X57385535Y-62625910D01*
D10*
X59971896Y-64912208D02*
X57793307Y-65218389D01*
D12*
X59649288Y-62307761D02*
X60073487Y-65326098D01*
D10*
X59999731Y-65110262D02*
X59900704Y-65124179D01*
X57765472Y-65020336D02*
X59944062Y-64714155D01*
X57821141Y-65416443D02*
X59900704Y-65124179D01*
D12*
X60073487Y-65326098D02*
X57809734Y-65644247D01*
X57385535Y-62625910D02*
X59649288Y-62307761D01*
D10*
%TO.C,D-1-2*%
X80259920Y-49824689D02*
X80359372Y-49814236D01*
X78129613Y-49646390D02*
X80317561Y-49416427D01*
X80338466Y-49615332D02*
X78150518Y-49845294D01*
D12*
X78152074Y-50271466D02*
X77833471Y-47240164D01*
X80425551Y-50032514D02*
X78152074Y-50271466D01*
X80106948Y-47001212D02*
X80425551Y-50032514D01*
D10*
X78171424Y-50044199D02*
X80259920Y-49824689D01*
D12*
X77833471Y-47240164D02*
X80106948Y-47001212D01*
D10*
X80359372Y-49814236D02*
X80259920Y-49824689D01*
%TO.C,D-1-3*%
X102477515Y-45674636D02*
X102377758Y-45681612D01*
D12*
X100255604Y-46054554D02*
X100042986Y-43013979D01*
X102323418Y-42854516D02*
X102536036Y-45895091D01*
D10*
X102463564Y-45475123D02*
X100268923Y-45628588D01*
D12*
X100042986Y-43013979D02*
X102323418Y-42854516D01*
X102536036Y-45895091D02*
X100255604Y-46054554D01*
D10*
X102377758Y-45681612D02*
X102477515Y-45674636D01*
X100254971Y-45429075D02*
X102449612Y-45275611D01*
X100282874Y-45828100D02*
X102377758Y-45681612D01*
D12*
%TO.C,D-1-4*%
X125018628Y-44467922D02*
X125125002Y-47514065D01*
D10*
X122875550Y-47368482D02*
X124974271Y-47295193D01*
X125067230Y-47091824D02*
X122868571Y-47168603D01*
D12*
X122840394Y-47593846D02*
X122734020Y-44547703D01*
D10*
X122861591Y-46968725D02*
X125060250Y-46891946D01*
D12*
X125125002Y-47514065D02*
X122840394Y-47593846D01*
D10*
X124974271Y-47295193D02*
X125074210Y-47291703D01*
X125074210Y-47291703D02*
X124974271Y-47295193D01*
D12*
X122734020Y-44547703D02*
X125018628Y-44467922D01*
D10*
%TO.C,D-1-5*%
X146739511Y-49936339D02*
X146839511Y-49936339D01*
X146839511Y-49936339D02*
X146739511Y-49936339D01*
X144639511Y-49536339D02*
X146839511Y-49536339D01*
D12*
X146882511Y-47112339D02*
X146882511Y-50160339D01*
X144596511Y-47112339D02*
X146882511Y-47112339D01*
D10*
X146839511Y-49736339D02*
X144639511Y-49736339D01*
X144639511Y-49936339D02*
X146739511Y-49936339D01*
D12*
X144596511Y-50160339D02*
X144596511Y-47112339D01*
X146882511Y-50160339D02*
X144596511Y-50160339D01*
%TO.C,D-2-0*%
X39068516Y-87165666D02*
X38539236Y-84163972D01*
D10*
X41140061Y-86572941D02*
X41238542Y-86555576D01*
X39071965Y-86937602D02*
X41140061Y-86572941D01*
X41203813Y-86358615D02*
X39037235Y-86740641D01*
D12*
X41319786Y-86768706D02*
X39068516Y-87165666D01*
X38539236Y-84163972D02*
X40790506Y-83767012D01*
X40790506Y-83767012D02*
X41319786Y-86768706D01*
D10*
X39002506Y-86543679D02*
X41169083Y-86161653D01*
X41238542Y-86555576D02*
X41140061Y-86572941D01*
%TO.C,D-2-1*%
X60065472Y-83884943D02*
X62244062Y-83578762D01*
X62299731Y-83974869D02*
X62200704Y-83988786D01*
D12*
X60109734Y-84508854D02*
X59685535Y-81490517D01*
D10*
X60121141Y-84281050D02*
X62200704Y-83988786D01*
X62271896Y-83776815D02*
X60093307Y-84082996D01*
D12*
X61949288Y-81172368D02*
X62373487Y-84190705D01*
X59685535Y-81490517D02*
X61949288Y-81172368D01*
D10*
X62200704Y-83988786D02*
X62299731Y-83974869D01*
D12*
X62373487Y-84190705D02*
X60109734Y-84508854D01*
D10*
%TO.C,D-2-2*%
X82178466Y-68665332D02*
X79990518Y-68895294D01*
D12*
X79992074Y-69321466D02*
X79673471Y-66290164D01*
D10*
X82199372Y-68864236D02*
X82099920Y-68874689D01*
D12*
X82265551Y-69082514D02*
X79992074Y-69321466D01*
X81946948Y-66051212D02*
X82265551Y-69082514D01*
D10*
X80011424Y-69094199D02*
X82099920Y-68874689D01*
X79969613Y-68696390D02*
X82157561Y-68466427D01*
X82099920Y-68874689D02*
X82199372Y-68864236D01*
D12*
X79673471Y-66290164D02*
X81946948Y-66051212D01*
D10*
%TO.C,D-2-3*%
X101552874Y-64831695D02*
X103647758Y-64685207D01*
D12*
X103593418Y-61858111D02*
X103806036Y-64898686D01*
X101525604Y-65058149D02*
X101312986Y-62017574D01*
D10*
X103733564Y-64478718D02*
X101538923Y-64632183D01*
X101524971Y-64432670D02*
X103719612Y-64279206D01*
X103747515Y-64678231D02*
X103647758Y-64685207D01*
X103647758Y-64685207D02*
X103747515Y-64678231D01*
D12*
X101312986Y-62017574D02*
X103593418Y-61858111D01*
X103806036Y-64898686D02*
X101525604Y-65058149D01*
%TO.C,D-2-4*%
X125925002Y-67821686D02*
X123640394Y-67901467D01*
D10*
X125774271Y-67602814D02*
X125874210Y-67599324D01*
X125874210Y-67599324D02*
X125774271Y-67602814D01*
X123661591Y-67276346D02*
X125860250Y-67199567D01*
D12*
X125818628Y-64775543D02*
X125925002Y-67821686D01*
D10*
X123675550Y-67676103D02*
X125774271Y-67602814D01*
D12*
X123640394Y-67901467D02*
X123534020Y-64855324D01*
D10*
X125867230Y-67399445D02*
X123668571Y-67476224D01*
D12*
X123534020Y-64855324D02*
X125818628Y-64775543D01*
D10*
%TO.C,D-2-5*%
X146739511Y-68986339D02*
X146839511Y-68986339D01*
D12*
X146882511Y-69210339D02*
X144596511Y-69210339D01*
D10*
X146839511Y-68986339D02*
X146739511Y-68986339D01*
X144639511Y-68986339D02*
X146739511Y-68986339D01*
D12*
X144596511Y-69210339D02*
X144596511Y-66162339D01*
X144596511Y-66162339D02*
X146882511Y-66162339D01*
D10*
X146839511Y-68786339D02*
X144639511Y-68786339D01*
X144639511Y-68586339D02*
X146839511Y-68586339D01*
D12*
X146882511Y-66162339D02*
X146882511Y-69210339D01*
%TO.C,D-3-3*%
X126318628Y-89835235D02*
X124034020Y-89755454D01*
D10*
X126290451Y-89409992D02*
X124091792Y-89333213D01*
X124098772Y-89133335D02*
X126297431Y-89210114D01*
X126283472Y-89609871D02*
X126183532Y-89606381D01*
X126183532Y-89606381D02*
X126283472Y-89609871D01*
D12*
X124034020Y-89755454D02*
X124140394Y-86709311D01*
X124140394Y-86709311D02*
X126425002Y-86789092D01*
D10*
X124084812Y-89533092D02*
X126183532Y-89606381D01*
D12*
X126425002Y-86789092D02*
X126318628Y-89835235D01*
%TO.C,D-3-4*%
X143452074Y-88911212D02*
X145725551Y-89150164D01*
D10*
X145387598Y-91954199D02*
X145288146Y-91943746D01*
X145288146Y-91943746D02*
X145387598Y-91954199D01*
X145408504Y-91755294D02*
X143220556Y-91525332D01*
X143241461Y-91326427D02*
X145429409Y-91556390D01*
D12*
X143133471Y-91942514D02*
X143452074Y-88911212D01*
D10*
X143199650Y-91724236D02*
X145288146Y-91943746D01*
D12*
X145725551Y-89150164D02*
X145406948Y-92181466D01*
X145406948Y-92181466D02*
X143133471Y-91942514D01*
%TO.C,D-3-5*%
X165519786Y-93053972D02*
X164990506Y-96055666D01*
D10*
X164888576Y-95810237D02*
X164987057Y-95827602D01*
X162889939Y-95051653D02*
X165056516Y-95433679D01*
D12*
X163268516Y-92657012D02*
X165519786Y-93053972D01*
D10*
X162820480Y-95445576D02*
X164888576Y-95810237D01*
D12*
X164990506Y-96055666D02*
X162739236Y-95658706D01*
D10*
X164987057Y-95827602D02*
X164888576Y-95810237D01*
D12*
X162739236Y-95658706D02*
X163268516Y-92657012D01*
D10*
X165021787Y-95630641D02*
X162855209Y-95248615D01*
D12*
%TO.C,J1*%
X152290171Y-72768210D02*
X150791571Y-72768210D01*
X152478131Y-64853570D02*
X152478131Y-66123570D01*
X150791571Y-68368930D02*
X152290171Y-68368930D01*
X150791571Y-60469530D02*
X159689191Y-60469530D01*
X150791571Y-80667610D02*
X150791571Y-72768210D01*
X150791571Y-72768210D02*
X150791571Y-68368930D01*
X159788251Y-60469530D02*
X159788251Y-80667610D01*
X152516231Y-64853570D02*
X152516231Y-66123570D01*
X159788251Y-80667610D02*
X150791571Y-80667610D01*
X152290171Y-68368930D02*
X152290171Y-72768210D01*
X150791571Y-68368930D02*
X150791571Y-60469530D01*
D13*
%TO.C,U1*%
X164789511Y-23656339D02*
X167329511Y-23656339D01*
X167329511Y-51596339D02*
X149549511Y-51596339D01*
X149549511Y-18576339D02*
X167329511Y-18576339D01*
X164789511Y-21116339D02*
X164789511Y-23656339D01*
X164789511Y-21116339D02*
X167329511Y-21116339D01*
X167329511Y-18576339D02*
X167329511Y-51596339D01*
X149549511Y-51596339D02*
X149549511Y-18576339D01*
D10*
X152194876Y-27005369D02*
X152194876Y-27805369D01*
X152194876Y-27805369D02*
X152094876Y-27805369D01*
X152094876Y-27805369D02*
X152094876Y-27005369D01*
X152094876Y-27005369D02*
X152194876Y-27005369D01*
G36*
X152194876Y-27805369D02*
G01*
X152094876Y-27805369D01*
X152094876Y-27005369D01*
X152194876Y-27005369D01*
X152194876Y-27805369D01*
G37*
X152194876Y-27805369D02*
X152094876Y-27805369D01*
X152094876Y-27005369D01*
X152194876Y-27005369D01*
X152194876Y-27805369D01*
X152594876Y-27005369D02*
X152594876Y-27105369D01*
X152594876Y-27105369D02*
X152094876Y-27105369D01*
X152094876Y-27105369D02*
X152094876Y-27005369D01*
X152094876Y-27005369D02*
X152594876Y-27005369D01*
G36*
X152594876Y-27105369D02*
G01*
X152094876Y-27105369D01*
X152094876Y-27005369D01*
X152594876Y-27005369D01*
X152594876Y-27105369D01*
G37*
X152594876Y-27105369D02*
X152094876Y-27105369D01*
X152094876Y-27005369D01*
X152594876Y-27005369D01*
X152594876Y-27105369D01*
X152394876Y-27405369D02*
X152394876Y-27505369D01*
X152394876Y-27505369D02*
X152294876Y-27505369D01*
X152294876Y-27505369D02*
X152294876Y-27405369D01*
X152294876Y-27405369D02*
X152394876Y-27405369D01*
G36*
X152394876Y-27505369D02*
G01*
X152294876Y-27505369D01*
X152294876Y-27405369D01*
X152394876Y-27405369D01*
X152394876Y-27505369D01*
G37*
X152394876Y-27505369D02*
X152294876Y-27505369D01*
X152294876Y-27405369D01*
X152394876Y-27405369D01*
X152394876Y-27505369D01*
X152594876Y-27605369D02*
X152594876Y-27805369D01*
X152594876Y-27805369D02*
X152494876Y-27805369D01*
X152494876Y-27805369D02*
X152494876Y-27605369D01*
X152494876Y-27605369D02*
X152594876Y-27605369D01*
G36*
X152594876Y-27805369D02*
G01*
X152494876Y-27805369D01*
X152494876Y-27605369D01*
X152594876Y-27605369D01*
X152594876Y-27805369D01*
G37*
X152594876Y-27805369D02*
X152494876Y-27805369D01*
X152494876Y-27605369D01*
X152594876Y-27605369D01*
X152594876Y-27805369D01*
X152594876Y-27005369D02*
X152594876Y-27305369D01*
X152594876Y-27305369D02*
X152494876Y-27305369D01*
X152494876Y-27305369D02*
X152494876Y-27005369D01*
X152494876Y-27005369D02*
X152594876Y-27005369D01*
G36*
X152594876Y-27305369D02*
G01*
X152494876Y-27305369D01*
X152494876Y-27005369D01*
X152594876Y-27005369D01*
X152594876Y-27305369D01*
G37*
X152594876Y-27305369D02*
X152494876Y-27305369D01*
X152494876Y-27005369D01*
X152594876Y-27005369D01*
X152594876Y-27305369D01*
%TD*%
D14*
%TO.C,U1*%
X166059511Y-22386339D03*
D15*
X166059511Y-24926339D03*
X166059511Y-27466339D03*
X166059511Y-30006339D03*
X166059511Y-32546339D03*
X166059511Y-35086339D03*
X166059511Y-37626339D03*
X166059511Y-40166339D03*
X166059511Y-42706339D03*
X166059511Y-45246339D03*
X166059511Y-47786339D03*
X166059511Y-50326339D03*
X150819511Y-50326339D03*
X150819511Y-47786339D03*
X150819511Y-45246339D03*
X150819511Y-42706339D03*
X150819511Y-40166339D03*
X150819511Y-37626339D03*
X150819511Y-35086339D03*
X150819511Y-32546339D03*
X150819511Y-30006339D03*
X150819511Y-27466339D03*
X150819511Y-24926339D03*
X150819511Y-22386339D03*
%TD*%
M02*
