%TF.GenerationSoftware,KiCad,Pcbnew,(6.0.0-0)*%
%TF.CreationDate,2022-01-05T20:16:18+07:00*%
%TF.ProjectId,kibod-01,6b69626f-642d-4303-912e-6b696361645f,rev?*%
%TF.SameCoordinates,Original*%
%TF.FileFunction,OtherDrawing,Comment*%
%FSLAX46Y46*%
G04 Gerber Fmt 4.6, Leading zero omitted, Abs format (unit mm)*
G04 Created by KiCad (PCBNEW (6.0.0-0)) date 2022-01-05 20:16:18*
%MOMM*%
%LPD*%
G01*
G04 APERTURE LIST*
%ADD10C,0.150000*%
%ADD11C,0.100000*%
%ADD12C,0.066040*%
%ADD13C,0.203200*%
%ADD14C,0.200000*%
G04 APERTURE END LIST*
D10*
%TO.C,U2*%
X152977491Y-59304243D02*
X153787015Y-59304243D01*
X153882253Y-59256624D01*
X153929872Y-59209005D01*
X153977491Y-59113767D01*
X153977491Y-58923291D01*
X153929872Y-58828053D01*
X153882253Y-58780434D01*
X153787015Y-58732815D01*
X152977491Y-58732815D01*
X153072730Y-58304243D02*
X153025111Y-58256624D01*
X152977491Y-58161386D01*
X152977491Y-57923291D01*
X153025111Y-57828053D01*
X153072730Y-57780434D01*
X153167968Y-57732815D01*
X153263206Y-57732815D01*
X153406063Y-57780434D01*
X153977491Y-58351862D01*
X153977491Y-57732815D01*
D11*
%TO.C,K-0-0*%
X13896511Y-42180044D02*
X32657099Y-38872046D01*
X17204509Y-60940632D02*
X13896511Y-42180044D01*
X32657099Y-38872046D02*
X35965097Y-57632634D01*
X35965097Y-57632634D02*
X17204509Y-60940632D01*
%TO.C,K-0-1*%
X58132371Y-53884190D02*
X39267764Y-56535437D01*
X39267764Y-56535437D02*
X36616517Y-37670830D01*
X36616517Y-37670830D02*
X55481124Y-35019583D01*
X55481124Y-35019583D02*
X58132371Y-53884190D01*
%TO.C,K-0-2*%
X77112218Y-20396259D02*
X79103486Y-39341901D01*
X58166576Y-22387527D02*
X77112218Y-20396259D01*
X60157844Y-41333169D02*
X58166576Y-22387527D01*
X79103486Y-39341901D02*
X60157844Y-41333169D01*
%TO.C,K-0-3*%
X101640737Y-35355158D02*
X82637142Y-36684019D01*
X100311876Y-16351563D02*
X101640737Y-35355158D01*
X82637142Y-36684019D02*
X81308281Y-17680424D01*
X81308281Y-17680424D02*
X100311876Y-16351563D01*
%TO.C,K-0-4*%
X105486261Y-37285251D02*
X104821426Y-18246856D01*
X124524656Y-36620416D02*
X105486261Y-37285251D01*
X123859821Y-17582021D02*
X124524656Y-36620416D01*
X104821426Y-18246856D02*
X123859821Y-17582021D01*
%TO.C,K-0-5*%
X146374511Y-20061339D02*
X146374511Y-39111339D01*
X146374511Y-39111339D02*
X127324511Y-39111339D01*
X127324511Y-39111339D02*
X127324511Y-20061339D01*
X127324511Y-20061339D02*
X146374511Y-20061339D01*
%TO.C,K-1-0*%
X39273094Y-76281865D02*
X20512506Y-79589863D01*
X35965096Y-57521277D02*
X39273094Y-76281865D01*
X17204508Y-60829275D02*
X35965096Y-57521277D01*
X20512506Y-79589863D02*
X17204508Y-60829275D01*
%TO.C,K-1-1*%
X60783616Y-72748796D02*
X41919009Y-75400043D01*
X58132369Y-53884189D02*
X60783616Y-72748796D01*
X39267762Y-56535436D02*
X58132369Y-53884189D01*
X41919009Y-75400043D02*
X39267762Y-56535436D01*
%TO.C,K-1-2*%
X60157841Y-41333170D02*
X79103483Y-39341902D01*
X62149109Y-60278812D02*
X60157841Y-41333170D01*
X81094751Y-58287544D02*
X62149109Y-60278812D01*
X79103483Y-39341902D02*
X81094751Y-58287544D01*
%TO.C,K-1-3*%
X83966002Y-55687613D02*
X82637141Y-36684018D01*
X82637141Y-36684018D02*
X101640736Y-35355157D01*
X102969597Y-54358752D02*
X83966002Y-55687613D01*
X101640736Y-35355157D02*
X102969597Y-54358752D01*
%TO.C,K-1-4*%
X105486261Y-37285251D02*
X124524656Y-36620416D01*
X125189491Y-55658811D02*
X106151096Y-56323646D01*
X124524656Y-36620416D02*
X125189491Y-55658811D01*
X106151096Y-56323646D02*
X105486261Y-37285251D01*
%TO.C,K-1-5*%
X146374511Y-58161339D02*
X127324511Y-58161339D01*
X127324511Y-58161339D02*
X127324511Y-39111339D01*
X127324511Y-39111339D02*
X146374511Y-39111339D01*
X146374511Y-39111339D02*
X146374511Y-58161339D01*
%TO.C,K-2-0*%
X20512506Y-79589863D02*
X39273094Y-76281865D01*
X23820504Y-98350451D02*
X20512506Y-79589863D01*
X39273094Y-76281865D02*
X42581092Y-95042453D01*
X42581092Y-95042453D02*
X23820504Y-98350451D01*
%TO.C,K-2-1*%
X60783619Y-72748796D02*
X63434866Y-91613403D01*
X63434866Y-91613403D02*
X44570259Y-94264650D01*
X41919012Y-75400043D02*
X60783619Y-72748796D01*
X44570259Y-94264650D02*
X41919012Y-75400043D01*
%TO.C,K-2-2*%
X81094751Y-58287542D02*
X83086019Y-77233184D01*
X62149109Y-60278810D02*
X81094751Y-58287542D01*
X83086019Y-77233184D02*
X64140377Y-79224452D01*
X64140377Y-79224452D02*
X62149109Y-60278810D01*
%TO.C,K-2-3*%
X83966002Y-55687614D02*
X102969597Y-54358753D01*
X102969597Y-54358753D02*
X104298458Y-73362348D01*
X85294863Y-74691209D02*
X83966002Y-55687614D01*
X104298458Y-73362348D02*
X85294863Y-74691209D01*
%TO.C,K-2-4*%
X125854326Y-74697206D02*
X106815931Y-75362041D01*
X106151096Y-56323646D02*
X125189491Y-55658811D01*
X106815931Y-75362041D02*
X106151096Y-56323646D01*
X125189491Y-55658811D02*
X125854326Y-74697206D01*
%TO.C,K-2-5*%
X146374511Y-77211339D02*
X127324511Y-77211339D01*
X127324511Y-77211339D02*
X127324511Y-58161339D01*
X127324511Y-58161339D02*
X146374511Y-58161339D01*
X146374511Y-58161339D02*
X146374511Y-77211339D01*
%TO.C,K-3-3*%
X125717064Y-97857954D02*
X106678669Y-97193119D01*
X107343504Y-78154724D02*
X126381899Y-78819559D01*
X126381899Y-78819559D02*
X125717064Y-97857954D01*
X106678669Y-97193119D02*
X107343504Y-78154724D01*
%TO.C,K-3-4*%
X146525249Y-80799152D02*
X144533981Y-99744794D01*
X125588339Y-97753526D02*
X127579607Y-78807884D01*
X127579607Y-78807884D02*
X146525249Y-80799152D01*
X144533981Y-99744794D02*
X125588339Y-97753526D01*
%TO.C,K-3-5*%
X144865218Y-99630037D02*
X148173216Y-80869449D01*
X148173216Y-80869449D02*
X166933804Y-84177447D01*
X163625806Y-102938035D02*
X144865218Y-99630037D01*
X166933804Y-84177447D02*
X163625806Y-102938035D01*
D12*
%TO.C,J1*%
X153765911Y-70822570D02*
X154273911Y-70822570D01*
X156813911Y-68282570D02*
X156813911Y-67774570D01*
X156813911Y-73362570D02*
X156813911Y-72854570D01*
X153765911Y-75394570D02*
X154273911Y-75394570D01*
X156305911Y-72854570D02*
X156813911Y-72854570D01*
X153765911Y-73362570D02*
X153765911Y-72854570D01*
X156305911Y-65234570D02*
X156813911Y-65234570D01*
X154273911Y-70822570D02*
X154273911Y-70314570D01*
X156305911Y-65742570D02*
X156813911Y-65742570D01*
X154273911Y-73362570D02*
X154273911Y-72854570D01*
X153765911Y-68282570D02*
X154273911Y-68282570D01*
X156813911Y-75902570D02*
X156813911Y-75394570D01*
X156813911Y-65742570D02*
X156813911Y-65234570D01*
X153765911Y-72854570D02*
X154273911Y-72854570D01*
D13*
X151891391Y-79567790D02*
X151891391Y-72768210D01*
D12*
X153765911Y-65742570D02*
X153765911Y-65234570D01*
X156813911Y-73362570D02*
X156813911Y-72854570D01*
X156305911Y-73362570D02*
X156813911Y-73362570D01*
D13*
X158688431Y-61569350D02*
X158688431Y-79567790D01*
D12*
X156305911Y-73362570D02*
X156305911Y-72854570D01*
X154273911Y-68282570D02*
X154273911Y-67774570D01*
X153765911Y-68282570D02*
X153765911Y-67774570D01*
X156305911Y-75394570D02*
X156813911Y-75394570D01*
X154273911Y-65742570D02*
X154273911Y-65234570D01*
X153765911Y-72854570D02*
X154273911Y-72854570D01*
X156305911Y-65742570D02*
X156305911Y-65234570D01*
X153765911Y-65234570D02*
X154273911Y-65234570D01*
X156305911Y-73362570D02*
X156305911Y-72854570D01*
X153765911Y-73362570D02*
X154273911Y-73362570D01*
X156305911Y-72854570D02*
X156813911Y-72854570D01*
X154273911Y-75902570D02*
X154273911Y-75394570D01*
X153765911Y-73362570D02*
X153765911Y-72854570D01*
X153765911Y-65742570D02*
X154273911Y-65742570D01*
X156305911Y-68282570D02*
X156305911Y-67774570D01*
X153765911Y-75902570D02*
X153765911Y-75394570D01*
D13*
X151891391Y-79567790D02*
X158688431Y-79567790D01*
D12*
X153765911Y-73362570D02*
X154273911Y-73362570D01*
X156305911Y-70314570D02*
X156813911Y-70314570D01*
X156305911Y-70822570D02*
X156813911Y-70822570D01*
D13*
X151891391Y-61569350D02*
X158688431Y-61569350D01*
D12*
X156305911Y-75902570D02*
X156813911Y-75902570D01*
X153765911Y-67774570D02*
X154273911Y-67774570D01*
X156305911Y-67774570D02*
X156813911Y-67774570D01*
X154273911Y-73362570D02*
X154273911Y-72854570D01*
X156305911Y-75902570D02*
X156305911Y-75394570D01*
X156813911Y-70822570D02*
X156813911Y-70314570D01*
X156305911Y-73362570D02*
X156813911Y-73362570D01*
X156305911Y-68282570D02*
X156813911Y-68282570D01*
X153765911Y-70822570D02*
X153765911Y-70314570D01*
X153765911Y-75902570D02*
X154273911Y-75902570D01*
D13*
X151891391Y-61569350D02*
X151891391Y-68368930D01*
D12*
X156305911Y-70822570D02*
X156305911Y-70314570D01*
X153765911Y-70314570D02*
X154273911Y-70314570D01*
D14*
%TO.C,U1*%
X162249511Y-22132339D02*
X162249511Y-17052339D01*
X154883511Y-17052339D02*
X154883511Y-22132339D01*
X154883511Y-22132339D02*
X162249511Y-22132339D01*
X162249511Y-17052339D02*
X154883511Y-17052339D01*
D12*
%TO.C,J2*%
X163570311Y-65234570D02*
X163062311Y-65234570D01*
X161030311Y-75902570D02*
X161030311Y-75394570D01*
X161030311Y-68282570D02*
X161030311Y-67774570D01*
X163570311Y-65742570D02*
X163062311Y-65742570D01*
X161030311Y-65234570D02*
X160522311Y-65234570D01*
X160522311Y-70822570D02*
X160522311Y-70314570D01*
X160522311Y-68282570D02*
X160522311Y-67774570D01*
X161030311Y-65742570D02*
X161030311Y-65234570D01*
X161030311Y-73362570D02*
X161030311Y-72854570D01*
X161030311Y-73362570D02*
X160522311Y-73362570D01*
X163570311Y-67774570D02*
X163062311Y-67774570D01*
X163570311Y-75902570D02*
X163570311Y-75394570D01*
X163570311Y-72854570D02*
X163062311Y-72854570D01*
D13*
X165444831Y-61569350D02*
X158647791Y-61569350D01*
X165444831Y-79567790D02*
X158647791Y-79567790D01*
D12*
X163570311Y-75902570D02*
X163062311Y-75902570D01*
X161030311Y-72854570D02*
X160522311Y-72854570D01*
D13*
X165444831Y-79567790D02*
X165444831Y-72768210D01*
D12*
X163570311Y-70822570D02*
X163570311Y-70314570D01*
X161030311Y-72854570D02*
X160522311Y-72854570D01*
X161030311Y-68282570D02*
X160522311Y-68282570D01*
X163570311Y-72854570D02*
X163062311Y-72854570D01*
X161030311Y-70822570D02*
X161030311Y-70314570D01*
X161030311Y-75394570D02*
X160522311Y-75394570D01*
X160522311Y-75902570D02*
X160522311Y-75394570D01*
X161030311Y-73362570D02*
X161030311Y-72854570D01*
X163570311Y-73362570D02*
X163062311Y-73362570D01*
X161030311Y-70314570D02*
X160522311Y-70314570D01*
X163570311Y-65742570D02*
X163570311Y-65234570D01*
X161030311Y-70822570D02*
X160522311Y-70822570D01*
X163570311Y-70822570D02*
X163062311Y-70822570D01*
X163570311Y-68282570D02*
X163570311Y-67774570D01*
X161030311Y-67774570D02*
X160522311Y-67774570D01*
X163570311Y-68282570D02*
X163062311Y-68282570D01*
X163062311Y-68282570D02*
X163062311Y-67774570D01*
D13*
X158647791Y-61569350D02*
X158647791Y-79567790D01*
D12*
X160522311Y-73362570D02*
X160522311Y-72854570D01*
X161030311Y-65742570D02*
X160522311Y-65742570D01*
X163570311Y-73362570D02*
X163062311Y-73362570D01*
X163570311Y-75394570D02*
X163062311Y-75394570D01*
X163062311Y-70822570D02*
X163062311Y-70314570D01*
X161030311Y-73362570D02*
X160522311Y-73362570D01*
X163062311Y-65742570D02*
X163062311Y-65234570D01*
X161030311Y-75902570D02*
X160522311Y-75902570D01*
X163062311Y-73362570D02*
X163062311Y-72854570D01*
X163570311Y-73362570D02*
X163570311Y-72854570D01*
X163570311Y-70314570D02*
X163062311Y-70314570D01*
X160522311Y-73362570D02*
X160522311Y-72854570D01*
X163570311Y-73362570D02*
X163570311Y-72854570D01*
D13*
X165444831Y-61569350D02*
X165444831Y-68368930D01*
D12*
X163062311Y-73362570D02*
X163062311Y-72854570D01*
X160522311Y-65742570D02*
X160522311Y-65234570D01*
X163062311Y-75902570D02*
X163062311Y-75394570D01*
%TD*%
M02*
