%TF.GenerationSoftware,KiCad,Pcbnew,(6.0.0-0)*%
%TF.CreationDate,2022-01-05T19:55:06+07:00*%
%TF.ProjectId,kibod-01,6b69626f-642d-4303-912e-6b696361645f,rev?*%
%TF.SameCoordinates,Original*%
%TF.FileFunction,Copper,L1,Top*%
%TF.FilePolarity,Positive*%
%FSLAX46Y46*%
G04 Gerber Fmt 4.6, Leading zero omitted, Abs format (unit mm)*
G04 Created by KiCad (PCBNEW (6.0.0-0)) date 2022-01-05 19:55:06*
%MOMM*%
%LPD*%
G01*
G04 APERTURE LIST*
G04 Aperture macros list*
%AMRotRect*
0 Rectangle, with rotation*
0 The origin of the aperture is its center*
0 $1 length*
0 $2 width*
0 $3 Rotation angle, in degrees counterclockwise*
0 Add horizontal line*
21,1,$1,$2,0,0,$3*%
G04 Aperture macros list end*
%TA.AperFunction,ComponentPad*%
%ADD10RotRect,1.651000X1.651000X10.000000*%
%TD*%
%TA.AperFunction,ComponentPad*%
%ADD11C,1.651000*%
%TD*%
%TA.AperFunction,ComponentPad*%
%ADD12RotRect,1.651000X1.651000X8.000000*%
%TD*%
%TA.AperFunction,ComponentPad*%
%ADD13RotRect,1.651000X1.651000X6.000000*%
%TD*%
%TA.AperFunction,ComponentPad*%
%ADD14RotRect,1.651000X1.651000X4.000000*%
%TD*%
%TA.AperFunction,ComponentPad*%
%ADD15RotRect,1.651000X1.651000X2.000000*%
%TD*%
%TA.AperFunction,ComponentPad*%
%ADD16R,1.651000X1.651000*%
%TD*%
%TA.AperFunction,ComponentPad*%
%ADD17RotRect,1.651000X1.651000X358.000000*%
%TD*%
%TA.AperFunction,ComponentPad*%
%ADD18RotRect,1.651000X1.651000X354.000000*%
%TD*%
%TA.AperFunction,ComponentPad*%
%ADD19RotRect,1.651000X1.651000X350.000000*%
%TD*%
%TA.AperFunction,ComponentPad*%
%ADD20C,2.200000*%
%TD*%
%TA.AperFunction,ComponentPad*%
%ADD21C,1.879600*%
%TD*%
%TA.AperFunction,ComponentPad*%
%ADD22O,2.200000X1.600000*%
%TD*%
%TA.AperFunction,ComponentPad*%
%ADD23R,1.752600X1.752600*%
%TD*%
%TA.AperFunction,ComponentPad*%
%ADD24C,1.752600*%
%TD*%
%TA.AperFunction,ViaPad*%
%ADD25C,0.800000*%
%TD*%
%TA.AperFunction,Conductor*%
%ADD26C,0.250000*%
%TD*%
G04 APERTURE END LIST*
D10*
%TO.P,D-0-0,1*%
%TO.N,RL0*%
X34291111Y-52388457D03*
D11*
%TO.P,D-0-0,2*%
%TO.N,Net-(D-0-0-Pad2)*%
X32967911Y-44884221D03*
%TD*%
D12*
%TO.P,D-0-1,1*%
%TO.N,RL0*%
X56559761Y-49061067D03*
D11*
%TO.P,D-0-1,2*%
%TO.N,Net-(D-0-1-Pad2)*%
X55499261Y-41515225D03*
%TD*%
D13*
%TO.P,D-0-2,1*%
%TO.N,RL0*%
X77557764Y-33375467D03*
D11*
%TO.P,D-0-2,2*%
%TO.N,Net-(D-0-2-Pad2)*%
X76761258Y-25797211D03*
%TD*%
D14*
%TO.P,D-0-3,1*%
%TO.N,RL0*%
X100285283Y-29251659D03*
D11*
%TO.P,D-0-3,2*%
%TO.N,Net-(D-0-3-Pad2)*%
X99753739Y-21650221D03*
%TD*%
D15*
%TO.P,D-0-4,1*%
%TO.N,RL0*%
X123462478Y-30800167D03*
D11*
%TO.P,D-0-4,2*%
%TO.N,Net-(D-0-4-Pad2)*%
X123196544Y-23184809D03*
%TD*%
D16*
%TO.P,D-0-5,1*%
%TO.N,RL0*%
X145739511Y-33396339D03*
D11*
%TO.P,D-0-5,2*%
%TO.N,Net-(D-0-5-Pad2)*%
X145739511Y-25776339D03*
%TD*%
D10*
%TO.P,D-1-0,1*%
%TO.N,RL1*%
X37491111Y-71136787D03*
D11*
%TO.P,D-1-0,2*%
%TO.N,Net-(D-1-0-Pad2)*%
X36167911Y-63632551D03*
%TD*%
D12*
%TO.P,D-1-1,1*%
%TO.N,RL1*%
X59259761Y-67748925D03*
D11*
%TO.P,D-1-1,2*%
%TO.N,Net-(D-1-1-Pad2)*%
X58199261Y-60203083D03*
%TD*%
D13*
%TO.P,D-1-2,1*%
%TO.N,RL1*%
X79527764Y-52425467D03*
D11*
%TO.P,D-1-2,2*%
%TO.N,Net-(D-1-2-Pad2)*%
X78731258Y-44847211D03*
%TD*%
D14*
%TO.P,D-1-3,1*%
%TO.N,RL1*%
X101555283Y-48255254D03*
D11*
%TO.P,D-1-3,2*%
%TO.N,Net-(D-1-3-Pad2)*%
X101023739Y-40653816D03*
%TD*%
D15*
%TO.P,D-1-4,1*%
%TO.N,RL1*%
X124062478Y-49838563D03*
D11*
%TO.P,D-1-4,2*%
%TO.N,Net-(D-1-4-Pad2)*%
X123796544Y-42223205D03*
%TD*%
D16*
%TO.P,D-1-5,1*%
%TO.N,RL1*%
X145739511Y-52446339D03*
D11*
%TO.P,D-1-5,2*%
%TO.N,Net-(D-1-5-Pad2)*%
X145739511Y-44826339D03*
%TD*%
D10*
%TO.P,D-2-0,1*%
%TO.N,RL2*%
X40591111Y-89218457D03*
D11*
%TO.P,D-2-0,2*%
%TO.N,Net-(D-2-0-Pad2)*%
X39267911Y-81714221D03*
%TD*%
D12*
%TO.P,D-2-1,1*%
%TO.N,RL2*%
X61559761Y-86613532D03*
D11*
%TO.P,D-2-1,2*%
%TO.N,Net-(D-2-1-Pad2)*%
X60499261Y-79067690D03*
%TD*%
D13*
%TO.P,D-2-2,1*%
%TO.N,RL2*%
X81367764Y-71475467D03*
D11*
%TO.P,D-2-2,2*%
%TO.N,Net-(D-2-2-Pad2)*%
X80571258Y-63897211D03*
%TD*%
D14*
%TO.P,D-2-3,1*%
%TO.N,RL2*%
X102825283Y-67258849D03*
D11*
%TO.P,D-2-3,2*%
%TO.N,Net-(D-2-3-Pad2)*%
X102293739Y-59657411D03*
%TD*%
D15*
%TO.P,D-2-4,1*%
%TO.N,RL2*%
X124862478Y-70146184D03*
D11*
%TO.P,D-2-4,2*%
%TO.N,Net-(D-2-4-Pad2)*%
X124596544Y-62530826D03*
%TD*%
D16*
%TO.P,D-2-5,1*%
%TO.N,RL2*%
X145739511Y-71496339D03*
D11*
%TO.P,D-2-5,2*%
%TO.N,Net-(D-2-5-Pad2)*%
X145739511Y-63876339D03*
%TD*%
D17*
%TO.P,D-3-3,1*%
%TO.N,RL3*%
X125096544Y-92079952D03*
D11*
%TO.P,D-3-3,2*%
%TO.N,Net-(D-3-3-Pad2)*%
X125362478Y-84464594D03*
%TD*%
D18*
%TO.P,D-3-4,1*%
%TO.N,RL3*%
X144031258Y-94335467D03*
D11*
%TO.P,D-3-4,2*%
%TO.N,Net-(D-3-4-Pad2)*%
X144827764Y-86757211D03*
%TD*%
D19*
%TO.P,D-3-5,1*%
%TO.N,RL3*%
X163467911Y-98108457D03*
D11*
%TO.P,D-3-5,2*%
%TO.N,Net-(D-3-5-Pad2)*%
X164791111Y-90604221D03*
%TD*%
D20*
%TO.P,K-0-0,2*%
%TO.N,Net-(D-0-0-Pad2)*%
X26580745Y-44751516D03*
%TO.P,K-0-0,1*%
%TO.N,CL0*%
X21009704Y-47277290D03*
%TD*%
%TO.P,K-0-1,2*%
%TO.N,Net-(D-0-1-Pad2)*%
X49203280Y-40683410D03*
%TO.P,K-0-1,1*%
%TO.N,CL1*%
X43547485Y-43013218D03*
%TD*%
%TO.P,K-0-2,2*%
%TO.N,Net-(D-0-2-Pad2)*%
X70640535Y-25837542D03*
%TO.P,K-0-2,1*%
%TO.N,CL2*%
X64906876Y-27968547D03*
%TD*%
%TO.P,K-0-3,2*%
%TO.N,Net-(D-0-3-Pad2)*%
X93654237Y-21563673D03*
%TO.P,K-0-3,1*%
%TO.N,CL3*%
X87849700Y-23493277D03*
%TD*%
%TO.P,K-0-4,2*%
%TO.N,Net-(D-0-4-Pad2)*%
X117024337Y-22558607D03*
%TO.P,K-0-4,1*%
%TO.N,CL4*%
X111155994Y-24284461D03*
%TD*%
%TO.P,K-0-5,2*%
%TO.N,Net-(D-0-5-Pad2)*%
X139369511Y-24796339D03*
%TO.P,K-0-5,1*%
%TO.N,CL5*%
X133444511Y-26316339D03*
%TD*%
%TO.P,K-1-0,2*%
%TO.N,Net-(D-1-0-Pad2)*%
X29888742Y-63400747D03*
%TO.P,K-1-0,1*%
%TO.N,CL0*%
X24317701Y-65926521D03*
%TD*%
%TO.P,K-1-1,2*%
%TO.N,Net-(D-1-1-Pad2)*%
X51854525Y-59548016D03*
%TO.P,K-1-1,1*%
%TO.N,CL1*%
X46198730Y-61877824D03*
%TD*%
%TO.P,K-1-2,2*%
%TO.N,Net-(D-1-2-Pad2)*%
X72631800Y-44783185D03*
%TO.P,K-1-2,1*%
%TO.N,CL2*%
X66898141Y-46914190D03*
%TD*%
%TO.P,K-1-3,2*%
%TO.N,Net-(D-1-3-Pad2)*%
X94983097Y-40567267D03*
%TO.P,K-1-3,1*%
%TO.N,CL3*%
X89178560Y-42496871D03*
%TD*%
%TO.P,K-1-4,2*%
%TO.N,Net-(D-1-4-Pad2)*%
X117689172Y-41597002D03*
%TO.P,K-1-4,1*%
%TO.N,CL4*%
X111820829Y-43322856D03*
%TD*%
%TO.P,K-1-5,2*%
%TO.N,Net-(D-1-5-Pad2)*%
X139369511Y-43846339D03*
%TO.P,K-1-5,1*%
%TO.N,CL5*%
X133444511Y-45366339D03*
%TD*%
%TO.P,K-2-0,2*%
%TO.N,Net-(D-2-0-Pad2)*%
X33196740Y-82161335D03*
%TO.P,K-2-0,1*%
%TO.N,CL0*%
X27625699Y-84687109D03*
%TD*%
%TO.P,K-2-1,2*%
%TO.N,Net-(D-2-1-Pad2)*%
X54505775Y-78412623D03*
%TO.P,K-2-1,1*%
%TO.N,CL1*%
X48849980Y-80742431D03*
%TD*%
%TO.P,K-2-2,2*%
%TO.N,Net-(D-2-2-Pad2)*%
X74623068Y-63728825D03*
%TO.P,K-2-2,1*%
%TO.N,CL2*%
X68889409Y-65859830D03*
%TD*%
%TO.P,K-2-3,2*%
%TO.N,Net-(D-2-3-Pad2)*%
X96311958Y-59570863D03*
%TO.P,K-2-3,1*%
%TO.N,CL3*%
X90507421Y-61500467D03*
%TD*%
%TO.P,K-2-4,2*%
%TO.N,Net-(D-2-4-Pad2)*%
X118354007Y-60635397D03*
%TO.P,K-2-4,1*%
%TO.N,CL4*%
X112485664Y-62361251D03*
%TD*%
%TO.P,K-2-5,2*%
%TO.N,Net-(D-2-5-Pad2)*%
X139369511Y-62896339D03*
%TO.P,K-2-5,1*%
%TO.N,CL5*%
X133444511Y-64416339D03*
%TD*%
%TO.P,K-3-3,2*%
%TO.N,Net-(D-3-3-Pad2)*%
X119215917Y-83307204D03*
%TO.P,K-3-3,1*%
%TO.N,CL3*%
X113241480Y-84619498D03*
%TD*%
%TO.P,K-3-4,2*%
%TO.N,Net-(D-3-4-Pad2)*%
X139063681Y-84775991D03*
%TO.P,K-3-4,1*%
%TO.N,CL4*%
X133012255Y-85668333D03*
%TD*%
%TO.P,K-3-5,2*%
%TO.N,Net-(D-3-5-Pad2)*%
X159213001Y-87624106D03*
%TO.P,K-3-5,1*%
%TO.N,CL5*%
X153114070Y-88092149D03*
%TD*%
D21*
%TO.P,J1,1,Pin_1*%
%TO.N,CL5*%
X154019911Y-65488570D03*
%TO.P,J1,2,Pin_2*%
%TO.N,RC3*%
X156559911Y-65488570D03*
%TO.P,J1,3,Pin_3*%
%TO.N,CL4*%
X154019911Y-68028570D03*
%TO.P,J1,4,Pin_4*%
%TO.N,RC2*%
X156559911Y-68028570D03*
%TO.P,J1,5,Pin_5*%
%TO.N,CL3*%
X154019911Y-70568570D03*
%TO.P,J1,6,Pin_6*%
%TO.N,RC1*%
X156559911Y-70568570D03*
%TO.P,J1,7,Pin_7*%
%TO.N,CL2*%
X154019911Y-73108570D03*
%TO.P,J1,8,Pin_8*%
%TO.N,RC0*%
X156559911Y-73108570D03*
%TO.P,J1,9,Pin_9*%
%TO.N,CL1*%
X154019911Y-75648570D03*
%TO.P,J1,10,Pin_10*%
%TO.N,CL0*%
X156559911Y-75648570D03*
%TD*%
D22*
%TO.P,U2,4,RING2*%
%TO.N,unconnected-(U2-Pad4)*%
X164525111Y-58542339D03*
%TO.P,U2,3,RING1*%
%TO.N,GND*%
X161525111Y-58542339D03*
%TO.P,U2,2,TIP*%
%TO.N,VCC*%
X157525111Y-58542339D03*
%TO.P,U2,1,SLEEVE*%
%TO.N,SDA*%
X156425111Y-63142339D03*
X156425111Y-53942339D03*
%TD*%
D23*
%TO.P,U1,1,TX*%
%TO.N,unconnected-(U1-Pad1)*%
X166059511Y-22386339D03*
D24*
%TO.P,U1,2,RX*%
%TO.N,unconnected-(U1-Pad2)*%
X166059511Y-24926339D03*
%TO.P,U1,3,GND*%
%TO.N,GND*%
X166059511Y-27466339D03*
%TO.P,U1,4,GND*%
X166059511Y-30006339D03*
%TO.P,U1,5,SDA*%
%TO.N,SDA*%
X166059511Y-32546339D03*
%TO.P,U1,6,SCL*%
%TO.N,unconnected-(U1-Pad6)*%
X166059511Y-35086339D03*
%TO.P,U1,7,D4*%
%TO.N,CL0*%
X166059511Y-37626339D03*
%TO.P,U1,8,C6*%
%TO.N,CL1*%
X166059511Y-40166339D03*
%TO.P,U1,9,D7*%
%TO.N,CL2*%
X166059511Y-42706339D03*
%TO.P,U1,10,E6*%
%TO.N,CL3*%
X166059511Y-45246339D03*
%TO.P,U1,11,B4*%
%TO.N,CL4*%
X166059511Y-47786339D03*
%TO.P,U1,12,B5*%
%TO.N,CL5*%
X166059511Y-50326339D03*
%TO.P,U1,13,B6*%
%TO.N,RC3*%
X150819511Y-50326339D03*
%TO.P,U1,14,B2*%
%TO.N,RC2*%
X150819511Y-47786339D03*
%TO.P,U1,15,B3*%
%TO.N,RC1*%
X150819511Y-45246339D03*
%TO.P,U1,16,B1*%
%TO.N,RC0*%
X150819511Y-42706339D03*
%TO.P,U1,17,F7*%
%TO.N,RL3*%
X150819511Y-40166339D03*
%TO.P,U1,18,F6*%
%TO.N,RL2*%
X150819511Y-37626339D03*
%TO.P,U1,19,F5*%
%TO.N,RL1*%
X150819511Y-35086339D03*
%TO.P,U1,20,F4*%
%TO.N,RL0*%
X150819511Y-32546339D03*
%TO.P,U1,21,VCC*%
%TO.N,VCC*%
X150819511Y-30006339D03*
%TO.P,U1,22,RST*%
%TO.N,unconnected-(U1-Pad22)*%
X150819511Y-27466339D03*
%TO.P,U1,23,GND*%
%TO.N,GND*%
X150819511Y-24926339D03*
%TO.P,U1,24,RAW*%
%TO.N,unconnected-(U1-Pad24)*%
X150819511Y-22386339D03*
%TD*%
D21*
%TO.P,J2,1,Pin_1*%
%TO.N,CL5*%
X163316311Y-65488570D03*
%TO.P,J2,2,Pin_2*%
%TO.N,RL3*%
X160776311Y-65488570D03*
%TO.P,J2,3,Pin_3*%
%TO.N,CL4*%
X163316311Y-68028570D03*
%TO.P,J2,4,Pin_4*%
%TO.N,RL2*%
X160776311Y-68028570D03*
%TO.P,J2,5,Pin_5*%
%TO.N,CL3*%
X163316311Y-70568570D03*
%TO.P,J2,6,Pin_6*%
%TO.N,RL1*%
X160776311Y-70568570D03*
%TO.P,J2,7,Pin_7*%
%TO.N,CL2*%
X163316311Y-73108570D03*
%TO.P,J2,8,Pin_8*%
%TO.N,RL0*%
X160776311Y-73108570D03*
%TO.P,J2,9,Pin_9*%
%TO.N,CL1*%
X163316311Y-75648570D03*
%TO.P,J2,10,Pin_10*%
%TO.N,CL0*%
X160776311Y-75648570D03*
%TD*%
D25*
%TO.N,RL0*%
X166719911Y-62758739D03*
X150900324Y-78405139D03*
X144469511Y-56713539D03*
%TO.N,GND*%
X156645967Y-41937393D03*
%TO.N,SDA*%
X157365174Y-51283091D03*
X157352722Y-42644148D03*
%TO.N,VCC*%
X155939212Y-41230638D03*
%TO.N,RL1*%
X150175824Y-77541539D03*
X166770711Y-63774739D03*
X146653911Y-57881939D03*
%TO.N,RL2*%
X149451324Y-76522126D03*
X166821511Y-64841539D03*
%TO.N,RL3*%
X166872311Y-65857539D03*
%TD*%
D26*
%TO.N,Net-(D-1-0-Pad2)*%
X29888742Y-63400747D02*
X35936107Y-63400747D01*
%TO.N,Net-(D-1-1-Pad2)*%
X51854525Y-59548016D02*
X57544194Y-59548016D01*
X57544194Y-59548016D02*
X58199261Y-60203083D01*
%TO.N,Net-(D-1-2-Pad2)*%
X72631800Y-44783185D02*
X78667232Y-44783185D01*
%TO.N,Net-(D-1-3-Pad2)*%
X94983097Y-40567267D02*
X100937190Y-40567267D01*
%TO.N,Net-(D-1-4-Pad2)*%
X117689172Y-41597002D02*
X123170341Y-41597002D01*
X123170341Y-41597002D02*
X123796544Y-42223205D01*
%TO.N,Net-(D-1-5-Pad2)*%
X139369511Y-43846339D02*
X144759511Y-43846339D01*
X144759511Y-43846339D02*
X145739511Y-44826339D01*
%TO.N,Net-(D-2-0-Pad2)*%
X33196740Y-82161335D02*
X38820797Y-82161335D01*
%TO.N,Net-(D-2-1-Pad2)*%
X59844194Y-78412623D02*
X60499261Y-79067690D01*
X54505775Y-78412623D02*
X59844194Y-78412623D01*
%TO.N,Net-(D-2-2-Pad2)*%
X74623068Y-63728825D02*
X80402872Y-63728825D01*
%TO.N,Net-(D-2-3-Pad2)*%
X96311958Y-59570863D02*
X102207191Y-59570863D01*
%TO.N,Net-(D-2-4-Pad2)*%
X122701115Y-60635397D02*
X124596544Y-62530826D01*
X118354007Y-60635397D02*
X122701115Y-60635397D01*
%TO.N,Net-(D-2-5-Pad2)*%
X139369511Y-62896339D02*
X144759511Y-62896339D01*
X144759511Y-62896339D02*
X145739511Y-63876339D01*
%TO.N,Net-(D-3-3-Pad2)*%
X119215917Y-83307204D02*
X124205088Y-83307204D01*
X124205088Y-83307204D02*
X125362478Y-84464594D01*
%TO.N,Net-(D-3-4-Pad2)*%
X142846544Y-84775991D02*
X144827764Y-86757211D01*
X139063681Y-84775991D02*
X142846544Y-84775991D01*
%TO.N,Net-(D-3-5-Pad2)*%
X159213001Y-87624106D02*
X161810996Y-87624106D01*
X161810996Y-87624106D02*
X164791111Y-90604221D01*
%TO.N,RL0*%
X53232371Y-52388457D02*
X56559761Y-49061067D01*
X146713325Y-56916739D02*
X144672711Y-56916739D01*
X136646311Y-33396339D02*
X135630311Y-33396339D01*
X158612960Y-70945219D02*
X160776311Y-73108570D01*
X126058650Y-33396339D02*
X123462478Y-30800167D01*
X135630311Y-33396339D02*
X142386711Y-33396339D01*
X166618311Y-62657139D02*
X166719911Y-62758739D01*
X145739511Y-33396339D02*
X142386711Y-33396339D01*
X150900324Y-78405139D02*
X150900324Y-61103738D01*
X101833791Y-30800167D02*
X123462478Y-30800167D01*
X77557764Y-33375467D02*
X96161475Y-33375467D01*
X160191393Y-62657139D02*
X158612960Y-64235572D01*
X72245361Y-33375467D02*
X56559761Y-49061067D01*
X96161475Y-33375467D02*
X100285283Y-29251659D01*
X77557764Y-33375467D02*
X72245361Y-33375467D01*
X158612960Y-64235572D02*
X158612960Y-70945219D01*
X34291111Y-52388457D02*
X53232371Y-52388457D01*
X100285283Y-29251659D02*
X101833791Y-30800167D01*
X150900324Y-61103738D02*
X146713325Y-56916739D01*
X142386711Y-33396339D02*
X136646311Y-33396339D01*
X160191393Y-62657139D02*
X166618311Y-62657139D01*
X135630311Y-33396339D02*
X126058650Y-33396339D01*
X144672711Y-56916739D02*
X144469511Y-56713539D01*
%TO.N,GND*%
X156107431Y-42475929D02*
X156645967Y-41937393D01*
X156107431Y-51079459D02*
X156107431Y-42475929D01*
X161525111Y-56497139D02*
X156107431Y-51079459D01*
X161525111Y-58542339D02*
X161525111Y-56497139D01*
%TO.N,SDA*%
X156556951Y-50893261D02*
X156556951Y-43439919D01*
X156556951Y-43439919D02*
X157352722Y-42644148D01*
X156946781Y-51283091D02*
X156556951Y-50893261D01*
X157365174Y-51283091D02*
X156946781Y-51283091D01*
%TO.N,VCC*%
X155657911Y-51284828D02*
X157849631Y-53476548D01*
X155657911Y-41511939D02*
X155939212Y-41230638D01*
X155657911Y-51284828D02*
X155657911Y-41511939D01*
X157849631Y-58217819D02*
X157849631Y-53476548D01*
%TO.N,RL1*%
X103138592Y-49838563D02*
X124062478Y-49838563D01*
X160776311Y-70568570D02*
X159062480Y-68854739D01*
X150175824Y-61403852D02*
X146653911Y-57881939D01*
X37491111Y-71136787D02*
X55871899Y-71136787D01*
X160217511Y-63266739D02*
X165471390Y-63266739D01*
X79527764Y-52425467D02*
X97385070Y-52425467D01*
X124062478Y-49838563D02*
X126670254Y-52446339D01*
X166740776Y-63804674D02*
X166770711Y-63774739D01*
X166009325Y-63804674D02*
X166740776Y-63804674D01*
X59259761Y-67748925D02*
X74583219Y-52425467D01*
X126670254Y-52446339D02*
X145739511Y-52446339D01*
X97385070Y-52425467D02*
X101555283Y-48255254D01*
X159062480Y-68854739D02*
X159062480Y-64421770D01*
X55871899Y-71136787D02*
X59259761Y-67748925D01*
X101555283Y-48255254D02*
X103138592Y-49838563D01*
X159062480Y-64421770D02*
X160217511Y-63266739D01*
X74583219Y-52425467D02*
X79527764Y-52425467D01*
X165471390Y-63266739D02*
X166009325Y-63804674D01*
X150175824Y-77541539D02*
X150175824Y-61403852D01*
%TO.N,RL2*%
X159512000Y-66764259D02*
X159512000Y-64807741D01*
X159512000Y-64807741D02*
X160545002Y-63774739D01*
X166804568Y-64858482D02*
X166821511Y-64841539D01*
X40591111Y-89218457D02*
X58954836Y-89218457D01*
X61559761Y-86613532D02*
X61559761Y-81521101D01*
X164954791Y-63774739D02*
X166038534Y-64858482D01*
X71605395Y-71475467D02*
X81367764Y-71475467D01*
X145739511Y-72810313D02*
X145739511Y-71496339D01*
X160545002Y-63774739D02*
X164954791Y-63774739D01*
X61559761Y-81521101D02*
X71605395Y-71475467D01*
X105712618Y-70146184D02*
X102825283Y-67258849D01*
X145739511Y-71496339D02*
X126212633Y-71496339D01*
X102825283Y-67258849D02*
X85584382Y-67258849D01*
X160776311Y-68028570D02*
X159512000Y-66764259D01*
X166038534Y-64858482D02*
X166804568Y-64858482D01*
X58954836Y-89218457D02*
X61559761Y-86613532D01*
X149451324Y-76522126D02*
X145739511Y-72810313D01*
X124862478Y-70146184D02*
X105712618Y-70146184D01*
X126212633Y-71496339D02*
X124862478Y-70146184D01*
X85584382Y-67258849D02*
X81367764Y-71475467D01*
%TO.N,RL3*%
X163467911Y-98108457D02*
X147804248Y-98108457D01*
X162040622Y-64224259D02*
X164375431Y-64224259D01*
X147804248Y-98108457D02*
X144031258Y-94335467D01*
X164375431Y-64224259D02*
X166008711Y-65857539D01*
X144031258Y-94335467D02*
X127352059Y-94335467D01*
X160776311Y-65488570D02*
X162040622Y-64224259D01*
X127352059Y-94335467D02*
X125096544Y-92079952D01*
X166008711Y-65857539D02*
X166872311Y-65857539D01*
%TO.N,CL0*%
X149969511Y-53716339D02*
X152953111Y-50732739D01*
X152953111Y-50732739D02*
X152953111Y-39113139D01*
X29356240Y-74849610D02*
X57140779Y-74849610D01*
X78287487Y-53716340D02*
X149969511Y-53716339D01*
X154439911Y-37626339D02*
X166059511Y-37626339D01*
X157329591Y-77891450D02*
X160006631Y-77891450D01*
X57147498Y-74856329D02*
X78287487Y-53716340D01*
X27625699Y-76580151D02*
X29356240Y-74849610D01*
X27625699Y-84687109D02*
X27625699Y-76580151D01*
X156559911Y-75648570D02*
X156559911Y-77121770D01*
X156559911Y-77121770D02*
X157329591Y-77891450D01*
X160776311Y-77121770D02*
X160776311Y-75648570D01*
X57140779Y-74849610D02*
X57147498Y-74856329D01*
X152953111Y-39113139D02*
X154439911Y-37626339D01*
X160006631Y-77891450D02*
X160776311Y-77121770D01*
%TO.N,CL1*%
X163969031Y-38075859D02*
X166059511Y-40166339D01*
X153410311Y-50911949D02*
X153410311Y-39291657D01*
X155560022Y-78340970D02*
X161776200Y-78340970D01*
X54292792Y-75299620D02*
X56832792Y-75299620D01*
X57333898Y-75306339D02*
X78473888Y-54166349D01*
X56839511Y-75306339D02*
X57333898Y-75306339D01*
X78473888Y-54166349D02*
X150155911Y-54166349D01*
X154019911Y-75648570D02*
X154019911Y-76800858D01*
X154626109Y-38075859D02*
X163969031Y-38075859D01*
X161776200Y-78340970D02*
X163316311Y-76800859D01*
X163316311Y-76800859D02*
X163316311Y-75648570D01*
X48849980Y-80742431D02*
X54292792Y-75299620D01*
X153410311Y-39291657D02*
X154626109Y-38075859D01*
X150155911Y-54166349D02*
X153410311Y-50911949D01*
X154019911Y-76800858D02*
X155560022Y-78340970D01*
X56832792Y-75299620D02*
X56839511Y-75306339D01*
%TO.N,CL2*%
X153859831Y-51206059D02*
X153859831Y-39477855D01*
X164580622Y-74372881D02*
X164580622Y-76172266D01*
X68889409Y-65859830D02*
X68889409Y-64526441D01*
X154812307Y-38525379D02*
X163468711Y-38525379D01*
X164738711Y-41385539D02*
X166059511Y-42706339D01*
X164738711Y-39795379D02*
X164738711Y-41385539D01*
X78799491Y-54616359D02*
X150449531Y-54616359D01*
X163316311Y-73108570D02*
X164580622Y-74372881D01*
X152749911Y-76166577D02*
X152749911Y-74378570D01*
X164580622Y-76172266D02*
X161954718Y-78798170D01*
X161954718Y-78798170D02*
X155381504Y-78798170D01*
X68889409Y-64526441D02*
X78799491Y-54616359D01*
X152749911Y-74378570D02*
X154019911Y-73108570D01*
X163468711Y-38525379D02*
X164738711Y-39795379D01*
X150449531Y-54616359D02*
X153859831Y-51206059D01*
X153859831Y-39477855D02*
X154812307Y-38525379D01*
X155381504Y-78798170D02*
X152749911Y-76166577D01*
%TO.N,CL3*%
X155202986Y-79255370D02*
X152300391Y-76352774D01*
X152300391Y-72288090D02*
X154019911Y-70568570D01*
X165030142Y-72282401D02*
X165030142Y-76358464D01*
X163256071Y-38974899D02*
X164289191Y-40008019D01*
X164289191Y-40008019D02*
X164289191Y-43476019D01*
X154309351Y-51496499D02*
X154309351Y-39664053D01*
X154998505Y-38974899D02*
X163256071Y-38974899D01*
X150739481Y-55066369D02*
X154309351Y-51496499D01*
X163316311Y-70568570D02*
X165030142Y-72282401D01*
X154309351Y-39664053D02*
X154998505Y-38974899D01*
X164289191Y-43476019D02*
X166059511Y-45246339D01*
X90507421Y-56958459D02*
X92399511Y-55066369D01*
X162133236Y-79255370D02*
X155202986Y-79255370D01*
X92399511Y-55066369D02*
X150739481Y-55066369D01*
X90507421Y-61500467D02*
X90507421Y-56958459D01*
X152300391Y-76352774D02*
X152300391Y-72288090D01*
X165030142Y-76358464D02*
X162133236Y-79255370D01*
%TO.N,CL4*%
X151850871Y-76538972D02*
X151850871Y-70197610D01*
X155016789Y-79704890D02*
X151850871Y-76538972D01*
X151850871Y-70197610D02*
X154019911Y-68028570D01*
X114729471Y-55516379D02*
X150925881Y-55516379D01*
X154758871Y-51683389D02*
X154758871Y-39850251D01*
X165479662Y-76584019D02*
X162358791Y-79704890D01*
X165479662Y-70191921D02*
X165479662Y-76584019D01*
X112485664Y-57760186D02*
X114729471Y-55516379D01*
X154758871Y-39850251D02*
X155184703Y-39424419D01*
X162358791Y-79704890D02*
X155016789Y-79704890D01*
X112485664Y-62361251D02*
X112485664Y-57760186D01*
X163839671Y-40194217D02*
X163839671Y-45566499D01*
X163069873Y-39424419D02*
X163839671Y-40194217D01*
X163839671Y-45566499D02*
X166059511Y-47786339D01*
X163316311Y-68028570D02*
X165479662Y-70191921D01*
X155184703Y-39424419D02*
X163069873Y-39424419D01*
X150925881Y-55516379D02*
X154758871Y-51683389D01*
%TO.N,CL5*%
X133444511Y-58391339D02*
X135869461Y-55966389D01*
X163390151Y-40380415D02*
X163390151Y-47656979D01*
X154830592Y-80154410D02*
X151401351Y-76725169D01*
X151401351Y-68107130D02*
X154019911Y-65488570D01*
X155503151Y-39959579D02*
X162969315Y-39959579D01*
X162544988Y-80154410D02*
X154830592Y-80154410D01*
X151401351Y-76725169D02*
X151401351Y-68107130D01*
X163316311Y-65488570D02*
X165929182Y-68101441D01*
X135869461Y-55966389D02*
X151112281Y-55966389D01*
X165929182Y-76770216D02*
X162544988Y-80154410D01*
X155208391Y-51870279D02*
X155208391Y-40254339D01*
X163390151Y-47656979D02*
X166059511Y-50326339D01*
X162969315Y-39959579D02*
X163390151Y-40380415D01*
X151112281Y-55966389D02*
X155208391Y-51870279D01*
X165929182Y-68101441D02*
X165929182Y-76770216D01*
X155208391Y-40254339D02*
X155503151Y-39959579D01*
X133444511Y-64416339D02*
X133444511Y-58391339D01*
%TO.N,Net-(D-0-0-Pad2)*%
X26580745Y-44751516D02*
X32835206Y-44751516D01*
%TO.N,Net-(D-0-1-Pad2)*%
X49203280Y-40683410D02*
X54667446Y-40683410D01*
X54667446Y-40683410D02*
X55499261Y-41515225D01*
%TO.N,Net-(D-0-2-Pad2)*%
X70640535Y-25837542D02*
X76720927Y-25837542D01*
%TO.N,Net-(D-0-3-Pad2)*%
X93654237Y-21563673D02*
X99667191Y-21563673D01*
%TO.N,Net-(D-0-4-Pad2)*%
X122570342Y-22558607D02*
X123196544Y-23184809D01*
X117024337Y-22558607D02*
X122570342Y-22558607D01*
%TO.N,Net-(D-0-5-Pad2)*%
X139369511Y-24796339D02*
X144759511Y-24796339D01*
X144759511Y-24796339D02*
X145739511Y-25776339D01*
%TD*%
M02*
