<?xml version="1.0" encoding="UTF-8" standalone="no"?>
<svg
   version="1.1"
   width="14.658340cm"
   height="8.925560cm"
   viewBox="0 0 146583400 89255600"
   id="svg2383"
   sodipodi:docname="PCB Top-Edge_Cuts.svg"
   inkscape:version="1.1.1 (c3084ef, 2021-09-22)"
   xmlns:inkscape="http://www.inkscape.org/namespaces/inkscape"
   xmlns:sodipodi="http://sodipodi.sourceforge.net/DTD/sodipodi-0.dtd"
   xmlns="http://www.w3.org/2000/svg"
   xmlns:svg="http://www.w3.org/2000/svg">
  <defs
     id="defs2387" />
  <sodipodi:namedview
     id="namedview2385"
     pagecolor="#ffffff"
     bordercolor="#666666"
     borderopacity="1.0"
     inkscape:pageshadow="2"
     inkscape:pageopacity="0.0"
     inkscape:pagecheckerboard="0"
     inkscape:document-units="cm"
     showgrid="false"
     inkscape:zoom="1.7311706"
     inkscape:cx="285.06723"
     inkscape:cy="146.14389"
     inkscape:window-width="1402"
     inkscape:window-height="812"
     inkscape:window-x="0"
     inkscape:window-y="23"
     inkscape:window-maximized="0"
     inkscape:current-layer="svg2383" />
  <title
     id="title2109">SVG Picture created as PCB Top-Edge_Cuts.svg date 2022/02/08 20:26:20 </title>
  <desc
     id="desc2111">Picture generated by PCBNEW </desc>
  <g
     style="fill:#000000; fill-opacity:1.000000;stroke:#000000; stroke-opacity:1.000000; stroke-linecap:round; stroke-linejoin:round;"
     transform="translate(0 0) scale(1 1)"
     id="g2113" />
  <g
     style="fill:#000000; fill-opacity:0.0;  stroke:#000000; stroke-width:0.000000; stroke-opacity:1;  stroke-linecap:round; stroke-linejoin:round;"
     id="g2115" />
  <g
     style="fill:#000000; fill-opacity:0.0;  stroke:#000000; stroke-width:50000.000000; stroke-opacity:1;  stroke-linecap:round; stroke-linejoin:round;"
     id="g2151">
    <path
       d="M14858600 89061742 L51891800 80120942 "
       id="path2117" />
    <path
       d="M126364600 62636400 L126466200 50800 "
       id="path2119" />
    <path
       d="M39903000 7984942 L62102600 4530542 "
       id="path2121" />
    <path
       d="M25000 33842142 L14858600 89061742 "
       id="path2123" />
    <path
       d="M146583000 66141600 L143265013 85091797 "
       id="path2125" />
    <path
       d="M80949400 110942 L61848600 2092142 "
       id="path2127" />
    <path
       d="M86232600 78952542 L51891800 80120942 "
       id="path2129" />
    <path
       d="M146583000 66141600 L126364600 62636400 "
       id="path2131" />
    <path
       d="M21411800 28000142 L25000 33842142 "
       id="path2133" />
    <path
       d="M21411800 28000142 L42341400 23428142 "
       id="path2135" />
    <path
       d="M126466200 50800 L103606200 50800 "
       id="path2137" />
    <path
       d="M62102600 4530542 L61848600 2092142 "
       id="path2139" />
    <path
       d="M42341400 23428142 L39903000 7984942 "
       id="path2141" />
    <path
       d="M80949400 110942 L81096607 1574800 "
       id="path2143" />
    <path
       d="M124367413 81789797 L143265013 85091797 "
       id="path2145" />
    <path
       d="M81096607 1574800 L103606200 50800 "
       id="path2147" />
    <path
       d="M86232600 78952542 L124367413 81789797 "
       id="path2149" />
  </g>
  <g
     style="fill:#000000; fill-opacity:0.0;  stroke:#000000; stroke-width:100000.000000; stroke-opacity:1;  stroke-linecap:round; stroke-linejoin:round;"
     id="g2381">
    <path
       d="M109706111 55900481 L109706111 42000481 "
       id="path2153" />
    <path
       d="M123606111 55900481 L109706111 55900481 "
       id="path2155" />
    <path
       d="M123606111 42000481 L123606111 55900481 "
       id="path2157" />
    <path
       d="M109706111 42000481 L123606111 42000481 "
       id="path2159" />
    <path
       d="M8148209 53951136 L21671170 50327669 "
       id="path2161" />
    <path
       d="M21671170 50327669 L25294637 63850630 "
       id="path2163" />
    <path
       d="M11771676 67474097 L8148209 53951136 "
       id="path2165" />
    <path
       d="M25294637 63850630 L11771676 67474097 "
       id="path2167" />
    <path
       d="M103077252 76990229 L89085781 76501636 "
       id="path2169" />
    <path
       d="M89574374 62510165 L103565845 62998758 "
       id="path2171" />
    <path
       d="M103565845 62998758 L103077252 76990229 "
       id="path2173" />
    <path
       d="M89085781 76501636 L89574374 62510165 "
       id="path2175" />
    <path
       d="M30225141 82251516 L16702180 85874983 "
       id="path2177" />
    <path
       d="M26601674 68728555 L30225141 82251516 "
       id="path2179" />
    <path
       d="M13078713 72352022 L26601674 68728555 "
       id="path2181" />
    <path
       d="M16702180 85874983 L13078713 72352022 "
       id="path2183" />
    <path
       d="M6850880 49184143 L3227413 35661182 "
       id="path2185" />
    <path
       d="M20373841 45560676 L6850880 49184143 "
       id="path2187" />
    <path
       d="M16750374 32037715 L20373841 45560676 "
       id="path2189" />
    <path
       d="M3227413 35661182 L16750374 32037715 "
       id="path2191" />
    <path
       d="M123656111 17850481 L109656111 17850481 "
       id="path2193" />
    <path
       d="M109656111 17850481 L109656111 3850481 "
       id="path2195" />
    <path
       d="M109656111 3850481 L123656111 3850481 "
       id="path2197" />
    <path
       d="M123656111 3850481 L123656111 17850481 "
       id="path2199" />
    <path
       d="M42094251 45758127 L45005015 59452193 "
       id="path2201" />
    <path
       d="M31310949 62362957 L28400185 48668891 "
       id="path2203" />
    <path
       d="M45005015 59452193 L31310949 62362957 "
       id="path2205" />
    <path
       d="M28400185 48668891 L42094251 45758127 "
       id="path2207" />
    <path
       d="M109704659 63479244 L123627966 64942643 "
       id="path2209" />
    <path
       d="M108241260 77402551 L109704659 63479244 "
       id="path2211" />
    <path
       d="M122164567 78865950 L108241260 77402551 "
       id="path2213" />
    <path
       d="M123627966 64942643 L122164567 78865950 "
       id="path2215" />
    <path
       d="M51035587 61586664 L48845504 47759027 "
       id="path2217" />
    <path
       d="M62673141 45568944 L64863224 59396581 "
       id="path2219" />
    <path
       d="M64863224 59396581 L51035587 61586664 "
       id="path2221" />
    <path
       d="M48845504 47759027 L62673141 45568944 "
       id="path2223" />
    <path
       d="M61883147 40581119 L48055510 42771202 "
       id="path2225" />
    <path
       d="M48055510 42771202 L45865427 28943565 "
       id="path2227" />
    <path
       d="M45865427 28943565 L59693064 26753482 "
       id="path2229" />
    <path
       d="M59693064 26753482 L61883147 40581119 "
       id="path2231" />
    <path
       d="M82615671 40875272 L84079070 54798579 "
       id="path2233" />
    <path
       d="M70155763 56261978 L68692364 42338671 "
       id="path2235" />
    <path
       d="M84079070 54798579 L70155763 56261978 "
       id="path2237" />
    <path
       d="M68692364 42338671 L82615671 40875272 "
       id="path2239" />
    <path
       d="M101907758 18014012 L87926945 18746715 "
       id="path2241" />
    <path
       d="M101175055 4033199 L101907758 18014012 "
       id="path2243" />
    <path
       d="M87194242 4765902 L101175055 4033199 "
       id="path2245" />
    <path
       d="M87926945 18746715 L87194242 4765902 "
       id="path2247" />
    <path
       d="M48965736 78085904 L35271670 80996668 "
       id="path2249" />
    <path
       d="M32360906 67302602 L46054972 64391838 "
       id="path2251" />
    <path
       d="M46054972 64391838 L48965736 78085904 "
       id="path2253" />
    <path
       d="M35271670 80996668 L32360906 67302602 "
       id="path2255" />
    <path
       d="M88191241 23789794 L102172054 23057091 "
       id="path2257" />
    <path
       d="M102172054 23057091 L102904757 37037904 "
       id="path2259" />
    <path
       d="M102904757 37037904 L88923944 37770607 "
       id="path2261" />
    <path
       d="M88923944 37770607 L88191241 23789794 "
       id="path2263" />
    <path
       d="M56712990 7938020 L58903073 21765657 "
       id="path2265" />
    <path
       d="M58903073 21765657 L45075436 23955740 "
       id="path2267" />
    <path
       d="M42885353 10128103 L56712990 7938020 "
       id="path2269" />
    <path
       d="M45075436 23955740 L42885353 10128103 "
       id="path2271" />
    <path
       d="M27350235 43729245 L24439471 30035179 "
       id="path2273" />
    <path
       d="M38133537 27124415 L41044301 40818481 "
       id="path2275" />
    <path
       d="M24439471 30035179 L38133537 27124415 "
       id="path2277" />
    <path
       d="M41044301 40818481 L27350235 43729245 "
       id="path2279" />
    <path
       d="M141119930 82075789 L127332621 79644714 "
       id="path2281" />
    <path
       d="M143551005 68288480 L141119930 82075789 "
       id="path2283" />
    <path
       d="M127332621 79644714 L129763696 65857405 "
       id="path2285" />
    <path
       d="M129763696 65857405 L143551005 68288480 "
       id="path2287" />
    <path
       d="M109656111 36900481 L109656111 22900481 "
       id="path2289" />
    <path
       d="M123656111 36900481 L109656111 36900481 "
       id="path2291" />
    <path
       d="M109656111 22900481 L123656111 22900481 "
       id="path2293" />
    <path
       d="M123656111 22900481 L123656111 36900481 "
       id="path2295" />
    <path
       d="M78633137 2983989 L80096536 16907296 "
       id="path2297" />
    <path
       d="M66173229 18370695 L64709830 4447388 "
       id="path2299" />
    <path
       d="M80096536 16907296 L66173229 18370695 "
       id="path2301" />
    <path
       d="M64709830 4447388 L78633137 2983989 "
       id="path2303" />
    <path
       d="M89188242 42813687 L103169055 42080984 "
       id="path2305" />
    <path
       d="M103901758 56061797 L89920945 56794500 "
       id="path2307" />
    <path
       d="M89920945 56794500 L89188242 42813687 "
       id="path2309" />
    <path
       d="M103169055 42080984 L103901758 56061797 "
       id="path2311" />
    <path
       d="M68164497 37316335 L66701098 23393028 "
       id="path2313" />
    <path
       d="M66701098 23393028 L80624405 21929629 "
       id="path2315" />
    <path
       d="M80624405 21929629 L82087804 35852936 "
       id="path2317" />
    <path
       d="M82087804 35852936 L68164497 37316335 "
       id="path2319" />
    <g
       id="g2321" />
    <g
       id="g2323" />
    <g
       id="g2325" />
    <g
       id="g2327" />
    <g
       id="g2329" />
    <g
       id="g2331" />
    <g
       id="g2333" />
    <g
       id="g2335" />
    <g
       id="g2337" />
    <g
       id="g2339" />
    <g
       id="g2341" />
    <g
       id="g2343" />
    <g
       id="g2345" />
    <g
       id="g2347" />
    <g
       id="g2349" />
    <g
       id="g2351" />
    <g
       id="g2353" />
    <g
       id="g2355" />
    <g
       id="g2357" />
    <g
       id="g2359" />
    <g
       id="g2361" />
    <g
       id="g2363" />
    <g
       id="g2365" />
    <g
       id="g2367" />
    <g
       id="g2369" />
    <g
       id="g2371" />
    <g
       id="g2373" />
    <g
       id="g2375" />
    <g
       id="g2377" />
    <g
       id="g2379" />
  </g>
  <g
     style="fill:none;fill-opacity:1;stroke:#000000;stroke-width:100000.002745;stroke-linecap:round;stroke-linejoin:round;stroke-opacity:1;stroke-miterlimit:4;stroke-dasharray:none"
     id="g950">
    <circle
       cx="106039408"
       cy="22707600"
       r="1150000"
       id="circle948"
       style="fill:none;fill-opacity:1;stroke-width:100000.002745;stroke-miterlimit:4;stroke-dasharray:none;stroke:#000000;stroke-opacity:1" />
  </g>
  <g
     style="fill:none;fill-opacity:1;stroke:#000000;stroke-width:100000.002745;stroke-linecap:round;stroke-linejoin:round;stroke-opacity:1;stroke-miterlimit:4;stroke-dasharray:none"
     id="g956">
    <circle
       cx="69351016"
       cy="66194196"
       r="1150000"
       id="circle954"
       style="fill:none;fill-opacity:1;stroke-width:100000.002745;stroke-miterlimit:4;stroke-dasharray:none;stroke:#000000;stroke-opacity:1" />
  </g>
  <g
     style="fill:none;fill-opacity:1;stroke:#000000;stroke-width:100000.002745;stroke-linecap:round;stroke-linejoin:round;stroke-opacity:1;stroke-miterlimit:4;stroke-dasharray:none"
     id="g962">
    <circle
       cx="63316608"
       cy="26009600"
       r="1150000"
       id="circle960"
       style="fill:none;fill-opacity:1;stroke:#000000;stroke-opacity:1;stroke-width:100000.002745;stroke-miterlimit:4;stroke-dasharray:none" />
  </g>
  <g
     style="fill:none;fill-opacity:1;stroke:#000000;stroke-width:100000.002745;stroke-linecap:round;stroke-linejoin:round;stroke-opacity:1;stroke-miterlimit:4;stroke-dasharray:none"
     id="g968">
    <circle
       cx="29585408"
       cy="68935600"
       r="1150000"
       id="circle966"
       style="fill:none;fill-opacity:1;stroke-width:100000.002745;stroke-miterlimit:4;stroke-dasharray:none;stroke:#000000;stroke-opacity:1" />
  </g>
  <g
     style="fill:none;fill-opacity:1;stroke:#000000;stroke-width:100000.002745;stroke-linecap:round;stroke-linejoin:round;stroke-opacity:1;stroke-miterlimit:4;stroke-dasharray:none"
     id="g974">
    <circle
       cx="121115352"
       cy="60311252"
       r="1150000"
       id="circle972"
       style="fill:none;fill-opacity:1;stroke-width:100000.002745;stroke-miterlimit:4;stroke-dasharray:none;stroke:#000000;stroke-opacity:1" />
  </g>
  <g
     style="fill:none;fill-opacity:1;stroke:#000000;stroke-width:100000.002745;stroke-linecap:round;stroke-linejoin:round;stroke-opacity:1;stroke-miterlimit:4;stroke-dasharray:none"
     id="g980">
    <circle
       cx="24962608"
       cy="49326800"
       r="1150000"
       id="circle978"
       style="fill:none;fill-opacity:1;stroke-width:100000.002745;stroke-miterlimit:4;stroke-dasharray:none;stroke:#000000;stroke-opacity:1" />
  </g>
  <g
     style="fill:#080808;fill-opacity:1;stroke:#000000;stroke-width:50000;stroke-linecap:round;stroke-linejoin:round;stroke-opacity:1"
     id="g1022">
    <path
       d="M 14858600,89061742 51891800,80120942"
       id="path988"
       style="fill:#080808;fill-opacity:1" />
    <path
       d="M 126364600,62636400 126466200,50800"
       id="path990"
       style="fill:#080808;fill-opacity:1" />
    <path
       d="M 39903000,7984942 62102600,4530542"
       id="path992"
       style="fill:#080808;fill-opacity:1" />
    <path
       d="M 25000,33842142 14858600,89061742"
       id="path994"
       style="fill:#080808;fill-opacity:1" />
    <path
       d="m 146583000,66141600 -3317990,18950197"
       id="path996"
       style="fill:#080808;fill-opacity:1" />
    <path
       d="M 80949400,110942 61848600,2092142"
       id="path998"
       style="fill:#080808;fill-opacity:1" />
    <path
       d="M 86232600,78952542 51891800,80120942"
       id="path1000"
       style="fill:#080808;fill-opacity:1" />
    <path
       d="M 146583000,66141600 126364600,62636400"
       id="path1002"
       style="fill:#080808;fill-opacity:1" />
    <path
       d="M 21411800,28000142 25000,33842142"
       id="path1004"
       style="fill:#080808;fill-opacity:1" />
    <path
       d="M 21411800,28000142 42341400,23428142"
       id="path1006"
       style="fill:#080808;fill-opacity:1" />
    <path
       d="M 126466200,50800 H 103606200"
       id="path1008"
       style="fill:#080808;fill-opacity:1" />
    <path
       d="M 62102600,4530542 61848600,2092142"
       id="path1010"
       style="fill:#080808;fill-opacity:1" />
    <path
       d="M 42341400,23428142 39903000,7984942"
       id="path1012"
       style="fill:#080808;fill-opacity:1" />
    <path
       d="m 80949400,110942 147207,1463858"
       id="path1014"
       style="fill:#080808;fill-opacity:1" />
    <path
       d="m 124367410,81789797 18897600,3302000"
       id="path1016"
       style="fill:#080808;fill-opacity:1" />
    <path
       d="M 81096607,1574800 103606200,50800"
       id="path1018"
       style="fill:#080808;fill-opacity:1" />
    <path
       d="m 86232600,78952542 38134810,2837255"
       id="path1020"
       style="fill:#080808;fill-opacity:1" />
  </g>
</svg>
