%TF.GenerationSoftware,KiCad,Pcbnew,(6.0.0-0)*%
%TF.CreationDate,2022-01-05T17:08:36+07:00*%
%TF.ProjectId,kibod-01,6b69626f-642d-4303-912e-6b696361645f,rev?*%
%TF.SameCoordinates,Original*%
%TF.FileFunction,Profile,NP*%
%FSLAX46Y46*%
G04 Gerber Fmt 4.6, Leading zero omitted, Abs format (unit mm)*
G04 Created by KiCad (PCBNEW (6.0.0-0)) date 2022-01-05 17:08:36*
%MOMM*%
%LPD*%
G01*
G04 APERTURE LIST*
%TA.AperFunction,Profile*%
%ADD10C,0.050000*%
%TD*%
G04 APERTURE END LIST*
D10*
X139954000Y-38100000D02*
X119380000Y-38100000D01*
X139700000Y-103632000D02*
X136271000Y-123317000D01*
X297572127Y-60960000D02*
X287412127Y-119380000D01*
X229362000Y-37084000D02*
X229108000Y-39497000D01*
X185166000Y-37211000D02*
X208788000Y-38100000D01*
X185166000Y-37211000D02*
X185166000Y-38227000D01*
X229108000Y-39497000D02*
X252603000Y-42037000D01*
X265822127Y-115570000D02*
X245502127Y-113030000D01*
X252603000Y-42037000D02*
X251460000Y-53340000D01*
X184542127Y-119380000D02*
X165492127Y-120650000D01*
X203592127Y-118110000D02*
X184542127Y-119380000D01*
X287412127Y-119380000D02*
X265822127Y-115570000D01*
X142367000Y-38100000D02*
X162952127Y-38100000D01*
X165492127Y-120650000D02*
X146177000Y-123317000D01*
X208915000Y-35814000D02*
X229362000Y-37084000D01*
X275982127Y-57150000D02*
X297572127Y-60960000D01*
X208788000Y-38100000D02*
X208915000Y-35814000D01*
X251460000Y-53340000D02*
X275982127Y-57150000D01*
X142632127Y-103632000D02*
X146177000Y-123317000D01*
X162952127Y-38100000D02*
X185166000Y-38227000D01*
X142367000Y-102235000D02*
X142367000Y-38100000D01*
X203592127Y-118110000D02*
X245502127Y-113030000D01*
X119380000Y-38100000D02*
X96774000Y-38227000D01*
X139954000Y-102235000D02*
X142367000Y-102235000D01*
X-5080000Y-119380000D02*
X16510000Y-115570000D01*
X6350000Y-57150000D02*
X-15240000Y-60960000D01*
X97790000Y-119380000D02*
X116840000Y-120650000D01*
X139954000Y-102235000D02*
X139954000Y-38100000D01*
X52705000Y-39370000D02*
X29845000Y-41910000D01*
X73533000Y-37846000D02*
X73406000Y-35687000D01*
X-15240000Y-60960000D02*
X-5080000Y-119380000D01*
X16510000Y-115570000D02*
X36830000Y-113030000D01*
X29845000Y-41910000D02*
X31115000Y-53213000D01*
X52578000Y-37084000D02*
X52705000Y-39370000D01*
X78740000Y-118110000D02*
X36830000Y-113030000D01*
X73406000Y-35687000D02*
X52578000Y-37084000D01*
X96774000Y-37211000D02*
X96774000Y-38227000D01*
X31115000Y-53213000D02*
X6350000Y-57150000D01*
X96774000Y-37211000D02*
X73533000Y-37846000D01*
X116840000Y-120650000D02*
X136271000Y-123317000D01*
X78740000Y-118110000D02*
X97790000Y-119380000D01*
X139700000Y-103632000D02*
X142632127Y-103632000D01*
M02*
