%TF.GenerationSoftware,KiCad,Pcbnew,(6.0.0-0)*%
%TF.CreationDate,2022-01-05T09:56:10+07:00*%
%TF.ProjectId,kibod-01,6b69626f-642d-4303-912e-6b696361645f,rev?*%
%TF.SameCoordinates,Original*%
%TF.FileFunction,Legend,Bot*%
%TF.FilePolarity,Positive*%
%FSLAX46Y46*%
G04 Gerber Fmt 4.6, Leading zero omitted, Abs format (unit mm)*
G04 Created by KiCad (PCBNEW (6.0.0-0)) date 2022-01-05 09:56:10*
%MOMM*%
%LPD*%
G01*
G04 APERTURE LIST*
%ADD10C,0.150000*%
%ADD11C,0.203200*%
%ADD12C,0.381000*%
%ADD13R,1.752600X1.752600*%
%ADD14C,1.752600*%
G04 APERTURE END LIST*
D10*
%TO.C,U1*%
X136404333Y-60395714D02*
X136442428Y-60433809D01*
X136556714Y-60471904D01*
X136632904Y-60471904D01*
X136747190Y-60433809D01*
X136823380Y-60357619D01*
X136861476Y-60281428D01*
X136899571Y-60129047D01*
X136899571Y-60014761D01*
X136861476Y-59862380D01*
X136823380Y-59786190D01*
X136747190Y-59710000D01*
X136632904Y-59671904D01*
X136556714Y-59671904D01*
X136442428Y-59710000D01*
X136404333Y-59748095D01*
X135718619Y-59671904D02*
X135871000Y-59671904D01*
X135947190Y-59710000D01*
X135985285Y-59748095D01*
X136061476Y-59862380D01*
X136099571Y-60014761D01*
X136099571Y-60319523D01*
X136061476Y-60395714D01*
X136023380Y-60433809D01*
X135947190Y-60471904D01*
X135794809Y-60471904D01*
X135718619Y-60433809D01*
X135680523Y-60395714D01*
X135642428Y-60319523D01*
X135642428Y-60129047D01*
X135680523Y-60052857D01*
X135718619Y-60014761D01*
X135794809Y-59976666D01*
X135947190Y-59976666D01*
X136023380Y-60014761D01*
X136061476Y-60052857D01*
X136099571Y-60129047D01*
X126415666Y-49511904D02*
X126149000Y-50311904D01*
X125882333Y-49511904D01*
X125158523Y-50235714D02*
X125196619Y-50273809D01*
X125310904Y-50311904D01*
X125387095Y-50311904D01*
X125501380Y-50273809D01*
X125577571Y-50197619D01*
X125615666Y-50121428D01*
X125653761Y-49969047D01*
X125653761Y-49854761D01*
X125615666Y-49702380D01*
X125577571Y-49626190D01*
X125501380Y-49550000D01*
X125387095Y-49511904D01*
X125310904Y-49511904D01*
X125196619Y-49550000D01*
X125158523Y-49588095D01*
X124358523Y-50235714D02*
X124396619Y-50273809D01*
X124510904Y-50311904D01*
X124587095Y-50311904D01*
X124701380Y-50273809D01*
X124777571Y-50197619D01*
X124815666Y-50121428D01*
X124853761Y-49969047D01*
X124853761Y-49854761D01*
X124815666Y-49702380D01*
X124777571Y-49626190D01*
X124701380Y-49550000D01*
X124587095Y-49511904D01*
X124510904Y-49511904D01*
X124396619Y-49550000D01*
X124358523Y-49588095D01*
X136880523Y-49550000D02*
X136956714Y-49511904D01*
X137071000Y-49511904D01*
X137185285Y-49550000D01*
X137261476Y-49626190D01*
X137299571Y-49702380D01*
X137337666Y-49854761D01*
X137337666Y-49969047D01*
X137299571Y-50121428D01*
X137261476Y-50197619D01*
X137185285Y-50273809D01*
X137071000Y-50311904D01*
X136994809Y-50311904D01*
X136880523Y-50273809D01*
X136842428Y-50235714D01*
X136842428Y-49969047D01*
X136994809Y-49969047D01*
X136499571Y-50311904D02*
X136499571Y-49511904D01*
X136042428Y-50311904D01*
X136042428Y-49511904D01*
X135661476Y-50311904D02*
X135661476Y-49511904D01*
X135471000Y-49511904D01*
X135356714Y-49550000D01*
X135280523Y-49626190D01*
X135242428Y-49702380D01*
X135204333Y-49854761D01*
X135204333Y-49969047D01*
X135242428Y-50121428D01*
X135280523Y-50197619D01*
X135356714Y-50273809D01*
X135471000Y-50311904D01*
X135661476Y-50311904D01*
X125615666Y-54972857D02*
X125882333Y-54972857D01*
X125882333Y-55391904D02*
X125882333Y-54591904D01*
X125501380Y-54591904D01*
X124815666Y-54591904D02*
X125196619Y-54591904D01*
X125234714Y-54972857D01*
X125196619Y-54934761D01*
X125120428Y-54896666D01*
X124929952Y-54896666D01*
X124853761Y-54934761D01*
X124815666Y-54972857D01*
X124777571Y-55049047D01*
X124777571Y-55239523D01*
X124815666Y-55315714D01*
X124853761Y-55353809D01*
X124929952Y-55391904D01*
X125120428Y-55391904D01*
X125196619Y-55353809D01*
X125234714Y-55315714D01*
X125615666Y-60052857D02*
X125882333Y-60052857D01*
X125882333Y-60471904D02*
X125882333Y-59671904D01*
X125501380Y-59671904D01*
X125272809Y-59671904D02*
X124739476Y-59671904D01*
X125082333Y-60471904D01*
X136572348Y-41891904D02*
X136115205Y-41891904D01*
X136343776Y-42691904D02*
X136343776Y-41891904D01*
X135924729Y-41891904D02*
X135391395Y-42691904D01*
X135391395Y-41891904D02*
X135924729Y-42691904D01*
X134934252Y-41891904D02*
X134858062Y-41891904D01*
X134781872Y-41930000D01*
X134743776Y-41968095D01*
X134705681Y-42044285D01*
X134667586Y-42196666D01*
X134667586Y-42387142D01*
X134705681Y-42539523D01*
X134743776Y-42615714D01*
X134781872Y-42653809D01*
X134858062Y-42691904D01*
X134934252Y-42691904D01*
X135010443Y-42653809D01*
X135048538Y-42615714D01*
X135086633Y-42539523D01*
X135124729Y-42387142D01*
X135124729Y-42196666D01*
X135086633Y-42044285D01*
X135048538Y-41968095D01*
X135010443Y-41930000D01*
X134934252Y-41891904D01*
X133753300Y-41853809D02*
X134439014Y-42882380D01*
X133486633Y-42691904D02*
X133486633Y-41891904D01*
X133296157Y-41891904D01*
X133181872Y-41930000D01*
X133105681Y-42006190D01*
X133067586Y-42082380D01*
X133029491Y-42234761D01*
X133029491Y-42349047D01*
X133067586Y-42501428D01*
X133105681Y-42577619D01*
X133181872Y-42653809D01*
X133296157Y-42691904D01*
X133486633Y-42691904D01*
X132762824Y-41891904D02*
X132267586Y-41891904D01*
X132534252Y-42196666D01*
X132419967Y-42196666D01*
X132343776Y-42234761D01*
X132305681Y-42272857D01*
X132267586Y-42349047D01*
X132267586Y-42539523D01*
X132305681Y-42615714D01*
X132343776Y-42653809D01*
X132419967Y-42691904D01*
X132648538Y-42691904D01*
X132724729Y-42653809D01*
X132762824Y-42615714D01*
X136861476Y-57931904D02*
X136861476Y-57131904D01*
X136671000Y-57131904D01*
X136556714Y-57170000D01*
X136480523Y-57246190D01*
X136442428Y-57322380D01*
X136404333Y-57474761D01*
X136404333Y-57589047D01*
X136442428Y-57741428D01*
X136480523Y-57817619D01*
X136556714Y-57893809D01*
X136671000Y-57931904D01*
X136861476Y-57931904D01*
X135718619Y-57398571D02*
X135718619Y-57931904D01*
X135909095Y-57093809D02*
X136099571Y-57665238D01*
X135604333Y-57665238D01*
X125615666Y-57512857D02*
X125882333Y-57512857D01*
X125882333Y-57931904D02*
X125882333Y-57131904D01*
X125501380Y-57131904D01*
X124853761Y-57131904D02*
X125006142Y-57131904D01*
X125082333Y-57170000D01*
X125120428Y-57208095D01*
X125196619Y-57322380D01*
X125234714Y-57474761D01*
X125234714Y-57779523D01*
X125196619Y-57855714D01*
X125158523Y-57893809D01*
X125082333Y-57931904D01*
X124929952Y-57931904D01*
X124853761Y-57893809D01*
X124815666Y-57855714D01*
X124777571Y-57779523D01*
X124777571Y-57589047D01*
X124815666Y-57512857D01*
X124853761Y-57474761D01*
X124929952Y-57436666D01*
X125082333Y-57436666D01*
X125158523Y-57474761D01*
X125196619Y-57512857D01*
X125234714Y-57589047D01*
X125672809Y-67672857D02*
X125558523Y-67710952D01*
X125520428Y-67749047D01*
X125482333Y-67825238D01*
X125482333Y-67939523D01*
X125520428Y-68015714D01*
X125558523Y-68053809D01*
X125634714Y-68091904D01*
X125939476Y-68091904D01*
X125939476Y-67291904D01*
X125672809Y-67291904D01*
X125596619Y-67330000D01*
X125558523Y-67368095D01*
X125520428Y-67444285D01*
X125520428Y-67520476D01*
X125558523Y-67596666D01*
X125596619Y-67634761D01*
X125672809Y-67672857D01*
X125939476Y-67672857D01*
X125177571Y-67368095D02*
X125139476Y-67330000D01*
X125063285Y-67291904D01*
X124872809Y-67291904D01*
X124796619Y-67330000D01*
X124758523Y-67368095D01*
X124720428Y-67444285D01*
X124720428Y-67520476D01*
X124758523Y-67634761D01*
X125215666Y-68091904D01*
X124720428Y-68091904D01*
X136861476Y-45231904D02*
X136861476Y-44431904D01*
X136671000Y-44431904D01*
X136556714Y-44470000D01*
X136480523Y-44546190D01*
X136442428Y-44622380D01*
X136404333Y-44774761D01*
X136404333Y-44889047D01*
X136442428Y-45041428D01*
X136480523Y-45117619D01*
X136556714Y-45193809D01*
X136671000Y-45231904D01*
X136861476Y-45231904D01*
X136099571Y-44508095D02*
X136061476Y-44470000D01*
X135985285Y-44431904D01*
X135794809Y-44431904D01*
X135718619Y-44470000D01*
X135680523Y-44508095D01*
X135642428Y-44584285D01*
X135642428Y-44660476D01*
X135680523Y-44774761D01*
X136137666Y-45231904D01*
X135642428Y-45231904D01*
X136594809Y-70212857D02*
X136480523Y-70250952D01*
X136442428Y-70289047D01*
X136404333Y-70365238D01*
X136404333Y-70479523D01*
X136442428Y-70555714D01*
X136480523Y-70593809D01*
X136556714Y-70631904D01*
X136861476Y-70631904D01*
X136861476Y-69831904D01*
X136594809Y-69831904D01*
X136518619Y-69870000D01*
X136480523Y-69908095D01*
X136442428Y-69984285D01*
X136442428Y-70060476D01*
X136480523Y-70136666D01*
X136518619Y-70174761D01*
X136594809Y-70212857D01*
X136861476Y-70212857D01*
X135680523Y-69831904D02*
X136061476Y-69831904D01*
X136099571Y-70212857D01*
X136061476Y-70174761D01*
X135985285Y-70136666D01*
X135794809Y-70136666D01*
X135718619Y-70174761D01*
X135680523Y-70212857D01*
X135642428Y-70289047D01*
X135642428Y-70479523D01*
X135680523Y-70555714D01*
X135718619Y-70593809D01*
X135794809Y-70631904D01*
X135985285Y-70631904D01*
X136061476Y-70593809D01*
X136099571Y-70555714D01*
X125615666Y-52432857D02*
X125882333Y-52432857D01*
X125882333Y-52851904D02*
X125882333Y-52051904D01*
X125501380Y-52051904D01*
X124853761Y-52318571D02*
X124853761Y-52851904D01*
X125044238Y-52013809D02*
X125234714Y-52585238D01*
X124739476Y-52585238D01*
X125901380Y-42691904D02*
X126168047Y-42310952D01*
X126358523Y-42691904D02*
X126358523Y-41891904D01*
X126053761Y-41891904D01*
X125977571Y-41930000D01*
X125939476Y-41968095D01*
X125901380Y-42044285D01*
X125901380Y-42158571D01*
X125939476Y-42234761D01*
X125977571Y-42272857D01*
X126053761Y-42310952D01*
X126358523Y-42310952D01*
X125596619Y-42463333D02*
X125215666Y-42463333D01*
X125672809Y-42691904D02*
X125406142Y-41891904D01*
X125139476Y-42691904D01*
X124949000Y-41891904D02*
X124758523Y-42691904D01*
X124606142Y-42120476D01*
X124453761Y-42691904D01*
X124263285Y-41891904D01*
X136823380Y-65132857D02*
X136556714Y-65132857D01*
X136442428Y-65551904D02*
X136823380Y-65551904D01*
X136823380Y-64751904D01*
X136442428Y-64751904D01*
X135756714Y-64751904D02*
X135909095Y-64751904D01*
X135985285Y-64790000D01*
X136023380Y-64828095D01*
X136099571Y-64942380D01*
X136137666Y-65094761D01*
X136137666Y-65399523D01*
X136099571Y-65475714D01*
X136061476Y-65513809D01*
X135985285Y-65551904D01*
X135832904Y-65551904D01*
X135756714Y-65513809D01*
X135718619Y-65475714D01*
X135680523Y-65399523D01*
X135680523Y-65209047D01*
X135718619Y-65132857D01*
X135756714Y-65094761D01*
X135832904Y-65056666D01*
X135985285Y-65056666D01*
X136061476Y-65094761D01*
X136099571Y-65132857D01*
X136137666Y-65209047D01*
X136861476Y-52851904D02*
X136861476Y-52051904D01*
X136671000Y-52051904D01*
X136556714Y-52090000D01*
X136480523Y-52166190D01*
X136442428Y-52242380D01*
X136404333Y-52394761D01*
X136404333Y-52509047D01*
X136442428Y-52661428D01*
X136480523Y-52737619D01*
X136556714Y-52813809D01*
X136671000Y-52851904D01*
X136861476Y-52851904D01*
X135642428Y-52851904D02*
X136099571Y-52851904D01*
X135871000Y-52851904D02*
X135871000Y-52051904D01*
X135947190Y-52166190D01*
X136023380Y-52242380D01*
X136099571Y-52280476D01*
X136594809Y-67672857D02*
X136480523Y-67710952D01*
X136442428Y-67749047D01*
X136404333Y-67825238D01*
X136404333Y-67939523D01*
X136442428Y-68015714D01*
X136480523Y-68053809D01*
X136556714Y-68091904D01*
X136861476Y-68091904D01*
X136861476Y-67291904D01*
X136594809Y-67291904D01*
X136518619Y-67330000D01*
X136480523Y-67368095D01*
X136442428Y-67444285D01*
X136442428Y-67520476D01*
X136480523Y-67596666D01*
X136518619Y-67634761D01*
X136594809Y-67672857D01*
X136861476Y-67672857D01*
X135718619Y-67558571D02*
X135718619Y-68091904D01*
X135909095Y-67253809D02*
X136099571Y-67825238D01*
X135604333Y-67825238D01*
X125672809Y-65132857D02*
X125558523Y-65170952D01*
X125520428Y-65209047D01*
X125482333Y-65285238D01*
X125482333Y-65399523D01*
X125520428Y-65475714D01*
X125558523Y-65513809D01*
X125634714Y-65551904D01*
X125939476Y-65551904D01*
X125939476Y-64751904D01*
X125672809Y-64751904D01*
X125596619Y-64790000D01*
X125558523Y-64828095D01*
X125520428Y-64904285D01*
X125520428Y-64980476D01*
X125558523Y-65056666D01*
X125596619Y-65094761D01*
X125672809Y-65132857D01*
X125939476Y-65132857D01*
X125215666Y-64751904D02*
X124720428Y-64751904D01*
X124987095Y-65056666D01*
X124872809Y-65056666D01*
X124796619Y-65094761D01*
X124758523Y-65132857D01*
X124720428Y-65209047D01*
X124720428Y-65399523D01*
X124758523Y-65475714D01*
X124796619Y-65513809D01*
X124872809Y-65551904D01*
X125101380Y-65551904D01*
X125177571Y-65513809D01*
X125215666Y-65475714D01*
X136880523Y-47010000D02*
X136956714Y-46971904D01*
X137071000Y-46971904D01*
X137185285Y-47010000D01*
X137261476Y-47086190D01*
X137299571Y-47162380D01*
X137337666Y-47314761D01*
X137337666Y-47429047D01*
X137299571Y-47581428D01*
X137261476Y-47657619D01*
X137185285Y-47733809D01*
X137071000Y-47771904D01*
X136994809Y-47771904D01*
X136880523Y-47733809D01*
X136842428Y-47695714D01*
X136842428Y-47429047D01*
X136994809Y-47429047D01*
X136499571Y-47771904D02*
X136499571Y-46971904D01*
X136042428Y-47771904D01*
X136042428Y-46971904D01*
X135661476Y-47771904D02*
X135661476Y-46971904D01*
X135471000Y-46971904D01*
X135356714Y-47010000D01*
X135280523Y-47086190D01*
X135242428Y-47162380D01*
X135204333Y-47314761D01*
X135204333Y-47429047D01*
X135242428Y-47581428D01*
X135280523Y-47657619D01*
X135356714Y-47733809D01*
X135471000Y-47771904D01*
X135661476Y-47771904D01*
X125672809Y-70212857D02*
X125558523Y-70250952D01*
X125520428Y-70289047D01*
X125482333Y-70365238D01*
X125482333Y-70479523D01*
X125520428Y-70555714D01*
X125558523Y-70593809D01*
X125634714Y-70631904D01*
X125939476Y-70631904D01*
X125939476Y-69831904D01*
X125672809Y-69831904D01*
X125596619Y-69870000D01*
X125558523Y-69908095D01*
X125520428Y-69984285D01*
X125520428Y-70060476D01*
X125558523Y-70136666D01*
X125596619Y-70174761D01*
X125672809Y-70212857D01*
X125939476Y-70212857D01*
X124796619Y-69831904D02*
X124949000Y-69831904D01*
X125025190Y-69870000D01*
X125063285Y-69908095D01*
X125139476Y-70022380D01*
X125177571Y-70174761D01*
X125177571Y-70479523D01*
X125139476Y-70555714D01*
X125101380Y-70593809D01*
X125025190Y-70631904D01*
X124872809Y-70631904D01*
X124796619Y-70593809D01*
X124758523Y-70555714D01*
X124720428Y-70479523D01*
X124720428Y-70289047D01*
X124758523Y-70212857D01*
X124796619Y-70174761D01*
X124872809Y-70136666D01*
X125025190Y-70136666D01*
X125101380Y-70174761D01*
X125139476Y-70212857D01*
X125177571Y-70289047D01*
X125672809Y-62592857D02*
X125558523Y-62630952D01*
X125520428Y-62669047D01*
X125482333Y-62745238D01*
X125482333Y-62859523D01*
X125520428Y-62935714D01*
X125558523Y-62973809D01*
X125634714Y-63011904D01*
X125939476Y-63011904D01*
X125939476Y-62211904D01*
X125672809Y-62211904D01*
X125596619Y-62250000D01*
X125558523Y-62288095D01*
X125520428Y-62364285D01*
X125520428Y-62440476D01*
X125558523Y-62516666D01*
X125596619Y-62554761D01*
X125672809Y-62592857D01*
X125939476Y-62592857D01*
X124720428Y-63011904D02*
X125177571Y-63011904D01*
X124949000Y-63011904D02*
X124949000Y-62211904D01*
X125025190Y-62326190D01*
X125101380Y-62402380D01*
X125177571Y-62440476D01*
X136861476Y-55391904D02*
X136861476Y-54591904D01*
X136671000Y-54591904D01*
X136556714Y-54630000D01*
X136480523Y-54706190D01*
X136442428Y-54782380D01*
X136404333Y-54934761D01*
X136404333Y-55049047D01*
X136442428Y-55201428D01*
X136480523Y-55277619D01*
X136556714Y-55353809D01*
X136671000Y-55391904D01*
X136861476Y-55391904D01*
X135909095Y-54591904D02*
X135832904Y-54591904D01*
X135756714Y-54630000D01*
X135718619Y-54668095D01*
X135680523Y-54744285D01*
X135642428Y-54896666D01*
X135642428Y-55087142D01*
X135680523Y-55239523D01*
X135718619Y-55315714D01*
X135756714Y-55353809D01*
X135832904Y-55391904D01*
X135909095Y-55391904D01*
X135985285Y-55353809D01*
X136023380Y-55315714D01*
X136061476Y-55239523D01*
X136099571Y-55087142D01*
X136099571Y-54896666D01*
X136061476Y-54744285D01*
X136023380Y-54668095D01*
X135985285Y-54630000D01*
X135909095Y-54591904D01*
X136861476Y-63011904D02*
X136861476Y-62211904D01*
X136671000Y-62211904D01*
X136556714Y-62250000D01*
X136480523Y-62326190D01*
X136442428Y-62402380D01*
X136404333Y-62554761D01*
X136404333Y-62669047D01*
X136442428Y-62821428D01*
X136480523Y-62897619D01*
X136556714Y-62973809D01*
X136671000Y-63011904D01*
X136861476Y-63011904D01*
X136137666Y-62211904D02*
X135604333Y-62211904D01*
X135947190Y-63011904D01*
X125610213Y-47703809D02*
X125495927Y-47741904D01*
X125305451Y-47741904D01*
X125229260Y-47703809D01*
X125191165Y-47665714D01*
X125153070Y-47589523D01*
X125153070Y-47513333D01*
X125191165Y-47437142D01*
X125229260Y-47399047D01*
X125305451Y-47360952D01*
X125457832Y-47322857D01*
X125534022Y-47284761D01*
X125572118Y-47246666D01*
X125610213Y-47170476D01*
X125610213Y-47094285D01*
X125572118Y-47018095D01*
X125534022Y-46980000D01*
X125457832Y-46941904D01*
X125267356Y-46941904D01*
X125153070Y-46980000D01*
X124924499Y-46941904D02*
X124467356Y-46941904D01*
X124695927Y-47741904D02*
X124695927Y-46941904D01*
X125958523Y-44470000D02*
X126034714Y-44431904D01*
X126149000Y-44431904D01*
X126263285Y-44470000D01*
X126339476Y-44546190D01*
X126377571Y-44622380D01*
X126415666Y-44774761D01*
X126415666Y-44889047D01*
X126377571Y-45041428D01*
X126339476Y-45117619D01*
X126263285Y-45193809D01*
X126149000Y-45231904D01*
X126072809Y-45231904D01*
X125958523Y-45193809D01*
X125920428Y-45155714D01*
X125920428Y-44889047D01*
X126072809Y-44889047D01*
X125577571Y-45231904D02*
X125577571Y-44431904D01*
X125120428Y-45231904D01*
X125120428Y-44431904D01*
X124739476Y-45231904D02*
X124739476Y-44431904D01*
X124549000Y-44431904D01*
X124434714Y-44470000D01*
X124358523Y-44546190D01*
X124320428Y-44622380D01*
X124282333Y-44774761D01*
X124282333Y-44889047D01*
X124320428Y-45041428D01*
X124358523Y-45117619D01*
X124434714Y-45193809D01*
X124549000Y-45231904D01*
X124739476Y-45231904D01*
D11*
%TO.C,D-0-0*%
X4609725Y-67277633D02*
X6860995Y-66880673D01*
D10*
X7274302Y-69472276D02*
X5107724Y-69854302D01*
D11*
X5139005Y-70279327D02*
X4609725Y-67277633D01*
D10*
X5142454Y-70051263D02*
X7210550Y-69686602D01*
D11*
X7390275Y-69882367D02*
X5139005Y-70279327D01*
D10*
X7309031Y-69669237D02*
X7210550Y-69686602D01*
D11*
X6860995Y-66880673D02*
X7390275Y-69882367D01*
D10*
X5072995Y-69657340D02*
X7239572Y-69275314D01*
X7210550Y-69686602D02*
X7309031Y-69669237D01*
D11*
%TO.C,D-0-1*%
X27056024Y-63881713D02*
X29319777Y-63563564D01*
D10*
X29670220Y-66366065D02*
X29571193Y-66379982D01*
D11*
X29319777Y-63563564D02*
X29743976Y-66581901D01*
X27480223Y-66900050D02*
X27056024Y-63881713D01*
D10*
X27435961Y-66276139D02*
X29614551Y-65969958D01*
X27491630Y-66672246D02*
X29571193Y-66379982D01*
D11*
X29743976Y-66581901D02*
X27480223Y-66900050D01*
D10*
X29571193Y-66379982D02*
X29670220Y-66366065D01*
X29642385Y-66168011D02*
X27463796Y-66474192D01*
%TO.C,D-0-2*%
X48571913Y-50937860D02*
X50660409Y-50718350D01*
D11*
X48552563Y-51165127D02*
X48233960Y-48133825D01*
X50507437Y-47894873D02*
X50826040Y-50926175D01*
X50826040Y-50926175D02*
X48552563Y-51165127D01*
D10*
X50759861Y-50707897D02*
X50660409Y-50718350D01*
X48530102Y-50540051D02*
X50718050Y-50310088D01*
D11*
X48233960Y-48133825D02*
X50507437Y-47894873D01*
D10*
X50660409Y-50718350D02*
X50759861Y-50707897D01*
X50738955Y-50508993D02*
X48551007Y-50738955D01*
%TO.C,D-0-3*%
X73564053Y-46415189D02*
X71369412Y-46568654D01*
D11*
X71356093Y-46994620D02*
X71143475Y-43954045D01*
X71143475Y-43954045D02*
X73423907Y-43794582D01*
D10*
X73578004Y-46614702D02*
X73478247Y-46621678D01*
X71383363Y-46768166D02*
X73478247Y-46621678D01*
D11*
X73423907Y-43794582D02*
X73636525Y-46835157D01*
D10*
X73478247Y-46621678D02*
X73578004Y-46614702D01*
D11*
X73636525Y-46835157D02*
X71356093Y-46994620D01*
D10*
X71355460Y-46369141D02*
X73550101Y-46215677D01*
%TO.C,D-0-4*%
X96744760Y-48200458D02*
X96844699Y-48196968D01*
D11*
X96789117Y-45373187D02*
X96895491Y-48419330D01*
X96895491Y-48419330D02*
X94610883Y-48499111D01*
X94504509Y-45452968D02*
X96789117Y-45373187D01*
D10*
X96844699Y-48196968D02*
X96744760Y-48200458D01*
X94632080Y-47873990D02*
X96830739Y-47797211D01*
X96837719Y-47997089D02*
X94639060Y-48073868D01*
D11*
X94610883Y-48499111D02*
X94504509Y-45452968D01*
D10*
X94646039Y-48273747D02*
X96744760Y-48200458D01*
%TO.C,D-0-5*%
X117010000Y-50830000D02*
X119110000Y-50830000D01*
D11*
X119253000Y-51054000D02*
X116967000Y-51054000D01*
X116967000Y-48006000D02*
X119253000Y-48006000D01*
D10*
X117010000Y-50430000D02*
X119210000Y-50430000D01*
D11*
X116967000Y-51054000D02*
X116967000Y-48006000D01*
D10*
X119210000Y-50830000D02*
X119110000Y-50830000D01*
X119210000Y-50630000D02*
X117010000Y-50630000D01*
D11*
X119253000Y-48006000D02*
X119253000Y-51054000D01*
D10*
X119110000Y-50830000D02*
X119210000Y-50830000D01*
%TO.C,D-1-0*%
X10474302Y-88220606D02*
X8307724Y-88602632D01*
X8342454Y-88799593D02*
X10410550Y-88434932D01*
D11*
X8339005Y-89027657D02*
X7809725Y-86025963D01*
D10*
X8272995Y-88405670D02*
X10439572Y-88023644D01*
D11*
X7809725Y-86025963D02*
X10060995Y-85629003D01*
X10590275Y-88630697D02*
X8339005Y-89027657D01*
X10060995Y-85629003D02*
X10590275Y-88630697D01*
D10*
X10410550Y-88434932D02*
X10509031Y-88417567D01*
X10509031Y-88417567D02*
X10410550Y-88434932D01*
%TO.C,D-1-1*%
X32342385Y-84855869D02*
X30163796Y-85162050D01*
D11*
X32019777Y-82251422D02*
X32443976Y-85269759D01*
D10*
X30135961Y-84963997D02*
X32314551Y-84657816D01*
X32271193Y-85067840D02*
X32370220Y-85053923D01*
X30191630Y-85360104D02*
X32271193Y-85067840D01*
X32370220Y-85053923D02*
X32271193Y-85067840D01*
D11*
X29756024Y-82569571D02*
X32019777Y-82251422D01*
X30180223Y-85587908D02*
X29756024Y-82569571D01*
X32443976Y-85269759D02*
X30180223Y-85587908D01*
D10*
%TO.C,D-1-2*%
X52708955Y-69558993D02*
X50521007Y-69788955D01*
D11*
X50203960Y-67183825D02*
X52477437Y-66944873D01*
D10*
X50500102Y-69590051D02*
X52688050Y-69360088D01*
X50541913Y-69987860D02*
X52630409Y-69768350D01*
X52630409Y-69768350D02*
X52729861Y-69757897D01*
D11*
X52796040Y-69976175D02*
X50522563Y-70215127D01*
X52477437Y-66944873D02*
X52796040Y-69976175D01*
X50522563Y-70215127D02*
X50203960Y-67183825D01*
D10*
X52729861Y-69757897D02*
X52630409Y-69768350D01*
%TO.C,D-1-3*%
X74848004Y-65618297D02*
X74748247Y-65625273D01*
D11*
X72626093Y-65998215D02*
X72413475Y-62957640D01*
X74906525Y-65838752D02*
X72626093Y-65998215D01*
X72413475Y-62957640D02*
X74693907Y-62798177D01*
D10*
X74748247Y-65625273D02*
X74848004Y-65618297D01*
X72653363Y-65771761D02*
X74748247Y-65625273D01*
X74834053Y-65418784D02*
X72639412Y-65572249D01*
D11*
X74693907Y-62798177D02*
X74906525Y-65838752D01*
D10*
X72625460Y-65372736D02*
X74820101Y-65219272D01*
D11*
%TO.C,D-1-4*%
X97389117Y-64411583D02*
X97495491Y-67457726D01*
X95104509Y-64491364D02*
X97389117Y-64411583D01*
D10*
X97344760Y-67238854D02*
X97444699Y-67235364D01*
D11*
X97495491Y-67457726D02*
X95210883Y-67537507D01*
D10*
X97437719Y-67035485D02*
X95239060Y-67112264D01*
X95246039Y-67312143D02*
X97344760Y-67238854D01*
X97444699Y-67235364D02*
X97344760Y-67238854D01*
X95232080Y-66912386D02*
X97430739Y-66835607D01*
D11*
X95210883Y-67537507D02*
X95104509Y-64491364D01*
D10*
%TO.C,D-1-5*%
X117010000Y-69480000D02*
X119210000Y-69480000D01*
X119210000Y-69880000D02*
X119110000Y-69880000D01*
X117010000Y-69880000D02*
X119110000Y-69880000D01*
D11*
X119253000Y-70104000D02*
X116967000Y-70104000D01*
X119253000Y-67056000D02*
X119253000Y-70104000D01*
X116967000Y-67056000D02*
X119253000Y-67056000D01*
X116967000Y-70104000D02*
X116967000Y-67056000D01*
D10*
X119110000Y-69880000D02*
X119210000Y-69880000D01*
X119210000Y-69680000D02*
X117010000Y-69680000D01*
%TO.C,D-2-0*%
X13574302Y-106302276D02*
X11407724Y-106684302D01*
X13510550Y-106516602D02*
X13609031Y-106499237D01*
D11*
X11439005Y-107109327D02*
X10909725Y-104107633D01*
D10*
X11372995Y-106487340D02*
X13539572Y-106105314D01*
X13609031Y-106499237D02*
X13510550Y-106516602D01*
D11*
X13690275Y-106712367D02*
X11439005Y-107109327D01*
D10*
X11442454Y-106881263D02*
X13510550Y-106516602D01*
D11*
X13160995Y-103710673D02*
X13690275Y-106712367D01*
X10909725Y-104107633D02*
X13160995Y-103710673D01*
%TO.C,D-2-1*%
X34319777Y-101116029D02*
X34743976Y-104134366D01*
X32056024Y-101434178D02*
X34319777Y-101116029D01*
X34743976Y-104134366D02*
X32480223Y-104452515D01*
D10*
X34571193Y-103932447D02*
X34670220Y-103918530D01*
D11*
X32480223Y-104452515D02*
X32056024Y-101434178D01*
D10*
X34670220Y-103918530D02*
X34571193Y-103932447D01*
X34642385Y-103720476D02*
X32463796Y-104026657D01*
X32435961Y-103828604D02*
X34614551Y-103522423D01*
X32491630Y-104224711D02*
X34571193Y-103932447D01*
%TO.C,D-2-2*%
X54569861Y-88807897D02*
X54470409Y-88818350D01*
D11*
X54317437Y-85994873D02*
X54636040Y-89026175D01*
X52362563Y-89265127D02*
X52043960Y-86233825D01*
D10*
X52340102Y-88640051D02*
X54528050Y-88410088D01*
X54470409Y-88818350D02*
X54569861Y-88807897D01*
D11*
X54636040Y-89026175D02*
X52362563Y-89265127D01*
D10*
X52381913Y-89037860D02*
X54470409Y-88818350D01*
X54548955Y-88608993D02*
X52361007Y-88838955D01*
D11*
X52043960Y-86233825D02*
X54317437Y-85994873D01*
D10*
%TO.C,D-2-3*%
X73895460Y-84376331D02*
X76090101Y-84222867D01*
X76104053Y-84422379D02*
X73909412Y-84575844D01*
D11*
X75963907Y-81801772D02*
X76176525Y-84842347D01*
X73683475Y-81961235D02*
X75963907Y-81801772D01*
X73896093Y-85001810D02*
X73683475Y-81961235D01*
D10*
X76018247Y-84628868D02*
X76118004Y-84621892D01*
X73923363Y-84775356D02*
X76018247Y-84628868D01*
D11*
X76176525Y-84842347D02*
X73896093Y-85001810D01*
D10*
X76118004Y-84621892D02*
X76018247Y-84628868D01*
D11*
%TO.C,D-2-4*%
X96010883Y-87845128D02*
X95904509Y-84798985D01*
D10*
X98244699Y-87542985D02*
X98144760Y-87546475D01*
D11*
X98189117Y-84719204D02*
X98295491Y-87765347D01*
D10*
X98237719Y-87343106D02*
X96039060Y-87419885D01*
D11*
X95904509Y-84798985D02*
X98189117Y-84719204D01*
D10*
X96046039Y-87619764D02*
X98144760Y-87546475D01*
X98144760Y-87546475D02*
X98244699Y-87542985D01*
X96032080Y-87220007D02*
X98230739Y-87143228D01*
D11*
X98295491Y-87765347D02*
X96010883Y-87845128D01*
D10*
%TO.C,D-2-5*%
X119210000Y-88730000D02*
X117010000Y-88730000D01*
X117010000Y-88930000D02*
X119110000Y-88930000D01*
X117010000Y-88530000D02*
X119210000Y-88530000D01*
D11*
X116967000Y-86106000D02*
X119253000Y-86106000D01*
X116967000Y-89154000D02*
X116967000Y-86106000D01*
X119253000Y-89154000D02*
X116967000Y-89154000D01*
X119253000Y-86106000D02*
X119253000Y-89154000D01*
D10*
X119210000Y-88930000D02*
X119110000Y-88930000D01*
X119110000Y-88930000D02*
X119210000Y-88930000D01*
D11*
%TO.C,D-3-3*%
X96404509Y-109699115D02*
X96510883Y-106652972D01*
D10*
X98660940Y-109353653D02*
X96462281Y-109276874D01*
X96469261Y-109076996D02*
X98667920Y-109153775D01*
D11*
X98689117Y-109778896D02*
X96404509Y-109699115D01*
X98795491Y-106732753D02*
X98689117Y-109778896D01*
D10*
X98554021Y-109550042D02*
X98653961Y-109553532D01*
X96455301Y-109476753D02*
X98554021Y-109550042D01*
D11*
X96510883Y-106652972D02*
X98795491Y-106732753D01*
D10*
X98653961Y-109553532D02*
X98554021Y-109550042D01*
D11*
%TO.C,D-3-4*%
X117777437Y-112125127D02*
X115503960Y-111886175D01*
D10*
X115570139Y-111667897D02*
X117658635Y-111887407D01*
X115611950Y-111270088D02*
X117799898Y-111500051D01*
X117758087Y-111897860D02*
X117658635Y-111887407D01*
D11*
X115822563Y-108854873D02*
X118096040Y-109093825D01*
X118096040Y-109093825D02*
X117777437Y-112125127D01*
D10*
X117778993Y-111698955D02*
X115591045Y-111468993D01*
D11*
X115503960Y-111886175D02*
X115822563Y-108854873D01*
D10*
X117658635Y-111887407D02*
X117758087Y-111897860D01*
%TO.C,D-3-5*%
X135190969Y-115389237D02*
X137259065Y-115753898D01*
X135260428Y-114995314D02*
X137427005Y-115377340D01*
X137357546Y-115771263D02*
X137259065Y-115753898D01*
D11*
X135639005Y-112600673D02*
X137890275Y-112997633D01*
D10*
X137259065Y-115753898D02*
X137357546Y-115771263D01*
X137392276Y-115574302D02*
X135225698Y-115192276D01*
D11*
X135109725Y-115602367D02*
X135639005Y-112600673D01*
X137890275Y-112997633D02*
X137360995Y-115999327D01*
X137360995Y-115999327D02*
X135109725Y-115602367D01*
D10*
%TO.C,D-0-0-B1*%
X277474403Y-69469214D02*
X275307825Y-69087188D01*
X277439673Y-69666175D02*
X277341192Y-69648810D01*
X277341192Y-69648810D02*
X277439673Y-69666175D01*
D11*
X277443122Y-69894239D02*
X275191852Y-69497279D01*
X275191852Y-69497279D02*
X275721132Y-66495585D01*
X275721132Y-66495585D02*
X277972402Y-66892545D01*
D10*
X275342555Y-68890226D02*
X277509132Y-69272252D01*
D11*
X277972402Y-66892545D02*
X277443122Y-69894239D01*
D10*
X275273096Y-69284149D02*
X277341192Y-69648810D01*
%TO.C,D-0-1-B1*%
X252811907Y-65618179D02*
X254891470Y-65910443D01*
D11*
X255426103Y-63133827D02*
X255001904Y-66152164D01*
D10*
X255018331Y-65726306D02*
X252839742Y-65420125D01*
D11*
X253162350Y-62815678D02*
X255426103Y-63133827D01*
D10*
X254891470Y-65910443D02*
X254990497Y-65924360D01*
D11*
X255001904Y-66152164D02*
X252738151Y-65834015D01*
D10*
X252867576Y-65222072D02*
X255046166Y-65528253D01*
D11*
X252738151Y-65834015D02*
X253162350Y-62815678D01*
D10*
X254990497Y-65924360D02*
X254891470Y-65910443D01*
%TO.C,D-0-2-B1*%
X233640762Y-51276524D02*
X233740214Y-51286977D01*
X231552266Y-51057014D02*
X233640762Y-51276524D01*
D11*
X231804690Y-48243990D02*
X234078167Y-48482942D01*
D10*
X231594077Y-50659205D02*
X233782025Y-50889168D01*
D11*
X231486087Y-51275292D02*
X231804690Y-48243990D01*
D10*
X233761120Y-51088072D02*
X231573172Y-50858110D01*
X233740214Y-51286977D02*
X233640762Y-51276524D01*
D11*
X233759564Y-51514244D02*
X231486087Y-51275292D01*
X234078167Y-48482942D02*
X233759564Y-51514244D01*
%TO.C,D-0-3-B1*%
X210916034Y-47441335D02*
X208635602Y-47281872D01*
X211128652Y-44400760D02*
X210916034Y-47441335D01*
D10*
X210902715Y-47015369D02*
X208708074Y-46861904D01*
D11*
X208848220Y-44241297D02*
X211128652Y-44400760D01*
D10*
X210888764Y-47214881D02*
X210789008Y-47207906D01*
D11*
X208635602Y-47281872D02*
X208848220Y-44241297D01*
D10*
X208722026Y-46662392D02*
X210916667Y-46815856D01*
X208694123Y-47061417D02*
X210789008Y-47207906D01*
X210789008Y-47207906D02*
X210888764Y-47214881D01*
%TO.C,D-0-4-B1*%
X187743067Y-48204759D02*
X185544408Y-48127980D01*
X187736088Y-48404638D02*
X187636148Y-48401148D01*
D11*
X185593010Y-45504078D02*
X187877618Y-45583859D01*
D10*
X185537428Y-48327859D02*
X187636148Y-48401148D01*
D11*
X187771244Y-48630002D02*
X185486636Y-48550221D01*
D10*
X185551388Y-47928102D02*
X187750047Y-48004881D01*
D11*
X187877618Y-45583859D02*
X187771244Y-48630002D01*
X185486636Y-48550221D02*
X185593010Y-45504078D01*
D10*
X187636148Y-48401148D02*
X187736088Y-48404638D01*
D11*
%TO.C,D-0-5-B1*%
X165725127Y-51054000D02*
X163439127Y-51054000D01*
X165725127Y-48006000D02*
X165725127Y-51054000D01*
D10*
X165682127Y-50630000D02*
X163482127Y-50630000D01*
X163482127Y-50830000D02*
X165582127Y-50830000D01*
D11*
X163439127Y-48006000D02*
X165725127Y-48006000D01*
D10*
X163482127Y-50430000D02*
X165682127Y-50430000D01*
D11*
X163439127Y-51054000D02*
X163439127Y-48006000D01*
D10*
X165682127Y-50830000D02*
X165582127Y-50830000D01*
X165582127Y-50830000D02*
X165682127Y-50830000D01*
%TO.C,D-1-0-B1*%
X272042555Y-87650811D02*
X274209132Y-88032837D01*
X274041192Y-88409395D02*
X274139673Y-88426760D01*
X274139673Y-88426760D02*
X274041192Y-88409395D01*
X274174403Y-88229799D02*
X272007825Y-87847773D01*
D11*
X274143122Y-88654824D02*
X271891852Y-88257864D01*
D10*
X271973096Y-88044734D02*
X274041192Y-88409395D01*
D11*
X272421132Y-85256170D02*
X274672402Y-85653130D01*
X271891852Y-88257864D02*
X272421132Y-85256170D01*
X274672402Y-85653130D02*
X274143122Y-88654824D01*
%TO.C,D-1-1-B1*%
X249938151Y-85968622D02*
X250362350Y-82950285D01*
D10*
X250067576Y-85356679D02*
X252246166Y-85662860D01*
X252091470Y-86045050D02*
X252190497Y-86058967D01*
X250011907Y-85752786D02*
X252091470Y-86045050D01*
D11*
X252626103Y-83268434D02*
X252201904Y-86286771D01*
X252201904Y-86286771D02*
X249938151Y-85968622D01*
D10*
X252190497Y-86058967D02*
X252091470Y-86045050D01*
D11*
X250362350Y-82950285D02*
X252626103Y-83268434D01*
D10*
X252218331Y-85860913D02*
X250039742Y-85554732D01*
%TO.C,D-1-2-B1*%
X231740214Y-70232619D02*
X231640762Y-70222166D01*
X231761120Y-70033714D02*
X229573172Y-69803752D01*
X231640762Y-70222166D02*
X231740214Y-70232619D01*
X229594077Y-69604847D02*
X231782025Y-69834810D01*
D11*
X231759564Y-70459886D02*
X229486087Y-70220934D01*
D10*
X229552266Y-70002656D02*
X231640762Y-70222166D01*
D11*
X229486087Y-70220934D02*
X229804690Y-67189632D01*
X232078167Y-67428584D02*
X231759564Y-70459886D01*
X229804690Y-67189632D02*
X232078167Y-67428584D01*
D10*
%TO.C,D-1-3-B1*%
X207294123Y-66065013D02*
X209389008Y-66211502D01*
X209502715Y-66018965D02*
X207308074Y-65865500D01*
X209488764Y-66218477D02*
X209389008Y-66211502D01*
D11*
X209516034Y-66444931D02*
X207235602Y-66285468D01*
D10*
X209389008Y-66211502D02*
X209488764Y-66218477D01*
D11*
X207235602Y-66285468D02*
X207448220Y-63244893D01*
X207448220Y-63244893D02*
X209728652Y-63404356D01*
X209728652Y-63404356D02*
X209516034Y-66444931D01*
D10*
X207322026Y-65665988D02*
X209516667Y-65819452D01*
%TO.C,D-1-4-B1*%
X184851388Y-66966497D02*
X187050047Y-67043276D01*
X187036088Y-67443033D02*
X186936148Y-67439543D01*
D11*
X187177618Y-64622254D02*
X187071244Y-67668397D01*
X184786636Y-67588616D02*
X184893010Y-64542473D01*
X184893010Y-64542473D02*
X187177618Y-64622254D01*
D10*
X184837428Y-67366254D02*
X186936148Y-67439543D01*
X186936148Y-67439543D02*
X187036088Y-67443033D01*
X187043067Y-67243154D02*
X184844408Y-67166375D01*
D11*
X187071244Y-67668397D02*
X184786636Y-67588616D01*
D10*
%TO.C,D-1-5-B1*%
X165582127Y-69880000D02*
X165682127Y-69880000D01*
D11*
X163439127Y-67056000D02*
X165725127Y-67056000D01*
D10*
X165682127Y-69680000D02*
X163482127Y-69680000D01*
D11*
X165725127Y-70104000D02*
X163439127Y-70104000D01*
D10*
X163482127Y-69480000D02*
X165682127Y-69480000D01*
X163482127Y-69880000D02*
X165582127Y-69880000D01*
D11*
X163439127Y-70104000D02*
X163439127Y-67056000D01*
X165725127Y-67056000D02*
X165725127Y-70104000D01*
D10*
X165682127Y-69880000D02*
X165582127Y-69880000D01*
D11*
%TO.C,D-2-0-B1*%
X271272402Y-104413719D02*
X270743122Y-107415413D01*
X269021132Y-104016759D02*
X271272402Y-104413719D01*
X268491852Y-107018453D02*
X269021132Y-104016759D01*
D10*
X268573096Y-106805323D02*
X270641192Y-107169984D01*
D11*
X270743122Y-107415413D02*
X268491852Y-107018453D01*
D10*
X268642555Y-106411400D02*
X270809132Y-106793426D01*
X270774403Y-106990388D02*
X268607825Y-106608362D01*
X270641192Y-107169984D02*
X270739673Y-107187349D01*
X270739673Y-107187349D02*
X270641192Y-107169984D01*
%TO.C,D-2-1-B1*%
X247511907Y-103347392D02*
X249591470Y-103639656D01*
X247567576Y-102951285D02*
X249746166Y-103257466D01*
D11*
X247862350Y-100544891D02*
X250126103Y-100863040D01*
X249701904Y-103881377D02*
X247438151Y-103563228D01*
D10*
X249690497Y-103653573D02*
X249591470Y-103639656D01*
X249718331Y-103455519D02*
X247539742Y-103149338D01*
X249591470Y-103639656D02*
X249690497Y-103653573D01*
D11*
X250126103Y-100863040D02*
X249701904Y-103881377D01*
X247438151Y-103563228D02*
X247862350Y-100544891D01*
%TO.C,D-2-2-B1*%
X230078167Y-86374225D02*
X229759564Y-89405527D01*
X227804690Y-86135273D02*
X230078167Y-86374225D01*
D10*
X227552266Y-88948297D02*
X229640762Y-89167807D01*
X229761120Y-88979355D02*
X227573172Y-88749393D01*
X229740214Y-89178260D02*
X229640762Y-89167807D01*
X229640762Y-89167807D02*
X229740214Y-89178260D01*
X227594077Y-88550488D02*
X229782025Y-88780451D01*
D11*
X229759564Y-89405527D02*
X227486087Y-89166575D01*
X227486087Y-89166575D02*
X227804690Y-86135273D01*
%TO.C,D-2-3-B1*%
X206248220Y-82248488D02*
X208528652Y-82407951D01*
D10*
X206094123Y-85068608D02*
X208189008Y-85215097D01*
X206122026Y-84669583D02*
X208316667Y-84823047D01*
X208302715Y-85022560D02*
X206108074Y-84869095D01*
X208288764Y-85222072D02*
X208189008Y-85215097D01*
D11*
X208528652Y-82407951D02*
X208316034Y-85448526D01*
X206035602Y-85289063D02*
X206248220Y-82248488D01*
D10*
X208189008Y-85215097D02*
X208288764Y-85222072D01*
D11*
X208316034Y-85448526D02*
X206035602Y-85289063D01*
D10*
%TO.C,D-2-4-B1*%
X184237428Y-86404650D02*
X186336148Y-86477939D01*
D11*
X186471244Y-86706793D02*
X184186636Y-86627012D01*
X186577618Y-83660650D02*
X186471244Y-86706793D01*
X184186636Y-86627012D02*
X184293010Y-83580869D01*
D10*
X184251388Y-86004893D02*
X186450047Y-86081672D01*
X186336148Y-86477939D02*
X186436088Y-86481429D01*
X186443067Y-86281550D02*
X184244408Y-86204771D01*
D11*
X184293010Y-83580869D02*
X186577618Y-83660650D01*
D10*
X186436088Y-86481429D02*
X186336148Y-86477939D01*
D11*
%TO.C,D-2-5-B1*%
X163439127Y-86106000D02*
X165725127Y-86106000D01*
D10*
X163482127Y-88930000D02*
X165582127Y-88930000D01*
X165582127Y-88930000D02*
X165682127Y-88930000D01*
D11*
X163439127Y-89154000D02*
X163439127Y-86106000D01*
D10*
X165682127Y-88930000D02*
X165582127Y-88930000D01*
D11*
X165725127Y-89154000D02*
X163439127Y-89154000D01*
D10*
X163482127Y-88530000D02*
X165682127Y-88530000D01*
X165682127Y-88730000D02*
X163482127Y-88730000D01*
D11*
X165725127Y-86106000D02*
X165725127Y-89154000D01*
%TO.C,D-3-3-B1*%
X186171244Y-106960135D02*
X186277618Y-110006278D01*
D10*
X184028166Y-109860695D02*
X186126887Y-109787406D01*
X186226826Y-109783916D02*
X186126887Y-109787406D01*
D11*
X183993010Y-110086059D02*
X183886636Y-107039916D01*
D10*
X184014207Y-109460938D02*
X186212866Y-109384159D01*
X186219846Y-109584037D02*
X184021187Y-109660816D01*
D11*
X183886636Y-107039916D02*
X186171244Y-106960135D01*
D10*
X186126887Y-109787406D02*
X186226826Y-109783916D01*
D11*
X186277618Y-110006278D02*
X183993010Y-110086059D01*
%TO.C,D-3-4-B1*%
X166788167Y-111886175D02*
X164514690Y-112125127D01*
D10*
X166721988Y-111667897D02*
X166622536Y-111678350D01*
D11*
X164514690Y-112125127D02*
X164196087Y-109093825D01*
D10*
X166701082Y-111468993D02*
X164513134Y-111698955D01*
X164534040Y-111897860D02*
X166622536Y-111678350D01*
D11*
X164196087Y-109093825D02*
X166469564Y-108854873D01*
D10*
X166622536Y-111678350D02*
X166721988Y-111667897D01*
X164492229Y-111500051D02*
X166680177Y-111270088D01*
D11*
X166469564Y-108854873D02*
X166788167Y-111886175D01*
%TO.C,D-3-5-B1*%
X145021132Y-115999327D02*
X144491852Y-112997633D01*
X147272402Y-115602367D02*
X145021132Y-115999327D01*
D10*
X145024581Y-115771263D02*
X147092677Y-115406602D01*
X147191158Y-115389237D02*
X147092677Y-115406602D01*
D11*
X146743122Y-112600673D02*
X147272402Y-115602367D01*
D10*
X147156429Y-115192276D02*
X144989851Y-115574302D01*
X147092677Y-115406602D02*
X147191158Y-115389237D01*
D11*
X144491852Y-112997633D02*
X146743122Y-112600673D01*
D10*
X144955122Y-115377340D02*
X147121699Y-114995314D01*
D12*
%TO.C,U1*%
X121920000Y-71540000D02*
X121920000Y-41060000D01*
X121920000Y-41060000D02*
X121920000Y-38520000D01*
X137160000Y-41060000D02*
X139700000Y-41060000D01*
X139700000Y-71540000D02*
X121920000Y-71540000D01*
X139700000Y-38520000D02*
X139700000Y-41060000D01*
X121920000Y-38520000D02*
X139700000Y-38520000D01*
X139700000Y-41060000D02*
X139700000Y-71540000D01*
X137160000Y-43600000D02*
X139700000Y-43600000D01*
X137160000Y-41060000D02*
X137160000Y-43600000D01*
D10*
X125878432Y-47539360D02*
X125878432Y-47739360D01*
X125878432Y-47739360D02*
X125978432Y-47739360D01*
X125978432Y-47739360D02*
X125978432Y-47539360D01*
X125978432Y-47539360D02*
X125878432Y-47539360D01*
G36*
X125978432Y-47739360D02*
G01*
X125878432Y-47739360D01*
X125878432Y-47539360D01*
X125978432Y-47539360D01*
X125978432Y-47739360D01*
G37*
X125978432Y-47739360D02*
X125878432Y-47739360D01*
X125878432Y-47539360D01*
X125978432Y-47539360D01*
X125978432Y-47739360D01*
X125878432Y-46939360D02*
X125878432Y-47039360D01*
X125878432Y-47039360D02*
X126378432Y-47039360D01*
X126378432Y-47039360D02*
X126378432Y-46939360D01*
X126378432Y-46939360D02*
X125878432Y-46939360D01*
G36*
X126378432Y-47039360D02*
G01*
X125878432Y-47039360D01*
X125878432Y-46939360D01*
X126378432Y-46939360D01*
X126378432Y-47039360D01*
G37*
X126378432Y-47039360D02*
X125878432Y-47039360D01*
X125878432Y-46939360D01*
X126378432Y-46939360D01*
X126378432Y-47039360D01*
X126278432Y-46939360D02*
X126278432Y-47739360D01*
X126278432Y-47739360D02*
X126378432Y-47739360D01*
X126378432Y-47739360D02*
X126378432Y-46939360D01*
X126378432Y-46939360D02*
X126278432Y-46939360D01*
G36*
X126378432Y-47739360D02*
G01*
X126278432Y-47739360D01*
X126278432Y-46939360D01*
X126378432Y-46939360D01*
X126378432Y-47739360D01*
G37*
X126378432Y-47739360D02*
X126278432Y-47739360D01*
X126278432Y-46939360D01*
X126378432Y-46939360D01*
X126378432Y-47739360D01*
X125878432Y-46939360D02*
X125878432Y-47239360D01*
X125878432Y-47239360D02*
X125978432Y-47239360D01*
X125978432Y-47239360D02*
X125978432Y-46939360D01*
X125978432Y-46939360D02*
X125878432Y-46939360D01*
G36*
X125978432Y-47239360D02*
G01*
X125878432Y-47239360D01*
X125878432Y-46939360D01*
X125978432Y-46939360D01*
X125978432Y-47239360D01*
G37*
X125978432Y-47239360D02*
X125878432Y-47239360D01*
X125878432Y-46939360D01*
X125978432Y-46939360D01*
X125978432Y-47239360D01*
X126078432Y-47339360D02*
X126078432Y-47439360D01*
X126078432Y-47439360D02*
X126178432Y-47439360D01*
X126178432Y-47439360D02*
X126178432Y-47339360D01*
X126178432Y-47339360D02*
X126078432Y-47339360D01*
G36*
X126178432Y-47439360D02*
G01*
X126078432Y-47439360D01*
X126078432Y-47339360D01*
X126178432Y-47339360D01*
X126178432Y-47439360D01*
G37*
X126178432Y-47439360D02*
X126078432Y-47439360D01*
X126078432Y-47339360D01*
X126178432Y-47339360D01*
X126178432Y-47439360D01*
%TD*%
D13*
%TO.C,U1*%
X138430000Y-42330000D03*
D14*
X138430000Y-44870000D03*
X138430000Y-47410000D03*
X138430000Y-49950000D03*
X138430000Y-52490000D03*
X138430000Y-55030000D03*
X138430000Y-57570000D03*
X138430000Y-60110000D03*
X138430000Y-62650000D03*
X138430000Y-65190000D03*
X138430000Y-67730000D03*
X138430000Y-70270000D03*
X123190000Y-70270000D03*
X123190000Y-67730000D03*
X123190000Y-65190000D03*
X123190000Y-62650000D03*
X123190000Y-60110000D03*
X123190000Y-57570000D03*
X123190000Y-55030000D03*
X123190000Y-52490000D03*
X123190000Y-49950000D03*
X123190000Y-47410000D03*
X123190000Y-44870000D03*
X123190000Y-42330000D03*
%TD*%
M02*
