%TF.GenerationSoftware,KiCad,Pcbnew,(6.0.0-0)*%
%TF.CreationDate,2022-01-05T11:34:16+07:00*%
%TF.ProjectId,kibod-01,6b69626f-642d-4303-912e-6b696361645f,rev?*%
%TF.SameCoordinates,Original*%
%TF.FileFunction,OtherDrawing,Comment*%
%FSLAX46Y46*%
G04 Gerber Fmt 4.6, Leading zero omitted, Abs format (unit mm)*
G04 Created by KiCad (PCBNEW (6.0.0-0)) date 2022-01-05 11:34:16*
%MOMM*%
%LPD*%
G01*
G04 APERTURE LIST*
%ADD10C,0.100000*%
%ADD11C,0.066040*%
%ADD12C,0.203200*%
%ADD13C,0.200000*%
G04 APERTURE END LIST*
D10*
%TO.C,K-0-0*%
X8335586Y-77576295D02*
X-10425002Y-80884293D01*
X5027588Y-58815707D02*
X8335586Y-77576295D01*
X-10425002Y-80884293D02*
X-13733000Y-62123705D01*
X-13733000Y-62123705D02*
X5027588Y-58815707D01*
%TO.C,K-0-1*%
X27851613Y-54963244D02*
X30502860Y-73827851D01*
X8987006Y-57614491D02*
X27851613Y-54963244D01*
X11638253Y-76479098D02*
X8987006Y-57614491D01*
X30502860Y-73827851D02*
X11638253Y-76479098D01*
%TO.C,K-0-2*%
X51473975Y-59285562D02*
X32528333Y-61276830D01*
X32528333Y-61276830D02*
X30537065Y-42331188D01*
X30537065Y-42331188D02*
X49482707Y-40339920D01*
X49482707Y-40339920D02*
X51473975Y-59285562D01*
%TO.C,K-0-3*%
X53678770Y-37624085D02*
X72682365Y-36295224D01*
X55007631Y-56627680D02*
X53678770Y-37624085D01*
X72682365Y-36295224D02*
X74011226Y-55298819D01*
X74011226Y-55298819D02*
X55007631Y-56627680D01*
%TO.C,K-0-4*%
X77191915Y-38190517D02*
X96230310Y-37525682D01*
X96230310Y-37525682D02*
X96895145Y-56564077D01*
X96895145Y-56564077D02*
X77856750Y-57228912D01*
X77856750Y-57228912D02*
X77191915Y-38190517D01*
%TO.C,K-0-5*%
X99695000Y-40005000D02*
X118745000Y-40005000D01*
X99695000Y-59055000D02*
X99695000Y-40005000D01*
X118745000Y-59055000D02*
X99695000Y-59055000D01*
X118745000Y-40005000D02*
X118745000Y-59055000D01*
%TO.C,K-1-0*%
X-7117005Y-99533524D02*
X-10425003Y-80772936D01*
X-10425003Y-80772936D02*
X8335585Y-77464938D01*
X8335585Y-77464938D02*
X11643583Y-96225526D01*
X11643583Y-96225526D02*
X-7117005Y-99533524D01*
%TO.C,K-1-1*%
X14289498Y-95343704D02*
X11638251Y-76479097D01*
X11638251Y-76479097D02*
X30502858Y-73827850D01*
X30502858Y-73827850D02*
X33154105Y-92692457D01*
X33154105Y-92692457D02*
X14289498Y-95343704D01*
%TO.C,K-1-2*%
X51473972Y-59285563D02*
X53465240Y-78231205D01*
X53465240Y-78231205D02*
X34519598Y-80222473D01*
X34519598Y-80222473D02*
X32528330Y-61276831D01*
X32528330Y-61276831D02*
X51473972Y-59285563D01*
%TO.C,K-1-3*%
X74011225Y-55298818D02*
X75340086Y-74302413D01*
X75340086Y-74302413D02*
X56336491Y-75631274D01*
X55007630Y-56627679D02*
X74011225Y-55298818D01*
X56336491Y-75631274D02*
X55007630Y-56627679D01*
%TO.C,K-1-4*%
X78521585Y-76267307D02*
X77856750Y-57228912D01*
X96895145Y-56564077D02*
X97559980Y-75602472D01*
X97559980Y-75602472D02*
X78521585Y-76267307D01*
X77856750Y-57228912D02*
X96895145Y-56564077D01*
%TO.C,K-1-5*%
X118745000Y-59055000D02*
X118745000Y-78105000D01*
X99695000Y-59055000D02*
X118745000Y-59055000D01*
X99695000Y-78105000D02*
X99695000Y-59055000D01*
X118745000Y-78105000D02*
X99695000Y-78105000D01*
%TO.C,K-2-0*%
X14951581Y-114986114D02*
X-3809007Y-118294112D01*
X11643583Y-96225526D02*
X14951581Y-114986114D01*
X-3809007Y-118294112D02*
X-7117005Y-99533524D01*
X-7117005Y-99533524D02*
X11643583Y-96225526D01*
%TO.C,K-2-1*%
X16940748Y-114208311D02*
X14289501Y-95343704D01*
X14289501Y-95343704D02*
X33154108Y-92692457D01*
X35805355Y-111557064D02*
X16940748Y-114208311D01*
X33154108Y-92692457D02*
X35805355Y-111557064D01*
%TO.C,K-2-2*%
X36510866Y-99168113D02*
X34519598Y-80222471D01*
X55456508Y-97176845D02*
X36510866Y-99168113D01*
X34519598Y-80222471D02*
X53465240Y-78231203D01*
X53465240Y-78231203D02*
X55456508Y-97176845D01*
%TO.C,K-2-3*%
X76668947Y-93306009D02*
X57665352Y-94634870D01*
X57665352Y-94634870D02*
X56336491Y-75631275D01*
X75340086Y-74302414D02*
X76668947Y-93306009D01*
X56336491Y-75631275D02*
X75340086Y-74302414D01*
%TO.C,K-2-4*%
X97559980Y-75602472D02*
X98224815Y-94640867D01*
X79186420Y-95305702D02*
X78521585Y-76267307D01*
X78521585Y-76267307D02*
X97559980Y-75602472D01*
X98224815Y-94640867D02*
X79186420Y-95305702D01*
%TO.C,K-2-5*%
X118745000Y-78105000D02*
X118745000Y-97155000D01*
X99695000Y-78105000D02*
X118745000Y-78105000D01*
X99695000Y-97155000D02*
X99695000Y-78105000D01*
X118745000Y-97155000D02*
X99695000Y-97155000D01*
%TO.C,K-3-3*%
X79049158Y-117136780D02*
X79713993Y-98098385D01*
X98752388Y-98763220D02*
X98087553Y-117801615D01*
X79713993Y-98098385D02*
X98752388Y-98763220D01*
X98087553Y-117801615D02*
X79049158Y-117136780D01*
%TO.C,K-3-4*%
X116904470Y-119688455D02*
X97958828Y-117697187D01*
X99950096Y-98751545D02*
X118895738Y-100742813D01*
X97958828Y-117697187D02*
X99950096Y-98751545D01*
X118895738Y-100742813D02*
X116904470Y-119688455D01*
%TO.C,K-3-5*%
X139304293Y-104121108D02*
X135996295Y-122881696D01*
X135996295Y-122881696D02*
X117235707Y-119573698D01*
X120543705Y-100813110D02*
X139304293Y-104121108D01*
X117235707Y-119573698D02*
X120543705Y-100813110D01*
D11*
%TO.C,J1*%
X130556000Y-90424000D02*
X131064000Y-90424000D01*
X133604000Y-87884000D02*
X133604000Y-87376000D01*
X133604000Y-92964000D02*
X133604000Y-92456000D01*
X130556000Y-94996000D02*
X131064000Y-94996000D01*
X133096000Y-92456000D02*
X133604000Y-92456000D01*
X130556000Y-92964000D02*
X130556000Y-92456000D01*
X133096000Y-84836000D02*
X133604000Y-84836000D01*
X131064000Y-90424000D02*
X131064000Y-89916000D01*
X133096000Y-85344000D02*
X133604000Y-85344000D01*
X131064000Y-92964000D02*
X131064000Y-92456000D01*
X130556000Y-87884000D02*
X131064000Y-87884000D01*
X133604000Y-95504000D02*
X133604000Y-94996000D01*
X133604000Y-85344000D02*
X133604000Y-84836000D01*
X130556000Y-92456000D02*
X131064000Y-92456000D01*
D12*
X128681480Y-99169220D02*
X128681480Y-92369640D01*
D11*
X130556000Y-85344000D02*
X130556000Y-84836000D01*
X133604000Y-92964000D02*
X133604000Y-92456000D01*
X133096000Y-92964000D02*
X133604000Y-92964000D01*
D12*
X135478520Y-81170780D02*
X135478520Y-99169220D01*
D11*
X133096000Y-92964000D02*
X133096000Y-92456000D01*
X131064000Y-87884000D02*
X131064000Y-87376000D01*
X130556000Y-87884000D02*
X130556000Y-87376000D01*
X133096000Y-94996000D02*
X133604000Y-94996000D01*
X131064000Y-85344000D02*
X131064000Y-84836000D01*
X130556000Y-92456000D02*
X131064000Y-92456000D01*
X133096000Y-85344000D02*
X133096000Y-84836000D01*
X130556000Y-84836000D02*
X131064000Y-84836000D01*
X133096000Y-92964000D02*
X133096000Y-92456000D01*
X130556000Y-92964000D02*
X131064000Y-92964000D01*
X133096000Y-92456000D02*
X133604000Y-92456000D01*
X131064000Y-95504000D02*
X131064000Y-94996000D01*
X130556000Y-92964000D02*
X130556000Y-92456000D01*
X130556000Y-85344000D02*
X131064000Y-85344000D01*
X133096000Y-87884000D02*
X133096000Y-87376000D01*
X130556000Y-95504000D02*
X130556000Y-94996000D01*
D12*
X128681480Y-99169220D02*
X135478520Y-99169220D01*
D11*
X130556000Y-92964000D02*
X131064000Y-92964000D01*
X133096000Y-89916000D02*
X133604000Y-89916000D01*
X133096000Y-90424000D02*
X133604000Y-90424000D01*
D12*
X128681480Y-81170780D02*
X135478520Y-81170780D01*
D11*
X133096000Y-95504000D02*
X133604000Y-95504000D01*
X130556000Y-87376000D02*
X131064000Y-87376000D01*
X133096000Y-87376000D02*
X133604000Y-87376000D01*
X131064000Y-92964000D02*
X131064000Y-92456000D01*
X133096000Y-95504000D02*
X133096000Y-94996000D01*
X133604000Y-90424000D02*
X133604000Y-89916000D01*
X133096000Y-92964000D02*
X133604000Y-92964000D01*
X133096000Y-87884000D02*
X133604000Y-87884000D01*
X130556000Y-90424000D02*
X130556000Y-89916000D01*
X130556000Y-95504000D02*
X131064000Y-95504000D01*
D12*
X128681480Y-81170780D02*
X128681480Y-87970360D01*
D11*
X133096000Y-90424000D02*
X133096000Y-89916000D01*
X130556000Y-89916000D02*
X131064000Y-89916000D01*
%TO.C,J2*%
X148728127Y-84836000D02*
X149236127Y-84836000D01*
X151268127Y-95504000D02*
X151268127Y-94996000D01*
X151268127Y-87884000D02*
X151268127Y-87376000D01*
X148728127Y-85344000D02*
X149236127Y-85344000D01*
X151268127Y-84836000D02*
X151776127Y-84836000D01*
X151776127Y-90424000D02*
X151776127Y-89916000D01*
X151776127Y-87884000D02*
X151776127Y-87376000D01*
X151268127Y-85344000D02*
X151268127Y-84836000D01*
X151268127Y-92964000D02*
X151268127Y-92456000D01*
X151268127Y-92964000D02*
X151776127Y-92964000D01*
X148728127Y-87376000D02*
X149236127Y-87376000D01*
X148728127Y-95504000D02*
X148728127Y-94996000D01*
X148728127Y-92456000D02*
X149236127Y-92456000D01*
D12*
X146853607Y-81170780D02*
X153650647Y-81170780D01*
X146853607Y-99169220D02*
X153650647Y-99169220D01*
D11*
X148728127Y-95504000D02*
X149236127Y-95504000D01*
X151268127Y-92456000D02*
X151776127Y-92456000D01*
D12*
X146853607Y-99169220D02*
X146853607Y-92369640D01*
D11*
X148728127Y-90424000D02*
X148728127Y-89916000D01*
X151268127Y-92456000D02*
X151776127Y-92456000D01*
X151268127Y-87884000D02*
X151776127Y-87884000D01*
X148728127Y-92456000D02*
X149236127Y-92456000D01*
X151268127Y-90424000D02*
X151268127Y-89916000D01*
X151268127Y-94996000D02*
X151776127Y-94996000D01*
X151776127Y-95504000D02*
X151776127Y-94996000D01*
X151268127Y-92964000D02*
X151268127Y-92456000D01*
X148728127Y-92964000D02*
X149236127Y-92964000D01*
X151268127Y-89916000D02*
X151776127Y-89916000D01*
X148728127Y-85344000D02*
X148728127Y-84836000D01*
X151268127Y-90424000D02*
X151776127Y-90424000D01*
X148728127Y-90424000D02*
X149236127Y-90424000D01*
X148728127Y-87884000D02*
X148728127Y-87376000D01*
X151268127Y-87376000D02*
X151776127Y-87376000D01*
X148728127Y-87884000D02*
X149236127Y-87884000D01*
X149236127Y-87884000D02*
X149236127Y-87376000D01*
D12*
X153650647Y-81170780D02*
X153650647Y-99169220D01*
D11*
X151776127Y-92964000D02*
X151776127Y-92456000D01*
X151268127Y-85344000D02*
X151776127Y-85344000D01*
X148728127Y-92964000D02*
X149236127Y-92964000D01*
X148728127Y-94996000D02*
X149236127Y-94996000D01*
X149236127Y-90424000D02*
X149236127Y-89916000D01*
X151268127Y-92964000D02*
X151776127Y-92964000D01*
X149236127Y-85344000D02*
X149236127Y-84836000D01*
X151268127Y-95504000D02*
X151776127Y-95504000D01*
X149236127Y-92964000D02*
X149236127Y-92456000D01*
X148728127Y-92964000D02*
X148728127Y-92456000D01*
X148728127Y-89916000D02*
X149236127Y-89916000D01*
X151776127Y-92964000D02*
X151776127Y-92456000D01*
X148728127Y-92964000D02*
X148728127Y-92456000D01*
D12*
X146853607Y-81170780D02*
X146853607Y-87970360D01*
D11*
X149236127Y-92964000D02*
X149236127Y-92456000D01*
X151776127Y-85344000D02*
X151776127Y-84836000D01*
X149236127Y-95504000D02*
X149236127Y-94996000D01*
D10*
%TO.C,K-0-0-B1*%
X292768861Y-80884293D02*
X274008273Y-77576295D01*
X274008273Y-77576295D02*
X277316271Y-58815707D01*
X277316271Y-58815707D02*
X296076859Y-62123705D01*
X296076859Y-62123705D02*
X292768861Y-80884293D01*
%TO.C,K-0-1-B1*%
X273356853Y-57614491D02*
X270705606Y-76479098D01*
X254492246Y-54963244D02*
X273356853Y-57614491D01*
X270705606Y-76479098D02*
X251840999Y-73827851D01*
X251840999Y-73827851D02*
X254492246Y-54963244D01*
%TO.C,K-0-2-B1*%
X232861152Y-40339920D02*
X251806794Y-42331188D01*
X230869884Y-59285562D02*
X232861152Y-40339920D01*
X249815526Y-61276830D02*
X230869884Y-59285562D01*
X251806794Y-42331188D02*
X249815526Y-61276830D01*
%TO.C,K-0-3-B1*%
X227336228Y-56627680D02*
X208332633Y-55298819D01*
X208332633Y-55298819D02*
X209661494Y-36295224D01*
X228665089Y-37624085D02*
X227336228Y-56627680D01*
X209661494Y-36295224D02*
X228665089Y-37624085D01*
%TO.C,K-0-4-B1*%
X204487109Y-57228912D02*
X185448714Y-56564077D01*
X205151944Y-38190517D02*
X204487109Y-57228912D01*
X186113549Y-37525682D02*
X205151944Y-38190517D01*
X185448714Y-56564077D02*
X186113549Y-37525682D01*
%TO.C,K-0-5-B1*%
X182637127Y-40005000D02*
X182637127Y-59055000D01*
X163587127Y-59055000D02*
X163587127Y-40005000D01*
X182637127Y-59055000D02*
X163587127Y-59055000D01*
X163587127Y-40005000D02*
X182637127Y-40005000D01*
%TO.C,K-1-0-B1*%
X270700275Y-96225526D02*
X274008273Y-77464938D01*
X289460863Y-99533524D02*
X270700275Y-96225526D01*
X274008273Y-77464938D02*
X292768861Y-80772936D01*
X292768861Y-80772936D02*
X289460863Y-99533524D01*
%TO.C,K-1-1-B1*%
X251841000Y-73827850D02*
X270705607Y-76479097D01*
X249189753Y-92692457D02*
X251841000Y-73827850D01*
X268054360Y-95343704D02*
X249189753Y-92692457D01*
X270705607Y-76479097D02*
X268054360Y-95343704D01*
%TO.C,K-1-2-B1*%
X228878618Y-78231205D02*
X230869886Y-59285563D01*
X249815528Y-61276831D02*
X247824260Y-80222473D01*
X230869886Y-59285563D02*
X249815528Y-61276831D01*
X247824260Y-80222473D02*
X228878618Y-78231205D01*
%TO.C,K-1-3-B1*%
X226007367Y-75631274D02*
X207003772Y-74302413D01*
X208332633Y-55298818D02*
X227336228Y-56627679D01*
X207003772Y-74302413D02*
X208332633Y-55298818D01*
X227336228Y-56627679D02*
X226007367Y-75631274D01*
%TO.C,K-1-4-B1*%
X204487108Y-57228912D02*
X203822273Y-76267307D01*
X203822273Y-76267307D02*
X184783878Y-75602472D01*
X184783878Y-75602472D02*
X185448713Y-56564077D01*
X185448713Y-56564077D02*
X204487108Y-57228912D01*
%TO.C,K-1-5-B1*%
X182637127Y-78105000D02*
X163587127Y-78105000D01*
X163587127Y-59055000D02*
X182637127Y-59055000D01*
X163587127Y-78105000D02*
X163587127Y-59055000D01*
X182637127Y-59055000D02*
X182637127Y-78105000D01*
%TO.C,K-2-0-B1*%
X267392277Y-114986114D02*
X270700275Y-96225526D01*
X286152865Y-118294112D02*
X267392277Y-114986114D01*
X270700275Y-96225526D02*
X289460863Y-99533524D01*
X289460863Y-99533524D02*
X286152865Y-118294112D01*
%TO.C,K-2-1-B1*%
X246538503Y-111557064D02*
X249189750Y-92692457D01*
X249189750Y-92692457D02*
X268054357Y-95343704D01*
X268054357Y-95343704D02*
X265403110Y-114208311D01*
X265403110Y-114208311D02*
X246538503Y-111557064D01*
%TO.C,K-2-2-B1*%
X247824260Y-80222471D02*
X245832992Y-99168113D01*
X245832992Y-99168113D02*
X226887350Y-97176845D01*
X226887350Y-97176845D02*
X228878618Y-78231203D01*
X228878618Y-78231203D02*
X247824260Y-80222471D01*
%TO.C,K-2-3-B1*%
X207003772Y-74302414D02*
X226007367Y-75631275D01*
X205674911Y-93306009D02*
X207003772Y-74302414D01*
X226007367Y-75631275D02*
X224678506Y-94634870D01*
X224678506Y-94634870D02*
X205674911Y-93306009D01*
%TO.C,K-2-4-B1*%
X203822273Y-76267307D02*
X203157438Y-95305702D01*
X203157438Y-95305702D02*
X184119043Y-94640867D01*
X184119043Y-94640867D02*
X184783878Y-75602472D01*
X184783878Y-75602472D02*
X203822273Y-76267307D01*
%TO.C,K-2-5-B1*%
X163587127Y-97155000D02*
X163587127Y-78105000D01*
X182637127Y-97155000D02*
X163587127Y-97155000D01*
X163587127Y-78105000D02*
X182637127Y-78105000D01*
X182637127Y-78105000D02*
X182637127Y-97155000D01*
%TO.C,K-3-3-B1*%
X203465674Y-117136780D02*
X184427279Y-117801615D01*
X183762444Y-98763220D02*
X202800839Y-98098385D01*
X202800839Y-98098385D02*
X203465674Y-117136780D01*
X184427279Y-117801615D02*
X183762444Y-98763220D01*
%TO.C,K-3-4-B1*%
X163436389Y-100742813D02*
X182382031Y-98751545D01*
X182382031Y-98751545D02*
X184373299Y-117697187D01*
X165427657Y-119688455D02*
X163436389Y-100742813D01*
X184373299Y-117697187D02*
X165427657Y-119688455D01*
%TO.C,K-3-5-B1*%
X165096420Y-119573698D02*
X146335832Y-122881696D01*
X143027834Y-104121108D02*
X161788422Y-100813110D01*
X161788422Y-100813110D02*
X165096420Y-119573698D01*
X146335832Y-122881696D02*
X143027834Y-104121108D01*
D13*
%TO.C,U1*%
X134620000Y-42076000D02*
X134620000Y-36996000D01*
X127254000Y-36996000D02*
X127254000Y-42076000D01*
X127254000Y-42076000D02*
X134620000Y-42076000D01*
X134620000Y-36996000D02*
X127254000Y-36996000D01*
%TD*%
M02*
