%TF.GenerationSoftware,KiCad,Pcbnew,(6.0.0-0)*%
%TF.CreationDate,2022-01-05T10:07:55+07:00*%
%TF.ProjectId,kibod-01,6b69626f-642d-4303-912e-6b696361645f,rev?*%
%TF.SameCoordinates,Original*%
%TF.FileFunction,Soldermask,Bot*%
%TF.FilePolarity,Negative*%
%FSLAX46Y46*%
G04 Gerber Fmt 4.6, Leading zero omitted, Abs format (unit mm)*
G04 Created by KiCad (PCBNEW (6.0.0-0)) date 2022-01-05 10:07:55*
%MOMM*%
%LPD*%
G01*
G04 APERTURE LIST*
G04 Aperture macros list*
%AMRotRect*
0 Rectangle, with rotation*
0 The origin of the aperture is its center*
0 $1 length*
0 $2 width*
0 $3 Rotation angle, in degrees counterclockwise*
0 Add horizontal line*
21,1,$1,$2,0,0,$3*%
G04 Aperture macros list end*
%ADD10RotRect,1.651000X1.651000X10.000000*%
%ADD11C,1.651000*%
%ADD12RotRect,1.651000X1.651000X8.000000*%
%ADD13RotRect,1.651000X1.651000X6.000000*%
%ADD14RotRect,1.651000X1.651000X4.000000*%
%ADD15RotRect,1.651000X1.651000X2.000000*%
%ADD16R,1.651000X1.651000*%
%ADD17RotRect,1.651000X1.651000X358.000000*%
%ADD18RotRect,1.651000X1.651000X354.000000*%
%ADD19RotRect,1.651000X1.651000X350.000000*%
%ADD20C,1.800000*%
%ADD21C,3.987800*%
%ADD22C,2.200000*%
%ADD23RotRect,1.651000X1.651000X352.000000*%
%ADD24RotRect,1.651000X1.651000X356.000000*%
%ADD25C,2.082800*%
%ADD26R,1.752600X1.752600*%
%ADD27C,1.752600*%
G04 APERTURE END LIST*
D10*
%TO.C,D-0-0*%
X6661600Y-72332118D03*
D11*
X5338400Y-64827882D03*
%TD*%
D12*
%TO.C,D-0-1*%
X28930250Y-69004728D03*
D11*
X27869750Y-61458886D03*
%TD*%
D13*
%TO.C,D-0-2*%
X49928253Y-53319128D03*
D11*
X49131747Y-45740872D03*
%TD*%
D14*
%TO.C,D-0-3*%
X72655772Y-49195320D03*
D11*
X72124228Y-41593882D03*
%TD*%
D15*
%TO.C,D-0-4*%
X95832967Y-50743828D03*
D11*
X95567033Y-43128470D03*
%TD*%
D16*
%TO.C,D-0-5*%
X118110000Y-53340000D03*
D11*
X118110000Y-45720000D03*
%TD*%
D10*
%TO.C,D-1-0*%
X9861600Y-91080448D03*
D11*
X8538400Y-83576212D03*
%TD*%
D12*
%TO.C,D-1-1*%
X31630250Y-87692586D03*
D11*
X30569750Y-80146744D03*
%TD*%
D13*
%TO.C,D-1-2*%
X51898253Y-72369128D03*
D11*
X51101747Y-64790872D03*
%TD*%
D14*
%TO.C,D-1-3*%
X73925772Y-68198915D03*
D11*
X73394228Y-60597477D03*
%TD*%
D15*
%TO.C,D-1-4*%
X96432967Y-69782224D03*
D11*
X96167033Y-62166866D03*
%TD*%
D16*
%TO.C,D-1-5*%
X118110000Y-72390000D03*
D11*
X118110000Y-64770000D03*
%TD*%
D10*
%TO.C,D-2-0*%
X12961600Y-109162118D03*
D11*
X11638400Y-101657882D03*
%TD*%
D12*
%TO.C,D-2-1*%
X33930250Y-106557193D03*
D11*
X32869750Y-99011351D03*
%TD*%
D13*
%TO.C,D-2-2*%
X53738253Y-91419128D03*
D11*
X52941747Y-83840872D03*
%TD*%
D14*
%TO.C,D-2-3*%
X75195772Y-87202510D03*
D11*
X74664228Y-79601072D03*
%TD*%
D15*
%TO.C,D-2-4*%
X97232967Y-90089845D03*
D11*
X96967033Y-82474487D03*
%TD*%
D16*
%TO.C,D-2-5*%
X118110000Y-91440000D03*
D11*
X118110000Y-83820000D03*
%TD*%
D17*
%TO.C,D-3-3*%
X97467033Y-112023613D03*
D11*
X97732967Y-104408255D03*
%TD*%
D18*
%TO.C,D-3-4*%
X116401747Y-114279128D03*
D11*
X117198253Y-106700872D03*
%TD*%
D19*
%TO.C,D-3-5*%
X135838400Y-118052118D03*
D11*
X137161600Y-110547882D03*
%TD*%
D20*
%TO.C,K-0-0*%
X2304116Y-68967867D03*
D21*
X-2698707Y-69850000D03*
D20*
X-7701530Y-70732133D03*
D22*
X-6619807Y-67220951D03*
X-1048766Y-64695177D03*
%TD*%
D21*
%TO.C,K-0-1*%
X19744933Y-65721171D03*
D20*
X14714371Y-66428170D03*
X24775495Y-65014172D03*
D22*
X15917974Y-62956879D03*
X21573769Y-60627071D03*
%TD*%
D20*
%TO.C,K-0-2*%
X46057691Y-50277370D03*
D21*
X41005520Y-50808375D03*
D20*
X35953349Y-51339380D03*
D22*
X37277365Y-47912208D03*
X43011024Y-45781203D03*
%TD*%
D20*
%TO.C,K-0-3*%
X68912623Y-46107089D03*
D21*
X63844998Y-46461452D03*
D20*
X58777373Y-46815815D03*
D22*
X60220189Y-43436938D03*
X66024726Y-41507334D03*
%TD*%
D20*
%TO.C,K-0-4*%
X81966625Y-47554586D03*
D21*
X87043530Y-47377297D03*
D20*
X92120435Y-47200008D03*
D22*
X83526483Y-44228122D03*
X89394826Y-42502268D03*
%TD*%
D20*
%TO.C,K-0-5*%
X114300000Y-49530000D03*
X104140000Y-49530000D03*
D21*
X109220000Y-49530000D03*
D22*
X105815000Y-46260000D03*
X111740000Y-44740000D03*
%TD*%
D21*
%TO.C,K-1-0*%
X609290Y-88499231D03*
D20*
X-4393533Y-89381364D03*
X5612113Y-87617098D03*
D22*
X-3311810Y-85870182D03*
X2259231Y-83344408D03*
%TD*%
D20*
%TO.C,K-1-1*%
X27426740Y-83878778D03*
X17365616Y-85292776D03*
D21*
X22396178Y-84585777D03*
D22*
X18569219Y-81821485D03*
X24225014Y-79491677D03*
%TD*%
D20*
%TO.C,K-1-2*%
X48048956Y-69223013D03*
D21*
X42996785Y-69754018D03*
D20*
X37944614Y-70285023D03*
D22*
X39268630Y-66857851D03*
X45002289Y-64726846D03*
%TD*%
D21*
%TO.C,K-1-3*%
X65173858Y-65465046D03*
D20*
X70241483Y-65110683D03*
X60106233Y-65819409D03*
D22*
X61549049Y-62440532D03*
X67353586Y-60510928D03*
%TD*%
D20*
%TO.C,K-1-4*%
X92785270Y-66238403D03*
X82631460Y-66592981D03*
D21*
X87708365Y-66415692D03*
D22*
X84191318Y-63266517D03*
X90059661Y-61540663D03*
%TD*%
D20*
%TO.C,K-1-5*%
X104140000Y-68580000D03*
D21*
X109220000Y-68580000D03*
D20*
X114300000Y-68580000D03*
D22*
X105815000Y-65310000D03*
X111740000Y-63790000D03*
%TD*%
D21*
%TO.C,K-2-0*%
X3917288Y-106886987D03*
D20*
X8920111Y-106377686D03*
X-1085535Y-108141952D03*
D22*
X-3812Y-104630770D03*
X5567229Y-102104996D03*
%TD*%
D20*
%TO.C,K-2-1*%
X30077990Y-102743385D03*
D21*
X25047428Y-103450384D03*
D20*
X20016866Y-104157383D03*
D22*
X21220469Y-100686092D03*
X26876264Y-98356284D03*
%TD*%
D21*
%TO.C,K-2-2*%
X44988053Y-88699658D03*
D20*
X50040224Y-88168653D03*
X39935882Y-89230663D03*
D22*
X41259898Y-85803491D03*
X46993557Y-83672486D03*
%TD*%
D21*
%TO.C,K-2-3*%
X66502719Y-84468642D03*
D20*
X61435094Y-84823005D03*
X71570344Y-84114279D03*
D22*
X62877910Y-81444128D03*
X68682447Y-79514524D03*
%TD*%
D20*
%TO.C,K-2-4*%
X83296295Y-85631376D03*
X93450105Y-85276798D03*
D21*
X88373200Y-85454087D03*
D22*
X84856153Y-82304912D03*
X90724496Y-80579058D03*
%TD*%
D20*
%TO.C,K-2-5*%
X114300000Y-87630000D03*
D21*
X109220000Y-87630000D03*
D20*
X104140000Y-87630000D03*
D22*
X105815000Y-84360000D03*
X111740000Y-82840000D03*
%TD*%
D21*
%TO.C,K-3-3*%
X88900773Y-107950000D03*
D20*
X83823868Y-107772711D03*
X93977678Y-108127289D03*
D22*
X85611969Y-104563159D03*
X91586406Y-103250865D03*
%TD*%
D20*
%TO.C,K-3-4*%
X113479454Y-109751005D03*
X103375112Y-108688995D03*
D21*
X108427283Y-109220000D03*
D22*
X105382744Y-105611994D03*
X111434170Y-104719652D03*
%TD*%
D20*
%TO.C,K-3-5*%
X133272823Y-112729536D03*
D21*
X128270000Y-111847403D03*
D20*
X123267177Y-110965270D03*
D22*
X125484559Y-108035810D03*
X131583490Y-107567767D03*
%TD*%
D19*
%TO.C,D-0-0-B1*%
X275920527Y-71947030D03*
D11*
X277243727Y-64442794D03*
%TD*%
D23*
%TO.C,D-0-1-B1*%
X253551877Y-68256842D03*
D11*
X254612377Y-60711000D03*
%TD*%
D18*
%TO.C,D-0-2-B1*%
X232383874Y-53668245D03*
D11*
X233180380Y-46089989D03*
%TD*%
D24*
%TO.C,D-0-3-B1*%
X209616355Y-49642035D03*
D11*
X210147899Y-42040597D03*
%TD*%
D17*
%TO.C,D-0-4-B1*%
X186549160Y-50874719D03*
D11*
X186815094Y-43259361D03*
%TD*%
D16*
%TO.C,D-0-5-B1*%
X164582127Y-53340000D03*
D11*
X164582127Y-45720000D03*
%TD*%
D19*
%TO.C,D-1-0-B1*%
X272620527Y-90707615D03*
D11*
X273943727Y-83203379D03*
%TD*%
D23*
%TO.C,D-1-1-B1*%
X250751877Y-88391449D03*
D11*
X251812377Y-80845607D03*
%TD*%
D18*
%TO.C,D-1-2-B1*%
X230383874Y-72613887D03*
D11*
X231180380Y-65035631D03*
%TD*%
D24*
%TO.C,D-1-3-B1*%
X208216355Y-68645631D03*
D11*
X208747899Y-61044193D03*
%TD*%
D17*
%TO.C,D-1-4-B1*%
X185849160Y-69913114D03*
D11*
X186115094Y-62297756D03*
%TD*%
D16*
%TO.C,D-1-5-B1*%
X164582127Y-72390000D03*
D11*
X164582127Y-64770000D03*
%TD*%
D19*
%TO.C,D-2-0-B1*%
X269220527Y-109468204D03*
D11*
X270543727Y-101963968D03*
%TD*%
D23*
%TO.C,D-2-1-B1*%
X248251877Y-105986055D03*
D11*
X249312377Y-98440213D03*
%TD*%
D18*
%TO.C,D-2-2-B1*%
X228383874Y-91559528D03*
D11*
X229180380Y-83981272D03*
%TD*%
D24*
%TO.C,D-2-3-B1*%
X207016355Y-87649226D03*
D11*
X207547899Y-80047788D03*
%TD*%
D17*
%TO.C,D-2-4-B1*%
X185249160Y-88951510D03*
D11*
X185515094Y-81336152D03*
%TD*%
D16*
%TO.C,D-2-5-B1*%
X164582127Y-91440000D03*
D11*
X164582127Y-83820000D03*
%TD*%
D15*
%TO.C,D-3-3-B1*%
X185215094Y-112330776D03*
D11*
X184949160Y-104715418D03*
%TD*%
D13*
%TO.C,D-3-4-B1*%
X165890380Y-114279128D03*
D11*
X165093874Y-106700872D03*
%TD*%
D10*
%TO.C,D-3-5-B1*%
X146543727Y-118052118D03*
D11*
X145220527Y-110547882D03*
%TD*%
D25*
%TO.C,J1*%
X130810000Y-85090000D03*
X133350000Y-85090000D03*
X130810000Y-87630000D03*
X133350000Y-87630000D03*
X130810000Y-90170000D03*
X133350000Y-90170000D03*
X130810000Y-92710000D03*
X133350000Y-92710000D03*
X130810000Y-95250000D03*
X133350000Y-95250000D03*
%TD*%
%TO.C,J2*%
X148982127Y-85090000D03*
X151522127Y-85090000D03*
X148982127Y-87630000D03*
X151522127Y-87630000D03*
X148982127Y-90170000D03*
X151522127Y-90170000D03*
X148982127Y-92710000D03*
X151522127Y-92710000D03*
X148982127Y-95250000D03*
X151522127Y-95250000D03*
%TD*%
D21*
%TO.C,K-0-0-B1*%
X285042566Y-69850000D03*
D20*
X280039743Y-68967867D03*
X290045389Y-70732133D03*
D22*
X282257125Y-66038407D03*
X288356056Y-65570364D03*
%TD*%
D20*
%TO.C,K-0-1-B1*%
X267629488Y-66428170D03*
D21*
X262598926Y-65721171D03*
D20*
X257568364Y-65014172D03*
D22*
X259682159Y-62009110D03*
X265761041Y-61328503D03*
%TD*%
D20*
%TO.C,K-0-2-B1*%
X236286168Y-50277370D03*
D21*
X241338339Y-50808375D03*
D20*
X246390510Y-51339380D03*
D22*
X238293800Y-47200369D03*
X244345226Y-46308027D03*
%TD*%
D20*
%TO.C,K-0-3-B1*%
X223566486Y-46815815D03*
X213431236Y-46107089D03*
D21*
X218498861Y-46461452D03*
D22*
X215330259Y-42961897D03*
X221346856Y-41858907D03*
%TD*%
D20*
%TO.C,K-0-4-B1*%
X200377234Y-47554586D03*
D21*
X195300329Y-47377297D03*
D20*
X190223424Y-47200008D03*
D22*
X192011525Y-43990456D03*
X197985962Y-42678162D03*
%TD*%
D20*
%TO.C,K-0-5-B1*%
X178192127Y-49530000D03*
X168032127Y-49530000D03*
D21*
X173112127Y-49530000D03*
D22*
X169707127Y-46260000D03*
X175632127Y-44740000D03*
%TD*%
D20*
%TO.C,K-1-0-B1*%
X276731745Y-87617098D03*
X286737391Y-89381364D03*
D21*
X281734568Y-88499231D03*
D22*
X278949127Y-84687638D03*
X285048058Y-84219595D03*
%TD*%
D21*
%TO.C,K-1-1-B1*%
X259947680Y-84585777D03*
D20*
X264978242Y-85292776D03*
X254917118Y-83878778D03*
D22*
X257030913Y-80873716D03*
X263109795Y-80193109D03*
%TD*%
D21*
%TO.C,K-1-2-B1*%
X239347073Y-69754018D03*
D20*
X244399244Y-70285023D03*
X234294902Y-69223013D03*
D22*
X236302534Y-66146012D03*
X242353960Y-65253670D03*
%TD*%
D21*
%TO.C,K-1-3-B1*%
X217170000Y-65465046D03*
D20*
X222237625Y-65819409D03*
X212102375Y-65110683D03*
D22*
X214001398Y-61965491D03*
X220017995Y-60862501D03*
%TD*%
D21*
%TO.C,K-1-4-B1*%
X194635493Y-66415692D03*
D20*
X199712398Y-66592981D03*
X189558588Y-66238403D03*
D22*
X191346689Y-63028851D03*
X197321126Y-61716557D03*
%TD*%
D20*
%TO.C,K-1-5-B1*%
X168032127Y-68580000D03*
X178192127Y-68580000D03*
D21*
X173112127Y-68580000D03*
D22*
X169707127Y-65310000D03*
X175632127Y-63790000D03*
%TD*%
D21*
%TO.C,K-2-0-B1*%
X278426570Y-107259819D03*
D20*
X283429393Y-108141952D03*
X273423747Y-106377686D03*
D22*
X275641129Y-103448226D03*
X281740060Y-102980183D03*
%TD*%
D21*
%TO.C,K-2-1-B1*%
X257296430Y-103450384D03*
D20*
X262326992Y-104157383D03*
X252265868Y-102743385D03*
D22*
X254379663Y-99738323D03*
X260458545Y-99057716D03*
%TD*%
D20*
%TO.C,K-2-2-B1*%
X232303634Y-88168653D03*
X242407976Y-89230663D03*
D21*
X237355805Y-88699658D03*
D22*
X234311266Y-85091652D03*
X240362692Y-84199310D03*
%TD*%
D20*
%TO.C,K-2-3-B1*%
X220908764Y-84823005D03*
D21*
X215841139Y-84468642D03*
D20*
X210773514Y-84114279D03*
D22*
X212672537Y-80969087D03*
X218689134Y-79866097D03*
%TD*%
D21*
%TO.C,K-2-4-B1*%
X193970658Y-85454087D03*
D20*
X199047563Y-85631376D03*
X188893753Y-85276798D03*
D22*
X190681854Y-82067246D03*
X196656291Y-80754952D03*
%TD*%
D20*
%TO.C,K-2-5-B1*%
X168032127Y-87630000D03*
D21*
X173112127Y-87630000D03*
D20*
X178192127Y-87630000D03*
D22*
X169707127Y-84360000D03*
X175632127Y-82840000D03*
%TD*%
D20*
%TO.C,K-3-3-B1*%
X188537154Y-108127289D03*
X198690964Y-107772711D03*
D21*
X193614059Y-107950000D03*
D22*
X190097012Y-104800825D03*
X195965355Y-103074971D03*
%TD*%
D20*
%TO.C,K-3-4-B1*%
X168852673Y-109751005D03*
X178957015Y-108688995D03*
D21*
X173904844Y-109220000D03*
D22*
X170176689Y-106323833D03*
X175910348Y-104192828D03*
%TD*%
D20*
%TO.C,K-3-5-B1*%
X149059304Y-112729536D03*
D21*
X154062127Y-111847403D03*
D20*
X159064950Y-110965270D03*
D22*
X150141027Y-109218354D03*
X155712068Y-106692580D03*
%TD*%
D26*
%TO.C,U1*%
X138430000Y-42330000D03*
D27*
X138430000Y-44870000D03*
X138430000Y-47410000D03*
X138430000Y-49950000D03*
X138430000Y-52490000D03*
X138430000Y-55030000D03*
X138430000Y-57570000D03*
X138430000Y-60110000D03*
X138430000Y-62650000D03*
X138430000Y-65190000D03*
X138430000Y-67730000D03*
X138430000Y-70270000D03*
X123190000Y-70270000D03*
X123190000Y-67730000D03*
X123190000Y-65190000D03*
X123190000Y-62650000D03*
X123190000Y-60110000D03*
X123190000Y-57570000D03*
X123190000Y-55030000D03*
X123190000Y-52490000D03*
X123190000Y-49950000D03*
X123190000Y-47410000D03*
X123190000Y-44870000D03*
X123190000Y-42330000D03*
%TD*%
M02*
