%TF.GenerationSoftware,KiCad,Pcbnew,(6.0.0-0)*%
%TF.CreationDate,2022-01-05T10:07:54+07:00*%
%TF.ProjectId,kibod-01,6b69626f-642d-4303-912e-6b696361645f,rev?*%
%TF.SameCoordinates,Original*%
%TF.FileFunction,Copper,L2,Bot*%
%TF.FilePolarity,Positive*%
%FSLAX46Y46*%
G04 Gerber Fmt 4.6, Leading zero omitted, Abs format (unit mm)*
G04 Created by KiCad (PCBNEW (6.0.0-0)) date 2022-01-05 10:07:54*
%MOMM*%
%LPD*%
G01*
G04 APERTURE LIST*
G04 Aperture macros list*
%AMRotRect*
0 Rectangle, with rotation*
0 The origin of the aperture is its center*
0 $1 length*
0 $2 width*
0 $3 Rotation angle, in degrees counterclockwise*
0 Add horizontal line*
21,1,$1,$2,0,0,$3*%
G04 Aperture macros list end*
%TA.AperFunction,ComponentPad*%
%ADD10RotRect,1.651000X1.651000X10.000000*%
%TD*%
%TA.AperFunction,ComponentPad*%
%ADD11C,1.651000*%
%TD*%
%TA.AperFunction,ComponentPad*%
%ADD12RotRect,1.651000X1.651000X8.000000*%
%TD*%
%TA.AperFunction,ComponentPad*%
%ADD13RotRect,1.651000X1.651000X6.000000*%
%TD*%
%TA.AperFunction,ComponentPad*%
%ADD14RotRect,1.651000X1.651000X4.000000*%
%TD*%
%TA.AperFunction,ComponentPad*%
%ADD15RotRect,1.651000X1.651000X2.000000*%
%TD*%
%TA.AperFunction,ComponentPad*%
%ADD16R,1.651000X1.651000*%
%TD*%
%TA.AperFunction,ComponentPad*%
%ADD17RotRect,1.651000X1.651000X358.000000*%
%TD*%
%TA.AperFunction,ComponentPad*%
%ADD18RotRect,1.651000X1.651000X354.000000*%
%TD*%
%TA.AperFunction,ComponentPad*%
%ADD19RotRect,1.651000X1.651000X350.000000*%
%TD*%
%TA.AperFunction,ComponentPad*%
%ADD20C,2.200000*%
%TD*%
%TA.AperFunction,ComponentPad*%
%ADD21RotRect,1.651000X1.651000X352.000000*%
%TD*%
%TA.AperFunction,ComponentPad*%
%ADD22RotRect,1.651000X1.651000X356.000000*%
%TD*%
%TA.AperFunction,ComponentPad*%
%ADD23C,1.879600*%
%TD*%
%TA.AperFunction,ComponentPad*%
%ADD24R,1.752600X1.752600*%
%TD*%
%TA.AperFunction,ComponentPad*%
%ADD25C,1.752600*%
%TD*%
%TA.AperFunction,Conductor*%
%ADD26C,0.250000*%
%TD*%
G04 APERTURE END LIST*
D10*
%TO.P,D-0-0,1*%
%TO.N,RL0*%
X6661600Y-72332118D03*
D11*
%TO.P,D-0-0,2*%
%TO.N,Net-(D-0-0-Pad2)*%
X5338400Y-64827882D03*
%TD*%
D12*
%TO.P,D-0-1,1*%
%TO.N,RL0*%
X28930250Y-69004728D03*
D11*
%TO.P,D-0-1,2*%
%TO.N,Net-(D-0-1-Pad2)*%
X27869750Y-61458886D03*
%TD*%
D13*
%TO.P,D-0-2,1*%
%TO.N,RL0*%
X49928253Y-53319128D03*
D11*
%TO.P,D-0-2,2*%
%TO.N,Net-(D-0-2-Pad2)*%
X49131747Y-45740872D03*
%TD*%
D14*
%TO.P,D-0-3,1*%
%TO.N,RL0*%
X72655772Y-49195320D03*
D11*
%TO.P,D-0-3,2*%
%TO.N,Net-(D-0-3-Pad2)*%
X72124228Y-41593882D03*
%TD*%
D15*
%TO.P,D-0-4,1*%
%TO.N,RL0*%
X95832967Y-50743828D03*
D11*
%TO.P,D-0-4,2*%
%TO.N,Net-(D-0-4-Pad2)*%
X95567033Y-43128470D03*
%TD*%
D16*
%TO.P,D-0-5,1*%
%TO.N,RL0*%
X118110000Y-53340000D03*
D11*
%TO.P,D-0-5,2*%
%TO.N,Net-(D-0-5-Pad2)*%
X118110000Y-45720000D03*
%TD*%
D10*
%TO.P,D-1-0,1*%
%TO.N,RL1*%
X9861600Y-91080448D03*
D11*
%TO.P,D-1-0,2*%
%TO.N,Net-(D-1-0-Pad2)*%
X8538400Y-83576212D03*
%TD*%
D12*
%TO.P,D-1-1,1*%
%TO.N,RL1*%
X31630250Y-87692586D03*
D11*
%TO.P,D-1-1,2*%
%TO.N,Net-(D-1-1-Pad2)*%
X30569750Y-80146744D03*
%TD*%
D13*
%TO.P,D-1-2,1*%
%TO.N,RL1*%
X51898253Y-72369128D03*
D11*
%TO.P,D-1-2,2*%
%TO.N,Net-(D-1-2-Pad2)*%
X51101747Y-64790872D03*
%TD*%
D14*
%TO.P,D-1-3,1*%
%TO.N,RL1*%
X73925772Y-68198915D03*
D11*
%TO.P,D-1-3,2*%
%TO.N,Net-(D-1-3-Pad2)*%
X73394228Y-60597477D03*
%TD*%
D15*
%TO.P,D-1-4,1*%
%TO.N,RL1*%
X96432967Y-69782224D03*
D11*
%TO.P,D-1-4,2*%
%TO.N,Net-(D-1-4-Pad2)*%
X96167033Y-62166866D03*
%TD*%
D16*
%TO.P,D-1-5,1*%
%TO.N,RL1*%
X118110000Y-72390000D03*
D11*
%TO.P,D-1-5,2*%
%TO.N,Net-(D-1-5-Pad2)*%
X118110000Y-64770000D03*
%TD*%
D10*
%TO.P,D-2-0,1*%
%TO.N,RL2*%
X12961600Y-109162118D03*
D11*
%TO.P,D-2-0,2*%
%TO.N,Net-(D-2-0-Pad2)*%
X11638400Y-101657882D03*
%TD*%
D12*
%TO.P,D-2-1,1*%
%TO.N,RL2*%
X33930250Y-106557193D03*
D11*
%TO.P,D-2-1,2*%
%TO.N,Net-(D-2-1-Pad2)*%
X32869750Y-99011351D03*
%TD*%
D13*
%TO.P,D-2-2,1*%
%TO.N,RL2*%
X53738253Y-91419128D03*
D11*
%TO.P,D-2-2,2*%
%TO.N,Net-(D-2-2-Pad2)*%
X52941747Y-83840872D03*
%TD*%
D14*
%TO.P,D-2-3,1*%
%TO.N,RL2*%
X75195772Y-87202510D03*
D11*
%TO.P,D-2-3,2*%
%TO.N,Net-(D-2-3-Pad2)*%
X74664228Y-79601072D03*
%TD*%
D15*
%TO.P,D-2-4,1*%
%TO.N,RL2*%
X97232967Y-90089845D03*
D11*
%TO.P,D-2-4,2*%
%TO.N,Net-(D-2-4-Pad2)*%
X96967033Y-82474487D03*
%TD*%
D16*
%TO.P,D-2-5,1*%
%TO.N,RL2*%
X118110000Y-91440000D03*
D11*
%TO.P,D-2-5,2*%
%TO.N,Net-(D-2-5-Pad2)*%
X118110000Y-83820000D03*
%TD*%
D17*
%TO.P,D-3-3,1*%
%TO.N,RL3*%
X97467033Y-112023613D03*
D11*
%TO.P,D-3-3,2*%
%TO.N,Net-(D-3-3-Pad2)*%
X97732967Y-104408255D03*
%TD*%
D18*
%TO.P,D-3-4,1*%
%TO.N,RL3*%
X116401747Y-114279128D03*
D11*
%TO.P,D-3-4,2*%
%TO.N,Net-(D-3-4-Pad2)*%
X117198253Y-106700872D03*
%TD*%
D19*
%TO.P,D-3-5,1*%
%TO.N,RL3*%
X135838400Y-118052118D03*
D11*
%TO.P,D-3-5,2*%
%TO.N,Net-(D-3-5-Pad2)*%
X137161600Y-110547882D03*
%TD*%
D20*
%TO.P,K-0-0,1*%
%TO.N,CL0*%
X-6619807Y-67220951D03*
%TO.P,K-0-0,2*%
%TO.N,Net-(D-0-0-Pad2)*%
X-1048766Y-64695177D03*
%TD*%
%TO.P,K-0-1,1*%
%TO.N,CL1*%
X15917974Y-62956879D03*
%TO.P,K-0-1,2*%
%TO.N,Net-(D-0-1-Pad2)*%
X21573769Y-60627071D03*
%TD*%
%TO.P,K-0-2,1*%
%TO.N,CL2*%
X37277365Y-47912208D03*
%TO.P,K-0-2,2*%
%TO.N,Net-(D-0-2-Pad2)*%
X43011024Y-45781203D03*
%TD*%
%TO.P,K-0-3,1*%
%TO.N,CL3*%
X60220189Y-43436938D03*
%TO.P,K-0-3,2*%
%TO.N,Net-(D-0-3-Pad2)*%
X66024726Y-41507334D03*
%TD*%
%TO.P,K-0-4,1*%
%TO.N,CL4*%
X83526483Y-44228122D03*
%TO.P,K-0-4,2*%
%TO.N,Net-(D-0-4-Pad2)*%
X89394826Y-42502268D03*
%TD*%
%TO.P,K-0-5,1*%
%TO.N,CL5*%
X105815000Y-46260000D03*
%TO.P,K-0-5,2*%
%TO.N,Net-(D-0-5-Pad2)*%
X111740000Y-44740000D03*
%TD*%
%TO.P,K-1-0,1*%
%TO.N,CL0*%
X-3311810Y-85870182D03*
%TO.P,K-1-0,2*%
%TO.N,Net-(D-1-0-Pad2)*%
X2259231Y-83344408D03*
%TD*%
%TO.P,K-1-1,1*%
%TO.N,CL1*%
X18569219Y-81821485D03*
%TO.P,K-1-1,2*%
%TO.N,Net-(D-1-1-Pad2)*%
X24225014Y-79491677D03*
%TD*%
%TO.P,K-1-2,1*%
%TO.N,CL2*%
X39268630Y-66857851D03*
%TO.P,K-1-2,2*%
%TO.N,Net-(D-1-2-Pad2)*%
X45002289Y-64726846D03*
%TD*%
%TO.P,K-1-3,1*%
%TO.N,CL3*%
X61549049Y-62440532D03*
%TO.P,K-1-3,2*%
%TO.N,Net-(D-1-3-Pad2)*%
X67353586Y-60510928D03*
%TD*%
%TO.P,K-1-4,1*%
%TO.N,CL4*%
X84191318Y-63266517D03*
%TO.P,K-1-4,2*%
%TO.N,Net-(D-1-4-Pad2)*%
X90059661Y-61540663D03*
%TD*%
%TO.P,K-1-5,1*%
%TO.N,CL5*%
X105815000Y-65310000D03*
%TO.P,K-1-5,2*%
%TO.N,Net-(D-1-5-Pad2)*%
X111740000Y-63790000D03*
%TD*%
%TO.P,K-2-0,1*%
%TO.N,CL0*%
X-3812Y-104630770D03*
%TO.P,K-2-0,2*%
%TO.N,Net-(D-2-0-Pad2)*%
X5567229Y-102104996D03*
%TD*%
%TO.P,K-2-1,1*%
%TO.N,CL1*%
X21220469Y-100686092D03*
%TO.P,K-2-1,2*%
%TO.N,Net-(D-2-1-Pad2)*%
X26876264Y-98356284D03*
%TD*%
%TO.P,K-2-2,1*%
%TO.N,CL2*%
X41259898Y-85803491D03*
%TO.P,K-2-2,2*%
%TO.N,Net-(D-2-2-Pad2)*%
X46993557Y-83672486D03*
%TD*%
%TO.P,K-2-3,1*%
%TO.N,CL3*%
X62877910Y-81444128D03*
%TO.P,K-2-3,2*%
%TO.N,Net-(D-2-3-Pad2)*%
X68682447Y-79514524D03*
%TD*%
%TO.P,K-2-4,1*%
%TO.N,CL4*%
X84856153Y-82304912D03*
%TO.P,K-2-4,2*%
%TO.N,Net-(D-2-4-Pad2)*%
X90724496Y-80579058D03*
%TD*%
%TO.P,K-2-5,1*%
%TO.N,CL5*%
X105815000Y-84360000D03*
%TO.P,K-2-5,2*%
%TO.N,Net-(D-2-5-Pad2)*%
X111740000Y-82840000D03*
%TD*%
%TO.P,K-3-3,1*%
%TO.N,CL3*%
X85611969Y-104563159D03*
%TO.P,K-3-3,2*%
%TO.N,Net-(D-3-3-Pad2)*%
X91586406Y-103250865D03*
%TD*%
%TO.P,K-3-4,1*%
%TO.N,CL4*%
X105382744Y-105611994D03*
%TO.P,K-3-4,2*%
%TO.N,Net-(D-3-4-Pad2)*%
X111434170Y-104719652D03*
%TD*%
%TO.P,K-3-5,1*%
%TO.N,CL5*%
X125484559Y-108035810D03*
%TO.P,K-3-5,2*%
%TO.N,Net-(D-3-5-Pad2)*%
X131583490Y-107567767D03*
%TD*%
D19*
%TO.P,D-0-0-B1,1*%
%TO.N,RR0*%
X275920527Y-71947030D03*
D11*
%TO.P,D-0-0-B1,2*%
%TO.N,Net-(D-0-0-B1-Pad2)*%
X277243727Y-64442794D03*
%TD*%
D21*
%TO.P,D-0-1-B1,1*%
%TO.N,RR0*%
X253551877Y-68256842D03*
D11*
%TO.P,D-0-1-B1,2*%
%TO.N,Net-(D-0-1-B1-Pad2)*%
X254612377Y-60711000D03*
%TD*%
D18*
%TO.P,D-0-2-B1,1*%
%TO.N,RR0*%
X232383874Y-53668245D03*
D11*
%TO.P,D-0-2-B1,2*%
%TO.N,Net-(D-0-2-B1-Pad2)*%
X233180380Y-46089989D03*
%TD*%
D22*
%TO.P,D-0-3-B1,1*%
%TO.N,RR0*%
X209616355Y-49642035D03*
D11*
%TO.P,D-0-3-B1,2*%
%TO.N,Net-(D-0-3-B1-Pad2)*%
X210147899Y-42040597D03*
%TD*%
D17*
%TO.P,D-0-4-B1,1*%
%TO.N,RR0*%
X186549160Y-50874719D03*
D11*
%TO.P,D-0-4-B1,2*%
%TO.N,Net-(D-0-4-B1-Pad2)*%
X186815094Y-43259361D03*
%TD*%
D16*
%TO.P,D-0-5-B1,1*%
%TO.N,RR0*%
X164582127Y-53340000D03*
D11*
%TO.P,D-0-5-B1,2*%
%TO.N,Net-(D-0-5-B1-Pad2)*%
X164582127Y-45720000D03*
%TD*%
D19*
%TO.P,D-1-0-B1,1*%
%TO.N,RR1*%
X272620527Y-90707615D03*
D11*
%TO.P,D-1-0-B1,2*%
%TO.N,Net-(D-1-0-B1-Pad2)*%
X273943727Y-83203379D03*
%TD*%
D21*
%TO.P,D-1-1-B1,1*%
%TO.N,RR1*%
X250751877Y-88391449D03*
D11*
%TO.P,D-1-1-B1,2*%
%TO.N,Net-(D-1-1-B1-Pad2)*%
X251812377Y-80845607D03*
%TD*%
D18*
%TO.P,D-1-2-B1,1*%
%TO.N,RR1*%
X230383874Y-72613887D03*
D11*
%TO.P,D-1-2-B1,2*%
%TO.N,Net-(D-1-2-B1-Pad2)*%
X231180380Y-65035631D03*
%TD*%
D22*
%TO.P,D-1-3-B1,1*%
%TO.N,RR1*%
X208216355Y-68645631D03*
D11*
%TO.P,D-1-3-B1,2*%
%TO.N,Net-(D-1-3-B1-Pad2)*%
X208747899Y-61044193D03*
%TD*%
D17*
%TO.P,D-1-4-B1,1*%
%TO.N,RR1*%
X185849160Y-69913114D03*
D11*
%TO.P,D-1-4-B1,2*%
%TO.N,Net-(D-1-4-B1-Pad2)*%
X186115094Y-62297756D03*
%TD*%
D16*
%TO.P,D-1-5-B1,1*%
%TO.N,RR1*%
X164582127Y-72390000D03*
D11*
%TO.P,D-1-5-B1,2*%
%TO.N,Net-(D-1-5-B1-Pad2)*%
X164582127Y-64770000D03*
%TD*%
D19*
%TO.P,D-2-0-B1,1*%
%TO.N,RR2*%
X269220527Y-109468204D03*
D11*
%TO.P,D-2-0-B1,2*%
%TO.N,Net-(D-2-0-B1-Pad2)*%
X270543727Y-101963968D03*
%TD*%
D21*
%TO.P,D-2-1-B1,1*%
%TO.N,RR2*%
X248251877Y-105986055D03*
D11*
%TO.P,D-2-1-B1,2*%
%TO.N,Net-(D-2-1-B1-Pad2)*%
X249312377Y-98440213D03*
%TD*%
D18*
%TO.P,D-2-2-B1,1*%
%TO.N,RR2*%
X228383874Y-91559528D03*
D11*
%TO.P,D-2-2-B1,2*%
%TO.N,Net-(D-2-2-B1-Pad2)*%
X229180380Y-83981272D03*
%TD*%
D22*
%TO.P,D-2-3-B1,1*%
%TO.N,RR2*%
X207016355Y-87649226D03*
D11*
%TO.P,D-2-3-B1,2*%
%TO.N,Net-(D-2-3-B1-Pad2)*%
X207547899Y-80047788D03*
%TD*%
D17*
%TO.P,D-2-4-B1,1*%
%TO.N,RR2*%
X185249160Y-88951510D03*
D11*
%TO.P,D-2-4-B1,2*%
%TO.N,Net-(D-2-4-B1-Pad2)*%
X185515094Y-81336152D03*
%TD*%
D16*
%TO.P,D-2-5-B1,1*%
%TO.N,RR2*%
X164582127Y-91440000D03*
D11*
%TO.P,D-2-5-B1,2*%
%TO.N,Net-(D-2-5-B1-Pad2)*%
X164582127Y-83820000D03*
%TD*%
D15*
%TO.P,D-3-3-B1,1*%
%TO.N,RR3*%
X185215094Y-112330776D03*
D11*
%TO.P,D-3-3-B1,2*%
%TO.N,Net-(D-3-3-B1-Pad2)*%
X184949160Y-104715418D03*
%TD*%
D13*
%TO.P,D-3-4-B1,1*%
%TO.N,RR3*%
X165890380Y-114279128D03*
D11*
%TO.P,D-3-4-B1,2*%
%TO.N,Net-(D-3-4-B1-Pad2)*%
X165093874Y-106700872D03*
%TD*%
D10*
%TO.P,D-3-5-B1,1*%
%TO.N,RR3*%
X146543727Y-118052118D03*
D11*
%TO.P,D-3-5-B1,2*%
%TO.N,Net-(D-3-5-B1-Pad2)*%
X145220527Y-110547882D03*
%TD*%
D23*
%TO.P,J1,1*%
%TO.N,CL5*%
X130810000Y-85090000D03*
%TO.P,J1,2*%
%TO.N,RC3*%
X133350000Y-85090000D03*
%TO.P,J1,3*%
%TO.N,CL4*%
X130810000Y-87630000D03*
%TO.P,J1,4*%
%TO.N,RC2*%
X133350000Y-87630000D03*
%TO.P,J1,5*%
%TO.N,CL3*%
X130810000Y-90170000D03*
%TO.P,J1,6*%
%TO.N,RC1*%
X133350000Y-90170000D03*
%TO.P,J1,7*%
%TO.N,CL2*%
X130810000Y-92710000D03*
%TO.P,J1,8*%
%TO.N,RC0*%
X133350000Y-92710000D03*
%TO.P,J1,9*%
%TO.N,CL1*%
X130810000Y-95250000D03*
%TO.P,J1,10*%
%TO.N,CL0*%
X133350000Y-95250000D03*
%TD*%
%TO.P,J2,1*%
%TO.N,CR5*%
X148982127Y-85090000D03*
%TO.P,J2,2*%
%TO.N,RR3*%
X151522127Y-85090000D03*
%TO.P,J2,3*%
%TO.N,CR4*%
X148982127Y-87630000D03*
%TO.P,J2,4*%
%TO.N,RR2*%
X151522127Y-87630000D03*
%TO.P,J2,5*%
%TO.N,CR3*%
X148982127Y-90170000D03*
%TO.P,J2,6*%
%TO.N,RR1*%
X151522127Y-90170000D03*
%TO.P,J2,7*%
%TO.N,CR2*%
X148982127Y-92710000D03*
%TO.P,J2,8*%
%TO.N,RR0*%
X151522127Y-92710000D03*
%TO.P,J2,9*%
%TO.N,CR1*%
X148982127Y-95250000D03*
%TO.P,J2,10*%
%TO.N,CL0*%
X151522127Y-95250000D03*
%TD*%
D20*
%TO.P,K-0-0-B1,1*%
%TO.N,Net-(D-0-0-B1-Pad2)*%
X282257125Y-66038407D03*
%TO.P,K-0-0-B1,2*%
%TO.N,CL0*%
X288356056Y-65570364D03*
%TD*%
%TO.P,K-0-1-B1,1*%
%TO.N,Net-(D-0-1-B1-Pad2)*%
X259682159Y-62009110D03*
%TO.P,K-0-1-B1,2*%
%TO.N,CR1*%
X265761041Y-61328503D03*
%TD*%
%TO.P,K-0-2-B1,1*%
%TO.N,Net-(D-0-2-B1-Pad2)*%
X238293800Y-47200369D03*
%TO.P,K-0-2-B1,2*%
%TO.N,CR2*%
X244345226Y-46308027D03*
%TD*%
%TO.P,K-0-3-B1,1*%
%TO.N,Net-(D-0-3-B1-Pad2)*%
X215330259Y-42961897D03*
%TO.P,K-0-3-B1,2*%
%TO.N,CR3*%
X221346856Y-41858907D03*
%TD*%
%TO.P,K-0-4-B1,1*%
%TO.N,Net-(D-0-4-B1-Pad2)*%
X192011525Y-43990456D03*
%TO.P,K-0-4-B1,2*%
%TO.N,CR4*%
X197985962Y-42678162D03*
%TD*%
%TO.P,K-0-5-B1,1*%
%TO.N,Net-(D-0-5-B1-Pad2)*%
X169707127Y-46260000D03*
%TO.P,K-0-5-B1,2*%
%TO.N,CR5*%
X175632127Y-44740000D03*
%TD*%
%TO.P,K-1-0-B1,1*%
%TO.N,Net-(D-1-0-B1-Pad2)*%
X278949127Y-84687638D03*
%TO.P,K-1-0-B1,2*%
%TO.N,CL0*%
X285048058Y-84219595D03*
%TD*%
%TO.P,K-1-1-B1,1*%
%TO.N,Net-(D-1-1-B1-Pad2)*%
X257030913Y-80873716D03*
%TO.P,K-1-1-B1,2*%
%TO.N,CR1*%
X263109795Y-80193109D03*
%TD*%
%TO.P,K-1-2-B1,1*%
%TO.N,Net-(D-1-2-B1-Pad2)*%
X236302534Y-66146012D03*
%TO.P,K-1-2-B1,2*%
%TO.N,CR2*%
X242353960Y-65253670D03*
%TD*%
%TO.P,K-1-3-B1,1*%
%TO.N,Net-(D-1-3-B1-Pad2)*%
X214001398Y-61965491D03*
%TO.P,K-1-3-B1,2*%
%TO.N,CR3*%
X220017995Y-60862501D03*
%TD*%
%TO.P,K-1-4-B1,1*%
%TO.N,Net-(D-1-4-B1-Pad2)*%
X191346689Y-63028851D03*
%TO.P,K-1-4-B1,2*%
%TO.N,CR4*%
X197321126Y-61716557D03*
%TD*%
%TO.P,K-1-5-B1,1*%
%TO.N,Net-(D-1-5-B1-Pad2)*%
X169707127Y-65310000D03*
%TO.P,K-1-5-B1,2*%
%TO.N,CR5*%
X175632127Y-63790000D03*
%TD*%
%TO.P,K-2-0-B1,1*%
%TO.N,Net-(D-2-0-B1-Pad2)*%
X275641129Y-103448226D03*
%TO.P,K-2-0-B1,2*%
%TO.N,CL0*%
X281740060Y-102980183D03*
%TD*%
%TO.P,K-2-1-B1,1*%
%TO.N,Net-(D-2-1-B1-Pad2)*%
X254379663Y-99738323D03*
%TO.P,K-2-1-B1,2*%
%TO.N,CR1*%
X260458545Y-99057716D03*
%TD*%
%TO.P,K-2-2-B1,1*%
%TO.N,Net-(D-2-2-B1-Pad2)*%
X234311266Y-85091652D03*
%TO.P,K-2-2-B1,2*%
%TO.N,CR2*%
X240362692Y-84199310D03*
%TD*%
%TO.P,K-2-3-B1,1*%
%TO.N,Net-(D-2-3-B1-Pad2)*%
X212672537Y-80969087D03*
%TO.P,K-2-3-B1,2*%
%TO.N,CR3*%
X218689134Y-79866097D03*
%TD*%
%TO.P,K-2-4-B1,1*%
%TO.N,Net-(D-2-4-B1-Pad2)*%
X190681854Y-82067246D03*
%TO.P,K-2-4-B1,2*%
%TO.N,CR4*%
X196656291Y-80754952D03*
%TD*%
%TO.P,K-2-5-B1,1*%
%TO.N,Net-(D-2-5-B1-Pad2)*%
X169707127Y-84360000D03*
%TO.P,K-2-5-B1,2*%
%TO.N,CR5*%
X175632127Y-82840000D03*
%TD*%
%TO.P,K-3-3-B1,1*%
%TO.N,Net-(D-3-3-B1-Pad2)*%
X190097012Y-104800825D03*
%TO.P,K-3-3-B1,2*%
%TO.N,CR3*%
X195965355Y-103074971D03*
%TD*%
%TO.P,K-3-4-B1,1*%
%TO.N,Net-(D-3-4-B1-Pad2)*%
X170176689Y-106323833D03*
%TO.P,K-3-4-B1,2*%
%TO.N,CR4*%
X175910348Y-104192828D03*
%TD*%
%TO.P,K-3-5-B1,1*%
%TO.N,Net-(D-3-5-B1-Pad2)*%
X150141027Y-109218354D03*
%TO.P,K-3-5-B1,2*%
%TO.N,CR5*%
X155712068Y-106692580D03*
%TD*%
D24*
%TO.P,U1,1*%
%TO.N,N/C*%
X138430000Y-42330000D03*
D25*
%TO.P,U1,2*%
X138430000Y-44870000D03*
%TO.P,U1,3*%
X138430000Y-47410000D03*
%TO.P,U1,4*%
X138430000Y-49950000D03*
%TO.P,U1,5*%
X138430000Y-52490000D03*
%TO.P,U1,6*%
X138430000Y-55030000D03*
%TO.P,U1,7*%
%TO.N,CL0*%
X138430000Y-57570000D03*
%TO.P,U1,8*%
%TO.N,CL1*%
X138430000Y-60110000D03*
%TO.P,U1,9*%
%TO.N,CL2*%
X138430000Y-62650000D03*
%TO.P,U1,10*%
%TO.N,CL3*%
X138430000Y-65190000D03*
%TO.P,U1,11*%
%TO.N,CL4*%
X138430000Y-67730000D03*
%TO.P,U1,12*%
%TO.N,CL5*%
X138430000Y-70270000D03*
%TO.P,U1,13*%
%TO.N,RC3*%
X123190000Y-70270000D03*
%TO.P,U1,14*%
%TO.N,RC2*%
X123190000Y-67730000D03*
%TO.P,U1,15*%
%TO.N,RC1*%
X123190000Y-65190000D03*
%TO.P,U1,16*%
%TO.N,RC0*%
X123190000Y-62650000D03*
%TO.P,U1,17*%
%TO.N,RL3*%
X123190000Y-60110000D03*
%TO.P,U1,18*%
%TO.N,RL2*%
X123190000Y-57570000D03*
%TO.P,U1,19*%
%TO.N,RL1*%
X123190000Y-55030000D03*
%TO.P,U1,20*%
%TO.N,RL0*%
X123190000Y-52490000D03*
%TO.P,U1,21*%
%TO.N,N/C*%
X123190000Y-49950000D03*
%TO.P,U1,22*%
X123190000Y-47410000D03*
%TO.P,U1,23*%
X123190000Y-44870000D03*
%TO.P,U1,24*%
X123190000Y-42330000D03*
%TD*%
D26*
%TO.N,RR0*%
X164582127Y-53340000D02*
X166182638Y-54940511D01*
X166182638Y-54940511D02*
X166182637Y-92655900D01*
X152792127Y-93980000D02*
X151522127Y-92710000D01*
X166182637Y-92655900D02*
X164858537Y-93980000D01*
X164858537Y-93980000D02*
X152792127Y-93980000D01*
%TO.N,RL3*%
X116401747Y-114279128D02*
X121766321Y-114279128D01*
X121766321Y-114279128D02*
X126909560Y-109135889D01*
X121070000Y-100750000D02*
X121070000Y-62230000D01*
X126909560Y-109135889D02*
X126909560Y-106589560D01*
X126909560Y-106589560D02*
X121070000Y-100750000D01*
X121070000Y-62230000D02*
X123190000Y-60110000D01*
%TO.N,CR1*%
X265761041Y-61328503D02*
X265761041Y-77541863D01*
X265761041Y-77541863D02*
X263109795Y-80193109D01*
%TO.N,CR2*%
X242353960Y-65253670D02*
X242353960Y-82208042D01*
X242353960Y-82208042D02*
X240362692Y-84199310D01*
X244345226Y-46308027D02*
X244345226Y-63262404D01*
X244345226Y-63262404D02*
X242353960Y-65253670D01*
%TO.N,CR5*%
X155712068Y-106692580D02*
X169860246Y-92544402D01*
X169860246Y-92544402D02*
X169860246Y-87056246D01*
X169860246Y-87056246D02*
X174076493Y-82840000D01*
X174076493Y-82840000D02*
X175632127Y-82840000D01*
%TO.N,RL1*%
X118110000Y-72390000D02*
X119380000Y-72390000D01*
X119380000Y-72390000D02*
X120169980Y-71600020D01*
X120169980Y-71600020D02*
X120169980Y-58050020D01*
X120169980Y-58050020D02*
X123190000Y-55030000D01*
%TO.N,RL0*%
X118110000Y-53340000D02*
X122340000Y-53340000D01*
X122340000Y-53340000D02*
X123190000Y-52490000D01*
%TO.N,RR0*%
X164582127Y-53340000D02*
X164582127Y-53700000D01*
X164222127Y-53340000D02*
X164582127Y-53340000D01*
%TO.N,RR1*%
X165732628Y-73900501D02*
X165732628Y-92469499D01*
X165492127Y-92710000D02*
X154062127Y-92710000D01*
X164582127Y-72390000D02*
X164582127Y-72750000D01*
X164582127Y-72750000D02*
X165732628Y-73900501D01*
X154062127Y-92710000D02*
X151522127Y-90170000D01*
X165732628Y-92469499D02*
X165492127Y-92710000D01*
%TO.N,RL2*%
X119380000Y-91440000D02*
X120619990Y-90200010D01*
X120619990Y-90200010D02*
X120619990Y-60140010D01*
X120860000Y-59900000D02*
X123190000Y-57570000D01*
X120619990Y-60140010D02*
X120860000Y-59900000D01*
X118110000Y-91440000D02*
X119380000Y-91440000D01*
%TO.N,RR2*%
X155332127Y-91440000D02*
X151522127Y-87630000D01*
X164582127Y-91440000D02*
X155332127Y-91440000D01*
%TO.N,RL3*%
X123190000Y-60872074D02*
X123190000Y-60110000D01*
%TO.N,CL0*%
X285048058Y-84219595D02*
X285048058Y-99672185D01*
X-3311810Y-88650085D02*
X-3812Y-91958083D01*
X288356056Y-69968484D02*
X285048058Y-73276482D01*
X-6619807Y-67220951D02*
X-6619807Y-70000854D01*
X-6619807Y-70000854D02*
X-3311810Y-73308851D01*
X285048058Y-73276482D02*
X285048058Y-84219595D01*
X132085199Y-96514801D02*
X133350000Y-95250000D01*
X-3311810Y-85870182D02*
X-3311810Y-88650085D01*
X127745159Y-83737295D02*
X127745159Y-94057065D01*
X134620000Y-76862454D02*
X127745159Y-83737295D01*
X285048058Y-99672185D02*
X281740060Y-102980183D01*
X130202895Y-96514801D02*
X132085199Y-96514801D01*
X127745159Y-94057065D02*
X130202895Y-96514801D01*
X134620000Y-61380000D02*
X134620000Y-76862454D01*
X-3812Y-91958083D02*
X-3812Y-104630770D01*
X-3311810Y-73308851D02*
X-3311810Y-85870182D01*
X288356056Y-65570364D02*
X288356056Y-69968484D01*
X138430000Y-57570000D02*
X134620000Y-61380000D01*
%TO.N,CL1*%
X18569219Y-84683377D02*
X21220469Y-87334627D01*
X15917974Y-65818771D02*
X19050000Y-68950797D01*
X130810000Y-95250000D02*
X128195169Y-92635169D01*
X19050000Y-81340704D02*
X18569219Y-81821485D01*
X15917974Y-62956879D02*
X15917974Y-65818771D01*
X135137628Y-63402372D02*
X138430000Y-60110000D01*
X18569219Y-81821485D02*
X18569219Y-84683377D01*
X21220469Y-87334627D02*
X21220469Y-100686092D01*
X128195169Y-83923695D02*
X135137627Y-76981237D01*
X135137627Y-76981237D02*
X135137628Y-63402372D01*
X128195169Y-92635169D02*
X128195169Y-83923695D01*
X19050000Y-68950797D02*
X19050000Y-81340704D01*
%TO.N,RC0*%
X127295150Y-82254850D02*
X127295150Y-94243466D01*
X133507095Y-96964811D02*
X134614801Y-95857105D01*
X130016495Y-96964811D02*
X133507095Y-96964811D01*
X127295150Y-94243466D02*
X130016495Y-96964811D01*
X134614801Y-93974801D02*
X133350000Y-92710000D01*
X127295151Y-66755151D02*
X127295151Y-82254851D01*
X134614801Y-95857105D02*
X134614801Y-93974801D01*
X123190000Y-62650000D02*
X127295151Y-66755151D01*
%TO.N,CL2*%
X37277365Y-47912208D02*
X37277365Y-64866586D01*
X135587637Y-65492363D02*
X135587637Y-77167637D01*
X37277365Y-64866586D02*
X39268630Y-66857851D01*
X128645179Y-84110095D02*
X128645179Y-90545179D01*
X39268630Y-66857851D02*
X39268630Y-83812223D01*
X138430000Y-62650000D02*
X135587637Y-65492363D01*
X128645179Y-90545179D02*
X130810000Y-92710000D01*
X135587637Y-77167637D02*
X128645179Y-84110095D01*
X39268630Y-83812223D02*
X41259898Y-85803491D01*
%TO.N,RC1*%
X126845142Y-68845142D02*
X126845142Y-82068450D01*
X129830095Y-97414821D02*
X133693496Y-97414820D01*
X126845140Y-82068450D02*
X126845141Y-94429867D01*
X135064811Y-91884811D02*
X133350000Y-90170000D01*
X135064811Y-96043505D02*
X135064811Y-91884811D01*
X126845141Y-94429867D02*
X129830095Y-97414821D01*
X133693496Y-97414820D02*
X135064811Y-96043505D01*
X123190000Y-65190000D02*
X126845142Y-68845142D01*
%TO.N,CL3*%
X60220189Y-61111672D02*
X61549049Y-62440532D01*
X60220189Y-43436938D02*
X60220189Y-61111672D01*
X136037647Y-67582353D02*
X138430000Y-65190000D01*
X133365842Y-80025842D02*
X129095189Y-84296495D01*
X85611969Y-100145918D02*
X66910179Y-81444128D01*
X61549049Y-80115267D02*
X62877910Y-81444128D01*
X129095189Y-84296495D02*
X129095189Y-88455189D01*
X66910179Y-81444128D02*
X62877910Y-81444128D01*
X133381684Y-80010000D02*
X133365842Y-80025842D01*
X85611969Y-104563159D02*
X85611969Y-100145918D01*
X61549049Y-62440532D02*
X61549049Y-80115267D01*
X133365842Y-80025842D02*
X136037647Y-77354037D01*
X129095189Y-88455189D02*
X130810000Y-90170000D01*
X136037647Y-77354037D02*
X136037647Y-67582353D01*
%TO.N,RC2*%
X135514821Y-96229905D02*
X135514821Y-89794821D01*
X126395133Y-70935133D02*
X126395133Y-80614868D01*
X126395132Y-94616268D02*
X129643696Y-97864830D01*
X123190000Y-67730000D02*
X126395133Y-70935133D01*
X135514821Y-89794821D02*
X133350000Y-87630000D01*
X133879897Y-97864829D02*
X135514821Y-96229905D01*
X129643696Y-97864830D02*
X133879897Y-97864829D01*
X126395132Y-80614868D02*
X126395132Y-94616268D01*
%TO.N,CL4*%
X136487657Y-69672343D02*
X138430000Y-67730000D01*
X84191318Y-81640077D02*
X84856153Y-82304912D01*
X105099133Y-105611994D02*
X105382744Y-105611994D01*
X130810000Y-87630000D02*
X129545199Y-86365199D01*
X136487657Y-77540437D02*
X136487657Y-69672343D01*
X129545199Y-86365199D02*
X129545199Y-84482895D01*
X84856153Y-82304912D02*
X84856153Y-85369014D01*
X83526483Y-44228122D02*
X83526483Y-62601682D01*
X83526483Y-62601682D02*
X84191318Y-63266517D01*
X84856153Y-85369014D02*
X105099133Y-105611994D01*
X129545199Y-84482895D02*
X136487657Y-77540437D01*
X84191318Y-63266517D02*
X84191318Y-81640077D01*
%TO.N,RC3*%
X125945123Y-94802669D02*
X129457297Y-98314839D01*
X135964831Y-87704831D02*
X133350000Y-85090000D01*
X135964831Y-96416305D02*
X135964831Y-87704831D01*
X125945123Y-80225123D02*
X125945123Y-94802669D01*
X125945123Y-80225123D02*
X125945123Y-73025123D01*
X125945123Y-73025123D02*
X123190000Y-70270000D01*
X134066298Y-98314838D02*
X135964831Y-96416305D01*
X129457297Y-98314839D02*
X134066298Y-98314838D01*
X125945123Y-79794877D02*
X125945123Y-80225123D01*
%TO.N,CL5*%
X136937666Y-71762334D02*
X138430000Y-70270000D01*
X105815000Y-84360000D02*
X105815000Y-87656974D01*
X130810000Y-85090000D02*
X130810000Y-83854504D01*
X105815000Y-65310000D02*
X105815000Y-84360000D01*
X130810000Y-83854504D02*
X136937666Y-77726838D01*
X125484559Y-107326533D02*
X125484559Y-108035810D01*
X136937666Y-77726838D02*
X136937666Y-71762334D01*
X105815000Y-87656974D02*
X125484559Y-107326533D01*
X105815000Y-46260000D02*
X105815000Y-65310000D01*
%TO.N,CR1*%
X260458545Y-99057716D02*
X263109795Y-96406466D01*
X263109795Y-96406466D02*
X263109795Y-80193109D01*
%TO.N,CR3*%
X217011710Y-79866097D02*
X218689134Y-79866097D01*
X219789133Y-78766098D02*
X219789133Y-61091363D01*
X221117994Y-42087769D02*
X221346856Y-41858907D01*
X221117994Y-59762502D02*
X221117994Y-42087769D01*
X212252783Y-84625024D02*
X217011710Y-79866097D01*
X219789133Y-61091363D02*
X220017995Y-60862501D01*
X220017995Y-60862501D02*
X221117994Y-59762502D01*
X218689134Y-79866097D02*
X219789133Y-78766098D01*
X195965355Y-103074971D02*
X212252783Y-86787543D01*
X212252783Y-86787543D02*
X212252783Y-84625024D01*
%TO.N,CR4*%
X196656291Y-80754952D02*
X195100657Y-80754952D01*
X195100657Y-80754952D02*
X190118754Y-85736855D01*
X198421125Y-60616558D02*
X198421125Y-43113325D01*
X196656291Y-80754952D02*
X197321126Y-80090117D01*
X198421125Y-43113325D02*
X197985962Y-42678162D01*
X190118754Y-85736855D02*
X190118754Y-89984422D01*
X197321126Y-80090117D02*
X197321126Y-61716557D01*
X190118754Y-89984422D02*
X175910348Y-104192828D01*
X197321126Y-61716557D02*
X198421125Y-60616558D01*
%TO.N,CR5*%
X175632127Y-82840000D02*
X175632127Y-63790000D01*
X175632127Y-63790000D02*
X175632127Y-44740000D01*
%TD*%
M02*
