%TF.GenerationSoftware,KiCad,Pcbnew,(6.0.0-0)*%
%TF.CreationDate,2022-01-05T10:07:55+07:00*%
%TF.ProjectId,kibod-01,6b69626f-642d-4303-912e-6b696361645f,rev?*%
%TF.SameCoordinates,Original*%
%TF.FileFunction,Legend,Top*%
%TF.FilePolarity,Positive*%
%FSLAX46Y46*%
G04 Gerber Fmt 4.6, Leading zero omitted, Abs format (unit mm)*
G04 Created by KiCad (PCBNEW (6.0.0-0)) date 2022-01-05 10:07:55*
%MOMM*%
%LPD*%
G01*
G04 APERTURE LIST*
%ADD10C,0.150000*%
%ADD11C,0.127000*%
%ADD12C,0.203200*%
%ADD13C,0.381000*%
%ADD14R,1.752600X1.752600*%
%ADD15C,1.752600*%
G04 APERTURE END LIST*
D10*
X49682486Y-113836523D02*
X49787014Y-112842001D01*
X50250784Y-113896253D02*
X49884291Y-113283157D01*
X50355312Y-112901731D02*
X49727284Y-113410299D01*
X50677008Y-113941051D02*
X50746693Y-113278036D01*
X50781536Y-112946529D02*
X50729200Y-112988910D01*
X50771581Y-113041246D01*
X50823917Y-112998865D01*
X50781536Y-112946529D01*
X50771581Y-113041246D01*
X51150590Y-113990827D02*
X51255118Y-112996305D01*
X51215298Y-113375170D02*
X51314992Y-113337767D01*
X51504424Y-113357677D01*
X51594163Y-113414990D01*
X51636544Y-113467326D01*
X51673947Y-113567020D01*
X51644082Y-113851169D01*
X51586768Y-113940908D01*
X51534433Y-113983289D01*
X51434739Y-114020692D01*
X51245306Y-114000782D01*
X51155567Y-113943468D01*
X52192470Y-114100333D02*
X52102731Y-114043019D01*
X52060350Y-113990684D01*
X52022947Y-113890990D01*
X52052812Y-113606840D01*
X52110126Y-113517102D01*
X52162461Y-113474721D01*
X52262155Y-113437318D01*
X52404230Y-113452251D01*
X52493969Y-113509564D01*
X52536349Y-113561900D01*
X52573752Y-113661593D01*
X52543887Y-113945743D01*
X52486574Y-114035481D01*
X52434238Y-114077862D01*
X52334544Y-114115265D01*
X52192470Y-114100333D01*
X53376424Y-114224771D02*
X53480953Y-113230249D01*
X53381402Y-114177413D02*
X53281708Y-114214816D01*
X53092275Y-114194906D01*
X53002536Y-114137593D01*
X52960156Y-114085257D01*
X52922753Y-113985563D01*
X52952618Y-113701414D01*
X53009931Y-113611675D01*
X53062267Y-113569294D01*
X53161961Y-113531891D01*
X53351394Y-113551801D01*
X53441132Y-113609115D01*
X53889826Y-113895681D02*
X54647557Y-113975322D01*
X55375280Y-113429351D02*
X55469996Y-113439306D01*
X55559735Y-113496619D01*
X55602116Y-113548955D01*
X55639519Y-113648649D01*
X55666967Y-113843059D01*
X55642079Y-114079850D01*
X55574811Y-114264306D01*
X55517498Y-114354044D01*
X55465162Y-114396425D01*
X55365468Y-114433828D01*
X55270752Y-114423873D01*
X55181013Y-114366560D01*
X55138632Y-114314224D01*
X55101229Y-114214530D01*
X55073781Y-114020120D01*
X55098669Y-113783329D01*
X55165937Y-113598874D01*
X55223250Y-113509135D01*
X55275586Y-113466754D01*
X55375280Y-113429351D01*
X56549423Y-114558267D02*
X55981124Y-114498536D01*
X56265274Y-114528401D02*
X56369802Y-113533880D01*
X56260153Y-113665999D01*
X56155482Y-113750760D01*
X56055788Y-113788163D01*
X57733377Y-114682705D02*
X57837906Y-113688183D01*
X57798085Y-114067049D02*
X57897779Y-114029646D01*
X58087212Y-114049556D01*
X58176951Y-114106869D01*
X58219332Y-114159205D01*
X58256735Y-114258899D01*
X58226869Y-114543048D01*
X58169556Y-114632787D01*
X58117220Y-114675168D01*
X58017526Y-114712571D01*
X57828094Y-114692660D01*
X57738355Y-114635347D01*
X58608152Y-114104309D02*
X58775257Y-114792211D01*
X59081734Y-114154085D02*
X58775257Y-114792211D01*
X58655653Y-115019047D01*
X58603318Y-115061428D01*
X58503624Y-115098831D01*
X60148645Y-114936560D02*
X60253173Y-113942038D01*
X60510017Y-114687254D01*
X60916188Y-114011724D01*
X60811659Y-115006246D01*
X61285241Y-115056021D02*
X61354927Y-114393007D01*
X61389770Y-114061499D02*
X61337434Y-114103880D01*
X61379815Y-114156216D01*
X61432150Y-114113835D01*
X61389770Y-114061499D01*
X61379815Y-114156216D01*
X62190024Y-115103237D02*
X62090330Y-115140640D01*
X61900898Y-115120729D01*
X61811159Y-115063416D01*
X61768778Y-115011080D01*
X61731375Y-114911387D01*
X61761240Y-114627237D01*
X61818554Y-114537499D01*
X61870889Y-114495118D01*
X61970583Y-114457715D01*
X62160016Y-114477625D01*
X62249755Y-114534938D01*
X62611270Y-115195393D02*
X62715799Y-114200871D01*
X63037494Y-115240191D02*
X63092247Y-114719250D01*
X63054844Y-114619557D01*
X62965105Y-114562243D01*
X62823031Y-114547311D01*
X62723337Y-114584714D01*
X62671001Y-114627094D01*
X63937300Y-115334764D02*
X63992053Y-114813824D01*
X63954650Y-114714130D01*
X63864911Y-114656817D01*
X63675478Y-114636906D01*
X63575784Y-114674310D01*
X63942277Y-115287406D02*
X63842583Y-115324809D01*
X63605792Y-115299921D01*
X63516053Y-115242608D01*
X63478650Y-115142914D01*
X63488605Y-115048198D01*
X63545919Y-114958459D01*
X63645613Y-114921056D01*
X63882404Y-114945943D01*
X63982098Y-114908540D01*
X64794724Y-115377002D02*
X64695031Y-115414405D01*
X64505598Y-115394494D01*
X64415859Y-115337181D01*
X64378456Y-115237487D01*
X64418276Y-114858622D01*
X64475590Y-114768883D01*
X64575283Y-114731480D01*
X64764716Y-114751390D01*
X64854455Y-114808703D01*
X64891858Y-114908397D01*
X64881903Y-115003114D01*
X64398366Y-115048055D01*
X65405403Y-115489068D02*
X65315665Y-115431755D01*
X65278261Y-115332061D01*
X65367857Y-114479613D01*
X67162491Y-114716118D02*
X67072752Y-114658805D01*
X66930677Y-114643872D01*
X66783625Y-114676298D01*
X66678954Y-114761059D01*
X66621641Y-114850798D01*
X66554372Y-115035253D01*
X66539440Y-115177328D01*
X66566888Y-115371738D01*
X66604291Y-115471432D01*
X66689052Y-115576103D01*
X66826149Y-115638394D01*
X66920865Y-115648349D01*
X67067917Y-115615924D01*
X67120253Y-115573543D01*
X67155096Y-115242036D01*
X66965663Y-115222126D01*
X208862580Y-115961778D02*
X208961236Y-116765267D01*
X208925578Y-116865599D01*
X208884117Y-116918666D01*
X208795392Y-116977537D01*
X208653600Y-116994947D01*
X208553269Y-116959289D01*
X208938022Y-116576211D02*
X208849298Y-116635082D01*
X208660241Y-116658295D01*
X208559910Y-116622637D01*
X208506842Y-116581177D01*
X208447972Y-116492452D01*
X208413152Y-116208867D01*
X208448809Y-116108536D01*
X208490270Y-116055468D01*
X208578995Y-115996597D01*
X208768051Y-115973384D01*
X208868383Y-116009042D01*
X209416467Y-116565442D02*
X209335221Y-115903745D01*
X209294597Y-115572896D02*
X209253137Y-115625963D01*
X209306204Y-115667424D01*
X209347665Y-115614357D01*
X209294597Y-115572896D01*
X209306204Y-115667424D01*
X209666069Y-115863121D02*
X210044182Y-115816695D01*
X209767238Y-115514863D02*
X209871698Y-116365617D01*
X209930569Y-116454342D01*
X210030900Y-116489999D01*
X210125428Y-116478392D01*
X210456277Y-116437769D02*
X210334408Y-115445223D01*
X210881654Y-116385540D02*
X210817818Y-115865635D01*
X210758947Y-115776910D01*
X210658615Y-115741252D01*
X210516823Y-115758662D01*
X210428098Y-115817533D01*
X210386637Y-115870600D01*
X211698426Y-115613579D02*
X211779672Y-116275277D01*
X211273049Y-115665809D02*
X211336885Y-116185714D01*
X211395756Y-116274439D01*
X211496087Y-116310097D01*
X211637880Y-116292687D01*
X211726605Y-116233816D01*
X211768065Y-116180749D01*
X212252313Y-116217244D02*
X212130444Y-115224698D01*
X212176870Y-115602811D02*
X212265595Y-115543940D01*
X212454651Y-115520727D01*
X212554983Y-115556384D01*
X212608050Y-115597845D01*
X212666921Y-115686570D01*
X212701741Y-115970154D01*
X212666083Y-116070486D01*
X212624622Y-116123553D01*
X212535898Y-116182424D01*
X212346841Y-116205637D01*
X212246510Y-116169980D01*
X213138724Y-116012453D02*
X213191792Y-116053914D01*
X213150331Y-116106981D01*
X213097263Y-116065520D01*
X213138724Y-116012453D01*
X213150331Y-116106981D01*
X214042546Y-115949454D02*
X213953821Y-116008325D01*
X213764764Y-116031538D01*
X213664433Y-115995881D01*
X213611365Y-115954420D01*
X213552495Y-115865695D01*
X213517675Y-115582110D01*
X213553332Y-115481779D01*
X213594793Y-115428712D01*
X213683518Y-115369841D01*
X213872574Y-115346628D01*
X213972906Y-115382285D01*
X214615518Y-115927079D02*
X214515187Y-115891421D01*
X214462119Y-115849960D01*
X214403248Y-115761236D01*
X214368429Y-115477651D01*
X214404086Y-115377319D01*
X214445547Y-115324252D01*
X214534272Y-115265381D01*
X214676064Y-115247971D01*
X214776396Y-115283629D01*
X214829463Y-115325090D01*
X214888334Y-115413815D01*
X214923154Y-115697399D01*
X214887496Y-115797731D01*
X214846035Y-115850798D01*
X214757310Y-115909669D01*
X214615518Y-115927079D01*
X215371744Y-115834226D02*
X215290497Y-115172529D01*
X215302104Y-115267057D02*
X215343565Y-115213989D01*
X215432290Y-115155119D01*
X215574082Y-115137709D01*
X215674414Y-115173366D01*
X215733284Y-115262091D01*
X215797121Y-115781996D01*
X215733284Y-115262091D02*
X215768942Y-115161760D01*
X215857667Y-115102889D01*
X215999459Y-115085479D01*
X216099791Y-115121136D01*
X216158661Y-115209861D01*
X216222498Y-115729767D01*
X217276427Y-114544874D02*
X216582363Y-115925464D01*
X218138788Y-114534942D02*
X218038456Y-114499285D01*
X217896664Y-114516695D01*
X217760675Y-114581369D01*
X217677753Y-114687504D01*
X217642096Y-114787835D01*
X217618045Y-114982695D01*
X217635455Y-115124487D01*
X217705932Y-115307740D01*
X217764803Y-115396465D01*
X217870938Y-115479387D01*
X218018533Y-115509241D01*
X218113062Y-115497634D01*
X218249051Y-115432960D01*
X218290511Y-115379893D01*
X218249888Y-115049044D01*
X218060832Y-115072258D01*
X218727495Y-115422192D02*
X218646249Y-114760494D01*
X218669462Y-114949550D02*
X218705119Y-114849219D01*
X218746580Y-114796152D01*
X218835305Y-114737281D01*
X218929833Y-114725674D01*
X219714238Y-115253058D02*
X219625513Y-115311929D01*
X219436457Y-115335142D01*
X219336125Y-115299484D01*
X219277254Y-115210760D01*
X219230828Y-114832647D01*
X219266485Y-114732315D01*
X219355210Y-114673445D01*
X219544267Y-114650231D01*
X219644598Y-114685889D01*
X219703469Y-114774614D01*
X219715076Y-114869142D01*
X219254041Y-115021703D01*
X220564992Y-115148599D02*
X220476267Y-115207469D01*
X220287210Y-115230683D01*
X220186879Y-115195025D01*
X220128008Y-115106300D01*
X220081582Y-114728187D01*
X220117239Y-114627856D01*
X220205964Y-114568985D01*
X220395021Y-114545772D01*
X220495352Y-114581429D01*
X220554223Y-114670154D01*
X220565829Y-114764683D01*
X220104795Y-114917244D01*
X220962190Y-114476132D02*
X221043436Y-115137830D01*
X220973796Y-114570660D02*
X221015257Y-114517593D01*
X221103982Y-114458722D01*
X221245774Y-114441312D01*
X221346106Y-114476970D01*
X221404977Y-114565695D01*
X221468813Y-115085600D01*
X221941454Y-115027567D02*
X221819585Y-114035021D01*
X222237483Y-114703359D01*
X222481282Y-113953775D01*
X222603151Y-114946321D01*
X223501169Y-114836058D02*
X223437333Y-114316153D01*
X223378462Y-114227428D01*
X223278131Y-114191770D01*
X223089074Y-114214984D01*
X223000349Y-114273854D01*
X223495366Y-114788794D02*
X223406641Y-114847665D01*
X223170321Y-114876681D01*
X223069989Y-114841024D01*
X223011118Y-114752299D01*
X222999512Y-114657771D01*
X223035169Y-114557439D01*
X223123894Y-114498568D01*
X223360215Y-114469552D01*
X223448940Y-114410681D01*
X223920743Y-114736564D02*
X224021074Y-114772222D01*
X224210131Y-114749008D01*
X224298856Y-114690138D01*
X224334513Y-114589806D01*
X224328710Y-114542542D01*
X224269839Y-114453817D01*
X224169508Y-114418160D01*
X224027715Y-114435570D01*
X223927384Y-114399912D01*
X223868513Y-114311187D01*
X223862710Y-114263923D01*
X223898367Y-114163592D01*
X223987092Y-114104721D01*
X224128885Y-114087311D01*
X224229216Y-114122969D01*
X224777300Y-114679369D02*
X224655431Y-113686823D01*
X225202677Y-114627139D02*
X225138841Y-114107234D01*
X225079970Y-114018509D01*
X224979638Y-113982852D01*
X224837846Y-114000262D01*
X224749121Y-114059132D01*
X224707660Y-114112200D01*
X226047628Y-114475416D02*
X225958903Y-114534286D01*
X225769846Y-114557500D01*
X225669515Y-114521842D01*
X225610644Y-114433117D01*
X225564218Y-114055004D01*
X225599875Y-113954673D01*
X225688600Y-113895802D01*
X225877656Y-113872589D01*
X225977988Y-113908246D01*
X226036859Y-113996971D01*
X226048465Y-114091499D01*
X225587431Y-114244061D01*
X226951449Y-114412417D02*
X226829579Y-113419871D01*
X226945646Y-114365153D02*
X226856921Y-114424024D01*
X226667864Y-114447237D01*
X226567533Y-114411579D01*
X226514465Y-114370118D01*
X226455595Y-114281394D01*
X226420775Y-113997809D01*
X226456432Y-113897477D01*
X226497893Y-113844410D01*
X226586618Y-113785539D01*
X226775674Y-113762326D01*
X226876006Y-113797984D01*
X227424090Y-114354384D02*
X227302220Y-113361838D01*
X227680333Y-113315411D01*
X227780665Y-113351069D01*
X227833732Y-113392530D01*
X227892603Y-113481255D01*
X227910013Y-113623047D01*
X227874355Y-113723378D01*
X227832895Y-113776446D01*
X227744170Y-113835316D01*
X227366057Y-113881743D01*
X228558428Y-114215105D02*
X228458097Y-114179447D01*
X228405029Y-114137986D01*
X228346159Y-114049261D01*
X228311339Y-113765677D01*
X228346996Y-113665345D01*
X228388457Y-113612278D01*
X228477182Y-113553407D01*
X228618974Y-113535997D01*
X228719306Y-113571655D01*
X228772373Y-113613116D01*
X228831244Y-113701841D01*
X228866064Y-113985425D01*
X228830406Y-114085757D01*
X228788946Y-114138824D01*
X228700221Y-114197695D01*
X228558428Y-114215105D01*
X229091615Y-113477964D02*
X229469728Y-113431538D01*
X229192785Y-113129706D02*
X229297244Y-113980460D01*
X229356115Y-114069184D01*
X229456446Y-114104842D01*
X229550974Y-114093235D01*
X230307200Y-114000383D02*
X230243364Y-113480477D01*
X230184493Y-113391752D01*
X230084162Y-113356095D01*
X229895105Y-113379308D01*
X229806380Y-113438179D01*
X230301397Y-113953118D02*
X230212672Y-114011989D01*
X229976351Y-114041006D01*
X229876020Y-114005348D01*
X229817149Y-113916623D01*
X229805543Y-113822095D01*
X229841200Y-113721764D01*
X229929925Y-113662893D01*
X230166245Y-113633876D01*
X230254970Y-113575006D01*
X230556803Y-113298062D02*
X230934915Y-113251636D01*
X230657972Y-112949803D02*
X230762431Y-113800557D01*
X230821302Y-113889282D01*
X230921633Y-113924940D01*
X231016162Y-113913333D01*
X231488803Y-113855300D02*
X231388471Y-113819642D01*
X231335404Y-113778182D01*
X231276533Y-113689457D01*
X231241713Y-113405872D01*
X231277371Y-113305541D01*
X231318832Y-113252473D01*
X231407556Y-113193603D01*
X231549349Y-113176193D01*
X231649680Y-113211850D01*
X231702748Y-113253311D01*
X231761618Y-113342036D01*
X231796438Y-113625620D01*
X231760781Y-113725952D01*
X231719320Y-113779019D01*
X231630595Y-113837890D01*
X231488803Y-113855300D01*
X232826317Y-112635587D02*
X232132252Y-114016178D01*
X233284839Y-113634774D02*
X233162969Y-112642228D01*
X233332940Y-113245055D02*
X233662951Y-113588348D01*
X233581705Y-112926651D02*
X233250019Y-113351190D01*
X234088328Y-113536118D02*
X234007082Y-112874421D01*
X233966459Y-112543572D02*
X233924998Y-112596640D01*
X233978066Y-112638100D01*
X234019526Y-112585033D01*
X233966459Y-112543572D01*
X233978066Y-112638100D01*
X234560969Y-113478085D02*
X234439100Y-112485539D01*
X234485526Y-112863652D02*
X234574251Y-112804781D01*
X234763308Y-112781568D01*
X234863639Y-112817226D01*
X234916707Y-112858686D01*
X234975577Y-112947411D01*
X235010397Y-113230996D01*
X234974740Y-113331327D01*
X234933279Y-113384395D01*
X234844554Y-113443266D01*
X234655498Y-113466479D01*
X234555166Y-113430821D01*
X235600780Y-113350413D02*
X235500448Y-113314755D01*
X235447381Y-113273294D01*
X235388510Y-113184569D01*
X235353690Y-112900985D01*
X235389348Y-112800653D01*
X235430808Y-112747586D01*
X235519533Y-112688715D01*
X235661326Y-112671305D01*
X235761657Y-112706963D01*
X235814725Y-112748424D01*
X235873595Y-112837149D01*
X235908415Y-113120733D01*
X235872758Y-113221065D01*
X235831297Y-113274132D01*
X235742572Y-113333003D01*
X235600780Y-113350413D01*
X236782382Y-113205330D02*
X236660513Y-112212784D01*
X236776579Y-113158066D02*
X236687854Y-113216937D01*
X236498798Y-113240150D01*
X236398466Y-113204492D01*
X236345399Y-113163032D01*
X236286528Y-113074307D01*
X236251708Y-112790722D01*
X236287366Y-112690391D01*
X236328826Y-112637323D01*
X236417551Y-112578453D01*
X236606608Y-112555239D01*
X236706939Y-112590897D01*
X237208597Y-112769184D02*
X237964822Y-112676331D01*
X238551077Y-111980652D02*
X238645605Y-111969045D01*
X238745937Y-112004703D01*
X238799004Y-112046164D01*
X238857875Y-112134888D01*
X238928352Y-112318142D01*
X238957369Y-112554462D01*
X238933318Y-112749322D01*
X238897660Y-112849653D01*
X238856199Y-112902721D01*
X238767474Y-112961591D01*
X238672946Y-112973198D01*
X238572615Y-112937541D01*
X238519547Y-112896080D01*
X238460677Y-112807355D01*
X238390199Y-112624102D01*
X238361183Y-112387781D01*
X238385234Y-112192922D01*
X238420891Y-112092590D01*
X238462352Y-112039523D01*
X238551077Y-111980652D01*
X239949077Y-112816509D02*
X239381908Y-112886149D01*
X239665492Y-112851329D02*
X239543623Y-111858783D01*
X239466505Y-112012181D01*
X239383583Y-112118316D01*
X239294858Y-112177187D01*
D11*
%TO.C,J1*%
X131876800Y-81836171D02*
X131876800Y-82271600D01*
X131847771Y-82358685D01*
X131789714Y-82416742D01*
X131702628Y-82445771D01*
X131644571Y-82445771D01*
X132486400Y-82445771D02*
X132138057Y-82445771D01*
X132312228Y-82445771D02*
X132312228Y-81836171D01*
X132254171Y-81923257D01*
X132196114Y-81981314D01*
X132138057Y-82010342D01*
X130933371Y-82836171D02*
X130991428Y-82836171D01*
X131049485Y-82865200D01*
X131078514Y-82894228D01*
X131107542Y-82952285D01*
X131136571Y-83068400D01*
X131136571Y-83213542D01*
X131107542Y-83329657D01*
X131078514Y-83387714D01*
X131049485Y-83416742D01*
X130991428Y-83445771D01*
X130933371Y-83445771D01*
X130875314Y-83416742D01*
X130846285Y-83387714D01*
X130817257Y-83329657D01*
X130788228Y-83213542D01*
X130788228Y-83068400D01*
X130817257Y-82952285D01*
X130846285Y-82894228D01*
X130875314Y-82865200D01*
X130933371Y-82836171D01*
X131368800Y-82894228D02*
X131397828Y-82865200D01*
X131455885Y-82836171D01*
X131601028Y-82836171D01*
X131659085Y-82865200D01*
X131688114Y-82894228D01*
X131717142Y-82952285D01*
X131717142Y-83010342D01*
X131688114Y-83097428D01*
X131339771Y-83445771D01*
X131717142Y-83445771D01*
X131920342Y-83445771D02*
X132239657Y-83039371D01*
X131920342Y-83039371D02*
X132239657Y-83445771D01*
X132588000Y-82836171D02*
X132646057Y-82836171D01*
X132704114Y-82865200D01*
X132733142Y-82894228D01*
X132762171Y-82952285D01*
X132791200Y-83068400D01*
X132791200Y-83213542D01*
X132762171Y-83329657D01*
X132733142Y-83387714D01*
X132704114Y-83416742D01*
X132646057Y-83445771D01*
X132588000Y-83445771D01*
X132529942Y-83416742D01*
X132500914Y-83387714D01*
X132471885Y-83329657D01*
X132442857Y-83213542D01*
X132442857Y-83068400D01*
X132471885Y-82952285D01*
X132500914Y-82894228D01*
X132529942Y-82865200D01*
X132588000Y-82836171D01*
X133342742Y-82836171D02*
X133052457Y-82836171D01*
X133023428Y-83126457D01*
X133052457Y-83097428D01*
X133110514Y-83068400D01*
X133255657Y-83068400D01*
X133313714Y-83097428D01*
X133342742Y-83126457D01*
X133371771Y-83184514D01*
X133371771Y-83329657D01*
X133342742Y-83387714D01*
X133313714Y-83416742D01*
X133255657Y-83445771D01*
X133110514Y-83445771D01*
X133052457Y-83416742D01*
X133023428Y-83387714D01*
%TO.C,J2*%
X150048927Y-81836171D02*
X150048927Y-82271600D01*
X150019898Y-82358685D01*
X149961841Y-82416742D01*
X149874755Y-82445771D01*
X149816698Y-82445771D01*
X150310184Y-81894228D02*
X150339212Y-81865200D01*
X150397269Y-81836171D01*
X150542412Y-81836171D01*
X150600469Y-81865200D01*
X150629498Y-81894228D01*
X150658527Y-81952285D01*
X150658527Y-82010342D01*
X150629498Y-82097428D01*
X150281155Y-82445771D01*
X150658527Y-82445771D01*
X149105498Y-82836171D02*
X149163555Y-82836171D01*
X149221612Y-82865200D01*
X149250641Y-82894228D01*
X149279669Y-82952285D01*
X149308698Y-83068400D01*
X149308698Y-83213542D01*
X149279669Y-83329657D01*
X149250641Y-83387714D01*
X149221612Y-83416742D01*
X149163555Y-83445771D01*
X149105498Y-83445771D01*
X149047441Y-83416742D01*
X149018412Y-83387714D01*
X148989384Y-83329657D01*
X148960355Y-83213542D01*
X148960355Y-83068400D01*
X148989384Y-82952285D01*
X149018412Y-82894228D01*
X149047441Y-82865200D01*
X149105498Y-82836171D01*
X149540927Y-82894228D02*
X149569955Y-82865200D01*
X149628012Y-82836171D01*
X149773155Y-82836171D01*
X149831212Y-82865200D01*
X149860241Y-82894228D01*
X149889269Y-82952285D01*
X149889269Y-83010342D01*
X149860241Y-83097428D01*
X149511898Y-83445771D01*
X149889269Y-83445771D01*
X150092469Y-83445771D02*
X150411784Y-83039371D01*
X150092469Y-83039371D02*
X150411784Y-83445771D01*
X150760127Y-82836171D02*
X150818184Y-82836171D01*
X150876241Y-82865200D01*
X150905269Y-82894228D01*
X150934298Y-82952285D01*
X150963327Y-83068400D01*
X150963327Y-83213542D01*
X150934298Y-83329657D01*
X150905269Y-83387714D01*
X150876241Y-83416742D01*
X150818184Y-83445771D01*
X150760127Y-83445771D01*
X150702069Y-83416742D01*
X150673041Y-83387714D01*
X150644012Y-83329657D01*
X150614984Y-83213542D01*
X150614984Y-83068400D01*
X150644012Y-82952285D01*
X150673041Y-82894228D01*
X150702069Y-82865200D01*
X150760127Y-82836171D01*
X151514869Y-82836171D02*
X151224584Y-82836171D01*
X151195555Y-83126457D01*
X151224584Y-83097428D01*
X151282641Y-83068400D01*
X151427784Y-83068400D01*
X151485841Y-83097428D01*
X151514869Y-83126457D01*
X151543898Y-83184514D01*
X151543898Y-83329657D01*
X151514869Y-83387714D01*
X151485841Y-83416742D01*
X151427784Y-83445771D01*
X151282641Y-83445771D01*
X151224584Y-83416742D01*
X151195555Y-83387714D01*
D10*
%TO.C,U1*%
X125236666Y-47713809D02*
X125350952Y-47751904D01*
X125541428Y-47751904D01*
X125617619Y-47713809D01*
X125655714Y-47675714D01*
X125693809Y-47599523D01*
X125693809Y-47523333D01*
X125655714Y-47447142D01*
X125617619Y-47409047D01*
X125541428Y-47370952D01*
X125389047Y-47332857D01*
X125312857Y-47294761D01*
X125274761Y-47256666D01*
X125236666Y-47180476D01*
X125236666Y-47104285D01*
X125274761Y-47028095D01*
X125312857Y-46990000D01*
X125389047Y-46951904D01*
X125579523Y-46951904D01*
X125693809Y-46990000D01*
X125922380Y-46951904D02*
X126379523Y-46951904D01*
X126150952Y-47751904D02*
X126150952Y-46951904D01*
X125025190Y-67672857D02*
X125139476Y-67710952D01*
X125177571Y-67749047D01*
X125215666Y-67825238D01*
X125215666Y-67939523D01*
X125177571Y-68015714D01*
X125139476Y-68053809D01*
X125063285Y-68091904D01*
X124758523Y-68091904D01*
X124758523Y-67291904D01*
X125025190Y-67291904D01*
X125101380Y-67330000D01*
X125139476Y-67368095D01*
X125177571Y-67444285D01*
X125177571Y-67520476D01*
X125139476Y-67596666D01*
X125101380Y-67634761D01*
X125025190Y-67672857D01*
X124758523Y-67672857D01*
X125520428Y-67368095D02*
X125558523Y-67330000D01*
X125634714Y-67291904D01*
X125825190Y-67291904D01*
X125901380Y-67330000D01*
X125939476Y-67368095D01*
X125977571Y-67444285D01*
X125977571Y-67520476D01*
X125939476Y-67634761D01*
X125482333Y-68091904D01*
X125977571Y-68091904D01*
X135718619Y-65132857D02*
X135985285Y-65132857D01*
X136099571Y-65551904D02*
X135718619Y-65551904D01*
X135718619Y-64751904D01*
X136099571Y-64751904D01*
X136785285Y-64751904D02*
X136632904Y-64751904D01*
X136556714Y-64790000D01*
X136518619Y-64828095D01*
X136442428Y-64942380D01*
X136404333Y-65094761D01*
X136404333Y-65399523D01*
X136442428Y-65475714D01*
X136480523Y-65513809D01*
X136556714Y-65551904D01*
X136709095Y-65551904D01*
X136785285Y-65513809D01*
X136823380Y-65475714D01*
X136861476Y-65399523D01*
X136861476Y-65209047D01*
X136823380Y-65132857D01*
X136785285Y-65094761D01*
X136709095Y-65056666D01*
X136556714Y-65056666D01*
X136480523Y-65094761D01*
X136442428Y-65132857D01*
X136404333Y-65209047D01*
X135680523Y-63011904D02*
X135680523Y-62211904D01*
X135871000Y-62211904D01*
X135985285Y-62250000D01*
X136061476Y-62326190D01*
X136099571Y-62402380D01*
X136137666Y-62554761D01*
X136137666Y-62669047D01*
X136099571Y-62821428D01*
X136061476Y-62897619D01*
X135985285Y-62973809D01*
X135871000Y-63011904D01*
X135680523Y-63011904D01*
X136404333Y-62211904D02*
X136937666Y-62211904D01*
X136594809Y-63011904D01*
X136137666Y-60395714D02*
X136099571Y-60433809D01*
X135985285Y-60471904D01*
X135909095Y-60471904D01*
X135794809Y-60433809D01*
X135718619Y-60357619D01*
X135680523Y-60281428D01*
X135642428Y-60129047D01*
X135642428Y-60014761D01*
X135680523Y-59862380D01*
X135718619Y-59786190D01*
X135794809Y-59710000D01*
X135909095Y-59671904D01*
X135985285Y-59671904D01*
X136099571Y-59710000D01*
X136137666Y-59748095D01*
X136823380Y-59671904D02*
X136671000Y-59671904D01*
X136594809Y-59710000D01*
X136556714Y-59748095D01*
X136480523Y-59862380D01*
X136442428Y-60014761D01*
X136442428Y-60319523D01*
X136480523Y-60395714D01*
X136518619Y-60433809D01*
X136594809Y-60471904D01*
X136747190Y-60471904D01*
X136823380Y-60433809D01*
X136861476Y-60395714D01*
X136899571Y-60319523D01*
X136899571Y-60129047D01*
X136861476Y-60052857D01*
X136823380Y-60014761D01*
X136747190Y-59976666D01*
X136594809Y-59976666D01*
X136518619Y-60014761D01*
X136480523Y-60052857D01*
X136442428Y-60129047D01*
X130262380Y-60919047D02*
X130976666Y-60919047D01*
X131119523Y-60966666D01*
X131214761Y-61061904D01*
X131262380Y-61204761D01*
X131262380Y-61300000D01*
X131262380Y-59966666D02*
X131262380Y-60442857D01*
X130262380Y-60442857D01*
X131167142Y-59061904D02*
X131214761Y-59109523D01*
X131262380Y-59252380D01*
X131262380Y-59347619D01*
X131214761Y-59490476D01*
X131119523Y-59585714D01*
X131024285Y-59633333D01*
X130833809Y-59680952D01*
X130690952Y-59680952D01*
X130500476Y-59633333D01*
X130405238Y-59585714D01*
X130310000Y-59490476D01*
X130262380Y-59347619D01*
X130262380Y-59252380D01*
X130310000Y-59109523D01*
X130357619Y-59061904D01*
X130262380Y-58347619D02*
X130976666Y-58347619D01*
X131119523Y-58395238D01*
X131214761Y-58490476D01*
X131262380Y-58633333D01*
X131262380Y-58728571D01*
X131262380Y-57395238D02*
X131262380Y-57871428D01*
X130262380Y-57871428D01*
X131167142Y-56490476D02*
X131214761Y-56538095D01*
X131262380Y-56680952D01*
X131262380Y-56776190D01*
X131214761Y-56919047D01*
X131119523Y-57014285D01*
X131024285Y-57061904D01*
X130833809Y-57109523D01*
X130690952Y-57109523D01*
X130500476Y-57061904D01*
X130405238Y-57014285D01*
X130310000Y-56919047D01*
X130262380Y-56776190D01*
X130262380Y-56680952D01*
X130310000Y-56538095D01*
X130357619Y-56490476D01*
X130262380Y-55776190D02*
X130976666Y-55776190D01*
X131119523Y-55823809D01*
X131214761Y-55919047D01*
X131262380Y-56061904D01*
X131262380Y-56157142D01*
X131262380Y-54823809D02*
X131262380Y-55300000D01*
X130262380Y-55300000D01*
X131167142Y-53919047D02*
X131214761Y-53966666D01*
X131262380Y-54109523D01*
X131262380Y-54204761D01*
X131214761Y-54347619D01*
X131119523Y-54442857D01*
X131024285Y-54490476D01*
X130833809Y-54538095D01*
X130690952Y-54538095D01*
X130500476Y-54490476D01*
X130405238Y-54442857D01*
X130310000Y-54347619D01*
X130262380Y-54204761D01*
X130262380Y-54109523D01*
X130310000Y-53966666D01*
X130357619Y-53919047D01*
X130262380Y-53204761D02*
X130976666Y-53204761D01*
X131119523Y-53252380D01*
X131214761Y-53347619D01*
X131262380Y-53490476D01*
X131262380Y-53585714D01*
X131262380Y-52252380D02*
X131262380Y-52728571D01*
X130262380Y-52728571D01*
X131167142Y-51347619D02*
X131214761Y-51395238D01*
X131262380Y-51538095D01*
X131262380Y-51633333D01*
X131214761Y-51776190D01*
X131119523Y-51871428D01*
X131024285Y-51919047D01*
X130833809Y-51966666D01*
X130690952Y-51966666D01*
X130500476Y-51919047D01*
X130405238Y-51871428D01*
X130310000Y-51776190D01*
X130262380Y-51633333D01*
X130262380Y-51538095D01*
X130310000Y-51395238D01*
X130357619Y-51347619D01*
X135680523Y-55391904D02*
X135680523Y-54591904D01*
X135871000Y-54591904D01*
X135985285Y-54630000D01*
X136061476Y-54706190D01*
X136099571Y-54782380D01*
X136137666Y-54934761D01*
X136137666Y-55049047D01*
X136099571Y-55201428D01*
X136061476Y-55277619D01*
X135985285Y-55353809D01*
X135871000Y-55391904D01*
X135680523Y-55391904D01*
X136632904Y-54591904D02*
X136709095Y-54591904D01*
X136785285Y-54630000D01*
X136823380Y-54668095D01*
X136861476Y-54744285D01*
X136899571Y-54896666D01*
X136899571Y-55087142D01*
X136861476Y-55239523D01*
X136823380Y-55315714D01*
X136785285Y-55353809D01*
X136709095Y-55391904D01*
X136632904Y-55391904D01*
X136556714Y-55353809D01*
X136518619Y-55315714D01*
X136480523Y-55239523D01*
X136442428Y-55087142D01*
X136442428Y-54896666D01*
X136480523Y-54744285D01*
X136518619Y-54668095D01*
X136556714Y-54630000D01*
X136632904Y-54591904D01*
X135680523Y-45231904D02*
X135680523Y-44431904D01*
X135871000Y-44431904D01*
X135985285Y-44470000D01*
X136061476Y-44546190D01*
X136099571Y-44622380D01*
X136137666Y-44774761D01*
X136137666Y-44889047D01*
X136099571Y-45041428D01*
X136061476Y-45117619D01*
X135985285Y-45193809D01*
X135871000Y-45231904D01*
X135680523Y-45231904D01*
X136442428Y-44508095D02*
X136480523Y-44470000D01*
X136556714Y-44431904D01*
X136747190Y-44431904D01*
X136823380Y-44470000D01*
X136861476Y-44508095D01*
X136899571Y-44584285D01*
X136899571Y-44660476D01*
X136861476Y-44774761D01*
X136404333Y-45231904D01*
X136899571Y-45231904D01*
X125082333Y-57512857D02*
X124815666Y-57512857D01*
X124815666Y-57931904D02*
X124815666Y-57131904D01*
X125196619Y-57131904D01*
X125844238Y-57131904D02*
X125691857Y-57131904D01*
X125615666Y-57170000D01*
X125577571Y-57208095D01*
X125501380Y-57322380D01*
X125463285Y-57474761D01*
X125463285Y-57779523D01*
X125501380Y-57855714D01*
X125539476Y-57893809D01*
X125615666Y-57931904D01*
X125768047Y-57931904D01*
X125844238Y-57893809D01*
X125882333Y-57855714D01*
X125920428Y-57779523D01*
X125920428Y-57589047D01*
X125882333Y-57512857D01*
X125844238Y-57474761D01*
X125768047Y-57436666D01*
X125615666Y-57436666D01*
X125539476Y-57474761D01*
X125501380Y-57512857D01*
X125463285Y-57589047D01*
X125025190Y-62592857D02*
X125139476Y-62630952D01*
X125177571Y-62669047D01*
X125215666Y-62745238D01*
X125215666Y-62859523D01*
X125177571Y-62935714D01*
X125139476Y-62973809D01*
X125063285Y-63011904D01*
X124758523Y-63011904D01*
X124758523Y-62211904D01*
X125025190Y-62211904D01*
X125101380Y-62250000D01*
X125139476Y-62288095D01*
X125177571Y-62364285D01*
X125177571Y-62440476D01*
X125139476Y-62516666D01*
X125101380Y-62554761D01*
X125025190Y-62592857D01*
X124758523Y-62592857D01*
X125977571Y-63011904D02*
X125520428Y-63011904D01*
X125749000Y-63011904D02*
X125749000Y-62211904D01*
X125672809Y-62326190D01*
X125596619Y-62402380D01*
X125520428Y-62440476D01*
X135947190Y-70212857D02*
X136061476Y-70250952D01*
X136099571Y-70289047D01*
X136137666Y-70365238D01*
X136137666Y-70479523D01*
X136099571Y-70555714D01*
X136061476Y-70593809D01*
X135985285Y-70631904D01*
X135680523Y-70631904D01*
X135680523Y-69831904D01*
X135947190Y-69831904D01*
X136023380Y-69870000D01*
X136061476Y-69908095D01*
X136099571Y-69984285D01*
X136099571Y-70060476D01*
X136061476Y-70136666D01*
X136023380Y-70174761D01*
X135947190Y-70212857D01*
X135680523Y-70212857D01*
X136861476Y-69831904D02*
X136480523Y-69831904D01*
X136442428Y-70212857D01*
X136480523Y-70174761D01*
X136556714Y-70136666D01*
X136747190Y-70136666D01*
X136823380Y-70174761D01*
X136861476Y-70212857D01*
X136899571Y-70289047D01*
X136899571Y-70479523D01*
X136861476Y-70555714D01*
X136823380Y-70593809D01*
X136747190Y-70631904D01*
X136556714Y-70631904D01*
X136480523Y-70593809D01*
X136442428Y-70555714D01*
X135661476Y-49550000D02*
X135585285Y-49511904D01*
X135471000Y-49511904D01*
X135356714Y-49550000D01*
X135280523Y-49626190D01*
X135242428Y-49702380D01*
X135204333Y-49854761D01*
X135204333Y-49969047D01*
X135242428Y-50121428D01*
X135280523Y-50197619D01*
X135356714Y-50273809D01*
X135471000Y-50311904D01*
X135547190Y-50311904D01*
X135661476Y-50273809D01*
X135699571Y-50235714D01*
X135699571Y-49969047D01*
X135547190Y-49969047D01*
X136042428Y-50311904D02*
X136042428Y-49511904D01*
X136499571Y-50311904D01*
X136499571Y-49511904D01*
X136880523Y-50311904D02*
X136880523Y-49511904D01*
X137071000Y-49511904D01*
X137185285Y-49550000D01*
X137261476Y-49626190D01*
X137299571Y-49702380D01*
X137337666Y-49854761D01*
X137337666Y-49969047D01*
X137299571Y-50121428D01*
X137261476Y-50197619D01*
X137185285Y-50273809D01*
X137071000Y-50311904D01*
X136880523Y-50311904D01*
X135680523Y-52851904D02*
X135680523Y-52051904D01*
X135871000Y-52051904D01*
X135985285Y-52090000D01*
X136061476Y-52166190D01*
X136099571Y-52242380D01*
X136137666Y-52394761D01*
X136137666Y-52509047D01*
X136099571Y-52661428D01*
X136061476Y-52737619D01*
X135985285Y-52813809D01*
X135871000Y-52851904D01*
X135680523Y-52851904D01*
X136899571Y-52851904D02*
X136442428Y-52851904D01*
X136671000Y-52851904D02*
X136671000Y-52051904D01*
X136594809Y-52166190D01*
X136518619Y-52242380D01*
X136442428Y-52280476D01*
X135661476Y-47010000D02*
X135585285Y-46971904D01*
X135471000Y-46971904D01*
X135356714Y-47010000D01*
X135280523Y-47086190D01*
X135242428Y-47162380D01*
X135204333Y-47314761D01*
X135204333Y-47429047D01*
X135242428Y-47581428D01*
X135280523Y-47657619D01*
X135356714Y-47733809D01*
X135471000Y-47771904D01*
X135547190Y-47771904D01*
X135661476Y-47733809D01*
X135699571Y-47695714D01*
X135699571Y-47429047D01*
X135547190Y-47429047D01*
X136042428Y-47771904D02*
X136042428Y-46971904D01*
X136499571Y-47771904D01*
X136499571Y-46971904D01*
X136880523Y-47771904D02*
X136880523Y-46971904D01*
X137071000Y-46971904D01*
X137185285Y-47010000D01*
X137261476Y-47086190D01*
X137299571Y-47162380D01*
X137337666Y-47314761D01*
X137337666Y-47429047D01*
X137299571Y-47581428D01*
X137261476Y-47657619D01*
X137185285Y-47733809D01*
X137071000Y-47771904D01*
X136880523Y-47771904D01*
X124282333Y-49511904D02*
X124549000Y-50311904D01*
X124815666Y-49511904D01*
X125539476Y-50235714D02*
X125501380Y-50273809D01*
X125387095Y-50311904D01*
X125310904Y-50311904D01*
X125196619Y-50273809D01*
X125120428Y-50197619D01*
X125082333Y-50121428D01*
X125044238Y-49969047D01*
X125044238Y-49854761D01*
X125082333Y-49702380D01*
X125120428Y-49626190D01*
X125196619Y-49550000D01*
X125310904Y-49511904D01*
X125387095Y-49511904D01*
X125501380Y-49550000D01*
X125539476Y-49588095D01*
X126339476Y-50235714D02*
X126301380Y-50273809D01*
X126187095Y-50311904D01*
X126110904Y-50311904D01*
X125996619Y-50273809D01*
X125920428Y-50197619D01*
X125882333Y-50121428D01*
X125844238Y-49969047D01*
X125844238Y-49854761D01*
X125882333Y-49702380D01*
X125920428Y-49626190D01*
X125996619Y-49550000D01*
X126110904Y-49511904D01*
X126187095Y-49511904D01*
X126301380Y-49550000D01*
X126339476Y-49588095D01*
X125082333Y-54972857D02*
X124815666Y-54972857D01*
X124815666Y-55391904D02*
X124815666Y-54591904D01*
X125196619Y-54591904D01*
X125882333Y-54591904D02*
X125501380Y-54591904D01*
X125463285Y-54972857D01*
X125501380Y-54934761D01*
X125577571Y-54896666D01*
X125768047Y-54896666D01*
X125844238Y-54934761D01*
X125882333Y-54972857D01*
X125920428Y-55049047D01*
X125920428Y-55239523D01*
X125882333Y-55315714D01*
X125844238Y-55353809D01*
X125768047Y-55391904D01*
X125577571Y-55391904D01*
X125501380Y-55353809D01*
X125463285Y-55315714D01*
X125025190Y-70212857D02*
X125139476Y-70250952D01*
X125177571Y-70289047D01*
X125215666Y-70365238D01*
X125215666Y-70479523D01*
X125177571Y-70555714D01*
X125139476Y-70593809D01*
X125063285Y-70631904D01*
X124758523Y-70631904D01*
X124758523Y-69831904D01*
X125025190Y-69831904D01*
X125101380Y-69870000D01*
X125139476Y-69908095D01*
X125177571Y-69984285D01*
X125177571Y-70060476D01*
X125139476Y-70136666D01*
X125101380Y-70174761D01*
X125025190Y-70212857D01*
X124758523Y-70212857D01*
X125901380Y-69831904D02*
X125749000Y-69831904D01*
X125672809Y-69870000D01*
X125634714Y-69908095D01*
X125558523Y-70022380D01*
X125520428Y-70174761D01*
X125520428Y-70479523D01*
X125558523Y-70555714D01*
X125596619Y-70593809D01*
X125672809Y-70631904D01*
X125825190Y-70631904D01*
X125901380Y-70593809D01*
X125939476Y-70555714D01*
X125977571Y-70479523D01*
X125977571Y-70289047D01*
X125939476Y-70212857D01*
X125901380Y-70174761D01*
X125825190Y-70136666D01*
X125672809Y-70136666D01*
X125596619Y-70174761D01*
X125558523Y-70212857D01*
X125520428Y-70289047D01*
X135680523Y-57931904D02*
X135680523Y-57131904D01*
X135871000Y-57131904D01*
X135985285Y-57170000D01*
X136061476Y-57246190D01*
X136099571Y-57322380D01*
X136137666Y-57474761D01*
X136137666Y-57589047D01*
X136099571Y-57741428D01*
X136061476Y-57817619D01*
X135985285Y-57893809D01*
X135871000Y-57931904D01*
X135680523Y-57931904D01*
X136823380Y-57398571D02*
X136823380Y-57931904D01*
X136632904Y-57093809D02*
X136442428Y-57665238D01*
X136937666Y-57665238D01*
X125025190Y-65132857D02*
X125139476Y-65170952D01*
X125177571Y-65209047D01*
X125215666Y-65285238D01*
X125215666Y-65399523D01*
X125177571Y-65475714D01*
X125139476Y-65513809D01*
X125063285Y-65551904D01*
X124758523Y-65551904D01*
X124758523Y-64751904D01*
X125025190Y-64751904D01*
X125101380Y-64790000D01*
X125139476Y-64828095D01*
X125177571Y-64904285D01*
X125177571Y-64980476D01*
X125139476Y-65056666D01*
X125101380Y-65094761D01*
X125025190Y-65132857D01*
X124758523Y-65132857D01*
X125482333Y-64751904D02*
X125977571Y-64751904D01*
X125710904Y-65056666D01*
X125825190Y-65056666D01*
X125901380Y-65094761D01*
X125939476Y-65132857D01*
X125977571Y-65209047D01*
X125977571Y-65399523D01*
X125939476Y-65475714D01*
X125901380Y-65513809D01*
X125825190Y-65551904D01*
X125596619Y-65551904D01*
X125520428Y-65513809D01*
X125482333Y-65475714D01*
X124739476Y-44470000D02*
X124663285Y-44431904D01*
X124549000Y-44431904D01*
X124434714Y-44470000D01*
X124358523Y-44546190D01*
X124320428Y-44622380D01*
X124282333Y-44774761D01*
X124282333Y-44889047D01*
X124320428Y-45041428D01*
X124358523Y-45117619D01*
X124434714Y-45193809D01*
X124549000Y-45231904D01*
X124625190Y-45231904D01*
X124739476Y-45193809D01*
X124777571Y-45155714D01*
X124777571Y-44889047D01*
X124625190Y-44889047D01*
X125120428Y-45231904D02*
X125120428Y-44431904D01*
X125577571Y-45231904D01*
X125577571Y-44431904D01*
X125958523Y-45231904D02*
X125958523Y-44431904D01*
X126149000Y-44431904D01*
X126263285Y-44470000D01*
X126339476Y-44546190D01*
X126377571Y-44622380D01*
X126415666Y-44774761D01*
X126415666Y-44889047D01*
X126377571Y-45041428D01*
X126339476Y-45117619D01*
X126263285Y-45193809D01*
X126149000Y-45231904D01*
X125958523Y-45231904D01*
X135947190Y-67672857D02*
X136061476Y-67710952D01*
X136099571Y-67749047D01*
X136137666Y-67825238D01*
X136137666Y-67939523D01*
X136099571Y-68015714D01*
X136061476Y-68053809D01*
X135985285Y-68091904D01*
X135680523Y-68091904D01*
X135680523Y-67291904D01*
X135947190Y-67291904D01*
X136023380Y-67330000D01*
X136061476Y-67368095D01*
X136099571Y-67444285D01*
X136099571Y-67520476D01*
X136061476Y-67596666D01*
X136023380Y-67634761D01*
X135947190Y-67672857D01*
X135680523Y-67672857D01*
X136823380Y-67558571D02*
X136823380Y-68091904D01*
X136632904Y-67253809D02*
X136442428Y-67825238D01*
X136937666Y-67825238D01*
X124796619Y-42691904D02*
X124529952Y-42310952D01*
X124339476Y-42691904D02*
X124339476Y-41891904D01*
X124644238Y-41891904D01*
X124720428Y-41930000D01*
X124758523Y-41968095D01*
X124796619Y-42044285D01*
X124796619Y-42158571D01*
X124758523Y-42234761D01*
X124720428Y-42272857D01*
X124644238Y-42310952D01*
X124339476Y-42310952D01*
X125101380Y-42463333D02*
X125482333Y-42463333D01*
X125025190Y-42691904D02*
X125291857Y-41891904D01*
X125558523Y-42691904D01*
X125749000Y-41891904D02*
X125939476Y-42691904D01*
X126091857Y-42120476D01*
X126244238Y-42691904D01*
X126434714Y-41891904D01*
X132191395Y-41891904D02*
X132648538Y-41891904D01*
X132419967Y-42691904D02*
X132419967Y-41891904D01*
X132839014Y-41891904D02*
X133372348Y-42691904D01*
X133372348Y-41891904D02*
X132839014Y-42691904D01*
X133829491Y-41891904D02*
X133905681Y-41891904D01*
X133981872Y-41930000D01*
X134019967Y-41968095D01*
X134058062Y-42044285D01*
X134096157Y-42196666D01*
X134096157Y-42387142D01*
X134058062Y-42539523D01*
X134019967Y-42615714D01*
X133981872Y-42653809D01*
X133905681Y-42691904D01*
X133829491Y-42691904D01*
X133753300Y-42653809D01*
X133715205Y-42615714D01*
X133677110Y-42539523D01*
X133639014Y-42387142D01*
X133639014Y-42196666D01*
X133677110Y-42044285D01*
X133715205Y-41968095D01*
X133753300Y-41930000D01*
X133829491Y-41891904D01*
X135010443Y-41853809D02*
X134324729Y-42882380D01*
X135277110Y-42691904D02*
X135277110Y-41891904D01*
X135467586Y-41891904D01*
X135581872Y-41930000D01*
X135658062Y-42006190D01*
X135696157Y-42082380D01*
X135734252Y-42234761D01*
X135734252Y-42349047D01*
X135696157Y-42501428D01*
X135658062Y-42577619D01*
X135581872Y-42653809D01*
X135467586Y-42691904D01*
X135277110Y-42691904D01*
X136000919Y-41891904D02*
X136496157Y-41891904D01*
X136229491Y-42196666D01*
X136343776Y-42196666D01*
X136419967Y-42234761D01*
X136458062Y-42272857D01*
X136496157Y-42349047D01*
X136496157Y-42539523D01*
X136458062Y-42615714D01*
X136419967Y-42653809D01*
X136343776Y-42691904D01*
X136115205Y-42691904D01*
X136039014Y-42653809D01*
X136000919Y-42615714D01*
X125082333Y-52432857D02*
X124815666Y-52432857D01*
X124815666Y-52851904D02*
X124815666Y-52051904D01*
X125196619Y-52051904D01*
X125844238Y-52318571D02*
X125844238Y-52851904D01*
X125653761Y-52013809D02*
X125463285Y-52585238D01*
X125958523Y-52585238D01*
X125082333Y-60052857D02*
X124815666Y-60052857D01*
X124815666Y-60471904D02*
X124815666Y-59671904D01*
X125196619Y-59671904D01*
X125425190Y-59671904D02*
X125958523Y-59671904D01*
X125615666Y-60471904D01*
D12*
%TO.C,D-0-0*%
X5139005Y-70279327D02*
X4609725Y-67277633D01*
D10*
X7274302Y-69472276D02*
X5107724Y-69854302D01*
D12*
X7390275Y-69882367D02*
X5139005Y-70279327D01*
D10*
X7210550Y-69686602D02*
X7309031Y-69669237D01*
X5072995Y-69657340D02*
X7239572Y-69275314D01*
D12*
X6860995Y-66880673D02*
X7390275Y-69882367D01*
X4609725Y-67277633D02*
X6860995Y-66880673D01*
D10*
X5142454Y-70051263D02*
X7210550Y-69686602D01*
X7309031Y-69669237D02*
X7210550Y-69686602D01*
%TO.C,D-0-1*%
X29571193Y-66379982D02*
X29670220Y-66366065D01*
D12*
X27056024Y-63881713D02*
X29319777Y-63563564D01*
D10*
X29642385Y-66168011D02*
X27463796Y-66474192D01*
X29670220Y-66366065D02*
X29571193Y-66379982D01*
X27491630Y-66672246D02*
X29571193Y-66379982D01*
D12*
X29743976Y-66581901D02*
X27480223Y-66900050D01*
D10*
X27435961Y-66276139D02*
X29614551Y-65969958D01*
D12*
X29319777Y-63563564D02*
X29743976Y-66581901D01*
X27480223Y-66900050D02*
X27056024Y-63881713D01*
%TO.C,D-0-2*%
X50507437Y-47894873D02*
X50826040Y-50926175D01*
D10*
X48571913Y-50937860D02*
X50660409Y-50718350D01*
D12*
X48552563Y-51165127D02*
X48233960Y-48133825D01*
D10*
X48530102Y-50540051D02*
X50718050Y-50310088D01*
X50738955Y-50508993D02*
X48551007Y-50738955D01*
D12*
X48233960Y-48133825D02*
X50507437Y-47894873D01*
D10*
X50759861Y-50707897D02*
X50660409Y-50718350D01*
X50660409Y-50718350D02*
X50759861Y-50707897D01*
D12*
X50826040Y-50926175D02*
X48552563Y-51165127D01*
D10*
%TO.C,D-0-3*%
X71383363Y-46768166D02*
X73478247Y-46621678D01*
X73564053Y-46415189D02*
X71369412Y-46568654D01*
X73478247Y-46621678D02*
X73578004Y-46614702D01*
D12*
X73636525Y-46835157D02*
X71356093Y-46994620D01*
X71143475Y-43954045D02*
X73423907Y-43794582D01*
D10*
X73578004Y-46614702D02*
X73478247Y-46621678D01*
D12*
X73423907Y-43794582D02*
X73636525Y-46835157D01*
D10*
X71355460Y-46369141D02*
X73550101Y-46215677D01*
D12*
X71356093Y-46994620D02*
X71143475Y-43954045D01*
%TO.C,D-0-4*%
X96895491Y-48419330D02*
X94610883Y-48499111D01*
D10*
X96744760Y-48200458D02*
X96844699Y-48196968D01*
X94632080Y-47873990D02*
X96830739Y-47797211D01*
D12*
X94610883Y-48499111D02*
X94504509Y-45452968D01*
X96789117Y-45373187D02*
X96895491Y-48419330D01*
D10*
X96844699Y-48196968D02*
X96744760Y-48200458D01*
D12*
X94504509Y-45452968D02*
X96789117Y-45373187D01*
D10*
X94646039Y-48273747D02*
X96744760Y-48200458D01*
X96837719Y-47997089D02*
X94639060Y-48073868D01*
D12*
%TO.C,D-0-5*%
X116967000Y-48006000D02*
X119253000Y-48006000D01*
X116967000Y-51054000D02*
X116967000Y-48006000D01*
D10*
X119110000Y-50830000D02*
X119210000Y-50830000D01*
X117010000Y-50430000D02*
X119210000Y-50430000D01*
D12*
X119253000Y-51054000D02*
X116967000Y-51054000D01*
D10*
X119210000Y-50630000D02*
X117010000Y-50630000D01*
X119210000Y-50830000D02*
X119110000Y-50830000D01*
X117010000Y-50830000D02*
X119110000Y-50830000D01*
D12*
X119253000Y-48006000D02*
X119253000Y-51054000D01*
D10*
%TO.C,D-1-0*%
X10474302Y-88220606D02*
X8307724Y-88602632D01*
X8272995Y-88405670D02*
X10439572Y-88023644D01*
D12*
X10590275Y-88630697D02*
X8339005Y-89027657D01*
D10*
X10509031Y-88417567D02*
X10410550Y-88434932D01*
D12*
X10060995Y-85629003D02*
X10590275Y-88630697D01*
D10*
X8342454Y-88799593D02*
X10410550Y-88434932D01*
D12*
X8339005Y-89027657D02*
X7809725Y-86025963D01*
D10*
X10410550Y-88434932D02*
X10509031Y-88417567D01*
D12*
X7809725Y-86025963D02*
X10060995Y-85629003D01*
D10*
%TO.C,D-1-1*%
X32271193Y-85067840D02*
X32370220Y-85053923D01*
D12*
X30180223Y-85587908D02*
X29756024Y-82569571D01*
D10*
X32342385Y-84855869D02*
X30163796Y-85162050D01*
D12*
X32019777Y-82251422D02*
X32443976Y-85269759D01*
D10*
X32370220Y-85053923D02*
X32271193Y-85067840D01*
X30135961Y-84963997D02*
X32314551Y-84657816D01*
X30191630Y-85360104D02*
X32271193Y-85067840D01*
D12*
X32443976Y-85269759D02*
X30180223Y-85587908D01*
X29756024Y-82569571D02*
X32019777Y-82251422D01*
D10*
%TO.C,D-1-2*%
X52630409Y-69768350D02*
X52729861Y-69757897D01*
X50500102Y-69590051D02*
X52688050Y-69360088D01*
X52708955Y-69558993D02*
X50521007Y-69788955D01*
D12*
X50522563Y-70215127D02*
X50203960Y-67183825D01*
X52796040Y-69976175D02*
X50522563Y-70215127D01*
X52477437Y-66944873D02*
X52796040Y-69976175D01*
D10*
X50541913Y-69987860D02*
X52630409Y-69768350D01*
D12*
X50203960Y-67183825D02*
X52477437Y-66944873D01*
D10*
X52729861Y-69757897D02*
X52630409Y-69768350D01*
%TO.C,D-1-3*%
X74848004Y-65618297D02*
X74748247Y-65625273D01*
D12*
X72626093Y-65998215D02*
X72413475Y-62957640D01*
X74693907Y-62798177D02*
X74906525Y-65838752D01*
D10*
X74834053Y-65418784D02*
X72639412Y-65572249D01*
D12*
X72413475Y-62957640D02*
X74693907Y-62798177D01*
X74906525Y-65838752D02*
X72626093Y-65998215D01*
D10*
X74748247Y-65625273D02*
X74848004Y-65618297D01*
X72625460Y-65372736D02*
X74820101Y-65219272D01*
X72653363Y-65771761D02*
X74748247Y-65625273D01*
D12*
%TO.C,D-1-4*%
X97389117Y-64411583D02*
X97495491Y-67457726D01*
D10*
X95246039Y-67312143D02*
X97344760Y-67238854D01*
X97437719Y-67035485D02*
X95239060Y-67112264D01*
D12*
X95210883Y-67537507D02*
X95104509Y-64491364D01*
D10*
X95232080Y-66912386D02*
X97430739Y-66835607D01*
D12*
X97495491Y-67457726D02*
X95210883Y-67537507D01*
D10*
X97344760Y-67238854D02*
X97444699Y-67235364D01*
X97444699Y-67235364D02*
X97344760Y-67238854D01*
D12*
X95104509Y-64491364D02*
X97389117Y-64411583D01*
D10*
%TO.C,D-1-5*%
X119110000Y-69880000D02*
X119210000Y-69880000D01*
X119210000Y-69880000D02*
X119110000Y-69880000D01*
X117010000Y-69480000D02*
X119210000Y-69480000D01*
D12*
X119253000Y-67056000D02*
X119253000Y-70104000D01*
X116967000Y-67056000D02*
X119253000Y-67056000D01*
D10*
X119210000Y-69680000D02*
X117010000Y-69680000D01*
X117010000Y-69880000D02*
X119110000Y-69880000D01*
D12*
X116967000Y-70104000D02*
X116967000Y-67056000D01*
X119253000Y-70104000D02*
X116967000Y-70104000D01*
%TO.C,D-2-0*%
X11439005Y-107109327D02*
X10909725Y-104107633D01*
D10*
X13510550Y-106516602D02*
X13609031Y-106499237D01*
X11442454Y-106881263D02*
X13510550Y-106516602D01*
X13574302Y-106302276D02*
X11407724Y-106684302D01*
D12*
X13690275Y-106712367D02*
X11439005Y-107109327D01*
X10909725Y-104107633D02*
X13160995Y-103710673D01*
X13160995Y-103710673D02*
X13690275Y-106712367D01*
D10*
X11372995Y-106487340D02*
X13539572Y-106105314D01*
X13609031Y-106499237D02*
X13510550Y-106516602D01*
%TO.C,D-2-1*%
X32435961Y-103828604D02*
X34614551Y-103522423D01*
X34670220Y-103918530D02*
X34571193Y-103932447D01*
D12*
X32480223Y-104452515D02*
X32056024Y-101434178D01*
D10*
X32491630Y-104224711D02*
X34571193Y-103932447D01*
X34642385Y-103720476D02*
X32463796Y-104026657D01*
D12*
X34319777Y-101116029D02*
X34743976Y-104134366D01*
X32056024Y-101434178D02*
X34319777Y-101116029D01*
D10*
X34571193Y-103932447D02*
X34670220Y-103918530D01*
D12*
X34743976Y-104134366D02*
X32480223Y-104452515D01*
D10*
%TO.C,D-2-2*%
X54548955Y-88608993D02*
X52361007Y-88838955D01*
D12*
X52362563Y-89265127D02*
X52043960Y-86233825D01*
D10*
X54569861Y-88807897D02*
X54470409Y-88818350D01*
D12*
X54636040Y-89026175D02*
X52362563Y-89265127D01*
X54317437Y-85994873D02*
X54636040Y-89026175D01*
D10*
X52381913Y-89037860D02*
X54470409Y-88818350D01*
X52340102Y-88640051D02*
X54528050Y-88410088D01*
X54470409Y-88818350D02*
X54569861Y-88807897D01*
D12*
X52043960Y-86233825D02*
X54317437Y-85994873D01*
D10*
%TO.C,D-2-3*%
X73923363Y-84775356D02*
X76018247Y-84628868D01*
D12*
X75963907Y-81801772D02*
X76176525Y-84842347D01*
X73896093Y-85001810D02*
X73683475Y-81961235D01*
D10*
X76104053Y-84422379D02*
X73909412Y-84575844D01*
X73895460Y-84376331D02*
X76090101Y-84222867D01*
X76118004Y-84621892D02*
X76018247Y-84628868D01*
X76018247Y-84628868D02*
X76118004Y-84621892D01*
D12*
X73683475Y-81961235D02*
X75963907Y-81801772D01*
X76176525Y-84842347D02*
X73896093Y-85001810D01*
%TO.C,D-2-4*%
X98295491Y-87765347D02*
X96010883Y-87845128D01*
D10*
X98144760Y-87546475D02*
X98244699Y-87542985D01*
X98244699Y-87542985D02*
X98144760Y-87546475D01*
X96032080Y-87220007D02*
X98230739Y-87143228D01*
D12*
X98189117Y-84719204D02*
X98295491Y-87765347D01*
D10*
X96046039Y-87619764D02*
X98144760Y-87546475D01*
D12*
X96010883Y-87845128D02*
X95904509Y-84798985D01*
D10*
X98237719Y-87343106D02*
X96039060Y-87419885D01*
D12*
X95904509Y-84798985D02*
X98189117Y-84719204D01*
D10*
%TO.C,D-2-5*%
X119110000Y-88930000D02*
X119210000Y-88930000D01*
D12*
X119253000Y-89154000D02*
X116967000Y-89154000D01*
D10*
X119210000Y-88930000D02*
X119110000Y-88930000D01*
X117010000Y-88930000D02*
X119110000Y-88930000D01*
D12*
X116967000Y-89154000D02*
X116967000Y-86106000D01*
X116967000Y-86106000D02*
X119253000Y-86106000D01*
D10*
X119210000Y-88730000D02*
X117010000Y-88730000D01*
X117010000Y-88530000D02*
X119210000Y-88530000D01*
D12*
X119253000Y-86106000D02*
X119253000Y-89154000D01*
%TO.C,D-3-3*%
X98689117Y-109778896D02*
X96404509Y-109699115D01*
D10*
X98660940Y-109353653D02*
X96462281Y-109276874D01*
X96469261Y-109076996D02*
X98667920Y-109153775D01*
X98653961Y-109553532D02*
X98554021Y-109550042D01*
X98554021Y-109550042D02*
X98653961Y-109553532D01*
D12*
X96404509Y-109699115D02*
X96510883Y-106652972D01*
X96510883Y-106652972D02*
X98795491Y-106732753D01*
D10*
X96455301Y-109476753D02*
X98554021Y-109550042D01*
D12*
X98795491Y-106732753D02*
X98689117Y-109778896D01*
%TO.C,D-3-4*%
X115822563Y-108854873D02*
X118096040Y-109093825D01*
D10*
X117758087Y-111897860D02*
X117658635Y-111887407D01*
X117658635Y-111887407D02*
X117758087Y-111897860D01*
X117778993Y-111698955D02*
X115591045Y-111468993D01*
X115611950Y-111270088D02*
X117799898Y-111500051D01*
D12*
X115503960Y-111886175D02*
X115822563Y-108854873D01*
D10*
X115570139Y-111667897D02*
X117658635Y-111887407D01*
D12*
X118096040Y-109093825D02*
X117777437Y-112125127D01*
X117777437Y-112125127D02*
X115503960Y-111886175D01*
%TO.C,D-3-5*%
X137890275Y-112997633D02*
X137360995Y-115999327D01*
D10*
X137259065Y-115753898D02*
X137357546Y-115771263D01*
X135260428Y-114995314D02*
X137427005Y-115377340D01*
D12*
X135639005Y-112600673D02*
X137890275Y-112997633D01*
D10*
X135190969Y-115389237D02*
X137259065Y-115753898D01*
D12*
X137360995Y-115999327D02*
X135109725Y-115602367D01*
D10*
X137357546Y-115771263D02*
X137259065Y-115753898D01*
D12*
X135109725Y-115602367D02*
X135639005Y-112600673D01*
D10*
X137392276Y-115574302D02*
X135225698Y-115192276D01*
%TO.C,D-0-0-B1*%
X277439673Y-69666175D02*
X277341192Y-69648810D01*
D12*
X275191852Y-69497279D02*
X275721132Y-66495585D01*
X277972402Y-66892545D02*
X277443122Y-69894239D01*
D10*
X277341192Y-69648810D02*
X277439673Y-69666175D01*
D12*
X277443122Y-69894239D02*
X275191852Y-69497279D01*
D10*
X277474403Y-69469214D02*
X275307825Y-69087188D01*
D12*
X275721132Y-66495585D02*
X277972402Y-66892545D01*
D10*
X275342555Y-68890226D02*
X277509132Y-69272252D01*
X275273096Y-69284149D02*
X277341192Y-69648810D01*
%TO.C,D-0-1-B1*%
X252867576Y-65222072D02*
X255046166Y-65528253D01*
D12*
X253162350Y-62815678D02*
X255426103Y-63133827D01*
D10*
X254891470Y-65910443D02*
X254990497Y-65924360D01*
D12*
X252738151Y-65834015D02*
X253162350Y-62815678D01*
X255426103Y-63133827D02*
X255001904Y-66152164D01*
X255001904Y-66152164D02*
X252738151Y-65834015D01*
D10*
X255018331Y-65726306D02*
X252839742Y-65420125D01*
X254990497Y-65924360D02*
X254891470Y-65910443D01*
X252811907Y-65618179D02*
X254891470Y-65910443D01*
%TO.C,D-0-2-B1*%
X231552266Y-51057014D02*
X233640762Y-51276524D01*
X233761120Y-51088072D02*
X231573172Y-50858110D01*
X233740214Y-51286977D02*
X233640762Y-51276524D01*
X231594077Y-50659205D02*
X233782025Y-50889168D01*
X233640762Y-51276524D02*
X233740214Y-51286977D01*
D12*
X231804690Y-48243990D02*
X234078167Y-48482942D01*
X233759564Y-51514244D02*
X231486087Y-51275292D01*
X234078167Y-48482942D02*
X233759564Y-51514244D01*
X231486087Y-51275292D02*
X231804690Y-48243990D01*
D10*
%TO.C,D-0-3-B1*%
X210888764Y-47214881D02*
X210789008Y-47207906D01*
X208694123Y-47061417D02*
X210789008Y-47207906D01*
D12*
X211128652Y-44400760D02*
X210916034Y-47441335D01*
D10*
X210789008Y-47207906D02*
X210888764Y-47214881D01*
D12*
X208635602Y-47281872D02*
X208848220Y-44241297D01*
D10*
X208722026Y-46662392D02*
X210916667Y-46815856D01*
D12*
X210916034Y-47441335D02*
X208635602Y-47281872D01*
X208848220Y-44241297D02*
X211128652Y-44400760D01*
D10*
X210902715Y-47015369D02*
X208708074Y-46861904D01*
%TO.C,D-0-4-B1*%
X187743067Y-48204759D02*
X185544408Y-48127980D01*
X187636148Y-48401148D02*
X187736088Y-48404638D01*
D12*
X185593010Y-45504078D02*
X187877618Y-45583859D01*
X187771244Y-48630002D02*
X185486636Y-48550221D01*
D10*
X185551388Y-47928102D02*
X187750047Y-48004881D01*
X187736088Y-48404638D02*
X187636148Y-48401148D01*
X185537428Y-48327859D02*
X187636148Y-48401148D01*
D12*
X185486636Y-48550221D02*
X185593010Y-45504078D01*
X187877618Y-45583859D02*
X187771244Y-48630002D01*
D10*
%TO.C,D-0-5-B1*%
X163482127Y-50430000D02*
X165682127Y-50430000D01*
D12*
X165725127Y-51054000D02*
X163439127Y-51054000D01*
D10*
X163482127Y-50830000D02*
X165582127Y-50830000D01*
X165682127Y-50830000D02*
X165582127Y-50830000D01*
D12*
X165725127Y-48006000D02*
X165725127Y-51054000D01*
D10*
X165682127Y-50630000D02*
X163482127Y-50630000D01*
D12*
X163439127Y-48006000D02*
X165725127Y-48006000D01*
D10*
X165582127Y-50830000D02*
X165682127Y-50830000D01*
D12*
X163439127Y-51054000D02*
X163439127Y-48006000D01*
%TO.C,D-1-0-B1*%
X274672402Y-85653130D02*
X274143122Y-88654824D01*
X272421132Y-85256170D02*
X274672402Y-85653130D01*
D10*
X271973096Y-88044734D02*
X274041192Y-88409395D01*
X272042555Y-87650811D02*
X274209132Y-88032837D01*
X274174403Y-88229799D02*
X272007825Y-87847773D01*
D12*
X274143122Y-88654824D02*
X271891852Y-88257864D01*
D10*
X274041192Y-88409395D02*
X274139673Y-88426760D01*
X274139673Y-88426760D02*
X274041192Y-88409395D01*
D12*
X271891852Y-88257864D02*
X272421132Y-85256170D01*
D10*
%TO.C,D-1-1-B1*%
X250011907Y-85752786D02*
X252091470Y-86045050D01*
D12*
X252201904Y-86286771D02*
X249938151Y-85968622D01*
D10*
X252091470Y-86045050D02*
X252190497Y-86058967D01*
D12*
X252626103Y-83268434D02*
X252201904Y-86286771D01*
D10*
X252190497Y-86058967D02*
X252091470Y-86045050D01*
D12*
X250362350Y-82950285D02*
X252626103Y-83268434D01*
X249938151Y-85968622D02*
X250362350Y-82950285D01*
D10*
X252218331Y-85860913D02*
X250039742Y-85554732D01*
X250067576Y-85356679D02*
X252246166Y-85662860D01*
D12*
%TO.C,D-1-2-B1*%
X229804690Y-67189632D02*
X232078167Y-67428584D01*
X232078167Y-67428584D02*
X231759564Y-70459886D01*
D10*
X231761120Y-70033714D02*
X229573172Y-69803752D01*
X229552266Y-70002656D02*
X231640762Y-70222166D01*
X229594077Y-69604847D02*
X231782025Y-69834810D01*
X231640762Y-70222166D02*
X231740214Y-70232619D01*
D12*
X231759564Y-70459886D02*
X229486087Y-70220934D01*
X229486087Y-70220934D02*
X229804690Y-67189632D01*
D10*
X231740214Y-70232619D02*
X231640762Y-70222166D01*
D12*
%TO.C,D-1-3-B1*%
X207448220Y-63244893D02*
X209728652Y-63404356D01*
D10*
X209488764Y-66218477D02*
X209389008Y-66211502D01*
D12*
X209516034Y-66444931D02*
X207235602Y-66285468D01*
D10*
X207294123Y-66065013D02*
X209389008Y-66211502D01*
X209389008Y-66211502D02*
X209488764Y-66218477D01*
X207322026Y-65665988D02*
X209516667Y-65819452D01*
D12*
X207235602Y-66285468D02*
X207448220Y-63244893D01*
X209728652Y-63404356D02*
X209516034Y-66444931D01*
D10*
X209502715Y-66018965D02*
X207308074Y-65865500D01*
D12*
%TO.C,D-1-4-B1*%
X184893010Y-64542473D02*
X187177618Y-64622254D01*
D10*
X187036088Y-67443033D02*
X186936148Y-67439543D01*
D12*
X187177618Y-64622254D02*
X187071244Y-67668397D01*
X187071244Y-67668397D02*
X184786636Y-67588616D01*
D10*
X184837428Y-67366254D02*
X186936148Y-67439543D01*
X187043067Y-67243154D02*
X184844408Y-67166375D01*
X184851388Y-66966497D02*
X187050047Y-67043276D01*
D12*
X184786636Y-67588616D02*
X184893010Y-64542473D01*
D10*
X186936148Y-67439543D02*
X187036088Y-67443033D01*
%TO.C,D-1-5-B1*%
X165682127Y-69680000D02*
X163482127Y-69680000D01*
D12*
X163439127Y-70104000D02*
X163439127Y-67056000D01*
D10*
X163482127Y-69880000D02*
X165582127Y-69880000D01*
X165682127Y-69880000D02*
X165582127Y-69880000D01*
D12*
X165725127Y-70104000D02*
X163439127Y-70104000D01*
X163439127Y-67056000D02*
X165725127Y-67056000D01*
D10*
X165582127Y-69880000D02*
X165682127Y-69880000D01*
X163482127Y-69480000D02*
X165682127Y-69480000D01*
D12*
X165725127Y-67056000D02*
X165725127Y-70104000D01*
D10*
%TO.C,D-2-0-B1*%
X270774403Y-106990388D02*
X268607825Y-106608362D01*
X270641192Y-107169984D02*
X270739673Y-107187349D01*
D12*
X270743122Y-107415413D02*
X268491852Y-107018453D01*
D10*
X270739673Y-107187349D02*
X270641192Y-107169984D01*
X268642555Y-106411400D02*
X270809132Y-106793426D01*
D12*
X271272402Y-104413719D02*
X270743122Y-107415413D01*
D10*
X268573096Y-106805323D02*
X270641192Y-107169984D01*
D12*
X269021132Y-104016759D02*
X271272402Y-104413719D01*
X268491852Y-107018453D02*
X269021132Y-104016759D01*
D10*
%TO.C,D-2-1-B1*%
X249591470Y-103639656D02*
X249690497Y-103653573D01*
X249690497Y-103653573D02*
X249591470Y-103639656D01*
X247567576Y-102951285D02*
X249746166Y-103257466D01*
D12*
X247862350Y-100544891D02*
X250126103Y-100863040D01*
X247438151Y-103563228D02*
X247862350Y-100544891D01*
D10*
X249718331Y-103455519D02*
X247539742Y-103149338D01*
D12*
X249701904Y-103881377D02*
X247438151Y-103563228D01*
X250126103Y-100863040D02*
X249701904Y-103881377D01*
D10*
X247511907Y-103347392D02*
X249591470Y-103639656D01*
D12*
%TO.C,D-2-2-B1*%
X227804690Y-86135273D02*
X230078167Y-86374225D01*
D10*
X229740214Y-89178260D02*
X229640762Y-89167807D01*
X227594077Y-88550488D02*
X229782025Y-88780451D01*
X229761120Y-88979355D02*
X227573172Y-88749393D01*
X227552266Y-88948297D02*
X229640762Y-89167807D01*
X229640762Y-89167807D02*
X229740214Y-89178260D01*
D12*
X230078167Y-86374225D02*
X229759564Y-89405527D01*
X229759564Y-89405527D02*
X227486087Y-89166575D01*
X227486087Y-89166575D02*
X227804690Y-86135273D01*
%TO.C,D-2-3-B1*%
X206248220Y-82248488D02*
X208528652Y-82407951D01*
D10*
X208288764Y-85222072D02*
X208189008Y-85215097D01*
D12*
X208528652Y-82407951D02*
X208316034Y-85448526D01*
D10*
X208189008Y-85215097D02*
X208288764Y-85222072D01*
X206122026Y-84669583D02*
X208316667Y-84823047D01*
X206094123Y-85068608D02*
X208189008Y-85215097D01*
X208302715Y-85022560D02*
X206108074Y-84869095D01*
D12*
X208316034Y-85448526D02*
X206035602Y-85289063D01*
X206035602Y-85289063D02*
X206248220Y-82248488D01*
%TO.C,D-2-4-B1*%
X184186636Y-86627012D02*
X184293010Y-83580869D01*
D10*
X186336148Y-86477939D02*
X186436088Y-86481429D01*
D12*
X184293010Y-83580869D02*
X186577618Y-83660650D01*
D10*
X184251388Y-86004893D02*
X186450047Y-86081672D01*
X186436088Y-86481429D02*
X186336148Y-86477939D01*
D12*
X186471244Y-86706793D02*
X184186636Y-86627012D01*
X186577618Y-83660650D02*
X186471244Y-86706793D01*
D10*
X186443067Y-86281550D02*
X184244408Y-86204771D01*
X184237428Y-86404650D02*
X186336148Y-86477939D01*
D12*
%TO.C,D-2-5-B1*%
X163439127Y-86106000D02*
X165725127Y-86106000D01*
X165725127Y-89154000D02*
X163439127Y-89154000D01*
D10*
X163482127Y-88530000D02*
X165682127Y-88530000D01*
X163482127Y-88930000D02*
X165582127Y-88930000D01*
X165682127Y-88930000D02*
X165582127Y-88930000D01*
X165582127Y-88930000D02*
X165682127Y-88930000D01*
D12*
X165725127Y-86106000D02*
X165725127Y-89154000D01*
X163439127Y-89154000D02*
X163439127Y-86106000D01*
D10*
X165682127Y-88730000D02*
X163482127Y-88730000D01*
D12*
%TO.C,D-3-3-B1*%
X183886636Y-107039916D02*
X186171244Y-106960135D01*
D10*
X186226826Y-109783916D02*
X186126887Y-109787406D01*
X184014207Y-109460938D02*
X186212866Y-109384159D01*
D12*
X186277618Y-110006278D02*
X183993010Y-110086059D01*
X186171244Y-106960135D02*
X186277618Y-110006278D01*
D10*
X184028166Y-109860695D02*
X186126887Y-109787406D01*
X186219846Y-109584037D02*
X184021187Y-109660816D01*
D12*
X183993010Y-110086059D02*
X183886636Y-107039916D01*
D10*
X186126887Y-109787406D02*
X186226826Y-109783916D01*
D12*
%TO.C,D-3-4-B1*%
X164196087Y-109093825D02*
X166469564Y-108854873D01*
X166469564Y-108854873D02*
X166788167Y-111886175D01*
D10*
X166721988Y-111667897D02*
X166622536Y-111678350D01*
X164534040Y-111897860D02*
X166622536Y-111678350D01*
D12*
X166788167Y-111886175D02*
X164514690Y-112125127D01*
D10*
X166701082Y-111468993D02*
X164513134Y-111698955D01*
X166622536Y-111678350D02*
X166721988Y-111667897D01*
X164492229Y-111500051D02*
X166680177Y-111270088D01*
D12*
X164514690Y-112125127D02*
X164196087Y-109093825D01*
%TO.C,D-3-5-B1*%
X145021132Y-115999327D02*
X144491852Y-112997633D01*
X147272402Y-115602367D02*
X145021132Y-115999327D01*
X144491852Y-112997633D02*
X146743122Y-112600673D01*
D10*
X147191158Y-115389237D02*
X147092677Y-115406602D01*
D12*
X146743122Y-112600673D02*
X147272402Y-115602367D01*
D10*
X145024581Y-115771263D02*
X147092677Y-115406602D01*
X144955122Y-115377340D02*
X147121699Y-114995314D01*
X147156429Y-115192276D02*
X144989851Y-115574302D01*
X147092677Y-115406602D02*
X147191158Y-115389237D01*
D12*
%TO.C,J1*%
X129080260Y-92369640D02*
X127581660Y-92369640D01*
X129268220Y-84455000D02*
X129268220Y-85725000D01*
X127581660Y-87970360D02*
X129080260Y-87970360D01*
X127581660Y-80070960D02*
X136479280Y-80070960D01*
X127581660Y-100269040D02*
X127581660Y-92369640D01*
X127581660Y-92369640D02*
X127581660Y-87970360D01*
X136578340Y-80070960D02*
X136578340Y-100269040D01*
X129306320Y-84455000D02*
X129306320Y-85725000D01*
X136578340Y-100269040D02*
X127581660Y-100269040D01*
X129080260Y-87970360D02*
X129080260Y-92369640D01*
X127581660Y-87970360D02*
X127581660Y-80070960D01*
%TO.C,J2*%
X145753787Y-100269040D02*
X145753787Y-92369640D01*
X154750467Y-100269040D02*
X145753787Y-100269040D01*
X145753787Y-87970360D02*
X145753787Y-80070960D01*
X147478447Y-84455000D02*
X147478447Y-85725000D01*
X147440347Y-84455000D02*
X147440347Y-85725000D01*
X145753787Y-80070960D02*
X154651407Y-80070960D01*
X145753787Y-87970360D02*
X147252387Y-87970360D01*
X147252387Y-87970360D02*
X147252387Y-92369640D01*
X147252387Y-92369640D02*
X145753787Y-92369640D01*
X154750467Y-80070960D02*
X154750467Y-100269040D01*
X145753787Y-92369640D02*
X145753787Y-87970360D01*
D13*
%TO.C,U1*%
X137160000Y-43600000D02*
X139700000Y-43600000D01*
X139700000Y-71540000D02*
X121920000Y-71540000D01*
X121920000Y-38520000D02*
X139700000Y-38520000D01*
X137160000Y-41060000D02*
X137160000Y-43600000D01*
X137160000Y-41060000D02*
X139700000Y-41060000D01*
X139700000Y-38520000D02*
X139700000Y-71540000D01*
X121920000Y-71540000D02*
X121920000Y-38520000D01*
D10*
X124565365Y-46949030D02*
X124565365Y-47749030D01*
X124565365Y-47749030D02*
X124465365Y-47749030D01*
X124465365Y-47749030D02*
X124465365Y-46949030D01*
X124465365Y-46949030D02*
X124565365Y-46949030D01*
G36*
X124565365Y-47749030D02*
G01*
X124465365Y-47749030D01*
X124465365Y-46949030D01*
X124565365Y-46949030D01*
X124565365Y-47749030D01*
G37*
X124565365Y-47749030D02*
X124465365Y-47749030D01*
X124465365Y-46949030D01*
X124565365Y-46949030D01*
X124565365Y-47749030D01*
X124965365Y-46949030D02*
X124965365Y-47049030D01*
X124965365Y-47049030D02*
X124465365Y-47049030D01*
X124465365Y-47049030D02*
X124465365Y-46949030D01*
X124465365Y-46949030D02*
X124965365Y-46949030D01*
G36*
X124965365Y-47049030D02*
G01*
X124465365Y-47049030D01*
X124465365Y-46949030D01*
X124965365Y-46949030D01*
X124965365Y-47049030D01*
G37*
X124965365Y-47049030D02*
X124465365Y-47049030D01*
X124465365Y-46949030D01*
X124965365Y-46949030D01*
X124965365Y-47049030D01*
X124765365Y-47349030D02*
X124765365Y-47449030D01*
X124765365Y-47449030D02*
X124665365Y-47449030D01*
X124665365Y-47449030D02*
X124665365Y-47349030D01*
X124665365Y-47349030D02*
X124765365Y-47349030D01*
G36*
X124765365Y-47449030D02*
G01*
X124665365Y-47449030D01*
X124665365Y-47349030D01*
X124765365Y-47349030D01*
X124765365Y-47449030D01*
G37*
X124765365Y-47449030D02*
X124665365Y-47449030D01*
X124665365Y-47349030D01*
X124765365Y-47349030D01*
X124765365Y-47449030D01*
X124965365Y-47549030D02*
X124965365Y-47749030D01*
X124965365Y-47749030D02*
X124865365Y-47749030D01*
X124865365Y-47749030D02*
X124865365Y-47549030D01*
X124865365Y-47549030D02*
X124965365Y-47549030D01*
G36*
X124965365Y-47749030D02*
G01*
X124865365Y-47749030D01*
X124865365Y-47549030D01*
X124965365Y-47549030D01*
X124965365Y-47749030D01*
G37*
X124965365Y-47749030D02*
X124865365Y-47749030D01*
X124865365Y-47549030D01*
X124965365Y-47549030D01*
X124965365Y-47749030D01*
X124965365Y-46949030D02*
X124965365Y-47249030D01*
X124965365Y-47249030D02*
X124865365Y-47249030D01*
X124865365Y-47249030D02*
X124865365Y-46949030D01*
X124865365Y-46949030D02*
X124965365Y-46949030D01*
G36*
X124965365Y-47249030D02*
G01*
X124865365Y-47249030D01*
X124865365Y-46949030D01*
X124965365Y-46949030D01*
X124965365Y-47249030D01*
G37*
X124965365Y-47249030D02*
X124865365Y-47249030D01*
X124865365Y-46949030D01*
X124965365Y-46949030D01*
X124965365Y-47249030D01*
%TD*%
D14*
%TO.C,U1*%
X138430000Y-42330000D03*
D15*
X138430000Y-44870000D03*
X138430000Y-47410000D03*
X138430000Y-49950000D03*
X138430000Y-52490000D03*
X138430000Y-55030000D03*
X138430000Y-57570000D03*
X138430000Y-60110000D03*
X138430000Y-62650000D03*
X138430000Y-65190000D03*
X138430000Y-67730000D03*
X138430000Y-70270000D03*
X123190000Y-70270000D03*
X123190000Y-67730000D03*
X123190000Y-65190000D03*
X123190000Y-62650000D03*
X123190000Y-60110000D03*
X123190000Y-57570000D03*
X123190000Y-55030000D03*
X123190000Y-52490000D03*
X123190000Y-49950000D03*
X123190000Y-47410000D03*
X123190000Y-44870000D03*
X123190000Y-42330000D03*
%TD*%
M02*
