%TF.GenerationSoftware,KiCad,Pcbnew,(6.0.0-0)*%
%TF.CreationDate,2022-01-05T09:56:10+07:00*%
%TF.ProjectId,kibod-01,6b69626f-642d-4303-912e-6b696361645f,rev?*%
%TF.SameCoordinates,Original*%
%TF.FileFunction,Copper,L1,Top*%
%TF.FilePolarity,Positive*%
%FSLAX46Y46*%
G04 Gerber Fmt 4.6, Leading zero omitted, Abs format (unit mm)*
G04 Created by KiCad (PCBNEW (6.0.0-0)) date 2022-01-05 09:56:10*
%MOMM*%
%LPD*%
G01*
G04 APERTURE LIST*
G04 Aperture macros list*
%AMRotRect*
0 Rectangle, with rotation*
0 The origin of the aperture is its center*
0 $1 length*
0 $2 width*
0 $3 Rotation angle, in degrees counterclockwise*
0 Add horizontal line*
21,1,$1,$2,0,0,$3*%
G04 Aperture macros list end*
%TA.AperFunction,ComponentPad*%
%ADD10RotRect,1.651000X1.651000X10.000000*%
%TD*%
%TA.AperFunction,ComponentPad*%
%ADD11C,1.651000*%
%TD*%
%TA.AperFunction,ComponentPad*%
%ADD12RotRect,1.651000X1.651000X8.000000*%
%TD*%
%TA.AperFunction,ComponentPad*%
%ADD13RotRect,1.651000X1.651000X6.000000*%
%TD*%
%TA.AperFunction,ComponentPad*%
%ADD14RotRect,1.651000X1.651000X4.000000*%
%TD*%
%TA.AperFunction,ComponentPad*%
%ADD15RotRect,1.651000X1.651000X2.000000*%
%TD*%
%TA.AperFunction,ComponentPad*%
%ADD16R,1.651000X1.651000*%
%TD*%
%TA.AperFunction,ComponentPad*%
%ADD17RotRect,1.651000X1.651000X358.000000*%
%TD*%
%TA.AperFunction,ComponentPad*%
%ADD18RotRect,1.651000X1.651000X354.000000*%
%TD*%
%TA.AperFunction,ComponentPad*%
%ADD19RotRect,1.651000X1.651000X350.000000*%
%TD*%
%TA.AperFunction,ComponentPad*%
%ADD20C,2.200000*%
%TD*%
%TA.AperFunction,ComponentPad*%
%ADD21RotRect,1.651000X1.651000X352.000000*%
%TD*%
%TA.AperFunction,ComponentPad*%
%ADD22RotRect,1.651000X1.651000X356.000000*%
%TD*%
%TA.AperFunction,ComponentPad*%
%ADD23C,1.879600*%
%TD*%
%TA.AperFunction,ComponentPad*%
%ADD24R,1.752600X1.752600*%
%TD*%
%TA.AperFunction,ComponentPad*%
%ADD25C,1.752600*%
%TD*%
%TA.AperFunction,Conductor*%
%ADD26C,0.250000*%
%TD*%
G04 APERTURE END LIST*
D10*
%TO.P,D-0-0,1*%
%TO.N,RL0*%
X6661600Y-72332118D03*
D11*
%TO.P,D-0-0,2*%
%TO.N,Net-(D-0-0-Pad2)*%
X5338400Y-64827882D03*
%TD*%
D12*
%TO.P,D-0-1,1*%
%TO.N,RL0*%
X28930250Y-69004728D03*
D11*
%TO.P,D-0-1,2*%
%TO.N,Net-(D-0-1-Pad2)*%
X27869750Y-61458886D03*
%TD*%
D13*
%TO.P,D-0-2,1*%
%TO.N,RL0*%
X49928253Y-53319128D03*
D11*
%TO.P,D-0-2,2*%
%TO.N,Net-(D-0-2-Pad2)*%
X49131747Y-45740872D03*
%TD*%
D14*
%TO.P,D-0-3,1*%
%TO.N,RL0*%
X72655772Y-49195320D03*
D11*
%TO.P,D-0-3,2*%
%TO.N,Net-(D-0-3-Pad2)*%
X72124228Y-41593882D03*
%TD*%
D15*
%TO.P,D-0-4,1*%
%TO.N,RL0*%
X95832967Y-50743828D03*
D11*
%TO.P,D-0-4,2*%
%TO.N,Net-(D-0-4-Pad2)*%
X95567033Y-43128470D03*
%TD*%
D16*
%TO.P,D-0-5,1*%
%TO.N,RL0*%
X118110000Y-53340000D03*
D11*
%TO.P,D-0-5,2*%
%TO.N,Net-(D-0-5-Pad2)*%
X118110000Y-45720000D03*
%TD*%
D10*
%TO.P,D-1-0,1*%
%TO.N,RL1*%
X9861600Y-91080448D03*
D11*
%TO.P,D-1-0,2*%
%TO.N,Net-(D-1-0-Pad2)*%
X8538400Y-83576212D03*
%TD*%
D12*
%TO.P,D-1-1,1*%
%TO.N,RL1*%
X31630250Y-87692586D03*
D11*
%TO.P,D-1-1,2*%
%TO.N,Net-(D-1-1-Pad2)*%
X30569750Y-80146744D03*
%TD*%
D13*
%TO.P,D-1-2,1*%
%TO.N,RL1*%
X51898253Y-72369128D03*
D11*
%TO.P,D-1-2,2*%
%TO.N,Net-(D-1-2-Pad2)*%
X51101747Y-64790872D03*
%TD*%
D14*
%TO.P,D-1-3,1*%
%TO.N,RL1*%
X73925772Y-68198915D03*
D11*
%TO.P,D-1-3,2*%
%TO.N,Net-(D-1-3-Pad2)*%
X73394228Y-60597477D03*
%TD*%
D15*
%TO.P,D-1-4,1*%
%TO.N,RL1*%
X96432967Y-69782224D03*
D11*
%TO.P,D-1-4,2*%
%TO.N,Net-(D-1-4-Pad2)*%
X96167033Y-62166866D03*
%TD*%
D16*
%TO.P,D-1-5,1*%
%TO.N,RL1*%
X118110000Y-72390000D03*
D11*
%TO.P,D-1-5,2*%
%TO.N,Net-(D-1-5-Pad2)*%
X118110000Y-64770000D03*
%TD*%
D10*
%TO.P,D-2-0,1*%
%TO.N,RL2*%
X12961600Y-109162118D03*
D11*
%TO.P,D-2-0,2*%
%TO.N,Net-(D-2-0-Pad2)*%
X11638400Y-101657882D03*
%TD*%
D12*
%TO.P,D-2-1,1*%
%TO.N,RL2*%
X33930250Y-106557193D03*
D11*
%TO.P,D-2-1,2*%
%TO.N,Net-(D-2-1-Pad2)*%
X32869750Y-99011351D03*
%TD*%
D13*
%TO.P,D-2-2,1*%
%TO.N,RL2*%
X53738253Y-91419128D03*
D11*
%TO.P,D-2-2,2*%
%TO.N,Net-(D-2-2-Pad2)*%
X52941747Y-83840872D03*
%TD*%
D14*
%TO.P,D-2-3,1*%
%TO.N,RL2*%
X75195772Y-87202510D03*
D11*
%TO.P,D-2-3,2*%
%TO.N,Net-(D-2-3-Pad2)*%
X74664228Y-79601072D03*
%TD*%
D15*
%TO.P,D-2-4,1*%
%TO.N,RL2*%
X97232967Y-90089845D03*
D11*
%TO.P,D-2-4,2*%
%TO.N,Net-(D-2-4-Pad2)*%
X96967033Y-82474487D03*
%TD*%
D16*
%TO.P,D-2-5,1*%
%TO.N,RL2*%
X118110000Y-91440000D03*
D11*
%TO.P,D-2-5,2*%
%TO.N,Net-(D-2-5-Pad2)*%
X118110000Y-83820000D03*
%TD*%
D17*
%TO.P,D-3-3,1*%
%TO.N,RL3*%
X97467033Y-112023613D03*
D11*
%TO.P,D-3-3,2*%
%TO.N,Net-(D-3-3-Pad2)*%
X97732967Y-104408255D03*
%TD*%
D18*
%TO.P,D-3-4,1*%
%TO.N,RL3*%
X116401747Y-114279128D03*
D11*
%TO.P,D-3-4,2*%
%TO.N,Net-(D-3-4-Pad2)*%
X117198253Y-106700872D03*
%TD*%
D19*
%TO.P,D-3-5,1*%
%TO.N,RL3*%
X135838400Y-118052118D03*
D11*
%TO.P,D-3-5,2*%
%TO.N,Net-(D-3-5-Pad2)*%
X137161600Y-110547882D03*
%TD*%
D20*
%TO.P,K-0-0,1*%
%TO.N,CL0*%
X-6619807Y-67220951D03*
%TO.P,K-0-0,2*%
%TO.N,Net-(D-0-0-Pad2)*%
X-1048766Y-64695177D03*
%TD*%
%TO.P,K-0-1,1*%
%TO.N,CL1*%
X15917974Y-62956879D03*
%TO.P,K-0-1,2*%
%TO.N,Net-(D-0-1-Pad2)*%
X21573769Y-60627071D03*
%TD*%
%TO.P,K-0-2,1*%
%TO.N,CL2*%
X37277365Y-47912208D03*
%TO.P,K-0-2,2*%
%TO.N,Net-(D-0-2-Pad2)*%
X43011024Y-45781203D03*
%TD*%
%TO.P,K-0-3,1*%
%TO.N,CL3*%
X60220189Y-43436938D03*
%TO.P,K-0-3,2*%
%TO.N,Net-(D-0-3-Pad2)*%
X66024726Y-41507334D03*
%TD*%
%TO.P,K-0-4,1*%
%TO.N,CL4*%
X83526483Y-44228122D03*
%TO.P,K-0-4,2*%
%TO.N,Net-(D-0-4-Pad2)*%
X89394826Y-42502268D03*
%TD*%
%TO.P,K-0-5,1*%
%TO.N,CL5*%
X105815000Y-46260000D03*
%TO.P,K-0-5,2*%
%TO.N,Net-(D-0-5-Pad2)*%
X111740000Y-44740000D03*
%TD*%
%TO.P,K-1-0,1*%
%TO.N,CL0*%
X-3311810Y-85870182D03*
%TO.P,K-1-0,2*%
%TO.N,Net-(D-1-0-Pad2)*%
X2259231Y-83344408D03*
%TD*%
%TO.P,K-1-1,1*%
%TO.N,CL1*%
X18569219Y-81821485D03*
%TO.P,K-1-1,2*%
%TO.N,Net-(D-1-1-Pad2)*%
X24225014Y-79491677D03*
%TD*%
%TO.P,K-1-2,1*%
%TO.N,CL2*%
X39268630Y-66857851D03*
%TO.P,K-1-2,2*%
%TO.N,Net-(D-1-2-Pad2)*%
X45002289Y-64726846D03*
%TD*%
%TO.P,K-1-3,1*%
%TO.N,CL3*%
X61549049Y-62440532D03*
%TO.P,K-1-3,2*%
%TO.N,Net-(D-1-3-Pad2)*%
X67353586Y-60510928D03*
%TD*%
%TO.P,K-1-4,1*%
%TO.N,CL4*%
X84191318Y-63266517D03*
%TO.P,K-1-4,2*%
%TO.N,Net-(D-1-4-Pad2)*%
X90059661Y-61540663D03*
%TD*%
%TO.P,K-1-5,1*%
%TO.N,CL5*%
X105815000Y-65310000D03*
%TO.P,K-1-5,2*%
%TO.N,Net-(D-1-5-Pad2)*%
X111740000Y-63790000D03*
%TD*%
%TO.P,K-2-0,1*%
%TO.N,CL0*%
X-3812Y-104630770D03*
%TO.P,K-2-0,2*%
%TO.N,Net-(D-2-0-Pad2)*%
X5567229Y-102104996D03*
%TD*%
%TO.P,K-2-1,1*%
%TO.N,CL1*%
X21220469Y-100686092D03*
%TO.P,K-2-1,2*%
%TO.N,Net-(D-2-1-Pad2)*%
X26876264Y-98356284D03*
%TD*%
%TO.P,K-2-2,1*%
%TO.N,CL2*%
X41259898Y-85803491D03*
%TO.P,K-2-2,2*%
%TO.N,Net-(D-2-2-Pad2)*%
X46993557Y-83672486D03*
%TD*%
%TO.P,K-2-3,1*%
%TO.N,CL3*%
X62877910Y-81444128D03*
%TO.P,K-2-3,2*%
%TO.N,Net-(D-2-3-Pad2)*%
X68682447Y-79514524D03*
%TD*%
%TO.P,K-2-4,1*%
%TO.N,CL4*%
X84856153Y-82304912D03*
%TO.P,K-2-4,2*%
%TO.N,Net-(D-2-4-Pad2)*%
X90724496Y-80579058D03*
%TD*%
%TO.P,K-2-5,1*%
%TO.N,CL5*%
X105815000Y-84360000D03*
%TO.P,K-2-5,2*%
%TO.N,Net-(D-2-5-Pad2)*%
X111740000Y-82840000D03*
%TD*%
%TO.P,K-3-3,1*%
%TO.N,CL3*%
X85611969Y-104563159D03*
%TO.P,K-3-3,2*%
%TO.N,Net-(D-3-3-Pad2)*%
X91586406Y-103250865D03*
%TD*%
%TO.P,K-3-4,1*%
%TO.N,CL4*%
X105382744Y-105611994D03*
%TO.P,K-3-4,2*%
%TO.N,Net-(D-3-4-Pad2)*%
X111434170Y-104719652D03*
%TD*%
%TO.P,K-3-5,1*%
%TO.N,CL5*%
X125484559Y-108035810D03*
%TO.P,K-3-5,2*%
%TO.N,Net-(D-3-5-Pad2)*%
X131583490Y-107567767D03*
%TD*%
D19*
%TO.P,D-0-0-B1,1*%
%TO.N,RR0*%
X275920527Y-71947030D03*
D11*
%TO.P,D-0-0-B1,2*%
%TO.N,Net-(D-0-0-B1-Pad2)*%
X277243727Y-64442794D03*
%TD*%
D21*
%TO.P,D-0-1-B1,1*%
%TO.N,RR0*%
X253551877Y-68256842D03*
D11*
%TO.P,D-0-1-B1,2*%
%TO.N,Net-(D-0-1-B1-Pad2)*%
X254612377Y-60711000D03*
%TD*%
D18*
%TO.P,D-0-2-B1,1*%
%TO.N,RR0*%
X232383874Y-53668245D03*
D11*
%TO.P,D-0-2-B1,2*%
%TO.N,Net-(D-0-2-B1-Pad2)*%
X233180380Y-46089989D03*
%TD*%
D22*
%TO.P,D-0-3-B1,1*%
%TO.N,RR0*%
X209616355Y-49642035D03*
D11*
%TO.P,D-0-3-B1,2*%
%TO.N,Net-(D-0-3-B1-Pad2)*%
X210147899Y-42040597D03*
%TD*%
D17*
%TO.P,D-0-4-B1,1*%
%TO.N,RR0*%
X186549160Y-50874719D03*
D11*
%TO.P,D-0-4-B1,2*%
%TO.N,Net-(D-0-4-B1-Pad2)*%
X186815094Y-43259361D03*
%TD*%
D16*
%TO.P,D-0-5-B1,1*%
%TO.N,RR0*%
X164582127Y-53340000D03*
D11*
%TO.P,D-0-5-B1,2*%
%TO.N,Net-(D-0-5-B1-Pad2)*%
X164582127Y-45720000D03*
%TD*%
D19*
%TO.P,D-1-0-B1,1*%
%TO.N,RR1*%
X272620527Y-90707615D03*
D11*
%TO.P,D-1-0-B1,2*%
%TO.N,Net-(D-1-0-B1-Pad2)*%
X273943727Y-83203379D03*
%TD*%
D21*
%TO.P,D-1-1-B1,1*%
%TO.N,RR1*%
X250751877Y-88391449D03*
D11*
%TO.P,D-1-1-B1,2*%
%TO.N,Net-(D-1-1-B1-Pad2)*%
X251812377Y-80845607D03*
%TD*%
D18*
%TO.P,D-1-2-B1,1*%
%TO.N,RR1*%
X230383874Y-72613887D03*
D11*
%TO.P,D-1-2-B1,2*%
%TO.N,Net-(D-1-2-B1-Pad2)*%
X231180380Y-65035631D03*
%TD*%
D22*
%TO.P,D-1-3-B1,1*%
%TO.N,RR1*%
X208216355Y-68645631D03*
D11*
%TO.P,D-1-3-B1,2*%
%TO.N,Net-(D-1-3-B1-Pad2)*%
X208747899Y-61044193D03*
%TD*%
D17*
%TO.P,D-1-4-B1,1*%
%TO.N,RR1*%
X185849160Y-69913114D03*
D11*
%TO.P,D-1-4-B1,2*%
%TO.N,Net-(D-1-4-B1-Pad2)*%
X186115094Y-62297756D03*
%TD*%
D16*
%TO.P,D-1-5-B1,1*%
%TO.N,RR1*%
X164582127Y-72390000D03*
D11*
%TO.P,D-1-5-B1,2*%
%TO.N,Net-(D-1-5-B1-Pad2)*%
X164582127Y-64770000D03*
%TD*%
D19*
%TO.P,D-2-0-B1,1*%
%TO.N,RR2*%
X269220527Y-109468204D03*
D11*
%TO.P,D-2-0-B1,2*%
%TO.N,Net-(D-2-0-B1-Pad2)*%
X270543727Y-101963968D03*
%TD*%
D21*
%TO.P,D-2-1-B1,1*%
%TO.N,RR2*%
X248251877Y-105986055D03*
D11*
%TO.P,D-2-1-B1,2*%
%TO.N,Net-(D-2-1-B1-Pad2)*%
X249312377Y-98440213D03*
%TD*%
D18*
%TO.P,D-2-2-B1,1*%
%TO.N,RR2*%
X228383874Y-91559528D03*
D11*
%TO.P,D-2-2-B1,2*%
%TO.N,Net-(D-2-2-B1-Pad2)*%
X229180380Y-83981272D03*
%TD*%
D22*
%TO.P,D-2-3-B1,1*%
%TO.N,RR2*%
X207016355Y-87649226D03*
D11*
%TO.P,D-2-3-B1,2*%
%TO.N,Net-(D-2-3-B1-Pad2)*%
X207547899Y-80047788D03*
%TD*%
D17*
%TO.P,D-2-4-B1,1*%
%TO.N,RR2*%
X185249160Y-88951510D03*
D11*
%TO.P,D-2-4-B1,2*%
%TO.N,Net-(D-2-4-B1-Pad2)*%
X185515094Y-81336152D03*
%TD*%
D16*
%TO.P,D-2-5-B1,1*%
%TO.N,RR2*%
X164582127Y-91440000D03*
D11*
%TO.P,D-2-5-B1,2*%
%TO.N,Net-(D-2-5-B1-Pad2)*%
X164582127Y-83820000D03*
%TD*%
D15*
%TO.P,D-3-3-B1,1*%
%TO.N,RR3*%
X185215094Y-112330776D03*
D11*
%TO.P,D-3-3-B1,2*%
%TO.N,Net-(D-3-3-B1-Pad2)*%
X184949160Y-104715418D03*
%TD*%
D13*
%TO.P,D-3-4-B1,1*%
%TO.N,RR3*%
X165890380Y-114279128D03*
D11*
%TO.P,D-3-4-B1,2*%
%TO.N,Net-(D-3-4-B1-Pad2)*%
X165093874Y-106700872D03*
%TD*%
D10*
%TO.P,D-3-5-B1,1*%
%TO.N,RR3*%
X146543727Y-118052118D03*
D11*
%TO.P,D-3-5-B1,2*%
%TO.N,Net-(D-3-5-B1-Pad2)*%
X145220527Y-110547882D03*
%TD*%
D23*
%TO.P,J1,1*%
%TO.N,CL5*%
X130810000Y-85090000D03*
%TO.P,J1,2*%
%TO.N,RC3*%
X133350000Y-85090000D03*
%TO.P,J1,3*%
%TO.N,CL4*%
X130810000Y-87630000D03*
%TO.P,J1,4*%
%TO.N,RC2*%
X133350000Y-87630000D03*
%TO.P,J1,5*%
%TO.N,CL3*%
X130810000Y-90170000D03*
%TO.P,J1,6*%
%TO.N,RC1*%
X133350000Y-90170000D03*
%TO.P,J1,7*%
%TO.N,CL2*%
X130810000Y-92710000D03*
%TO.P,J1,8*%
%TO.N,RC0*%
X133350000Y-92710000D03*
%TO.P,J1,9*%
%TO.N,CL1*%
X130810000Y-95250000D03*
%TO.P,J1,10*%
%TO.N,CL0*%
X133350000Y-95250000D03*
%TD*%
%TO.P,J2,1*%
%TO.N,CR5*%
X148982127Y-85090000D03*
%TO.P,J2,2*%
%TO.N,RR3*%
X151522127Y-85090000D03*
%TO.P,J2,3*%
%TO.N,CR4*%
X148982127Y-87630000D03*
%TO.P,J2,4*%
%TO.N,RR2*%
X151522127Y-87630000D03*
%TO.P,J2,5*%
%TO.N,CR3*%
X148982127Y-90170000D03*
%TO.P,J2,6*%
%TO.N,RR1*%
X151522127Y-90170000D03*
%TO.P,J2,7*%
%TO.N,CR2*%
X148982127Y-92710000D03*
%TO.P,J2,8*%
%TO.N,RR0*%
X151522127Y-92710000D03*
%TO.P,J2,9*%
%TO.N,CR1*%
X148982127Y-95250000D03*
%TO.P,J2,10*%
%TO.N,CL0*%
X151522127Y-95250000D03*
%TD*%
D20*
%TO.P,K-0-0-B1,1*%
%TO.N,Net-(D-0-0-B1-Pad2)*%
X282257125Y-66038407D03*
%TO.P,K-0-0-B1,2*%
%TO.N,CL0*%
X288356056Y-65570364D03*
%TD*%
%TO.P,K-0-1-B1,1*%
%TO.N,Net-(D-0-1-B1-Pad2)*%
X259682159Y-62009110D03*
%TO.P,K-0-1-B1,2*%
%TO.N,CR1*%
X265761041Y-61328503D03*
%TD*%
%TO.P,K-0-2-B1,1*%
%TO.N,Net-(D-0-2-B1-Pad2)*%
X238293800Y-47200369D03*
%TO.P,K-0-2-B1,2*%
%TO.N,CR2*%
X244345226Y-46308027D03*
%TD*%
%TO.P,K-0-3-B1,1*%
%TO.N,Net-(D-0-3-B1-Pad2)*%
X215330259Y-42961897D03*
%TO.P,K-0-3-B1,2*%
%TO.N,CR3*%
X221346856Y-41858907D03*
%TD*%
%TO.P,K-0-4-B1,1*%
%TO.N,Net-(D-0-4-B1-Pad2)*%
X192011525Y-43990456D03*
%TO.P,K-0-4-B1,2*%
%TO.N,CR4*%
X197985962Y-42678162D03*
%TD*%
%TO.P,K-0-5-B1,1*%
%TO.N,Net-(D-0-5-B1-Pad2)*%
X169707127Y-46260000D03*
%TO.P,K-0-5-B1,2*%
%TO.N,CR5*%
X175632127Y-44740000D03*
%TD*%
%TO.P,K-1-0-B1,1*%
%TO.N,Net-(D-1-0-B1-Pad2)*%
X278949127Y-84687638D03*
%TO.P,K-1-0-B1,2*%
%TO.N,CL0*%
X285048058Y-84219595D03*
%TD*%
%TO.P,K-1-1-B1,1*%
%TO.N,Net-(D-1-1-B1-Pad2)*%
X257030913Y-80873716D03*
%TO.P,K-1-1-B1,2*%
%TO.N,CR1*%
X263109795Y-80193109D03*
%TD*%
%TO.P,K-1-2-B1,1*%
%TO.N,Net-(D-1-2-B1-Pad2)*%
X236302534Y-66146012D03*
%TO.P,K-1-2-B1,2*%
%TO.N,CR2*%
X242353960Y-65253670D03*
%TD*%
%TO.P,K-1-3-B1,1*%
%TO.N,Net-(D-1-3-B1-Pad2)*%
X214001398Y-61965491D03*
%TO.P,K-1-3-B1,2*%
%TO.N,CR3*%
X220017995Y-60862501D03*
%TD*%
%TO.P,K-1-4-B1,1*%
%TO.N,Net-(D-1-4-B1-Pad2)*%
X191346689Y-63028851D03*
%TO.P,K-1-4-B1,2*%
%TO.N,CR4*%
X197321126Y-61716557D03*
%TD*%
%TO.P,K-1-5-B1,1*%
%TO.N,Net-(D-1-5-B1-Pad2)*%
X169707127Y-65310000D03*
%TO.P,K-1-5-B1,2*%
%TO.N,CR5*%
X175632127Y-63790000D03*
%TD*%
%TO.P,K-2-0-B1,1*%
%TO.N,Net-(D-2-0-B1-Pad2)*%
X275641129Y-103448226D03*
%TO.P,K-2-0-B1,2*%
%TO.N,CL0*%
X281740060Y-102980183D03*
%TD*%
%TO.P,K-2-1-B1,1*%
%TO.N,Net-(D-2-1-B1-Pad2)*%
X254379663Y-99738323D03*
%TO.P,K-2-1-B1,2*%
%TO.N,CR1*%
X260458545Y-99057716D03*
%TD*%
%TO.P,K-2-2-B1,1*%
%TO.N,Net-(D-2-2-B1-Pad2)*%
X234311266Y-85091652D03*
%TO.P,K-2-2-B1,2*%
%TO.N,CR2*%
X240362692Y-84199310D03*
%TD*%
%TO.P,K-2-3-B1,1*%
%TO.N,Net-(D-2-3-B1-Pad2)*%
X212672537Y-80969087D03*
%TO.P,K-2-3-B1,2*%
%TO.N,CR3*%
X218689134Y-79866097D03*
%TD*%
%TO.P,K-2-4-B1,1*%
%TO.N,Net-(D-2-4-B1-Pad2)*%
X190681854Y-82067246D03*
%TO.P,K-2-4-B1,2*%
%TO.N,CR4*%
X196656291Y-80754952D03*
%TD*%
%TO.P,K-2-5-B1,1*%
%TO.N,Net-(D-2-5-B1-Pad2)*%
X169707127Y-84360000D03*
%TO.P,K-2-5-B1,2*%
%TO.N,CR5*%
X175632127Y-82840000D03*
%TD*%
%TO.P,K-3-3-B1,1*%
%TO.N,Net-(D-3-3-B1-Pad2)*%
X190097012Y-104800825D03*
%TO.P,K-3-3-B1,2*%
%TO.N,CR3*%
X195965355Y-103074971D03*
%TD*%
%TO.P,K-3-4-B1,1*%
%TO.N,Net-(D-3-4-B1-Pad2)*%
X170176689Y-106323833D03*
%TO.P,K-3-4-B1,2*%
%TO.N,CR4*%
X175910348Y-104192828D03*
%TD*%
%TO.P,K-3-5-B1,1*%
%TO.N,Net-(D-3-5-B1-Pad2)*%
X150141027Y-109218354D03*
%TO.P,K-3-5-B1,2*%
%TO.N,CR5*%
X155712068Y-106692580D03*
%TD*%
D24*
%TO.P,U1,1*%
%TO.N,N/C*%
X138430000Y-42330000D03*
D25*
%TO.P,U1,2*%
X138430000Y-44870000D03*
%TO.P,U1,3*%
X138430000Y-47410000D03*
%TO.P,U1,4*%
X138430000Y-49950000D03*
%TO.P,U1,5*%
X138430000Y-52490000D03*
%TO.P,U1,6*%
X138430000Y-55030000D03*
%TO.P,U1,7*%
%TO.N,CL0*%
X138430000Y-57570000D03*
%TO.P,U1,8*%
%TO.N,CL1*%
X138430000Y-60110000D03*
%TO.P,U1,9*%
%TO.N,CL2*%
X138430000Y-62650000D03*
%TO.P,U1,10*%
%TO.N,CL3*%
X138430000Y-65190000D03*
%TO.P,U1,11*%
%TO.N,CL4*%
X138430000Y-67730000D03*
%TO.P,U1,12*%
%TO.N,CL5*%
X138430000Y-70270000D03*
%TO.P,U1,13*%
%TO.N,RC3*%
X123190000Y-70270000D03*
%TO.P,U1,14*%
%TO.N,RC2*%
X123190000Y-67730000D03*
%TO.P,U1,15*%
%TO.N,RC1*%
X123190000Y-65190000D03*
%TO.P,U1,16*%
%TO.N,RC0*%
X123190000Y-62650000D03*
%TO.P,U1,17*%
%TO.N,RL3*%
X123190000Y-60110000D03*
%TO.P,U1,18*%
%TO.N,RL2*%
X123190000Y-57570000D03*
%TO.P,U1,19*%
%TO.N,RL1*%
X123190000Y-55030000D03*
%TO.P,U1,20*%
%TO.N,RL0*%
X123190000Y-52490000D03*
%TO.P,U1,21*%
%TO.N,N/C*%
X123190000Y-49950000D03*
%TO.P,U1,22*%
X123190000Y-47410000D03*
%TO.P,U1,23*%
X123190000Y-44870000D03*
%TO.P,U1,24*%
X123190000Y-42330000D03*
%TD*%
D26*
%TO.N,RL1*%
X31630250Y-87692586D02*
X46953708Y-72369128D01*
X46953708Y-72369128D02*
X51898253Y-72369128D01*
X9861600Y-91080448D02*
X28242388Y-91080448D01*
X28242388Y-91080448D02*
X31630250Y-87692586D01*
%TO.N,CR3*%
X172729960Y-100320040D02*
X175008577Y-100320040D01*
X157862166Y-100320039D02*
X172729960Y-100320040D01*
X157862166Y-100320039D02*
X179949039Y-100320039D01*
X179949039Y-100320039D02*
X194427039Y-100320039D01*
X172729960Y-100320040D02*
X179949039Y-100320039D01*
X195965355Y-101858355D02*
X194427039Y-100320039D01*
X195965355Y-103074971D02*
X195965355Y-101858355D01*
%TO.N,RL0*%
X72655772Y-49195320D02*
X74204280Y-50743828D01*
X74204280Y-50743828D02*
X95832967Y-50743828D01*
X6661600Y-72332118D02*
X25602860Y-72332118D01*
X25602860Y-72332118D02*
X28930250Y-69004728D01*
X49928253Y-53319128D02*
X68531964Y-53319128D01*
X68531964Y-53319128D02*
X72655772Y-49195320D01*
%TO.N,Net-(D-1-0-Pad2)*%
X2259231Y-83344408D02*
X8306596Y-83344408D01*
X8306596Y-83344408D02*
X8538400Y-83576212D01*
%TO.N,Net-(D-1-1-Pad2)*%
X24225014Y-79491677D02*
X29914683Y-79491677D01*
X29914683Y-79491677D02*
X30569750Y-80146744D01*
%TO.N,Net-(D-1-2-Pad2)*%
X45002289Y-64726846D02*
X51037721Y-64726846D01*
X51037721Y-64726846D02*
X51101747Y-64790872D01*
%TO.N,Net-(D-1-3-Pad2)*%
X67353586Y-60510928D02*
X73307679Y-60510928D01*
X73307679Y-60510928D02*
X73394228Y-60597477D01*
%TO.N,Net-(D-1-4-Pad2)*%
X90059661Y-61540663D02*
X95540830Y-61540663D01*
X95540830Y-61540663D02*
X96167033Y-62166866D01*
%TO.N,Net-(D-1-5-Pad2)*%
X111740000Y-63790000D02*
X117130000Y-63790000D01*
X117130000Y-63790000D02*
X118110000Y-64770000D01*
%TO.N,Net-(D-2-0-Pad2)*%
X11191286Y-102104996D02*
X11638400Y-101657882D01*
X5567229Y-102104996D02*
X11191286Y-102104996D01*
%TO.N,Net-(D-2-1-Pad2)*%
X32214683Y-98356284D02*
X32869750Y-99011351D01*
X26876264Y-98356284D02*
X32214683Y-98356284D01*
%TO.N,Net-(D-2-2-Pad2)*%
X46993557Y-83672486D02*
X52773361Y-83672486D01*
X52773361Y-83672486D02*
X52941747Y-83840872D01*
%TO.N,Net-(D-2-3-Pad2)*%
X68682447Y-79514524D02*
X74577680Y-79514524D01*
X74577680Y-79514524D02*
X74664228Y-79601072D01*
%TO.N,Net-(D-2-4-Pad2)*%
X95071604Y-80579058D02*
X96967033Y-82474487D01*
X90724496Y-80579058D02*
X95071604Y-80579058D01*
%TO.N,Net-(D-2-5-Pad2)*%
X111740000Y-82840000D02*
X117130000Y-82840000D01*
X117130000Y-82840000D02*
X118110000Y-83820000D01*
%TO.N,Net-(D-3-3-Pad2)*%
X91586406Y-103250865D02*
X96575577Y-103250865D01*
X96575577Y-103250865D02*
X97732967Y-104408255D01*
%TO.N,Net-(D-3-4-Pad2)*%
X115217033Y-104719652D02*
X117198253Y-106700872D01*
X111434170Y-104719652D02*
X115217033Y-104719652D01*
%TO.N,Net-(D-3-5-Pad2)*%
X131583490Y-107567767D02*
X134181485Y-107567767D01*
X134181485Y-107567767D02*
X137161600Y-110547882D01*
%TO.N,RL0*%
X72655772Y-49195320D02*
X72655772Y-49795772D01*
X98429139Y-53340000D02*
X95832967Y-50743828D01*
X44615850Y-53319128D02*
X28930250Y-69004728D01*
X49928253Y-53319128D02*
X44615850Y-53319128D01*
X118110000Y-53340000D02*
X98429139Y-53340000D01*
%TO.N,RR0*%
X186549160Y-50874719D02*
X208383671Y-50874719D01*
X208383671Y-50874719D02*
X209616355Y-49642035D01*
X164222127Y-53340000D02*
X164582127Y-53340000D01*
X232383874Y-53668245D02*
X213642565Y-53668245D01*
X164582127Y-53340000D02*
X184083879Y-53340000D01*
X213642565Y-53668245D02*
X209616355Y-49642035D01*
X184083879Y-53340000D02*
X186549160Y-50874719D01*
X238963280Y-53668245D02*
X253551877Y-68256842D01*
X257242065Y-71947030D02*
X253551877Y-68256842D01*
X275920527Y-71947030D02*
X257242065Y-71947030D01*
X232383874Y-53668245D02*
X238963280Y-53668245D01*
%TO.N,Net-(D-0-0-B1-Pad2)*%
X278839340Y-66038407D02*
X277243727Y-64442794D01*
X282257125Y-66038407D02*
X278839340Y-66038407D01*
%TO.N,Net-(D-0-1-B1-Pad2)*%
X259682159Y-62009110D02*
X255910487Y-62009110D01*
X255910487Y-62009110D02*
X254612377Y-60711000D01*
%TO.N,Net-(D-0-2-B1-Pad2)*%
X238293800Y-47200369D02*
X234290760Y-47200369D01*
X234290760Y-47200369D02*
X233180380Y-46089989D01*
%TO.N,Net-(D-0-3-B1-Pad2)*%
X211069199Y-42961897D02*
X210147899Y-42040597D01*
X215330259Y-42961897D02*
X211069199Y-42961897D01*
%TO.N,Net-(D-0-4-B1-Pad2)*%
X187546189Y-43990456D02*
X186815094Y-43259361D01*
X192011525Y-43990456D02*
X187546189Y-43990456D01*
%TO.N,Net-(D-0-5-B1-Pad2)*%
X169707127Y-46260000D02*
X165122127Y-46260000D01*
X165122127Y-46260000D02*
X164582127Y-45720000D01*
%TO.N,RL1*%
X75509081Y-69782224D02*
X96432967Y-69782224D01*
X51898253Y-72369128D02*
X69755559Y-72369128D01*
X96432967Y-69782224D02*
X99040743Y-72390000D01*
X99040743Y-72390000D02*
X118110000Y-72390000D01*
X9861600Y-91080448D02*
X9861600Y-91141600D01*
X69755559Y-72369128D02*
X73925772Y-68198915D01*
X73925772Y-68198915D02*
X75509081Y-69782224D01*
X31750000Y-87812336D02*
X31630250Y-87692586D01*
%TO.N,RR1*%
X230383874Y-72613887D02*
X212184611Y-72613887D01*
X206948872Y-69913114D02*
X208216355Y-68645631D01*
X251459242Y-90707615D02*
X253068043Y-90707615D01*
X272620527Y-90707615D02*
X253068043Y-90707615D01*
X212184611Y-72613887D02*
X208216355Y-68645631D01*
X248806396Y-88391449D02*
X250751877Y-88391449D01*
X250751877Y-88391449D02*
X250751877Y-90000250D01*
X185849160Y-69913114D02*
X206948872Y-69913114D01*
X164582127Y-72390000D02*
X183372274Y-72390000D01*
X233028834Y-72613887D02*
X248806396Y-88391449D01*
X250751877Y-90000250D02*
X251459242Y-90707615D01*
X230383874Y-72613887D02*
X233028834Y-72613887D01*
X183372274Y-72390000D02*
X185849160Y-69913114D01*
%TO.N,Net-(D-1-0-B1-Pad2)*%
X275427986Y-84687638D02*
X273943727Y-83203379D01*
X278949127Y-84687638D02*
X275427986Y-84687638D01*
%TO.N,Net-(D-1-1-B1-Pad2)*%
X257030913Y-80873716D02*
X251840486Y-80873716D01*
X251840486Y-80873716D02*
X251812377Y-80845607D01*
%TO.N,Net-(D-1-2-B1-Pad2)*%
X232290761Y-66146012D02*
X231180380Y-65035631D01*
X236302534Y-66146012D02*
X232290761Y-66146012D01*
%TO.N,Net-(D-1-3-B1-Pad2)*%
X214001398Y-61965491D02*
X209669197Y-61965491D01*
X209669197Y-61965491D02*
X208747899Y-61044193D01*
%TO.N,Net-(D-1-4-B1-Pad2)*%
X186846189Y-63028851D02*
X186115094Y-62297756D01*
X191346689Y-63028851D02*
X186846189Y-63028851D01*
%TO.N,Net-(D-1-5-B1-Pad2)*%
X165122127Y-65310000D02*
X164582127Y-64770000D01*
X169707127Y-65310000D02*
X165122127Y-65310000D01*
%TO.N,RL2*%
X12961600Y-109162118D02*
X31325325Y-109162118D01*
X33930250Y-106557193D02*
X33930250Y-101464762D01*
X43975884Y-91419128D02*
X53738253Y-91419128D01*
X33930250Y-101464762D02*
X43975884Y-91419128D01*
X78083107Y-90089845D02*
X75195772Y-87202510D01*
X118110000Y-91440000D02*
X98583122Y-91440000D01*
X75195772Y-87202510D02*
X57954871Y-87202510D01*
X31325325Y-109162118D02*
X33930250Y-106557193D01*
X97232967Y-90089845D02*
X78083107Y-90089845D01*
X98583122Y-91440000D02*
X97232967Y-90089845D01*
X57954871Y-87202510D02*
X53738253Y-91419128D01*
%TO.N,RR2*%
X182760670Y-91440000D02*
X164582127Y-91440000D01*
X228383874Y-91559528D02*
X210926657Y-91559528D01*
X238496643Y-91559528D02*
X228383874Y-91559528D01*
X210926657Y-91559528D02*
X207016355Y-87649226D01*
X248251877Y-101314762D02*
X238496643Y-91559528D01*
X248251877Y-105986055D02*
X248251877Y-101314762D01*
X251734026Y-109468204D02*
X248251877Y-105986055D01*
X185249160Y-88951510D02*
X205714071Y-88951510D01*
X185249160Y-88951510D02*
X182760670Y-91440000D01*
X205714071Y-88951510D02*
X207016355Y-87649226D01*
X269220527Y-109468204D02*
X251734026Y-109468204D01*
%TO.N,Net-(D-2-0-B1-Pad2)*%
X272027985Y-103448226D02*
X270543727Y-101963968D01*
X275641129Y-103448226D02*
X272027985Y-103448226D01*
%TO.N,Net-(D-2-1-B1-Pad2)*%
X254379663Y-99738323D02*
X250610487Y-99738323D01*
X250610487Y-99738323D02*
X249312377Y-98440213D01*
%TO.N,Net-(D-2-2-B1-Pad2)*%
X234311266Y-85091652D02*
X230290760Y-85091652D01*
X230290760Y-85091652D02*
X229180380Y-83981272D01*
%TO.N,Net-(D-2-3-B1-Pad2)*%
X208469198Y-80969087D02*
X207547899Y-80047788D01*
X212672537Y-80969087D02*
X208469198Y-80969087D01*
%TO.N,Net-(D-2-4-B1-Pad2)*%
X186246188Y-82067246D02*
X185515094Y-81336152D01*
X190681854Y-82067246D02*
X186246188Y-82067246D01*
%TO.N,Net-(D-2-5-B1-Pad2)*%
X165122127Y-84360000D02*
X164582127Y-83820000D01*
X169707127Y-84360000D02*
X165122127Y-84360000D01*
%TO.N,RL3*%
X135838400Y-118052118D02*
X120174737Y-118052118D01*
X120174737Y-118052118D02*
X116401747Y-114279128D01*
X116401747Y-114279128D02*
X99722548Y-114279128D01*
X99722548Y-114279128D02*
X97467033Y-112023613D01*
%TO.N,RR3*%
X154062127Y-107950000D02*
X155332127Y-109220000D01*
X154062127Y-101602820D02*
X154062127Y-107950000D01*
X160831252Y-109220000D02*
X165890380Y-114279128D01*
X153236938Y-86804811D02*
X153236938Y-100777631D01*
X155332127Y-109220000D02*
X160831252Y-109220000D01*
X151522127Y-85090000D02*
X153236938Y-86804811D01*
X153236938Y-100777631D02*
X154062127Y-101602820D01*
X165890380Y-114279128D02*
X183266742Y-114279128D01*
X146543727Y-118052118D02*
X162117390Y-118052118D01*
X162117390Y-118052118D02*
X165890380Y-114279128D01*
X183266742Y-114279128D02*
X185215094Y-112330776D01*
%TO.N,Net-(D-3-3-B1-Pad2)*%
X190097012Y-104800825D02*
X185034567Y-104800825D01*
X185034567Y-104800825D02*
X184949160Y-104715418D01*
%TO.N,Net-(D-3-4-B1-Pad2)*%
X170176689Y-106323833D02*
X165470913Y-106323833D01*
X165470913Y-106323833D02*
X165093874Y-106700872D01*
%TO.N,Net-(D-3-5-B1-Pad2)*%
X150141027Y-109218354D02*
X146550055Y-109218354D01*
X146550055Y-109218354D02*
X145220527Y-110547882D01*
%TO.N,CL0*%
X50657976Y-73660001D02*
X122340000Y-73660000D01*
X144976064Y-103066064D02*
X151522127Y-96520000D01*
X122340000Y-73660000D02*
X138430000Y-57570000D01*
X250936162Y-91157625D02*
X268079752Y-91157625D01*
X268079752Y-91157625D02*
X274120060Y-97197933D01*
X144822118Y-103220010D02*
X144976064Y-103066064D01*
X1726729Y-94793271D02*
X29511268Y-94793271D01*
X148380221Y-96520000D02*
X145917289Y-94057068D01*
X29517987Y-94799990D02*
X50657976Y-73660001D01*
X152602907Y-77019990D02*
X236798528Y-77019991D01*
X279285926Y-97197933D02*
X281740060Y-99652067D01*
X145917289Y-94057068D02*
X145917290Y-83705607D01*
X-3812Y-96523812D02*
X1726729Y-94793271D01*
X281740060Y-99652067D02*
X281740060Y-102980183D01*
X150252127Y-96520000D02*
X148380221Y-96520000D01*
X144822117Y-103220010D02*
X144976064Y-103066064D01*
X145917290Y-83705607D02*
X152602907Y-77019990D01*
X139555022Y-103220010D02*
X144822118Y-103220010D01*
X133350000Y-95250000D02*
X133350000Y-97014988D01*
X-3812Y-104630770D02*
X-3812Y-96523812D01*
X29511268Y-94793271D02*
X29517987Y-94799990D01*
X274120060Y-97197933D02*
X279285926Y-97197933D01*
X133350000Y-97014988D02*
X139555022Y-103220010D01*
X236798528Y-77019991D02*
X250936162Y-91157625D01*
X151522127Y-96520000D02*
X151522127Y-95250000D01*
X151522127Y-95250000D02*
X150252127Y-96520000D01*
%TO.N,CL1*%
X29704387Y-95250000D02*
X29210000Y-95250000D01*
X29203281Y-95243281D02*
X26663281Y-95243281D01*
X136526410Y-60110000D02*
X122526400Y-74110010D01*
X29210000Y-95250000D02*
X29203281Y-95243281D01*
X26663281Y-95243281D02*
X21220469Y-100686092D01*
X138430000Y-60110000D02*
X136526410Y-60110000D01*
X50844377Y-74110010D02*
X29704387Y-95250000D01*
X122526400Y-74110010D02*
X50844377Y-74110010D01*
%TO.N,CL2*%
X41259898Y-84470102D02*
X51169980Y-74560020D01*
X134730040Y-62650000D02*
X138430000Y-62650000D01*
X41259898Y-85803491D02*
X41259898Y-84470102D01*
X51169980Y-74560020D02*
X122820020Y-74560020D01*
X122820020Y-74560020D02*
X134730040Y-62650000D01*
%TO.N,CL3*%
X132930000Y-65190000D02*
X138430000Y-65190000D01*
X123109970Y-75010030D02*
X132930000Y-65190000D01*
X62877910Y-76902120D02*
X64770000Y-75010030D01*
X62877910Y-81444128D02*
X62877910Y-76902120D01*
X64770000Y-75010030D02*
X123109970Y-75010030D01*
%TO.N,CL4*%
X123296370Y-75460040D02*
X131026410Y-67730000D01*
X84856153Y-77703847D02*
X87099960Y-75460040D01*
X131026410Y-67730000D02*
X138430000Y-67730000D01*
X87099960Y-75460040D02*
X123296370Y-75460040D01*
X84856153Y-82304912D02*
X84856153Y-77703847D01*
%TO.N,CL5*%
X129122820Y-70270000D02*
X138430000Y-70270000D01*
X123482770Y-75910050D02*
X129122820Y-70270000D01*
X108239950Y-75910050D02*
X123482770Y-75910050D01*
X105815000Y-78335000D02*
X108239950Y-75910050D01*
X105815000Y-84360000D02*
X105815000Y-78335000D01*
%TO.N,CR1*%
X152789307Y-77470000D02*
X146367299Y-83892008D01*
X236612127Y-77470000D02*
X152789307Y-77470000D01*
X259639762Y-91607635D02*
X250749762Y-91607635D01*
X260458545Y-99057716D02*
X260458545Y-92426418D01*
X146367298Y-92635171D02*
X148982127Y-95250000D01*
X250749762Y-91607635D02*
X236612127Y-77470000D01*
X146367299Y-83892008D02*
X146367298Y-92635171D01*
X260458545Y-92426418D02*
X259639762Y-91607635D01*
%TO.N,CR2*%
X240362692Y-84199310D02*
X240362692Y-81856975D01*
X240362692Y-81856975D02*
X236425727Y-77920010D01*
X146817308Y-90545181D02*
X148982127Y-92710000D01*
X146817308Y-84078409D02*
X146817308Y-90545181D01*
X152975707Y-77920010D02*
X146817308Y-84078409D01*
X236425727Y-77920010D02*
X152975707Y-77920010D01*
%TO.N,CR3*%
X148982127Y-90170000D02*
X147267317Y-88455190D01*
X154586967Y-100218430D02*
X154688576Y-100320039D01*
X154586967Y-85010114D02*
X154586967Y-100218430D01*
X148612146Y-82919981D02*
X152496834Y-82919981D01*
X147267317Y-88455190D02*
X147267317Y-84264810D01*
X154688576Y-100320039D02*
X157862166Y-100320039D01*
X152496834Y-82919981D02*
X154586967Y-85010114D01*
X147267317Y-84264810D02*
X148612146Y-82919981D01*
%TO.N,CR4*%
X152310433Y-83369990D02*
X148830231Y-83369990D01*
X154136957Y-100404830D02*
X154136957Y-85196514D01*
X148830231Y-83369990D02*
X147717326Y-84482895D01*
X147717326Y-84482895D02*
X147717326Y-86365199D01*
X154502175Y-100770048D02*
X154136957Y-100404830D01*
X154136957Y-85196514D02*
X152310433Y-83369990D01*
X147717326Y-86365199D02*
X148982127Y-87630000D01*
X175910348Y-101858221D02*
X174822176Y-100770049D01*
X174822176Y-100770049D02*
X154502175Y-100770048D01*
X175910348Y-104192828D02*
X175910348Y-101858221D01*
%TO.N,CR5*%
X154512137Y-105492649D02*
X155712068Y-106692580D01*
X152124033Y-83820000D02*
X153686948Y-85382915D01*
X150252127Y-83820000D02*
X152124033Y-83820000D01*
X153686948Y-85382915D02*
X153686947Y-100591230D01*
X153686947Y-100591230D02*
X154512137Y-101416420D01*
X148982127Y-85090000D02*
X150252127Y-83820000D01*
X154512137Y-101416420D02*
X154512137Y-105492649D01*
%TO.N,Net-(D-0-0-Pad2)*%
X5205695Y-64695177D02*
X5338400Y-64827882D01*
X-1048766Y-64695177D02*
X5205695Y-64695177D01*
%TO.N,Net-(D-0-1-Pad2)*%
X21573769Y-60627071D02*
X27037935Y-60627071D01*
X27037935Y-60627071D02*
X27869750Y-61458886D01*
%TO.N,Net-(D-0-2-Pad2)*%
X43011024Y-45781203D02*
X49091416Y-45781203D01*
X49091416Y-45781203D02*
X49131747Y-45740872D01*
%TO.N,Net-(D-0-3-Pad2)*%
X66024726Y-41507334D02*
X72037680Y-41507334D01*
X72037680Y-41507334D02*
X72124228Y-41593882D01*
%TO.N,Net-(D-0-4-Pad2)*%
X94940831Y-42502268D02*
X95567033Y-43128470D01*
X89394826Y-42502268D02*
X94940831Y-42502268D01*
%TO.N,Net-(D-0-5-Pad2)*%
X111740000Y-44740000D02*
X117130000Y-44740000D01*
X117130000Y-44740000D02*
X118110000Y-45720000D01*
%TD*%
M02*
