%TF.GenerationSoftware,KiCad,Pcbnew,(6.0.0)*%
%TF.CreationDate,2022-02-12T20:48:13+07:00*%
%TF.ProjectId,Shrimp42-mirrored-rev2,53687269-6d70-4343-922d-6d6972726f72,rev?*%
%TF.SameCoordinates,Original*%
%TF.FileFunction,Legend,Bot*%
%TF.FilePolarity,Positive*%
%FSLAX46Y46*%
G04 Gerber Fmt 4.6, Leading zero omitted, Abs format (unit mm)*
G04 Created by KiCad (PCBNEW (6.0.0)) date 2022-02-12 20:48:13*
%MOMM*%
%LPD*%
G01*
G04 APERTURE LIST*
%ADD10C,0.200000*%
%ADD11C,0.400000*%
%ADD12C,0.150000*%
%ADD13C,0.381000*%
%ADD14C,0.203200*%
%ADD15R,1.752600X1.752600*%
%ADD16C,1.752600*%
G04 APERTURE END LIST*
D10*
X69641145Y-92628309D02*
X69991049Y-91681891D01*
X70212487Y-92638282D02*
X70247392Y-90638586D01*
X69866497Y-90631938D01*
X69769612Y-90725499D01*
X69720338Y-90819892D01*
X69669402Y-91009508D01*
X69664415Y-91295179D01*
X69708703Y-91486457D01*
X69754652Y-91582512D01*
X69848214Y-91679397D01*
X70229108Y-91686046D01*
X68833407Y-92518957D02*
X68926968Y-92615843D01*
X69117416Y-92619167D01*
X69214301Y-92525606D01*
X69265237Y-92335990D01*
X69278534Y-91574201D01*
X69234247Y-91382923D01*
X69140686Y-91286037D01*
X68950238Y-91282713D01*
X68853353Y-91376274D01*
X68802417Y-91565890D01*
X68799092Y-91756337D01*
X69271886Y-91955095D01*
X68474120Y-91274402D02*
X68212792Y-92603377D01*
X67998002Y-91266091D01*
X66911242Y-90770859D02*
X66865292Y-90674804D01*
X66771731Y-90577919D01*
X66533672Y-90573763D01*
X66436786Y-90667325D01*
X66387512Y-90761717D01*
X66336576Y-90951333D01*
X66333252Y-91141780D01*
X66375877Y-91428282D01*
X66927273Y-92580938D01*
X66308320Y-92570134D01*
D11*
X86087725Y-92630686D02*
X85798730Y-92816147D01*
X85322612Y-92807836D01*
X85135489Y-92614065D01*
X85043590Y-92421955D01*
X84955015Y-92039399D01*
X84961663Y-91658505D01*
X85063535Y-91279272D01*
X85162083Y-91090487D01*
X85355855Y-90903364D01*
X85740073Y-90719566D01*
X85933845Y-90532443D01*
X86032393Y-90343658D01*
X86134265Y-89964426D01*
X86140913Y-89583531D01*
X86052338Y-89200975D01*
X85960439Y-89008865D01*
X85773316Y-88815094D01*
X85297198Y-88806783D01*
X85008203Y-88992244D01*
X84084705Y-92786228D02*
X84154515Y-88786838D01*
X83227693Y-92771269D02*
X83264260Y-90676350D01*
X83366132Y-90297118D01*
X83559904Y-90109995D01*
X83845574Y-90114981D01*
X84032697Y-90308753D01*
X84124597Y-90500862D01*
X82275457Y-92754648D02*
X82321997Y-90088387D01*
X82308700Y-90850176D02*
X82220125Y-90467620D01*
X82128225Y-90275510D01*
X81941103Y-90081739D01*
X81750655Y-90078415D01*
X81037551Y-92733040D02*
X81084090Y-90066780D01*
X81107360Y-88733649D02*
X81199259Y-88925759D01*
X81100712Y-89114544D01*
X81008812Y-88922434D01*
X81107360Y-88733649D01*
X81100712Y-89114544D01*
X80085315Y-92716419D02*
X80131854Y-90050158D01*
X80125206Y-90431053D02*
X80033306Y-90238943D01*
X79846184Y-90045172D01*
X79560513Y-90040185D01*
X79366741Y-90227308D01*
X79264869Y-90606541D01*
X79228302Y-92701460D01*
X79264869Y-90606541D02*
X79176294Y-90223984D01*
X78989171Y-90030213D01*
X78703501Y-90025226D01*
X78509729Y-90212349D01*
X78407857Y-90591581D01*
X78371290Y-92686500D01*
X77465594Y-90003619D02*
X77395784Y-94003009D01*
X77462270Y-90194066D02*
X77275147Y-90000294D01*
X76894252Y-89993646D01*
X76700481Y-90180769D01*
X76601933Y-90369554D01*
X76500061Y-90748786D01*
X76480115Y-91891469D01*
X76568690Y-92274025D01*
X76660590Y-92466135D01*
X76847713Y-92659906D01*
X77228607Y-92666555D01*
X77422378Y-92479432D01*
X73275756Y-89930485D02*
X73229216Y-92596745D01*
X73778468Y-88415218D02*
X74204722Y-91280236D01*
X72966815Y-91258628D01*
X72340141Y-88961627D02*
X72248242Y-88769518D01*
X72061119Y-88575747D01*
X71585001Y-88567436D01*
X71391230Y-88754559D01*
X71292682Y-88943344D01*
X71190810Y-89322576D01*
X71184161Y-89703470D01*
X71269412Y-90276474D01*
X72372204Y-92581786D01*
X71134297Y-92560178D01*
D12*
X99619056Y-94856263D02*
X99619056Y-95665787D01*
X99666675Y-95761025D01*
X99714294Y-95808644D01*
X99809533Y-95856263D01*
X99952390Y-95856263D01*
X100047628Y-95808644D01*
X99619056Y-95475310D02*
X99714294Y-95522929D01*
X99904771Y-95522929D01*
X100000009Y-95475310D01*
X100047628Y-95427691D01*
X100095247Y-95332453D01*
X100095247Y-95046739D01*
X100047628Y-94951501D01*
X100000009Y-94903882D01*
X99904771Y-94856263D01*
X99714294Y-94856263D01*
X99619056Y-94903882D01*
X99142866Y-95522929D02*
X99142866Y-94856263D01*
X99142866Y-94522929D02*
X99190485Y-94570549D01*
X99142866Y-94618168D01*
X99095247Y-94570549D01*
X99142866Y-94522929D01*
X99142866Y-94618168D01*
X98809533Y-94856263D02*
X98428580Y-94856263D01*
X98666675Y-94522929D02*
X98666675Y-95380072D01*
X98619056Y-95475310D01*
X98523818Y-95522929D01*
X98428580Y-95522929D01*
X98095247Y-95522929D02*
X98095247Y-94522929D01*
X97666675Y-95522929D02*
X97666675Y-94999120D01*
X97714294Y-94903882D01*
X97809533Y-94856263D01*
X97952390Y-94856263D01*
X98047628Y-94903882D01*
X98095247Y-94951501D01*
X96761914Y-94856263D02*
X96761914Y-95522929D01*
X97190485Y-94856263D02*
X97190485Y-95380072D01*
X97142866Y-95475310D01*
X97047628Y-95522929D01*
X96904771Y-95522929D01*
X96809533Y-95475310D01*
X96761914Y-95427691D01*
X96285723Y-95522929D02*
X96285723Y-94522929D01*
X96285723Y-94903882D02*
X96190485Y-94856263D01*
X96000009Y-94856263D01*
X95904771Y-94903882D01*
X95857152Y-94951501D01*
X95809533Y-95046739D01*
X95809533Y-95332453D01*
X95857152Y-95427691D01*
X95904771Y-95475310D01*
X96000009Y-95522929D01*
X96190485Y-95522929D01*
X96285723Y-95475310D01*
X95380961Y-95427691D02*
X95333342Y-95475310D01*
X95380961Y-95522929D01*
X95428580Y-95475310D01*
X95380961Y-95427691D01*
X95380961Y-95522929D01*
X94476199Y-95475310D02*
X94571437Y-95522929D01*
X94761914Y-95522929D01*
X94857152Y-95475310D01*
X94904771Y-95427691D01*
X94952390Y-95332453D01*
X94952390Y-95046739D01*
X94904771Y-94951501D01*
X94857152Y-94903882D01*
X94761914Y-94856263D01*
X94571437Y-94856263D01*
X94476199Y-94903882D01*
X93904771Y-95522929D02*
X94000009Y-95475310D01*
X94047628Y-95427691D01*
X94095247Y-95332453D01*
X94095247Y-95046739D01*
X94047628Y-94951501D01*
X94000009Y-94903882D01*
X93904771Y-94856263D01*
X93761914Y-94856263D01*
X93666675Y-94903882D01*
X93619056Y-94951501D01*
X93571437Y-95046739D01*
X93571437Y-95332453D01*
X93619056Y-95427691D01*
X93666675Y-95475310D01*
X93761914Y-95522929D01*
X93904771Y-95522929D01*
X93142866Y-95522929D02*
X93142866Y-94856263D01*
X93142866Y-94951501D02*
X93095247Y-94903882D01*
X93000009Y-94856263D01*
X92857152Y-94856263D01*
X92761914Y-94903882D01*
X92714294Y-94999120D01*
X92714294Y-95522929D01*
X92714294Y-94999120D02*
X92666675Y-94903882D01*
X92571437Y-94856263D01*
X92428580Y-94856263D01*
X92333342Y-94903882D01*
X92285723Y-94999120D01*
X92285723Y-95522929D01*
X91095247Y-94475310D02*
X91952390Y-95761025D01*
X90238104Y-94570549D02*
X90333342Y-94522929D01*
X90476199Y-94522929D01*
X90619056Y-94570549D01*
X90714294Y-94665787D01*
X90761914Y-94761025D01*
X90809533Y-94951501D01*
X90809533Y-95094358D01*
X90761914Y-95284834D01*
X90714294Y-95380072D01*
X90619056Y-95475310D01*
X90476199Y-95522929D01*
X90380961Y-95522929D01*
X90238104Y-95475310D01*
X90190485Y-95427691D01*
X90190485Y-95094358D01*
X90380961Y-95094358D01*
X89761914Y-95522929D02*
X89761914Y-94856263D01*
X89761914Y-95046739D02*
X89714294Y-94951501D01*
X89666675Y-94903882D01*
X89571437Y-94856263D01*
X89476199Y-94856263D01*
X88761914Y-95475310D02*
X88857152Y-95522929D01*
X89047628Y-95522929D01*
X89142866Y-95475310D01*
X89190485Y-95380072D01*
X89190485Y-94999120D01*
X89142866Y-94903882D01*
X89047628Y-94856263D01*
X88857152Y-94856263D01*
X88761914Y-94903882D01*
X88714294Y-94999120D01*
X88714294Y-95094358D01*
X89190485Y-95189596D01*
X87904771Y-95475310D02*
X88000009Y-95522929D01*
X88190485Y-95522929D01*
X88285723Y-95475310D01*
X88333342Y-95380072D01*
X88333342Y-94999120D01*
X88285723Y-94903882D01*
X88190485Y-94856263D01*
X88000009Y-94856263D01*
X87904771Y-94903882D01*
X87857152Y-94999120D01*
X87857152Y-95094358D01*
X88333342Y-95189596D01*
X87428580Y-94856263D02*
X87428580Y-95522929D01*
X87428580Y-94951501D02*
X87380961Y-94903882D01*
X87285723Y-94856263D01*
X87142866Y-94856263D01*
X87047628Y-94903882D01*
X87000009Y-94999120D01*
X87000009Y-95522929D01*
X86523818Y-95522929D02*
X86523818Y-94522929D01*
X86190485Y-95237215D01*
X85857152Y-94522929D01*
X85857152Y-95522929D01*
X84952390Y-95522929D02*
X84952390Y-94999120D01*
X85000009Y-94903882D01*
X85095247Y-94856263D01*
X85285723Y-94856263D01*
X85380961Y-94903882D01*
X84952390Y-95475310D02*
X85047628Y-95522929D01*
X85285723Y-95522929D01*
X85380961Y-95475310D01*
X85428580Y-95380072D01*
X85428580Y-95284834D01*
X85380961Y-95189596D01*
X85285723Y-95141977D01*
X85047628Y-95141977D01*
X84952390Y-95094358D01*
X84523818Y-95475310D02*
X84428580Y-95522929D01*
X84238104Y-95522929D01*
X84142866Y-95475310D01*
X84095247Y-95380072D01*
X84095247Y-95332453D01*
X84142866Y-95237215D01*
X84238104Y-95189596D01*
X84380961Y-95189596D01*
X84476199Y-95141977D01*
X84523818Y-95046739D01*
X84523818Y-94999120D01*
X84476199Y-94903882D01*
X84380961Y-94856263D01*
X84238104Y-94856263D01*
X84142866Y-94903882D01*
X83666675Y-95522929D02*
X83666675Y-94522929D01*
X83238104Y-95522929D02*
X83238104Y-94999120D01*
X83285723Y-94903882D01*
X83380961Y-94856263D01*
X83523818Y-94856263D01*
X83619056Y-94903882D01*
X83666675Y-94951501D01*
X82380961Y-95475310D02*
X82476199Y-95522929D01*
X82666675Y-95522929D01*
X82761914Y-95475310D01*
X82809533Y-95380072D01*
X82809533Y-94999120D01*
X82761914Y-94903882D01*
X82666675Y-94856263D01*
X82476199Y-94856263D01*
X82380961Y-94903882D01*
X82333342Y-94999120D01*
X82333342Y-95094358D01*
X82809533Y-95189596D01*
X81476199Y-95522929D02*
X81476199Y-94522929D01*
X81476199Y-95475310D02*
X81571437Y-95522929D01*
X81761914Y-95522929D01*
X81857152Y-95475310D01*
X81904771Y-95427691D01*
X81952390Y-95332453D01*
X81952390Y-95046739D01*
X81904771Y-94951501D01*
X81857152Y-94903882D01*
X81761914Y-94856263D01*
X81571437Y-94856263D01*
X81476199Y-94903882D01*
X81000009Y-95522929D02*
X81000009Y-94522929D01*
X80619056Y-94522929D01*
X80523818Y-94570549D01*
X80476199Y-94618168D01*
X80428580Y-94713406D01*
X80428580Y-94856263D01*
X80476199Y-94951501D01*
X80523818Y-94999120D01*
X80619056Y-95046739D01*
X81000009Y-95046739D01*
X79857152Y-95522929D02*
X79952390Y-95475310D01*
X80000009Y-95427691D01*
X80047628Y-95332453D01*
X80047628Y-95046739D01*
X80000009Y-94951501D01*
X79952390Y-94903882D01*
X79857152Y-94856263D01*
X79714294Y-94856263D01*
X79619056Y-94903882D01*
X79571437Y-94951501D01*
X79523818Y-95046739D01*
X79523818Y-95332453D01*
X79571437Y-95427691D01*
X79619056Y-95475310D01*
X79714294Y-95522929D01*
X79857152Y-95522929D01*
X79238104Y-94856263D02*
X78857152Y-94856263D01*
X79095247Y-94522929D02*
X79095247Y-95380072D01*
X79047628Y-95475310D01*
X78952390Y-95522929D01*
X78857152Y-95522929D01*
X78095247Y-95522929D02*
X78095247Y-94999120D01*
X78142866Y-94903882D01*
X78238104Y-94856263D01*
X78428580Y-94856263D01*
X78523818Y-94903882D01*
X78095247Y-95475310D02*
X78190485Y-95522929D01*
X78428580Y-95522929D01*
X78523818Y-95475310D01*
X78571437Y-95380072D01*
X78571437Y-95284834D01*
X78523818Y-95189596D01*
X78428580Y-95141977D01*
X78190485Y-95141977D01*
X78095247Y-95094358D01*
X77761914Y-94856263D02*
X77380961Y-94856263D01*
X77619056Y-94522929D02*
X77619056Y-95380072D01*
X77571437Y-95475310D01*
X77476199Y-95522929D01*
X77380961Y-95522929D01*
X76904771Y-95522929D02*
X77000009Y-95475310D01*
X77047628Y-95427691D01*
X77095247Y-95332453D01*
X77095247Y-95046739D01*
X77047628Y-94951501D01*
X77000009Y-94903882D01*
X76904771Y-94856263D01*
X76761914Y-94856263D01*
X76666675Y-94903882D01*
X76619056Y-94951501D01*
X76571437Y-95046739D01*
X76571437Y-95332453D01*
X76619056Y-95427691D01*
X76666675Y-95475310D01*
X76761914Y-95522929D01*
X76904771Y-95522929D01*
X75428580Y-94475310D02*
X76285723Y-95761025D01*
X75142866Y-95475310D02*
X75000009Y-95522929D01*
X74761914Y-95522929D01*
X74666675Y-95475310D01*
X74619056Y-95427691D01*
X74571437Y-95332453D01*
X74571437Y-95237215D01*
X74619056Y-95141977D01*
X74666675Y-95094358D01*
X74761914Y-95046739D01*
X74952390Y-94999120D01*
X75047628Y-94951501D01*
X75095247Y-94903882D01*
X75142866Y-94808644D01*
X75142866Y-94713406D01*
X75095247Y-94618168D01*
X75047628Y-94570549D01*
X74952390Y-94522929D01*
X74714294Y-94522929D01*
X74571437Y-94570549D01*
X74142866Y-95522929D02*
X74142866Y-94522929D01*
X73714294Y-95522929D02*
X73714294Y-94999120D01*
X73761914Y-94903882D01*
X73857152Y-94856263D01*
X74000009Y-94856263D01*
X74095247Y-94903882D01*
X74142866Y-94951501D01*
X73238104Y-95522929D02*
X73238104Y-94856263D01*
X73238104Y-95046739D02*
X73190485Y-94951501D01*
X73142866Y-94903882D01*
X73047628Y-94856263D01*
X72952390Y-94856263D01*
X72619056Y-95522929D02*
X72619056Y-94856263D01*
X72619056Y-94522929D02*
X72666675Y-94570549D01*
X72619056Y-94618168D01*
X72571437Y-94570549D01*
X72619056Y-94522929D01*
X72619056Y-94618168D01*
X72142866Y-95522929D02*
X72142866Y-94856263D01*
X72142866Y-94951501D02*
X72095247Y-94903882D01*
X72000009Y-94856263D01*
X71857152Y-94856263D01*
X71761914Y-94903882D01*
X71714294Y-94999120D01*
X71714294Y-95522929D01*
X71714294Y-94999120D02*
X71666675Y-94903882D01*
X71571437Y-94856263D01*
X71428580Y-94856263D01*
X71333342Y-94903882D01*
X71285723Y-94999120D01*
X71285723Y-95522929D01*
X70809533Y-94856263D02*
X70809533Y-95856263D01*
X70809533Y-94903882D02*
X70714294Y-94856263D01*
X70523818Y-94856263D01*
X70428580Y-94903882D01*
X70380961Y-94951501D01*
X70333342Y-95046739D01*
X70333342Y-95332453D01*
X70380961Y-95427691D01*
X70428580Y-95475310D01*
X70523818Y-95522929D01*
X70714294Y-95522929D01*
X70809533Y-95475310D01*
X69476199Y-94856263D02*
X69476199Y-95522929D01*
X69714294Y-94475310D02*
X69952390Y-95189596D01*
X69333342Y-95189596D01*
X69000009Y-94618168D02*
X68952390Y-94570549D01*
X68857152Y-94522929D01*
X68619056Y-94522929D01*
X68523818Y-94570549D01*
X68476199Y-94618168D01*
X68428580Y-94713406D01*
X68428580Y-94808644D01*
X68476199Y-94951501D01*
X69047628Y-95522929D01*
X68428580Y-95522929D01*
%TO.C,U1*%
X156875662Y-47942754D02*
X156761376Y-47980849D01*
X156723281Y-48018944D01*
X156685186Y-48095135D01*
X156685186Y-48209420D01*
X156723281Y-48285611D01*
X156761376Y-48323706D01*
X156837567Y-48361801D01*
X157142329Y-48361801D01*
X157142329Y-47561801D01*
X156875662Y-47561801D01*
X156799472Y-47599897D01*
X156761376Y-47637992D01*
X156723281Y-47714182D01*
X156723281Y-47790373D01*
X156761376Y-47866563D01*
X156799472Y-47904658D01*
X156875662Y-47942754D01*
X157142329Y-47942754D01*
X155961376Y-47561801D02*
X156342329Y-47561801D01*
X156380424Y-47942754D01*
X156342329Y-47904658D01*
X156266138Y-47866563D01*
X156075662Y-47866563D01*
X155999472Y-47904658D01*
X155961376Y-47942754D01*
X155923281Y-48018944D01*
X155923281Y-48209420D01*
X155961376Y-48285611D01*
X155999472Y-48323706D01*
X156075662Y-48361801D01*
X156266138Y-48361801D01*
X156342329Y-48323706D01*
X156380424Y-48285611D01*
X145891066Y-25433706D02*
X145776780Y-25471801D01*
X145586304Y-25471801D01*
X145510113Y-25433706D01*
X145472018Y-25395611D01*
X145433923Y-25319420D01*
X145433923Y-25243230D01*
X145472018Y-25167039D01*
X145510113Y-25128944D01*
X145586304Y-25090849D01*
X145738685Y-25052754D01*
X145814875Y-25014658D01*
X145852971Y-24976563D01*
X145891066Y-24900373D01*
X145891066Y-24824182D01*
X145852971Y-24747992D01*
X145814875Y-24709897D01*
X145738685Y-24671801D01*
X145548209Y-24671801D01*
X145433923Y-24709897D01*
X145205352Y-24671801D02*
X144748209Y-24671801D01*
X144976780Y-25471801D02*
X144976780Y-24671801D01*
X146182233Y-20421801D02*
X146448900Y-20040849D01*
X146639376Y-20421801D02*
X146639376Y-19621801D01*
X146334614Y-19621801D01*
X146258424Y-19659897D01*
X146220329Y-19697992D01*
X146182233Y-19774182D01*
X146182233Y-19888468D01*
X146220329Y-19964658D01*
X146258424Y-20002754D01*
X146334614Y-20040849D01*
X146639376Y-20040849D01*
X145877472Y-20193230D02*
X145496519Y-20193230D01*
X145953662Y-20421801D02*
X145686995Y-19621801D01*
X145420329Y-20421801D01*
X145229853Y-19621801D02*
X145039376Y-20421801D01*
X144886995Y-19850373D01*
X144734614Y-20421801D01*
X144544138Y-19621801D01*
X145896519Y-35242754D02*
X146163186Y-35242754D01*
X146163186Y-35661801D02*
X146163186Y-34861801D01*
X145782233Y-34861801D01*
X145134614Y-34861801D02*
X145286995Y-34861801D01*
X145363186Y-34899897D01*
X145401281Y-34937992D01*
X145477472Y-35052277D01*
X145515567Y-35204658D01*
X145515567Y-35509420D01*
X145477472Y-35585611D01*
X145439376Y-35623706D01*
X145363186Y-35661801D01*
X145210805Y-35661801D01*
X145134614Y-35623706D01*
X145096519Y-35585611D01*
X145058424Y-35509420D01*
X145058424Y-35318944D01*
X145096519Y-35242754D01*
X145134614Y-35204658D01*
X145210805Y-35166563D01*
X145363186Y-35166563D01*
X145439376Y-35204658D01*
X145477472Y-35242754D01*
X145515567Y-35318944D01*
X156875662Y-45402754D02*
X156761376Y-45440849D01*
X156723281Y-45478944D01*
X156685186Y-45555135D01*
X156685186Y-45669420D01*
X156723281Y-45745611D01*
X156761376Y-45783706D01*
X156837567Y-45821801D01*
X157142329Y-45821801D01*
X157142329Y-45021801D01*
X156875662Y-45021801D01*
X156799472Y-45059897D01*
X156761376Y-45097992D01*
X156723281Y-45174182D01*
X156723281Y-45250373D01*
X156761376Y-45326563D01*
X156799472Y-45364658D01*
X156875662Y-45402754D01*
X157142329Y-45402754D01*
X155999472Y-45288468D02*
X155999472Y-45821801D01*
X156189948Y-44983706D02*
X156380424Y-45555135D01*
X155885186Y-45555135D01*
X146696519Y-27241801D02*
X146429853Y-28041801D01*
X146163186Y-27241801D01*
X145439376Y-27965611D02*
X145477472Y-28003706D01*
X145591757Y-28041801D01*
X145667948Y-28041801D01*
X145782233Y-28003706D01*
X145858424Y-27927516D01*
X145896519Y-27851325D01*
X145934614Y-27698944D01*
X145934614Y-27584658D01*
X145896519Y-27432277D01*
X145858424Y-27356087D01*
X145782233Y-27279897D01*
X145667948Y-27241801D01*
X145591757Y-27241801D01*
X145477472Y-27279897D01*
X145439376Y-27317992D01*
X144639376Y-27965611D02*
X144677472Y-28003706D01*
X144791757Y-28041801D01*
X144867948Y-28041801D01*
X144982233Y-28003706D01*
X145058424Y-27927516D01*
X145096519Y-27851325D01*
X145134614Y-27698944D01*
X145134614Y-27584658D01*
X145096519Y-27432277D01*
X145058424Y-27356087D01*
X144982233Y-27279897D01*
X144867948Y-27241801D01*
X144791757Y-27241801D01*
X144677472Y-27279897D01*
X144639376Y-27317992D01*
X145953662Y-47942754D02*
X145839376Y-47980849D01*
X145801281Y-48018944D01*
X145763186Y-48095135D01*
X145763186Y-48209420D01*
X145801281Y-48285611D01*
X145839376Y-48323706D01*
X145915567Y-48361801D01*
X146220329Y-48361801D01*
X146220329Y-47561801D01*
X145953662Y-47561801D01*
X145877472Y-47599897D01*
X145839376Y-47637992D01*
X145801281Y-47714182D01*
X145801281Y-47790373D01*
X145839376Y-47866563D01*
X145877472Y-47904658D01*
X145953662Y-47942754D01*
X146220329Y-47942754D01*
X145077472Y-47561801D02*
X145229853Y-47561801D01*
X145306043Y-47599897D01*
X145344138Y-47637992D01*
X145420329Y-47752277D01*
X145458424Y-47904658D01*
X145458424Y-48209420D01*
X145420329Y-48285611D01*
X145382233Y-48323706D01*
X145306043Y-48361801D01*
X145153662Y-48361801D01*
X145077472Y-48323706D01*
X145039376Y-48285611D01*
X145001281Y-48209420D01*
X145001281Y-48018944D01*
X145039376Y-47942754D01*
X145077472Y-47904658D01*
X145153662Y-47866563D01*
X145306043Y-47866563D01*
X145382233Y-47904658D01*
X145420329Y-47942754D01*
X145458424Y-48018944D01*
X157161376Y-24739897D02*
X157237567Y-24701801D01*
X157351853Y-24701801D01*
X157466138Y-24739897D01*
X157542329Y-24816087D01*
X157580424Y-24892277D01*
X157618519Y-25044658D01*
X157618519Y-25158944D01*
X157580424Y-25311325D01*
X157542329Y-25387516D01*
X157466138Y-25463706D01*
X157351853Y-25501801D01*
X157275662Y-25501801D01*
X157161376Y-25463706D01*
X157123281Y-25425611D01*
X157123281Y-25158944D01*
X157275662Y-25158944D01*
X156780424Y-25501801D02*
X156780424Y-24701801D01*
X156323281Y-25501801D01*
X156323281Y-24701801D01*
X155942329Y-25501801D02*
X155942329Y-24701801D01*
X155751853Y-24701801D01*
X155637567Y-24739897D01*
X155561376Y-24816087D01*
X155523281Y-24892277D01*
X155485186Y-25044658D01*
X155485186Y-25158944D01*
X155523281Y-25311325D01*
X155561376Y-25387516D01*
X155637567Y-25463706D01*
X155751853Y-25501801D01*
X155942329Y-25501801D01*
X146239376Y-22199897D02*
X146315567Y-22161801D01*
X146429853Y-22161801D01*
X146544138Y-22199897D01*
X146620329Y-22276087D01*
X146658424Y-22352277D01*
X146696519Y-22504658D01*
X146696519Y-22618944D01*
X146658424Y-22771325D01*
X146620329Y-22847516D01*
X146544138Y-22923706D01*
X146429853Y-22961801D01*
X146353662Y-22961801D01*
X146239376Y-22923706D01*
X146201281Y-22885611D01*
X146201281Y-22618944D01*
X146353662Y-22618944D01*
X145858424Y-22961801D02*
X145858424Y-22161801D01*
X145401281Y-22961801D01*
X145401281Y-22161801D01*
X145020329Y-22961801D02*
X145020329Y-22161801D01*
X144829853Y-22161801D01*
X144715567Y-22199897D01*
X144639376Y-22276087D01*
X144601281Y-22352277D01*
X144563186Y-22504658D01*
X144563186Y-22618944D01*
X144601281Y-22771325D01*
X144639376Y-22847516D01*
X144715567Y-22923706D01*
X144829853Y-22961801D01*
X145020329Y-22961801D01*
X156685186Y-38125611D02*
X156723281Y-38163706D01*
X156837567Y-38201801D01*
X156913757Y-38201801D01*
X157028043Y-38163706D01*
X157104233Y-38087516D01*
X157142329Y-38011325D01*
X157180424Y-37858944D01*
X157180424Y-37744658D01*
X157142329Y-37592277D01*
X157104233Y-37516087D01*
X157028043Y-37439897D01*
X156913757Y-37401801D01*
X156837567Y-37401801D01*
X156723281Y-37439897D01*
X156685186Y-37477992D01*
X155999472Y-37401801D02*
X156151853Y-37401801D01*
X156228043Y-37439897D01*
X156266138Y-37477992D01*
X156342329Y-37592277D01*
X156380424Y-37744658D01*
X156380424Y-38049420D01*
X156342329Y-38125611D01*
X156304233Y-38163706D01*
X156228043Y-38201801D01*
X156075662Y-38201801D01*
X155999472Y-38163706D01*
X155961376Y-38125611D01*
X155923281Y-38049420D01*
X155923281Y-37858944D01*
X155961376Y-37782754D01*
X155999472Y-37744658D01*
X156075662Y-37706563D01*
X156228043Y-37706563D01*
X156304233Y-37744658D01*
X156342329Y-37782754D01*
X156380424Y-37858944D01*
X157142329Y-30581801D02*
X157142329Y-29781801D01*
X156951853Y-29781801D01*
X156837567Y-29819897D01*
X156761376Y-29896087D01*
X156723281Y-29972277D01*
X156685186Y-30124658D01*
X156685186Y-30238944D01*
X156723281Y-30391325D01*
X156761376Y-30467516D01*
X156837567Y-30543706D01*
X156951853Y-30581801D01*
X157142329Y-30581801D01*
X155923281Y-30581801D02*
X156380424Y-30581801D01*
X156151853Y-30581801D02*
X156151853Y-29781801D01*
X156228043Y-29896087D01*
X156304233Y-29972277D01*
X156380424Y-30010373D01*
X156853201Y-19621801D02*
X156396058Y-19621801D01*
X156624629Y-20421801D02*
X156624629Y-19621801D01*
X156205582Y-19621801D02*
X155672248Y-20421801D01*
X155672248Y-19621801D02*
X156205582Y-20421801D01*
X155215105Y-19621801D02*
X155138915Y-19621801D01*
X155062725Y-19659897D01*
X155024629Y-19697992D01*
X154986534Y-19774182D01*
X154948439Y-19926563D01*
X154948439Y-20117039D01*
X154986534Y-20269420D01*
X155024629Y-20345611D01*
X155062725Y-20383706D01*
X155138915Y-20421801D01*
X155215105Y-20421801D01*
X155291296Y-20383706D01*
X155329391Y-20345611D01*
X155367486Y-20269420D01*
X155405582Y-20117039D01*
X155405582Y-19926563D01*
X155367486Y-19774182D01*
X155329391Y-19697992D01*
X155291296Y-19659897D01*
X155215105Y-19621801D01*
X154034153Y-19583706D02*
X154719867Y-20612277D01*
X153767486Y-20421801D02*
X153767486Y-19621801D01*
X153577010Y-19621801D01*
X153462725Y-19659897D01*
X153386534Y-19736087D01*
X153348439Y-19812277D01*
X153310344Y-19964658D01*
X153310344Y-20078944D01*
X153348439Y-20231325D01*
X153386534Y-20307516D01*
X153462725Y-20383706D01*
X153577010Y-20421801D01*
X153767486Y-20421801D01*
X153043677Y-19621801D02*
X152548439Y-19621801D01*
X152815105Y-19926563D01*
X152700820Y-19926563D01*
X152624629Y-19964658D01*
X152586534Y-20002754D01*
X152548439Y-20078944D01*
X152548439Y-20269420D01*
X152586534Y-20345611D01*
X152624629Y-20383706D01*
X152700820Y-20421801D01*
X152929391Y-20421801D01*
X153005582Y-20383706D01*
X153043677Y-20345611D01*
X145953662Y-42862754D02*
X145839376Y-42900849D01*
X145801281Y-42938944D01*
X145763186Y-43015135D01*
X145763186Y-43129420D01*
X145801281Y-43205611D01*
X145839376Y-43243706D01*
X145915567Y-43281801D01*
X146220329Y-43281801D01*
X146220329Y-42481801D01*
X145953662Y-42481801D01*
X145877472Y-42519897D01*
X145839376Y-42557992D01*
X145801281Y-42634182D01*
X145801281Y-42710373D01*
X145839376Y-42786563D01*
X145877472Y-42824658D01*
X145953662Y-42862754D01*
X146220329Y-42862754D01*
X145496519Y-42481801D02*
X145001281Y-42481801D01*
X145267948Y-42786563D01*
X145153662Y-42786563D01*
X145077472Y-42824658D01*
X145039376Y-42862754D01*
X145001281Y-42938944D01*
X145001281Y-43129420D01*
X145039376Y-43205611D01*
X145077472Y-43243706D01*
X145153662Y-43281801D01*
X145382233Y-43281801D01*
X145458424Y-43243706D01*
X145496519Y-43205611D01*
X157104233Y-42862754D02*
X156837567Y-42862754D01*
X156723281Y-43281801D02*
X157104233Y-43281801D01*
X157104233Y-42481801D01*
X156723281Y-42481801D01*
X156037567Y-42481801D02*
X156189948Y-42481801D01*
X156266138Y-42519897D01*
X156304233Y-42557992D01*
X156380424Y-42672277D01*
X156418519Y-42824658D01*
X156418519Y-43129420D01*
X156380424Y-43205611D01*
X156342329Y-43243706D01*
X156266138Y-43281801D01*
X156113757Y-43281801D01*
X156037567Y-43243706D01*
X155999472Y-43205611D01*
X155961376Y-43129420D01*
X155961376Y-42938944D01*
X155999472Y-42862754D01*
X156037567Y-42824658D01*
X156113757Y-42786563D01*
X156266138Y-42786563D01*
X156342329Y-42824658D01*
X156380424Y-42862754D01*
X156418519Y-42938944D01*
X157142329Y-33121801D02*
X157142329Y-32321801D01*
X156951853Y-32321801D01*
X156837567Y-32359897D01*
X156761376Y-32436087D01*
X156723281Y-32512277D01*
X156685186Y-32664658D01*
X156685186Y-32778944D01*
X156723281Y-32931325D01*
X156761376Y-33007516D01*
X156837567Y-33083706D01*
X156951853Y-33121801D01*
X157142329Y-33121801D01*
X156189948Y-32321801D02*
X156113757Y-32321801D01*
X156037567Y-32359897D01*
X155999472Y-32397992D01*
X155961376Y-32474182D01*
X155923281Y-32626563D01*
X155923281Y-32817039D01*
X155961376Y-32969420D01*
X155999472Y-33045611D01*
X156037567Y-33083706D01*
X156113757Y-33121801D01*
X156189948Y-33121801D01*
X156266138Y-33083706D01*
X156304233Y-33045611D01*
X156342329Y-32969420D01*
X156380424Y-32817039D01*
X156380424Y-32626563D01*
X156342329Y-32474182D01*
X156304233Y-32397992D01*
X156266138Y-32359897D01*
X156189948Y-32321801D01*
X145896519Y-32702754D02*
X146163186Y-32702754D01*
X146163186Y-33121801D02*
X146163186Y-32321801D01*
X145782233Y-32321801D01*
X145096519Y-32321801D02*
X145477472Y-32321801D01*
X145515567Y-32702754D01*
X145477472Y-32664658D01*
X145401281Y-32626563D01*
X145210805Y-32626563D01*
X145134614Y-32664658D01*
X145096519Y-32702754D01*
X145058424Y-32778944D01*
X145058424Y-32969420D01*
X145096519Y-33045611D01*
X145134614Y-33083706D01*
X145210805Y-33121801D01*
X145401281Y-33121801D01*
X145477472Y-33083706D01*
X145515567Y-33045611D01*
X145896519Y-37782754D02*
X146163186Y-37782754D01*
X146163186Y-38201801D02*
X146163186Y-37401801D01*
X145782233Y-37401801D01*
X145553662Y-37401801D02*
X145020329Y-37401801D01*
X145363186Y-38201801D01*
X157142329Y-35661801D02*
X157142329Y-34861801D01*
X156951853Y-34861801D01*
X156837567Y-34899897D01*
X156761376Y-34976087D01*
X156723281Y-35052277D01*
X156685186Y-35204658D01*
X156685186Y-35318944D01*
X156723281Y-35471325D01*
X156761376Y-35547516D01*
X156837567Y-35623706D01*
X156951853Y-35661801D01*
X157142329Y-35661801D01*
X155999472Y-35128468D02*
X155999472Y-35661801D01*
X156189948Y-34823706D02*
X156380424Y-35395135D01*
X155885186Y-35395135D01*
X157142329Y-40741801D02*
X157142329Y-39941801D01*
X156951853Y-39941801D01*
X156837567Y-39979897D01*
X156761376Y-40056087D01*
X156723281Y-40132277D01*
X156685186Y-40284658D01*
X156685186Y-40398944D01*
X156723281Y-40551325D01*
X156761376Y-40627516D01*
X156837567Y-40703706D01*
X156951853Y-40741801D01*
X157142329Y-40741801D01*
X156418519Y-39941801D02*
X155885186Y-39941801D01*
X156228043Y-40741801D01*
X157142329Y-22961801D02*
X157142329Y-22161801D01*
X156951853Y-22161801D01*
X156837567Y-22199897D01*
X156761376Y-22276087D01*
X156723281Y-22352277D01*
X156685186Y-22504658D01*
X156685186Y-22618944D01*
X156723281Y-22771325D01*
X156761376Y-22847516D01*
X156837567Y-22923706D01*
X156951853Y-22961801D01*
X157142329Y-22961801D01*
X156380424Y-22237992D02*
X156342329Y-22199897D01*
X156266138Y-22161801D01*
X156075662Y-22161801D01*
X155999472Y-22199897D01*
X155961376Y-22237992D01*
X155923281Y-22314182D01*
X155923281Y-22390373D01*
X155961376Y-22504658D01*
X156418519Y-22961801D01*
X155923281Y-22961801D01*
X145896519Y-30162754D02*
X146163186Y-30162754D01*
X146163186Y-30581801D02*
X146163186Y-29781801D01*
X145782233Y-29781801D01*
X145134614Y-30048468D02*
X145134614Y-30581801D01*
X145325091Y-29743706D02*
X145515567Y-30315135D01*
X145020329Y-30315135D01*
X145953662Y-40322754D02*
X145839376Y-40360849D01*
X145801281Y-40398944D01*
X145763186Y-40475135D01*
X145763186Y-40589420D01*
X145801281Y-40665611D01*
X145839376Y-40703706D01*
X145915567Y-40741801D01*
X146220329Y-40741801D01*
X146220329Y-39941801D01*
X145953662Y-39941801D01*
X145877472Y-39979897D01*
X145839376Y-40017992D01*
X145801281Y-40094182D01*
X145801281Y-40170373D01*
X145839376Y-40246563D01*
X145877472Y-40284658D01*
X145953662Y-40322754D01*
X146220329Y-40322754D01*
X145001281Y-40741801D02*
X145458424Y-40741801D01*
X145229853Y-40741801D02*
X145229853Y-39941801D01*
X145306043Y-40056087D01*
X145382233Y-40132277D01*
X145458424Y-40170373D01*
X145953662Y-45402754D02*
X145839376Y-45440849D01*
X145801281Y-45478944D01*
X145763186Y-45555135D01*
X145763186Y-45669420D01*
X145801281Y-45745611D01*
X145839376Y-45783706D01*
X145915567Y-45821801D01*
X146220329Y-45821801D01*
X146220329Y-45021801D01*
X145953662Y-45021801D01*
X145877472Y-45059897D01*
X145839376Y-45097992D01*
X145801281Y-45174182D01*
X145801281Y-45250373D01*
X145839376Y-45326563D01*
X145877472Y-45364658D01*
X145953662Y-45402754D01*
X146220329Y-45402754D01*
X145458424Y-45097992D02*
X145420329Y-45059897D01*
X145344138Y-45021801D01*
X145153662Y-45021801D01*
X145077472Y-45059897D01*
X145039376Y-45097992D01*
X145001281Y-45174182D01*
X145001281Y-45250373D01*
X145039376Y-45364658D01*
X145496519Y-45821801D01*
X145001281Y-45821801D01*
X157161376Y-27279897D02*
X157237567Y-27241801D01*
X157351853Y-27241801D01*
X157466138Y-27279897D01*
X157542329Y-27356087D01*
X157580424Y-27432277D01*
X157618519Y-27584658D01*
X157618519Y-27698944D01*
X157580424Y-27851325D01*
X157542329Y-27927516D01*
X157466138Y-28003706D01*
X157351853Y-28041801D01*
X157275662Y-28041801D01*
X157161376Y-28003706D01*
X157123281Y-27965611D01*
X157123281Y-27698944D01*
X157275662Y-27698944D01*
X156780424Y-28041801D02*
X156780424Y-27241801D01*
X156323281Y-28041801D01*
X156323281Y-27241801D01*
X155942329Y-28041801D02*
X155942329Y-27241801D01*
X155751853Y-27241801D01*
X155637567Y-27279897D01*
X155561376Y-27356087D01*
X155523281Y-27432277D01*
X155485186Y-27584658D01*
X155485186Y-27698944D01*
X155523281Y-27851325D01*
X155561376Y-27927516D01*
X155637567Y-28003706D01*
X155751853Y-28041801D01*
X155942329Y-28041801D01*
%TO.C,K-0-0*%
X29813683Y-52606056D02*
X24947663Y-53957525D01*
X19790824Y-57314603D02*
X23277816Y-56380266D01*
X29801777Y-52561623D02*
X28790312Y-48786785D01*
X18767453Y-53495332D02*
X19788494Y-57305909D01*
X28790312Y-48786785D02*
X20459202Y-51019100D01*
X20459202Y-51019099D02*
G75*
G03*
X18759961Y-53424870I353265J-2052506D01*
G01*
X24972846Y-53954918D02*
G75*
G03*
X23276434Y-56355790I352230J-2048642D01*
G01*
%TO.C,K-0-1*%
X50949128Y-47586485D02*
X50136609Y-43763885D01*
X50136609Y-43763885D02*
X41700086Y-45557123D01*
X39881060Y-47941422D02*
X40701272Y-51800215D01*
X50958692Y-47631480D02*
X46028611Y-48726429D01*
X40703143Y-51809018D02*
X44234256Y-51058457D01*
X46053896Y-48725144D02*
G75*
G03*
X44234156Y-51033942I244529J-2064269D01*
G01*
X41700086Y-45557123D02*
G75*
G03*
X39877266Y-47870665I245361J-2068181D01*
G01*
%TO.C,K-0-2*%
X68684983Y-24466110D02*
X60166171Y-25815357D01*
X58224853Y-28101189D02*
X58841987Y-31997619D01*
X69296329Y-28325996D02*
X68684983Y-24466110D01*
X69303525Y-28371430D02*
X64322895Y-29206858D01*
X58843395Y-32006508D02*
X62408950Y-31441780D01*
X64348213Y-29206898D02*
G75*
G03*
X62410134Y-31417293I136158J-2074237D01*
G01*
X60166171Y-25815358D02*
G75*
G03*
X58224767Y-28030330I136784J-2078188D01*
G01*
%TO.C,K-0-3*%
X80357188Y-26414221D02*
X83947412Y-26036873D01*
X79943882Y-22481881D02*
X80356247Y-26405270D01*
X90988420Y-23285817D02*
X90579922Y-19399225D01*
X90579922Y-19399225D02*
X82002171Y-20300783D01*
X90993228Y-23331565D02*
X85975701Y-23905182D01*
X82002171Y-20300783D02*
G75*
G03*
X79947505Y-22411115I27833J-2082499D01*
G01*
X86000982Y-23906546D02*
G75*
G03*
X83949876Y-26012482I27415J-2078521D01*
G01*
%TO.C,K-0-4*%
X113102574Y-20334416D02*
X104489394Y-20785814D01*
X102526713Y-26804781D02*
X106131765Y-26615848D01*
X113307103Y-24237060D02*
X113102574Y-20334416D01*
X102319776Y-22856200D02*
X102526242Y-26795794D01*
X113309510Y-24282997D02*
X108268839Y-24593231D01*
X108294014Y-24595918D02*
G75*
G03*
X106135503Y-26591620I-81405J-2077106D01*
G01*
X104489394Y-20785814D02*
G75*
G03*
X102327098Y-22785720I-81195J-2081101D01*
G01*
%TO.C,K-0-5*%
X135570357Y-23990828D02*
X130520357Y-24036828D01*
X124670357Y-21990828D02*
X124670357Y-25935828D01*
X124670357Y-25944828D02*
X128280357Y-25944828D01*
X135570357Y-20036828D02*
X126945357Y-20036828D01*
X135570357Y-23944828D02*
X135570357Y-20036828D01*
X130545357Y-24040828D02*
G75*
G03*
X128285357Y-25920828I-190000J-2070000D01*
G01*
X126945357Y-20036828D02*
G75*
G03*
X124681357Y-21920828I-190000J-2074000D01*
G01*
%TO.C,K-1-0*%
X33711108Y-67076739D02*
X25379998Y-69309054D01*
X23688249Y-71785286D02*
X24709290Y-75595863D01*
X24711620Y-75604557D02*
X28198612Y-74670220D01*
X34734479Y-70896010D02*
X29868459Y-72247479D01*
X34722573Y-70851577D02*
X33711108Y-67076739D01*
X29893642Y-72244872D02*
G75*
G03*
X28197230Y-74645744I352230J-2048642D01*
G01*
X25379998Y-69309053D02*
G75*
G03*
X23680757Y-71714824I353265J-2052506D01*
G01*
%TO.C,K-1-1*%
X54909842Y-66220197D02*
X54097323Y-62397597D01*
X44663857Y-70442730D02*
X48194970Y-69692169D01*
X43841774Y-66575134D02*
X44661986Y-70433927D01*
X54097323Y-62397597D02*
X45660800Y-64190835D01*
X54919406Y-66265192D02*
X49989325Y-67360141D01*
X50014610Y-67358856D02*
G75*
G03*
X48194870Y-69667654I244529J-2064269D01*
G01*
X45660800Y-64190835D02*
G75*
G03*
X43837980Y-66504377I245361J-2068181D01*
G01*
%TO.C,K-1-2*%
X61204927Y-46916651D02*
X61822061Y-50813081D01*
X72276403Y-47141458D02*
X71665057Y-43281572D01*
X71665057Y-43281572D02*
X63146245Y-44630819D01*
X61823469Y-50821970D02*
X65389024Y-50257242D01*
X72283599Y-47186892D02*
X67302969Y-48022320D01*
X63146245Y-44630820D02*
G75*
G03*
X61204841Y-46845792I136784J-2078188D01*
G01*
X67328287Y-48022360D02*
G75*
G03*
X65390208Y-50232755I136158J-2074237D01*
G01*
%TO.C,K-1-3*%
X92979688Y-42231457D02*
X92571190Y-38344865D01*
X92571190Y-38344865D02*
X83993439Y-39246423D01*
X82348456Y-45359861D02*
X85938680Y-44982513D01*
X92984496Y-42277205D02*
X87966969Y-42850822D01*
X81935150Y-41427521D02*
X82347515Y-45350910D01*
X87992250Y-42852186D02*
G75*
G03*
X85941144Y-44958122I27415J-2078521D01*
G01*
X83993439Y-39246423D02*
G75*
G03*
X81938773Y-41356755I27833J-2082499D01*
G01*
%TO.C,K-1-4*%
X114306509Y-43306889D02*
X109265838Y-43617123D01*
X114099573Y-39358308D02*
X105486393Y-39809706D01*
X103523712Y-45828673D02*
X107128764Y-45639740D01*
X114304102Y-43260952D02*
X114099573Y-39358308D01*
X103316775Y-41880092D02*
X103523241Y-45819686D01*
X109291013Y-43619810D02*
G75*
G03*
X107132502Y-45615512I-81405J-2077106D01*
G01*
X105486393Y-39809706D02*
G75*
G03*
X103324097Y-41809612I-81195J-2081101D01*
G01*
%TO.C,K-1-5*%
X135570357Y-43040828D02*
X130520357Y-43086828D01*
X124670357Y-41040828D02*
X124670357Y-44985828D01*
X124670357Y-44994828D02*
X128280357Y-44994828D01*
X135570357Y-39086828D02*
X126945357Y-39086828D01*
X135570357Y-42994828D02*
X135570357Y-39086828D01*
X126945357Y-39086828D02*
G75*
G03*
X124681357Y-40970828I-190000J-2074000D01*
G01*
X130545357Y-43090828D02*
G75*
G03*
X128285357Y-44970828I-190000J-2070000D01*
G01*
%TO.C,K-2-0*%
X28618753Y-90186172D02*
X29639794Y-93996749D01*
X29642124Y-94005443D02*
X33129116Y-93071106D01*
X39653077Y-89252463D02*
X38641612Y-85477625D01*
X39664983Y-89296896D02*
X34798963Y-90648365D01*
X38641612Y-85477625D02*
X30310502Y-87709940D01*
X30310502Y-87709939D02*
G75*
G03*
X28611261Y-90115710I353265J-2052506D01*
G01*
X34824146Y-90645758D02*
G75*
G03*
X33127734Y-93046630I352230J-2048642D01*
G01*
%TO.C,K-2-1*%
X58058044Y-81031308D02*
X49621521Y-82824546D01*
X58870563Y-84853908D02*
X58058044Y-81031308D01*
X48624578Y-89076441D02*
X52155691Y-88325880D01*
X47802495Y-85208845D02*
X48622707Y-89067638D01*
X58880127Y-84898903D02*
X53950046Y-85993852D01*
X49621521Y-82824546D02*
G75*
G03*
X47798701Y-85138088I245361J-2068181D01*
G01*
X53975331Y-85992567D02*
G75*
G03*
X52155591Y-88301365I244529J-2064269D01*
G01*
%TO.C,K-2-2*%
X74645134Y-62097034D02*
X66126322Y-63446281D01*
X75263676Y-66002354D02*
X70283046Y-66837782D01*
X64803546Y-69637432D02*
X68369101Y-69072704D01*
X64185004Y-65732113D02*
X64802138Y-69628543D01*
X75256480Y-65956920D02*
X74645134Y-62097034D01*
X66126322Y-63446282D02*
G75*
G03*
X64184918Y-65661254I136784J-2078188D01*
G01*
X70308364Y-66837822D02*
G75*
G03*
X68370285Y-69048217I136158J-2074237D01*
G01*
%TO.C,K-2-3*%
X84339722Y-64305504D02*
X87929946Y-63928156D01*
X83926416Y-60373164D02*
X84338781Y-64296553D01*
X94970954Y-61177100D02*
X94562456Y-57290508D01*
X94975762Y-61222848D02*
X89958235Y-61796465D01*
X94562456Y-57290508D02*
X85984705Y-58192066D01*
X85984705Y-58192066D02*
G75*
G03*
X83930039Y-60302398I27833J-2082499D01*
G01*
X89983516Y-61797829D02*
G75*
G03*
X87932410Y-63903765I27415J-2078521D01*
G01*
%TO.C,K-2-4*%
X104520713Y-64852566D02*
X108125765Y-64663633D01*
X115096574Y-58382201D02*
X106483394Y-58833599D01*
X115303510Y-62330782D02*
X110262839Y-62641016D01*
X104313776Y-60903985D02*
X104520242Y-64843579D01*
X115301103Y-62284845D02*
X115096574Y-58382201D01*
X110288014Y-62643703D02*
G75*
G03*
X108129503Y-64639405I-81405J-2077106D01*
G01*
X106483394Y-58833599D02*
G75*
G03*
X104321098Y-60833505I-81195J-2081101D01*
G01*
%TO.C,K-2-5*%
X135570357Y-58136828D02*
X126945357Y-58136828D01*
X124670357Y-64044828D02*
X128280357Y-64044828D01*
X135570357Y-62044828D02*
X135570357Y-58136828D01*
X124670357Y-60090828D02*
X124670357Y-64035828D01*
X135570357Y-62090828D02*
X130520357Y-62136828D01*
X130545357Y-62140828D02*
G75*
G03*
X128285357Y-64020828I-190000J-2070000D01*
G01*
X126945357Y-58136828D02*
G75*
G03*
X124681357Y-60020828I-190000J-2074000D01*
G01*
%TO.C,K-3-3*%
X104375045Y-85891659D02*
X107982846Y-86017646D01*
X104513038Y-81940068D02*
X104375359Y-85882664D01*
X115474591Y-80367662D02*
X106854845Y-80066654D01*
X115336599Y-84319254D02*
X110288069Y-84188983D01*
X115338204Y-84273282D02*
X115474591Y-80367662D01*
X110312915Y-84193854D02*
G75*
G03*
X107988680Y-85993835I-262127J-2062107D01*
G01*
X106854845Y-80066655D02*
G75*
G03*
X104526474Y-81870494I-262266J-2066105D01*
G01*
%TO.C,K-3-4*%
X135171611Y-86067349D02*
X130144467Y-85585228D01*
X135584917Y-82135010D02*
X127007165Y-81233452D01*
X124127074Y-86871285D02*
X127717298Y-87248633D01*
X135176420Y-86021601D02*
X135584917Y-82135010D01*
X124540379Y-82938945D02*
X124128015Y-86862334D01*
X127007165Y-81233452D02*
G75*
G03*
X124558636Y-82870478I-405751J-2042778D01*
G01*
X130168912Y-85591820D02*
G75*
G03*
X127724779Y-87225287I-405333J-2038800D01*
G01*
%TO.C,K-3-5*%
X154821975Y-89226809D02*
X149840708Y-88395187D01*
X144434866Y-85364429D02*
X143749824Y-89249495D01*
X155508579Y-85332879D02*
X147014613Y-83835164D01*
X143748261Y-89258358D02*
X147303417Y-89885228D01*
X154829962Y-89181508D02*
X155508579Y-85332879D01*
X147014613Y-83835164D02*
G75*
G03*
X144457855Y-85297402I-547260J-2009498D01*
G01*
X149864633Y-88403467D02*
G75*
G03*
X147312509Y-89862461I-546565J-2005559D01*
G01*
%TO.C,G\u002A\u002A\u002A*%
G36*
X95493261Y-90887902D02*
G01*
X95810290Y-90374591D01*
X96043708Y-89818839D01*
X96190252Y-89228982D01*
X96246661Y-88613356D01*
X96209676Y-87980296D01*
X96177647Y-87775749D01*
X96141679Y-87565932D01*
X96116257Y-87396535D01*
X96104398Y-87289086D01*
X96105670Y-87262347D01*
X96155343Y-87275856D01*
X96266062Y-87326742D01*
X96384454Y-87388278D01*
X96927333Y-87638661D01*
X97468189Y-87802397D01*
X97998073Y-87878497D01*
X98508030Y-87865967D01*
X98989110Y-87763816D01*
X99172796Y-87697088D01*
X99422584Y-87594488D01*
X99411367Y-87754900D01*
X99383592Y-87949633D01*
X99327446Y-88205714D01*
X99251492Y-88491560D01*
X99164288Y-88775589D01*
X99074396Y-89026218D01*
X99051668Y-89081946D01*
X98732883Y-89718278D01*
X98343890Y-90286910D01*
X97890224Y-90783983D01*
X97377423Y-91205636D01*
X96811027Y-91548008D01*
X96196569Y-91807238D01*
X95539590Y-91979467D01*
X94845624Y-92060835D01*
X94774497Y-92063823D01*
X94221791Y-92083314D01*
X91683207Y-93155310D01*
X89144624Y-94227305D01*
X88894174Y-93915744D01*
X88741284Y-93707076D01*
X88645153Y-93522369D01*
X88585495Y-93321841D01*
X88581332Y-93302194D01*
X88549101Y-93044585D01*
X88839055Y-93044585D01*
X88877657Y-93260201D01*
X88941145Y-93436871D01*
X89026379Y-93606505D01*
X89117700Y-93743521D01*
X89199445Y-93822336D01*
X89227690Y-93831959D01*
X89284794Y-93813550D01*
X89424284Y-93759702D01*
X89636623Y-93674344D01*
X89912271Y-93561403D01*
X90241689Y-93424808D01*
X90615340Y-93268487D01*
X91023683Y-93096368D01*
X91352675Y-92956850D01*
X91856125Y-92742076D01*
X92273248Y-92562383D01*
X92610224Y-92414865D01*
X92873229Y-92296617D01*
X93068444Y-92204736D01*
X93202047Y-92136314D01*
X93280215Y-92088448D01*
X93309126Y-92058234D01*
X93296149Y-92043099D01*
X93219221Y-92025063D01*
X93059040Y-91990839D01*
X92829190Y-91943134D01*
X92543251Y-91884656D01*
X92214807Y-91818113D01*
X91857440Y-91746210D01*
X91484734Y-91671655D01*
X91110269Y-91597156D01*
X90747629Y-91525418D01*
X90410396Y-91459149D01*
X90112152Y-91401057D01*
X89866479Y-91353848D01*
X89686962Y-91320229D01*
X89587181Y-91302907D01*
X89573740Y-91301205D01*
X89507809Y-91336388D01*
X89408218Y-91433682D01*
X89297981Y-91570124D01*
X89081170Y-91927190D01*
X88928945Y-92305892D01*
X88846508Y-92685326D01*
X88839055Y-93044585D01*
X88549101Y-93044585D01*
X88543069Y-92996372D01*
X88544270Y-92674038D01*
X88545553Y-92664281D01*
X88583261Y-92377677D01*
X88623510Y-92231658D01*
X88653532Y-92118451D01*
X88650886Y-92008573D01*
X88611496Y-91865929D01*
X88569345Y-91751711D01*
X88509473Y-91576441D01*
X88478455Y-91418280D01*
X88472449Y-91260614D01*
X88776895Y-91260614D01*
X88789633Y-91439246D01*
X88814903Y-91542208D01*
X88850046Y-91608178D01*
X88883573Y-91620818D01*
X88934141Y-91570636D01*
X89020408Y-91448133D01*
X89031376Y-91432040D01*
X89145950Y-91274648D01*
X89261920Y-91131901D01*
X89314605Y-91074672D01*
X89439186Y-90950155D01*
X91292576Y-91324668D01*
X91805391Y-91428099D01*
X92228381Y-91512801D01*
X92569681Y-91580136D01*
X92837426Y-91631465D01*
X93039752Y-91668151D01*
X93184793Y-91691553D01*
X93280688Y-91703033D01*
X93335569Y-91703952D01*
X93357573Y-91695672D01*
X93354836Y-91679554D01*
X93346110Y-91668270D01*
X93296141Y-91629901D01*
X93172510Y-91541933D01*
X92984430Y-91410728D01*
X92741113Y-91242643D01*
X92451776Y-91044038D01*
X92125631Y-90821272D01*
X91771893Y-90580708D01*
X91687274Y-90523308D01*
X90072546Y-89428522D01*
X89905841Y-89500469D01*
X89715992Y-89611049D01*
X89499795Y-89781148D01*
X89283964Y-89985523D01*
X89095213Y-90198931D01*
X88962763Y-90391594D01*
X88871298Y-90576679D01*
X88817509Y-90751625D01*
X88788266Y-90963953D01*
X88782092Y-91045360D01*
X88776895Y-91260614D01*
X88472449Y-91260614D01*
X88471565Y-91237418D01*
X88482060Y-91024379D01*
X88482339Y-91018699D01*
X88499819Y-90808919D01*
X88525476Y-90654046D01*
X88570939Y-90518329D01*
X88647837Y-90366016D01*
X88753355Y-90185495D01*
X88897305Y-89921601D01*
X88983856Y-89709915D01*
X89007536Y-89596854D01*
X89055197Y-89387940D01*
X89377157Y-89387940D01*
X89415905Y-89413776D01*
X89526482Y-89374989D01*
X89713526Y-89274647D01*
X89714328Y-89274187D01*
X89883570Y-89183936D01*
X90022923Y-89122169D01*
X90107838Y-89099410D01*
X90117853Y-89101128D01*
X90170192Y-89134089D01*
X90296163Y-89217260D01*
X90486739Y-89344571D01*
X90732894Y-89509950D01*
X91025600Y-89707329D01*
X91355831Y-89930638D01*
X91714561Y-90173806D01*
X91868891Y-90278590D01*
X92234973Y-90527000D01*
X92574764Y-90757068D01*
X92879498Y-90962893D01*
X93140411Y-91138581D01*
X93348736Y-91278233D01*
X93495707Y-91375950D01*
X93572560Y-91425838D01*
X93581873Y-91431115D01*
X93560356Y-91394880D01*
X93488335Y-91295300D01*
X93377118Y-91147638D01*
X93239125Y-90968579D01*
X93110837Y-90803410D01*
X92933769Y-90575000D01*
X92720244Y-90299268D01*
X92482584Y-89992132D01*
X92233115Y-89669513D01*
X91992115Y-89357634D01*
X91106014Y-88210495D01*
X90858109Y-88257685D01*
X90468723Y-88370587D01*
X90106420Y-88549414D01*
X89792775Y-88780344D01*
X89549361Y-89049550D01*
X89496595Y-89130123D01*
X89405600Y-89294412D01*
X89377157Y-89387940D01*
X89055197Y-89387940D01*
X89060253Y-89365780D01*
X89071554Y-89316247D01*
X89215926Y-89024327D01*
X89425522Y-88739488D01*
X89685211Y-88480125D01*
X89979861Y-88264634D01*
X90197268Y-88150425D01*
X90419673Y-88064801D01*
X90664376Y-87989992D01*
X90899217Y-87934155D01*
X91092039Y-87905448D01*
X91168168Y-87904152D01*
X91224920Y-87946486D01*
X91340386Y-88069585D01*
X91514471Y-88273334D01*
X91747080Y-88557618D01*
X92038118Y-88922319D01*
X92387492Y-89367323D01*
X92795108Y-89892514D01*
X92818462Y-89922749D01*
X94372088Y-91934587D01*
X94621408Y-91753861D01*
X94759584Y-91636375D01*
X95343375Y-91636375D01*
X95371111Y-91652724D01*
X95467018Y-91643008D01*
X95644105Y-91607394D01*
X95687654Y-91597791D01*
X96255001Y-91421607D01*
X96795972Y-91155670D01*
X97301488Y-90808723D01*
X97762463Y-90389506D01*
X98169813Y-89906761D01*
X98514459Y-89369230D01*
X98787316Y-88785654D01*
X98879179Y-88526263D01*
X98929903Y-88357808D01*
X98961890Y-88230389D01*
X98968694Y-88169929D01*
X98968054Y-88168866D01*
X98911972Y-88165231D01*
X98803039Y-88186750D01*
X98800310Y-88187488D01*
X98480420Y-88239733D01*
X98102241Y-88245513D01*
X97694552Y-88207541D01*
X97286134Y-88128532D01*
X96905766Y-88011206D01*
X96896953Y-88007840D01*
X96588813Y-87889504D01*
X96608023Y-88175409D01*
X96613050Y-88490208D01*
X96593176Y-88849046D01*
X96552417Y-89213679D01*
X96494781Y-89545864D01*
X96442627Y-89751580D01*
X96287470Y-90198275D01*
X96107425Y-90590159D01*
X95885866Y-90955815D01*
X95606161Y-91323819D01*
X95370801Y-91593801D01*
X95343375Y-91636375D01*
X94759584Y-91636375D01*
X94803947Y-91598655D01*
X95095879Y-91350437D01*
X95493261Y-90887902D01*
G37*
G36*
X92524315Y-82791976D02*
G01*
X92570859Y-82730234D01*
X92696334Y-82700787D01*
X92864577Y-82687420D01*
X93295646Y-82618766D01*
X93747939Y-82472102D01*
X94198999Y-82259373D01*
X94626371Y-81992527D01*
X95007600Y-81683509D01*
X95268995Y-81408269D01*
X95384108Y-81275896D01*
X95476979Y-81181176D01*
X95527837Y-81144241D01*
X95528288Y-81144231D01*
X95576857Y-81170622D01*
X95697312Y-81244600D01*
X95878096Y-81358639D01*
X96107650Y-81505216D01*
X96374420Y-81676805D01*
X96666845Y-81865882D01*
X96973369Y-82064921D01*
X97282436Y-82266399D01*
X97582487Y-82462791D01*
X97861966Y-82646572D01*
X98109314Y-82810216D01*
X98312975Y-82946200D01*
X98461393Y-83047000D01*
X98543007Y-83105089D01*
X98553752Y-83114038D01*
X98551196Y-83178106D01*
X98485752Y-83294843D01*
X98369014Y-83450188D01*
X98212572Y-83630084D01*
X98028021Y-83820473D01*
X97826954Y-84007292D01*
X97792539Y-84037191D01*
X97299326Y-84401582D01*
X96779422Y-84670032D01*
X96233958Y-84842129D01*
X95664059Y-84917462D01*
X95374365Y-84918861D01*
X95135638Y-84905127D01*
X94912032Y-84883161D01*
X94737358Y-84856665D01*
X94677989Y-84842595D01*
X94161649Y-84641057D01*
X93688766Y-84361070D01*
X93271400Y-84012921D01*
X92921611Y-83606895D01*
X92651460Y-83153277D01*
X92621718Y-83088884D01*
X92596055Y-83027322D01*
X92950661Y-83027322D01*
X92961487Y-83096516D01*
X93025430Y-83216401D01*
X93147511Y-83398511D01*
X93186045Y-83452796D01*
X93517623Y-83833441D01*
X93919147Y-84154337D01*
X94372068Y-84402310D01*
X94686055Y-84518392D01*
X95011976Y-84586329D01*
X95388134Y-84616254D01*
X95771989Y-84607467D01*
X96121002Y-84559272D01*
X96190016Y-84543020D01*
X96611416Y-84407026D01*
X96996626Y-84220340D01*
X97373468Y-83967679D01*
X97649550Y-83741305D01*
X97829021Y-83579216D01*
X97977413Y-83435295D01*
X98079859Y-83324673D01*
X98121491Y-83262478D01*
X98121721Y-83260753D01*
X98082249Y-83213145D01*
X97966306Y-83118577D01*
X97782236Y-82983053D01*
X97538389Y-82812579D01*
X97243112Y-82613164D01*
X96988348Y-82445235D01*
X96681684Y-82244981D01*
X96397365Y-82059257D01*
X96147700Y-81896109D01*
X95944999Y-81763583D01*
X95801575Y-81669724D01*
X95730150Y-81622854D01*
X95679785Y-81594201D01*
X95629988Y-81586992D01*
X95566411Y-81609524D01*
X95474703Y-81670092D01*
X95340517Y-81776995D01*
X95149503Y-81938529D01*
X95077224Y-82000381D01*
X94825362Y-82209928D01*
X94616853Y-82366352D01*
X94424532Y-82487432D01*
X94221234Y-82590944D01*
X94079236Y-82653474D01*
X93843445Y-82747615D01*
X93605582Y-82833388D01*
X93403634Y-82897426D01*
X93334129Y-82915700D01*
X93169132Y-82954471D01*
X93039168Y-82985115D01*
X92987938Y-82997278D01*
X92950661Y-83027322D01*
X92596055Y-83027322D01*
X92585408Y-83001781D01*
X92545126Y-82905148D01*
X92524315Y-82791976D01*
G37*
G36*
X94784779Y-85106738D02*
G01*
X95370760Y-85149300D01*
X95815795Y-85166835D01*
X96169039Y-85148036D01*
X96281980Y-85130897D01*
X96508626Y-85074447D01*
X96778606Y-84986154D01*
X97062234Y-84877901D01*
X97329825Y-84761570D01*
X97551693Y-84649042D01*
X97667376Y-84576381D01*
X97830684Y-84457388D01*
X98979792Y-85579339D01*
X99259114Y-85853820D01*
X99513909Y-86107591D01*
X99735660Y-86331897D01*
X99915844Y-86517983D01*
X100045939Y-86657096D01*
X100117425Y-86740481D01*
X100128682Y-86759668D01*
X100085875Y-86835102D01*
X99970229Y-86938879D01*
X99800274Y-87058702D01*
X99594538Y-87182263D01*
X99371551Y-87297265D01*
X99215718Y-87365840D01*
X98716164Y-87519095D01*
X98206028Y-87576609D01*
X97676279Y-87538963D01*
X97391577Y-87482334D01*
X96872272Y-87307659D01*
X96378292Y-87042797D01*
X95919727Y-86696388D01*
X95506664Y-86277078D01*
X95149195Y-85793510D01*
X94984219Y-85497266D01*
X95309248Y-85497266D01*
X95402869Y-85650320D01*
X95539697Y-85842317D01*
X95728969Y-86066881D01*
X95943899Y-86295562D01*
X96157704Y-86499910D01*
X96343600Y-86651473D01*
X96348927Y-86655231D01*
X96835986Y-86949456D01*
X97322446Y-87146552D01*
X97816720Y-87248983D01*
X98327223Y-87259211D01*
X98393828Y-87254021D01*
X98601301Y-87221649D01*
X98834482Y-87163089D01*
X99073235Y-87086258D01*
X99297417Y-86999075D01*
X99486890Y-86909455D01*
X99621513Y-86825317D01*
X99681148Y-86754576D01*
X99682299Y-86747514D01*
X99648746Y-86702998D01*
X99552736Y-86598463D01*
X99403610Y-86443493D01*
X99210709Y-86247674D01*
X98983373Y-86020591D01*
X98742418Y-85783068D01*
X97799683Y-84859448D01*
X97648389Y-84951992D01*
X97471153Y-85043540D01*
X97229049Y-85146430D01*
X96954502Y-85248907D01*
X96679938Y-85339219D01*
X96437786Y-85405611D01*
X96341362Y-85425748D01*
X96124037Y-85455647D01*
X95868785Y-85478681D01*
X95673057Y-85488406D01*
X95309248Y-85497266D01*
X94984219Y-85497266D01*
X94971049Y-85473617D01*
X94901896Y-85349440D01*
X94784779Y-85106738D01*
G37*
G36*
X89632735Y-80605443D02*
G01*
X90138165Y-80447829D01*
X90567489Y-80249721D01*
X90940610Y-79998594D01*
X91277432Y-79681926D01*
X91479952Y-79443134D01*
X91770638Y-79012521D01*
X91965503Y-78579630D01*
X91997936Y-78476384D01*
X92047283Y-78332866D01*
X92094052Y-78270751D01*
X92147282Y-78271129D01*
X92548243Y-78428620D01*
X92967863Y-78594111D01*
X93395957Y-78763523D01*
X93822338Y-78932784D01*
X94236821Y-79097817D01*
X94629221Y-79254549D01*
X94989351Y-79398903D01*
X95307027Y-79526805D01*
X95572063Y-79634182D01*
X95774274Y-79716955D01*
X95903473Y-79771052D01*
X95949384Y-79792251D01*
X95943615Y-79854772D01*
X95890191Y-79981220D01*
X95799284Y-80153932D01*
X95681060Y-80355246D01*
X95545690Y-80567500D01*
X95403344Y-80773033D01*
X95322463Y-80881079D01*
X95010835Y-81237158D01*
X94644715Y-81580173D01*
X94256316Y-81882203D01*
X93931498Y-82086529D01*
X93406842Y-82320631D01*
X92842605Y-82471589D01*
X92258527Y-82536768D01*
X91674346Y-82513528D01*
X91270841Y-82442027D01*
X91024143Y-82362732D01*
X90734700Y-82238451D01*
X90437992Y-82086502D01*
X90169496Y-81924195D01*
X90076423Y-81859131D01*
X89873430Y-81689105D01*
X89646372Y-81466766D01*
X89425385Y-81223838D01*
X89240603Y-80992046D01*
X89224248Y-80968884D01*
X89622747Y-80968884D01*
X89647363Y-81024452D01*
X89731590Y-81127249D01*
X89858476Y-81260171D01*
X90011071Y-81406116D01*
X90172424Y-81547984D01*
X90290523Y-81642586D01*
X90499631Y-81777129D01*
X90768276Y-81915990D01*
X91058420Y-82041595D01*
X91332025Y-82136372D01*
X91398628Y-82154522D01*
X91623155Y-82193213D01*
X91908496Y-82216986D01*
X92216425Y-82224770D01*
X92508718Y-82215494D01*
X92726431Y-82191739D01*
X93104902Y-82094703D01*
X93513302Y-81932727D01*
X93922395Y-81721487D01*
X94302945Y-81476661D01*
X94625717Y-81213928D01*
X94715302Y-81125197D01*
X94877598Y-80944180D01*
X95043144Y-80741521D01*
X95200867Y-80533130D01*
X95339692Y-80334919D01*
X95448548Y-80162796D01*
X95516360Y-80032671D01*
X95532052Y-79960455D01*
X95529307Y-79955692D01*
X95474819Y-79927160D01*
X95340790Y-79868809D01*
X95140256Y-79785707D01*
X94886254Y-79682923D01*
X94591819Y-79565527D01*
X94269988Y-79438588D01*
X93933796Y-79307177D01*
X93596280Y-79176361D01*
X93270478Y-79051210D01*
X92969424Y-78936794D01*
X92706153Y-78838181D01*
X92493705Y-78760442D01*
X92345114Y-78708646D01*
X92273415Y-78687862D01*
X92269240Y-78687963D01*
X92223157Y-78753329D01*
X92220713Y-78768464D01*
X92195307Y-78833749D01*
X92130064Y-78963777D01*
X92036030Y-79137209D01*
X91964443Y-79263554D01*
X91662820Y-79700831D01*
X91295242Y-80090319D01*
X90878314Y-80418876D01*
X90428646Y-80673361D01*
X89975495Y-80837374D01*
X89805882Y-80886894D01*
X89679492Y-80933835D01*
X89623046Y-80968234D01*
X89622747Y-80968884D01*
X89224248Y-80968884D01*
X89205372Y-80942153D01*
X89203607Y-80939575D01*
X89073398Y-80749356D01*
X89632735Y-80605443D01*
G37*
G36*
X82767014Y-77115277D02*
G01*
X82635158Y-77042716D01*
X82526443Y-76960517D01*
X82417537Y-76853329D01*
X82285108Y-76705802D01*
X82263223Y-76680898D01*
X82099256Y-76478671D01*
X81955388Y-76273014D01*
X81853330Y-76095779D01*
X81832564Y-76049055D01*
X81757222Y-75744090D01*
X81754894Y-75472541D01*
X82060791Y-75472541D01*
X82083640Y-75772390D01*
X82203415Y-76079380D01*
X82421116Y-76395804D01*
X82505815Y-76493072D01*
X82633557Y-76626089D01*
X82752622Y-76727391D01*
X82889126Y-76813639D01*
X83069179Y-76901491D01*
X83300229Y-76999909D01*
X83539749Y-77096650D01*
X83719759Y-77160482D01*
X83872316Y-77198696D01*
X84029477Y-77218578D01*
X84223299Y-77227415D01*
X84309323Y-77229318D01*
X84531140Y-77229832D01*
X84726291Y-77223454D01*
X84865303Y-77211439D01*
X84903763Y-77203945D01*
X84948238Y-77182537D01*
X84930990Y-77155939D01*
X84840796Y-77117776D01*
X84666433Y-77061674D01*
X84638123Y-77053071D01*
X84096818Y-76840148D01*
X83572815Y-76538034D01*
X83083355Y-76157536D01*
X82845010Y-75928991D01*
X82664658Y-75738496D01*
X82500998Y-75557324D01*
X82372017Y-75405914D01*
X82295698Y-75304713D01*
X82295558Y-75304493D01*
X82207979Y-75197014D01*
X82140841Y-75185253D01*
X82092814Y-75270165D01*
X82062567Y-75452699D01*
X82060791Y-75472541D01*
X81754894Y-75472541D01*
X81754711Y-75451138D01*
X81754447Y-75420234D01*
X81822583Y-75114474D01*
X81880163Y-74984678D01*
X81945044Y-74856111D01*
X81965082Y-74766391D01*
X81942511Y-74667641D01*
X81899914Y-74561136D01*
X81840473Y-74348796D01*
X81805674Y-74082230D01*
X81798164Y-73804766D01*
X81820595Y-73559731D01*
X81834691Y-73494618D01*
X81922405Y-73313567D01*
X82078409Y-73129181D01*
X82275530Y-72967901D01*
X82486593Y-72856168D01*
X82493435Y-72853648D01*
X82711138Y-72799530D01*
X83010294Y-72761271D01*
X83373651Y-72738673D01*
X83783962Y-72731538D01*
X84223974Y-72739671D01*
X84676438Y-72762875D01*
X85124104Y-72800955D01*
X85549720Y-72853712D01*
X85780431Y-72891093D01*
X86377531Y-72998349D01*
X86886783Y-73091233D01*
X87318961Y-73171875D01*
X87684846Y-73242400D01*
X87995215Y-73304940D01*
X88260849Y-73361621D01*
X88492525Y-73414571D01*
X88701021Y-73465919D01*
X88731553Y-73473767D01*
X89048994Y-73555035D01*
X89410333Y-73646338D01*
X89762596Y-73734338D01*
X89962928Y-73783774D01*
X90252969Y-73856384D01*
X90559599Y-73935667D01*
X90842002Y-74010948D01*
X91021196Y-74060588D01*
X91253743Y-74120510D01*
X91566448Y-74191892D01*
X91940607Y-74271134D01*
X92357516Y-74354635D01*
X92798472Y-74438796D01*
X93244772Y-74520017D01*
X93677716Y-74594697D01*
X94078596Y-74659237D01*
X94310050Y-74693609D01*
X94686947Y-74743399D01*
X95115274Y-74793421D01*
X95578519Y-74842306D01*
X96060170Y-74888677D01*
X96543715Y-74931164D01*
X97012644Y-74968391D01*
X97450443Y-74998987D01*
X97840601Y-75021579D01*
X98166606Y-75034792D01*
X98411947Y-75037255D01*
X98436128Y-75036739D01*
X98662642Y-75026274D01*
X98902800Y-75005379D01*
X99164192Y-74972360D01*
X99454415Y-74925529D01*
X99781061Y-74863192D01*
X100151725Y-74783659D01*
X100574000Y-74685239D01*
X101055480Y-74566241D01*
X101603760Y-74424972D01*
X102226433Y-74259740D01*
X102931094Y-74068858D01*
X103572933Y-73892691D01*
X104083840Y-73760404D01*
X104526221Y-73666348D01*
X104922667Y-73607544D01*
X105295767Y-73581011D01*
X105668107Y-73583770D01*
X105839865Y-73593663D01*
X106108511Y-73617129D01*
X106290212Y-73645710D01*
X106398020Y-73684228D01*
X106444987Y-73737505D01*
X106444166Y-73810361D01*
X106442656Y-73816320D01*
X106422986Y-73854643D01*
X106377020Y-73880107D01*
X106288235Y-73894752D01*
X106140110Y-73900620D01*
X105916121Y-73899752D01*
X105784140Y-73897672D01*
X105421278Y-73896620D01*
X105100284Y-73909773D01*
X104795398Y-73940852D01*
X104480859Y-73993574D01*
X104130903Y-74071660D01*
X103719773Y-74178830D01*
X103591093Y-74214303D01*
X102737826Y-74449158D01*
X101974567Y-74654000D01*
X101296304Y-74829979D01*
X100698026Y-74978249D01*
X100174721Y-75099964D01*
X99721380Y-75196275D01*
X99332989Y-75268336D01*
X99004536Y-75317297D01*
X98731014Y-75344313D01*
X98661125Y-75348214D01*
X98426739Y-75350744D01*
X98109135Y-75342397D01*
X97724366Y-75324396D01*
X97288477Y-75297968D01*
X96817520Y-75264338D01*
X96327542Y-75224731D01*
X95834594Y-75180374D01*
X95354722Y-75132490D01*
X94903976Y-75082307D01*
X94498405Y-75031048D01*
X94487015Y-75029495D01*
X94083690Y-74970504D01*
X93633638Y-74898102D01*
X93155339Y-74815809D01*
X92667275Y-74727140D01*
X92187923Y-74635616D01*
X91735766Y-74544755D01*
X91329280Y-74458075D01*
X90986948Y-74379093D01*
X90752550Y-74318503D01*
X90349714Y-74209186D01*
X89890736Y-74090484D01*
X89396171Y-73967246D01*
X88886569Y-73844318D01*
X88382488Y-73726547D01*
X87904479Y-73618781D01*
X87473095Y-73525869D01*
X87108890Y-73452656D01*
X86980420Y-73428861D01*
X86641289Y-73368194D01*
X86290628Y-73305444D01*
X85958377Y-73245972D01*
X85674479Y-73195137D01*
X85525713Y-73168485D01*
X85190383Y-73120612D01*
X84792003Y-73083103D01*
X84360262Y-73057110D01*
X83924847Y-73043783D01*
X83515444Y-73044274D01*
X83161738Y-73059731D01*
X83029921Y-73071737D01*
X82731998Y-73118769D01*
X82510104Y-73189210D01*
X82341343Y-73291839D01*
X82261907Y-73366219D01*
X82196110Y-73491519D01*
X82152323Y-73683133D01*
X82131615Y-73909587D01*
X82135049Y-74139412D01*
X82163695Y-74341139D01*
X82218619Y-74483297D01*
X82223799Y-74490642D01*
X82268605Y-74475078D01*
X82369414Y-74414892D01*
X82464887Y-74350526D01*
X82845204Y-74131058D01*
X83265690Y-73980711D01*
X83731588Y-73899426D01*
X84248145Y-73887143D01*
X84820604Y-73943804D01*
X85454209Y-74069349D01*
X86154204Y-74263721D01*
X86292449Y-74307557D01*
X86526674Y-74379005D01*
X86837444Y-74467592D01*
X87203923Y-74567722D01*
X87605276Y-74673799D01*
X88020665Y-74780224D01*
X88425502Y-74880492D01*
X88845045Y-74984546D01*
X89280926Y-75096474D01*
X89709998Y-75210064D01*
X90109117Y-75319104D01*
X90455137Y-75417379D01*
X90705307Y-75492512D01*
X91266646Y-75663427D01*
X91866099Y-75837471D01*
X92487433Y-76010489D01*
X93114413Y-76178324D01*
X93730804Y-76336819D01*
X94320371Y-76481817D01*
X94866880Y-76609163D01*
X95354097Y-76714699D01*
X95765787Y-76794269D01*
X95839214Y-76806968D01*
X96478401Y-76882046D01*
X97141478Y-76899767D01*
X97800996Y-76861718D01*
X98429510Y-76769489D01*
X98999571Y-76624667D01*
X99001897Y-76623920D01*
X99218013Y-76566723D01*
X99466375Y-76519996D01*
X99721306Y-76486401D01*
X99957123Y-76468599D01*
X100148148Y-76469255D01*
X100268698Y-76491031D01*
X100271483Y-76492281D01*
X100347696Y-76565712D01*
X100361145Y-76595292D01*
X100349453Y-76689432D01*
X100246421Y-76753765D01*
X100050301Y-76789001D01*
X99862544Y-76796704D01*
X99390107Y-76847960D01*
X99085767Y-76928545D01*
X98477999Y-77082851D01*
X97809305Y-77177976D01*
X97100513Y-77212326D01*
X96372451Y-77184307D01*
X96096919Y-77157190D01*
X95737433Y-77105158D01*
X95293914Y-77023175D01*
X94776886Y-76913844D01*
X94196866Y-76779767D01*
X93564380Y-76623549D01*
X92889944Y-76447794D01*
X92184083Y-76255104D01*
X91457315Y-76048083D01*
X90720162Y-75829335D01*
X90672965Y-75815023D01*
X90284145Y-75700484D01*
X89829271Y-75572230D01*
X89339785Y-75438767D01*
X88847133Y-75308600D01*
X88382761Y-75190233D01*
X88166455Y-75137031D01*
X87769205Y-75038590D01*
X87364551Y-74934356D01*
X86974416Y-74830262D01*
X86620732Y-74732243D01*
X86325424Y-74646230D01*
X86149613Y-74591260D01*
X85603635Y-74431501D01*
X85064572Y-74310785D01*
X84554182Y-74232759D01*
X84094221Y-74201068D01*
X83850377Y-74205882D01*
X83490094Y-74256755D01*
X83134673Y-74358364D01*
X82814367Y-74499599D01*
X82559426Y-74669353D01*
X82538560Y-74687587D01*
X82358599Y-74849420D01*
X82510218Y-75067683D01*
X82607109Y-75192696D01*
X82753537Y-75364275D01*
X82928354Y-75558252D01*
X83082490Y-75721669D01*
X83529812Y-76124965D01*
X84017187Y-76444839D01*
X84561463Y-76691534D01*
X84822636Y-76779328D01*
X84914150Y-76806511D01*
X85004271Y-76830670D01*
X85101004Y-76852586D01*
X85212355Y-76873041D01*
X85346329Y-76892816D01*
X85510930Y-76912692D01*
X85714167Y-76933453D01*
X85964042Y-76955877D01*
X86268562Y-76980748D01*
X86635731Y-77008847D01*
X87073556Y-77040954D01*
X87590041Y-77077853D01*
X88193192Y-77120324D01*
X88625753Y-77150607D01*
X91981121Y-77385237D01*
X91928083Y-77719853D01*
X91799622Y-78225869D01*
X91584415Y-78709557D01*
X91293626Y-79159380D01*
X90938417Y-79563799D01*
X90529950Y-79911275D01*
X90079390Y-80190272D01*
X89597898Y-80389253D01*
X89265706Y-80471668D01*
X88878494Y-80516435D01*
X88467428Y-80520495D01*
X88081982Y-80484174D01*
X87967145Y-80463023D01*
X87461293Y-80305764D01*
X86980000Y-80059268D01*
X86536541Y-79733656D01*
X86144189Y-79339051D01*
X85816217Y-78885574D01*
X85750486Y-78772576D01*
X85660821Y-78587789D01*
X85568360Y-78358200D01*
X85481677Y-78110333D01*
X85409343Y-77870712D01*
X85359930Y-77665861D01*
X85342012Y-77522303D01*
X85342416Y-77509948D01*
X85341100Y-77435641D01*
X85335338Y-77422386D01*
X85284242Y-77432946D01*
X85162292Y-77460852D01*
X84995860Y-77500069D01*
X84995418Y-77500174D01*
X84646795Y-77551359D01*
X84246758Y-77555267D01*
X84231591Y-77554476D01*
X84030177Y-77539456D01*
X83856963Y-77513939D01*
X83682496Y-77470504D01*
X83481771Y-77403220D01*
X85659489Y-77403220D01*
X85660931Y-77542268D01*
X85697030Y-77745414D01*
X85760399Y-77986026D01*
X85843655Y-78237472D01*
X85939411Y-78473118D01*
X85979262Y-78556398D01*
X86238163Y-78969219D01*
X86574676Y-79351815D01*
X86966935Y-79684141D01*
X87393073Y-79946156D01*
X87595880Y-80038128D01*
X87970226Y-80148584D01*
X88394547Y-80207627D01*
X88831352Y-80212315D01*
X89215955Y-80165306D01*
X89716651Y-80015624D01*
X90182847Y-79777884D01*
X90604664Y-79460953D01*
X90972220Y-79073693D01*
X91275639Y-78624968D01*
X91505039Y-78123645D01*
X91511487Y-78105590D01*
X91568195Y-77927471D01*
X91601732Y-77785366D01*
X91606243Y-77705264D01*
X91603088Y-77698902D01*
X91547773Y-77687977D01*
X91401502Y-77671516D01*
X91173125Y-77650221D01*
X90871495Y-77624790D01*
X90505460Y-77595923D01*
X90083873Y-77564320D01*
X89615581Y-77530682D01*
X89109437Y-77495707D01*
X88625086Y-77463418D01*
X85684269Y-77270712D01*
X85659489Y-77403220D01*
X83481771Y-77403220D01*
X83477326Y-77401730D01*
X83212006Y-77300193D01*
X83193475Y-77292876D01*
X83005523Y-77217637D01*
X82945342Y-77193546D01*
X82767014Y-77115277D01*
G37*
G36*
X86850911Y-77797046D02*
G01*
X86969419Y-77886860D01*
X87038009Y-78027038D01*
X87038336Y-78183816D01*
X86981687Y-78329053D01*
X86879347Y-78434608D01*
X86742605Y-78472336D01*
X86734778Y-78471918D01*
X86634049Y-78435052D01*
X86520094Y-78355131D01*
X86517555Y-78352845D01*
X86419121Y-78207193D01*
X86412891Y-78048378D01*
X86498000Y-77899815D01*
X86535591Y-77865261D01*
X86696756Y-77782694D01*
X86850911Y-77797046D01*
G37*
D13*
%TO.C,U1*%
X157440853Y-18789897D02*
X159980853Y-18789897D01*
X142200853Y-18789897D02*
X142200853Y-16249897D01*
X142200853Y-49269897D02*
X142200853Y-18789897D01*
X159980853Y-18789897D02*
X159980853Y-49269897D01*
X157440853Y-21329897D02*
X159980853Y-21329897D01*
X159980853Y-16249897D02*
X159980853Y-18789897D01*
X157440853Y-18789897D02*
X157440853Y-21329897D01*
X142200853Y-16249897D02*
X159980853Y-16249897D01*
X159980853Y-49269897D02*
X142200853Y-49269897D01*
D12*
X146159285Y-25269257D02*
X146159285Y-25469257D01*
X146159285Y-25469257D02*
X146259285Y-25469257D01*
X146259285Y-25469257D02*
X146259285Y-25269257D01*
X146259285Y-25269257D02*
X146159285Y-25269257D01*
G36*
X146259285Y-25469257D02*
G01*
X146159285Y-25469257D01*
X146159285Y-25269257D01*
X146259285Y-25269257D01*
X146259285Y-25469257D01*
G37*
X146259285Y-25469257D02*
X146159285Y-25469257D01*
X146159285Y-25269257D01*
X146259285Y-25269257D01*
X146259285Y-25469257D01*
X146559285Y-24669257D02*
X146559285Y-25469257D01*
X146559285Y-25469257D02*
X146659285Y-25469257D01*
X146659285Y-25469257D02*
X146659285Y-24669257D01*
X146659285Y-24669257D02*
X146559285Y-24669257D01*
G36*
X146659285Y-25469257D02*
G01*
X146559285Y-25469257D01*
X146559285Y-24669257D01*
X146659285Y-24669257D01*
X146659285Y-25469257D01*
G37*
X146659285Y-25469257D02*
X146559285Y-25469257D01*
X146559285Y-24669257D01*
X146659285Y-24669257D01*
X146659285Y-25469257D01*
X146159285Y-24669257D02*
X146159285Y-24769257D01*
X146159285Y-24769257D02*
X146659285Y-24769257D01*
X146659285Y-24769257D02*
X146659285Y-24669257D01*
X146659285Y-24669257D02*
X146159285Y-24669257D01*
G36*
X146659285Y-24769257D02*
G01*
X146159285Y-24769257D01*
X146159285Y-24669257D01*
X146659285Y-24669257D01*
X146659285Y-24769257D01*
G37*
X146659285Y-24769257D02*
X146159285Y-24769257D01*
X146159285Y-24669257D01*
X146659285Y-24669257D01*
X146659285Y-24769257D01*
X146359285Y-25069257D02*
X146359285Y-25169257D01*
X146359285Y-25169257D02*
X146459285Y-25169257D01*
X146459285Y-25169257D02*
X146459285Y-25069257D01*
X146459285Y-25069257D02*
X146359285Y-25069257D01*
G36*
X146459285Y-25169257D02*
G01*
X146359285Y-25169257D01*
X146359285Y-25069257D01*
X146459285Y-25069257D01*
X146459285Y-25169257D01*
G37*
X146459285Y-25169257D02*
X146359285Y-25169257D01*
X146359285Y-25069257D01*
X146459285Y-25069257D01*
X146459285Y-25169257D01*
X146159285Y-24669257D02*
X146159285Y-24969257D01*
X146159285Y-24969257D02*
X146259285Y-24969257D01*
X146259285Y-24969257D02*
X146259285Y-24669257D01*
X146259285Y-24669257D02*
X146159285Y-24669257D01*
G36*
X146259285Y-24969257D02*
G01*
X146159285Y-24969257D01*
X146159285Y-24669257D01*
X146259285Y-24669257D01*
X146259285Y-24969257D01*
G37*
X146259285Y-24969257D02*
X146159285Y-24969257D01*
X146159285Y-24669257D01*
X146259285Y-24669257D01*
X146259285Y-24969257D01*
D14*
%TO.C,J2*%
X159145193Y-66673507D02*
X159145193Y-58774107D01*
X159145193Y-78972187D02*
X159145193Y-71072787D01*
X157458633Y-63158147D02*
X157458633Y-64428147D01*
X157646593Y-66673507D02*
X157646593Y-71072787D01*
X150148513Y-58774107D02*
X150148513Y-78972187D01*
X159145193Y-66673507D02*
X157646593Y-66673507D01*
X150148513Y-78972187D02*
X159145193Y-78972187D01*
X157420533Y-63158147D02*
X157420533Y-64428147D01*
X159145193Y-71072787D02*
X159145193Y-66673507D01*
X159145193Y-58774107D02*
X150247573Y-58774107D01*
X157646593Y-71072787D02*
X159145193Y-71072787D01*
%TD*%
D15*
%TO.C,U1*%
X158710853Y-20059897D03*
D16*
X158710853Y-22599897D03*
X158710853Y-25139897D03*
X158710853Y-27679897D03*
X158710853Y-30219897D03*
X158710853Y-32759897D03*
X158710853Y-35299897D03*
X158710853Y-37839897D03*
X158710853Y-40379897D03*
X158710853Y-42919897D03*
X158710853Y-45459897D03*
X158710853Y-47999897D03*
X143470853Y-47999897D03*
X143470853Y-45459897D03*
X143470853Y-42919897D03*
X143470853Y-40379897D03*
X143470853Y-37839897D03*
X143470853Y-35299897D03*
X143470853Y-32759897D03*
X143470853Y-30219897D03*
X143470853Y-27679897D03*
X143470853Y-25139897D03*
X143470853Y-22599897D03*
X143470853Y-20059897D03*
%TD*%
M02*
