%TF.GenerationSoftware,KiCad,Pcbnew,(6.0.0)*%
%TF.CreationDate,2022-02-12T20:48:13+07:00*%
%TF.ProjectId,Shrimp42-mirrored-rev2,53687269-6d70-4343-922d-6d6972726f72,rev?*%
%TF.SameCoordinates,Original*%
%TF.FileFunction,Soldermask,Bot*%
%TF.FilePolarity,Negative*%
%FSLAX46Y46*%
G04 Gerber Fmt 4.6, Leading zero omitted, Abs format (unit mm)*
G04 Created by KiCad (PCBNEW (6.0.0)) date 2022-02-12 20:48:13*
%MOMM*%
%LPD*%
G01*
G04 APERTURE LIST*
G04 Aperture macros list*
%AMRotRect*
0 Rectangle, with rotation*
0 The origin of the aperture is its center*
0 $1 length*
0 $2 width*
0 $3 Rotation angle, in degrees counterclockwise*
0 Add horizontal line*
21,1,$1,$2,0,0,$3*%
G04 Aperture macros list end*
%ADD10RotRect,1.600000X1.200000X285.000000*%
%ADD11RotRect,1.600000X1.600000X285.000000*%
%ADD12C,1.600000*%
%ADD13RotRect,1.600000X1.200000X282.000000*%
%ADD14RotRect,1.600000X1.600000X282.000000*%
%ADD15RotRect,1.600000X1.200000X279.000000*%
%ADD16RotRect,1.600000X1.600000X279.000000*%
%ADD17RotRect,1.600000X1.200000X276.000000*%
%ADD18RotRect,1.600000X1.600000X276.000000*%
%ADD19RotRect,1.600000X1.600000X273.000000*%
%ADD20RotRect,1.600000X1.200000X273.000000*%
%ADD21R,1.200000X1.600000*%
%ADD22R,1.600000X1.600000*%
%ADD23RotRect,1.600000X1.200000X268.000000*%
%ADD24RotRect,1.600000X1.600000X268.000000*%
%ADD25RotRect,1.600000X1.200000X264.000000*%
%ADD26RotRect,1.600000X1.600000X264.000000*%
%ADD27RotRect,1.600000X1.200000X260.000000*%
%ADD28RotRect,1.600000X1.600000X260.000000*%
%ADD29C,3.000000*%
%ADD30C,1.700000*%
%ADD31C,4.000000*%
%ADD32RotRect,2.000000X2.000000X195.000000*%
%ADD33C,2.200000*%
%ADD34RotRect,2.000000X2.000000X192.000000*%
%ADD35RotRect,2.000000X2.000000X189.000000*%
%ADD36RotRect,2.000000X2.000000X186.000000*%
%ADD37RotRect,2.000000X2.000000X183.000000*%
%ADD38R,2.000000X2.000000*%
%ADD39RotRect,2.000000X2.000000X178.000000*%
%ADD40RotRect,2.000000X2.000000X174.000000*%
%ADD41RotRect,2.000000X2.000000X170.000000*%
%ADD42C,2.082800*%
%ADD43C,4.300000*%
%ADD44C,1.500000*%
%ADD45O,2.200000X1.600000*%
%ADD46R,1.752600X1.752600*%
%ADD47C,1.752600*%
G04 APERTURE END LIST*
D10*
%TO.C,D-0-0*%
X35606651Y-60143963D03*
D11*
X36253698Y-62558778D03*
D10*
X34881957Y-57439371D03*
D12*
X34234910Y-55024556D03*
%TD*%
D13*
%TO.C,D-0-1*%
X56431074Y-55485784D03*
D14*
X56950854Y-57931153D03*
D12*
X55329142Y-50301601D03*
D13*
X55848922Y-52746970D03*
%TD*%
D15*
%TO.C,D-0-2*%
X74290001Y-36560063D03*
D16*
X74681087Y-39029284D03*
D15*
X73851985Y-33794535D03*
D12*
X73460899Y-31325314D03*
%TD*%
D17*
%TO.C,D-0-3*%
X95514786Y-31813388D03*
D18*
X95776107Y-34299692D03*
D17*
X95222106Y-29028726D03*
D12*
X94960785Y-26542422D03*
%TD*%
D19*
%TO.C,D-0-4*%
X117583269Y-35447427D03*
D20*
X117452429Y-32950853D03*
D12*
X117175049Y-27658117D03*
D20*
X117305889Y-30154691D03*
%TD*%
D21*
%TO.C,D-0-5*%
X139107246Y-32741289D03*
D22*
X139107246Y-35241289D03*
D21*
X139107246Y-29941289D03*
D12*
X139107246Y-27441289D03*
%TD*%
D11*
%TO.C,D-1-0*%
X41259145Y-80847721D03*
D10*
X40612098Y-78432906D03*
X39887404Y-75728314D03*
D12*
X39240357Y-73313499D03*
%TD*%
D14*
%TO.C,D-1-1*%
X60851326Y-76573969D03*
D13*
X60331546Y-74128600D03*
X59749394Y-71389786D03*
D12*
X59229614Y-68944417D03*
%TD*%
D15*
%TO.C,D-1-2*%
X77307846Y-55316818D03*
D16*
X77698932Y-57786039D03*
D12*
X76478744Y-50082069D03*
D15*
X76869830Y-52551290D03*
%TD*%
D17*
%TO.C,D-1-3*%
X97600246Y-50713151D03*
D18*
X97861567Y-53199455D03*
D12*
X97046245Y-45442185D03*
D17*
X97307566Y-47928489D03*
%TD*%
D19*
%TO.C,D-1-4*%
X118473490Y-54375176D03*
D20*
X118342650Y-51878602D03*
D12*
X118065270Y-46585866D03*
D20*
X118196110Y-49082440D03*
%TD*%
D22*
%TO.C,D-1-5*%
X139158046Y-54392889D03*
D21*
X139158046Y-51892889D03*
D12*
X139158046Y-46592889D03*
D21*
X139158046Y-49092889D03*
%TD*%
D10*
%TO.C,D-2-0*%
X45490862Y-96896214D03*
D11*
X46137909Y-99311029D03*
D12*
X44119121Y-91776807D03*
D10*
X44766168Y-94191622D03*
%TD*%
D13*
%TO.C,D-2-1*%
X64338371Y-92811318D03*
D14*
X64858151Y-95256687D03*
D13*
X63756219Y-90072504D03*
D12*
X63236439Y-87627135D03*
%TD*%
D15*
%TO.C,D-2-2*%
X80233328Y-74183636D03*
D16*
X80624414Y-76652857D03*
D12*
X79404226Y-68948887D03*
D15*
X79795312Y-71418108D03*
%TD*%
D18*
%TO.C,D-2-3*%
X99849221Y-72156983D03*
D17*
X99587900Y-69670679D03*
D12*
X99033899Y-64399713D03*
D17*
X99295220Y-66886017D03*
%TD*%
D19*
%TO.C,D-2-4*%
X119574610Y-73444481D03*
D20*
X119443770Y-70947907D03*
X119297230Y-68151745D03*
D12*
X119166390Y-65655171D03*
%TD*%
D21*
%TO.C,D-2-5*%
X139259646Y-70892089D03*
D22*
X139259646Y-73392089D03*
D21*
X139259646Y-68092089D03*
D12*
X139259646Y-65592089D03*
%TD*%
D23*
%TO.C,D-3-3*%
X118651141Y-93199147D03*
D24*
X118563892Y-95697624D03*
D12*
X118836108Y-87902376D03*
D23*
X118748859Y-90400853D03*
%TD*%
D25*
%TO.C,D-3-4*%
X137853660Y-95192331D03*
D26*
X137592339Y-97678635D03*
D12*
X138407661Y-89921365D03*
D25*
X138146340Y-92407669D03*
%TD*%
D27*
%TO.C,D-3-5*%
X156894735Y-98478731D03*
D28*
X156460614Y-100940750D03*
D27*
X157380949Y-95721269D03*
D12*
X157815070Y-93259250D03*
%TD*%
D29*
%TO.C,K-0-0*%
X27053524Y-51036972D03*
X21577295Y-55133925D03*
D30*
X21007970Y-57916077D03*
D31*
X25914873Y-56601276D03*
D29*
X28937650Y-53161724D03*
D30*
X30821776Y-55286475D03*
D29*
X22146621Y-52351773D03*
D32*
X18592584Y-55933676D03*
D33*
X24720483Y-61880285D03*
X23472234Y-60641132D03*
X29588749Y-60575837D03*
D32*
X30009257Y-50244986D03*
D33*
X30050189Y-58878575D03*
%TD*%
D29*
%TO.C,K-0-1*%
X42601294Y-49724826D03*
D30*
X41887142Y-52473368D03*
X51825122Y-50360986D03*
D29*
X48284436Y-45920091D03*
D31*
X46856132Y-51417177D03*
D29*
X43315446Y-46976283D03*
X50054779Y-48140539D03*
D33*
X44205411Y-55323659D03*
X45387097Y-56626441D03*
D34*
X39578818Y-50367273D03*
D33*
X50316961Y-55578567D03*
D34*
X51277567Y-45283882D03*
D33*
X50866596Y-53907780D03*
%TD*%
D29*
%TO.C,K-0-2*%
X66722500Y-26522427D03*
X61705044Y-27317114D03*
X60848023Y-30024514D03*
D30*
X59991002Y-32731914D03*
D31*
X65008459Y-31937227D03*
D30*
X70025916Y-31142540D03*
D29*
X68374208Y-28832483D03*
D35*
X57796066Y-30507896D03*
D33*
X62156921Y-35699627D03*
X63268805Y-37062469D03*
D35*
X69744827Y-26043737D03*
D33*
X68246755Y-36274039D03*
X68883079Y-34634309D03*
%TD*%
D29*
%TO.C,K-0-3*%
X83460339Y-21881020D03*
D31*
X86517429Y-26667689D03*
D29*
X90041055Y-23743350D03*
X82462798Y-24539857D03*
X88512510Y-21350015D03*
D30*
X81465258Y-27198694D03*
X91569600Y-26136684D03*
D33*
X83472890Y-30275695D03*
X84511925Y-31694861D03*
D36*
X79389726Y-24862850D03*
D33*
X90245584Y-29563856D03*
D36*
X91555747Y-21030158D03*
D33*
X89524316Y-31168037D03*
%TD*%
D29*
%TO.C,K-0-4*%
X112337091Y-24644385D03*
D30*
X113738284Y-27114437D03*
D29*
X104727534Y-25043185D03*
D30*
X103592208Y-27646171D03*
D29*
X105862860Y-22440199D03*
X110935898Y-22174333D03*
D31*
X108665246Y-27380304D03*
D33*
X106399389Y-32295626D03*
X105436051Y-30824027D03*
D37*
X101641769Y-25204903D03*
X113991705Y-22014185D03*
D33*
X111432482Y-32031853D03*
X112236718Y-30467619D03*
%TD*%
D29*
%TO.C,K-0-5*%
X133310357Y-21760828D03*
X126960357Y-24300828D03*
D30*
X135850357Y-26840828D03*
D29*
X134580357Y-24300828D03*
D31*
X130770357Y-26840828D03*
D29*
X128230357Y-21760828D03*
D30*
X125690357Y-26840828D03*
D33*
X128250357Y-31630828D03*
D38*
X123870357Y-24300828D03*
D33*
X127365357Y-30110828D03*
X133290357Y-31630828D03*
D38*
X136370357Y-21760828D03*
D33*
X134175357Y-30110828D03*
%TD*%
D29*
%TO.C,K-1-0*%
X27067417Y-70641727D03*
X26498091Y-73423879D03*
D30*
X35742572Y-73576429D03*
D31*
X30835669Y-74891230D03*
D30*
X25928766Y-76206031D03*
D29*
X31974320Y-69326926D03*
X33858446Y-71451678D03*
D33*
X29641279Y-80170239D03*
D32*
X23513380Y-74223630D03*
D33*
X28393030Y-78931086D03*
D32*
X34930053Y-68534940D03*
D33*
X34970985Y-77168529D03*
X34509545Y-78865791D03*
%TD*%
D31*
%TO.C,K-1-1*%
X50816846Y-70050889D03*
D29*
X47276160Y-65609995D03*
D30*
X45847856Y-71107080D03*
X55785836Y-68994698D03*
D29*
X54015493Y-66774251D03*
X52245150Y-64553803D03*
X46562008Y-68358538D03*
D33*
X49347811Y-75260153D03*
X48166125Y-73957371D03*
D34*
X43539532Y-69000985D03*
D33*
X54827310Y-72541492D03*
X54277675Y-74212279D03*
D34*
X55238281Y-63917594D03*
%TD*%
D29*
%TO.C,K-1-2*%
X64685118Y-46132576D03*
D30*
X73005990Y-49958002D03*
D31*
X67988533Y-50752689D03*
D29*
X63828097Y-48839976D03*
X69702574Y-45337889D03*
D30*
X62971076Y-51547376D03*
D29*
X71354282Y-47647945D03*
D35*
X60776140Y-49323358D03*
D33*
X66248879Y-55877931D03*
X65136995Y-54515089D03*
X71226829Y-55089501D03*
D35*
X72724901Y-44859199D03*
D33*
X71863153Y-53449771D03*
%TD*%
D29*
%TO.C,K-1-3*%
X85451607Y-40826660D03*
D30*
X93560868Y-45082324D03*
D31*
X88508697Y-45613329D03*
D29*
X84454066Y-43485497D03*
X92032323Y-42688990D03*
D30*
X83456526Y-46144334D03*
D29*
X90503778Y-40295655D03*
D33*
X86503193Y-50640501D03*
X85464158Y-49221335D03*
D36*
X81380994Y-43808490D03*
D33*
X91515584Y-50113677D03*
D36*
X93547015Y-39975798D03*
D33*
X92236852Y-48509496D03*
%TD*%
D30*
%TO.C,K-1-4*%
X114735283Y-46138329D03*
D29*
X106859859Y-41464091D03*
X111932897Y-41198225D03*
D30*
X104589207Y-46670063D03*
D31*
X109662245Y-46404196D03*
D29*
X105724533Y-44067077D03*
X113334090Y-43668277D03*
D33*
X107396388Y-51319518D03*
D37*
X102638768Y-44228795D03*
D33*
X106433050Y-49847919D03*
X112429481Y-51055745D03*
D37*
X114988704Y-41038077D03*
D33*
X113233717Y-49491511D03*
%TD*%
D30*
%TO.C,K-1-5*%
X125690357Y-45890828D03*
D31*
X130770357Y-45890828D03*
D29*
X133310357Y-40810828D03*
X128230357Y-40810828D03*
X134580357Y-43350828D03*
D30*
X135850357Y-45890828D03*
D29*
X126960357Y-43350828D03*
D33*
X128250357Y-50680828D03*
D38*
X123870357Y-43350828D03*
D33*
X127365357Y-49160828D03*
D38*
X136370357Y-40810828D03*
D33*
X133290357Y-50680828D03*
X134175357Y-49160828D03*
%TD*%
D29*
%TO.C,K-2-0*%
X38788950Y-89852564D03*
X31997921Y-89042613D03*
X31428595Y-91824765D03*
D31*
X35766173Y-93292116D03*
D29*
X36904824Y-87727812D03*
D30*
X30859270Y-94606917D03*
X40673076Y-91977315D03*
D33*
X33323534Y-97331972D03*
X34571783Y-98571125D03*
D32*
X28443884Y-92624516D03*
D33*
X39901489Y-95569415D03*
D32*
X39860557Y-86935826D03*
D33*
X39440049Y-97266677D03*
%TD*%
D29*
%TO.C,K-2-1*%
X56205871Y-83187514D03*
D31*
X54777567Y-88684600D03*
D29*
X57976214Y-85407962D03*
X51236881Y-84243706D03*
D30*
X49808577Y-89740791D03*
X59746557Y-87628409D03*
D29*
X50522729Y-86992249D03*
D34*
X47500253Y-87634696D03*
D33*
X52126846Y-92591082D03*
X53308532Y-93893864D03*
X58788031Y-91175203D03*
D34*
X59199002Y-82551305D03*
D33*
X58238396Y-92845990D03*
%TD*%
D29*
%TO.C,K-2-2*%
X66808174Y-67655438D03*
D30*
X65951153Y-70362838D03*
D31*
X70968610Y-69568151D03*
D29*
X74334359Y-66463407D03*
X67665195Y-64948038D03*
D30*
X75986067Y-68773464D03*
D29*
X72682651Y-64153351D03*
D33*
X68117072Y-73330551D03*
X69228956Y-74693393D03*
D35*
X63756217Y-68138820D03*
D33*
X74206906Y-73904963D03*
X74843230Y-72265233D03*
D35*
X75704978Y-63674661D03*
%TD*%
D29*
%TO.C,K-2-3*%
X94023589Y-61634633D03*
D30*
X95552134Y-64027967D03*
X85447792Y-65089977D03*
D31*
X90499963Y-64558972D03*
D29*
X86445332Y-62431140D03*
X87442873Y-59772303D03*
X92495044Y-59241298D03*
D33*
X87455424Y-68166978D03*
D36*
X83372260Y-62754133D03*
D33*
X88494459Y-69586144D03*
X93506850Y-69059320D03*
D36*
X95538281Y-58921441D03*
D33*
X94228118Y-67455139D03*
%TD*%
D30*
%TO.C,K-2-4*%
X105586208Y-65693956D03*
D29*
X107856860Y-60487984D03*
D31*
X110659246Y-65428089D03*
D30*
X115732284Y-65162222D03*
D29*
X106721534Y-63090970D03*
X114331091Y-62692170D03*
X112929898Y-60222118D03*
D33*
X107430051Y-68871812D03*
X108393389Y-70343411D03*
D37*
X103635769Y-63252688D03*
X115985705Y-60061970D03*
D33*
X114230718Y-68515404D03*
X113426482Y-70079638D03*
%TD*%
D30*
%TO.C,K-2-5*%
X135850357Y-64940828D03*
D29*
X134580357Y-62400828D03*
D31*
X130770357Y-64940828D03*
D30*
X125690357Y-64940828D03*
D29*
X133310357Y-59860828D03*
X126960357Y-62400828D03*
X128230357Y-59860828D03*
D33*
X128250357Y-69730828D03*
X127365357Y-68210828D03*
D38*
X123870357Y-62400828D03*
D33*
X133290357Y-69730828D03*
X134175357Y-68210828D03*
D38*
X136370357Y-59860828D03*
%TD*%
D29*
%TO.C,K-3-3*%
X108078896Y-81834450D03*
D30*
X115516964Y-87177289D03*
D29*
X106721025Y-84328580D03*
X114336383Y-84594514D03*
D31*
X110440059Y-87000000D03*
D30*
X105363154Y-86822711D03*
D29*
X113155801Y-82011739D03*
D39*
X103632907Y-84220741D03*
D33*
X106923012Y-90149175D03*
X107754426Y-91699135D03*
D39*
X116213937Y-82118532D03*
D33*
X113728863Y-90386841D03*
X112791355Y-91875029D03*
%TD*%
D31*
%TO.C,K-3-4*%
X130100000Y-88400000D03*
D29*
X128104919Y-83082326D03*
X133157090Y-83613331D03*
D30*
X125047829Y-87868995D03*
D29*
X134154631Y-86272168D03*
X126576374Y-85475661D03*
D30*
X135152171Y-88931005D03*
D33*
X126371845Y-91296167D03*
D40*
X123503301Y-85152668D03*
D33*
X127093113Y-92900348D03*
X133144539Y-92008006D03*
X132105504Y-93427172D03*
D40*
X136200327Y-83933188D03*
%TD*%
D29*
%TO.C,K-3-5*%
X146288949Y-88036989D03*
D30*
X154602823Y-92082133D03*
D31*
X149600000Y-91200000D03*
D29*
X153793184Y-89360188D03*
D30*
X144597177Y-90317867D03*
D29*
X152983544Y-86638243D03*
X147980721Y-85756110D03*
D41*
X143245893Y-87500416D03*
D33*
X146286510Y-95479636D03*
X145678900Y-93829049D03*
X151249941Y-96354823D03*
D41*
X155997056Y-87169606D03*
D33*
X152385441Y-95011593D03*
%TD*%
D42*
%TO.C,J1*%
X146620453Y-63793147D03*
X149160453Y-63793147D03*
X146620453Y-66333147D03*
X149160453Y-66333147D03*
X146620453Y-68873147D03*
X149160453Y-68873147D03*
X146620453Y-71413147D03*
X149160453Y-71413147D03*
X146620453Y-73953147D03*
X149160453Y-73953147D03*
%TD*%
D43*
%TO.C,Ref\u002A\u002A*%
X136100000Y-76900000D03*
%TD*%
%TO.C,Ref\u002A\u002A*%
X119900000Y-38500000D03*
%TD*%
%TO.C,Ref\u002A\u002A*%
X77430853Y-41999947D03*
%TD*%
%TO.C,Ref\u002A\u002A*%
X83465259Y-82184544D03*
%TD*%
%TO.C,Ref\u002A\u002A*%
X39076853Y-65317147D03*
%TD*%
D44*
%TO.C,U2*%
X150996853Y-53393147D03*
X157996853Y-53393147D03*
X157996853Y-57993147D03*
X150996853Y-57993147D03*
D45*
X148296853Y-60293147D03*
X148296853Y-51093147D03*
X149396853Y-55693147D03*
X153396853Y-55693147D03*
X156396853Y-55693147D03*
%TD*%
D43*
%TO.C,Ref\u002A\u002A*%
X43699653Y-84925947D03*
%TD*%
D46*
%TO.C,U1*%
X158710853Y-20059897D03*
D47*
X158710853Y-22599897D03*
X158710853Y-25139897D03*
X158710853Y-27679897D03*
X158710853Y-30219897D03*
X158710853Y-32759897D03*
X158710853Y-35299897D03*
X158710853Y-37839897D03*
X158710853Y-40379897D03*
X158710853Y-42919897D03*
X158710853Y-45459897D03*
X158710853Y-47999897D03*
X143470853Y-47999897D03*
X143470853Y-45459897D03*
X143470853Y-42919897D03*
X143470853Y-40379897D03*
X143470853Y-37839897D03*
X143470853Y-35299897D03*
X143470853Y-32759897D03*
X143470853Y-30219897D03*
X143470853Y-27679897D03*
X143470853Y-25139897D03*
X143470853Y-22599897D03*
X143470853Y-20059897D03*
%TD*%
D42*
%TO.C,J2*%
X155916853Y-63793147D03*
X153376853Y-63793147D03*
X155916853Y-66333147D03*
X153376853Y-66333147D03*
X155916853Y-68873147D03*
X153376853Y-68873147D03*
X155916853Y-71413147D03*
X153376853Y-71413147D03*
X155916853Y-73953147D03*
X153376853Y-73953147D03*
%TD*%
M02*
