M48
; DRILL file {KiCad (6.0.0-0)} date 2022 February 26, Saturday 00:55:22
; FORMAT={-:-/ absolute / inch / decimal}
; #@! TF.CreationDate,2022-02-26T00:55:22+07:00
; #@! TF.GenerationSoftware,Kicad,Pcbnew,(6.0.0-0)
; #@! TF.FileFunction,Plated,1,2,PTH
FMAT,2
INCH
; #@! TA.AperFunction,Plated,PTH,ViaDrill
T1C0.0157
; #@! TA.AperFunction,Plated,PTH,ComponentDrill
T2C0.0354
; #@! TA.AperFunction,Plated,PTH,ComponentDrill
T3C0.0394
; #@! TA.AperFunction,Plated,PTH,ComponentDrill
T4C0.0400
; #@! TA.AperFunction,Plated,PTH,ComponentDrill
T5C0.0430
; #@! TA.AperFunction,Plated,PTH,ComponentDrill
T6C0.0591
; #@! TA.AperFunction,Plated,PTH,ComponentDrill
T7C0.1614
%
G90
G05
T1
X1.0543Y-2.4602
X1.2538Y-3.1689
X1.3538Y-3.5609
X1.4469Y-3.9047
X1.8118Y-3.2669
X1.8718Y-2.2749
X1.9114Y-3.2347
X1.9559Y-3.8358
X1.9957Y-3.7425
X2.0338Y-3.0149
X2.1078Y-3.3849
X2.1878Y-3.7349
X2.5752Y-1.5189
X2.685Y-2.2299
X2.7392Y-3.0568
X2.8218Y-2.9949
X3.4047Y-1.3102
X3.4858Y-2.0409
X3.5778Y-2.8009
X4.1452Y-2.9875
X4.2685Y-1.3055
X4.3083Y-2.0575
X4.3161Y-3.656
X4.3498Y-2.8269
X4.7558Y-2.9477
X4.9795Y-3.0205
X5.0772Y-3.7128
X5.124Y-1.3067
X5.1295Y-2.7976
X5.1303Y-2.0465
X5.2988Y-3.8346
X5.3437Y-3.7079
X5.3878Y-1.4829
X5.3918Y-2.2229
X5.5758Y-3.2689
X5.5829Y-2.8948
X5.6114Y-2.9636
X5.6252Y-3.0268
X5.6949Y-1.3571
X5.7492Y-3.2668
X5.778Y-2.2118
X5.8264Y-3.8461
X5.9803Y-3.9256
X6.0032Y-3.2668
X6.0193Y-3.8429
X6.1058Y-3.8349
X6.2177Y-2.2106
T3
X1.3275Y-2.1848
X1.407Y-2.4814
X1.5246Y-2.9048
X1.6041Y-3.2014
X1.7167Y-3.6317
X1.7961Y-3.9283
X2.158Y-1.9988
X2.2218Y-2.2992
X2.3116Y-2.7328
X2.3754Y-3.0332
X2.4693Y-3.4684
X2.5332Y-3.7687
X2.8718Y-1.2517
X2.9199Y-1.5551
X2.9907Y-1.9902
X3.0387Y-2.2935
X3.1058Y-2.733
X3.1539Y-3.0363
X3.7183Y-1.0634
X3.7504Y-1.3688
X3.8004Y-1.8075
X3.8325Y-2.1129
X3.8787Y-2.5539
X3.9108Y-2.8593
X4.5912Y-1.0994
X4.6072Y-1.4061
X4.6279Y-1.8526
X4.644Y-2.1592
X4.6475Y-3.7861
X4.6583Y-3.4792
X4.6713Y-2.6033
X4.6873Y-2.91
X5.3967Y-3.8641
X5.4288Y-3.5587
X5.4563Y-1.0988
X5.4563Y-1.4059
X5.4583Y-1.8528
X5.4583Y-2.1599
X5.4623Y-2.6008
X5.4623Y-2.9079
X6.1395Y-3.9925
X6.1929Y-3.6901
T4
X5.7521Y-2.53
X5.7521Y-2.63
X5.7521Y-2.73
X5.7521Y-2.83
X5.7521Y-2.93
X5.8521Y-2.53
X5.8521Y-2.63
X5.8521Y-2.73
X5.8521Y-2.83
X5.8521Y-2.93
X6.0181Y-2.53
X6.0181Y-2.63
X6.0181Y-2.73
X6.0181Y-2.83
X6.0181Y-2.93
X6.1181Y-2.53
X6.1181Y-2.63
X6.1181Y-2.73
X6.1181Y-2.83
X6.1181Y-2.93
T5
X5.6281Y-0.8082
X5.6281Y-0.9082
X5.6281Y-1.0082
X5.6281Y-1.1082
X5.6281Y-1.2082
X5.6281Y-1.3082
X5.6281Y-1.4082
X5.6281Y-1.5082
X5.6281Y-1.6082
X5.6281Y-1.7082
X5.6281Y-1.8082
X5.6281Y-1.9082
X6.2281Y-0.8082
X6.2281Y-0.9082
X6.2281Y-1.0082
X6.2281Y-1.1082
X6.2281Y-1.2082
X6.2281Y-1.3082
X6.2281Y-1.4082
X6.2281Y-1.5082
X6.2281Y-1.6082
X6.2281Y-1.7082
X6.2281Y-1.8082
X6.2281Y-1.9082
T6
X0.9038Y-2.4059
X0.9529Y-2.4547
X1.0975Y-3.126
X1.1446Y-2.4033
X1.1467Y-3.1748
X1.1628Y-2.3365
X1.2916Y-3.8504
X1.3383Y-3.1234
X1.3408Y-3.8992
X1.3565Y-3.0566
X1.5324Y-3.8479
X1.5506Y-3.781
X1.7201Y-2.1966
X1.7666Y-2.2479
X1.876Y-2.9302
X1.9225Y-2.9815
X1.9607Y-2.2066
X1.9823Y-2.1408
X2.0319Y-3.6638
X2.0784Y-3.7151
X2.1166Y-2.9402
X2.1382Y-2.8744
X2.2725Y-3.6738
X2.2942Y-3.608
X2.4268Y-1.424
X2.4706Y-1.4776
X2.5441Y-2.1647
X2.5879Y-2.2184
X2.6615Y-2.9055
X2.6666Y-1.4466
X2.6916Y-1.382
X2.7052Y-2.9591
X2.7839Y-2.1873
X2.8089Y-2.1228
X2.9012Y-2.9281
X2.9263Y-2.8636
X3.266Y-1.2104
X3.3069Y-1.2663
X3.3444Y-1.9563
X3.3853Y-2.0122
X3.4228Y-2.7022
X3.4637Y-2.7581
X3.5043Y-1.2456
X3.5327Y-1.1824
X3.5827Y-1.9914
X3.6111Y-1.9283
X3.6611Y-2.7373
X3.6894Y-2.6742
X4.1307Y-1.232
X4.1686Y-1.2899
X4.17Y-1.981
X4.1892Y-3.5676
X4.2079Y-2.0389
X4.2092Y-2.73
X4.222Y-3.6287
X4.2471Y-2.7879
X4.3668Y-1.2796
X4.3984Y-1.218
X4.406Y-2.0285
X4.4203Y-3.6356
X4.4377Y-1.9669
X4.4453Y-2.7775
X4.4572Y-3.577
X4.477Y-2.7159
X4.9549Y-3.6128
X4.9833Y-3.676
X4.9941Y-1.2039
X4.9941Y-2.7039
X4.9941Y-1.9539
X5.0289Y-1.2638
X5.0289Y-2.7638
X5.0289Y-2.0138
X5.1807Y-3.6967
X5.2216Y-3.6408
X5.2273Y-1.2638
X5.2273Y-2.7638
X5.2273Y-2.0138
X5.2622Y-1.2039
X5.2622Y-2.7039
X5.2622Y-1.9539
X5.7151Y-3.7125
X5.739Y-3.7775
X5.9344Y-3.812
X5.9791Y-3.7591
T7
X1.5181Y-2.59
X1.7001Y-3.362
X3.0281Y-1.672
X3.2657Y-3.2541
X4.7002Y-1.5342
X5.3379Y-3.046
T2
G00X5.8299Y-2.03
M15
G01X5.8063Y-2.03
M16
G05
G00X5.8299Y-2.3922
M15
G01X5.8063Y-2.3922
M16
G05
G00X5.8733Y-2.2111
M15
G01X5.8496Y-2.2111
M16
G05
G00X6.0307Y-2.2111
M15
G01X6.0071Y-2.2111
M16
G05
G00X6.1488Y-2.2111
M15
G01X6.1252Y-2.2111
M16
G05
T0
M30
