M48
; DRILL file {KiCad (6.0.0-0)} date 2022 February 26, Saturday 00:55:22
; FORMAT={-:-/ absolute / inch / decimal}
; #@! TF.CreationDate,2022-02-26T00:55:22+07:00
; #@! TF.GenerationSoftware,Kicad,Pcbnew,(6.0.0-0)
; #@! TF.FileFunction,NonPlated,1,2,NPTH
FMAT,2
INCH
; #@! TA.AperFunction,NonPlated,NPTH,ComponentDrill
T1C0.0591
; #@! TA.AperFunction,NonPlated,NPTH,ComponentDrill
T2C0.0669
; #@! TA.AperFunction,NonPlated,NPTH,ComponentDrill
T3C0.1181
; #@! TA.AperFunction,NonPlated,NPTH,ComponentDrill
T4C0.1575
%
G90
G05
T1
X5.9244Y-2.1206
X5.9244Y-2.3017
X6.2Y-2.1206
X6.2Y-2.3017
T2
X0.8068Y-2.2986
X1.0005Y-3.0187
X1.1931Y-2.1951
X1.1946Y-3.7431
X1.3869Y-2.9152
X1.581Y-3.6396
X1.6288Y-2.0843
X1.7847Y-2.818
X1.9406Y-3.5516
X2.02Y-2.0012
X2.176Y-2.7348
X2.3319Y-3.4684
X2.3415Y-1.3071
X2.4589Y-2.0479
X2.5762Y-2.7887
X2.7366Y-1.2445
X2.8539Y-1.9853
X2.9713Y-2.7261
X3.187Y-1.0893
X3.2654Y-1.8352
X3.3438Y-2.5811
X3.5848Y-1.0475
X3.6632Y-1.7934
X3.7416Y-2.5393
X4.0581Y-1.1069
X4.0974Y-1.8559
X4.1278Y-3.4367
X4.1366Y-2.6048
X4.4576Y-1.086
X4.4968Y-1.8349
X4.5276Y-3.4506
X4.5361Y-2.5839
X4.9028Y-3.4779
X4.9281Y-1.0752
X4.9281Y-2.5752
X4.9281Y-1.8252
X5.3006Y-3.5197
X5.3281Y-1.0752
X5.3281Y-2.5752
X5.3281Y-1.8252
X5.6725Y-3.5743
X6.0664Y-3.6437
T3
X0.8292Y-2.1891
X0.8516Y-2.0796
X1.0229Y-2.9092
X1.0448Y-2.0278
X1.0453Y-2.7996
X1.119Y-2.1114
X1.217Y-3.6336
X1.2385Y-2.7479
X1.2394Y-3.5241
X1.3127Y-2.8315
X1.4326Y-3.4723
X1.5068Y-3.556
X1.6569Y-1.9761
X1.685Y-1.8679
X1.8128Y-2.7097
X1.8409Y-2.6015
X1.8806Y-1.8263
X1.9503Y-1.9138
X1.9688Y-3.4434
X1.9969Y-3.3351
X2.0366Y-2.56
X2.1063Y-2.6474
X2.1925Y-3.2936
X2.2622Y-3.381
X2.3753Y-1.2005
X2.409Y-1.0939
X2.4926Y-1.9413
X2.5263Y-1.8347
X2.6066Y-1.0627
X2.6099Y-2.6821
X2.6437Y-2.5755
X2.6716Y-1.1536
X2.7239Y-1.8034
X2.7889Y-1.8944
X2.8412Y-2.5442
X2.9062Y-2.6351
X3.2262Y-0.9846
X3.2655Y-0.8799
X3.3046Y-1.7305
X3.3439Y-1.6258
X3.383Y-2.4764
X3.4223Y-2.3717
X3.4644Y-0.859
X3.5246Y-0.9532
X3.5428Y-1.6049
X3.603Y-1.6991
X3.6212Y-2.3508
X3.6814Y-2.445
X4.1028Y-1.0044
X4.1421Y-1.7534
X4.1475Y-0.9019
X4.1813Y-3.3385
X4.1813Y-2.5024
X4.1868Y-1.6509
X4.226Y-2.3999
X4.2348Y-3.2403
X4.3472Y-0.8915
X4.3865Y-1.6404
X4.4024Y-0.9887
X4.4257Y-2.3894
X4.4346Y-3.2473
X4.4417Y-1.7377
X4.4809Y-2.4867
X4.4811Y-3.349
X4.963Y-3.3836
X4.9781Y-0.9752
X4.9781Y-2.4752
X4.9781Y-1.7252
X5.0232Y-3.2894
X5.0281Y-0.8752
X5.0281Y-2.3752
X5.0281Y-1.6252
X5.2221Y-3.3103
X5.2281Y-0.8752
X5.2281Y-2.3752
X5.2281Y-1.6252
X5.2614Y-3.415
X5.2781Y-0.9752
X5.2781Y-2.4752
X5.2781Y-1.7252
X5.7391Y-3.4845
X5.8057Y-3.3947
X6.0027Y-3.4294
X6.0345Y-3.5366
T4
X1.0Y-2.2469
X1.1937Y-2.9669
X1.3878Y-3.6914
X1.8244Y-2.0428
X1.9803Y-2.7764
X2.1363Y-3.51
X2.5391Y-1.2758
X2.6564Y-2.0166
X2.7737Y-2.7574
X3.3859Y-1.0684
X3.4643Y-1.8143
X3.5427Y-2.5602
X4.2578Y-1.0964
X4.2971Y-1.8454
X4.3277Y-3.4437
X4.3363Y-2.5944
X5.1017Y-3.4988
X5.1281Y-1.0752
X5.1281Y-2.5752
X5.1281Y-1.8252
X5.8694Y-3.609
T0
M30
