%TF.GenerationSoftware,KiCad,Pcbnew,(6.0.0)*%
%TF.CreationDate,2022-02-12T20:48:13+07:00*%
%TF.ProjectId,Shrimp42-mirrored-rev2,53687269-6d70-4343-922d-6d6972726f72,rev?*%
%TF.SameCoordinates,Original*%
%TF.FileFunction,Paste,Top*%
%TF.FilePolarity,Positive*%
%FSLAX46Y46*%
G04 Gerber Fmt 4.6, Leading zero omitted, Abs format (unit mm)*
G04 Created by KiCad (PCBNEW (6.0.0)) date 2022-02-12 20:48:13*
%MOMM*%
%LPD*%
G01*
G04 APERTURE LIST*
G04 Aperture macros list*
%AMRotRect*
0 Rectangle, with rotation*
0 The origin of the aperture is its center*
0 $1 length*
0 $2 width*
0 $3 Rotation angle, in degrees counterclockwise*
0 Add horizontal line*
21,1,$1,$2,0,0,$3*%
G04 Aperture macros list end*
%ADD10RotRect,1.600000X1.200000X285.000000*%
%ADD11RotRect,1.600000X1.200000X282.000000*%
%ADD12RotRect,1.600000X1.200000X279.000000*%
%ADD13RotRect,1.600000X1.200000X276.000000*%
%ADD14RotRect,1.600000X1.200000X273.000000*%
%ADD15R,1.200000X1.600000*%
%ADD16RotRect,1.600000X1.200000X268.000000*%
%ADD17RotRect,1.600000X1.200000X264.000000*%
%ADD18RotRect,1.600000X1.200000X260.000000*%
%ADD19RotRect,2.000000X2.000000X195.000000*%
%ADD20RotRect,2.000000X2.000000X192.000000*%
%ADD21RotRect,2.000000X2.000000X189.000000*%
%ADD22RotRect,2.000000X2.000000X186.000000*%
%ADD23RotRect,2.000000X2.000000X183.000000*%
%ADD24R,2.000000X2.000000*%
%ADD25RotRect,2.000000X2.000000X178.000000*%
%ADD26RotRect,2.000000X2.000000X174.000000*%
%ADD27RotRect,2.000000X2.000000X170.000000*%
G04 APERTURE END LIST*
D10*
%TO.C,D-0-0*%
X35606651Y-60143963D03*
X34881957Y-57439371D03*
%TD*%
D11*
%TO.C,D-0-1*%
X56431074Y-55485784D03*
X55848922Y-52746970D03*
%TD*%
D12*
%TO.C,D-0-2*%
X74290001Y-36560063D03*
X73851985Y-33794535D03*
%TD*%
D13*
%TO.C,D-0-3*%
X95514786Y-31813388D03*
X95222106Y-29028726D03*
%TD*%
D14*
%TO.C,D-0-4*%
X117452429Y-32950853D03*
X117305889Y-30154691D03*
%TD*%
D15*
%TO.C,D-0-5*%
X139107246Y-32741289D03*
X139107246Y-29941289D03*
%TD*%
D10*
%TO.C,D-1-0*%
X40612098Y-78432906D03*
X39887404Y-75728314D03*
%TD*%
D11*
%TO.C,D-1-1*%
X60331546Y-74128600D03*
X59749394Y-71389786D03*
%TD*%
D12*
%TO.C,D-1-2*%
X77307846Y-55316818D03*
X76869830Y-52551290D03*
%TD*%
D13*
%TO.C,D-1-3*%
X97600246Y-50713151D03*
X97307566Y-47928489D03*
%TD*%
D14*
%TO.C,D-1-4*%
X118342650Y-51878602D03*
X118196110Y-49082440D03*
%TD*%
D15*
%TO.C,D-1-5*%
X139158046Y-51892889D03*
X139158046Y-49092889D03*
%TD*%
D10*
%TO.C,D-2-0*%
X45490862Y-96896214D03*
X44766168Y-94191622D03*
%TD*%
D11*
%TO.C,D-2-1*%
X64338371Y-92811318D03*
X63756219Y-90072504D03*
%TD*%
D12*
%TO.C,D-2-2*%
X80233328Y-74183636D03*
X79795312Y-71418108D03*
%TD*%
D13*
%TO.C,D-2-3*%
X99587900Y-69670679D03*
X99295220Y-66886017D03*
%TD*%
D14*
%TO.C,D-2-4*%
X119443770Y-70947907D03*
X119297230Y-68151745D03*
%TD*%
D15*
%TO.C,D-2-5*%
X139259646Y-70892089D03*
X139259646Y-68092089D03*
%TD*%
D16*
%TO.C,D-3-3*%
X118651141Y-93199147D03*
X118748859Y-90400853D03*
%TD*%
D17*
%TO.C,D-3-4*%
X137853660Y-95192331D03*
X138146340Y-92407669D03*
%TD*%
D18*
%TO.C,D-3-5*%
X156894735Y-98478731D03*
X157380949Y-95721269D03*
%TD*%
D19*
%TO.C,K-0-0*%
X19190888Y-53143759D03*
X31922361Y-52361973D03*
%TD*%
D20*
%TO.C,K-0-1*%
X40322314Y-47612493D03*
X53077255Y-47498091D03*
%TD*%
D21*
%TO.C,K-0-2*%
X58682717Y-27795803D03*
X71426165Y-28349101D03*
%TD*%
D22*
%TO.C,K-0-3*%
X80417102Y-22200877D03*
X93114128Y-23420357D03*
%TD*%
D23*
%TO.C,K-0-4*%
X102807054Y-22600347D03*
X115422856Y-24482667D03*
%TD*%
D24*
%TO.C,K-0-5*%
X125170357Y-21760828D03*
X137670357Y-24300828D03*
%TD*%
D19*
%TO.C,K-1-0*%
X24111684Y-71433713D03*
X36843157Y-70651927D03*
%TD*%
D20*
%TO.C,K-1-1*%
X44283028Y-66246205D03*
X57037969Y-66131803D03*
%TD*%
D21*
%TO.C,K-1-2*%
X61662791Y-46611265D03*
X74406239Y-47164563D03*
%TD*%
D22*
%TO.C,K-1-3*%
X82408370Y-41146517D03*
X95105396Y-42365997D03*
%TD*%
D23*
%TO.C,K-1-4*%
X103804053Y-41624239D03*
X116419855Y-43506559D03*
%TD*%
D24*
%TO.C,K-1-5*%
X125170357Y-40810828D03*
X137670357Y-43350828D03*
%TD*%
D19*
%TO.C,K-2-0*%
X29042188Y-89834599D03*
X41773661Y-89052813D03*
%TD*%
D20*
%TO.C,K-2-1*%
X48243749Y-84879916D03*
X60998690Y-84765514D03*
%TD*%
D21*
%TO.C,K-2-2*%
X64642868Y-65426727D03*
X77386316Y-65980025D03*
%TD*%
D22*
%TO.C,K-2-3*%
X84399636Y-60092160D03*
X97096662Y-61311640D03*
%TD*%
D23*
%TO.C,K-2-4*%
X104801054Y-60648132D03*
X117416856Y-62530452D03*
%TD*%
D24*
%TO.C,K-2-5*%
X125170357Y-59860828D03*
X137670357Y-62400828D03*
%TD*%
D25*
%TO.C,K-3-3*%
X105020760Y-81727657D03*
X117424500Y-84702354D03*
%TD*%
D26*
%TO.C,K-3-4*%
X125061682Y-82762469D03*
X137227703Y-86595161D03*
%TD*%
D27*
%TO.C,K-3-5*%
X144967209Y-85224747D03*
X156836240Y-89896761D03*
%TD*%
M02*
