%TF.GenerationSoftware,KiCad,Pcbnew,(6.0.0-0)*%
%TF.CreationDate,2022-02-26T00:55:26+07:00*%
%TF.ProjectId,Shrimp42-mirrored-rev2,53687269-6d70-4343-922d-6d6972726f72,rev?*%
%TF.SameCoordinates,Original*%
%TF.FileFunction,Paste,Bot*%
%TF.FilePolarity,Positive*%
%FSLAX46Y46*%
G04 Gerber Fmt 4.6, Leading zero omitted, Abs format (unit mm)*
G04 Created by KiCad (PCBNEW (6.0.0-0)) date 2022-02-26 00:55:26*
%MOMM*%
%LPD*%
G01*
G04 APERTURE LIST*
G04 Aperture macros list*
%AMRotRect*
0 Rectangle, with rotation*
0 The origin of the aperture is its center*
0 $1 length*
0 $2 width*
0 $3 Rotation angle, in degrees counterclockwise*
0 Add horizontal line*
21,1,$1,$2,0,0,$3*%
G04 Aperture macros list end*
%ADD10RotRect,2.000000X2.000000X174.000000*%
%ADD11RotRect,2.000000X2.000000X195.000000*%
%ADD12RotRect,2.000000X2.000000X186.000000*%
%ADD13RotRect,2.000000X2.000000X183.000000*%
%ADD14RotRect,1.600000X1.200000X285.000000*%
%ADD15RotRect,1.600000X1.200000X282.000000*%
%ADD16RotRect,1.600000X1.200000X279.000000*%
%ADD17RotRect,1.600000X1.200000X276.000000*%
%ADD18RotRect,1.600000X1.200000X273.000000*%
%ADD19R,1.200000X1.600000*%
%ADD20RotRect,1.600000X1.200000X268.000000*%
%ADD21RotRect,1.600000X1.200000X264.000000*%
%ADD22RotRect,1.600000X1.200000X260.000000*%
%ADD23RotRect,2.000000X2.000000X192.000000*%
%ADD24RotRect,2.000000X2.000000X189.000000*%
%ADD25R,2.000000X2.000000*%
%ADD26RotRect,2.000000X2.000000X178.000000*%
%ADD27RotRect,2.000000X2.000000X170.000000*%
G04 APERTURE END LIST*
D10*
%TO.C,K-3-4*%
X122987178Y-85621682D03*
X135684204Y-84402202D03*
%TD*%
D11*
%TO.C,K-0-0*%
X18076454Y-56402687D03*
X29493127Y-50713997D03*
%TD*%
D12*
%TO.C,K-0-3*%
X78873601Y-25331858D03*
X91039622Y-21499166D03*
%TD*%
D13*
%TO.C,K-0-4*%
X101125645Y-25673910D03*
X113475581Y-22483192D03*
%TD*%
D14*
%TO.C,D-0-0*%
X35090525Y-60612976D03*
X34365831Y-57908384D03*
%TD*%
D15*
%TO.C,D-0-1*%
X55914945Y-55954796D03*
X55332793Y-53215982D03*
%TD*%
D16*
%TO.C,D-0-2*%
X73773871Y-37029073D03*
X73335855Y-34263545D03*
%TD*%
D17*
%TO.C,D-0-3*%
X94998663Y-32282395D03*
X94705983Y-29497733D03*
%TD*%
D18*
%TO.C,D-0-4*%
X116893270Y-33218081D03*
X116746730Y-30421919D03*
%TD*%
D19*
%TO.C,D-0-5*%
X138591119Y-33210303D03*
X138591119Y-30410303D03*
%TD*%
D14*
%TO.C,D-1-0*%
X40095967Y-78901910D03*
X39371273Y-76197318D03*
%TD*%
D15*
%TO.C,D-1-1*%
X59815420Y-74597606D03*
X59233268Y-71858792D03*
%TD*%
D16*
%TO.C,D-1-2*%
X76791723Y-55785824D03*
X76353707Y-53020296D03*
%TD*%
D17*
%TO.C,D-1-3*%
X97084122Y-51182159D03*
X96791442Y-48397497D03*
%TD*%
D18*
%TO.C,D-1-4*%
X117826528Y-52347613D03*
X117679988Y-49551451D03*
%TD*%
D19*
%TO.C,D-1-5*%
X138641918Y-52361890D03*
X138641918Y-49561890D03*
%TD*%
D14*
%TO.C,D-2-0*%
X44974730Y-97365226D03*
X44250036Y-94660634D03*
%TD*%
D15*
%TO.C,D-2-1*%
X63822246Y-93280326D03*
X63240094Y-90541512D03*
%TD*%
D16*
%TO.C,D-2-2*%
X79717202Y-74652644D03*
X79279186Y-71887116D03*
%TD*%
D17*
%TO.C,D-2-3*%
X99071776Y-70139693D03*
X98779096Y-67355031D03*
%TD*%
D18*
%TO.C,D-2-4*%
X118927642Y-71416919D03*
X118781102Y-68620757D03*
%TD*%
D19*
%TO.C,D-2-5*%
X138743521Y-71361096D03*
X138743521Y-68561096D03*
%TD*%
D20*
%TO.C,D-3-3*%
X118135019Y-93668158D03*
X118232737Y-90869864D03*
%TD*%
D21*
%TO.C,D-3-4*%
X137337537Y-95661338D03*
X137630217Y-92876676D03*
%TD*%
D22*
%TO.C,D-3-5*%
X156864820Y-96190278D03*
X156378606Y-98947740D03*
%TD*%
D23*
%TO.C,K-0-1*%
X39062689Y-50836275D03*
X50761438Y-45752884D03*
%TD*%
D24*
%TO.C,K-0-2*%
X57279937Y-30976903D03*
X69228698Y-26512744D03*
%TD*%
D25*
%TO.C,K-0-5*%
X123354226Y-24769828D03*
X135854226Y-22229828D03*
%TD*%
D11*
%TO.C,K-1-0*%
X22997255Y-74692634D03*
X34413928Y-69003944D03*
%TD*%
D23*
%TO.C,K-1-1*%
X43023408Y-69469994D03*
X54722157Y-64386603D03*
%TD*%
D24*
%TO.C,K-1-2*%
X60260013Y-49792364D03*
X72208774Y-45328205D03*
%TD*%
D12*
%TO.C,K-1-3*%
X80864868Y-44277496D03*
X93030889Y-40444804D03*
%TD*%
D13*
%TO.C,K-1-4*%
X102122642Y-44697805D03*
X114472578Y-41507087D03*
%TD*%
D25*
%TO.C,K-1-5*%
X123354234Y-43819839D03*
X135854234Y-41279839D03*
%TD*%
D11*
%TO.C,K-2-0*%
X27927757Y-93093520D03*
X39344430Y-87404830D03*
%TD*%
D23*
%TO.C,K-2-1*%
X46984123Y-88103705D03*
X58682872Y-83020314D03*
%TD*%
D24*
%TO.C,K-2-2*%
X63240088Y-68607826D03*
X75188849Y-64143667D03*
%TD*%
D12*
%TO.C,K-2-3*%
X95022159Y-59390453D03*
X82856138Y-63223145D03*
%TD*%
D13*
%TO.C,K-2-4*%
X103119637Y-63721694D03*
X115469573Y-60530976D03*
%TD*%
D25*
%TO.C,K-2-5*%
X123354233Y-62869837D03*
X135854233Y-60329837D03*
%TD*%
D26*
%TO.C,K-3-3*%
X103116779Y-84689750D03*
X115697809Y-82587541D03*
%TD*%
D27*
%TO.C,K-3-5*%
X142729765Y-87969425D03*
X155480928Y-87638615D03*
%TD*%
M02*
