%TF.GenerationSoftware,KiCad,Pcbnew,(6.0.0-0)*%
%TF.CreationDate,2022-02-11T16:55:03+07:00*%
%TF.ProjectId,Shrimp42-mirrored-rev2,53687269-6d70-4343-922d-6d6972726f72,rev?*%
%TF.SameCoordinates,Original*%
%TF.FileFunction,Legend,Bot*%
%TF.FilePolarity,Positive*%
%FSLAX46Y46*%
G04 Gerber Fmt 4.6, Leading zero omitted, Abs format (unit mm)*
G04 Created by KiCad (PCBNEW (6.0.0-0)) date 2022-02-11 16:55:03*
%MOMM*%
%LPD*%
G01*
G04 APERTURE LIST*
%ADD10C,0.200000*%
%ADD11C,0.400000*%
%ADD12C,0.150000*%
%ADD13C,0.381000*%
%ADD14C,0.203200*%
%ADD15R,1.752600X1.752600*%
%ADD16C,1.752600*%
G04 APERTURE END LIST*
D10*
X78821834Y-92577294D02*
X79104867Y-91608773D01*
X79392479Y-92547388D02*
X79287808Y-90550129D01*
X78907377Y-90570066D01*
X78817254Y-90670158D01*
X78774685Y-90767758D01*
X78737100Y-90960465D01*
X78752053Y-91245788D01*
X78809575Y-91433511D01*
X78862113Y-91526126D01*
X78962205Y-91616250D01*
X79342636Y-91596312D01*
X78008435Y-92524554D02*
X78108527Y-92614677D01*
X78298742Y-92604708D01*
X78388866Y-92504616D01*
X78426451Y-92311909D01*
X78386576Y-91551048D01*
X78329053Y-91363325D01*
X78228961Y-91273202D01*
X78038746Y-91283171D01*
X77948623Y-91383263D01*
X77911038Y-91575970D01*
X77921006Y-91766185D01*
X78406513Y-91931479D01*
X77563208Y-91308093D02*
X77395220Y-92652060D01*
X77087670Y-91333015D01*
X75969011Y-90914797D02*
X75916473Y-90822182D01*
X75816381Y-90732059D01*
X75578612Y-90744519D01*
X75488489Y-90844611D01*
X75445920Y-90942211D01*
X75408334Y-91134919D01*
X75418303Y-91325134D01*
X75480810Y-91607964D01*
X76111268Y-92719349D01*
X75493069Y-92751747D01*
D11*
X95231479Y-91446355D02*
X94956125Y-91651523D01*
X94480587Y-91676445D01*
X94280403Y-91496198D01*
X94175326Y-91310968D01*
X94060281Y-90935522D01*
X94040344Y-90555091D01*
X94115514Y-90169677D01*
X94200653Y-89974477D01*
X94380899Y-89774293D01*
X94751361Y-89564141D01*
X94931607Y-89363957D01*
X95016746Y-89168757D01*
X95091916Y-88783343D01*
X95071978Y-88402912D01*
X94956933Y-88027466D01*
X94851857Y-87842236D01*
X94651673Y-87661989D01*
X94176135Y-87686911D01*
X93900781Y-87892079D01*
X93244188Y-91741242D02*
X93034844Y-87746724D01*
X92388220Y-91786101D02*
X92278564Y-89693735D01*
X92353734Y-89308320D01*
X92533980Y-89108136D01*
X92819303Y-89093183D01*
X93019487Y-89273429D01*
X93124563Y-89458660D01*
X91437144Y-91835945D02*
X91297582Y-89172933D01*
X91337457Y-89933793D02*
X91222412Y-89558347D01*
X91117335Y-89373117D01*
X90917151Y-89192870D01*
X90726936Y-89202839D01*
X90200746Y-91900742D02*
X90061183Y-89237730D01*
X89991402Y-87906224D02*
X90096478Y-88091454D01*
X90011339Y-88286654D01*
X89906263Y-88101423D01*
X89991402Y-87906224D01*
X90011339Y-88286654D01*
X89249670Y-91950586D02*
X89110108Y-89287573D01*
X89130045Y-89668004D02*
X89024969Y-89482773D01*
X88824785Y-89302527D01*
X88539462Y-89317480D01*
X88359216Y-89517664D01*
X88284046Y-89903078D01*
X88393702Y-91995445D01*
X88284046Y-89903078D02*
X88169001Y-89527632D01*
X87968817Y-89347386D01*
X87683494Y-89362339D01*
X87503248Y-89562523D01*
X87428077Y-89947938D01*
X87537734Y-92040304D01*
X86447095Y-89427136D02*
X86656439Y-93421654D01*
X86457064Y-89617351D02*
X86256880Y-89437105D01*
X85876450Y-89457042D01*
X85696204Y-89657226D01*
X85611065Y-89852426D01*
X85535895Y-90237840D01*
X85595707Y-91379131D01*
X85710752Y-91754577D01*
X85815829Y-91939808D01*
X86016013Y-92120054D01*
X86396443Y-92100117D01*
X86576689Y-91899933D01*
X82262362Y-89646449D02*
X82401925Y-92309461D01*
X82658150Y-88099806D02*
X83283219Y-90928111D01*
X82046821Y-90992908D01*
X81261443Y-88745217D02*
X81156366Y-88559986D01*
X80956182Y-88379739D01*
X80480645Y-88404661D01*
X80300398Y-88604845D01*
X80215259Y-88800045D01*
X80140089Y-89185459D01*
X80160027Y-89565890D01*
X80285041Y-90131551D01*
X81545957Y-92354320D01*
X80309558Y-92419117D01*
D12*
X98144309Y-93534688D02*
X98172561Y-94343718D01*
X98223475Y-94437237D01*
X98272726Y-94483165D01*
X98369568Y-94527431D01*
X98512339Y-94522445D01*
X98605857Y-94471532D01*
X98165913Y-94153358D02*
X98262755Y-94197625D01*
X98453115Y-94190977D01*
X98546634Y-94140063D01*
X98592562Y-94090811D01*
X98636828Y-93993969D01*
X98626857Y-93708429D01*
X98575943Y-93614911D01*
X98526691Y-93568983D01*
X98429849Y-93524716D01*
X98239489Y-93531364D01*
X98145971Y-93582278D01*
X97691675Y-94217567D02*
X97668408Y-93551307D01*
X97656775Y-93218176D02*
X97706027Y-93264104D01*
X97660099Y-93313356D01*
X97610847Y-93267428D01*
X97656775Y-93218176D01*
X97660099Y-93313356D01*
X97335278Y-93562940D02*
X96954558Y-93576235D01*
X97180875Y-93234795D02*
X97210789Y-94091416D01*
X97166522Y-94188258D01*
X97073004Y-94239172D01*
X96977824Y-94242495D01*
X96644694Y-94254129D02*
X96609794Y-93254738D01*
X96216383Y-94269085D02*
X96198103Y-93745595D01*
X96242369Y-93648753D01*
X96335887Y-93597839D01*
X96478657Y-93592854D01*
X96575499Y-93637120D01*
X96624751Y-93683048D01*
X95288906Y-93634401D02*
X95312173Y-94300661D01*
X95717217Y-93619444D02*
X95735497Y-94142934D01*
X95691231Y-94239776D01*
X95597713Y-94290690D01*
X95454943Y-94295676D01*
X95358101Y-94251409D01*
X95308849Y-94205481D01*
X94836272Y-94317280D02*
X94801373Y-93317889D01*
X94814668Y-93698609D02*
X94717826Y-93654343D01*
X94527466Y-93660991D01*
X94433948Y-93711905D01*
X94388019Y-93761156D01*
X94343753Y-93857998D01*
X94353724Y-94143539D01*
X94404638Y-94237057D01*
X94453890Y-94282985D01*
X94550732Y-94327251D01*
X94741092Y-94320604D01*
X94834610Y-94269690D01*
X93928738Y-94253676D02*
X93882810Y-94302928D01*
X93932062Y-94348856D01*
X93977990Y-94299604D01*
X93928738Y-94253676D01*
X93932062Y-94348856D01*
X93026189Y-94332841D02*
X93123031Y-94377108D01*
X93313391Y-94370460D01*
X93406909Y-94319546D01*
X93452837Y-94270294D01*
X93497104Y-94173452D01*
X93487132Y-93887912D01*
X93436219Y-93794394D01*
X93386967Y-93748466D01*
X93290125Y-93704200D01*
X93099765Y-93710847D01*
X93006246Y-93761761D01*
X92456770Y-94400374D02*
X92550289Y-94349460D01*
X92596217Y-94300208D01*
X92640483Y-94203366D01*
X92630512Y-93917826D01*
X92579598Y-93824308D01*
X92530346Y-93778380D01*
X92433504Y-93734113D01*
X92290734Y-93739099D01*
X92197216Y-93790013D01*
X92151288Y-93839265D01*
X92107021Y-93936107D01*
X92116993Y-94221647D01*
X92167906Y-94315165D01*
X92217158Y-94361093D01*
X92314000Y-94405360D01*
X92456770Y-94400374D01*
X91695330Y-94426964D02*
X91672063Y-93760704D01*
X91675387Y-93855884D02*
X91626135Y-93809955D01*
X91529293Y-93765689D01*
X91386523Y-93770675D01*
X91293005Y-93821589D01*
X91248739Y-93918431D01*
X91267019Y-94441921D01*
X91248739Y-93918431D02*
X91197825Y-93824912D01*
X91100983Y-93780646D01*
X90958213Y-93785632D01*
X90864695Y-93836546D01*
X90820428Y-93933388D01*
X90838709Y-94456878D01*
X89612397Y-93451444D02*
X90513888Y-94706461D01*
X88759100Y-93576538D02*
X88852618Y-93525624D01*
X88995388Y-93520639D01*
X89139820Y-93563243D01*
X89238324Y-93655099D01*
X89289238Y-93748618D01*
X89343475Y-93937316D01*
X89348461Y-94080086D01*
X89307518Y-94272108D01*
X89263252Y-94368950D01*
X89171396Y-94467454D01*
X89030288Y-94520029D01*
X88935107Y-94523353D01*
X88790675Y-94480749D01*
X88741424Y-94434821D01*
X88729790Y-94101690D01*
X88920151Y-94095043D01*
X88316437Y-94544958D02*
X88293171Y-93878697D01*
X88299818Y-94069057D02*
X88248904Y-93975539D01*
X88199652Y-93929611D01*
X88102810Y-93885345D01*
X88007630Y-93888668D01*
X87315384Y-94532267D02*
X87412226Y-94576533D01*
X87602586Y-94569886D01*
X87696105Y-94518972D01*
X87740371Y-94422130D01*
X87727076Y-94041410D01*
X87676162Y-93947892D01*
X87579320Y-93903625D01*
X87388960Y-93910273D01*
X87295442Y-93961187D01*
X87251175Y-94058029D01*
X87254499Y-94153209D01*
X87733723Y-94231770D01*
X86458763Y-94562181D02*
X86555605Y-94606447D01*
X86745966Y-94599800D01*
X86839484Y-94548886D01*
X86883750Y-94452044D01*
X86870455Y-94071324D01*
X86819541Y-93977805D01*
X86722699Y-93933539D01*
X86532339Y-93940187D01*
X86438821Y-93991100D01*
X86394555Y-94087942D01*
X86397878Y-94183123D01*
X86877103Y-94261684D01*
X85961259Y-93960129D02*
X85984525Y-94626390D01*
X85964582Y-94055309D02*
X85915330Y-94009381D01*
X85818489Y-93965115D01*
X85675718Y-93970101D01*
X85582200Y-94021014D01*
X85537934Y-94117856D01*
X85556215Y-94641347D01*
X85080314Y-94657966D02*
X85045415Y-93658575D01*
X84737213Y-94384058D01*
X84379154Y-93681841D01*
X84414054Y-94681232D01*
X83509843Y-94712808D02*
X83491562Y-94189317D01*
X83535829Y-94092475D01*
X83629347Y-94041561D01*
X83819707Y-94034914D01*
X83916549Y-94079180D01*
X83508181Y-94665218D02*
X83605023Y-94709484D01*
X83842973Y-94701174D01*
X83936491Y-94650261D01*
X83980758Y-94553419D01*
X83977434Y-94458239D01*
X83926520Y-94364720D01*
X83829678Y-94320454D01*
X83591728Y-94328764D01*
X83494886Y-94284497D01*
X83079871Y-94680174D02*
X82986353Y-94731088D01*
X82795992Y-94737736D01*
X82699150Y-94693470D01*
X82648237Y-94599951D01*
X82646575Y-94552361D01*
X82690841Y-94455519D01*
X82784359Y-94404606D01*
X82927129Y-94399620D01*
X83020647Y-94348706D01*
X83064914Y-94251864D01*
X83063252Y-94204274D01*
X83012338Y-94110756D01*
X82915496Y-94066490D01*
X82772726Y-94071475D01*
X82679208Y-94122389D01*
X82224912Y-94757678D02*
X82190012Y-93758288D01*
X81796602Y-94772635D02*
X81778321Y-94249145D01*
X81822587Y-94152303D01*
X81916105Y-94101389D01*
X82058875Y-94096403D01*
X82155717Y-94140670D01*
X82204969Y-94186598D01*
X80938319Y-94754959D02*
X81035161Y-94799225D01*
X81225521Y-94792578D01*
X81319039Y-94741664D01*
X81363306Y-94644822D01*
X81350010Y-94264102D01*
X81299097Y-94170584D01*
X81202255Y-94126317D01*
X81011895Y-94132965D01*
X80918376Y-94183879D01*
X80874110Y-94280721D01*
X80877434Y-94375901D01*
X81356658Y-94454462D01*
X80035770Y-94834125D02*
X80000871Y-93834734D01*
X80034108Y-94786535D02*
X80130950Y-94830801D01*
X80321310Y-94824154D01*
X80414828Y-94773240D01*
X80460757Y-94723988D01*
X80505023Y-94627146D01*
X80495052Y-94341606D01*
X80444138Y-94248088D01*
X80394886Y-94202159D01*
X80298044Y-94157893D01*
X80107684Y-94164541D01*
X80014166Y-94215454D01*
X79559870Y-94850744D02*
X79524970Y-93851353D01*
X79144250Y-93864648D01*
X79050732Y-93915562D01*
X79004804Y-93964814D01*
X78960537Y-94061656D01*
X78965523Y-94204426D01*
X79016437Y-94297944D01*
X79065689Y-94343872D01*
X79162531Y-94388138D01*
X79543251Y-94374843D01*
X78417709Y-94890629D02*
X78511227Y-94839715D01*
X78557155Y-94790463D01*
X78601421Y-94693621D01*
X78591450Y-94408081D01*
X78540536Y-94314563D01*
X78491284Y-94268635D01*
X78394442Y-94224368D01*
X78251672Y-94229354D01*
X78158154Y-94280268D01*
X78112226Y-94329520D01*
X78067960Y-94426362D01*
X78077931Y-94711902D01*
X78128845Y-94805420D01*
X78178097Y-94851348D01*
X78274939Y-94895614D01*
X78417709Y-94890629D01*
X77775772Y-94245973D02*
X77395052Y-94259268D01*
X77621369Y-93917828D02*
X77651282Y-94774449D01*
X77607016Y-94871291D01*
X77513498Y-94922205D01*
X77418318Y-94925528D01*
X76656877Y-94952118D02*
X76638597Y-94428628D01*
X76682863Y-94331786D01*
X76776381Y-94280872D01*
X76966741Y-94274225D01*
X77063583Y-94318491D01*
X76655215Y-94904528D02*
X76752057Y-94948795D01*
X76990008Y-94940485D01*
X77083526Y-94889571D01*
X77127792Y-94792730D01*
X77124468Y-94697549D01*
X77073554Y-94604031D01*
X76976712Y-94559765D01*
X76738762Y-94568074D01*
X76641920Y-94523808D01*
X76300481Y-94297491D02*
X75919760Y-94310786D01*
X76146077Y-93969346D02*
X76175991Y-94825967D01*
X76131725Y-94922809D01*
X76038207Y-94973723D01*
X75943027Y-94977047D01*
X75467126Y-94993665D02*
X75560644Y-94942752D01*
X75606573Y-94893500D01*
X75650839Y-94796658D01*
X75640868Y-94511118D01*
X75589954Y-94417599D01*
X75540702Y-94371671D01*
X75443860Y-94327405D01*
X75301090Y-94332391D01*
X75207572Y-94383304D01*
X75161643Y-94432556D01*
X75117377Y-94529398D01*
X75127348Y-94814938D01*
X75178262Y-94908457D01*
X75227514Y-94954385D01*
X75324356Y-94998651D01*
X75467126Y-94993665D01*
X73955274Y-93998203D02*
X74856765Y-95253220D01*
X73704633Y-95007565D02*
X73563525Y-95060141D01*
X73325575Y-95068450D01*
X73228733Y-95024184D01*
X73179481Y-94978256D01*
X73128567Y-94884737D01*
X73125243Y-94789557D01*
X73169509Y-94692715D01*
X73215438Y-94643463D01*
X73308956Y-94592550D01*
X73497654Y-94538312D01*
X73591172Y-94487398D01*
X73637100Y-94438146D01*
X73681367Y-94341304D01*
X73678043Y-94246124D01*
X73627129Y-94152606D01*
X73577877Y-94106678D01*
X73481035Y-94062412D01*
X73243085Y-94070721D01*
X73101977Y-94123297D01*
X72706904Y-95090055D02*
X72672005Y-94090664D01*
X72278594Y-95105011D02*
X72260313Y-94581521D01*
X72304579Y-94484679D01*
X72398097Y-94433765D01*
X72540868Y-94428780D01*
X72637710Y-94473046D01*
X72686961Y-94518974D01*
X71802693Y-95121630D02*
X71779427Y-94455370D01*
X71786074Y-94645730D02*
X71735161Y-94552212D01*
X71685909Y-94506284D01*
X71589067Y-94462017D01*
X71493887Y-94465341D01*
X71184023Y-95143235D02*
X71160756Y-94476974D01*
X71149123Y-94143844D02*
X71198375Y-94189772D01*
X71152447Y-94239024D01*
X71103195Y-94193096D01*
X71149123Y-94143844D01*
X71152447Y-94239024D01*
X70708122Y-95159854D02*
X70684856Y-94493593D01*
X70688180Y-94588773D02*
X70638928Y-94542845D01*
X70542086Y-94498579D01*
X70399316Y-94503564D01*
X70305798Y-94554478D01*
X70261531Y-94651320D01*
X70279812Y-95174810D01*
X70261531Y-94651320D02*
X70210618Y-94557802D01*
X70113776Y-94513536D01*
X69971005Y-94518521D01*
X69877487Y-94569435D01*
X69833221Y-94666277D01*
X69851502Y-95189767D01*
X69352335Y-94540126D02*
X69387234Y-95539516D01*
X69353997Y-94587716D02*
X69257155Y-94543449D01*
X69066795Y-94550097D01*
X68973276Y-94601011D01*
X68927348Y-94650263D01*
X68883082Y-94747105D01*
X68893053Y-95032645D01*
X68943967Y-95126163D01*
X68993219Y-95172091D01*
X69090061Y-95216357D01*
X69280421Y-95209710D01*
X69373939Y-95158796D01*
X68019814Y-94586658D02*
X68043080Y-95252919D01*
X68244469Y-94197629D02*
X68507347Y-94903170D01*
X67888677Y-94924774D01*
X67535604Y-94365327D02*
X67486352Y-94319399D01*
X67389510Y-94275132D01*
X67151560Y-94283442D01*
X67058042Y-94334356D01*
X67012114Y-94383608D01*
X66967847Y-94480450D01*
X66971171Y-94575630D01*
X67023747Y-94716738D01*
X67614770Y-95267876D01*
X66996099Y-95289480D01*
%TO.C,U1*%
X156875662Y-47942754D02*
X156761376Y-47980849D01*
X156723281Y-48018944D01*
X156685186Y-48095135D01*
X156685186Y-48209420D01*
X156723281Y-48285611D01*
X156761376Y-48323706D01*
X156837567Y-48361801D01*
X157142329Y-48361801D01*
X157142329Y-47561801D01*
X156875662Y-47561801D01*
X156799472Y-47599897D01*
X156761376Y-47637992D01*
X156723281Y-47714182D01*
X156723281Y-47790373D01*
X156761376Y-47866563D01*
X156799472Y-47904658D01*
X156875662Y-47942754D01*
X157142329Y-47942754D01*
X155961376Y-47561801D02*
X156342329Y-47561801D01*
X156380424Y-47942754D01*
X156342329Y-47904658D01*
X156266138Y-47866563D01*
X156075662Y-47866563D01*
X155999472Y-47904658D01*
X155961376Y-47942754D01*
X155923281Y-48018944D01*
X155923281Y-48209420D01*
X155961376Y-48285611D01*
X155999472Y-48323706D01*
X156075662Y-48361801D01*
X156266138Y-48361801D01*
X156342329Y-48323706D01*
X156380424Y-48285611D01*
X145891066Y-25433706D02*
X145776780Y-25471801D01*
X145586304Y-25471801D01*
X145510113Y-25433706D01*
X145472018Y-25395611D01*
X145433923Y-25319420D01*
X145433923Y-25243230D01*
X145472018Y-25167039D01*
X145510113Y-25128944D01*
X145586304Y-25090849D01*
X145738685Y-25052754D01*
X145814875Y-25014658D01*
X145852971Y-24976563D01*
X145891066Y-24900373D01*
X145891066Y-24824182D01*
X145852971Y-24747992D01*
X145814875Y-24709897D01*
X145738685Y-24671801D01*
X145548209Y-24671801D01*
X145433923Y-24709897D01*
X145205352Y-24671801D02*
X144748209Y-24671801D01*
X144976780Y-25471801D02*
X144976780Y-24671801D01*
X146182233Y-20421801D02*
X146448900Y-20040849D01*
X146639376Y-20421801D02*
X146639376Y-19621801D01*
X146334614Y-19621801D01*
X146258424Y-19659897D01*
X146220329Y-19697992D01*
X146182233Y-19774182D01*
X146182233Y-19888468D01*
X146220329Y-19964658D01*
X146258424Y-20002754D01*
X146334614Y-20040849D01*
X146639376Y-20040849D01*
X145877472Y-20193230D02*
X145496519Y-20193230D01*
X145953662Y-20421801D02*
X145686995Y-19621801D01*
X145420329Y-20421801D01*
X145229853Y-19621801D02*
X145039376Y-20421801D01*
X144886995Y-19850373D01*
X144734614Y-20421801D01*
X144544138Y-19621801D01*
X145896519Y-35242754D02*
X146163186Y-35242754D01*
X146163186Y-35661801D02*
X146163186Y-34861801D01*
X145782233Y-34861801D01*
X145134614Y-34861801D02*
X145286995Y-34861801D01*
X145363186Y-34899897D01*
X145401281Y-34937992D01*
X145477472Y-35052277D01*
X145515567Y-35204658D01*
X145515567Y-35509420D01*
X145477472Y-35585611D01*
X145439376Y-35623706D01*
X145363186Y-35661801D01*
X145210805Y-35661801D01*
X145134614Y-35623706D01*
X145096519Y-35585611D01*
X145058424Y-35509420D01*
X145058424Y-35318944D01*
X145096519Y-35242754D01*
X145134614Y-35204658D01*
X145210805Y-35166563D01*
X145363186Y-35166563D01*
X145439376Y-35204658D01*
X145477472Y-35242754D01*
X145515567Y-35318944D01*
X156875662Y-45402754D02*
X156761376Y-45440849D01*
X156723281Y-45478944D01*
X156685186Y-45555135D01*
X156685186Y-45669420D01*
X156723281Y-45745611D01*
X156761376Y-45783706D01*
X156837567Y-45821801D01*
X157142329Y-45821801D01*
X157142329Y-45021801D01*
X156875662Y-45021801D01*
X156799472Y-45059897D01*
X156761376Y-45097992D01*
X156723281Y-45174182D01*
X156723281Y-45250373D01*
X156761376Y-45326563D01*
X156799472Y-45364658D01*
X156875662Y-45402754D01*
X157142329Y-45402754D01*
X155999472Y-45288468D02*
X155999472Y-45821801D01*
X156189948Y-44983706D02*
X156380424Y-45555135D01*
X155885186Y-45555135D01*
X146696519Y-27241801D02*
X146429853Y-28041801D01*
X146163186Y-27241801D01*
X145439376Y-27965611D02*
X145477472Y-28003706D01*
X145591757Y-28041801D01*
X145667948Y-28041801D01*
X145782233Y-28003706D01*
X145858424Y-27927516D01*
X145896519Y-27851325D01*
X145934614Y-27698944D01*
X145934614Y-27584658D01*
X145896519Y-27432277D01*
X145858424Y-27356087D01*
X145782233Y-27279897D01*
X145667948Y-27241801D01*
X145591757Y-27241801D01*
X145477472Y-27279897D01*
X145439376Y-27317992D01*
X144639376Y-27965611D02*
X144677472Y-28003706D01*
X144791757Y-28041801D01*
X144867948Y-28041801D01*
X144982233Y-28003706D01*
X145058424Y-27927516D01*
X145096519Y-27851325D01*
X145134614Y-27698944D01*
X145134614Y-27584658D01*
X145096519Y-27432277D01*
X145058424Y-27356087D01*
X144982233Y-27279897D01*
X144867948Y-27241801D01*
X144791757Y-27241801D01*
X144677472Y-27279897D01*
X144639376Y-27317992D01*
X145953662Y-47942754D02*
X145839376Y-47980849D01*
X145801281Y-48018944D01*
X145763186Y-48095135D01*
X145763186Y-48209420D01*
X145801281Y-48285611D01*
X145839376Y-48323706D01*
X145915567Y-48361801D01*
X146220329Y-48361801D01*
X146220329Y-47561801D01*
X145953662Y-47561801D01*
X145877472Y-47599897D01*
X145839376Y-47637992D01*
X145801281Y-47714182D01*
X145801281Y-47790373D01*
X145839376Y-47866563D01*
X145877472Y-47904658D01*
X145953662Y-47942754D01*
X146220329Y-47942754D01*
X145077472Y-47561801D02*
X145229853Y-47561801D01*
X145306043Y-47599897D01*
X145344138Y-47637992D01*
X145420329Y-47752277D01*
X145458424Y-47904658D01*
X145458424Y-48209420D01*
X145420329Y-48285611D01*
X145382233Y-48323706D01*
X145306043Y-48361801D01*
X145153662Y-48361801D01*
X145077472Y-48323706D01*
X145039376Y-48285611D01*
X145001281Y-48209420D01*
X145001281Y-48018944D01*
X145039376Y-47942754D01*
X145077472Y-47904658D01*
X145153662Y-47866563D01*
X145306043Y-47866563D01*
X145382233Y-47904658D01*
X145420329Y-47942754D01*
X145458424Y-48018944D01*
X157161376Y-24739897D02*
X157237567Y-24701801D01*
X157351853Y-24701801D01*
X157466138Y-24739897D01*
X157542329Y-24816087D01*
X157580424Y-24892277D01*
X157618519Y-25044658D01*
X157618519Y-25158944D01*
X157580424Y-25311325D01*
X157542329Y-25387516D01*
X157466138Y-25463706D01*
X157351853Y-25501801D01*
X157275662Y-25501801D01*
X157161376Y-25463706D01*
X157123281Y-25425611D01*
X157123281Y-25158944D01*
X157275662Y-25158944D01*
X156780424Y-25501801D02*
X156780424Y-24701801D01*
X156323281Y-25501801D01*
X156323281Y-24701801D01*
X155942329Y-25501801D02*
X155942329Y-24701801D01*
X155751853Y-24701801D01*
X155637567Y-24739897D01*
X155561376Y-24816087D01*
X155523281Y-24892277D01*
X155485186Y-25044658D01*
X155485186Y-25158944D01*
X155523281Y-25311325D01*
X155561376Y-25387516D01*
X155637567Y-25463706D01*
X155751853Y-25501801D01*
X155942329Y-25501801D01*
X146239376Y-22199897D02*
X146315567Y-22161801D01*
X146429853Y-22161801D01*
X146544138Y-22199897D01*
X146620329Y-22276087D01*
X146658424Y-22352277D01*
X146696519Y-22504658D01*
X146696519Y-22618944D01*
X146658424Y-22771325D01*
X146620329Y-22847516D01*
X146544138Y-22923706D01*
X146429853Y-22961801D01*
X146353662Y-22961801D01*
X146239376Y-22923706D01*
X146201281Y-22885611D01*
X146201281Y-22618944D01*
X146353662Y-22618944D01*
X145858424Y-22961801D02*
X145858424Y-22161801D01*
X145401281Y-22961801D01*
X145401281Y-22161801D01*
X145020329Y-22961801D02*
X145020329Y-22161801D01*
X144829853Y-22161801D01*
X144715567Y-22199897D01*
X144639376Y-22276087D01*
X144601281Y-22352277D01*
X144563186Y-22504658D01*
X144563186Y-22618944D01*
X144601281Y-22771325D01*
X144639376Y-22847516D01*
X144715567Y-22923706D01*
X144829853Y-22961801D01*
X145020329Y-22961801D01*
X156685186Y-38125611D02*
X156723281Y-38163706D01*
X156837567Y-38201801D01*
X156913757Y-38201801D01*
X157028043Y-38163706D01*
X157104233Y-38087516D01*
X157142329Y-38011325D01*
X157180424Y-37858944D01*
X157180424Y-37744658D01*
X157142329Y-37592277D01*
X157104233Y-37516087D01*
X157028043Y-37439897D01*
X156913757Y-37401801D01*
X156837567Y-37401801D01*
X156723281Y-37439897D01*
X156685186Y-37477992D01*
X155999472Y-37401801D02*
X156151853Y-37401801D01*
X156228043Y-37439897D01*
X156266138Y-37477992D01*
X156342329Y-37592277D01*
X156380424Y-37744658D01*
X156380424Y-38049420D01*
X156342329Y-38125611D01*
X156304233Y-38163706D01*
X156228043Y-38201801D01*
X156075662Y-38201801D01*
X155999472Y-38163706D01*
X155961376Y-38125611D01*
X155923281Y-38049420D01*
X155923281Y-37858944D01*
X155961376Y-37782754D01*
X155999472Y-37744658D01*
X156075662Y-37706563D01*
X156228043Y-37706563D01*
X156304233Y-37744658D01*
X156342329Y-37782754D01*
X156380424Y-37858944D01*
X157142329Y-30581801D02*
X157142329Y-29781801D01*
X156951853Y-29781801D01*
X156837567Y-29819897D01*
X156761376Y-29896087D01*
X156723281Y-29972277D01*
X156685186Y-30124658D01*
X156685186Y-30238944D01*
X156723281Y-30391325D01*
X156761376Y-30467516D01*
X156837567Y-30543706D01*
X156951853Y-30581801D01*
X157142329Y-30581801D01*
X155923281Y-30581801D02*
X156380424Y-30581801D01*
X156151853Y-30581801D02*
X156151853Y-29781801D01*
X156228043Y-29896087D01*
X156304233Y-29972277D01*
X156380424Y-30010373D01*
X156853201Y-19621801D02*
X156396058Y-19621801D01*
X156624629Y-20421801D02*
X156624629Y-19621801D01*
X156205582Y-19621801D02*
X155672248Y-20421801D01*
X155672248Y-19621801D02*
X156205582Y-20421801D01*
X155215105Y-19621801D02*
X155138915Y-19621801D01*
X155062725Y-19659897D01*
X155024629Y-19697992D01*
X154986534Y-19774182D01*
X154948439Y-19926563D01*
X154948439Y-20117039D01*
X154986534Y-20269420D01*
X155024629Y-20345611D01*
X155062725Y-20383706D01*
X155138915Y-20421801D01*
X155215105Y-20421801D01*
X155291296Y-20383706D01*
X155329391Y-20345611D01*
X155367486Y-20269420D01*
X155405582Y-20117039D01*
X155405582Y-19926563D01*
X155367486Y-19774182D01*
X155329391Y-19697992D01*
X155291296Y-19659897D01*
X155215105Y-19621801D01*
X154034153Y-19583706D02*
X154719867Y-20612277D01*
X153767486Y-20421801D02*
X153767486Y-19621801D01*
X153577010Y-19621801D01*
X153462725Y-19659897D01*
X153386534Y-19736087D01*
X153348439Y-19812277D01*
X153310344Y-19964658D01*
X153310344Y-20078944D01*
X153348439Y-20231325D01*
X153386534Y-20307516D01*
X153462725Y-20383706D01*
X153577010Y-20421801D01*
X153767486Y-20421801D01*
X153043677Y-19621801D02*
X152548439Y-19621801D01*
X152815105Y-19926563D01*
X152700820Y-19926563D01*
X152624629Y-19964658D01*
X152586534Y-20002754D01*
X152548439Y-20078944D01*
X152548439Y-20269420D01*
X152586534Y-20345611D01*
X152624629Y-20383706D01*
X152700820Y-20421801D01*
X152929391Y-20421801D01*
X153005582Y-20383706D01*
X153043677Y-20345611D01*
X145953662Y-42862754D02*
X145839376Y-42900849D01*
X145801281Y-42938944D01*
X145763186Y-43015135D01*
X145763186Y-43129420D01*
X145801281Y-43205611D01*
X145839376Y-43243706D01*
X145915567Y-43281801D01*
X146220329Y-43281801D01*
X146220329Y-42481801D01*
X145953662Y-42481801D01*
X145877472Y-42519897D01*
X145839376Y-42557992D01*
X145801281Y-42634182D01*
X145801281Y-42710373D01*
X145839376Y-42786563D01*
X145877472Y-42824658D01*
X145953662Y-42862754D01*
X146220329Y-42862754D01*
X145496519Y-42481801D02*
X145001281Y-42481801D01*
X145267948Y-42786563D01*
X145153662Y-42786563D01*
X145077472Y-42824658D01*
X145039376Y-42862754D01*
X145001281Y-42938944D01*
X145001281Y-43129420D01*
X145039376Y-43205611D01*
X145077472Y-43243706D01*
X145153662Y-43281801D01*
X145382233Y-43281801D01*
X145458424Y-43243706D01*
X145496519Y-43205611D01*
X157104233Y-42862754D02*
X156837567Y-42862754D01*
X156723281Y-43281801D02*
X157104233Y-43281801D01*
X157104233Y-42481801D01*
X156723281Y-42481801D01*
X156037567Y-42481801D02*
X156189948Y-42481801D01*
X156266138Y-42519897D01*
X156304233Y-42557992D01*
X156380424Y-42672277D01*
X156418519Y-42824658D01*
X156418519Y-43129420D01*
X156380424Y-43205611D01*
X156342329Y-43243706D01*
X156266138Y-43281801D01*
X156113757Y-43281801D01*
X156037567Y-43243706D01*
X155999472Y-43205611D01*
X155961376Y-43129420D01*
X155961376Y-42938944D01*
X155999472Y-42862754D01*
X156037567Y-42824658D01*
X156113757Y-42786563D01*
X156266138Y-42786563D01*
X156342329Y-42824658D01*
X156380424Y-42862754D01*
X156418519Y-42938944D01*
X157142329Y-33121801D02*
X157142329Y-32321801D01*
X156951853Y-32321801D01*
X156837567Y-32359897D01*
X156761376Y-32436087D01*
X156723281Y-32512277D01*
X156685186Y-32664658D01*
X156685186Y-32778944D01*
X156723281Y-32931325D01*
X156761376Y-33007516D01*
X156837567Y-33083706D01*
X156951853Y-33121801D01*
X157142329Y-33121801D01*
X156189948Y-32321801D02*
X156113757Y-32321801D01*
X156037567Y-32359897D01*
X155999472Y-32397992D01*
X155961376Y-32474182D01*
X155923281Y-32626563D01*
X155923281Y-32817039D01*
X155961376Y-32969420D01*
X155999472Y-33045611D01*
X156037567Y-33083706D01*
X156113757Y-33121801D01*
X156189948Y-33121801D01*
X156266138Y-33083706D01*
X156304233Y-33045611D01*
X156342329Y-32969420D01*
X156380424Y-32817039D01*
X156380424Y-32626563D01*
X156342329Y-32474182D01*
X156304233Y-32397992D01*
X156266138Y-32359897D01*
X156189948Y-32321801D01*
X145896519Y-32702754D02*
X146163186Y-32702754D01*
X146163186Y-33121801D02*
X146163186Y-32321801D01*
X145782233Y-32321801D01*
X145096519Y-32321801D02*
X145477472Y-32321801D01*
X145515567Y-32702754D01*
X145477472Y-32664658D01*
X145401281Y-32626563D01*
X145210805Y-32626563D01*
X145134614Y-32664658D01*
X145096519Y-32702754D01*
X145058424Y-32778944D01*
X145058424Y-32969420D01*
X145096519Y-33045611D01*
X145134614Y-33083706D01*
X145210805Y-33121801D01*
X145401281Y-33121801D01*
X145477472Y-33083706D01*
X145515567Y-33045611D01*
X145896519Y-37782754D02*
X146163186Y-37782754D01*
X146163186Y-38201801D02*
X146163186Y-37401801D01*
X145782233Y-37401801D01*
X145553662Y-37401801D02*
X145020329Y-37401801D01*
X145363186Y-38201801D01*
X157142329Y-35661801D02*
X157142329Y-34861801D01*
X156951853Y-34861801D01*
X156837567Y-34899897D01*
X156761376Y-34976087D01*
X156723281Y-35052277D01*
X156685186Y-35204658D01*
X156685186Y-35318944D01*
X156723281Y-35471325D01*
X156761376Y-35547516D01*
X156837567Y-35623706D01*
X156951853Y-35661801D01*
X157142329Y-35661801D01*
X155999472Y-35128468D02*
X155999472Y-35661801D01*
X156189948Y-34823706D02*
X156380424Y-35395135D01*
X155885186Y-35395135D01*
X157142329Y-40741801D02*
X157142329Y-39941801D01*
X156951853Y-39941801D01*
X156837567Y-39979897D01*
X156761376Y-40056087D01*
X156723281Y-40132277D01*
X156685186Y-40284658D01*
X156685186Y-40398944D01*
X156723281Y-40551325D01*
X156761376Y-40627516D01*
X156837567Y-40703706D01*
X156951853Y-40741801D01*
X157142329Y-40741801D01*
X156418519Y-39941801D02*
X155885186Y-39941801D01*
X156228043Y-40741801D01*
X157142329Y-22961801D02*
X157142329Y-22161801D01*
X156951853Y-22161801D01*
X156837567Y-22199897D01*
X156761376Y-22276087D01*
X156723281Y-22352277D01*
X156685186Y-22504658D01*
X156685186Y-22618944D01*
X156723281Y-22771325D01*
X156761376Y-22847516D01*
X156837567Y-22923706D01*
X156951853Y-22961801D01*
X157142329Y-22961801D01*
X156380424Y-22237992D02*
X156342329Y-22199897D01*
X156266138Y-22161801D01*
X156075662Y-22161801D01*
X155999472Y-22199897D01*
X155961376Y-22237992D01*
X155923281Y-22314182D01*
X155923281Y-22390373D01*
X155961376Y-22504658D01*
X156418519Y-22961801D01*
X155923281Y-22961801D01*
X145896519Y-30162754D02*
X146163186Y-30162754D01*
X146163186Y-30581801D02*
X146163186Y-29781801D01*
X145782233Y-29781801D01*
X145134614Y-30048468D02*
X145134614Y-30581801D01*
X145325091Y-29743706D02*
X145515567Y-30315135D01*
X145020329Y-30315135D01*
X145953662Y-40322754D02*
X145839376Y-40360849D01*
X145801281Y-40398944D01*
X145763186Y-40475135D01*
X145763186Y-40589420D01*
X145801281Y-40665611D01*
X145839376Y-40703706D01*
X145915567Y-40741801D01*
X146220329Y-40741801D01*
X146220329Y-39941801D01*
X145953662Y-39941801D01*
X145877472Y-39979897D01*
X145839376Y-40017992D01*
X145801281Y-40094182D01*
X145801281Y-40170373D01*
X145839376Y-40246563D01*
X145877472Y-40284658D01*
X145953662Y-40322754D01*
X146220329Y-40322754D01*
X145001281Y-40741801D02*
X145458424Y-40741801D01*
X145229853Y-40741801D02*
X145229853Y-39941801D01*
X145306043Y-40056087D01*
X145382233Y-40132277D01*
X145458424Y-40170373D01*
X145953662Y-45402754D02*
X145839376Y-45440849D01*
X145801281Y-45478944D01*
X145763186Y-45555135D01*
X145763186Y-45669420D01*
X145801281Y-45745611D01*
X145839376Y-45783706D01*
X145915567Y-45821801D01*
X146220329Y-45821801D01*
X146220329Y-45021801D01*
X145953662Y-45021801D01*
X145877472Y-45059897D01*
X145839376Y-45097992D01*
X145801281Y-45174182D01*
X145801281Y-45250373D01*
X145839376Y-45326563D01*
X145877472Y-45364658D01*
X145953662Y-45402754D01*
X146220329Y-45402754D01*
X145458424Y-45097992D02*
X145420329Y-45059897D01*
X145344138Y-45021801D01*
X145153662Y-45021801D01*
X145077472Y-45059897D01*
X145039376Y-45097992D01*
X145001281Y-45174182D01*
X145001281Y-45250373D01*
X145039376Y-45364658D01*
X145496519Y-45821801D01*
X145001281Y-45821801D01*
X157161376Y-27279897D02*
X157237567Y-27241801D01*
X157351853Y-27241801D01*
X157466138Y-27279897D01*
X157542329Y-27356087D01*
X157580424Y-27432277D01*
X157618519Y-27584658D01*
X157618519Y-27698944D01*
X157580424Y-27851325D01*
X157542329Y-27927516D01*
X157466138Y-28003706D01*
X157351853Y-28041801D01*
X157275662Y-28041801D01*
X157161376Y-28003706D01*
X157123281Y-27965611D01*
X157123281Y-27698944D01*
X157275662Y-27698944D01*
X156780424Y-28041801D02*
X156780424Y-27241801D01*
X156323281Y-28041801D01*
X156323281Y-27241801D01*
X155942329Y-28041801D02*
X155942329Y-27241801D01*
X155751853Y-27241801D01*
X155637567Y-27279897D01*
X155561376Y-27356087D01*
X155523281Y-27432277D01*
X155485186Y-27584658D01*
X155485186Y-27698944D01*
X155523281Y-27851325D01*
X155561376Y-27927516D01*
X155637567Y-28003706D01*
X155751853Y-28041801D01*
X155942329Y-28041801D01*
%TO.C,G\u002A\u002A\u002A*%
G36*
X73587007Y-91850234D02*
G01*
X73501369Y-91986774D01*
X73382663Y-92128946D01*
X73302379Y-92220472D01*
X73214487Y-92339526D01*
X73172640Y-92441157D01*
X73160098Y-92557605D01*
X73145345Y-92708349D01*
X73077838Y-92989430D01*
X73075540Y-92998999D01*
X72961147Y-93300354D01*
X72815829Y-93572151D01*
X72804902Y-93589001D01*
X72677343Y-93754831D01*
X72521405Y-93892819D01*
X72303889Y-94032837D01*
X71958421Y-94233950D01*
X69972617Y-92323410D01*
X68302431Y-90716524D01*
X68847848Y-90716524D01*
X68864011Y-90755092D01*
X68919834Y-90827792D01*
X69020043Y-90939548D01*
X69169364Y-91095285D01*
X69372524Y-91299932D01*
X69634253Y-91558413D01*
X69959274Y-91875655D01*
X70352318Y-92256584D01*
X70609459Y-92504736D01*
X70928998Y-92811759D01*
X71221811Y-93091602D01*
X71480398Y-93337177D01*
X71697263Y-93541400D01*
X71864909Y-93697184D01*
X71975836Y-93797445D01*
X72022551Y-93835095D01*
X72052368Y-93836234D01*
X72156928Y-93791948D01*
X72291286Y-93696759D01*
X72431651Y-93568938D01*
X72554234Y-93426754D01*
X72667543Y-93239293D01*
X72789332Y-92901225D01*
X72848346Y-92517450D01*
X72841947Y-92109349D01*
X72767498Y-91698301D01*
X72713479Y-91531415D01*
X72655370Y-91404893D01*
X72606426Y-91348420D01*
X72593268Y-91345192D01*
X72493907Y-91325605D01*
X72314265Y-91292658D01*
X72067992Y-91248690D01*
X71768739Y-91196043D01*
X71430156Y-91137056D01*
X71065894Y-91074071D01*
X70689602Y-91009425D01*
X70314933Y-90945463D01*
X69955534Y-90884521D01*
X69625058Y-90828941D01*
X69337155Y-90781063D01*
X69105476Y-90743228D01*
X68943669Y-90717775D01*
X68865387Y-90707045D01*
X68847848Y-90716524D01*
X68302431Y-90716524D01*
X67986814Y-90412869D01*
X67863987Y-90360682D01*
X68932550Y-90360682D01*
X68950125Y-90376298D01*
X69001690Y-90395107D01*
X69095329Y-90418755D01*
X69239124Y-90448886D01*
X69441159Y-90487144D01*
X69709514Y-90535175D01*
X70052276Y-90594623D01*
X70477526Y-90667133D01*
X70993347Y-90754349D01*
X72857849Y-91068906D01*
X72929532Y-91229799D01*
X72958209Y-91302107D01*
X73015320Y-91476932D01*
X73065880Y-91664930D01*
X73070352Y-91683885D01*
X73106988Y-91829166D01*
X73136214Y-91894138D01*
X73172044Y-91894352D01*
X73228494Y-91845358D01*
X73288984Y-91758291D01*
X73364892Y-91596089D01*
X73437180Y-91393269D01*
X73460590Y-91315057D01*
X73509381Y-91106351D01*
X73521860Y-90923749D01*
X73502798Y-90718179D01*
X73448189Y-90490847D01*
X73348454Y-90223971D01*
X73220199Y-89955824D01*
X73079320Y-89719545D01*
X72941709Y-89548273D01*
X72811860Y-89421363D01*
X70912046Y-89864767D01*
X70812477Y-89888030D01*
X70396023Y-89985848D01*
X70011709Y-90076937D01*
X69670416Y-90158662D01*
X69383024Y-90228386D01*
X69160415Y-90283475D01*
X69013471Y-90321294D01*
X68953072Y-90339208D01*
X68940881Y-90346615D01*
X68932550Y-90360682D01*
X67863987Y-90360682D01*
X67477804Y-90196600D01*
X67412471Y-90168321D01*
X66793758Y-89843663D01*
X66242137Y-89447433D01*
X65761391Y-88985219D01*
X65355309Y-88462608D01*
X65027676Y-87885190D01*
X64782277Y-87258553D01*
X64622900Y-86588287D01*
X64553330Y-85879977D01*
X64552083Y-85819806D01*
X64554779Y-85698100D01*
X64906305Y-85698100D01*
X64951904Y-86340699D01*
X65081024Y-86966037D01*
X65288319Y-87562699D01*
X65568442Y-88119271D01*
X65916047Y-88624335D01*
X66325784Y-89066475D01*
X66792309Y-89434276D01*
X66829524Y-89458848D01*
X66982086Y-89555558D01*
X67068141Y-89598999D01*
X67099894Y-89593676D01*
X67089547Y-89544100D01*
X66966573Y-89207705D01*
X66837326Y-88763906D01*
X66761522Y-88343138D01*
X66733874Y-87912760D01*
X66749104Y-87440131D01*
X66774136Y-87229388D01*
X66839373Y-86898612D01*
X66931993Y-86543591D01*
X67042035Y-86201465D01*
X67159543Y-85909376D01*
X67279936Y-85649345D01*
X66949855Y-85649394D01*
X66940421Y-85649378D01*
X66543271Y-85622600D01*
X66133665Y-85549996D01*
X65739447Y-85439344D01*
X65388458Y-85298421D01*
X65108538Y-85135007D01*
X65106254Y-85133340D01*
X65012268Y-85074213D01*
X64958608Y-85057508D01*
X64957630Y-85058271D01*
X64942316Y-85117154D01*
X64926515Y-85247573D01*
X64913501Y-85423017D01*
X64906305Y-85698100D01*
X64554779Y-85698100D01*
X64557979Y-85553609D01*
X64578353Y-85257194D01*
X64609882Y-84963114D01*
X64649237Y-84703921D01*
X64693092Y-84512168D01*
X64740107Y-84358391D01*
X64936536Y-84543693D01*
X65084108Y-84671816D01*
X65496627Y-84939585D01*
X65968223Y-85134035D01*
X66490184Y-85252884D01*
X67053795Y-85293849D01*
X67650345Y-85254646D01*
X67782926Y-85239625D01*
X67904527Y-85231797D01*
X67955741Y-85236987D01*
X67947347Y-85262405D01*
X67897770Y-85358468D01*
X67813329Y-85507503D01*
X67704559Y-85690494D01*
X67601354Y-85869977D01*
X67339957Y-86447736D01*
X67171999Y-87042687D01*
X67097424Y-87645882D01*
X67116175Y-88248371D01*
X67228192Y-88841202D01*
X67433422Y-89415424D01*
X67617011Y-89751774D01*
X67731805Y-89962088D01*
X67899798Y-90220158D01*
X68206821Y-90033315D01*
X68817956Y-90033315D01*
X68828542Y-90031725D01*
X68918168Y-90012693D01*
X69090397Y-89974136D01*
X69334932Y-89918416D01*
X69641475Y-89847901D01*
X69999731Y-89764953D01*
X70399402Y-89671936D01*
X70830191Y-89571218D01*
X71011822Y-89528701D01*
X71433868Y-89430241D01*
X71822192Y-89340108D01*
X72166191Y-89260736D01*
X72455263Y-89194554D01*
X72678806Y-89143996D01*
X72826216Y-89111493D01*
X72886890Y-89099477D01*
X72896856Y-89101463D01*
X72967974Y-89153141D01*
X73075936Y-89260746D01*
X73201595Y-89405653D01*
X73202178Y-89406370D01*
X73340839Y-89567077D01*
X73430172Y-89642915D01*
X73475605Y-89632682D01*
X73482569Y-89535173D01*
X73456493Y-89349186D01*
X73436108Y-89255055D01*
X73305335Y-88916498D01*
X73095280Y-88588506D01*
X72821127Y-88291719D01*
X72498065Y-88046772D01*
X72283537Y-87913875D01*
X71045192Y-88667272D01*
X70708432Y-88872069D01*
X70359916Y-89083858D01*
X70027974Y-89285424D01*
X69729818Y-89466322D01*
X69482656Y-89616106D01*
X69303697Y-89724330D01*
X69110701Y-89842043D01*
X68953953Y-89940042D01*
X68851030Y-90007197D01*
X68817956Y-90033315D01*
X68206821Y-90033315D01*
X70071212Y-88898716D01*
X70103850Y-88878858D01*
X70672604Y-88534627D01*
X71158248Y-88244384D01*
X71560653Y-88008205D01*
X71879690Y-87826163D01*
X72115229Y-87698333D01*
X72267141Y-87624790D01*
X72335295Y-87605606D01*
X72405903Y-87634097D01*
X72575630Y-87729999D01*
X72774863Y-87866287D01*
X72976503Y-88023821D01*
X73153452Y-88183461D01*
X73315489Y-88367996D01*
X73513344Y-88674767D01*
X73662837Y-89009967D01*
X73756435Y-89351000D01*
X73786603Y-89675269D01*
X73779402Y-89725562D01*
X73745808Y-89960181D01*
X73727398Y-90074218D01*
X73732339Y-90302861D01*
X73772156Y-90600815D01*
X73805973Y-90807159D01*
X73823179Y-90976913D01*
X73816986Y-91119908D01*
X73785437Y-91273690D01*
X73726578Y-91475800D01*
X73724803Y-91481204D01*
X73658254Y-91683854D01*
X73587007Y-91850234D01*
G37*
G36*
X69375072Y-84208479D02*
G01*
X68868051Y-84531823D01*
X68332156Y-84775254D01*
X67779906Y-84934319D01*
X67223819Y-85004563D01*
X66676408Y-84981534D01*
X66390321Y-84932374D01*
X65882267Y-84777675D01*
X65426626Y-84541164D01*
X65015173Y-84219064D01*
X64894266Y-84099198D01*
X64727302Y-83911923D01*
X64579512Y-83722840D01*
X64463785Y-83550069D01*
X64428756Y-83481605D01*
X64799714Y-83481605D01*
X64830037Y-83569018D01*
X64925566Y-83695812D01*
X65070337Y-83847381D01*
X65248386Y-84009113D01*
X65443747Y-84166402D01*
X65640455Y-84304637D01*
X65822546Y-84409211D01*
X65882867Y-84437926D01*
X66363129Y-84611324D01*
X66861281Y-84692829D01*
X67386062Y-84683156D01*
X67946212Y-84583019D01*
X67952532Y-84581420D01*
X68180397Y-84506543D01*
X68453233Y-84392388D01*
X68735839Y-84255920D01*
X68993016Y-84114101D01*
X69189562Y-83983891D01*
X69331814Y-83874554D01*
X68995344Y-83735904D01*
X68816102Y-83656683D01*
X68586058Y-83543704D01*
X68393882Y-83437909D01*
X68311080Y-83384554D01*
X68108804Y-83235792D01*
X67884841Y-83053084D01*
X67665254Y-82859025D01*
X67476103Y-82676206D01*
X67343447Y-82527223D01*
X67235367Y-82386607D01*
X66024252Y-82911035D01*
X65714180Y-83046431D01*
X65420564Y-83176961D01*
X65170300Y-83290645D01*
X64975543Y-83381880D01*
X64848448Y-83445064D01*
X64801171Y-83474600D01*
X64799714Y-83481605D01*
X64428756Y-83481605D01*
X64393011Y-83411741D01*
X64380080Y-83325976D01*
X64397465Y-83312098D01*
X64494086Y-83259870D01*
X64665394Y-83176619D01*
X64900298Y-83067465D01*
X65187704Y-82937525D01*
X65516519Y-82791920D01*
X65875653Y-82635770D01*
X67350509Y-82000141D01*
X67460328Y-82169755D01*
X67542288Y-82279048D01*
X67709093Y-82463612D01*
X67917221Y-82668113D01*
X68143217Y-82870819D01*
X68363623Y-83049999D01*
X68554985Y-83183922D01*
X68654283Y-83240398D01*
X68977328Y-83384540D01*
X69399088Y-83527656D01*
X69961401Y-83697917D01*
X69765087Y-83882528D01*
X69656025Y-83973675D01*
X69375072Y-84208479D01*
G37*
G36*
X72703927Y-82589260D02*
G01*
X72653083Y-82638717D01*
X72238314Y-82965393D01*
X71766251Y-83219098D01*
X71251841Y-83394552D01*
X70710028Y-83486476D01*
X70155758Y-83489588D01*
X70095290Y-83481448D01*
X69922723Y-83443586D01*
X69706097Y-83383961D01*
X69478304Y-83311230D01*
X69208353Y-83206107D01*
X68703303Y-82931544D01*
X68255742Y-82575401D01*
X67866574Y-82138464D01*
X67536706Y-81621524D01*
X67515292Y-81581278D01*
X67394530Y-81334811D01*
X67290465Y-81090931D01*
X67208884Y-80866920D01*
X67184194Y-80780382D01*
X67507236Y-80780382D01*
X67523814Y-80853365D01*
X67579811Y-80993353D01*
X67666771Y-81180894D01*
X67776235Y-81396533D01*
X67952854Y-81706811D01*
X68214120Y-82077738D01*
X68506842Y-82390071D01*
X68851517Y-82668049D01*
X68910124Y-82707954D01*
X69218684Y-82878023D01*
X69573895Y-83023788D01*
X69935792Y-83130654D01*
X70264412Y-83184028D01*
X70599144Y-83188180D01*
X71110848Y-83118989D01*
X71600701Y-82963300D01*
X72046667Y-82726764D01*
X72102096Y-82689895D01*
X72281331Y-82563630D01*
X72383990Y-82474623D01*
X72418893Y-82413904D01*
X72394859Y-82372497D01*
X72351391Y-82342782D01*
X72241040Y-82267599D01*
X72100897Y-82172274D01*
X72042558Y-82130305D01*
X71876972Y-81998149D01*
X71685646Y-81832830D01*
X71499253Y-81660442D01*
X71389096Y-81551178D01*
X71236395Y-81381685D01*
X71100240Y-81199726D01*
X70961638Y-80978969D01*
X70801599Y-80693080D01*
X70756286Y-80609434D01*
X70635848Y-80390175D01*
X70548885Y-80242285D01*
X70484974Y-80152874D01*
X70433694Y-80109055D01*
X70384622Y-80097940D01*
X70327334Y-80106640D01*
X70243855Y-80124801D01*
X70076321Y-80161027D01*
X69839591Y-80212110D01*
X69548041Y-80274950D01*
X69216049Y-80346447D01*
X68857989Y-80423501D01*
X68559967Y-80488978D01*
X68212837Y-80569330D01*
X67924095Y-80641093D01*
X67703683Y-80701651D01*
X67561550Y-80748388D01*
X67507638Y-80778689D01*
X67507236Y-80780382D01*
X67184194Y-80780382D01*
X67155570Y-80680057D01*
X67136308Y-80547621D01*
X67156881Y-80486892D01*
X67170120Y-80482388D01*
X67267131Y-80457405D01*
X67441813Y-80416489D01*
X67680680Y-80362523D01*
X67970244Y-80298389D01*
X68297021Y-80226971D01*
X68647524Y-80151153D01*
X69008266Y-80073816D01*
X69365760Y-79997846D01*
X69706521Y-79926123D01*
X70017064Y-79861532D01*
X70283900Y-79806956D01*
X70493544Y-79765278D01*
X70632510Y-79739381D01*
X70687311Y-79732148D01*
X70687728Y-79732319D01*
X70721972Y-79785027D01*
X70774730Y-79906738D01*
X70834759Y-80071571D01*
X70980155Y-80422206D01*
X71225321Y-80847319D01*
X71528678Y-81249597D01*
X71873544Y-81609842D01*
X72243235Y-81908853D01*
X72621070Y-82127428D01*
X72773348Y-82200200D01*
X72879936Y-82272658D01*
X72901263Y-82346979D01*
X72841276Y-82445176D01*
X72769040Y-82520954D01*
X72703927Y-82589260D01*
G37*
G36*
X76662680Y-81809423D02*
G01*
X76611908Y-81843376D01*
X76356334Y-81993552D01*
X76062966Y-82141151D01*
X75771311Y-82267352D01*
X75520868Y-82353339D01*
X75410660Y-82380727D01*
X75101832Y-82436033D01*
X74770377Y-82471559D01*
X74455621Y-82483858D01*
X74196891Y-82469477D01*
X73794564Y-82391626D01*
X73240856Y-82203971D01*
X72718929Y-81933807D01*
X72246268Y-81590670D01*
X71840353Y-81184097D01*
X71610333Y-80876939D01*
X71355970Y-80455779D01*
X71137092Y-80004342D01*
X70973770Y-79560236D01*
X70936981Y-79430381D01*
X70877747Y-79187487D01*
X70827433Y-78940818D01*
X70789206Y-78710508D01*
X70787805Y-78698692D01*
X71096795Y-78698692D01*
X71113469Y-78844476D01*
X71153412Y-79044177D01*
X71211984Y-79278974D01*
X71284550Y-79530046D01*
X71366474Y-79778571D01*
X71453119Y-80005727D01*
X71504957Y-80120669D01*
X71712135Y-80481622D01*
X71979671Y-80846563D01*
X72285891Y-81190379D01*
X72609118Y-81487954D01*
X72927676Y-81714177D01*
X73122416Y-81814375D01*
X73391971Y-81927784D01*
X73682237Y-82030869D01*
X73957145Y-82110932D01*
X74180625Y-82155274D01*
X74249308Y-82162198D01*
X74538706Y-82171768D01*
X74854591Y-82158483D01*
X75155156Y-82125119D01*
X75398592Y-82074450D01*
X75542748Y-82028454D01*
X75744225Y-81953833D01*
X75938987Y-81872267D01*
X76105080Y-81793645D01*
X76220552Y-81727860D01*
X76263447Y-81684804D01*
X76263401Y-81684091D01*
X76223031Y-81631748D01*
X76121858Y-81542630D01*
X75981257Y-81435616D01*
X75616982Y-81120101D01*
X75288379Y-80721373D01*
X75016888Y-80265225D01*
X74813304Y-79769878D01*
X74688421Y-79253553D01*
X74666867Y-79109945D01*
X74641231Y-78914334D01*
X74626919Y-78769561D01*
X74626597Y-78699507D01*
X74629739Y-78684502D01*
X74610142Y-78606963D01*
X74606281Y-78605372D01*
X74531896Y-78599081D01*
X74374612Y-78594187D01*
X74148415Y-78590628D01*
X73867291Y-78588343D01*
X73545230Y-78587272D01*
X73196217Y-78587353D01*
X72834238Y-78588525D01*
X72473283Y-78590728D01*
X72127337Y-78593902D01*
X71810387Y-78597984D01*
X71536422Y-78602915D01*
X71319426Y-78608632D01*
X71173387Y-78615076D01*
X71112294Y-78622186D01*
X71108024Y-78625649D01*
X71096795Y-78698692D01*
X70787805Y-78698692D01*
X70766231Y-78516689D01*
X70761670Y-78379495D01*
X70778690Y-78319058D01*
X70829149Y-78315721D01*
X70969153Y-78311518D01*
X71187596Y-78306708D01*
X71473509Y-78301444D01*
X71815921Y-78295882D01*
X72203864Y-78290175D01*
X72626369Y-78284476D01*
X73072464Y-78278942D01*
X73531183Y-78273725D01*
X73991555Y-78268980D01*
X74442610Y-78264860D01*
X74873380Y-78261521D01*
X74923209Y-78280244D01*
X74944612Y-78354993D01*
X74939249Y-78506664D01*
X74932528Y-78614675D01*
X74959316Y-79088646D01*
X75076377Y-79594832D01*
X75179870Y-79890339D01*
X75380837Y-80306681D01*
X75639180Y-80674843D01*
X75968993Y-81013649D01*
X76384368Y-81341924D01*
X76854980Y-81676726D01*
X76665252Y-81807648D01*
X76662680Y-81809423D01*
G37*
G36*
X83563131Y-80557191D02*
G01*
X83279045Y-80556901D01*
X83062857Y-80547581D01*
X82884412Y-80525608D01*
X82713558Y-80487356D01*
X82520140Y-80429197D01*
X82505696Y-80424500D01*
X82133630Y-80277492D01*
X81826505Y-80104771D01*
X81826131Y-80104515D01*
X81684807Y-80008259D01*
X81580957Y-79938503D01*
X81537039Y-79910333D01*
X81526910Y-79920643D01*
X81499052Y-79989543D01*
X81495002Y-80001222D01*
X81426827Y-80128824D01*
X81307284Y-80302360D01*
X81153882Y-80500144D01*
X80984129Y-80700483D01*
X80815532Y-80881688D01*
X80665601Y-81022068D01*
X80563741Y-81104005D01*
X80095041Y-81409828D01*
X79587334Y-81637617D01*
X79056641Y-81782681D01*
X78518979Y-81840325D01*
X77990369Y-81805857D01*
X77875579Y-81784449D01*
X77502719Y-81680226D01*
X77120410Y-81529123D01*
X76774960Y-81348565D01*
X76494367Y-81152577D01*
X76116164Y-80794261D01*
X75795513Y-80372329D01*
X75538701Y-79901550D01*
X75352016Y-79396697D01*
X75241742Y-78872542D01*
X75214697Y-78353992D01*
X75525819Y-78353992D01*
X75560324Y-78904227D01*
X75682781Y-79431883D01*
X75887143Y-79925142D01*
X76167364Y-80372188D01*
X76517398Y-80761208D01*
X76931197Y-81080381D01*
X77273408Y-81262097D01*
X77682881Y-81414257D01*
X78100178Y-81511199D01*
X78489244Y-81542233D01*
X78711540Y-81529050D01*
X79203272Y-81437152D01*
X79688572Y-81267471D01*
X80139844Y-81030883D01*
X80529491Y-80738262D01*
X80596540Y-80674795D01*
X80770384Y-80489117D01*
X80938220Y-80284208D01*
X81083608Y-80082287D01*
X81190111Y-79905570D01*
X81221946Y-79825139D01*
X81984382Y-79825139D01*
X82018232Y-79861064D01*
X82051451Y-79881843D01*
X82176925Y-79942877D01*
X82356828Y-80018768D01*
X82564097Y-80097780D01*
X82645089Y-80126832D01*
X82829204Y-80188040D01*
X82983051Y-80225801D01*
X83139170Y-80244797D01*
X83330100Y-80249714D01*
X83588379Y-80245235D01*
X83839353Y-80236155D01*
X84038931Y-80218663D01*
X84197276Y-80187062D01*
X84344737Y-80135158D01*
X84511663Y-80056754D01*
X84625594Y-79996300D01*
X84942231Y-79778910D01*
X85164066Y-79535234D01*
X85292854Y-79263489D01*
X85298307Y-79244328D01*
X85335483Y-79063078D01*
X85321076Y-78966595D01*
X85254182Y-78953515D01*
X85133903Y-79022469D01*
X85133694Y-79022625D01*
X85026177Y-79089754D01*
X84851502Y-79184884D01*
X84633786Y-79295373D01*
X84397146Y-79408583D01*
X84092728Y-79536532D01*
X83499420Y-79716351D01*
X82901953Y-79810613D01*
X82320296Y-79815408D01*
X82290784Y-79813294D01*
X82107897Y-79803183D01*
X82010017Y-79806489D01*
X81984382Y-79825139D01*
X81221946Y-79825139D01*
X81241287Y-79776275D01*
X81265640Y-79643688D01*
X78451091Y-78769700D01*
X77987338Y-78626268D01*
X77502278Y-78477534D01*
X77053036Y-78341117D01*
X76648125Y-78219537D01*
X76296056Y-78115313D01*
X76005347Y-78030960D01*
X75784507Y-77968998D01*
X75642053Y-77931946D01*
X75586496Y-77922322D01*
X75581271Y-77927131D01*
X75556776Y-78003530D01*
X75537160Y-78148214D01*
X75526269Y-78334825D01*
X75525819Y-78353992D01*
X75214697Y-78353992D01*
X75214168Y-78343857D01*
X75275580Y-77825414D01*
X75345979Y-77494016D01*
X78562569Y-78477426D01*
X78977252Y-78604171D01*
X79555562Y-78780671D01*
X80050966Y-78931314D01*
X80471217Y-79058242D01*
X80824069Y-79163591D01*
X81117276Y-79249502D01*
X81358590Y-79318115D01*
X81555768Y-79371567D01*
X81716559Y-79411998D01*
X81848721Y-79441549D01*
X81960007Y-79462357D01*
X82058169Y-79476562D01*
X82150962Y-79486305D01*
X82246140Y-79493722D01*
X82521428Y-79505356D01*
X83117961Y-79470098D01*
X83687598Y-79346129D01*
X84249737Y-79129926D01*
X84452198Y-79032600D01*
X84684919Y-78914156D01*
X84883110Y-78806448D01*
X85018366Y-78724461D01*
X85238133Y-78575030D01*
X85128120Y-78359454D01*
X85115175Y-78334954D01*
X84938002Y-78085112D01*
X84689585Y-77838470D01*
X84394184Y-77616239D01*
X84076062Y-77439631D01*
X83850139Y-77347751D01*
X83409372Y-77212501D01*
X82904919Y-77102437D01*
X82358399Y-77021952D01*
X81791433Y-76975439D01*
X81607600Y-76963753D01*
X81301082Y-76938224D01*
X80935762Y-76902984D01*
X80534236Y-76860353D01*
X80119105Y-76812648D01*
X79712962Y-76762189D01*
X79491957Y-76734341D01*
X79016009Y-76678429D01*
X78509431Y-76623400D01*
X78004628Y-76572583D01*
X77534004Y-76529306D01*
X77129963Y-76496896D01*
X77080771Y-76493344D01*
X76314188Y-76433391D01*
X75561502Y-76366211D01*
X74833470Y-76293144D01*
X74140844Y-76215530D01*
X73494384Y-76134709D01*
X72904841Y-76052020D01*
X72382972Y-75968803D01*
X71939531Y-75886398D01*
X71585276Y-75806146D01*
X71318327Y-75732720D01*
X70628581Y-75497964D01*
X69979176Y-75211887D01*
X69388987Y-74883441D01*
X68876885Y-74521580D01*
X68621638Y-74337282D01*
X68198948Y-74120124D01*
X68026423Y-74045647D01*
X67855957Y-73942468D01*
X67782823Y-73845484D01*
X67805645Y-73753407D01*
X67828800Y-73730611D01*
X67926267Y-73689370D01*
X67929314Y-73689201D01*
X68049662Y-73712072D01*
X68228234Y-73779917D01*
X68442009Y-73881046D01*
X68667967Y-74003769D01*
X68883088Y-74136398D01*
X69064352Y-74267245D01*
X69066256Y-74268775D01*
X69546554Y-74608270D01*
X70100270Y-74919612D01*
X70702349Y-75191484D01*
X71327734Y-75412565D01*
X71951373Y-75571538D01*
X72024474Y-75585997D01*
X72437334Y-75659248D01*
X72930011Y-75735325D01*
X73485858Y-75812289D01*
X74088230Y-75888203D01*
X74720479Y-75961130D01*
X75365962Y-76029132D01*
X76008031Y-76090273D01*
X76630042Y-76142613D01*
X77215346Y-76184216D01*
X77475825Y-76203726D01*
X77834082Y-76235981D01*
X78245768Y-76277215D01*
X78687048Y-76324935D01*
X79134090Y-76376647D01*
X79563056Y-76429855D01*
X79976937Y-76481328D01*
X80402876Y-76530833D01*
X80815585Y-76575634D01*
X81193606Y-76613489D01*
X81515482Y-76642156D01*
X81759754Y-76659392D01*
X81904526Y-76668010D01*
X82627685Y-76737404D01*
X83264197Y-76847261D01*
X83818939Y-76999515D01*
X84296785Y-77196099D01*
X84702608Y-77438949D01*
X85041286Y-77729998D01*
X85317692Y-78071182D01*
X85383758Y-78165488D01*
X85456302Y-78257803D01*
X85492555Y-78288390D01*
X85500023Y-78283390D01*
X85602243Y-78170356D01*
X85701279Y-77992294D01*
X85786847Y-77778964D01*
X85848669Y-77560130D01*
X85876458Y-77365552D01*
X85859935Y-77224994D01*
X85812431Y-77127087D01*
X85691658Y-76970797D01*
X85509745Y-76825514D01*
X85248465Y-76674840D01*
X85129705Y-76616393D01*
X84805032Y-76475205D01*
X84422997Y-76328030D01*
X84011726Y-76184433D01*
X83599346Y-76053977D01*
X83213985Y-75946228D01*
X82883771Y-75870750D01*
X82735334Y-75842319D01*
X82452075Y-75788037D01*
X82120580Y-75724492D01*
X81770722Y-75657408D01*
X81432374Y-75592512D01*
X81303910Y-75568687D01*
X80937658Y-75506518D01*
X80501630Y-75438664D01*
X80016750Y-75367969D01*
X79503944Y-75297271D01*
X78984137Y-75229410D01*
X78478256Y-75167227D01*
X78007224Y-75113561D01*
X77591968Y-75071254D01*
X77351426Y-75043819D01*
X77003527Y-74994873D01*
X76592976Y-74930125D01*
X76138289Y-74852912D01*
X75657976Y-74766573D01*
X75170553Y-74674446D01*
X74694532Y-74579867D01*
X74248426Y-74486175D01*
X73850748Y-74396709D01*
X73839558Y-74394078D01*
X73442556Y-74296589D01*
X73003764Y-74181905D01*
X72538605Y-74054638D01*
X72062502Y-73919392D01*
X71590874Y-73780776D01*
X71139146Y-73643396D01*
X70722738Y-73511860D01*
X70357074Y-73390776D01*
X70057574Y-73284750D01*
X69839662Y-73198391D01*
X69775814Y-73169704D01*
X69530140Y-73046461D01*
X69241049Y-72883045D01*
X68904279Y-72676583D01*
X68515563Y-72424206D01*
X68070634Y-72123040D01*
X67565230Y-71770214D01*
X66995082Y-71362856D01*
X66355927Y-70898092D01*
X65643498Y-70373052D01*
X65536078Y-70293820D01*
X65190660Y-70046433D01*
X64891932Y-69848120D01*
X64617179Y-69686179D01*
X64343681Y-69547903D01*
X64048721Y-69420590D01*
X63709583Y-69291534D01*
X63585623Y-69246178D01*
X63376200Y-69166718D01*
X63240016Y-69108157D01*
X63162377Y-69062667D01*
X63128589Y-69022421D01*
X63123959Y-68979594D01*
X63124685Y-68973490D01*
X63150028Y-68905179D01*
X63212968Y-68872272D01*
X63327419Y-68874947D01*
X63507294Y-68913381D01*
X63766506Y-68987747D01*
X63930401Y-69040064D01*
X64279000Y-69170923D01*
X64617810Y-69329400D01*
X64966850Y-69526372D01*
X65346142Y-69772717D01*
X65775707Y-70079310D01*
X66311783Y-70473790D01*
X66901234Y-70904522D01*
X67423336Y-71281925D01*
X67884573Y-71610297D01*
X68291429Y-71893938D01*
X68650386Y-72137152D01*
X68967929Y-72344236D01*
X69250539Y-72519492D01*
X69504703Y-72667219D01*
X69736900Y-72791719D01*
X69953619Y-72897291D01*
X70161338Y-72988237D01*
X70183728Y-72997385D01*
X70413656Y-73083007D01*
X70722743Y-73187501D01*
X71095083Y-73306230D01*
X71514769Y-73434560D01*
X71965892Y-73567854D01*
X72432546Y-73701476D01*
X72898825Y-73830793D01*
X73348819Y-73951167D01*
X73766623Y-74057966D01*
X74136330Y-74146552D01*
X74364729Y-74197408D01*
X74762112Y-74280817D01*
X75193063Y-74366250D01*
X75638827Y-74450364D01*
X76080656Y-74529817D01*
X76499798Y-74601270D01*
X76877503Y-74661377D01*
X77195018Y-74706800D01*
X77433595Y-74734195D01*
X77618676Y-74752069D01*
X77909300Y-74782993D01*
X78223976Y-74818862D01*
X78520774Y-74855017D01*
X78725516Y-74880657D01*
X79085919Y-74924742D01*
X79455977Y-74968995D01*
X79781458Y-75006885D01*
X79812775Y-75010500D01*
X80025824Y-75037281D01*
X80261087Y-75070873D01*
X80529391Y-75113152D01*
X80841558Y-75165992D01*
X81208415Y-75231272D01*
X81640788Y-75310866D01*
X82149501Y-75406651D01*
X82745380Y-75520500D01*
X82974163Y-75568281D01*
X83390417Y-75671555D01*
X83821995Y-75796434D01*
X84252722Y-75936919D01*
X84666423Y-76087013D01*
X85046925Y-76240716D01*
X85378050Y-76392029D01*
X85643624Y-76534955D01*
X85827474Y-76663496D01*
X85832958Y-76668300D01*
X85989961Y-76848250D01*
X86116191Y-77069460D01*
X86195756Y-77297506D01*
X86212761Y-77497965D01*
X86202587Y-77563805D01*
X86135715Y-77800604D01*
X86029270Y-78056947D01*
X85901253Y-78293337D01*
X85769665Y-78470273D01*
X85691729Y-78554438D01*
X85635268Y-78638540D01*
X85621822Y-78729482D01*
X85636320Y-78872761D01*
X85643560Y-79014570D01*
X85597597Y-79324440D01*
X85586275Y-79353196D01*
X85478946Y-79625791D01*
X85299318Y-79883500D01*
X85263188Y-79919679D01*
X85104393Y-80048568D01*
X84896380Y-80189007D01*
X84670831Y-80319042D01*
X84641475Y-80334449D01*
X84464973Y-80424719D01*
X84324888Y-80485759D01*
X84193936Y-80523539D01*
X84044835Y-80544027D01*
X83850301Y-80553191D01*
X83785485Y-80554115D01*
X83583053Y-80557000D01*
X83563131Y-80557191D01*
G37*
G36*
X80136924Y-79758821D02*
G01*
X80257795Y-79893660D01*
X80280506Y-79939391D01*
X80306722Y-80108586D01*
X80243991Y-80254621D01*
X80099898Y-80355323D01*
X80096708Y-80356547D01*
X79961681Y-80390322D01*
X79854431Y-80388641D01*
X79846975Y-80386227D01*
X79732835Y-80302000D01*
X79675120Y-80166782D01*
X79674282Y-80010890D01*
X79730772Y-79864641D01*
X79845041Y-79758355D01*
X79987864Y-79716976D01*
X80136924Y-79758821D01*
G37*
%TO.C,K-0-0*%
X29813683Y-52606056D02*
X24947663Y-53957525D01*
X19790824Y-57314603D02*
X23277816Y-56380266D01*
X29801777Y-52561623D02*
X28790312Y-48786785D01*
X18767453Y-53495332D02*
X19788494Y-57305909D01*
X28790312Y-48786785D02*
X20459202Y-51019100D01*
X20459202Y-51019099D02*
G75*
G03*
X18759961Y-53424870I353265J-2052506D01*
G01*
X24972846Y-53954918D02*
G75*
G03*
X23276434Y-56355790I352230J-2048642D01*
G01*
%TO.C,K-0-1*%
X50949128Y-47586485D02*
X50136609Y-43763885D01*
X50136609Y-43763885D02*
X41700086Y-45557123D01*
X39881060Y-47941422D02*
X40701272Y-51800215D01*
X50958692Y-47631480D02*
X46028611Y-48726429D01*
X40703143Y-51809018D02*
X44234256Y-51058457D01*
X46053896Y-48725144D02*
G75*
G03*
X44234156Y-51033942I244529J-2064269D01*
G01*
X41700086Y-45557123D02*
G75*
G03*
X39877266Y-47870665I245361J-2068181D01*
G01*
%TO.C,K-0-2*%
X68684983Y-24466110D02*
X60166171Y-25815357D01*
X58224853Y-28101189D02*
X58841987Y-31997619D01*
X69296329Y-28325996D02*
X68684983Y-24466110D01*
X69303525Y-28371430D02*
X64322895Y-29206858D01*
X58843395Y-32006508D02*
X62408950Y-31441780D01*
X64348213Y-29206898D02*
G75*
G03*
X62410134Y-31417293I136158J-2074237D01*
G01*
X60166171Y-25815358D02*
G75*
G03*
X58224767Y-28030330I136784J-2078188D01*
G01*
%TO.C,K-0-3*%
X80357188Y-26414221D02*
X83947412Y-26036873D01*
X79943882Y-22481881D02*
X80356247Y-26405270D01*
X90988420Y-23285817D02*
X90579922Y-19399225D01*
X90579922Y-19399225D02*
X82002171Y-20300783D01*
X90993228Y-23331565D02*
X85975701Y-23905182D01*
X82002171Y-20300783D02*
G75*
G03*
X79947505Y-22411115I27833J-2082499D01*
G01*
X86000982Y-23906546D02*
G75*
G03*
X83949876Y-26012482I27415J-2078521D01*
G01*
%TO.C,K-0-4*%
X113102574Y-20334416D02*
X104489394Y-20785814D01*
X102526713Y-26804781D02*
X106131765Y-26615848D01*
X113307103Y-24237060D02*
X113102574Y-20334416D01*
X102319776Y-22856200D02*
X102526242Y-26795794D01*
X113309510Y-24282997D02*
X108268839Y-24593231D01*
X108294014Y-24595918D02*
G75*
G03*
X106135503Y-26591620I-81405J-2077106D01*
G01*
X104489394Y-20785814D02*
G75*
G03*
X102327098Y-22785720I-81195J-2081101D01*
G01*
%TO.C,K-0-5*%
X135570357Y-23990828D02*
X130520357Y-24036828D01*
X124670357Y-21990828D02*
X124670357Y-25935828D01*
X124670357Y-25944828D02*
X128280357Y-25944828D01*
X135570357Y-20036828D02*
X126945357Y-20036828D01*
X135570357Y-23944828D02*
X135570357Y-20036828D01*
X130545357Y-24040828D02*
G75*
G03*
X128285357Y-25920828I-190000J-2070000D01*
G01*
X126945357Y-20036828D02*
G75*
G03*
X124681357Y-21920828I-190000J-2074000D01*
G01*
%TO.C,K-1-0*%
X33711108Y-67076739D02*
X25379998Y-69309054D01*
X23688249Y-71785286D02*
X24709290Y-75595863D01*
X24711620Y-75604557D02*
X28198612Y-74670220D01*
X34734479Y-70896010D02*
X29868459Y-72247479D01*
X34722573Y-70851577D02*
X33711108Y-67076739D01*
X29893642Y-72244872D02*
G75*
G03*
X28197230Y-74645744I352230J-2048642D01*
G01*
X25379998Y-69309053D02*
G75*
G03*
X23680757Y-71714824I353265J-2052506D01*
G01*
%TO.C,K-1-1*%
X54909842Y-66220197D02*
X54097323Y-62397597D01*
X44663857Y-70442730D02*
X48194970Y-69692169D01*
X43841774Y-66575134D02*
X44661986Y-70433927D01*
X54097323Y-62397597D02*
X45660800Y-64190835D01*
X54919406Y-66265192D02*
X49989325Y-67360141D01*
X50014610Y-67358856D02*
G75*
G03*
X48194870Y-69667654I244529J-2064269D01*
G01*
X45660800Y-64190835D02*
G75*
G03*
X43837980Y-66504377I245361J-2068181D01*
G01*
%TO.C,K-1-2*%
X61204927Y-46916651D02*
X61822061Y-50813081D01*
X72276403Y-47141458D02*
X71665057Y-43281572D01*
X71665057Y-43281572D02*
X63146245Y-44630819D01*
X61823469Y-50821970D02*
X65389024Y-50257242D01*
X72283599Y-47186892D02*
X67302969Y-48022320D01*
X63146245Y-44630820D02*
G75*
G03*
X61204841Y-46845792I136784J-2078188D01*
G01*
X67328287Y-48022360D02*
G75*
G03*
X65390208Y-50232755I136158J-2074237D01*
G01*
%TO.C,K-1-3*%
X92979688Y-42231457D02*
X92571190Y-38344865D01*
X92571190Y-38344865D02*
X83993439Y-39246423D01*
X82348456Y-45359861D02*
X85938680Y-44982513D01*
X92984496Y-42277205D02*
X87966969Y-42850822D01*
X81935150Y-41427521D02*
X82347515Y-45350910D01*
X87992250Y-42852186D02*
G75*
G03*
X85941144Y-44958122I27415J-2078521D01*
G01*
X83993439Y-39246423D02*
G75*
G03*
X81938773Y-41356755I27833J-2082499D01*
G01*
%TO.C,K-1-4*%
X114306509Y-43306889D02*
X109265838Y-43617123D01*
X114099573Y-39358308D02*
X105486393Y-39809706D01*
X103523712Y-45828673D02*
X107128764Y-45639740D01*
X114304102Y-43260952D02*
X114099573Y-39358308D01*
X103316775Y-41880092D02*
X103523241Y-45819686D01*
X109291013Y-43619810D02*
G75*
G03*
X107132502Y-45615512I-81405J-2077106D01*
G01*
X105486393Y-39809706D02*
G75*
G03*
X103324097Y-41809612I-81195J-2081101D01*
G01*
%TO.C,K-1-5*%
X135570357Y-43040828D02*
X130520357Y-43086828D01*
X124670357Y-41040828D02*
X124670357Y-44985828D01*
X124670357Y-44994828D02*
X128280357Y-44994828D01*
X135570357Y-39086828D02*
X126945357Y-39086828D01*
X135570357Y-42994828D02*
X135570357Y-39086828D01*
X126945357Y-39086828D02*
G75*
G03*
X124681357Y-40970828I-190000J-2074000D01*
G01*
X130545357Y-43090828D02*
G75*
G03*
X128285357Y-44970828I-190000J-2070000D01*
G01*
%TO.C,K-2-0*%
X28618753Y-90186172D02*
X29639794Y-93996749D01*
X29642124Y-94005443D02*
X33129116Y-93071106D01*
X39653077Y-89252463D02*
X38641612Y-85477625D01*
X39664983Y-89296896D02*
X34798963Y-90648365D01*
X38641612Y-85477625D02*
X30310502Y-87709940D01*
X30310502Y-87709939D02*
G75*
G03*
X28611261Y-90115710I353265J-2052506D01*
G01*
X34824146Y-90645758D02*
G75*
G03*
X33127734Y-93046630I352230J-2048642D01*
G01*
%TO.C,K-2-1*%
X58058044Y-81031308D02*
X49621521Y-82824546D01*
X58870563Y-84853908D02*
X58058044Y-81031308D01*
X48624578Y-89076441D02*
X52155691Y-88325880D01*
X47802495Y-85208845D02*
X48622707Y-89067638D01*
X58880127Y-84898903D02*
X53950046Y-85993852D01*
X49621521Y-82824546D02*
G75*
G03*
X47798701Y-85138088I245361J-2068181D01*
G01*
X53975331Y-85992567D02*
G75*
G03*
X52155591Y-88301365I244529J-2064269D01*
G01*
%TO.C,K-2-2*%
X74645134Y-62097034D02*
X66126322Y-63446281D01*
X75263676Y-66002354D02*
X70283046Y-66837782D01*
X64803546Y-69637432D02*
X68369101Y-69072704D01*
X64185004Y-65732113D02*
X64802138Y-69628543D01*
X75256480Y-65956920D02*
X74645134Y-62097034D01*
X66126322Y-63446282D02*
G75*
G03*
X64184918Y-65661254I136784J-2078188D01*
G01*
X70308364Y-66837822D02*
G75*
G03*
X68370285Y-69048217I136158J-2074237D01*
G01*
%TO.C,K-2-3*%
X84339722Y-64305504D02*
X87929946Y-63928156D01*
X83926416Y-60373164D02*
X84338781Y-64296553D01*
X94970954Y-61177100D02*
X94562456Y-57290508D01*
X94975762Y-61222848D02*
X89958235Y-61796465D01*
X94562456Y-57290508D02*
X85984705Y-58192066D01*
X85984705Y-58192066D02*
G75*
G03*
X83930039Y-60302398I27833J-2082499D01*
G01*
X89983516Y-61797829D02*
G75*
G03*
X87932410Y-63903765I27415J-2078521D01*
G01*
%TO.C,K-2-4*%
X104520713Y-64852566D02*
X108125765Y-64663633D01*
X115096574Y-58382201D02*
X106483394Y-58833599D01*
X115303510Y-62330782D02*
X110262839Y-62641016D01*
X104313776Y-60903985D02*
X104520242Y-64843579D01*
X115301103Y-62284845D02*
X115096574Y-58382201D01*
X110288014Y-62643703D02*
G75*
G03*
X108129503Y-64639405I-81405J-2077106D01*
G01*
X106483394Y-58833599D02*
G75*
G03*
X104321098Y-60833505I-81195J-2081101D01*
G01*
%TO.C,K-2-5*%
X135570357Y-58136828D02*
X126945357Y-58136828D01*
X124670357Y-64044828D02*
X128280357Y-64044828D01*
X135570357Y-62044828D02*
X135570357Y-58136828D01*
X124670357Y-60090828D02*
X124670357Y-64035828D01*
X135570357Y-62090828D02*
X130520357Y-62136828D01*
X130545357Y-62140828D02*
G75*
G03*
X128285357Y-64020828I-190000J-2070000D01*
G01*
X126945357Y-58136828D02*
G75*
G03*
X124681357Y-60020828I-190000J-2074000D01*
G01*
%TO.C,K-3-3*%
X104375045Y-84632203D02*
X107982846Y-84758190D01*
X104513038Y-80680612D02*
X104375359Y-84623208D01*
X115474591Y-79108206D02*
X106854845Y-78807198D01*
X115336599Y-83059798D02*
X110288069Y-82929527D01*
X115338204Y-83013826D02*
X115474591Y-79108206D01*
X110312915Y-82934398D02*
G75*
G03*
X107988680Y-84734379I-262127J-2062107D01*
G01*
X106854845Y-78807199D02*
G75*
G03*
X104526474Y-80611038I-262266J-2066105D01*
G01*
%TO.C,K-3-4*%
X135120470Y-84830293D02*
X130093326Y-84348172D01*
X135533776Y-80897954D02*
X126956024Y-79996396D01*
X124075933Y-85634229D02*
X127666157Y-86011577D01*
X135125279Y-84784545D02*
X135533776Y-80897954D01*
X124489238Y-81701889D02*
X124076874Y-85625278D01*
X126956024Y-79996396D02*
G75*
G03*
X124507495Y-81633422I-405751J-2042778D01*
G01*
X130117771Y-84354764D02*
G75*
G03*
X127673638Y-85988231I-405333J-2038800D01*
G01*
%TO.C,K-3-5*%
X154778034Y-87983753D02*
X149796767Y-87152131D01*
X144390925Y-84121373D02*
X143705883Y-88006439D01*
X155464638Y-84089823D02*
X146970672Y-82592108D01*
X143704320Y-88015302D02*
X147259476Y-88642172D01*
X154786021Y-87938452D02*
X155464638Y-84089823D01*
X146970672Y-82592108D02*
G75*
G03*
X144413914Y-84054346I-547260J-2009498D01*
G01*
X149820692Y-87160411D02*
G75*
G03*
X147268568Y-88619405I-546565J-2005559D01*
G01*
D13*
%TO.C,U1*%
X157440853Y-18789897D02*
X159980853Y-18789897D01*
X142200853Y-18789897D02*
X142200853Y-16249897D01*
X142200853Y-49269897D02*
X142200853Y-18789897D01*
X159980853Y-18789897D02*
X159980853Y-49269897D01*
X157440853Y-21329897D02*
X159980853Y-21329897D01*
X159980853Y-16249897D02*
X159980853Y-18789897D01*
X157440853Y-18789897D02*
X157440853Y-21329897D01*
X142200853Y-16249897D02*
X159980853Y-16249897D01*
X159980853Y-49269897D02*
X142200853Y-49269897D01*
D12*
X146159285Y-25269257D02*
X146159285Y-25469257D01*
X146159285Y-25469257D02*
X146259285Y-25469257D01*
X146259285Y-25469257D02*
X146259285Y-25269257D01*
X146259285Y-25269257D02*
X146159285Y-25269257D01*
G36*
X146259285Y-25469257D02*
G01*
X146159285Y-25469257D01*
X146159285Y-25269257D01*
X146259285Y-25269257D01*
X146259285Y-25469257D01*
G37*
X146259285Y-25469257D02*
X146159285Y-25469257D01*
X146159285Y-25269257D01*
X146259285Y-25269257D01*
X146259285Y-25469257D01*
X146559285Y-24669257D02*
X146559285Y-25469257D01*
X146559285Y-25469257D02*
X146659285Y-25469257D01*
X146659285Y-25469257D02*
X146659285Y-24669257D01*
X146659285Y-24669257D02*
X146559285Y-24669257D01*
G36*
X146659285Y-25469257D02*
G01*
X146559285Y-25469257D01*
X146559285Y-24669257D01*
X146659285Y-24669257D01*
X146659285Y-25469257D01*
G37*
X146659285Y-25469257D02*
X146559285Y-25469257D01*
X146559285Y-24669257D01*
X146659285Y-24669257D01*
X146659285Y-25469257D01*
X146159285Y-24669257D02*
X146159285Y-24769257D01*
X146159285Y-24769257D02*
X146659285Y-24769257D01*
X146659285Y-24769257D02*
X146659285Y-24669257D01*
X146659285Y-24669257D02*
X146159285Y-24669257D01*
G36*
X146659285Y-24769257D02*
G01*
X146159285Y-24769257D01*
X146159285Y-24669257D01*
X146659285Y-24669257D01*
X146659285Y-24769257D01*
G37*
X146659285Y-24769257D02*
X146159285Y-24769257D01*
X146159285Y-24669257D01*
X146659285Y-24669257D01*
X146659285Y-24769257D01*
X146359285Y-25069257D02*
X146359285Y-25169257D01*
X146359285Y-25169257D02*
X146459285Y-25169257D01*
X146459285Y-25169257D02*
X146459285Y-25069257D01*
X146459285Y-25069257D02*
X146359285Y-25069257D01*
G36*
X146459285Y-25169257D02*
G01*
X146359285Y-25169257D01*
X146359285Y-25069257D01*
X146459285Y-25069257D01*
X146459285Y-25169257D01*
G37*
X146459285Y-25169257D02*
X146359285Y-25169257D01*
X146359285Y-25069257D01*
X146459285Y-25069257D01*
X146459285Y-25169257D01*
X146159285Y-24669257D02*
X146159285Y-24969257D01*
X146159285Y-24969257D02*
X146259285Y-24969257D01*
X146259285Y-24969257D02*
X146259285Y-24669257D01*
X146259285Y-24669257D02*
X146159285Y-24669257D01*
G36*
X146259285Y-24969257D02*
G01*
X146159285Y-24969257D01*
X146159285Y-24669257D01*
X146259285Y-24669257D01*
X146259285Y-24969257D01*
G37*
X146259285Y-24969257D02*
X146159285Y-24969257D01*
X146159285Y-24669257D01*
X146259285Y-24669257D01*
X146259285Y-24969257D01*
D14*
%TO.C,J2*%
X159145193Y-66673507D02*
X159145193Y-58774107D01*
X159145193Y-78972187D02*
X159145193Y-71072787D01*
X157458633Y-63158147D02*
X157458633Y-64428147D01*
X157646593Y-66673507D02*
X157646593Y-71072787D01*
X150148513Y-58774107D02*
X150148513Y-78972187D01*
X159145193Y-66673507D02*
X157646593Y-66673507D01*
X150148513Y-78972187D02*
X159145193Y-78972187D01*
X157420533Y-63158147D02*
X157420533Y-64428147D01*
X159145193Y-71072787D02*
X159145193Y-66673507D01*
X159145193Y-58774107D02*
X150247573Y-58774107D01*
X157646593Y-71072787D02*
X159145193Y-71072787D01*
%TD*%
D15*
%TO.C,U1*%
X158710853Y-20059897D03*
D16*
X158710853Y-22599897D03*
X158710853Y-25139897D03*
X158710853Y-27679897D03*
X158710853Y-30219897D03*
X158710853Y-32759897D03*
X158710853Y-35299897D03*
X158710853Y-37839897D03*
X158710853Y-40379897D03*
X158710853Y-42919897D03*
X158710853Y-45459897D03*
X158710853Y-47999897D03*
X143470853Y-47999897D03*
X143470853Y-45459897D03*
X143470853Y-42919897D03*
X143470853Y-40379897D03*
X143470853Y-37839897D03*
X143470853Y-35299897D03*
X143470853Y-32759897D03*
X143470853Y-30219897D03*
X143470853Y-27679897D03*
X143470853Y-25139897D03*
X143470853Y-22599897D03*
X143470853Y-20059897D03*
%TD*%
M02*
