M48
; DRILL file {KiCad (6.0.0-0)} date 2022 February 11, Friday 16:55:00
; FORMAT={-:-/ absolute / inch / decimal}
; #@! TF.CreationDate,2022-02-11T16:55:00+07:00
; #@! TF.GenerationSoftware,Kicad,Pcbnew,(6.0.0-0)
; #@! TF.FileFunction,Plated,1,2,PTH
FMAT,2
INCH
; #@! TA.AperFunction,Plated,PTH,ViaDrill
T1C0.0157
; #@! TA.AperFunction,Plated,PTH,ComponentDrill
T2C0.0354
; #@! TA.AperFunction,Plated,PTH,ComponentDrill
T3C0.0394
; #@! TA.AperFunction,Plated,PTH,ComponentDrill
T4C0.0400
; #@! TA.AperFunction,Plated,PTH,ComponentDrill
T5C0.0430
; #@! TA.AperFunction,Plated,PTH,ComponentDrill
T6C0.0591
%
G90
G05
T1
X1.9305Y-3.2338
X5.6023Y-2.9121
X5.6308Y-2.9443
T3
X1.3478Y-2.1663
X1.4273Y-2.4629
X1.5449Y-2.8864
X1.6244Y-3.183
X1.737Y-3.6133
X1.8165Y-3.9099
X2.1783Y-1.9804
X2.2422Y-2.2808
X2.3319Y-2.7143
X2.3957Y-3.0147
X2.4896Y-3.4499
X2.5535Y-3.7503
X2.8922Y-1.2333
X2.9402Y-1.5366
X3.011Y-1.9717
X3.059Y-2.275
X3.1262Y-2.7145
X3.1742Y-3.0178
X3.7386Y-1.045
X3.7707Y-1.3504
X3.8207Y-1.7891
X3.8528Y-2.0945
X3.899Y-2.5354
X3.9311Y-2.8408
X4.6132Y-1.0889
X4.6293Y-1.3956
X4.6482Y-1.8341
X4.6643Y-2.1408
X4.6667Y-3.7171
X4.6774Y-3.4102
X4.6916Y-2.5848
X4.7077Y-2.8915
X5.416Y-3.7963
X5.4481Y-3.4909
X5.4767Y-1.0804
X5.4767Y-1.3875
X5.4787Y-1.8344
X5.4787Y-2.1415
X5.4827Y-2.5824
X5.4827Y-2.8895
X6.1599Y-3.9243
X6.2132Y-3.6219
T4
X5.7725Y-2.5115
X5.7725Y-2.6115
X5.7725Y-2.7115
X5.7725Y-2.8115
X5.7725Y-2.9115
X5.8725Y-2.5115
X5.8725Y-2.6115
X5.8725Y-2.7115
X5.8725Y-2.8115
X5.8725Y-2.9115
X6.0385Y-2.5115
X6.0385Y-2.6115
X6.0385Y-2.7115
X6.0385Y-2.8115
X6.0385Y-2.9115
X6.1385Y-2.5115
X6.1385Y-2.6115
X6.1385Y-2.7115
X6.1385Y-2.8115
X6.1385Y-2.9115
T5
X5.6485Y-0.7898
X5.6485Y-0.8898
X5.6485Y-0.9898
X5.6485Y-1.0898
X5.6485Y-1.1898
X5.6485Y-1.2898
X5.6485Y-1.3898
X5.6485Y-1.4898
X5.6485Y-1.5898
X5.6485Y-1.6898
X5.6485Y-1.7898
X5.6485Y-1.8898
X6.2485Y-0.7898
X6.2485Y-0.8898
X6.2485Y-0.9898
X6.2485Y-1.0898
X6.2485Y-1.1898
X6.2485Y-1.2898
X6.2485Y-1.3898
X6.2485Y-1.4898
X6.2485Y-1.5898
X6.2485Y-1.6898
X6.2485Y-1.7898
X6.2485Y-1.8898
T6
X0.9241Y-2.3874
X0.9732Y-2.4362
X1.1178Y-3.1075
X1.1649Y-2.3849
X1.167Y-3.1563
X1.1831Y-2.3181
X1.312Y-3.832
X1.3586Y-3.105
X1.3611Y-3.8808
X1.3768Y-3.0381
X1.5528Y-3.8294
X1.5709Y-3.7626
X1.7404Y-2.1781
X1.7869Y-2.2294
X1.8963Y-2.9117
X1.9428Y-2.963
X1.981Y-2.1881
X2.0026Y-2.1224
X2.0522Y-3.6453
X2.0988Y-3.6966
X2.1369Y-2.9217
X2.1586Y-2.856
X2.2929Y-3.6554
X2.3145Y-3.5896
X2.4471Y-1.4055
X2.4909Y-1.4592
X2.5644Y-2.1463
X2.6082Y-2.1999
X2.6818Y-2.887
X2.6869Y-1.4281
X2.7119Y-1.3636
X2.7255Y-2.9407
X2.8042Y-2.1689
X2.8293Y-2.1043
X2.9215Y-2.9096
X2.9466Y-2.8451
X3.2863Y-1.192
X3.3272Y-1.2478
X3.3647Y-1.9378
X3.4056Y-1.9937
X3.4431Y-2.6837
X3.484Y-2.7396
X3.5246Y-1.2271
X3.553Y-1.1639
X3.603Y-1.973
X3.6314Y-1.9098
X3.6814Y-2.7189
X3.7098Y-2.6557
X4.151Y-1.2135
X4.189Y-1.2715
X4.1903Y-1.9625
X4.2096Y-3.4996
X4.2282Y-2.0205
X4.2295Y-2.7115
X4.2423Y-3.5606
X4.2675Y-2.7694
X4.3871Y-1.2611
X4.4188Y-1.1995
X4.4264Y-2.0101
X4.4406Y-3.5675
X4.458Y-1.9485
X4.4656Y-2.759
X4.4775Y-3.509
X4.4973Y-2.6975
X4.9733Y-3.5456
X5.0017Y-3.6088
X5.0144Y-1.1855
X5.0144Y-1.9355
X5.0144Y-2.6855
X5.0492Y-1.2453
X5.0492Y-1.9953
X5.0492Y-2.7453
X5.199Y-3.6295
X5.2399Y-3.5737
X5.2477Y-1.2453
X5.2477Y-1.9953
X5.2477Y-2.7453
X5.2825Y-1.1855
X5.2825Y-1.9355
X5.2825Y-2.6855
X5.7337Y-3.6451
X5.7576Y-3.7101
X5.953Y-3.7446
X5.9977Y-3.6917
T2
G00X5.8503Y-2.0115
M15
G01X5.8266Y-2.0115
M16
G05
G00X5.8503Y-2.3737
M15
G01X5.8266Y-2.3737
M16
G05
G00X5.8936Y-2.1926
M15
G01X5.87Y-2.1926
M16
G05
G00X6.0511Y-2.1926
M15
G01X6.0274Y-2.1926
M16
G05
G00X6.1692Y-2.1926
M15
G01X6.1455Y-2.1926
M16
G05
T0
M30
