%TF.GenerationSoftware,KiCad,Pcbnew,(6.0.0)*%
%TF.CreationDate,2022-02-16T19:12:49+07:00*%
%TF.ProjectId,Shrimp42-mirrored-rev2,53687269-6d70-4343-922d-6d6972726f72,rev?*%
%TF.SameCoordinates,Original*%
%TF.FileFunction,OtherDrawing,Comment*%
%FSLAX46Y46*%
G04 Gerber Fmt 4.6, Leading zero omitted, Abs format (unit mm)*
G04 Created by KiCad (PCBNEW (6.0.0)) date 2022-02-16 19:12:49*
%MOMM*%
%LPD*%
G01*
G04 APERTURE LIST*
%ADD10C,0.150000*%
%ADD11C,0.120000*%
%ADD12C,0.066040*%
%ADD13C,0.203200*%
%ADD14C,0.200000*%
G04 APERTURE END LIST*
D10*
%TO.C,U2*%
X143602284Y-59471153D02*
X144411808Y-59471153D01*
X144507046Y-59423534D01*
X144554665Y-59375915D01*
X144602284Y-59280677D01*
X144602284Y-59090201D01*
X144554665Y-58994963D01*
X144507046Y-58947344D01*
X144411808Y-58899725D01*
X143602284Y-58899725D01*
X143697523Y-58471153D02*
X143649904Y-58423534D01*
X143602284Y-58328296D01*
X143602284Y-58090201D01*
X143649904Y-57994963D01*
X143697523Y-57947344D01*
X143792761Y-57899725D01*
X143887999Y-57899725D01*
X144030856Y-57947344D01*
X144602284Y-58518772D01*
X144602284Y-57899725D01*
D11*
%TO.C,K-0-0*%
X14279797Y-49883762D02*
X32632387Y-44966200D01*
X37549949Y-63318790D02*
X19197359Y-68236352D01*
X32632387Y-44966200D02*
X37549949Y-63318790D01*
X19197359Y-68236352D02*
X14279797Y-49883762D01*
%TO.C,K-0-1*%
X39538891Y-62684740D02*
X35588569Y-44099936D01*
X54173373Y-40149614D02*
X58123695Y-58734418D01*
X58123695Y-58734418D02*
X39538891Y-62684740D01*
X35588569Y-44099936D02*
X54173373Y-40149614D01*
%TO.C,K-0-2*%
X54139292Y-24040315D02*
X72905371Y-21068060D01*
X57111547Y-42806394D02*
X54139292Y-24040315D01*
X72905371Y-21068060D02*
X75877626Y-39834139D01*
X75877626Y-39834139D02*
X57111547Y-42806394D01*
%TO.C,K-0-3*%
X94972367Y-16226711D02*
X96958407Y-35122627D01*
X76076451Y-18212751D02*
X94972367Y-16226711D01*
X78062491Y-37108667D02*
X76076451Y-18212751D01*
X96958407Y-35122627D02*
X78062491Y-37108667D01*
%TO.C,K-0-4*%
X117655035Y-17396132D02*
X118649418Y-36370093D01*
X99675457Y-37364476D02*
X98681074Y-18390515D01*
X98681074Y-18390515D02*
X117655035Y-17396132D01*
X118649418Y-36370093D02*
X99675457Y-37364476D01*
%TO.C,K-0-5*%
X140270357Y-17340828D02*
X140270357Y-36340828D01*
X121270357Y-36340828D02*
X121270357Y-17340828D01*
X121270357Y-17340828D02*
X140270357Y-17340828D01*
X140270357Y-36340828D02*
X121270357Y-36340828D01*
%TO.C,K-1-0*%
X42470745Y-81608744D02*
X24118155Y-86526306D01*
X37553183Y-63256154D02*
X42470745Y-81608744D01*
X19200593Y-68173716D02*
X37553183Y-63256154D01*
X24118155Y-86526306D02*
X19200593Y-68173716D01*
%TO.C,K-1-1*%
X43499605Y-81318452D02*
X39549283Y-62733648D01*
X62084409Y-77368130D02*
X43499605Y-81318452D01*
X58134087Y-58783326D02*
X62084409Y-77368130D01*
X39549283Y-62733648D02*
X58134087Y-58783326D01*
%TO.C,K-1-2*%
X75885445Y-39883522D02*
X78857700Y-58649601D01*
X57119366Y-42855777D02*
X75885445Y-39883522D01*
X78857700Y-58649601D02*
X60091621Y-61621856D01*
X60091621Y-61621856D02*
X57119366Y-42855777D01*
%TO.C,K-1-3*%
X80053759Y-56054307D02*
X78067719Y-37158391D01*
X96963635Y-35172351D02*
X98949675Y-54068267D01*
X98949675Y-54068267D02*
X80053759Y-56054307D01*
X78067719Y-37158391D02*
X96963635Y-35172351D01*
%TO.C,K-1-4*%
X100672456Y-56388368D02*
X99678073Y-37414407D01*
X99678073Y-37414407D02*
X118652034Y-36420024D01*
X119646417Y-55393985D02*
X100672456Y-56388368D01*
X118652034Y-36420024D02*
X119646417Y-55393985D01*
%TO.C,K-1-5*%
X140270357Y-55390828D02*
X121270357Y-55390828D01*
X121270357Y-36390828D02*
X140270357Y-36390828D01*
X140270357Y-36390828D02*
X140270357Y-55390828D01*
X121270357Y-55390828D02*
X121270357Y-36390828D01*
%TO.C,K-2-0*%
X24131097Y-86574602D02*
X42483687Y-81657040D01*
X42483687Y-81657040D02*
X47401249Y-100009630D01*
X47401249Y-100009630D02*
X29048659Y-104927192D01*
X29048659Y-104927192D02*
X24131097Y-86574602D01*
%TO.C,K-2-1*%
X43510004Y-81367359D02*
X62094808Y-77417037D01*
X62094808Y-77417037D02*
X66045130Y-96001841D01*
X47460326Y-99952163D02*
X43510004Y-81367359D01*
X66045130Y-96001841D02*
X47460326Y-99952163D01*
%TO.C,K-2-2*%
X81837777Y-77465063D02*
X63071698Y-80437318D01*
X78865522Y-58698984D02*
X81837777Y-77465063D01*
X63071698Y-80437318D02*
X60099443Y-61671239D01*
X60099443Y-61671239D02*
X78865522Y-58698984D01*
%TO.C,K-2-3*%
X100940941Y-73013910D02*
X82045025Y-74999950D01*
X80058985Y-56104034D02*
X98954901Y-54117994D01*
X98954901Y-54117994D02*
X100940941Y-73013910D01*
X82045025Y-74999950D02*
X80058985Y-56104034D01*
%TO.C,K-2-4*%
X120643418Y-74417878D02*
X101669457Y-75412261D01*
X101669457Y-75412261D02*
X100675074Y-56438300D01*
X119649035Y-55443917D02*
X120643418Y-74417878D01*
X100675074Y-56438300D02*
X119649035Y-55443917D01*
%TO.C,K-2-5*%
X121270357Y-74440828D02*
X121270357Y-55440828D01*
X140270357Y-74440828D02*
X121270357Y-74440828D01*
X121270357Y-55440828D02*
X140270357Y-55440828D01*
X140270357Y-55440828D02*
X140270357Y-74440828D01*
%TO.C,K-3-3*%
X101277391Y-77174242D02*
X120265817Y-77837332D01*
X100614301Y-96162668D02*
X101277391Y-77174242D01*
X120265817Y-77837332D02*
X119602727Y-96825758D01*
X119602727Y-96825758D02*
X100614301Y-96162668D01*
%TO.C,K-3-4*%
X121645062Y-77959022D02*
X140540978Y-79945062D01*
X119659022Y-96854938D02*
X121645062Y-77959022D01*
X138554938Y-98840978D02*
X119659022Y-96854938D01*
X140540978Y-79945062D02*
X138554938Y-98840978D01*
%TO.C,K-3-5*%
X141893984Y-80194669D02*
X160605331Y-83493984D01*
X160605331Y-83493984D02*
X157306016Y-102205331D01*
X157306016Y-102205331D02*
X138594669Y-98906016D01*
X138594669Y-98906016D02*
X141893984Y-80194669D01*
D12*
%TO.C,J1*%
X146366453Y-69127147D02*
X146366453Y-68619147D01*
D13*
X144491933Y-59873927D02*
X151288973Y-59873927D01*
D12*
X146366453Y-71667147D02*
X146874453Y-71667147D01*
X148906453Y-71159147D02*
X149414453Y-71159147D01*
X146874453Y-71667147D02*
X146874453Y-71159147D01*
D13*
X144491933Y-77872367D02*
X151288973Y-77872367D01*
D12*
X149414453Y-66587147D02*
X149414453Y-66079147D01*
X148906453Y-66587147D02*
X149414453Y-66587147D01*
X146366453Y-66587147D02*
X146874453Y-66587147D01*
X149414453Y-71667147D02*
X149414453Y-71159147D01*
X149414453Y-74207147D02*
X149414453Y-73699147D01*
X148906453Y-64047147D02*
X149414453Y-64047147D01*
D13*
X144491933Y-77872367D02*
X144491933Y-71072787D01*
D12*
X148906453Y-74207147D02*
X148906453Y-73699147D01*
X146874453Y-71667147D02*
X146874453Y-71159147D01*
X148906453Y-71667147D02*
X149414453Y-71667147D01*
X146366453Y-63539147D02*
X146874453Y-63539147D01*
X148906453Y-73699147D02*
X149414453Y-73699147D01*
X148906453Y-69127147D02*
X149414453Y-69127147D01*
X149414453Y-71667147D02*
X149414453Y-71159147D01*
X146366453Y-73699147D02*
X146874453Y-73699147D01*
X146874453Y-69127147D02*
X146874453Y-68619147D01*
X146366453Y-71667147D02*
X146366453Y-71159147D01*
X146366453Y-64047147D02*
X146874453Y-64047147D01*
X146366453Y-66079147D02*
X146874453Y-66079147D01*
X148906453Y-71667147D02*
X148906453Y-71159147D01*
X148906453Y-71667147D02*
X148906453Y-71159147D01*
X148906453Y-68619147D02*
X149414453Y-68619147D01*
X148906453Y-74207147D02*
X149414453Y-74207147D01*
X146366453Y-71667147D02*
X146366453Y-71159147D01*
X146366453Y-71159147D02*
X146874453Y-71159147D01*
X148906453Y-64047147D02*
X148906453Y-63539147D01*
X148906453Y-71667147D02*
X149414453Y-71667147D01*
X146366453Y-74207147D02*
X146874453Y-74207147D01*
X146874453Y-74207147D02*
X146874453Y-73699147D01*
X146874453Y-64047147D02*
X146874453Y-63539147D01*
D13*
X144491933Y-59873927D02*
X144491933Y-66673507D01*
D12*
X148906453Y-66079147D02*
X149414453Y-66079147D01*
X146366453Y-68619147D02*
X146874453Y-68619147D01*
X146366453Y-66587147D02*
X146366453Y-66079147D01*
X148906453Y-66587147D02*
X148906453Y-66079147D01*
X149414453Y-64047147D02*
X149414453Y-63539147D01*
X146366453Y-69127147D02*
X146874453Y-69127147D01*
X148906453Y-71159147D02*
X149414453Y-71159147D01*
X149414453Y-69127147D02*
X149414453Y-68619147D01*
X146366453Y-71159147D02*
X146874453Y-71159147D01*
X146366453Y-74207147D02*
X146366453Y-73699147D01*
X148906453Y-63539147D02*
X149414453Y-63539147D01*
X146366453Y-64047147D02*
X146366453Y-63539147D01*
D13*
X151288973Y-59873927D02*
X151288973Y-77872367D01*
D12*
X146874453Y-66587147D02*
X146874453Y-66079147D01*
X146366453Y-71667147D02*
X146874453Y-71667147D01*
X148906453Y-69127147D02*
X148906453Y-68619147D01*
D14*
%TO.C,U1*%
X147534853Y-14725897D02*
X147534853Y-19805897D01*
X154900853Y-19805897D02*
X154900853Y-14725897D01*
X147534853Y-19805897D02*
X154900853Y-19805897D01*
X154900853Y-14725897D02*
X147534853Y-14725897D01*
D12*
%TO.C,J2*%
X153122853Y-69127147D02*
X153122853Y-68619147D01*
X156170853Y-69127147D02*
X155662853Y-69127147D01*
X153630853Y-64047147D02*
X153630853Y-63539147D01*
X156170853Y-68619147D02*
X155662853Y-68619147D01*
X153630853Y-69127147D02*
X153122853Y-69127147D01*
X153630853Y-63539147D02*
X153122853Y-63539147D01*
X153630853Y-74207147D02*
X153630853Y-73699147D01*
X156170853Y-66587147D02*
X155662853Y-66587147D01*
X153630853Y-64047147D02*
X153122853Y-64047147D01*
X153630853Y-71159147D02*
X153122853Y-71159147D01*
D13*
X158045373Y-59873927D02*
X151248333Y-59873927D01*
D12*
X153630853Y-74207147D02*
X153122853Y-74207147D01*
X156170853Y-71667147D02*
X156170853Y-71159147D01*
X153630853Y-71667147D02*
X153122853Y-71667147D01*
X153630853Y-71159147D02*
X153122853Y-71159147D01*
X156170853Y-64047147D02*
X155662853Y-64047147D01*
X156170853Y-66587147D02*
X156170853Y-66079147D01*
D13*
X158045373Y-77872367D02*
X151248333Y-77872367D01*
D12*
X153630853Y-73699147D02*
X153122853Y-73699147D01*
X156170853Y-64047147D02*
X156170853Y-63539147D01*
X155662853Y-71667147D02*
X155662853Y-71159147D01*
X153122853Y-74207147D02*
X153122853Y-73699147D01*
D13*
X158045373Y-59873927D02*
X158045373Y-66673507D01*
D12*
X156170853Y-71667147D02*
X155662853Y-71667147D01*
X155662853Y-74207147D02*
X155662853Y-73699147D01*
X155662853Y-64047147D02*
X155662853Y-63539147D01*
X153122853Y-64047147D02*
X153122853Y-63539147D01*
X155662853Y-66587147D02*
X155662853Y-66079147D01*
X153630853Y-66079147D02*
X153122853Y-66079147D01*
D13*
X151248333Y-59873927D02*
X151248333Y-77872367D01*
D12*
X156170853Y-71159147D02*
X155662853Y-71159147D01*
X153630853Y-71667147D02*
X153630853Y-71159147D01*
X155662853Y-69127147D02*
X155662853Y-68619147D01*
X153630853Y-66587147D02*
X153122853Y-66587147D01*
X156170853Y-71159147D02*
X155662853Y-71159147D01*
X156170853Y-69127147D02*
X156170853Y-68619147D01*
X156170853Y-73699147D02*
X155662853Y-73699147D01*
X153630853Y-66587147D02*
X153630853Y-66079147D01*
D13*
X158045373Y-77872367D02*
X158045373Y-71072787D01*
D12*
X156170853Y-74207147D02*
X155662853Y-74207147D01*
X155662853Y-71667147D02*
X155662853Y-71159147D01*
X156170853Y-71667147D02*
X156170853Y-71159147D01*
X156170853Y-71667147D02*
X155662853Y-71667147D01*
X153630853Y-68619147D02*
X153122853Y-68619147D01*
X153122853Y-66587147D02*
X153122853Y-66079147D01*
X153122853Y-71667147D02*
X153122853Y-71159147D01*
X153122853Y-71667147D02*
X153122853Y-71159147D01*
X153630853Y-69127147D02*
X153630853Y-68619147D01*
X156170853Y-74207147D02*
X156170853Y-73699147D01*
X153630853Y-71667147D02*
X153122853Y-71667147D01*
X153630853Y-71667147D02*
X153630853Y-71159147D01*
X156170853Y-66079147D02*
X155662853Y-66079147D01*
X156170853Y-63539147D02*
X155662853Y-63539147D01*
%TD*%
M02*
