%TF.GenerationSoftware,KiCad,Pcbnew,(6.0.0)*%
%TF.CreationDate,2022-02-16T19:12:49+07:00*%
%TF.ProjectId,Shrimp42-mirrored-rev2,53687269-6d70-4343-922d-6d6972726f72,rev?*%
%TF.SameCoordinates,Original*%
%TF.FileFunction,Legend,Bot*%
%TF.FilePolarity,Positive*%
%FSLAX46Y46*%
G04 Gerber Fmt 4.6, Leading zero omitted, Abs format (unit mm)*
G04 Created by KiCad (PCBNEW (6.0.0)) date 2022-02-16 19:12:49*
%MOMM*%
%LPD*%
G01*
G04 APERTURE LIST*
%ADD10C,0.100000*%
%ADD11C,0.150000*%
%ADD12C,0.381000*%
%ADD13C,0.203200*%
%ADD14R,1.752600X1.752600*%
%ADD15C,1.752600*%
G04 APERTURE END LIST*
D10*
X78949041Y-93575997D02*
X79290634Y-93105696D01*
X79520382Y-93585970D02*
X79537834Y-92586122D01*
X79156940Y-92579474D01*
X79060885Y-92625423D01*
X79012443Y-92672204D01*
X78963169Y-92766596D01*
X78960675Y-92909432D01*
X79006625Y-93005486D01*
X79053406Y-93053929D01*
X79147798Y-93103203D01*
X79528693Y-93109852D01*
X78140471Y-93514257D02*
X78234864Y-93563531D01*
X78425311Y-93566855D01*
X78521365Y-93520906D01*
X78570639Y-93426513D01*
X78577288Y-93045619D01*
X78531338Y-92949564D01*
X78436946Y-92900290D01*
X78246499Y-92896966D01*
X78150444Y-92942915D01*
X78101170Y-93037308D01*
X78099508Y-93132532D01*
X78573964Y-93236066D01*
X77770381Y-92888655D02*
X77520687Y-93551065D01*
X77294263Y-92880344D01*
X76203347Y-92623171D02*
X76156566Y-92574728D01*
X76062173Y-92525454D01*
X75824114Y-92521299D01*
X75728060Y-92567249D01*
X75679617Y-92614029D01*
X75630343Y-92708422D01*
X75628681Y-92803645D01*
X75673799Y-92947312D01*
X76235168Y-93528626D01*
X75616215Y-93517822D01*
X95494789Y-93725986D02*
X95206625Y-93863835D01*
X94730507Y-93855524D01*
X94542553Y-93709364D01*
X94449823Y-93564867D01*
X94359586Y-93277534D01*
X94364572Y-92991863D01*
X94464782Y-92707855D01*
X94562499Y-92566681D01*
X94755439Y-92427170D01*
X95138827Y-92290983D01*
X95331767Y-92151472D01*
X95429484Y-92010299D01*
X95529694Y-91726290D01*
X95534680Y-91440620D01*
X95444443Y-91153287D01*
X95351713Y-91008789D01*
X95163759Y-90862630D01*
X94687641Y-90854319D01*
X94399477Y-90992168D01*
X93492601Y-93833916D02*
X93544958Y-90834373D01*
X92635588Y-93818957D02*
X92663013Y-92247768D01*
X92763223Y-91963759D01*
X92956164Y-91824248D01*
X93241835Y-91829235D01*
X93429789Y-91975394D01*
X93522519Y-92119892D01*
X91683352Y-93802336D02*
X91718257Y-91802640D01*
X91708284Y-92373982D02*
X91618047Y-92086649D01*
X91525317Y-91942152D01*
X91337363Y-91795992D01*
X91146916Y-91792668D01*
X90445446Y-93780728D02*
X90480350Y-91781033D01*
X90497803Y-90781185D02*
X90590533Y-90925683D01*
X90492816Y-91066856D01*
X90400086Y-90922358D01*
X90497803Y-90781185D01*
X90492816Y-91066856D01*
X89493210Y-93764107D02*
X89528115Y-91764411D01*
X89523128Y-92050082D02*
X89430398Y-91905585D01*
X89242444Y-91759425D01*
X88956773Y-91754439D01*
X88763833Y-91893950D01*
X88663623Y-92177958D01*
X88636197Y-93749148D01*
X88663623Y-92177958D02*
X88573385Y-91890625D01*
X88385431Y-91744466D01*
X88099761Y-91739479D01*
X87906820Y-91878990D01*
X87806610Y-92162999D01*
X87779185Y-93734188D01*
X86861854Y-91717872D02*
X86809497Y-94717415D01*
X86859361Y-91860707D02*
X86671407Y-91714547D01*
X86290512Y-91707899D01*
X86097572Y-91847410D01*
X85999855Y-91988583D01*
X85899645Y-92272592D01*
X85884686Y-93129604D01*
X85974923Y-93416937D01*
X86067654Y-93561435D01*
X86255608Y-93707594D01*
X86636502Y-93714243D01*
X86829442Y-93574732D01*
X82672016Y-91644738D02*
X82637111Y-93644433D01*
X83168080Y-90510365D02*
X83606800Y-92661207D01*
X82368893Y-92639599D01*
X81732246Y-90913939D02*
X81639516Y-90769442D01*
X81451562Y-90623282D01*
X80975444Y-90614972D01*
X80782503Y-90754483D01*
X80684787Y-90895656D01*
X80584577Y-91179665D01*
X80579590Y-91465335D01*
X80667334Y-91895504D01*
X81780099Y-93629474D01*
X80542192Y-93607866D01*
D11*
X99619056Y-94856263D02*
X99619056Y-95665787D01*
X99666675Y-95761025D01*
X99714294Y-95808644D01*
X99809533Y-95856263D01*
X99952390Y-95856263D01*
X100047628Y-95808644D01*
X99619056Y-95475310D02*
X99714294Y-95522929D01*
X99904771Y-95522929D01*
X100000009Y-95475310D01*
X100047628Y-95427691D01*
X100095247Y-95332453D01*
X100095247Y-95046739D01*
X100047628Y-94951501D01*
X100000009Y-94903882D01*
X99904771Y-94856263D01*
X99714294Y-94856263D01*
X99619056Y-94903882D01*
X99142866Y-95522929D02*
X99142866Y-94856263D01*
X99142866Y-94522929D02*
X99190485Y-94570549D01*
X99142866Y-94618168D01*
X99095247Y-94570549D01*
X99142866Y-94522929D01*
X99142866Y-94618168D01*
X98809533Y-94856263D02*
X98428580Y-94856263D01*
X98666675Y-94522929D02*
X98666675Y-95380072D01*
X98619056Y-95475310D01*
X98523818Y-95522929D01*
X98428580Y-95522929D01*
X98095247Y-95522929D02*
X98095247Y-94522929D01*
X97666675Y-95522929D02*
X97666675Y-94999120D01*
X97714294Y-94903882D01*
X97809533Y-94856263D01*
X97952390Y-94856263D01*
X98047628Y-94903882D01*
X98095247Y-94951501D01*
X96761914Y-94856263D02*
X96761914Y-95522929D01*
X97190485Y-94856263D02*
X97190485Y-95380072D01*
X97142866Y-95475310D01*
X97047628Y-95522929D01*
X96904771Y-95522929D01*
X96809533Y-95475310D01*
X96761914Y-95427691D01*
X96285723Y-95522929D02*
X96285723Y-94522929D01*
X96285723Y-94903882D02*
X96190485Y-94856263D01*
X96000009Y-94856263D01*
X95904771Y-94903882D01*
X95857152Y-94951501D01*
X95809533Y-95046739D01*
X95809533Y-95332453D01*
X95857152Y-95427691D01*
X95904771Y-95475310D01*
X96000009Y-95522929D01*
X96190485Y-95522929D01*
X96285723Y-95475310D01*
X95380961Y-95427691D02*
X95333342Y-95475310D01*
X95380961Y-95522929D01*
X95428580Y-95475310D01*
X95380961Y-95427691D01*
X95380961Y-95522929D01*
X94476199Y-95475310D02*
X94571437Y-95522929D01*
X94761914Y-95522929D01*
X94857152Y-95475310D01*
X94904771Y-95427691D01*
X94952390Y-95332453D01*
X94952390Y-95046739D01*
X94904771Y-94951501D01*
X94857152Y-94903882D01*
X94761914Y-94856263D01*
X94571437Y-94856263D01*
X94476199Y-94903882D01*
X93904771Y-95522929D02*
X94000009Y-95475310D01*
X94047628Y-95427691D01*
X94095247Y-95332453D01*
X94095247Y-95046739D01*
X94047628Y-94951501D01*
X94000009Y-94903882D01*
X93904771Y-94856263D01*
X93761914Y-94856263D01*
X93666675Y-94903882D01*
X93619056Y-94951501D01*
X93571437Y-95046739D01*
X93571437Y-95332453D01*
X93619056Y-95427691D01*
X93666675Y-95475310D01*
X93761914Y-95522929D01*
X93904771Y-95522929D01*
X93142866Y-95522929D02*
X93142866Y-94856263D01*
X93142866Y-94951501D02*
X93095247Y-94903882D01*
X93000009Y-94856263D01*
X92857152Y-94856263D01*
X92761914Y-94903882D01*
X92714294Y-94999120D01*
X92714294Y-95522929D01*
X92714294Y-94999120D02*
X92666675Y-94903882D01*
X92571437Y-94856263D01*
X92428580Y-94856263D01*
X92333342Y-94903882D01*
X92285723Y-94999120D01*
X92285723Y-95522929D01*
X91095247Y-94475310D02*
X91952390Y-95761025D01*
X90238104Y-94570549D02*
X90333342Y-94522929D01*
X90476199Y-94522929D01*
X90619056Y-94570549D01*
X90714294Y-94665787D01*
X90761914Y-94761025D01*
X90809533Y-94951501D01*
X90809533Y-95094358D01*
X90761914Y-95284834D01*
X90714294Y-95380072D01*
X90619056Y-95475310D01*
X90476199Y-95522929D01*
X90380961Y-95522929D01*
X90238104Y-95475310D01*
X90190485Y-95427691D01*
X90190485Y-95094358D01*
X90380961Y-95094358D01*
X89761914Y-95522929D02*
X89761914Y-94856263D01*
X89761914Y-95046739D02*
X89714294Y-94951501D01*
X89666675Y-94903882D01*
X89571437Y-94856263D01*
X89476199Y-94856263D01*
X88761914Y-95475310D02*
X88857152Y-95522929D01*
X89047628Y-95522929D01*
X89142866Y-95475310D01*
X89190485Y-95380072D01*
X89190485Y-94999120D01*
X89142866Y-94903882D01*
X89047628Y-94856263D01*
X88857152Y-94856263D01*
X88761914Y-94903882D01*
X88714294Y-94999120D01*
X88714294Y-95094358D01*
X89190485Y-95189596D01*
X87904771Y-95475310D02*
X88000009Y-95522929D01*
X88190485Y-95522929D01*
X88285723Y-95475310D01*
X88333342Y-95380072D01*
X88333342Y-94999120D01*
X88285723Y-94903882D01*
X88190485Y-94856263D01*
X88000009Y-94856263D01*
X87904771Y-94903882D01*
X87857152Y-94999120D01*
X87857152Y-95094358D01*
X88333342Y-95189596D01*
X87428580Y-94856263D02*
X87428580Y-95522929D01*
X87428580Y-94951501D02*
X87380961Y-94903882D01*
X87285723Y-94856263D01*
X87142866Y-94856263D01*
X87047628Y-94903882D01*
X87000009Y-94999120D01*
X87000009Y-95522929D01*
X86523818Y-95522929D02*
X86523818Y-94522929D01*
X86190485Y-95237215D01*
X85857152Y-94522929D01*
X85857152Y-95522929D01*
X84952390Y-95522929D02*
X84952390Y-94999120D01*
X85000009Y-94903882D01*
X85095247Y-94856263D01*
X85285723Y-94856263D01*
X85380961Y-94903882D01*
X84952390Y-95475310D02*
X85047628Y-95522929D01*
X85285723Y-95522929D01*
X85380961Y-95475310D01*
X85428580Y-95380072D01*
X85428580Y-95284834D01*
X85380961Y-95189596D01*
X85285723Y-95141977D01*
X85047628Y-95141977D01*
X84952390Y-95094358D01*
X84523818Y-95475310D02*
X84428580Y-95522929D01*
X84238104Y-95522929D01*
X84142866Y-95475310D01*
X84095247Y-95380072D01*
X84095247Y-95332453D01*
X84142866Y-95237215D01*
X84238104Y-95189596D01*
X84380961Y-95189596D01*
X84476199Y-95141977D01*
X84523818Y-95046739D01*
X84523818Y-94999120D01*
X84476199Y-94903882D01*
X84380961Y-94856263D01*
X84238104Y-94856263D01*
X84142866Y-94903882D01*
X83666675Y-95522929D02*
X83666675Y-94522929D01*
X83238104Y-95522929D02*
X83238104Y-94999120D01*
X83285723Y-94903882D01*
X83380961Y-94856263D01*
X83523818Y-94856263D01*
X83619056Y-94903882D01*
X83666675Y-94951501D01*
X82380961Y-95475310D02*
X82476199Y-95522929D01*
X82666675Y-95522929D01*
X82761914Y-95475310D01*
X82809533Y-95380072D01*
X82809533Y-94999120D01*
X82761914Y-94903882D01*
X82666675Y-94856263D01*
X82476199Y-94856263D01*
X82380961Y-94903882D01*
X82333342Y-94999120D01*
X82333342Y-95094358D01*
X82809533Y-95189596D01*
X81476199Y-95522929D02*
X81476199Y-94522929D01*
X81476199Y-95475310D02*
X81571437Y-95522929D01*
X81761914Y-95522929D01*
X81857152Y-95475310D01*
X81904771Y-95427691D01*
X81952390Y-95332453D01*
X81952390Y-95046739D01*
X81904771Y-94951501D01*
X81857152Y-94903882D01*
X81761914Y-94856263D01*
X81571437Y-94856263D01*
X81476199Y-94903882D01*
X81000009Y-95522929D02*
X81000009Y-94522929D01*
X80619056Y-94522929D01*
X80523818Y-94570549D01*
X80476199Y-94618168D01*
X80428580Y-94713406D01*
X80428580Y-94856263D01*
X80476199Y-94951501D01*
X80523818Y-94999120D01*
X80619056Y-95046739D01*
X81000009Y-95046739D01*
X79857152Y-95522929D02*
X79952390Y-95475310D01*
X80000009Y-95427691D01*
X80047628Y-95332453D01*
X80047628Y-95046739D01*
X80000009Y-94951501D01*
X79952390Y-94903882D01*
X79857152Y-94856263D01*
X79714294Y-94856263D01*
X79619056Y-94903882D01*
X79571437Y-94951501D01*
X79523818Y-95046739D01*
X79523818Y-95332453D01*
X79571437Y-95427691D01*
X79619056Y-95475310D01*
X79714294Y-95522929D01*
X79857152Y-95522929D01*
X79238104Y-94856263D02*
X78857152Y-94856263D01*
X79095247Y-94522929D02*
X79095247Y-95380072D01*
X79047628Y-95475310D01*
X78952390Y-95522929D01*
X78857152Y-95522929D01*
X78095247Y-95522929D02*
X78095247Y-94999120D01*
X78142866Y-94903882D01*
X78238104Y-94856263D01*
X78428580Y-94856263D01*
X78523818Y-94903882D01*
X78095247Y-95475310D02*
X78190485Y-95522929D01*
X78428580Y-95522929D01*
X78523818Y-95475310D01*
X78571437Y-95380072D01*
X78571437Y-95284834D01*
X78523818Y-95189596D01*
X78428580Y-95141977D01*
X78190485Y-95141977D01*
X78095247Y-95094358D01*
X77761914Y-94856263D02*
X77380961Y-94856263D01*
X77619056Y-94522929D02*
X77619056Y-95380072D01*
X77571437Y-95475310D01*
X77476199Y-95522929D01*
X77380961Y-95522929D01*
X76904771Y-95522929D02*
X77000009Y-95475310D01*
X77047628Y-95427691D01*
X77095247Y-95332453D01*
X77095247Y-95046739D01*
X77047628Y-94951501D01*
X77000009Y-94903882D01*
X76904771Y-94856263D01*
X76761914Y-94856263D01*
X76666675Y-94903882D01*
X76619056Y-94951501D01*
X76571437Y-95046739D01*
X76571437Y-95332453D01*
X76619056Y-95427691D01*
X76666675Y-95475310D01*
X76761914Y-95522929D01*
X76904771Y-95522929D01*
X75428580Y-94475310D02*
X76285723Y-95761025D01*
X75142866Y-95475310D02*
X75000009Y-95522929D01*
X74761914Y-95522929D01*
X74666675Y-95475310D01*
X74619056Y-95427691D01*
X74571437Y-95332453D01*
X74571437Y-95237215D01*
X74619056Y-95141977D01*
X74666675Y-95094358D01*
X74761914Y-95046739D01*
X74952390Y-94999120D01*
X75047628Y-94951501D01*
X75095247Y-94903882D01*
X75142866Y-94808644D01*
X75142866Y-94713406D01*
X75095247Y-94618168D01*
X75047628Y-94570549D01*
X74952390Y-94522929D01*
X74714294Y-94522929D01*
X74571437Y-94570549D01*
X74142866Y-95522929D02*
X74142866Y-94522929D01*
X73714294Y-95522929D02*
X73714294Y-94999120D01*
X73761914Y-94903882D01*
X73857152Y-94856263D01*
X74000009Y-94856263D01*
X74095247Y-94903882D01*
X74142866Y-94951501D01*
X73238104Y-95522929D02*
X73238104Y-94856263D01*
X73238104Y-95046739D02*
X73190485Y-94951501D01*
X73142866Y-94903882D01*
X73047628Y-94856263D01*
X72952390Y-94856263D01*
X72619056Y-95522929D02*
X72619056Y-94856263D01*
X72619056Y-94522929D02*
X72666675Y-94570549D01*
X72619056Y-94618168D01*
X72571437Y-94570549D01*
X72619056Y-94522929D01*
X72619056Y-94618168D01*
X72142866Y-95522929D02*
X72142866Y-94856263D01*
X72142866Y-94951501D02*
X72095247Y-94903882D01*
X72000009Y-94856263D01*
X71857152Y-94856263D01*
X71761914Y-94903882D01*
X71714294Y-94999120D01*
X71714294Y-95522929D01*
X71714294Y-94999120D02*
X71666675Y-94903882D01*
X71571437Y-94856263D01*
X71428580Y-94856263D01*
X71333342Y-94903882D01*
X71285723Y-94999120D01*
X71285723Y-95522929D01*
X70809533Y-94856263D02*
X70809533Y-95856263D01*
X70809533Y-94903882D02*
X70714294Y-94856263D01*
X70523818Y-94856263D01*
X70428580Y-94903882D01*
X70380961Y-94951501D01*
X70333342Y-95046739D01*
X70333342Y-95332453D01*
X70380961Y-95427691D01*
X70428580Y-95475310D01*
X70523818Y-95522929D01*
X70714294Y-95522929D01*
X70809533Y-95475310D01*
X69476199Y-94856263D02*
X69476199Y-95522929D01*
X69714294Y-94475310D02*
X69952390Y-95189596D01*
X69333342Y-95189596D01*
X69000009Y-94618168D02*
X68952390Y-94570549D01*
X68857152Y-94522929D01*
X68619056Y-94522929D01*
X68523818Y-94570549D01*
X68476199Y-94618168D01*
X68428580Y-94713406D01*
X68428580Y-94808644D01*
X68476199Y-94951501D01*
X69047628Y-95522929D01*
X68428580Y-95522929D01*
%TO.C,U1*%
X156875662Y-47942754D02*
X156761376Y-47980849D01*
X156723281Y-48018944D01*
X156685186Y-48095135D01*
X156685186Y-48209420D01*
X156723281Y-48285611D01*
X156761376Y-48323706D01*
X156837567Y-48361801D01*
X157142329Y-48361801D01*
X157142329Y-47561801D01*
X156875662Y-47561801D01*
X156799472Y-47599897D01*
X156761376Y-47637992D01*
X156723281Y-47714182D01*
X156723281Y-47790373D01*
X156761376Y-47866563D01*
X156799472Y-47904658D01*
X156875662Y-47942754D01*
X157142329Y-47942754D01*
X155961376Y-47561801D02*
X156342329Y-47561801D01*
X156380424Y-47942754D01*
X156342329Y-47904658D01*
X156266138Y-47866563D01*
X156075662Y-47866563D01*
X155999472Y-47904658D01*
X155961376Y-47942754D01*
X155923281Y-48018944D01*
X155923281Y-48209420D01*
X155961376Y-48285611D01*
X155999472Y-48323706D01*
X156075662Y-48361801D01*
X156266138Y-48361801D01*
X156342329Y-48323706D01*
X156380424Y-48285611D01*
X145891066Y-25433706D02*
X145776780Y-25471801D01*
X145586304Y-25471801D01*
X145510113Y-25433706D01*
X145472018Y-25395611D01*
X145433923Y-25319420D01*
X145433923Y-25243230D01*
X145472018Y-25167039D01*
X145510113Y-25128944D01*
X145586304Y-25090849D01*
X145738685Y-25052754D01*
X145814875Y-25014658D01*
X145852971Y-24976563D01*
X145891066Y-24900373D01*
X145891066Y-24824182D01*
X145852971Y-24747992D01*
X145814875Y-24709897D01*
X145738685Y-24671801D01*
X145548209Y-24671801D01*
X145433923Y-24709897D01*
X145205352Y-24671801D02*
X144748209Y-24671801D01*
X144976780Y-25471801D02*
X144976780Y-24671801D01*
X146182233Y-20421801D02*
X146448900Y-20040849D01*
X146639376Y-20421801D02*
X146639376Y-19621801D01*
X146334614Y-19621801D01*
X146258424Y-19659897D01*
X146220329Y-19697992D01*
X146182233Y-19774182D01*
X146182233Y-19888468D01*
X146220329Y-19964658D01*
X146258424Y-20002754D01*
X146334614Y-20040849D01*
X146639376Y-20040849D01*
X145877472Y-20193230D02*
X145496519Y-20193230D01*
X145953662Y-20421801D02*
X145686995Y-19621801D01*
X145420329Y-20421801D01*
X145229853Y-19621801D02*
X145039376Y-20421801D01*
X144886995Y-19850373D01*
X144734614Y-20421801D01*
X144544138Y-19621801D01*
X145896519Y-35242754D02*
X146163186Y-35242754D01*
X146163186Y-35661801D02*
X146163186Y-34861801D01*
X145782233Y-34861801D01*
X145134614Y-34861801D02*
X145286995Y-34861801D01*
X145363186Y-34899897D01*
X145401281Y-34937992D01*
X145477472Y-35052277D01*
X145515567Y-35204658D01*
X145515567Y-35509420D01*
X145477472Y-35585611D01*
X145439376Y-35623706D01*
X145363186Y-35661801D01*
X145210805Y-35661801D01*
X145134614Y-35623706D01*
X145096519Y-35585611D01*
X145058424Y-35509420D01*
X145058424Y-35318944D01*
X145096519Y-35242754D01*
X145134614Y-35204658D01*
X145210805Y-35166563D01*
X145363186Y-35166563D01*
X145439376Y-35204658D01*
X145477472Y-35242754D01*
X145515567Y-35318944D01*
X156875662Y-45402754D02*
X156761376Y-45440849D01*
X156723281Y-45478944D01*
X156685186Y-45555135D01*
X156685186Y-45669420D01*
X156723281Y-45745611D01*
X156761376Y-45783706D01*
X156837567Y-45821801D01*
X157142329Y-45821801D01*
X157142329Y-45021801D01*
X156875662Y-45021801D01*
X156799472Y-45059897D01*
X156761376Y-45097992D01*
X156723281Y-45174182D01*
X156723281Y-45250373D01*
X156761376Y-45326563D01*
X156799472Y-45364658D01*
X156875662Y-45402754D01*
X157142329Y-45402754D01*
X155999472Y-45288468D02*
X155999472Y-45821801D01*
X156189948Y-44983706D02*
X156380424Y-45555135D01*
X155885186Y-45555135D01*
X146696519Y-27241801D02*
X146429853Y-28041801D01*
X146163186Y-27241801D01*
X145439376Y-27965611D02*
X145477472Y-28003706D01*
X145591757Y-28041801D01*
X145667948Y-28041801D01*
X145782233Y-28003706D01*
X145858424Y-27927516D01*
X145896519Y-27851325D01*
X145934614Y-27698944D01*
X145934614Y-27584658D01*
X145896519Y-27432277D01*
X145858424Y-27356087D01*
X145782233Y-27279897D01*
X145667948Y-27241801D01*
X145591757Y-27241801D01*
X145477472Y-27279897D01*
X145439376Y-27317992D01*
X144639376Y-27965611D02*
X144677472Y-28003706D01*
X144791757Y-28041801D01*
X144867948Y-28041801D01*
X144982233Y-28003706D01*
X145058424Y-27927516D01*
X145096519Y-27851325D01*
X145134614Y-27698944D01*
X145134614Y-27584658D01*
X145096519Y-27432277D01*
X145058424Y-27356087D01*
X144982233Y-27279897D01*
X144867948Y-27241801D01*
X144791757Y-27241801D01*
X144677472Y-27279897D01*
X144639376Y-27317992D01*
X145953662Y-47942754D02*
X145839376Y-47980849D01*
X145801281Y-48018944D01*
X145763186Y-48095135D01*
X145763186Y-48209420D01*
X145801281Y-48285611D01*
X145839376Y-48323706D01*
X145915567Y-48361801D01*
X146220329Y-48361801D01*
X146220329Y-47561801D01*
X145953662Y-47561801D01*
X145877472Y-47599897D01*
X145839376Y-47637992D01*
X145801281Y-47714182D01*
X145801281Y-47790373D01*
X145839376Y-47866563D01*
X145877472Y-47904658D01*
X145953662Y-47942754D01*
X146220329Y-47942754D01*
X145077472Y-47561801D02*
X145229853Y-47561801D01*
X145306043Y-47599897D01*
X145344138Y-47637992D01*
X145420329Y-47752277D01*
X145458424Y-47904658D01*
X145458424Y-48209420D01*
X145420329Y-48285611D01*
X145382233Y-48323706D01*
X145306043Y-48361801D01*
X145153662Y-48361801D01*
X145077472Y-48323706D01*
X145039376Y-48285611D01*
X145001281Y-48209420D01*
X145001281Y-48018944D01*
X145039376Y-47942754D01*
X145077472Y-47904658D01*
X145153662Y-47866563D01*
X145306043Y-47866563D01*
X145382233Y-47904658D01*
X145420329Y-47942754D01*
X145458424Y-48018944D01*
X157161376Y-24739897D02*
X157237567Y-24701801D01*
X157351853Y-24701801D01*
X157466138Y-24739897D01*
X157542329Y-24816087D01*
X157580424Y-24892277D01*
X157618519Y-25044658D01*
X157618519Y-25158944D01*
X157580424Y-25311325D01*
X157542329Y-25387516D01*
X157466138Y-25463706D01*
X157351853Y-25501801D01*
X157275662Y-25501801D01*
X157161376Y-25463706D01*
X157123281Y-25425611D01*
X157123281Y-25158944D01*
X157275662Y-25158944D01*
X156780424Y-25501801D02*
X156780424Y-24701801D01*
X156323281Y-25501801D01*
X156323281Y-24701801D01*
X155942329Y-25501801D02*
X155942329Y-24701801D01*
X155751853Y-24701801D01*
X155637567Y-24739897D01*
X155561376Y-24816087D01*
X155523281Y-24892277D01*
X155485186Y-25044658D01*
X155485186Y-25158944D01*
X155523281Y-25311325D01*
X155561376Y-25387516D01*
X155637567Y-25463706D01*
X155751853Y-25501801D01*
X155942329Y-25501801D01*
X146239376Y-22199897D02*
X146315567Y-22161801D01*
X146429853Y-22161801D01*
X146544138Y-22199897D01*
X146620329Y-22276087D01*
X146658424Y-22352277D01*
X146696519Y-22504658D01*
X146696519Y-22618944D01*
X146658424Y-22771325D01*
X146620329Y-22847516D01*
X146544138Y-22923706D01*
X146429853Y-22961801D01*
X146353662Y-22961801D01*
X146239376Y-22923706D01*
X146201281Y-22885611D01*
X146201281Y-22618944D01*
X146353662Y-22618944D01*
X145858424Y-22961801D02*
X145858424Y-22161801D01*
X145401281Y-22961801D01*
X145401281Y-22161801D01*
X145020329Y-22961801D02*
X145020329Y-22161801D01*
X144829853Y-22161801D01*
X144715567Y-22199897D01*
X144639376Y-22276087D01*
X144601281Y-22352277D01*
X144563186Y-22504658D01*
X144563186Y-22618944D01*
X144601281Y-22771325D01*
X144639376Y-22847516D01*
X144715567Y-22923706D01*
X144829853Y-22961801D01*
X145020329Y-22961801D01*
X156685186Y-38125611D02*
X156723281Y-38163706D01*
X156837567Y-38201801D01*
X156913757Y-38201801D01*
X157028043Y-38163706D01*
X157104233Y-38087516D01*
X157142329Y-38011325D01*
X157180424Y-37858944D01*
X157180424Y-37744658D01*
X157142329Y-37592277D01*
X157104233Y-37516087D01*
X157028043Y-37439897D01*
X156913757Y-37401801D01*
X156837567Y-37401801D01*
X156723281Y-37439897D01*
X156685186Y-37477992D01*
X155999472Y-37401801D02*
X156151853Y-37401801D01*
X156228043Y-37439897D01*
X156266138Y-37477992D01*
X156342329Y-37592277D01*
X156380424Y-37744658D01*
X156380424Y-38049420D01*
X156342329Y-38125611D01*
X156304233Y-38163706D01*
X156228043Y-38201801D01*
X156075662Y-38201801D01*
X155999472Y-38163706D01*
X155961376Y-38125611D01*
X155923281Y-38049420D01*
X155923281Y-37858944D01*
X155961376Y-37782754D01*
X155999472Y-37744658D01*
X156075662Y-37706563D01*
X156228043Y-37706563D01*
X156304233Y-37744658D01*
X156342329Y-37782754D01*
X156380424Y-37858944D01*
X157142329Y-30581801D02*
X157142329Y-29781801D01*
X156951853Y-29781801D01*
X156837567Y-29819897D01*
X156761376Y-29896087D01*
X156723281Y-29972277D01*
X156685186Y-30124658D01*
X156685186Y-30238944D01*
X156723281Y-30391325D01*
X156761376Y-30467516D01*
X156837567Y-30543706D01*
X156951853Y-30581801D01*
X157142329Y-30581801D01*
X155923281Y-30581801D02*
X156380424Y-30581801D01*
X156151853Y-30581801D02*
X156151853Y-29781801D01*
X156228043Y-29896087D01*
X156304233Y-29972277D01*
X156380424Y-30010373D01*
X156853201Y-19621801D02*
X156396058Y-19621801D01*
X156624629Y-20421801D02*
X156624629Y-19621801D01*
X156205582Y-19621801D02*
X155672248Y-20421801D01*
X155672248Y-19621801D02*
X156205582Y-20421801D01*
X155215105Y-19621801D02*
X155138915Y-19621801D01*
X155062725Y-19659897D01*
X155024629Y-19697992D01*
X154986534Y-19774182D01*
X154948439Y-19926563D01*
X154948439Y-20117039D01*
X154986534Y-20269420D01*
X155024629Y-20345611D01*
X155062725Y-20383706D01*
X155138915Y-20421801D01*
X155215105Y-20421801D01*
X155291296Y-20383706D01*
X155329391Y-20345611D01*
X155367486Y-20269420D01*
X155405582Y-20117039D01*
X155405582Y-19926563D01*
X155367486Y-19774182D01*
X155329391Y-19697992D01*
X155291296Y-19659897D01*
X155215105Y-19621801D01*
X154034153Y-19583706D02*
X154719867Y-20612277D01*
X153767486Y-20421801D02*
X153767486Y-19621801D01*
X153577010Y-19621801D01*
X153462725Y-19659897D01*
X153386534Y-19736087D01*
X153348439Y-19812277D01*
X153310344Y-19964658D01*
X153310344Y-20078944D01*
X153348439Y-20231325D01*
X153386534Y-20307516D01*
X153462725Y-20383706D01*
X153577010Y-20421801D01*
X153767486Y-20421801D01*
X153043677Y-19621801D02*
X152548439Y-19621801D01*
X152815105Y-19926563D01*
X152700820Y-19926563D01*
X152624629Y-19964658D01*
X152586534Y-20002754D01*
X152548439Y-20078944D01*
X152548439Y-20269420D01*
X152586534Y-20345611D01*
X152624629Y-20383706D01*
X152700820Y-20421801D01*
X152929391Y-20421801D01*
X153005582Y-20383706D01*
X153043677Y-20345611D01*
X145953662Y-42862754D02*
X145839376Y-42900849D01*
X145801281Y-42938944D01*
X145763186Y-43015135D01*
X145763186Y-43129420D01*
X145801281Y-43205611D01*
X145839376Y-43243706D01*
X145915567Y-43281801D01*
X146220329Y-43281801D01*
X146220329Y-42481801D01*
X145953662Y-42481801D01*
X145877472Y-42519897D01*
X145839376Y-42557992D01*
X145801281Y-42634182D01*
X145801281Y-42710373D01*
X145839376Y-42786563D01*
X145877472Y-42824658D01*
X145953662Y-42862754D01*
X146220329Y-42862754D01*
X145496519Y-42481801D02*
X145001281Y-42481801D01*
X145267948Y-42786563D01*
X145153662Y-42786563D01*
X145077472Y-42824658D01*
X145039376Y-42862754D01*
X145001281Y-42938944D01*
X145001281Y-43129420D01*
X145039376Y-43205611D01*
X145077472Y-43243706D01*
X145153662Y-43281801D01*
X145382233Y-43281801D01*
X145458424Y-43243706D01*
X145496519Y-43205611D01*
X157104233Y-42862754D02*
X156837567Y-42862754D01*
X156723281Y-43281801D02*
X157104233Y-43281801D01*
X157104233Y-42481801D01*
X156723281Y-42481801D01*
X156037567Y-42481801D02*
X156189948Y-42481801D01*
X156266138Y-42519897D01*
X156304233Y-42557992D01*
X156380424Y-42672277D01*
X156418519Y-42824658D01*
X156418519Y-43129420D01*
X156380424Y-43205611D01*
X156342329Y-43243706D01*
X156266138Y-43281801D01*
X156113757Y-43281801D01*
X156037567Y-43243706D01*
X155999472Y-43205611D01*
X155961376Y-43129420D01*
X155961376Y-42938944D01*
X155999472Y-42862754D01*
X156037567Y-42824658D01*
X156113757Y-42786563D01*
X156266138Y-42786563D01*
X156342329Y-42824658D01*
X156380424Y-42862754D01*
X156418519Y-42938944D01*
X157142329Y-33121801D02*
X157142329Y-32321801D01*
X156951853Y-32321801D01*
X156837567Y-32359897D01*
X156761376Y-32436087D01*
X156723281Y-32512277D01*
X156685186Y-32664658D01*
X156685186Y-32778944D01*
X156723281Y-32931325D01*
X156761376Y-33007516D01*
X156837567Y-33083706D01*
X156951853Y-33121801D01*
X157142329Y-33121801D01*
X156189948Y-32321801D02*
X156113757Y-32321801D01*
X156037567Y-32359897D01*
X155999472Y-32397992D01*
X155961376Y-32474182D01*
X155923281Y-32626563D01*
X155923281Y-32817039D01*
X155961376Y-32969420D01*
X155999472Y-33045611D01*
X156037567Y-33083706D01*
X156113757Y-33121801D01*
X156189948Y-33121801D01*
X156266138Y-33083706D01*
X156304233Y-33045611D01*
X156342329Y-32969420D01*
X156380424Y-32817039D01*
X156380424Y-32626563D01*
X156342329Y-32474182D01*
X156304233Y-32397992D01*
X156266138Y-32359897D01*
X156189948Y-32321801D01*
X145896519Y-32702754D02*
X146163186Y-32702754D01*
X146163186Y-33121801D02*
X146163186Y-32321801D01*
X145782233Y-32321801D01*
X145096519Y-32321801D02*
X145477472Y-32321801D01*
X145515567Y-32702754D01*
X145477472Y-32664658D01*
X145401281Y-32626563D01*
X145210805Y-32626563D01*
X145134614Y-32664658D01*
X145096519Y-32702754D01*
X145058424Y-32778944D01*
X145058424Y-32969420D01*
X145096519Y-33045611D01*
X145134614Y-33083706D01*
X145210805Y-33121801D01*
X145401281Y-33121801D01*
X145477472Y-33083706D01*
X145515567Y-33045611D01*
X145896519Y-37782754D02*
X146163186Y-37782754D01*
X146163186Y-38201801D02*
X146163186Y-37401801D01*
X145782233Y-37401801D01*
X145553662Y-37401801D02*
X145020329Y-37401801D01*
X145363186Y-38201801D01*
X157142329Y-35661801D02*
X157142329Y-34861801D01*
X156951853Y-34861801D01*
X156837567Y-34899897D01*
X156761376Y-34976087D01*
X156723281Y-35052277D01*
X156685186Y-35204658D01*
X156685186Y-35318944D01*
X156723281Y-35471325D01*
X156761376Y-35547516D01*
X156837567Y-35623706D01*
X156951853Y-35661801D01*
X157142329Y-35661801D01*
X155999472Y-35128468D02*
X155999472Y-35661801D01*
X156189948Y-34823706D02*
X156380424Y-35395135D01*
X155885186Y-35395135D01*
X157142329Y-40741801D02*
X157142329Y-39941801D01*
X156951853Y-39941801D01*
X156837567Y-39979897D01*
X156761376Y-40056087D01*
X156723281Y-40132277D01*
X156685186Y-40284658D01*
X156685186Y-40398944D01*
X156723281Y-40551325D01*
X156761376Y-40627516D01*
X156837567Y-40703706D01*
X156951853Y-40741801D01*
X157142329Y-40741801D01*
X156418519Y-39941801D02*
X155885186Y-39941801D01*
X156228043Y-40741801D01*
X157142329Y-22961801D02*
X157142329Y-22161801D01*
X156951853Y-22161801D01*
X156837567Y-22199897D01*
X156761376Y-22276087D01*
X156723281Y-22352277D01*
X156685186Y-22504658D01*
X156685186Y-22618944D01*
X156723281Y-22771325D01*
X156761376Y-22847516D01*
X156837567Y-22923706D01*
X156951853Y-22961801D01*
X157142329Y-22961801D01*
X156380424Y-22237992D02*
X156342329Y-22199897D01*
X156266138Y-22161801D01*
X156075662Y-22161801D01*
X155999472Y-22199897D01*
X155961376Y-22237992D01*
X155923281Y-22314182D01*
X155923281Y-22390373D01*
X155961376Y-22504658D01*
X156418519Y-22961801D01*
X155923281Y-22961801D01*
X145896519Y-30162754D02*
X146163186Y-30162754D01*
X146163186Y-30581801D02*
X146163186Y-29781801D01*
X145782233Y-29781801D01*
X145134614Y-30048468D02*
X145134614Y-30581801D01*
X145325091Y-29743706D02*
X145515567Y-30315135D01*
X145020329Y-30315135D01*
X145953662Y-40322754D02*
X145839376Y-40360849D01*
X145801281Y-40398944D01*
X145763186Y-40475135D01*
X145763186Y-40589420D01*
X145801281Y-40665611D01*
X145839376Y-40703706D01*
X145915567Y-40741801D01*
X146220329Y-40741801D01*
X146220329Y-39941801D01*
X145953662Y-39941801D01*
X145877472Y-39979897D01*
X145839376Y-40017992D01*
X145801281Y-40094182D01*
X145801281Y-40170373D01*
X145839376Y-40246563D01*
X145877472Y-40284658D01*
X145953662Y-40322754D01*
X146220329Y-40322754D01*
X145001281Y-40741801D02*
X145458424Y-40741801D01*
X145229853Y-40741801D02*
X145229853Y-39941801D01*
X145306043Y-40056087D01*
X145382233Y-40132277D01*
X145458424Y-40170373D01*
X145953662Y-45402754D02*
X145839376Y-45440849D01*
X145801281Y-45478944D01*
X145763186Y-45555135D01*
X145763186Y-45669420D01*
X145801281Y-45745611D01*
X145839376Y-45783706D01*
X145915567Y-45821801D01*
X146220329Y-45821801D01*
X146220329Y-45021801D01*
X145953662Y-45021801D01*
X145877472Y-45059897D01*
X145839376Y-45097992D01*
X145801281Y-45174182D01*
X145801281Y-45250373D01*
X145839376Y-45326563D01*
X145877472Y-45364658D01*
X145953662Y-45402754D01*
X146220329Y-45402754D01*
X145458424Y-45097992D02*
X145420329Y-45059897D01*
X145344138Y-45021801D01*
X145153662Y-45021801D01*
X145077472Y-45059897D01*
X145039376Y-45097992D01*
X145001281Y-45174182D01*
X145001281Y-45250373D01*
X145039376Y-45364658D01*
X145496519Y-45821801D01*
X145001281Y-45821801D01*
X157161376Y-27279897D02*
X157237567Y-27241801D01*
X157351853Y-27241801D01*
X157466138Y-27279897D01*
X157542329Y-27356087D01*
X157580424Y-27432277D01*
X157618519Y-27584658D01*
X157618519Y-27698944D01*
X157580424Y-27851325D01*
X157542329Y-27927516D01*
X157466138Y-28003706D01*
X157351853Y-28041801D01*
X157275662Y-28041801D01*
X157161376Y-28003706D01*
X157123281Y-27965611D01*
X157123281Y-27698944D01*
X157275662Y-27698944D01*
X156780424Y-28041801D02*
X156780424Y-27241801D01*
X156323281Y-28041801D01*
X156323281Y-27241801D01*
X155942329Y-28041801D02*
X155942329Y-27241801D01*
X155751853Y-27241801D01*
X155637567Y-27279897D01*
X155561376Y-27356087D01*
X155523281Y-27432277D01*
X155485186Y-27584658D01*
X155485186Y-27698944D01*
X155523281Y-27851325D01*
X155561376Y-27927516D01*
X155637567Y-28003706D01*
X155751853Y-28041801D01*
X155942329Y-28041801D01*
%TO.C,G\u002A\u002A\u002A*%
G36*
X96842737Y-93200616D02*
G01*
X96851552Y-93067851D01*
X96868703Y-92936371D01*
X96896005Y-92797388D01*
X96935272Y-92642119D01*
X96988319Y-92461778D01*
X97056960Y-92247580D01*
X97083038Y-92168883D01*
X97173225Y-91908870D01*
X97269665Y-91652776D01*
X97376185Y-91391568D01*
X97496613Y-91116213D01*
X97634776Y-90817678D01*
X97794503Y-90486931D01*
X97803517Y-90468588D01*
X98050016Y-89967330D01*
X97885075Y-89800076D01*
X97578746Y-89506438D01*
X97245662Y-89217975D01*
X96894101Y-88940575D01*
X96532343Y-88680128D01*
X96168668Y-88442520D01*
X95811353Y-88233643D01*
X95468678Y-88059383D01*
X95383237Y-88020577D01*
X95104073Y-87903241D01*
X94834477Y-87803490D01*
X94565423Y-87719125D01*
X94287881Y-87647947D01*
X93992826Y-87587756D01*
X93671229Y-87536355D01*
X93314063Y-87491543D01*
X93131984Y-87472198D01*
X92721867Y-87435197D01*
X92351655Y-87411479D01*
X92014226Y-87400773D01*
X91702459Y-87402810D01*
X91511001Y-87410794D01*
X91193321Y-87433680D01*
X90917914Y-87465263D01*
X90678600Y-87507373D01*
X90469196Y-87561840D01*
X90283521Y-87630495D01*
X90115392Y-87715168D01*
X89958628Y-87817690D01*
X89850791Y-87902355D01*
X89754319Y-87990255D01*
X89646255Y-88100220D01*
X89535108Y-88222372D01*
X89429389Y-88346835D01*
X89337610Y-88463729D01*
X89268280Y-88563177D01*
X89241311Y-88609748D01*
X89188377Y-88703176D01*
X89126080Y-88797578D01*
X89061751Y-88883541D01*
X89002720Y-88951651D01*
X88956319Y-88992496D01*
X88937379Y-89000000D01*
X88911711Y-89019004D01*
X88864593Y-89071124D01*
X88802116Y-89149017D01*
X88730370Y-89245343D01*
X88708974Y-89275289D01*
X88474226Y-89592108D01*
X88242122Y-89876328D01*
X88014491Y-90126543D01*
X87793160Y-90341345D01*
X87579958Y-90519327D01*
X87376713Y-90659083D01*
X87185252Y-90759204D01*
X87007404Y-90818284D01*
X86844996Y-90834916D01*
X86712535Y-90812097D01*
X86600279Y-90749597D01*
X86508425Y-90643702D01*
X86437600Y-90495786D01*
X86388432Y-90307221D01*
X86361551Y-90079382D01*
X86359388Y-90039981D01*
X86354363Y-89933252D01*
X86456715Y-89933252D01*
X86460800Y-90086597D01*
X86483425Y-90248118D01*
X86521014Y-90400467D01*
X86569994Y-90526297D01*
X86584403Y-90552955D01*
X86666085Y-90655098D01*
X86766634Y-90713666D01*
X86887295Y-90728853D01*
X87029319Y-90700849D01*
X87168320Y-90642956D01*
X87376687Y-90519544D01*
X87596799Y-90352097D01*
X87826019Y-90143357D01*
X88061713Y-89896070D01*
X88301247Y-89612981D01*
X88541985Y-89296832D01*
X88754289Y-88991126D01*
X88832306Y-88872818D01*
X88899880Y-88768099D01*
X88952651Y-88683909D01*
X88986263Y-88627187D01*
X88996532Y-88605448D01*
X88976707Y-88604264D01*
X88921728Y-88624909D01*
X88838340Y-88663923D01*
X88733287Y-88717843D01*
X88613314Y-88783207D01*
X88485166Y-88856552D01*
X88355586Y-88934418D01*
X88355310Y-88934589D01*
X88012756Y-89139925D01*
X87701821Y-89313429D01*
X87418572Y-89456905D01*
X87159078Y-89572155D01*
X86919406Y-89660984D01*
X86695624Y-89725194D01*
X86573988Y-89751409D01*
X86463873Y-89772192D01*
X86456715Y-89933252D01*
X86354363Y-89933252D01*
X86347867Y-89795279D01*
X86075523Y-89794303D01*
X85878131Y-89787682D01*
X85713389Y-89767367D01*
X85566179Y-89730324D01*
X85421387Y-89673517D01*
X85382316Y-89655158D01*
X85192150Y-89539416D01*
X85041035Y-89394821D01*
X84928753Y-89220958D01*
X84855088Y-89017414D01*
X84819822Y-88783778D01*
X84818640Y-88584314D01*
X84851702Y-88308974D01*
X84925503Y-88022856D01*
X85040786Y-87724418D01*
X85198294Y-87412117D01*
X85398772Y-87084411D01*
X85642964Y-86739758D01*
X85815106Y-86518798D01*
X86188398Y-86083780D01*
X86592308Y-85667228D01*
X87019060Y-85276120D01*
X87460880Y-84917436D01*
X87909991Y-84598153D01*
X88068221Y-84496531D01*
X88192974Y-84421175D01*
X88336712Y-84338476D01*
X88492910Y-84251785D01*
X88655043Y-84164450D01*
X88816586Y-84079821D01*
X88971012Y-84001247D01*
X89111798Y-83932078D01*
X89232417Y-83875662D01*
X89326344Y-83835349D01*
X89387055Y-83814487D01*
X89401228Y-83812332D01*
X89449877Y-83818919D01*
X89458137Y-83839248D01*
X89424951Y-83874170D01*
X89349259Y-83924536D01*
X89230004Y-83991197D01*
X89088295Y-84063957D01*
X88566483Y-84341580D01*
X88083559Y-84634648D01*
X87630275Y-84949771D01*
X87197381Y-85293559D01*
X86775630Y-85672623D01*
X86603554Y-85840000D01*
X86295750Y-86159662D01*
X86014878Y-86479296D01*
X85762437Y-86796207D01*
X85539925Y-87107700D01*
X85348839Y-87411081D01*
X85190679Y-87703653D01*
X85066943Y-87982724D01*
X84979128Y-88245596D01*
X84928733Y-88489577D01*
X84917256Y-88711970D01*
X84931944Y-88846788D01*
X84993854Y-89061828D01*
X85093859Y-89247198D01*
X85230211Y-89401646D01*
X85401158Y-89523919D01*
X85604952Y-89612765D01*
X85839843Y-89666931D01*
X86102952Y-89685164D01*
X86346721Y-89685164D01*
X86363330Y-89483285D01*
X86393144Y-89243637D01*
X86444464Y-88972309D01*
X86514464Y-88680085D01*
X86600317Y-88377747D01*
X86699199Y-88076079D01*
X86808149Y-87786190D01*
X86879064Y-87621094D01*
X86969585Y-87426881D01*
X87073412Y-87215953D01*
X87184246Y-87000714D01*
X87295785Y-86793568D01*
X87401729Y-86606917D01*
X87438802Y-86544619D01*
X87607739Y-86276681D01*
X87775566Y-86036314D01*
X87949069Y-85816303D01*
X88135036Y-85609434D01*
X88340252Y-85408495D01*
X88571503Y-85206270D01*
X88835576Y-84995546D01*
X89042334Y-84840046D01*
X89207091Y-84718465D01*
X89378553Y-84591802D01*
X89546934Y-84467296D01*
X89702448Y-84352185D01*
X89835308Y-84253709D01*
X89910684Y-84197736D01*
X90051907Y-84095033D01*
X90159337Y-84022567D01*
X90236295Y-83978669D01*
X90286099Y-83961672D01*
X90312071Y-83969909D01*
X90317919Y-83993140D01*
X90298899Y-84014447D01*
X90244491Y-84061696D01*
X90158679Y-84131757D01*
X90045441Y-84221496D01*
X89908759Y-84327784D01*
X89752615Y-84447487D01*
X89580988Y-84577473D01*
X89455347Y-84671727D01*
X89185604Y-84874785D01*
X88952086Y-85054162D01*
X88750539Y-85213685D01*
X88576706Y-85357179D01*
X88426335Y-85488470D01*
X88295170Y-85611383D01*
X88178958Y-85729746D01*
X88073442Y-85847383D01*
X87974370Y-85968121D01*
X87888761Y-86080483D01*
X87650512Y-86425813D01*
X87417518Y-86808514D01*
X87196373Y-87217036D01*
X86993670Y-87639830D01*
X86976368Y-87678613D01*
X86870010Y-87937006D01*
X86768953Y-88217655D01*
X86676429Y-88509163D01*
X86595666Y-88800133D01*
X86529894Y-89079168D01*
X86482343Y-89334872D01*
X86461457Y-89495586D01*
X86444866Y-89660825D01*
X86527780Y-89645873D01*
X86643498Y-89618254D01*
X86790357Y-89573124D01*
X86955865Y-89515150D01*
X87127536Y-89448996D01*
X87292881Y-89379329D01*
X87439411Y-89310813D01*
X87479383Y-89290368D01*
X87588700Y-89231332D01*
X87728182Y-89153509D01*
X87886179Y-89063540D01*
X88051040Y-88968070D01*
X88211115Y-88873739D01*
X88232338Y-88861086D01*
X88383198Y-88772743D01*
X88533614Y-88687776D01*
X88673918Y-88611419D01*
X88794438Y-88548907D01*
X88885505Y-88505473D01*
X88903300Y-88497896D01*
X88996427Y-88456024D01*
X89072759Y-88414772D01*
X89120050Y-88381023D01*
X89127820Y-88371670D01*
X89169536Y-88289330D01*
X89195549Y-88232045D01*
X89323780Y-88232045D01*
X89336086Y-88225033D01*
X89377642Y-88188419D01*
X89443082Y-88127200D01*
X89527042Y-88046371D01*
X89600802Y-87974047D01*
X89725296Y-87853610D01*
X89826702Y-87762216D01*
X89914455Y-87692341D01*
X89997996Y-87636462D01*
X90085471Y-87587723D01*
X90259455Y-87509417D01*
X90453974Y-87444576D01*
X90674338Y-87392193D01*
X90925860Y-87351260D01*
X91213851Y-87320769D01*
X91543624Y-87299712D01*
X91621293Y-87296287D01*
X91891014Y-87285232D01*
X92252975Y-87285232D01*
X92331545Y-87296658D01*
X92382304Y-87302202D01*
X92471637Y-87310118D01*
X92589280Y-87319569D01*
X92724972Y-87329718D01*
X92813873Y-87336007D01*
X93219928Y-87368465D01*
X93583621Y-87407149D01*
X93911253Y-87453103D01*
X94209129Y-87507372D01*
X94483549Y-87571001D01*
X94740817Y-87645034D01*
X94805777Y-87666150D01*
X95292741Y-87849030D01*
X95769773Y-88070777D01*
X96239691Y-88333165D01*
X96705312Y-88637971D01*
X97169454Y-88986971D01*
X97634934Y-89381939D01*
X97866955Y-89595235D01*
X97952091Y-89673063D01*
X98024697Y-89734937D01*
X98077474Y-89774954D01*
X98103124Y-89787212D01*
X98103815Y-89786788D01*
X98116023Y-89756848D01*
X98133913Y-89691205D01*
X98154214Y-89602273D01*
X98160596Y-89571367D01*
X98180222Y-89464002D01*
X98188202Y-89380757D01*
X98184772Y-89299496D01*
X98170168Y-89198084D01*
X98164908Y-89167610D01*
X98122951Y-88970173D01*
X98071770Y-88812379D01*
X98007488Y-88685224D01*
X97926230Y-88579704D01*
X97900534Y-88553420D01*
X97838124Y-88495078D01*
X97788759Y-88453667D01*
X97763085Y-88438114D01*
X97763039Y-88438116D01*
X97739516Y-88457101D01*
X97700429Y-88504338D01*
X97677270Y-88536381D01*
X97576989Y-88647031D01*
X97461410Y-88712017D01*
X97346965Y-88730737D01*
X97245186Y-88713451D01*
X97177557Y-88662955D01*
X97146751Y-88581608D01*
X97146169Y-88571525D01*
X97273806Y-88571525D01*
X97308782Y-88604714D01*
X97355203Y-88618496D01*
X97406142Y-88603986D01*
X97471327Y-88556987D01*
X97518256Y-88514365D01*
X97570486Y-88460723D01*
X97603722Y-88418784D01*
X97610019Y-88404568D01*
X97589761Y-88388668D01*
X97538608Y-88388242D01*
X97470988Y-88400308D01*
X97401332Y-88421879D01*
X97344070Y-88449972D01*
X97327089Y-88463089D01*
X97277457Y-88523934D01*
X97273806Y-88571525D01*
X97146169Y-88571525D01*
X97145086Y-88552747D01*
X97166744Y-88448973D01*
X97229671Y-88368086D01*
X97330796Y-88312257D01*
X97467048Y-88283656D01*
X97530430Y-88280330D01*
X97609886Y-88277403D01*
X97665575Y-88271950D01*
X97684434Y-88265896D01*
X97689358Y-88236540D01*
X97700495Y-88176526D01*
X97706704Y-88144063D01*
X97716094Y-87969795D01*
X97680885Y-87787427D01*
X97603394Y-87602790D01*
X97485936Y-87421715D01*
X97364803Y-87283391D01*
X97273553Y-87196006D01*
X97199026Y-87138195D01*
X97128027Y-87100798D01*
X97075202Y-87082409D01*
X96958679Y-87055941D01*
X96873188Y-87059336D01*
X96808509Y-87096127D01*
X96754424Y-87169844D01*
X96739356Y-87198442D01*
X96641246Y-87355458D01*
X96526435Y-87468043D01*
X96396173Y-87535266D01*
X96259791Y-87556262D01*
X96153306Y-87541960D01*
X96080384Y-87501278D01*
X96046090Y-87437552D01*
X96044092Y-87414171D01*
X96047602Y-87399990D01*
X96166281Y-87399990D01*
X96189364Y-87431764D01*
X96254475Y-87452221D01*
X96279749Y-87455543D01*
X96313830Y-87444152D01*
X96372782Y-87411776D01*
X96423854Y-87378854D01*
X96502467Y-87313488D01*
X96572767Y-87235866D01*
X96599687Y-87196526D01*
X96659238Y-87093727D01*
X96580798Y-87116223D01*
X96479342Y-87153755D01*
X96377639Y-87205534D01*
X96285842Y-87264611D01*
X96214102Y-87324035D01*
X96172573Y-87376857D01*
X96166281Y-87399990D01*
X96047602Y-87399990D01*
X96067948Y-87317788D01*
X96135672Y-87224410D01*
X96242209Y-87138254D01*
X96382501Y-87063538D01*
X96527015Y-87011433D01*
X96618093Y-86983116D01*
X96672608Y-86959785D01*
X96701377Y-86934156D01*
X96715216Y-86898948D01*
X96718651Y-86882386D01*
X96719365Y-86759605D01*
X96683161Y-86620768D01*
X96615541Y-86474232D01*
X96522003Y-86328353D01*
X96408047Y-86191489D01*
X96279174Y-86071997D01*
X96140882Y-85978232D01*
X96114372Y-85964205D01*
X95918631Y-85883434D01*
X95707420Y-85827719D01*
X95493603Y-85798731D01*
X95290039Y-85798140D01*
X95109589Y-85827618D01*
X95095022Y-85831773D01*
X95021198Y-85856353D01*
X94981605Y-85881605D01*
X94962926Y-85919770D01*
X94955234Y-85960241D01*
X94917360Y-86131548D01*
X94862539Y-86274888D01*
X94794222Y-86386600D01*
X94715858Y-86463020D01*
X94630898Y-86500488D01*
X94542792Y-86495339D01*
X94480583Y-86464060D01*
X94447938Y-86435294D01*
X94432604Y-86398335D01*
X94430424Y-86337496D01*
X94433155Y-86291446D01*
X94536007Y-86291446D01*
X94543076Y-86347535D01*
X94575705Y-86375152D01*
X94626802Y-86367102D01*
X94676100Y-86330258D01*
X94716438Y-86277433D01*
X94760159Y-86201603D01*
X94800231Y-86117827D01*
X94829618Y-86041166D01*
X94841288Y-85986680D01*
X94840570Y-85978089D01*
X94820803Y-85971587D01*
X94777975Y-85993595D01*
X94721582Y-86036080D01*
X94661119Y-86091009D01*
X94606082Y-86150352D01*
X94565966Y-86206075D01*
X94561588Y-86214077D01*
X94536007Y-86291446D01*
X94433155Y-86291446D01*
X94433462Y-86286266D01*
X94447364Y-86192831D01*
X94478204Y-86111789D01*
X94531803Y-86036238D01*
X94613982Y-85959279D01*
X94730561Y-85874010D01*
X94842309Y-85801561D01*
X94843553Y-85774615D01*
X94824293Y-85719103D01*
X94790635Y-85647530D01*
X94748688Y-85572402D01*
X94704558Y-85506227D01*
X94687883Y-85485322D01*
X94562842Y-85370228D01*
X94405929Y-85281622D01*
X94213856Y-85218283D01*
X93983334Y-85178990D01*
X93829383Y-85166667D01*
X93503563Y-85171545D01*
X93195436Y-85221146D01*
X92906471Y-85315097D01*
X92638136Y-85453020D01*
X92589279Y-85484382D01*
X92450575Y-85576448D01*
X92497116Y-85681662D01*
X92553532Y-85845932D01*
X92594736Y-86040707D01*
X92619201Y-86249665D01*
X92625400Y-86456487D01*
X92611805Y-86644853D01*
X92595584Y-86733626D01*
X92546334Y-86886783D01*
X92475672Y-87031845D01*
X92392211Y-87152701D01*
X92345278Y-87201843D01*
X92252975Y-87285232D01*
X91891014Y-87285232D01*
X92027155Y-87279652D01*
X91955773Y-87208271D01*
X91883611Y-87103626D01*
X91837575Y-86966084D01*
X91816435Y-86803328D01*
X91817330Y-86739484D01*
X91918407Y-86739484D01*
X91930720Y-86891089D01*
X91973561Y-87014280D01*
X92043570Y-87108966D01*
X92107184Y-87161200D01*
X92162655Y-87173425D01*
X92223466Y-87145468D01*
X92271834Y-87106036D01*
X92329618Y-87036303D01*
X92389752Y-86933819D01*
X92444459Y-86813715D01*
X92485962Y-86691120D01*
X92486918Y-86687572D01*
X92511686Y-86538724D01*
X92517178Y-86363541D01*
X92504952Y-86177421D01*
X92476566Y-85995759D01*
X92433577Y-85833953D01*
X92390009Y-85729704D01*
X92355247Y-85663357D01*
X92239400Y-85820648D01*
X92149891Y-85948098D01*
X92085385Y-86057243D01*
X92037327Y-86165403D01*
X91997160Y-86289896D01*
X91984294Y-86337082D01*
X91936354Y-86555978D01*
X91918407Y-86739484D01*
X91817330Y-86739484D01*
X91818962Y-86623043D01*
X91843928Y-86432911D01*
X91890101Y-86240618D01*
X91956254Y-86053847D01*
X92041156Y-85880282D01*
X92143578Y-85727606D01*
X92203700Y-85658662D01*
X92248456Y-85606162D01*
X92273562Y-85565002D01*
X92275530Y-85556570D01*
X92255158Y-85516560D01*
X92201770Y-85464714D01*
X92126953Y-85409332D01*
X92042296Y-85358717D01*
X91959388Y-85321169D01*
X91936382Y-85313634D01*
X91822533Y-85291746D01*
X91704100Y-85292864D01*
X91577428Y-85318807D01*
X91438862Y-85371393D01*
X91284747Y-85452440D01*
X91111428Y-85563766D01*
X90915250Y-85707190D01*
X90692558Y-85884529D01*
X90550385Y-86003155D01*
X90337561Y-86179712D01*
X90155429Y-86323471D01*
X90004952Y-86433710D01*
X89887092Y-86509705D01*
X89850337Y-86529822D01*
X89762042Y-86574913D01*
X89744640Y-86790298D01*
X89722315Y-86991867D01*
X89686933Y-87191298D01*
X89636105Y-87396780D01*
X89567439Y-87616502D01*
X89478545Y-87858653D01*
X89367033Y-88131422D01*
X89323780Y-88232045D01*
X89195549Y-88232045D01*
X89222508Y-88172676D01*
X89281855Y-88033600D01*
X89342697Y-87883990D01*
X89400154Y-87735738D01*
X89449346Y-87600734D01*
X89472949Y-87530775D01*
X89546882Y-87284408D01*
X89599943Y-87064092D01*
X89635846Y-86853564D01*
X89645429Y-86775757D01*
X89662861Y-86619241D01*
X89567350Y-86634514D01*
X89458946Y-86637509D01*
X89357419Y-86615474D01*
X89278932Y-86572948D01*
X89254189Y-86546591D01*
X89229901Y-86484332D01*
X89217554Y-86393096D01*
X89216922Y-86368348D01*
X89314643Y-86368348D01*
X89336264Y-86440175D01*
X89391817Y-86495278D01*
X89467342Y-86527000D01*
X89548878Y-86528681D01*
X89604783Y-86506728D01*
X89623158Y-86469158D01*
X89617848Y-86406529D01*
X89594619Y-86332870D01*
X89559236Y-86262209D01*
X89517465Y-86208575D01*
X89475070Y-86185997D01*
X89472947Y-86185935D01*
X89420727Y-86206287D01*
X89367293Y-86256126D01*
X89327249Y-86318624D01*
X89314643Y-86368348D01*
X89216922Y-86368348D01*
X89216763Y-86362134D01*
X89221006Y-86277851D01*
X89238686Y-86221112D01*
X89277228Y-86170892D01*
X89288291Y-86159582D01*
X89350131Y-86110233D01*
X89418143Y-86090304D01*
X89467551Y-86088054D01*
X89561397Y-86102191D01*
X89630900Y-86148484D01*
X89682013Y-86232754D01*
X89712757Y-86327858D01*
X89745634Y-86456324D01*
X89893543Y-86360726D01*
X89960347Y-86313863D01*
X90055232Y-86242301D01*
X90169094Y-86153159D01*
X90292826Y-86053555D01*
X90406034Y-85960067D01*
X90609802Y-85791064D01*
X90782635Y-85651542D01*
X90929771Y-85538015D01*
X91056447Y-85446999D01*
X91167901Y-85375010D01*
X91269370Y-85318563D01*
X91366094Y-85274173D01*
X91463308Y-85238357D01*
X91515279Y-85222116D01*
X91709511Y-85185706D01*
X91897060Y-85191394D01*
X92070547Y-85237782D01*
X92222592Y-85323475D01*
X92272433Y-85365326D01*
X92385645Y-85470892D01*
X92471291Y-85410707D01*
X92610490Y-85325066D01*
X92776637Y-85241545D01*
X92948387Y-85170192D01*
X93062954Y-85132161D01*
X93175739Y-85105577D01*
X93308215Y-85086391D01*
X93471405Y-85073266D01*
X93596917Y-85067435D01*
X93860192Y-85064352D01*
X94082841Y-85077214D01*
X94271016Y-85107570D01*
X94430866Y-85156967D01*
X94568540Y-85226953D01*
X94690189Y-85319077D01*
X94724453Y-85351237D01*
X94822706Y-85459835D01*
X94886550Y-85562105D01*
X94909695Y-85618237D01*
X94938260Y-85692225D01*
X94961949Y-85728188D01*
X94988475Y-85735394D01*
X95003950Y-85731539D01*
X95047116Y-85724047D01*
X95127345Y-85716095D01*
X95232780Y-85708682D01*
X95339934Y-85703273D01*
X95597819Y-85705043D01*
X95825389Y-85734553D01*
X96033932Y-85793770D01*
X96157486Y-85845728D01*
X96335560Y-85952539D01*
X96494669Y-86092017D01*
X96629085Y-86255810D01*
X96733077Y-86435569D01*
X96800916Y-86622943D01*
X96826874Y-86809582D01*
X96826975Y-86821488D01*
X96826975Y-86938807D01*
X96979913Y-86949130D01*
X97122902Y-86970417D01*
X97246527Y-87017612D01*
X97364608Y-87097561D01*
X97463198Y-87188520D01*
X97620520Y-87371855D01*
X97731549Y-87560055D01*
X97798901Y-87759798D01*
X97825189Y-87977760D01*
X97823104Y-88107608D01*
X97810341Y-88328607D01*
X97906586Y-88383999D01*
X98007541Y-88461565D01*
X98092941Y-88571644D01*
X98166952Y-88720437D01*
X98208449Y-88833348D01*
X98268209Y-89078610D01*
X98290956Y-89334239D01*
X98275968Y-89584689D01*
X98249745Y-89721269D01*
X98201404Y-89916429D01*
X98413467Y-90143753D01*
X98609114Y-90354187D01*
X98773649Y-90532779D01*
X98910020Y-90682831D01*
X99021175Y-90807646D01*
X99110060Y-90910524D01*
X99179623Y-90994769D01*
X99223786Y-91051557D01*
X99431602Y-91356861D01*
X99592656Y-91658634D01*
X99708501Y-91961142D01*
X99780692Y-92268651D01*
X99810780Y-92585426D01*
X99811906Y-92666555D01*
X99798321Y-92939287D01*
X99758672Y-93171992D01*
X99693186Y-93364302D01*
X99602092Y-93515855D01*
X99485619Y-93626283D01*
X99343995Y-93695221D01*
X99177448Y-93722305D01*
X99151638Y-93722736D01*
X98985855Y-93702264D01*
X98839163Y-93638633D01*
X98745369Y-93568593D01*
X98686608Y-93518994D01*
X98644659Y-93487592D01*
X98630099Y-93481137D01*
X98489835Y-93687334D01*
X98341813Y-93852532D01*
X98177827Y-93984672D01*
X98009011Y-94082293D01*
X97909060Y-94128872D01*
X97827915Y-94156996D01*
X97744245Y-94171927D01*
X97636718Y-94178925D01*
X97613947Y-94179723D01*
X97459356Y-94178314D01*
X97343243Y-94162005D01*
X97298626Y-94148610D01*
X97179372Y-94085005D01*
X97062100Y-93988502D01*
X96961766Y-93873396D01*
X96898562Y-93766279D01*
X96873158Y-93702776D01*
X96856390Y-93640173D01*
X96846508Y-93565759D01*
X96841767Y-93466824D01*
X96841370Y-93429840D01*
X96942537Y-93429840D01*
X96949926Y-93495356D01*
X97000966Y-93677576D01*
X97089137Y-93830627D01*
X97211898Y-93951221D01*
X97366706Y-94036073D01*
X97368708Y-94036845D01*
X97465807Y-94070763D01*
X97541015Y-94085035D01*
X97616444Y-94081435D01*
X97705164Y-94063837D01*
X97890955Y-93999024D01*
X98075248Y-93894317D01*
X98247052Y-93757832D01*
X98395379Y-93597683D01*
X98460820Y-93505821D01*
X98544972Y-93374551D01*
X98451819Y-93176044D01*
X98403278Y-93066015D01*
X98373621Y-92976142D01*
X98357269Y-92884193D01*
X98348646Y-92767936D01*
X98348456Y-92764000D01*
X98346233Y-92670520D01*
X98442678Y-92670520D01*
X98454731Y-92807518D01*
X98494165Y-92955989D01*
X98542402Y-93080151D01*
X98574139Y-93144169D01*
X98600190Y-93167948D01*
X98624101Y-93149366D01*
X98649417Y-93086300D01*
X98673208Y-93001844D01*
X98703846Y-92831707D01*
X98708184Y-92667646D01*
X98686485Y-92523556D01*
X98662894Y-92456407D01*
X98625820Y-92392166D01*
X98588958Y-92356054D01*
X98576589Y-92352409D01*
X98540008Y-92374511D01*
X98502860Y-92432105D01*
X98470650Y-92512119D01*
X98448879Y-92601482D01*
X98442678Y-92670520D01*
X98346233Y-92670520D01*
X98344828Y-92611422D01*
X98351923Y-92496770D01*
X98371617Y-92409831D01*
X98405784Y-92340398D01*
X98432917Y-92304189D01*
X98504793Y-92248476D01*
X98587453Y-92228592D01*
X98665772Y-92246361D01*
X98700591Y-92271910D01*
X98769580Y-92374335D01*
X98810797Y-92513542D01*
X98824131Y-92685935D01*
X98809469Y-92887923D01*
X98766701Y-93115911D01*
X98731096Y-93251296D01*
X98714724Y-93318293D01*
X98718984Y-93361819D01*
X98749322Y-93404926D01*
X98773517Y-93430946D01*
X98898104Y-93532335D01*
X99033140Y-93590622D01*
X99171336Y-93606223D01*
X99305404Y-93579557D01*
X99428057Y-93511040D01*
X99532005Y-93401091D01*
X99541689Y-93386933D01*
X99609138Y-93251135D01*
X99659151Y-93079925D01*
X99690837Y-92883951D01*
X99703307Y-92673859D01*
X99695671Y-92460297D01*
X99667038Y-92253910D01*
X99644546Y-92156647D01*
X99538898Y-91849482D01*
X99385059Y-91537855D01*
X99183494Y-91222560D01*
X98934670Y-90904395D01*
X98863823Y-90823022D01*
X98749804Y-90696188D01*
X98633124Y-90569036D01*
X98518586Y-90446529D01*
X98410991Y-90333628D01*
X98315138Y-90235298D01*
X98235830Y-90156499D01*
X98177867Y-90102195D01*
X98146050Y-90077349D01*
X98141791Y-90076686D01*
X98123433Y-90107009D01*
X98087785Y-90175387D01*
X98037902Y-90275366D01*
X97976841Y-90400491D01*
X97907659Y-90544305D01*
X97833410Y-90700356D01*
X97757152Y-90862187D01*
X97681940Y-91023344D01*
X97610831Y-91177372D01*
X97546881Y-91317815D01*
X97493145Y-91438219D01*
X97452680Y-91532129D01*
X97452458Y-91532659D01*
X97312631Y-91882446D01*
X97193783Y-92211245D01*
X97096723Y-92515896D01*
X97022259Y-92793241D01*
X96971200Y-93040120D01*
X96944357Y-93253372D01*
X96942537Y-93429840D01*
X96841370Y-93429840D01*
X96840444Y-93343449D01*
X96842737Y-93200616D01*
G37*
%TO.C,K-0-0*%
X29813683Y-52606056D02*
X24947663Y-53957525D01*
X19790824Y-57314603D02*
X23277816Y-56380266D01*
X29801777Y-52561623D02*
X28790312Y-48786785D01*
X18767453Y-53495332D02*
X19788494Y-57305909D01*
X28790312Y-48786785D02*
X20459202Y-51019100D01*
X20459202Y-51019099D02*
G75*
G03*
X18759961Y-53424870I353265J-2052506D01*
G01*
X24972846Y-53954918D02*
G75*
G03*
X23276434Y-56355790I352230J-2048642D01*
G01*
%TO.C,K-0-1*%
X50949128Y-47586485D02*
X50136609Y-43763885D01*
X50136609Y-43763885D02*
X41700086Y-45557123D01*
X39881060Y-47941422D02*
X40701272Y-51800215D01*
X50958692Y-47631480D02*
X46028611Y-48726429D01*
X40703143Y-51809018D02*
X44234256Y-51058457D01*
X46053896Y-48725144D02*
G75*
G03*
X44234156Y-51033942I244529J-2064269D01*
G01*
X41700086Y-45557123D02*
G75*
G03*
X39877266Y-47870665I245361J-2068181D01*
G01*
%TO.C,K-0-2*%
X68684983Y-24466110D02*
X60166171Y-25815357D01*
X58224853Y-28101189D02*
X58841987Y-31997619D01*
X69296329Y-28325996D02*
X68684983Y-24466110D01*
X69303525Y-28371430D02*
X64322895Y-29206858D01*
X58843395Y-32006508D02*
X62408950Y-31441780D01*
X64348213Y-29206898D02*
G75*
G03*
X62410134Y-31417293I136158J-2074237D01*
G01*
X60166171Y-25815358D02*
G75*
G03*
X58224767Y-28030330I136784J-2078188D01*
G01*
%TO.C,K-0-3*%
X80357188Y-26414221D02*
X83947412Y-26036873D01*
X79943882Y-22481881D02*
X80356247Y-26405270D01*
X90988420Y-23285817D02*
X90579922Y-19399225D01*
X90579922Y-19399225D02*
X82002171Y-20300783D01*
X90993228Y-23331565D02*
X85975701Y-23905182D01*
X82002171Y-20300783D02*
G75*
G03*
X79947505Y-22411115I27833J-2082499D01*
G01*
X86000982Y-23906546D02*
G75*
G03*
X83949876Y-26012482I27415J-2078521D01*
G01*
%TO.C,K-0-4*%
X113102574Y-20334416D02*
X104489394Y-20785814D01*
X102526713Y-26804781D02*
X106131765Y-26615848D01*
X113307103Y-24237060D02*
X113102574Y-20334416D01*
X102319776Y-22856200D02*
X102526242Y-26795794D01*
X113309510Y-24282997D02*
X108268839Y-24593231D01*
X108294014Y-24595918D02*
G75*
G03*
X106135503Y-26591620I-81405J-2077106D01*
G01*
X104489394Y-20785814D02*
G75*
G03*
X102327098Y-22785720I-81195J-2081101D01*
G01*
%TO.C,K-0-5*%
X135570357Y-23990828D02*
X130520357Y-24036828D01*
X124670357Y-21990828D02*
X124670357Y-25935828D01*
X124670357Y-25944828D02*
X128280357Y-25944828D01*
X135570357Y-20036828D02*
X126945357Y-20036828D01*
X135570357Y-23944828D02*
X135570357Y-20036828D01*
X130545357Y-24040828D02*
G75*
G03*
X128285357Y-25920828I-190000J-2070000D01*
G01*
X126945357Y-20036828D02*
G75*
G03*
X124681357Y-21920828I-190000J-2074000D01*
G01*
%TO.C,K-1-0*%
X33711108Y-67076739D02*
X25379998Y-69309054D01*
X23688249Y-71785286D02*
X24709290Y-75595863D01*
X24711620Y-75604557D02*
X28198612Y-74670220D01*
X34734479Y-70896010D02*
X29868459Y-72247479D01*
X34722573Y-70851577D02*
X33711108Y-67076739D01*
X29893642Y-72244872D02*
G75*
G03*
X28197230Y-74645744I352230J-2048642D01*
G01*
X25379998Y-69309053D02*
G75*
G03*
X23680757Y-71714824I353265J-2052506D01*
G01*
%TO.C,K-1-1*%
X54909842Y-66220197D02*
X54097323Y-62397597D01*
X44663857Y-70442730D02*
X48194970Y-69692169D01*
X43841774Y-66575134D02*
X44661986Y-70433927D01*
X54097323Y-62397597D02*
X45660800Y-64190835D01*
X54919406Y-66265192D02*
X49989325Y-67360141D01*
X50014610Y-67358856D02*
G75*
G03*
X48194870Y-69667654I244529J-2064269D01*
G01*
X45660800Y-64190835D02*
G75*
G03*
X43837980Y-66504377I245361J-2068181D01*
G01*
%TO.C,K-1-2*%
X61204927Y-46916651D02*
X61822061Y-50813081D01*
X72276403Y-47141458D02*
X71665057Y-43281572D01*
X71665057Y-43281572D02*
X63146245Y-44630819D01*
X61823469Y-50821970D02*
X65389024Y-50257242D01*
X72283599Y-47186892D02*
X67302969Y-48022320D01*
X63146245Y-44630820D02*
G75*
G03*
X61204841Y-46845792I136784J-2078188D01*
G01*
X67328287Y-48022360D02*
G75*
G03*
X65390208Y-50232755I136158J-2074237D01*
G01*
%TO.C,K-1-3*%
X92979688Y-42231457D02*
X92571190Y-38344865D01*
X92571190Y-38344865D02*
X83993439Y-39246423D01*
X82348456Y-45359861D02*
X85938680Y-44982513D01*
X92984496Y-42277205D02*
X87966969Y-42850822D01*
X81935150Y-41427521D02*
X82347515Y-45350910D01*
X87992250Y-42852186D02*
G75*
G03*
X85941144Y-44958122I27415J-2078521D01*
G01*
X83993439Y-39246423D02*
G75*
G03*
X81938773Y-41356755I27833J-2082499D01*
G01*
%TO.C,K-1-4*%
X114306509Y-43306889D02*
X109265838Y-43617123D01*
X114099573Y-39358308D02*
X105486393Y-39809706D01*
X103523712Y-45828673D02*
X107128764Y-45639740D01*
X114304102Y-43260952D02*
X114099573Y-39358308D01*
X103316775Y-41880092D02*
X103523241Y-45819686D01*
X109291013Y-43619810D02*
G75*
G03*
X107132502Y-45615512I-81405J-2077106D01*
G01*
X105486393Y-39809706D02*
G75*
G03*
X103324097Y-41809612I-81195J-2081101D01*
G01*
%TO.C,K-1-5*%
X135570357Y-43040828D02*
X130520357Y-43086828D01*
X124670357Y-41040828D02*
X124670357Y-44985828D01*
X124670357Y-44994828D02*
X128280357Y-44994828D01*
X135570357Y-39086828D02*
X126945357Y-39086828D01*
X135570357Y-42994828D02*
X135570357Y-39086828D01*
X126945357Y-39086828D02*
G75*
G03*
X124681357Y-40970828I-190000J-2074000D01*
G01*
X130545357Y-43090828D02*
G75*
G03*
X128285357Y-44970828I-190000J-2070000D01*
G01*
%TO.C,K-2-0*%
X28618753Y-90186172D02*
X29639794Y-93996749D01*
X29642124Y-94005443D02*
X33129116Y-93071106D01*
X39653077Y-89252463D02*
X38641612Y-85477625D01*
X39664983Y-89296896D02*
X34798963Y-90648365D01*
X38641612Y-85477625D02*
X30310502Y-87709940D01*
X30310502Y-87709939D02*
G75*
G03*
X28611261Y-90115710I353265J-2052506D01*
G01*
X34824146Y-90645758D02*
G75*
G03*
X33127734Y-93046630I352230J-2048642D01*
G01*
%TO.C,K-2-1*%
X58058044Y-81031308D02*
X49621521Y-82824546D01*
X58870563Y-84853908D02*
X58058044Y-81031308D01*
X48624578Y-89076441D02*
X52155691Y-88325880D01*
X47802495Y-85208845D02*
X48622707Y-89067638D01*
X58880127Y-84898903D02*
X53950046Y-85993852D01*
X49621521Y-82824546D02*
G75*
G03*
X47798701Y-85138088I245361J-2068181D01*
G01*
X53975331Y-85992567D02*
G75*
G03*
X52155591Y-88301365I244529J-2064269D01*
G01*
%TO.C,K-2-2*%
X74645134Y-62097034D02*
X66126322Y-63446281D01*
X75263676Y-66002354D02*
X70283046Y-66837782D01*
X64803546Y-69637432D02*
X68369101Y-69072704D01*
X64185004Y-65732113D02*
X64802138Y-69628543D01*
X75256480Y-65956920D02*
X74645134Y-62097034D01*
X66126322Y-63446282D02*
G75*
G03*
X64184918Y-65661254I136784J-2078188D01*
G01*
X70308364Y-66837822D02*
G75*
G03*
X68370285Y-69048217I136158J-2074237D01*
G01*
%TO.C,K-2-3*%
X84339722Y-64305504D02*
X87929946Y-63928156D01*
X83926416Y-60373164D02*
X84338781Y-64296553D01*
X94970954Y-61177100D02*
X94562456Y-57290508D01*
X94975762Y-61222848D02*
X89958235Y-61796465D01*
X94562456Y-57290508D02*
X85984705Y-58192066D01*
X85984705Y-58192066D02*
G75*
G03*
X83930039Y-60302398I27833J-2082499D01*
G01*
X89983516Y-61797829D02*
G75*
G03*
X87932410Y-63903765I27415J-2078521D01*
G01*
%TO.C,K-2-4*%
X104520713Y-64852566D02*
X108125765Y-64663633D01*
X115096574Y-58382201D02*
X106483394Y-58833599D01*
X115303510Y-62330782D02*
X110262839Y-62641016D01*
X104313776Y-60903985D02*
X104520242Y-64843579D01*
X115301103Y-62284845D02*
X115096574Y-58382201D01*
X110288014Y-62643703D02*
G75*
G03*
X108129503Y-64639405I-81405J-2077106D01*
G01*
X106483394Y-58833599D02*
G75*
G03*
X104321098Y-60833505I-81195J-2081101D01*
G01*
%TO.C,K-2-5*%
X135570357Y-58136828D02*
X126945357Y-58136828D01*
X124670357Y-64044828D02*
X128280357Y-64044828D01*
X135570357Y-62044828D02*
X135570357Y-58136828D01*
X124670357Y-60090828D02*
X124670357Y-64035828D01*
X135570357Y-62090828D02*
X130520357Y-62136828D01*
X130545357Y-62140828D02*
G75*
G03*
X128285357Y-64020828I-190000J-2070000D01*
G01*
X126945357Y-58136828D02*
G75*
G03*
X124681357Y-60020828I-190000J-2074000D01*
G01*
%TO.C,K-3-3*%
X104375045Y-85891659D02*
X107982846Y-86017646D01*
X104513038Y-81940068D02*
X104375359Y-85882664D01*
X115474591Y-80367662D02*
X106854845Y-80066654D01*
X115336599Y-84319254D02*
X110288069Y-84188983D01*
X115338204Y-84273282D02*
X115474591Y-80367662D01*
X110312915Y-84193854D02*
G75*
G03*
X107988680Y-85993835I-262127J-2062107D01*
G01*
X106854845Y-80066655D02*
G75*
G03*
X104526474Y-81870494I-262266J-2066105D01*
G01*
%TO.C,K-3-4*%
X135171611Y-86067349D02*
X130144467Y-85585228D01*
X135584917Y-82135010D02*
X127007165Y-81233452D01*
X124127074Y-86871285D02*
X127717298Y-87248633D01*
X135176420Y-86021601D02*
X135584917Y-82135010D01*
X124540379Y-82938945D02*
X124128015Y-86862334D01*
X127007165Y-81233452D02*
G75*
G03*
X124558636Y-82870478I-405751J-2042778D01*
G01*
X130168912Y-85591820D02*
G75*
G03*
X127724779Y-87225287I-405333J-2038800D01*
G01*
%TO.C,K-3-5*%
X154821975Y-89226809D02*
X149840708Y-88395187D01*
X144434866Y-85364429D02*
X143749824Y-89249495D01*
X155508579Y-85332879D02*
X147014613Y-83835164D01*
X143748261Y-89258358D02*
X147303417Y-89885228D01*
X154829962Y-89181508D02*
X155508579Y-85332879D01*
X147014613Y-83835164D02*
G75*
G03*
X144457855Y-85297402I-547260J-2009498D01*
G01*
X149864633Y-88403467D02*
G75*
G03*
X147312509Y-89862461I-546565J-2005559D01*
G01*
D12*
%TO.C,U1*%
X157440853Y-18789897D02*
X159980853Y-18789897D01*
X142200853Y-18789897D02*
X142200853Y-16249897D01*
X142200853Y-49269897D02*
X142200853Y-18789897D01*
X159980853Y-18789897D02*
X159980853Y-49269897D01*
X157440853Y-21329897D02*
X159980853Y-21329897D01*
X159980853Y-16249897D02*
X159980853Y-18789897D01*
X157440853Y-18789897D02*
X157440853Y-21329897D01*
X142200853Y-16249897D02*
X159980853Y-16249897D01*
X159980853Y-49269897D02*
X142200853Y-49269897D01*
D11*
X146159285Y-25269257D02*
X146159285Y-25469257D01*
X146159285Y-25469257D02*
X146259285Y-25469257D01*
X146259285Y-25469257D02*
X146259285Y-25269257D01*
X146259285Y-25269257D02*
X146159285Y-25269257D01*
G36*
X146259285Y-25469257D02*
G01*
X146159285Y-25469257D01*
X146159285Y-25269257D01*
X146259285Y-25269257D01*
X146259285Y-25469257D01*
G37*
X146259285Y-25469257D02*
X146159285Y-25469257D01*
X146159285Y-25269257D01*
X146259285Y-25269257D01*
X146259285Y-25469257D01*
X146559285Y-24669257D02*
X146559285Y-25469257D01*
X146559285Y-25469257D02*
X146659285Y-25469257D01*
X146659285Y-25469257D02*
X146659285Y-24669257D01*
X146659285Y-24669257D02*
X146559285Y-24669257D01*
G36*
X146659285Y-25469257D02*
G01*
X146559285Y-25469257D01*
X146559285Y-24669257D01*
X146659285Y-24669257D01*
X146659285Y-25469257D01*
G37*
X146659285Y-25469257D02*
X146559285Y-25469257D01*
X146559285Y-24669257D01*
X146659285Y-24669257D01*
X146659285Y-25469257D01*
X146159285Y-24669257D02*
X146159285Y-24769257D01*
X146159285Y-24769257D02*
X146659285Y-24769257D01*
X146659285Y-24769257D02*
X146659285Y-24669257D01*
X146659285Y-24669257D02*
X146159285Y-24669257D01*
G36*
X146659285Y-24769257D02*
G01*
X146159285Y-24769257D01*
X146159285Y-24669257D01*
X146659285Y-24669257D01*
X146659285Y-24769257D01*
G37*
X146659285Y-24769257D02*
X146159285Y-24769257D01*
X146159285Y-24669257D01*
X146659285Y-24669257D01*
X146659285Y-24769257D01*
X146359285Y-25069257D02*
X146359285Y-25169257D01*
X146359285Y-25169257D02*
X146459285Y-25169257D01*
X146459285Y-25169257D02*
X146459285Y-25069257D01*
X146459285Y-25069257D02*
X146359285Y-25069257D01*
G36*
X146459285Y-25169257D02*
G01*
X146359285Y-25169257D01*
X146359285Y-25069257D01*
X146459285Y-25069257D01*
X146459285Y-25169257D01*
G37*
X146459285Y-25169257D02*
X146359285Y-25169257D01*
X146359285Y-25069257D01*
X146459285Y-25069257D01*
X146459285Y-25169257D01*
X146159285Y-24669257D02*
X146159285Y-24969257D01*
X146159285Y-24969257D02*
X146259285Y-24969257D01*
X146259285Y-24969257D02*
X146259285Y-24669257D01*
X146259285Y-24669257D02*
X146159285Y-24669257D01*
G36*
X146259285Y-24969257D02*
G01*
X146159285Y-24969257D01*
X146159285Y-24669257D01*
X146259285Y-24669257D01*
X146259285Y-24969257D01*
G37*
X146259285Y-24969257D02*
X146159285Y-24969257D01*
X146159285Y-24669257D01*
X146259285Y-24669257D01*
X146259285Y-24969257D01*
D13*
%TO.C,J2*%
X159145193Y-66673507D02*
X159145193Y-58774107D01*
X159145193Y-78972187D02*
X159145193Y-71072787D01*
X157458633Y-63158147D02*
X157458633Y-64428147D01*
X157646593Y-66673507D02*
X157646593Y-71072787D01*
X150148513Y-58774107D02*
X150148513Y-78972187D01*
X159145193Y-66673507D02*
X157646593Y-66673507D01*
X150148513Y-78972187D02*
X159145193Y-78972187D01*
X157420533Y-63158147D02*
X157420533Y-64428147D01*
X159145193Y-71072787D02*
X159145193Y-66673507D01*
X159145193Y-58774107D02*
X150247573Y-58774107D01*
X157646593Y-71072787D02*
X159145193Y-71072787D01*
%TD*%
D14*
%TO.C,U1*%
X158710853Y-20059897D03*
D15*
X158710853Y-22599897D03*
X158710853Y-25139897D03*
X158710853Y-27679897D03*
X158710853Y-30219897D03*
X158710853Y-32759897D03*
X158710853Y-35299897D03*
X158710853Y-37839897D03*
X158710853Y-40379897D03*
X158710853Y-42919897D03*
X158710853Y-45459897D03*
X158710853Y-47999897D03*
X143470853Y-47999897D03*
X143470853Y-45459897D03*
X143470853Y-42919897D03*
X143470853Y-40379897D03*
X143470853Y-37839897D03*
X143470853Y-35299897D03*
X143470853Y-32759897D03*
X143470853Y-30219897D03*
X143470853Y-27679897D03*
X143470853Y-25139897D03*
X143470853Y-22599897D03*
X143470853Y-20059897D03*
%TD*%
M02*
