%TF.GenerationSoftware,KiCad,Pcbnew,(6.0.0-0)*%
%TF.CreationDate,2022-02-26T00:55:26+07:00*%
%TF.ProjectId,Shrimp42-mirrored-rev2,53687269-6d70-4343-922d-6d6972726f72,rev?*%
%TF.SameCoordinates,Original*%
%TF.FileFunction,Legend,Top*%
%TF.FilePolarity,Positive*%
%FSLAX46Y46*%
G04 Gerber Fmt 4.6, Leading zero omitted, Abs format (unit mm)*
G04 Created by KiCad (PCBNEW (6.0.0-0)) date 2022-02-26 00:55:26*
%MOMM*%
%LPD*%
G01*
G04 APERTURE LIST*
G04 Aperture macros list*
%AMRotRect*
0 Rectangle, with rotation*
0 The origin of the aperture is its center*
0 $1 length*
0 $2 width*
0 $3 Rotation angle, in degrees counterclockwise*
0 Add horizontal line*
21,1,$1,$2,0,0,$3*%
G04 Aperture macros list end*
%ADD10C,0.150000*%
%ADD11C,0.200000*%
%ADD12C,0.203200*%
%ADD13C,0.381000*%
%ADD14RotRect,1.600000X1.600000X285.000000*%
%ADD15C,1.600000*%
%ADD16RotRect,1.600000X1.600000X282.000000*%
%ADD17RotRect,1.600000X1.600000X279.000000*%
%ADD18RotRect,1.600000X1.600000X276.000000*%
%ADD19RotRect,1.600000X1.600000X273.000000*%
%ADD20R,1.600000X1.600000*%
%ADD21RotRect,1.600000X1.600000X268.000000*%
%ADD22RotRect,1.600000X1.600000X264.000000*%
%ADD23RotRect,1.600000X1.600000X260.000000*%
%ADD24R,1.752600X1.752600*%
%ADD25C,1.752600*%
G04 APERTURE END LIST*
D10*
X84698781Y-93719541D02*
X84373809Y-93237606D01*
X84127440Y-93709568D02*
X84144892Y-92709721D01*
X84525786Y-92716369D01*
X84620179Y-92765643D01*
X84666960Y-92814086D01*
X84712909Y-92910141D01*
X84710416Y-93052976D01*
X84661142Y-93147369D01*
X84612699Y-93194149D01*
X84516645Y-93240099D01*
X84135750Y-93233450D01*
X85509013Y-93686057D02*
X85412958Y-93732007D01*
X85222511Y-93728683D01*
X85128118Y-93679409D01*
X85082169Y-93583354D01*
X85088817Y-93202460D01*
X85138091Y-93108067D01*
X85234146Y-93062118D01*
X85424593Y-93065442D01*
X85518986Y-93114716D01*
X85564935Y-93210771D01*
X85563273Y-93305994D01*
X85085493Y-93392907D01*
X85900711Y-93073753D02*
X86127135Y-93744473D01*
X86376829Y-93082063D01*
X87476056Y-92863119D02*
X87524498Y-92816338D01*
X87620553Y-92770389D01*
X87858612Y-92774544D01*
X87953005Y-92823818D01*
X87999785Y-92872261D01*
X88045735Y-92968315D01*
X88044073Y-93063539D01*
X87993968Y-93205543D01*
X87412654Y-93766912D01*
X88031607Y-93777716D01*
D11*
X68176370Y-93270521D02*
X68459548Y-93418343D01*
X68935666Y-93426653D01*
X69128606Y-93287142D01*
X69226323Y-93145969D01*
X69326533Y-92861960D01*
X69331520Y-92576289D01*
X69241282Y-92288957D01*
X69148552Y-92144459D01*
X68960598Y-91998299D01*
X68582197Y-91848815D01*
X68394243Y-91702656D01*
X68301512Y-91558158D01*
X68211275Y-91270825D01*
X68216262Y-90985155D01*
X68316472Y-90701146D01*
X68414188Y-90559973D01*
X68607129Y-90420462D01*
X69083247Y-90428772D01*
X69366424Y-90576594D01*
X70173573Y-93448261D02*
X70225930Y-90448718D01*
X71030585Y-93463220D02*
X71058010Y-91892031D01*
X70967773Y-91604698D01*
X70779819Y-91458538D01*
X70494148Y-91453552D01*
X70301208Y-91593063D01*
X70203491Y-91734236D01*
X71982821Y-93479842D02*
X72017726Y-91480146D01*
X72007753Y-92051488D02*
X72107963Y-91767479D01*
X72205680Y-91626306D01*
X72398620Y-91486795D01*
X72589067Y-91490119D01*
X73220728Y-93501449D02*
X73255632Y-91501754D01*
X73273085Y-90501906D02*
X73175368Y-90643079D01*
X73268098Y-90787577D01*
X73365815Y-90646404D01*
X73273085Y-90501906D01*
X73268098Y-90787577D01*
X74172963Y-93518071D02*
X74207868Y-91518375D01*
X74202882Y-91804046D02*
X74300599Y-91662873D01*
X74493539Y-91523362D01*
X74779210Y-91528348D01*
X74967164Y-91674508D01*
X75057401Y-91961841D01*
X75029976Y-93533030D01*
X75057401Y-91961841D02*
X75157611Y-91677832D01*
X75350551Y-91538321D01*
X75636222Y-91543307D01*
X75824176Y-91689467D01*
X75914413Y-91976800D01*
X75886988Y-93547989D01*
X76874129Y-91564915D02*
X76821772Y-94564458D01*
X76871636Y-91707750D02*
X77064576Y-91568239D01*
X77445470Y-91574888D01*
X77633424Y-91721047D01*
X77726155Y-91865545D01*
X77816392Y-92152878D01*
X77801433Y-93009890D01*
X77701223Y-93293899D01*
X77603506Y-93435072D01*
X77410566Y-93574583D01*
X77029671Y-93567935D01*
X76841717Y-93421775D01*
X81063967Y-91638049D02*
X81029062Y-93637744D01*
X80607794Y-90487055D02*
X80094278Y-92621275D01*
X81332185Y-92642883D01*
X82028669Y-90940493D02*
X82126385Y-90799320D01*
X82319326Y-90659809D01*
X82795444Y-90668120D01*
X82983398Y-90814279D01*
X83076128Y-90958777D01*
X83166365Y-91246110D01*
X83161379Y-91531780D01*
X83058676Y-91958624D01*
X81886074Y-93652703D01*
X83123981Y-93674311D01*
D10*
X68549928Y-95290231D02*
X68549928Y-96099755D01*
X68502309Y-96194993D01*
X68454690Y-96242612D01*
X68359451Y-96290231D01*
X68216594Y-96290231D01*
X68121356Y-96242612D01*
X68549928Y-95909278D02*
X68454690Y-95956897D01*
X68264213Y-95956897D01*
X68168975Y-95909278D01*
X68121356Y-95861659D01*
X68073737Y-95766421D01*
X68073737Y-95480707D01*
X68121356Y-95385469D01*
X68168975Y-95337850D01*
X68264213Y-95290231D01*
X68454690Y-95290231D01*
X68549928Y-95337850D01*
X69026118Y-95956897D02*
X69026118Y-95290231D01*
X69026118Y-94956897D02*
X68978499Y-95004517D01*
X69026118Y-95052136D01*
X69073737Y-95004517D01*
X69026118Y-94956897D01*
X69026118Y-95052136D01*
X69359451Y-95290231D02*
X69740404Y-95290231D01*
X69502309Y-94956897D02*
X69502309Y-95814040D01*
X69549928Y-95909278D01*
X69645166Y-95956897D01*
X69740404Y-95956897D01*
X70073737Y-95956897D02*
X70073737Y-94956897D01*
X70502309Y-95956897D02*
X70502309Y-95433088D01*
X70454690Y-95337850D01*
X70359451Y-95290231D01*
X70216594Y-95290231D01*
X70121356Y-95337850D01*
X70073737Y-95385469D01*
X71407071Y-95290231D02*
X71407071Y-95956897D01*
X70978499Y-95290231D02*
X70978499Y-95814040D01*
X71026118Y-95909278D01*
X71121356Y-95956897D01*
X71264213Y-95956897D01*
X71359451Y-95909278D01*
X71407071Y-95861659D01*
X71883261Y-95956897D02*
X71883261Y-94956897D01*
X71883261Y-95337850D02*
X71978499Y-95290231D01*
X72168975Y-95290231D01*
X72264213Y-95337850D01*
X72311832Y-95385469D01*
X72359451Y-95480707D01*
X72359451Y-95766421D01*
X72311832Y-95861659D01*
X72264213Y-95909278D01*
X72168975Y-95956897D01*
X71978499Y-95956897D01*
X71883261Y-95909278D01*
X72788023Y-95861659D02*
X72835642Y-95909278D01*
X72788023Y-95956897D01*
X72740404Y-95909278D01*
X72788023Y-95861659D01*
X72788023Y-95956897D01*
X73692785Y-95909278D02*
X73597547Y-95956897D01*
X73407071Y-95956897D01*
X73311832Y-95909278D01*
X73264213Y-95861659D01*
X73216594Y-95766421D01*
X73216594Y-95480707D01*
X73264213Y-95385469D01*
X73311832Y-95337850D01*
X73407071Y-95290231D01*
X73597547Y-95290231D01*
X73692785Y-95337850D01*
X74264213Y-95956897D02*
X74168975Y-95909278D01*
X74121356Y-95861659D01*
X74073737Y-95766421D01*
X74073737Y-95480707D01*
X74121356Y-95385469D01*
X74168975Y-95337850D01*
X74264213Y-95290231D01*
X74407071Y-95290231D01*
X74502309Y-95337850D01*
X74549928Y-95385469D01*
X74597547Y-95480707D01*
X74597547Y-95766421D01*
X74549928Y-95861659D01*
X74502309Y-95909278D01*
X74407071Y-95956897D01*
X74264213Y-95956897D01*
X75026118Y-95956897D02*
X75026118Y-95290231D01*
X75026118Y-95385469D02*
X75073737Y-95337850D01*
X75168975Y-95290231D01*
X75311832Y-95290231D01*
X75407071Y-95337850D01*
X75454690Y-95433088D01*
X75454690Y-95956897D01*
X75454690Y-95433088D02*
X75502309Y-95337850D01*
X75597547Y-95290231D01*
X75740404Y-95290231D01*
X75835642Y-95337850D01*
X75883261Y-95433088D01*
X75883261Y-95956897D01*
X77073737Y-94909278D02*
X76216594Y-96194993D01*
X77930880Y-95004517D02*
X77835642Y-94956897D01*
X77692785Y-94956897D01*
X77549928Y-95004517D01*
X77454690Y-95099755D01*
X77407071Y-95194993D01*
X77359451Y-95385469D01*
X77359451Y-95528326D01*
X77407071Y-95718802D01*
X77454690Y-95814040D01*
X77549928Y-95909278D01*
X77692785Y-95956897D01*
X77788023Y-95956897D01*
X77930880Y-95909278D01*
X77978499Y-95861659D01*
X77978499Y-95528326D01*
X77788023Y-95528326D01*
X78407071Y-95956897D02*
X78407071Y-95290231D01*
X78407071Y-95480707D02*
X78454690Y-95385469D01*
X78502309Y-95337850D01*
X78597547Y-95290231D01*
X78692785Y-95290231D01*
X79407071Y-95909278D02*
X79311832Y-95956897D01*
X79121356Y-95956897D01*
X79026118Y-95909278D01*
X78978499Y-95814040D01*
X78978499Y-95433088D01*
X79026118Y-95337850D01*
X79121356Y-95290231D01*
X79311832Y-95290231D01*
X79407071Y-95337850D01*
X79454690Y-95433088D01*
X79454690Y-95528326D01*
X78978499Y-95623564D01*
X80264213Y-95909278D02*
X80168975Y-95956897D01*
X79978499Y-95956897D01*
X79883261Y-95909278D01*
X79835642Y-95814040D01*
X79835642Y-95433088D01*
X79883261Y-95337850D01*
X79978499Y-95290231D01*
X80168975Y-95290231D01*
X80264213Y-95337850D01*
X80311832Y-95433088D01*
X80311832Y-95528326D01*
X79835642Y-95623564D01*
X80740404Y-95290231D02*
X80740404Y-95956897D01*
X80740404Y-95385469D02*
X80788023Y-95337850D01*
X80883261Y-95290231D01*
X81026118Y-95290231D01*
X81121356Y-95337850D01*
X81168975Y-95433088D01*
X81168975Y-95956897D01*
X81645166Y-95956897D02*
X81645166Y-94956897D01*
X81978499Y-95671183D01*
X82311832Y-94956897D01*
X82311832Y-95956897D01*
X83216594Y-95956897D02*
X83216594Y-95433088D01*
X83168975Y-95337850D01*
X83073737Y-95290231D01*
X82883261Y-95290231D01*
X82788023Y-95337850D01*
X83216594Y-95909278D02*
X83121356Y-95956897D01*
X82883261Y-95956897D01*
X82788023Y-95909278D01*
X82740404Y-95814040D01*
X82740404Y-95718802D01*
X82788023Y-95623564D01*
X82883261Y-95575945D01*
X83121356Y-95575945D01*
X83216594Y-95528326D01*
X83645166Y-95909278D02*
X83740404Y-95956897D01*
X83930880Y-95956897D01*
X84026118Y-95909278D01*
X84073737Y-95814040D01*
X84073737Y-95766421D01*
X84026118Y-95671183D01*
X83930880Y-95623564D01*
X83788023Y-95623564D01*
X83692785Y-95575945D01*
X83645166Y-95480707D01*
X83645166Y-95433088D01*
X83692785Y-95337850D01*
X83788023Y-95290231D01*
X83930880Y-95290231D01*
X84026118Y-95337850D01*
X84502309Y-95956897D02*
X84502309Y-94956897D01*
X84930880Y-95956897D02*
X84930880Y-95433088D01*
X84883261Y-95337850D01*
X84788023Y-95290231D01*
X84645166Y-95290231D01*
X84549928Y-95337850D01*
X84502309Y-95385469D01*
X85788023Y-95909278D02*
X85692785Y-95956897D01*
X85502309Y-95956897D01*
X85407071Y-95909278D01*
X85359451Y-95814040D01*
X85359451Y-95433088D01*
X85407071Y-95337850D01*
X85502309Y-95290231D01*
X85692785Y-95290231D01*
X85788023Y-95337850D01*
X85835642Y-95433088D01*
X85835642Y-95528326D01*
X85359451Y-95623564D01*
X86692785Y-95956897D02*
X86692785Y-94956897D01*
X86692785Y-95909278D02*
X86597547Y-95956897D01*
X86407071Y-95956897D01*
X86311832Y-95909278D01*
X86264213Y-95861659D01*
X86216594Y-95766421D01*
X86216594Y-95480707D01*
X86264213Y-95385469D01*
X86311832Y-95337850D01*
X86407071Y-95290231D01*
X86597547Y-95290231D01*
X86692785Y-95337850D01*
X87168975Y-95956897D02*
X87168975Y-94956897D01*
X87549928Y-94956897D01*
X87645166Y-95004517D01*
X87692785Y-95052136D01*
X87740404Y-95147374D01*
X87740404Y-95290231D01*
X87692785Y-95385469D01*
X87645166Y-95433088D01*
X87549928Y-95480707D01*
X87168975Y-95480707D01*
X88311832Y-95956897D02*
X88216594Y-95909278D01*
X88168975Y-95861659D01*
X88121356Y-95766421D01*
X88121356Y-95480707D01*
X88168975Y-95385469D01*
X88216594Y-95337850D01*
X88311832Y-95290231D01*
X88454690Y-95290231D01*
X88549928Y-95337850D01*
X88597547Y-95385469D01*
X88645166Y-95480707D01*
X88645166Y-95766421D01*
X88597547Y-95861659D01*
X88549928Y-95909278D01*
X88454690Y-95956897D01*
X88311832Y-95956897D01*
X88930880Y-95290231D02*
X89311832Y-95290231D01*
X89073737Y-94956897D02*
X89073737Y-95814040D01*
X89121356Y-95909278D01*
X89216594Y-95956897D01*
X89311832Y-95956897D01*
X90073737Y-95956897D02*
X90073737Y-95433088D01*
X90026118Y-95337850D01*
X89930880Y-95290231D01*
X89740404Y-95290231D01*
X89645166Y-95337850D01*
X90073737Y-95909278D02*
X89978499Y-95956897D01*
X89740404Y-95956897D01*
X89645166Y-95909278D01*
X89597547Y-95814040D01*
X89597547Y-95718802D01*
X89645166Y-95623564D01*
X89740404Y-95575945D01*
X89978499Y-95575945D01*
X90073737Y-95528326D01*
X90407071Y-95290231D02*
X90788023Y-95290231D01*
X90549928Y-94956897D02*
X90549928Y-95814040D01*
X90597547Y-95909278D01*
X90692785Y-95956897D01*
X90788023Y-95956897D01*
X91264213Y-95956897D02*
X91168975Y-95909278D01*
X91121356Y-95861659D01*
X91073737Y-95766421D01*
X91073737Y-95480707D01*
X91121356Y-95385469D01*
X91168975Y-95337850D01*
X91264213Y-95290231D01*
X91407071Y-95290231D01*
X91502309Y-95337850D01*
X91549928Y-95385469D01*
X91597547Y-95480707D01*
X91597547Y-95766421D01*
X91549928Y-95861659D01*
X91502309Y-95909278D01*
X91407071Y-95956897D01*
X91264213Y-95956897D01*
X92740404Y-94909278D02*
X91883261Y-96194993D01*
X93026118Y-95909278D02*
X93168975Y-95956897D01*
X93407071Y-95956897D01*
X93502309Y-95909278D01*
X93549928Y-95861659D01*
X93597547Y-95766421D01*
X93597547Y-95671183D01*
X93549928Y-95575945D01*
X93502309Y-95528326D01*
X93407071Y-95480707D01*
X93216594Y-95433088D01*
X93121356Y-95385469D01*
X93073737Y-95337850D01*
X93026118Y-95242612D01*
X93026118Y-95147374D01*
X93073737Y-95052136D01*
X93121356Y-95004517D01*
X93216594Y-94956897D01*
X93454690Y-94956897D01*
X93597547Y-95004517D01*
X94026118Y-95956897D02*
X94026118Y-94956897D01*
X94454690Y-95956897D02*
X94454690Y-95433088D01*
X94407071Y-95337850D01*
X94311832Y-95290231D01*
X94168975Y-95290231D01*
X94073737Y-95337850D01*
X94026118Y-95385469D01*
X94930880Y-95956897D02*
X94930880Y-95290231D01*
X94930880Y-95480707D02*
X94978499Y-95385469D01*
X95026118Y-95337850D01*
X95121356Y-95290231D01*
X95216594Y-95290231D01*
X95549928Y-95956897D02*
X95549928Y-95290231D01*
X95549928Y-94956897D02*
X95502309Y-95004517D01*
X95549928Y-95052136D01*
X95597547Y-95004517D01*
X95549928Y-94956897D01*
X95549928Y-95052136D01*
X96026118Y-95956897D02*
X96026118Y-95290231D01*
X96026118Y-95385469D02*
X96073737Y-95337850D01*
X96168975Y-95290231D01*
X96311832Y-95290231D01*
X96407071Y-95337850D01*
X96454690Y-95433088D01*
X96454690Y-95956897D01*
X96454690Y-95433088D02*
X96502309Y-95337850D01*
X96597547Y-95290231D01*
X96740404Y-95290231D01*
X96835642Y-95337850D01*
X96883261Y-95433088D01*
X96883261Y-95956897D01*
X97359451Y-95290231D02*
X97359451Y-96290231D01*
X97359451Y-95337850D02*
X97454690Y-95290231D01*
X97645166Y-95290231D01*
X97740404Y-95337850D01*
X97788023Y-95385469D01*
X97835642Y-95480707D01*
X97835642Y-95766421D01*
X97788023Y-95861659D01*
X97740404Y-95909278D01*
X97645166Y-95956897D01*
X97454690Y-95956897D01*
X97359451Y-95909278D01*
X98692785Y-95290231D02*
X98692785Y-95956897D01*
X98454690Y-94909278D02*
X98216594Y-95623564D01*
X98835642Y-95623564D01*
X99168975Y-95052136D02*
X99216594Y-95004517D01*
X99311832Y-94956897D01*
X99549928Y-94956897D01*
X99645166Y-95004517D01*
X99692785Y-95052136D01*
X99740404Y-95147374D01*
X99740404Y-95242612D01*
X99692785Y-95385469D01*
X99121356Y-95956897D01*
X99740404Y-95956897D01*
%TO.C,U1*%
X144504206Y-22668905D02*
X144428015Y-22630809D01*
X144313730Y-22630809D01*
X144199444Y-22668905D01*
X144123253Y-22745095D01*
X144085158Y-22821285D01*
X144047063Y-22973666D01*
X144047063Y-23087952D01*
X144085158Y-23240333D01*
X144123253Y-23316524D01*
X144199444Y-23392714D01*
X144313730Y-23430809D01*
X144389920Y-23430809D01*
X144504206Y-23392714D01*
X144542301Y-23354619D01*
X144542301Y-23087952D01*
X144389920Y-23087952D01*
X144885158Y-23430809D02*
X144885158Y-22630809D01*
X145342301Y-23430809D01*
X145342301Y-22630809D01*
X145723253Y-23430809D02*
X145723253Y-22630809D01*
X145913730Y-22630809D01*
X146028015Y-22668905D01*
X146104206Y-22745095D01*
X146142301Y-22821285D01*
X146180396Y-22973666D01*
X146180396Y-23087952D01*
X146142301Y-23240333D01*
X146104206Y-23316524D01*
X146028015Y-23392714D01*
X145913730Y-23430809D01*
X145723253Y-23430809D01*
X155711920Y-45871762D02*
X155826206Y-45909857D01*
X155864301Y-45947952D01*
X155902396Y-46024143D01*
X155902396Y-46138428D01*
X155864301Y-46214619D01*
X155826206Y-46252714D01*
X155750015Y-46290809D01*
X155445253Y-46290809D01*
X155445253Y-45490809D01*
X155711920Y-45490809D01*
X155788110Y-45528905D01*
X155826206Y-45567000D01*
X155864301Y-45643190D01*
X155864301Y-45719381D01*
X155826206Y-45795571D01*
X155788110Y-45833666D01*
X155711920Y-45871762D01*
X155445253Y-45871762D01*
X156588110Y-45757476D02*
X156588110Y-46290809D01*
X156397634Y-45452714D02*
X156207158Y-46024143D01*
X156702396Y-46024143D01*
X144789920Y-40791762D02*
X144904206Y-40829857D01*
X144942301Y-40867952D01*
X144980396Y-40944143D01*
X144980396Y-41058428D01*
X144942301Y-41134619D01*
X144904206Y-41172714D01*
X144828015Y-41210809D01*
X144523253Y-41210809D01*
X144523253Y-40410809D01*
X144789920Y-40410809D01*
X144866110Y-40448905D01*
X144904206Y-40487000D01*
X144942301Y-40563190D01*
X144942301Y-40639381D01*
X144904206Y-40715571D01*
X144866110Y-40753666D01*
X144789920Y-40791762D01*
X144523253Y-40791762D01*
X145742301Y-41210809D02*
X145285158Y-41210809D01*
X145513730Y-41210809D02*
X145513730Y-40410809D01*
X145437539Y-40525095D01*
X145361349Y-40601285D01*
X145285158Y-40639381D01*
X155426206Y-25208905D02*
X155350015Y-25170809D01*
X155235730Y-25170809D01*
X155121444Y-25208905D01*
X155045253Y-25285095D01*
X155007158Y-25361285D01*
X154969063Y-25513666D01*
X154969063Y-25627952D01*
X155007158Y-25780333D01*
X155045253Y-25856524D01*
X155121444Y-25932714D01*
X155235730Y-25970809D01*
X155311920Y-25970809D01*
X155426206Y-25932714D01*
X155464301Y-25894619D01*
X155464301Y-25627952D01*
X155311920Y-25627952D01*
X155807158Y-25970809D02*
X155807158Y-25170809D01*
X156264301Y-25970809D01*
X156264301Y-25170809D01*
X156645253Y-25970809D02*
X156645253Y-25170809D01*
X156835730Y-25170809D01*
X156950015Y-25208905D01*
X157026206Y-25285095D01*
X157064301Y-25361285D01*
X157102396Y-25513666D01*
X157102396Y-25627952D01*
X157064301Y-25780333D01*
X157026206Y-25856524D01*
X156950015Y-25932714D01*
X156835730Y-25970809D01*
X156645253Y-25970809D01*
X155445253Y-31050809D02*
X155445253Y-30250809D01*
X155635730Y-30250809D01*
X155750015Y-30288905D01*
X155826206Y-30365095D01*
X155864301Y-30441285D01*
X155902396Y-30593666D01*
X155902396Y-30707952D01*
X155864301Y-30860333D01*
X155826206Y-30936524D01*
X155750015Y-31012714D01*
X155635730Y-31050809D01*
X155445253Y-31050809D01*
X156664301Y-31050809D02*
X156207158Y-31050809D01*
X156435730Y-31050809D02*
X156435730Y-30250809D01*
X156359539Y-30365095D01*
X156283349Y-30441285D01*
X156207158Y-30479381D01*
X151956125Y-20090809D02*
X152413268Y-20090809D01*
X152184697Y-20890809D02*
X152184697Y-20090809D01*
X152603744Y-20090809D02*
X153137078Y-20890809D01*
X153137078Y-20090809D02*
X152603744Y-20890809D01*
X153594221Y-20090809D02*
X153670411Y-20090809D01*
X153746602Y-20128905D01*
X153784697Y-20167000D01*
X153822792Y-20243190D01*
X153860887Y-20395571D01*
X153860887Y-20586047D01*
X153822792Y-20738428D01*
X153784697Y-20814619D01*
X153746602Y-20852714D01*
X153670411Y-20890809D01*
X153594221Y-20890809D01*
X153518030Y-20852714D01*
X153479935Y-20814619D01*
X153441840Y-20738428D01*
X153403744Y-20586047D01*
X153403744Y-20395571D01*
X153441840Y-20243190D01*
X153479935Y-20167000D01*
X153518030Y-20128905D01*
X153594221Y-20090809D01*
X154775173Y-20052714D02*
X154089459Y-21081285D01*
X155041840Y-20890809D02*
X155041840Y-20090809D01*
X155232316Y-20090809D01*
X155346602Y-20128905D01*
X155422792Y-20205095D01*
X155460887Y-20281285D01*
X155498982Y-20433666D01*
X155498982Y-20547952D01*
X155460887Y-20700333D01*
X155422792Y-20776524D01*
X155346602Y-20852714D01*
X155232316Y-20890809D01*
X155041840Y-20890809D01*
X155765649Y-20090809D02*
X156260887Y-20090809D01*
X155994221Y-20395571D01*
X156108506Y-20395571D01*
X156184697Y-20433666D01*
X156222792Y-20471762D01*
X156260887Y-20547952D01*
X156260887Y-20738428D01*
X156222792Y-20814619D01*
X156184697Y-20852714D01*
X156108506Y-20890809D01*
X155879935Y-20890809D01*
X155803744Y-20852714D01*
X155765649Y-20814619D01*
X145001396Y-25912714D02*
X145115682Y-25950809D01*
X145306158Y-25950809D01*
X145382349Y-25912714D01*
X145420444Y-25874619D01*
X145458539Y-25798428D01*
X145458539Y-25722238D01*
X145420444Y-25646047D01*
X145382349Y-25607952D01*
X145306158Y-25569857D01*
X145153777Y-25531762D01*
X145077587Y-25493666D01*
X145039491Y-25455571D01*
X145001396Y-25379381D01*
X145001396Y-25303190D01*
X145039491Y-25227000D01*
X145077587Y-25188905D01*
X145153777Y-25150809D01*
X145344253Y-25150809D01*
X145458539Y-25188905D01*
X145687110Y-25150809D02*
X146144253Y-25150809D01*
X145915682Y-25950809D02*
X145915682Y-25150809D01*
X144847063Y-38251762D02*
X144580396Y-38251762D01*
X144580396Y-38670809D02*
X144580396Y-37870809D01*
X144961349Y-37870809D01*
X145189920Y-37870809D02*
X145723253Y-37870809D01*
X145380396Y-38670809D01*
X155445253Y-41210809D02*
X155445253Y-40410809D01*
X155635730Y-40410809D01*
X155750015Y-40448905D01*
X155826206Y-40525095D01*
X155864301Y-40601285D01*
X155902396Y-40753666D01*
X155902396Y-40867952D01*
X155864301Y-41020333D01*
X155826206Y-41096524D01*
X155750015Y-41172714D01*
X155635730Y-41210809D01*
X155445253Y-41210809D01*
X156169063Y-40410809D02*
X156702396Y-40410809D01*
X156359539Y-41210809D01*
X155445253Y-23430809D02*
X155445253Y-22630809D01*
X155635730Y-22630809D01*
X155750015Y-22668905D01*
X155826206Y-22745095D01*
X155864301Y-22821285D01*
X155902396Y-22973666D01*
X155902396Y-23087952D01*
X155864301Y-23240333D01*
X155826206Y-23316524D01*
X155750015Y-23392714D01*
X155635730Y-23430809D01*
X155445253Y-23430809D01*
X156207158Y-22707000D02*
X156245253Y-22668905D01*
X156321444Y-22630809D01*
X156511920Y-22630809D01*
X156588110Y-22668905D01*
X156626206Y-22707000D01*
X156664301Y-22783190D01*
X156664301Y-22859381D01*
X156626206Y-22973666D01*
X156169063Y-23430809D01*
X156664301Y-23430809D01*
X144847063Y-30631762D02*
X144580396Y-30631762D01*
X144580396Y-31050809D02*
X144580396Y-30250809D01*
X144961349Y-30250809D01*
X145608968Y-30517476D02*
X145608968Y-31050809D01*
X145418491Y-30212714D02*
X145228015Y-30784143D01*
X145723253Y-30784143D01*
X155426206Y-27748905D02*
X155350015Y-27710809D01*
X155235730Y-27710809D01*
X155121444Y-27748905D01*
X155045253Y-27825095D01*
X155007158Y-27901285D01*
X154969063Y-28053666D01*
X154969063Y-28167952D01*
X155007158Y-28320333D01*
X155045253Y-28396524D01*
X155121444Y-28472714D01*
X155235730Y-28510809D01*
X155311920Y-28510809D01*
X155426206Y-28472714D01*
X155464301Y-28434619D01*
X155464301Y-28167952D01*
X155311920Y-28167952D01*
X155807158Y-28510809D02*
X155807158Y-27710809D01*
X156264301Y-28510809D01*
X156264301Y-27710809D01*
X156645253Y-28510809D02*
X156645253Y-27710809D01*
X156835730Y-27710809D01*
X156950015Y-27748905D01*
X157026206Y-27825095D01*
X157064301Y-27901285D01*
X157102396Y-28053666D01*
X157102396Y-28167952D01*
X157064301Y-28320333D01*
X157026206Y-28396524D01*
X156950015Y-28472714D01*
X156835730Y-28510809D01*
X156645253Y-28510809D01*
X155445253Y-33590809D02*
X155445253Y-32790809D01*
X155635730Y-32790809D01*
X155750015Y-32828905D01*
X155826206Y-32905095D01*
X155864301Y-32981285D01*
X155902396Y-33133666D01*
X155902396Y-33247952D01*
X155864301Y-33400333D01*
X155826206Y-33476524D01*
X155750015Y-33552714D01*
X155635730Y-33590809D01*
X155445253Y-33590809D01*
X156397634Y-32790809D02*
X156473825Y-32790809D01*
X156550015Y-32828905D01*
X156588110Y-32867000D01*
X156626206Y-32943190D01*
X156664301Y-33095571D01*
X156664301Y-33286047D01*
X156626206Y-33438428D01*
X156588110Y-33514619D01*
X156550015Y-33552714D01*
X156473825Y-33590809D01*
X156397634Y-33590809D01*
X156321444Y-33552714D01*
X156283349Y-33514619D01*
X156245253Y-33438428D01*
X156207158Y-33286047D01*
X156207158Y-33095571D01*
X156245253Y-32943190D01*
X156283349Y-32867000D01*
X156321444Y-32828905D01*
X156397634Y-32790809D01*
X155483349Y-43331762D02*
X155750015Y-43331762D01*
X155864301Y-43750809D02*
X155483349Y-43750809D01*
X155483349Y-42950809D01*
X155864301Y-42950809D01*
X156550015Y-42950809D02*
X156397634Y-42950809D01*
X156321444Y-42988905D01*
X156283349Y-43027000D01*
X156207158Y-43141285D01*
X156169063Y-43293666D01*
X156169063Y-43598428D01*
X156207158Y-43674619D01*
X156245253Y-43712714D01*
X156321444Y-43750809D01*
X156473825Y-43750809D01*
X156550015Y-43712714D01*
X156588110Y-43674619D01*
X156626206Y-43598428D01*
X156626206Y-43407952D01*
X156588110Y-43331762D01*
X156550015Y-43293666D01*
X156473825Y-43255571D01*
X156321444Y-43255571D01*
X156245253Y-43293666D01*
X156207158Y-43331762D01*
X156169063Y-43407952D01*
X155711920Y-48411762D02*
X155826206Y-48449857D01*
X155864301Y-48487952D01*
X155902396Y-48564143D01*
X155902396Y-48678428D01*
X155864301Y-48754619D01*
X155826206Y-48792714D01*
X155750015Y-48830809D01*
X155445253Y-48830809D01*
X155445253Y-48030809D01*
X155711920Y-48030809D01*
X155788110Y-48068905D01*
X155826206Y-48107000D01*
X155864301Y-48183190D01*
X155864301Y-48259381D01*
X155826206Y-48335571D01*
X155788110Y-48373666D01*
X155711920Y-48411762D01*
X155445253Y-48411762D01*
X156626206Y-48030809D02*
X156245253Y-48030809D01*
X156207158Y-48411762D01*
X156245253Y-48373666D01*
X156321444Y-48335571D01*
X156511920Y-48335571D01*
X156588110Y-48373666D01*
X156626206Y-48411762D01*
X156664301Y-48487952D01*
X156664301Y-48678428D01*
X156626206Y-48754619D01*
X156588110Y-48792714D01*
X156511920Y-48830809D01*
X156321444Y-48830809D01*
X156245253Y-48792714D01*
X156207158Y-48754619D01*
X144561349Y-20890809D02*
X144294682Y-20509857D01*
X144104206Y-20890809D02*
X144104206Y-20090809D01*
X144408968Y-20090809D01*
X144485158Y-20128905D01*
X144523253Y-20167000D01*
X144561349Y-20243190D01*
X144561349Y-20357476D01*
X144523253Y-20433666D01*
X144485158Y-20471762D01*
X144408968Y-20509857D01*
X144104206Y-20509857D01*
X144866110Y-20662238D02*
X145247063Y-20662238D01*
X144789920Y-20890809D02*
X145056587Y-20090809D01*
X145323253Y-20890809D01*
X145513730Y-20090809D02*
X145704206Y-20890809D01*
X145856587Y-20319381D01*
X146008968Y-20890809D01*
X146199444Y-20090809D01*
X144847063Y-33171762D02*
X144580396Y-33171762D01*
X144580396Y-33590809D02*
X144580396Y-32790809D01*
X144961349Y-32790809D01*
X145647063Y-32790809D02*
X145266110Y-32790809D01*
X145228015Y-33171762D01*
X145266110Y-33133666D01*
X145342301Y-33095571D01*
X145532777Y-33095571D01*
X145608968Y-33133666D01*
X145647063Y-33171762D01*
X145685158Y-33247952D01*
X145685158Y-33438428D01*
X145647063Y-33514619D01*
X145608968Y-33552714D01*
X145532777Y-33590809D01*
X145342301Y-33590809D01*
X145266110Y-33552714D01*
X145228015Y-33514619D01*
X144789920Y-48411762D02*
X144904206Y-48449857D01*
X144942301Y-48487952D01*
X144980396Y-48564143D01*
X144980396Y-48678428D01*
X144942301Y-48754619D01*
X144904206Y-48792714D01*
X144828015Y-48830809D01*
X144523253Y-48830809D01*
X144523253Y-48030809D01*
X144789920Y-48030809D01*
X144866110Y-48068905D01*
X144904206Y-48107000D01*
X144942301Y-48183190D01*
X144942301Y-48259381D01*
X144904206Y-48335571D01*
X144866110Y-48373666D01*
X144789920Y-48411762D01*
X144523253Y-48411762D01*
X145666110Y-48030809D02*
X145513730Y-48030809D01*
X145437539Y-48068905D01*
X145399444Y-48107000D01*
X145323253Y-48221285D01*
X145285158Y-48373666D01*
X145285158Y-48678428D01*
X145323253Y-48754619D01*
X145361349Y-48792714D01*
X145437539Y-48830809D01*
X145589920Y-48830809D01*
X145666110Y-48792714D01*
X145704206Y-48754619D01*
X145742301Y-48678428D01*
X145742301Y-48487952D01*
X145704206Y-48411762D01*
X145666110Y-48373666D01*
X145589920Y-48335571D01*
X145437539Y-48335571D01*
X145361349Y-48373666D01*
X145323253Y-48411762D01*
X145285158Y-48487952D01*
X155902396Y-38594619D02*
X155864301Y-38632714D01*
X155750015Y-38670809D01*
X155673825Y-38670809D01*
X155559539Y-38632714D01*
X155483349Y-38556524D01*
X155445253Y-38480333D01*
X155407158Y-38327952D01*
X155407158Y-38213666D01*
X155445253Y-38061285D01*
X155483349Y-37985095D01*
X155559539Y-37908905D01*
X155673825Y-37870809D01*
X155750015Y-37870809D01*
X155864301Y-37908905D01*
X155902396Y-37947000D01*
X156588110Y-37870809D02*
X156435730Y-37870809D01*
X156359539Y-37908905D01*
X156321444Y-37947000D01*
X156245253Y-38061285D01*
X156207158Y-38213666D01*
X156207158Y-38518428D01*
X156245253Y-38594619D01*
X156283349Y-38632714D01*
X156359539Y-38670809D01*
X156511920Y-38670809D01*
X156588110Y-38632714D01*
X156626206Y-38594619D01*
X156664301Y-38518428D01*
X156664301Y-38327952D01*
X156626206Y-38251762D01*
X156588110Y-38213666D01*
X156511920Y-38175571D01*
X156359539Y-38175571D01*
X156283349Y-38213666D01*
X156245253Y-38251762D01*
X156207158Y-38327952D01*
X144047063Y-27710809D02*
X144313730Y-28510809D01*
X144580396Y-27710809D01*
X145304206Y-28434619D02*
X145266110Y-28472714D01*
X145151825Y-28510809D01*
X145075634Y-28510809D01*
X144961349Y-28472714D01*
X144885158Y-28396524D01*
X144847063Y-28320333D01*
X144808968Y-28167952D01*
X144808968Y-28053666D01*
X144847063Y-27901285D01*
X144885158Y-27825095D01*
X144961349Y-27748905D01*
X145075634Y-27710809D01*
X145151825Y-27710809D01*
X145266110Y-27748905D01*
X145304206Y-27787000D01*
X146104206Y-28434619D02*
X146066110Y-28472714D01*
X145951825Y-28510809D01*
X145875634Y-28510809D01*
X145761349Y-28472714D01*
X145685158Y-28396524D01*
X145647063Y-28320333D01*
X145608968Y-28167952D01*
X145608968Y-28053666D01*
X145647063Y-27901285D01*
X145685158Y-27825095D01*
X145761349Y-27748905D01*
X145875634Y-27710809D01*
X145951825Y-27710809D01*
X146066110Y-27748905D01*
X146104206Y-27787000D01*
X144789920Y-43331762D02*
X144904206Y-43369857D01*
X144942301Y-43407952D01*
X144980396Y-43484143D01*
X144980396Y-43598428D01*
X144942301Y-43674619D01*
X144904206Y-43712714D01*
X144828015Y-43750809D01*
X144523253Y-43750809D01*
X144523253Y-42950809D01*
X144789920Y-42950809D01*
X144866110Y-42988905D01*
X144904206Y-43027000D01*
X144942301Y-43103190D01*
X144942301Y-43179381D01*
X144904206Y-43255571D01*
X144866110Y-43293666D01*
X144789920Y-43331762D01*
X144523253Y-43331762D01*
X145247063Y-42950809D02*
X145742301Y-42950809D01*
X145475634Y-43255571D01*
X145589920Y-43255571D01*
X145666110Y-43293666D01*
X145704206Y-43331762D01*
X145742301Y-43407952D01*
X145742301Y-43598428D01*
X145704206Y-43674619D01*
X145666110Y-43712714D01*
X145589920Y-43750809D01*
X145361349Y-43750809D01*
X145285158Y-43712714D01*
X145247063Y-43674619D01*
X144789920Y-45871762D02*
X144904206Y-45909857D01*
X144942301Y-45947952D01*
X144980396Y-46024143D01*
X144980396Y-46138428D01*
X144942301Y-46214619D01*
X144904206Y-46252714D01*
X144828015Y-46290809D01*
X144523253Y-46290809D01*
X144523253Y-45490809D01*
X144789920Y-45490809D01*
X144866110Y-45528905D01*
X144904206Y-45567000D01*
X144942301Y-45643190D01*
X144942301Y-45719381D01*
X144904206Y-45795571D01*
X144866110Y-45833666D01*
X144789920Y-45871762D01*
X144523253Y-45871762D01*
X145285158Y-45567000D02*
X145323253Y-45528905D01*
X145399444Y-45490809D01*
X145589920Y-45490809D01*
X145666110Y-45528905D01*
X145704206Y-45567000D01*
X145742301Y-45643190D01*
X145742301Y-45719381D01*
X145704206Y-45833666D01*
X145247063Y-46290809D01*
X145742301Y-46290809D01*
X155445253Y-36130809D02*
X155445253Y-35330809D01*
X155635730Y-35330809D01*
X155750015Y-35368905D01*
X155826206Y-35445095D01*
X155864301Y-35521285D01*
X155902396Y-35673666D01*
X155902396Y-35787952D01*
X155864301Y-35940333D01*
X155826206Y-36016524D01*
X155750015Y-36092714D01*
X155635730Y-36130809D01*
X155445253Y-36130809D01*
X156588110Y-35597476D02*
X156588110Y-36130809D01*
X156397634Y-35292714D02*
X156207158Y-35864143D01*
X156702396Y-35864143D01*
X144847063Y-35711762D02*
X144580396Y-35711762D01*
X144580396Y-36130809D02*
X144580396Y-35330809D01*
X144961349Y-35330809D01*
X145608968Y-35330809D02*
X145456587Y-35330809D01*
X145380396Y-35368905D01*
X145342301Y-35407000D01*
X145266110Y-35521285D01*
X145228015Y-35673666D01*
X145228015Y-35978428D01*
X145266110Y-36054619D01*
X145304206Y-36092714D01*
X145380396Y-36130809D01*
X145532777Y-36130809D01*
X145608968Y-36092714D01*
X145647063Y-36054619D01*
X145685158Y-35978428D01*
X145685158Y-35787952D01*
X145647063Y-35711762D01*
X145608968Y-35673666D01*
X145532777Y-35635571D01*
X145380396Y-35635571D01*
X145304206Y-35673666D01*
X145266110Y-35711762D01*
X145228015Y-35787952D01*
%TO.C,K-3-4*%
X125521384Y-81600550D02*
X134099135Y-82502108D01*
X136157424Y-84683206D02*
X135745059Y-88606595D01*
X125108078Y-85532890D02*
X130125605Y-86106507D01*
X125112886Y-85487142D02*
X125521384Y-81600550D01*
X135744118Y-88615546D02*
X132153894Y-88238198D01*
X132151429Y-88213807D02*
G75*
G03*
X130100324Y-86107872I-2078520J27415D01*
G01*
X136153801Y-84612440D02*
G75*
G03*
X134099135Y-82502108I-2082499J27833D01*
G01*
%TO.C,K-0-0*%
X20012759Y-55515297D02*
X19001294Y-51740459D01*
X19001294Y-51740459D02*
X27332405Y-49508145D01*
X30035618Y-50806751D02*
X31056659Y-54617328D01*
X20024665Y-55559730D02*
X24914496Y-54297126D01*
X31058989Y-54626021D02*
X27571996Y-55560358D01*
X27560955Y-55538470D02*
G75*
G03*
X24891383Y-54307460I-1950291J-719281D01*
G01*
X30006875Y-50741983D02*
G75*
G03*
X27332405Y-49508145I-1954154J-720316D01*
G01*
%TO.C,K-0-3*%
X80924884Y-24758298D02*
X80516387Y-20871707D01*
X80929693Y-24804046D02*
X85956837Y-24321925D01*
X91974230Y-25607982D02*
X88384006Y-25985330D01*
X91560925Y-21675642D02*
X91973289Y-25599031D01*
X80516387Y-20871707D02*
X89094139Y-19970149D01*
X88376525Y-25961984D02*
G75*
G03*
X85932392Y-24328517I-2038800J-405333D01*
G01*
X91542668Y-21607175D02*
G75*
G03*
X89094139Y-19970149I-2042778J-405752D01*
G01*
%TO.C,K-0-4*%
X113986933Y-22686708D02*
X114193398Y-26626302D01*
X103204135Y-25208492D02*
X102999606Y-21305848D01*
X103206543Y-25254429D02*
X108252029Y-25036070D01*
X102999606Y-21305848D02*
X111612786Y-20854451D01*
X114193869Y-26635290D02*
X110588817Y-26824222D01*
X110582567Y-26800517D02*
G75*
G03*
X108227273Y-25041373I-2057219J-298075D01*
G01*
X113972284Y-22617380D02*
G75*
G03*
X111612786Y-20854451I-2061213J-298284D01*
G01*
%TO.C,D-0-0*%
X34452323Y-61175316D02*
X35924394Y-60780876D01*
X34616673Y-61788679D02*
X36088744Y-61394239D01*
X34485193Y-61297989D02*
X35957264Y-60903549D01*
X36055874Y-61271566D02*
X34583803Y-61666007D01*
X33334742Y-57004449D02*
X34649543Y-61911352D01*
X33334742Y-57004449D02*
X33466222Y-57495139D01*
X34649543Y-61911352D02*
X36121614Y-61516911D01*
X35990134Y-61026221D02*
X34518063Y-61420661D01*
X34550933Y-61543334D02*
X36023004Y-61148894D01*
X34806813Y-56610008D02*
X33334742Y-57004449D01*
X36121614Y-61516911D02*
X34806813Y-56610008D01*
%TO.C,D-0-1*%
X55406616Y-57228313D02*
X56897313Y-56911455D01*
X55327402Y-56855638D02*
X56818099Y-56538781D01*
X54350425Y-52259323D02*
X54456044Y-52756222D01*
X55380211Y-57104088D02*
X56870908Y-56787230D01*
X55248188Y-56482964D02*
X56738884Y-56166107D01*
X55274592Y-56607189D02*
X56765289Y-56290331D01*
X55841122Y-51942465D02*
X54350425Y-52259323D01*
X56844504Y-56663006D02*
X55353807Y-56979863D01*
X54350425Y-52259323D02*
X55406616Y-57228313D01*
X56897313Y-56911455D02*
X55841122Y-51942465D01*
X56791694Y-56414556D02*
X55300997Y-56731414D01*
%TO.C,D-0-2*%
X73139986Y-37897931D02*
X74645224Y-37659525D01*
X73179721Y-38148804D02*
X74684958Y-37910398D01*
X73199588Y-38274240D02*
X74704825Y-38035834D01*
X72404901Y-33256784D02*
X73199588Y-38274240D01*
X72404901Y-33256784D02*
X72484370Y-33758529D01*
X74665091Y-37784961D02*
X73159854Y-38023368D01*
X73080385Y-37521622D02*
X74585622Y-37283216D01*
X74704825Y-38035834D02*
X73910138Y-33018378D01*
X73100252Y-37647058D02*
X74605489Y-37408652D01*
X74625356Y-37534089D02*
X73120119Y-37772495D01*
X73910138Y-33018378D02*
X72404901Y-33256784D01*
%TO.C,D-0-3*%
X94320174Y-33116887D02*
X95835826Y-32957586D01*
X94346724Y-33369496D02*
X95862376Y-33210195D01*
X94280349Y-32737975D02*
X95796000Y-32578673D01*
X93828995Y-28443629D02*
X94360000Y-33495800D01*
X95822551Y-32831282D02*
X94306899Y-32990583D01*
X94360000Y-33495800D02*
X95875651Y-33336499D01*
X95849101Y-33083890D02*
X94333449Y-33243192D01*
X95344646Y-28284328D02*
X93828995Y-28443629D01*
X94293624Y-32864279D02*
X95809275Y-32704978D01*
X95875651Y-33336499D02*
X95344646Y-28284328D01*
X93828995Y-28443629D02*
X93882095Y-28948846D01*
%TO.C,D-0-4*%
X117700596Y-34062987D02*
X116178684Y-34142747D01*
X116185331Y-34269573D02*
X117707242Y-34189813D01*
X116158744Y-33762269D02*
X117680656Y-33682509D01*
X116191978Y-34396399D02*
X117713889Y-34316639D01*
X117448022Y-29243601D02*
X115926111Y-29323361D01*
X116152098Y-33635443D02*
X117674009Y-33555683D01*
X117713889Y-34316639D02*
X117448022Y-29243601D01*
X116172038Y-34015921D02*
X117693949Y-33936161D01*
X115926111Y-29323361D02*
X116191978Y-34396399D01*
X117687302Y-33809335D02*
X116165391Y-33889095D01*
X115926111Y-29323361D02*
X115952698Y-29830665D01*
%TO.C,D-0-5*%
X139353119Y-29270303D02*
X137829119Y-29270303D01*
X137829119Y-34350303D02*
X139353119Y-34350303D01*
X139353119Y-34350303D02*
X139353119Y-29270303D01*
X139353119Y-33842303D02*
X137829119Y-33842303D01*
X137829119Y-33715303D02*
X139353119Y-33715303D01*
X139353119Y-34096303D02*
X137829119Y-34096303D01*
X137829119Y-29270303D02*
X137829119Y-34350303D01*
X137829119Y-33588303D02*
X139353119Y-33588303D01*
X137829119Y-34223303D02*
X139353119Y-34223303D01*
X137829119Y-29270303D02*
X137829119Y-29778303D01*
X137829119Y-33969303D02*
X139353119Y-33969303D01*
%TO.C,D-1-0*%
X39654985Y-80200286D02*
X41127056Y-79805845D01*
X39622115Y-80077613D02*
X41094186Y-79683173D01*
X39457765Y-79464250D02*
X40929836Y-79069810D01*
X40995576Y-79315155D02*
X39523505Y-79709595D01*
X39556375Y-79832268D02*
X41028446Y-79437828D01*
X41127056Y-79805845D02*
X39812255Y-74898942D01*
X38340184Y-75293383D02*
X38471664Y-75784073D01*
X41061316Y-79560500D02*
X39589245Y-79954941D01*
X38340184Y-75293383D02*
X39654985Y-80200286D01*
X39490635Y-79586923D02*
X40962706Y-79192483D01*
X39812255Y-74898942D02*
X38340184Y-75293383D01*
%TO.C,D-1-1*%
X60797788Y-75554265D02*
X59741597Y-70585275D01*
X59280686Y-75746898D02*
X60771383Y-75430040D01*
X60744979Y-75305816D02*
X59254282Y-75622673D01*
X58250900Y-70902133D02*
X58356519Y-71399032D01*
X58250900Y-70902133D02*
X59307091Y-75871123D01*
X60692169Y-75057366D02*
X59201472Y-75374224D01*
X59175067Y-75249999D02*
X60665764Y-74933141D01*
X59227877Y-75498448D02*
X60718574Y-75181591D01*
X59741597Y-70585275D02*
X58250900Y-70902133D01*
X59148663Y-75125774D02*
X60639359Y-74808917D01*
X59307091Y-75871123D02*
X60797788Y-75554265D01*
%TO.C,D-1-2*%
X75422753Y-52013535D02*
X75502222Y-52515280D01*
X75422753Y-52013535D02*
X76217440Y-57030991D01*
X77643208Y-56290840D02*
X76137971Y-56529246D01*
X77682943Y-56541712D02*
X76177706Y-56780119D01*
X76098237Y-56278373D02*
X77603474Y-56039967D01*
X76927990Y-51775129D02*
X75422753Y-52013535D01*
X77722677Y-56792585D02*
X76927990Y-51775129D01*
X76217440Y-57030991D02*
X77722677Y-56792585D01*
X76118104Y-56403809D02*
X77623341Y-56165403D01*
X76197573Y-56905555D02*
X77702810Y-56667149D01*
X76157838Y-56654682D02*
X77663076Y-56416276D01*
%TO.C,D-1-3*%
X96379083Y-51764043D02*
X97894734Y-51604742D01*
X97430105Y-47184092D02*
X95914454Y-47343393D01*
X96432183Y-52269260D02*
X97947835Y-52109959D01*
X95914454Y-47343393D02*
X95967554Y-47848610D01*
X96445459Y-52395564D02*
X97961110Y-52236263D01*
X97934560Y-51983654D02*
X96418908Y-52142956D01*
X97961110Y-52236263D02*
X97430105Y-47184092D01*
X95914454Y-47343393D02*
X96445459Y-52395564D01*
X96405633Y-52016651D02*
X97921285Y-51857350D01*
X97908010Y-51731046D02*
X96392358Y-51890347D01*
X96365808Y-51637739D02*
X97881459Y-51478437D01*
%TO.C,D-1-4*%
X117125236Y-53525931D02*
X118647147Y-53446171D01*
X117092002Y-52891801D02*
X118613914Y-52812041D01*
X117085356Y-52764975D02*
X118607267Y-52685215D01*
X118620560Y-52938867D02*
X117098649Y-53018627D01*
X118381280Y-48373133D02*
X116859369Y-48452893D01*
X117105296Y-53145453D02*
X118627207Y-53065693D01*
X116859369Y-48452893D02*
X117125236Y-53525931D01*
X118647147Y-53446171D02*
X118381280Y-48373133D01*
X117118589Y-53399105D02*
X118640500Y-53319345D01*
X118633854Y-53192519D02*
X117111942Y-53272279D01*
X116859369Y-48452893D02*
X116885956Y-48960197D01*
%TO.C,D-1-5*%
X137879918Y-48421890D02*
X137879918Y-53501890D01*
X137879918Y-53120890D02*
X139403918Y-53120890D01*
X137879918Y-52739890D02*
X139403918Y-52739890D01*
X139403918Y-48421890D02*
X137879918Y-48421890D01*
X137879918Y-53374890D02*
X139403918Y-53374890D01*
X137879918Y-53501890D02*
X139403918Y-53501890D01*
X139403918Y-53247890D02*
X137879918Y-53247890D01*
X137879918Y-52866890D02*
X139403918Y-52866890D01*
X139403918Y-52993890D02*
X137879918Y-52993890D01*
X137879918Y-48421890D02*
X137879918Y-48929890D01*
X139403918Y-53501890D02*
X139403918Y-48421890D01*
%TO.C,D-2-0*%
X44369398Y-98050239D02*
X45841469Y-97655799D01*
X44435138Y-98295584D02*
X45907209Y-97901144D01*
X44336528Y-97927566D02*
X45808599Y-97533126D01*
X45940079Y-98023816D02*
X44468008Y-98418257D01*
X43218947Y-93756699D02*
X44533748Y-98663602D01*
X46005819Y-98269161D02*
X44691018Y-93362258D01*
X43218947Y-93756699D02*
X43350427Y-94247389D01*
X44691018Y-93362258D02*
X43218947Y-93756699D01*
X44500878Y-98540929D02*
X45972949Y-98146489D01*
X45874339Y-97778471D02*
X44402268Y-98172911D01*
X44533748Y-98663602D02*
X46005819Y-98269161D01*
%TO.C,D-2-1*%
X64698995Y-93740086D02*
X63208298Y-94056944D01*
X63234703Y-94181168D02*
X64725400Y-93864311D01*
X63287512Y-94429618D02*
X64778209Y-94112760D01*
X62257726Y-89584853D02*
X63313917Y-94553843D01*
X62257726Y-89584853D02*
X62363345Y-90081752D01*
X63748423Y-89267995D02*
X62257726Y-89584853D01*
X63181893Y-93932719D02*
X64672590Y-93615861D01*
X63155489Y-93808494D02*
X64646185Y-93491637D01*
X64751805Y-93988536D02*
X63261108Y-94305393D01*
X63313917Y-94553843D02*
X64804614Y-94236985D01*
X64804614Y-94236985D02*
X63748423Y-89267995D01*
%TO.C,D-2-2*%
X79043583Y-75270629D02*
X80548820Y-75032223D01*
X79853469Y-70641949D02*
X78348232Y-70880355D01*
X80608422Y-75408532D02*
X79103185Y-75646939D01*
X80568687Y-75157660D02*
X79063450Y-75396066D01*
X78348232Y-70880355D02*
X79142919Y-75897811D01*
X79023716Y-75145193D02*
X80528953Y-74906787D01*
X79123052Y-75772375D02*
X80628289Y-75533969D01*
X78348232Y-70880355D02*
X78427701Y-71382100D01*
X79142919Y-75897811D02*
X80648156Y-75659405D01*
X79083317Y-75521502D02*
X80588555Y-75283096D01*
X80648156Y-75659405D02*
X79853469Y-70641949D01*
%TO.C,D-2-3*%
X99895664Y-70688580D02*
X98380012Y-70847881D01*
X98419837Y-71226794D02*
X99935489Y-71067493D01*
X99417759Y-66141626D02*
X97902108Y-66300927D01*
X98353462Y-70595273D02*
X99869113Y-70435971D01*
X99922214Y-70941188D02*
X98406562Y-71100490D01*
X97902108Y-66300927D02*
X98433113Y-71353098D01*
X98366737Y-70721577D02*
X99882388Y-70562276D01*
X97902108Y-66300927D02*
X97955208Y-66806144D01*
X99948764Y-71193797D02*
X99417759Y-66141626D01*
X98393287Y-70974185D02*
X99908939Y-70814884D01*
X98433113Y-71353098D02*
X99948764Y-71193797D01*
%TO.C,D-2-4*%
X118193116Y-71961107D02*
X119715028Y-71881347D01*
X119734968Y-72261825D02*
X118213056Y-72341585D01*
X117960483Y-67522199D02*
X118226350Y-72595237D01*
X118219703Y-72468411D02*
X119741614Y-72388651D01*
X119748261Y-72515477D02*
X119482394Y-67442439D01*
X117960483Y-67522199D02*
X117987070Y-68029503D01*
X119721674Y-72008173D02*
X118199763Y-72087933D01*
X118186470Y-71834281D02*
X119708381Y-71754521D01*
X118206410Y-72214759D02*
X119728321Y-72134999D01*
X118226350Y-72595237D02*
X119748261Y-72515477D01*
X119482394Y-67442439D02*
X117960483Y-67522199D01*
%TO.C,D-2-5*%
X137981521Y-71866096D02*
X139505521Y-71866096D01*
X139505521Y-72247096D02*
X137981521Y-72247096D01*
X137981521Y-72501096D02*
X139505521Y-72501096D01*
X137981521Y-67421096D02*
X137981521Y-67929096D01*
X137981521Y-72120096D02*
X139505521Y-72120096D01*
X137981521Y-71739096D02*
X139505521Y-71739096D01*
X139505521Y-67421096D02*
X137981521Y-67421096D01*
X139505521Y-71993096D02*
X137981521Y-71993096D01*
X137981521Y-67421096D02*
X137981521Y-72501096D01*
X137981521Y-72374096D02*
X139505521Y-72374096D01*
X139505521Y-72501096D02*
X139505521Y-67421096D01*
%TO.C,D-3-3*%
X117338130Y-94653948D02*
X118861201Y-94707134D01*
X117355859Y-94146257D02*
X118878930Y-94199444D01*
X117510987Y-89703965D02*
X117333697Y-94780870D01*
X117333697Y-94780870D02*
X118856769Y-94834057D01*
X118856769Y-94834057D02*
X119034059Y-89757152D01*
X117346994Y-94400102D02*
X118870066Y-94453289D01*
X117360291Y-94019334D02*
X118883363Y-94072521D01*
X118865634Y-94580212D02*
X117342562Y-94527025D01*
X119034059Y-89757152D02*
X117510987Y-89703965D01*
X117510987Y-89703965D02*
X117493258Y-90211655D01*
X118874498Y-94326367D02*
X117351426Y-94273180D01*
%TO.C,D-3-4*%
X137976200Y-96874743D02*
X138507205Y-91822572D01*
X136473824Y-96589138D02*
X137989476Y-96748439D01*
X136526925Y-96083921D02*
X138042576Y-96243222D01*
X136540200Y-95957616D02*
X138055851Y-96116918D01*
X138002751Y-96622135D02*
X136487099Y-96462833D01*
X136500374Y-96336529D02*
X138016026Y-96495830D01*
X136991554Y-91663271D02*
X136460549Y-96715442D01*
X136460549Y-96715442D02*
X137976200Y-96874743D01*
X136991554Y-91663271D02*
X136938453Y-92168488D01*
X138507205Y-91822572D02*
X136991554Y-91663271D01*
X138029301Y-96369526D02*
X136513649Y-96210225D01*
%TO.C,D-3-5*%
X156312356Y-94935277D02*
X155430223Y-99938101D01*
X157813203Y-95199917D02*
X156312356Y-94935277D01*
X156931070Y-100202741D02*
X157813203Y-95199917D01*
X155562543Y-99187677D02*
X157063390Y-99452317D01*
X155452276Y-99813030D02*
X156953123Y-100077670D01*
X155496383Y-99562889D02*
X156997230Y-99827529D01*
X156975177Y-99952599D02*
X155474330Y-99687960D01*
X155430223Y-99938101D02*
X156931070Y-100202741D01*
X157019283Y-99702458D02*
X155518436Y-99437818D01*
X155540490Y-99312748D02*
X157041337Y-99577388D01*
X156312356Y-94935277D02*
X156224143Y-95435560D01*
%TO.C,K-0-1*%
X41052346Y-50096434D02*
X46001556Y-49091475D01*
X52120414Y-49741497D02*
X48589302Y-50492059D01*
X40230263Y-46228839D02*
X48666786Y-44435601D01*
X51298332Y-45873902D02*
X52118543Y-49732694D01*
X41042782Y-50051440D02*
X40230263Y-46228839D01*
X48579421Y-50469623D02*
G75*
G03*
X45977933Y-49100586I-1985262J-616225D01*
G01*
X51273017Y-45807719D02*
G75*
G03*
X48666786Y-44435601I-1989174J-617056D01*
G01*
%TO.C,K-0-2*%
X59298392Y-30296774D02*
X58687046Y-26436888D01*
X59305588Y-30342208D02*
X64300610Y-29597647D01*
X69758522Y-26661695D02*
X70375656Y-30558126D01*
X58687046Y-26436888D02*
X67205858Y-25087641D01*
X70377064Y-30567015D02*
X66811509Y-31131743D01*
X66802816Y-31108821D02*
G75*
G03*
X64276543Y-29605509I-2014792J-511480D01*
G01*
X69736707Y-26594278D02*
G75*
G03*
X67205858Y-25087641I-2018743J-512106D01*
G01*
%TO.C,K-0-5*%
X136354226Y-22459828D02*
X136354226Y-26404828D01*
X125454226Y-24413828D02*
X125454226Y-20505828D01*
X125454226Y-20505828D02*
X134079226Y-20505828D01*
X125454226Y-24459828D02*
X130504226Y-24505828D01*
X136354226Y-26413828D02*
X132744226Y-26413828D01*
X136343226Y-22389828D02*
G75*
G03*
X134079226Y-20505828I-2074000J-190000D01*
G01*
X132739226Y-26389828D02*
G75*
G03*
X130479226Y-24509828I-2070000J-190000D01*
G01*
%TO.C,K-1-0*%
X24933560Y-73805244D02*
X23922095Y-70030406D01*
X35979790Y-72915968D02*
X32492797Y-73850305D01*
X23922095Y-70030406D02*
X32253206Y-67798092D01*
X34956419Y-69096698D02*
X35977460Y-72907275D01*
X24945466Y-73849677D02*
X29835297Y-72587073D01*
X34927676Y-69031930D02*
G75*
G03*
X32253206Y-67798092I-1954154J-720316D01*
G01*
X32481756Y-73828417D02*
G75*
G03*
X29812184Y-72597407I-1950291J-719281D01*
G01*
%TO.C,K-1-1*%
X45003501Y-68685159D02*
X44190982Y-64862558D01*
X55259051Y-64507621D02*
X56079262Y-68366413D01*
X44190982Y-64862558D02*
X52627505Y-63069320D01*
X45013065Y-68730153D02*
X49962275Y-67725194D01*
X56081133Y-68375216D02*
X52550021Y-69125778D01*
X52540140Y-69103342D02*
G75*
G03*
X49938652Y-67734305I-1985262J-616225D01*
G01*
X55233736Y-64441438D02*
G75*
G03*
X52627505Y-63069320I-1989174J-617056D01*
G01*
%TO.C,K-1-2*%
X62278468Y-49112235D02*
X61667122Y-45252349D01*
X62285664Y-49157669D02*
X67280686Y-48413108D01*
X73357140Y-49382476D02*
X69791585Y-49947204D01*
X72738598Y-45477156D02*
X73355732Y-49373587D01*
X61667122Y-45252349D02*
X70185934Y-43903102D01*
X69782892Y-49924282D02*
G75*
G03*
X67256619Y-48420970I-2014792J-511480D01*
G01*
X72716783Y-45409739D02*
G75*
G03*
X70185934Y-43903102I-2018743J-512106D01*
G01*
%TO.C,K-1-3*%
X93552192Y-40621280D02*
X93964556Y-44544669D01*
X82916151Y-43703936D02*
X82507654Y-39817345D01*
X82920960Y-43749684D02*
X87948104Y-43267563D01*
X82507654Y-39817345D02*
X91085406Y-38915787D01*
X93965497Y-44553620D02*
X90375273Y-44930968D01*
X90367792Y-44907622D02*
G75*
G03*
X87923659Y-43274155I-2038800J-405333D01*
G01*
X93533935Y-40552813D02*
G75*
G03*
X91085406Y-38915787I-2042778J-405752D01*
G01*
%TO.C,K-1-4*%
X114983930Y-41710603D02*
X115190395Y-45650197D01*
X104203540Y-44278324D02*
X109249026Y-44059965D01*
X104201132Y-44232387D02*
X103996603Y-40329743D01*
X103996603Y-40329743D02*
X112609783Y-39878346D01*
X115190866Y-45659185D02*
X111585814Y-45848117D01*
X111579564Y-45824412D02*
G75*
G03*
X109224270Y-44065268I-2057219J-298075D01*
G01*
X114969281Y-41641275D02*
G75*
G03*
X112609783Y-39878346I-2061213J-298284D01*
G01*
%TO.C,K-1-5*%
X125454234Y-39555839D02*
X134079234Y-39555839D01*
X125454234Y-43463839D02*
X125454234Y-39555839D01*
X136354234Y-41509839D02*
X136354234Y-45454839D01*
X125454234Y-43509839D02*
X130504234Y-43555839D01*
X136354234Y-45463839D02*
X132744234Y-45463839D01*
X136343234Y-41439839D02*
G75*
G03*
X134079234Y-39555839I-2074000J-190000D01*
G01*
X132739234Y-45439839D02*
G75*
G03*
X130479234Y-43559839I-2070000J-190000D01*
G01*
%TO.C,K-2-0*%
X29875968Y-92250563D02*
X34765799Y-90987959D01*
X29864062Y-92206130D02*
X28852597Y-88431292D01*
X39886921Y-87497584D02*
X40907962Y-91308161D01*
X28852597Y-88431292D02*
X37183708Y-86198978D01*
X40910292Y-91316854D02*
X37423299Y-92251191D01*
X37412258Y-92229303D02*
G75*
G03*
X34742686Y-90998293I-1950291J-719281D01*
G01*
X39858178Y-87432816D02*
G75*
G03*
X37183708Y-86198978I-1954154J-720316D01*
G01*
%TO.C,K-2-1*%
X48151697Y-83496269D02*
X56588220Y-81703031D01*
X60041848Y-87008927D02*
X56510736Y-87759489D01*
X48973780Y-87363864D02*
X53922990Y-86358905D01*
X59219766Y-83141332D02*
X60039977Y-87000124D01*
X48964216Y-87318870D02*
X48151697Y-83496269D01*
X59194451Y-83075149D02*
G75*
G03*
X56588220Y-81703031I-1989174J-617056D01*
G01*
X56500855Y-87737053D02*
G75*
G03*
X53899367Y-86368016I-1985262J-616225D01*
G01*
%TO.C,K-2-2*%
X76337215Y-68197938D02*
X72771660Y-68762666D01*
X65258543Y-67927697D02*
X64647197Y-64067811D01*
X75718673Y-64292618D02*
X76335807Y-68189049D01*
X65265739Y-67973131D02*
X70260761Y-67228570D01*
X64647197Y-64067811D02*
X73166009Y-62718564D01*
X72762967Y-68739744D02*
G75*
G03*
X70236694Y-67236432I-2014792J-511480D01*
G01*
X75696858Y-64225201D02*
G75*
G03*
X73166009Y-62718564I-2018743J-512106D01*
G01*
%TO.C,K-2-3*%
X95525205Y-59498462D02*
G75*
G03*
X93076676Y-57861436I-2042778J-405752D01*
G01*
X92359062Y-63853271D02*
G75*
G03*
X89914929Y-62219804I-2038800J-405333D01*
G01*
X95956767Y-63499269D02*
X92366543Y-63876617D01*
X84498924Y-58762994D02*
X93076676Y-57861436D01*
X95543462Y-59566929D02*
X95955826Y-63490318D01*
X84907421Y-62649585D02*
X84498924Y-58762994D01*
X84912230Y-62695333D02*
X89939374Y-62213212D01*
%TO.C,K-2-4*%
X105198127Y-63256276D02*
X104993598Y-59353632D01*
X105200535Y-63302213D02*
X110246021Y-63083854D01*
X116187861Y-64683074D02*
X112582809Y-64872006D01*
X115980925Y-60734492D02*
X116187390Y-64674086D01*
X104993598Y-59353632D02*
X113606778Y-58902235D01*
X112576559Y-64848301D02*
G75*
G03*
X110221265Y-63089157I-2057219J-298075D01*
G01*
X115966276Y-60665164D02*
G75*
G03*
X113606778Y-58902235I-2061213J-298284D01*
G01*
%TO.C,K-2-5*%
X136354233Y-64513837D02*
X132744233Y-64513837D01*
X125454233Y-58605837D02*
X134079233Y-58605837D01*
X125454233Y-62513837D02*
X125454233Y-58605837D01*
X125454233Y-62559837D02*
X130504233Y-62605837D01*
X136354233Y-60559837D02*
X136354233Y-64504837D01*
X132739233Y-64489837D02*
G75*
G03*
X130479233Y-62609837I-2070000J-190000D01*
G01*
X136343233Y-60489837D02*
G75*
G03*
X134079233Y-58605837I-2074000J-190000D01*
G01*
%TO.C,K-3-3*%
X105227924Y-84407256D02*
X105364311Y-80501636D01*
X105226319Y-84453228D02*
X110271637Y-84675442D01*
X116189478Y-82834850D02*
X116051799Y-86777447D01*
X105364311Y-80501636D02*
X113984057Y-80802644D01*
X116051485Y-86786442D02*
X112443684Y-86660455D01*
X112439525Y-86636295D02*
G75*
G03*
X110246513Y-84678567I-2075370J-117642D01*
G01*
X116180928Y-82764509D02*
G75*
G03*
X113984057Y-80802644I-2079368J-117503D01*
G01*
%TO.C,K-3-5*%
X144851692Y-88028796D02*
X149816983Y-88951020D01*
X144859680Y-87983494D02*
X145538297Y-84134866D01*
X145538297Y-84134866D02*
X154032264Y-85632581D01*
X155246788Y-91845875D02*
X151691632Y-91219005D01*
X155933393Y-87951945D02*
X155248351Y-91837012D01*
X155934716Y-87881099D02*
G75*
G03*
X154032264Y-85632581I-2075485J173033D01*
G01*
X151690875Y-91194502D02*
G75*
G03*
X149791669Y-88950618I-2071545J172339D01*
G01*
D12*
%TO.C,J1*%
X142875984Y-79441196D02*
X142875984Y-71541796D01*
X151872664Y-79441196D02*
X142875984Y-79441196D01*
X144600644Y-63627156D02*
X144600644Y-64897156D01*
X142875984Y-71541796D02*
X142875984Y-67142516D01*
X142875984Y-59243116D02*
X151773604Y-59243116D01*
X151872664Y-59243116D02*
X151872664Y-79441196D01*
X144374584Y-71541796D02*
X142875984Y-71541796D01*
X142875984Y-67142516D02*
X142875984Y-59243116D01*
X144562544Y-63627156D02*
X144562544Y-64897156D01*
X144374584Y-67142516D02*
X144374584Y-71541796D01*
X142875984Y-67142516D02*
X144374584Y-67142516D01*
D13*
%TO.C,U1*%
X159464730Y-16718905D02*
X159464730Y-49738905D01*
X156924730Y-21798905D02*
X159464730Y-21798905D01*
X141684730Y-49738905D02*
X141684730Y-16718905D01*
X156924730Y-19258905D02*
X159464730Y-19258905D01*
X156924730Y-19258905D02*
X156924730Y-21798905D01*
X141684730Y-16718905D02*
X159464730Y-16718905D01*
X159464730Y-49738905D02*
X141684730Y-49738905D01*
D10*
X144730095Y-25147935D02*
X144730095Y-25247935D01*
X144730095Y-25247935D02*
X144230095Y-25247935D01*
X144230095Y-25247935D02*
X144230095Y-25147935D01*
X144230095Y-25147935D02*
X144730095Y-25147935D01*
G36*
X144730095Y-25247935D02*
G01*
X144230095Y-25247935D01*
X144230095Y-25147935D01*
X144730095Y-25147935D01*
X144730095Y-25247935D01*
G37*
X144730095Y-25247935D02*
X144230095Y-25247935D01*
X144230095Y-25147935D01*
X144730095Y-25147935D01*
X144730095Y-25247935D01*
X144730095Y-25747935D02*
X144730095Y-25947935D01*
X144730095Y-25947935D02*
X144630095Y-25947935D01*
X144630095Y-25947935D02*
X144630095Y-25747935D01*
X144630095Y-25747935D02*
X144730095Y-25747935D01*
G36*
X144730095Y-25947935D02*
G01*
X144630095Y-25947935D01*
X144630095Y-25747935D01*
X144730095Y-25747935D01*
X144730095Y-25947935D01*
G37*
X144730095Y-25947935D02*
X144630095Y-25947935D01*
X144630095Y-25747935D01*
X144730095Y-25747935D01*
X144730095Y-25947935D01*
X144330095Y-25147935D02*
X144330095Y-25947935D01*
X144330095Y-25947935D02*
X144230095Y-25947935D01*
X144230095Y-25947935D02*
X144230095Y-25147935D01*
X144230095Y-25147935D02*
X144330095Y-25147935D01*
G36*
X144330095Y-25947935D02*
G01*
X144230095Y-25947935D01*
X144230095Y-25147935D01*
X144330095Y-25147935D01*
X144330095Y-25947935D01*
G37*
X144330095Y-25947935D02*
X144230095Y-25947935D01*
X144230095Y-25147935D01*
X144330095Y-25147935D01*
X144330095Y-25947935D01*
X144730095Y-25147935D02*
X144730095Y-25447935D01*
X144730095Y-25447935D02*
X144630095Y-25447935D01*
X144630095Y-25447935D02*
X144630095Y-25147935D01*
X144630095Y-25147935D02*
X144730095Y-25147935D01*
G36*
X144730095Y-25447935D02*
G01*
X144630095Y-25447935D01*
X144630095Y-25147935D01*
X144730095Y-25147935D01*
X144730095Y-25447935D01*
G37*
X144730095Y-25447935D02*
X144630095Y-25447935D01*
X144630095Y-25147935D01*
X144730095Y-25147935D01*
X144730095Y-25447935D01*
X144530095Y-25547935D02*
X144530095Y-25647935D01*
X144530095Y-25647935D02*
X144430095Y-25647935D01*
X144430095Y-25647935D02*
X144430095Y-25547935D01*
X144430095Y-25547935D02*
X144530095Y-25547935D01*
G36*
X144530095Y-25647935D02*
G01*
X144430095Y-25647935D01*
X144430095Y-25547935D01*
X144530095Y-25547935D01*
X144530095Y-25647935D01*
G37*
X144530095Y-25647935D02*
X144430095Y-25647935D01*
X144430095Y-25547935D01*
X144530095Y-25547935D01*
X144530095Y-25647935D01*
%TD*%
D14*
%TO.C,D-0-0*%
X35737572Y-63027791D03*
D15*
X33718784Y-55493569D03*
%TD*%
D16*
%TO.C,D-0-1*%
X56434725Y-58400165D03*
D15*
X54813013Y-50770613D03*
%TD*%
D17*
%TO.C,D-0-2*%
X74164957Y-39498294D03*
D15*
X72944769Y-31794324D03*
%TD*%
D18*
%TO.C,D-0-3*%
X95259984Y-34768699D03*
D15*
X94444662Y-27011429D03*
%TD*%
D19*
%TO.C,D-0-4*%
X117024110Y-35714655D03*
D15*
X116615890Y-27925345D03*
%TD*%
D20*
%TO.C,D-0-5*%
X138591119Y-35710303D03*
D15*
X138591119Y-27910303D03*
%TD*%
D14*
%TO.C,D-1-0*%
X40743014Y-81316725D03*
D15*
X38724226Y-73782503D03*
%TD*%
D16*
%TO.C,D-1-1*%
X60335200Y-77042975D03*
D15*
X58713488Y-69413423D03*
%TD*%
D17*
%TO.C,D-1-2*%
X77182809Y-58255045D03*
D15*
X75962621Y-50551075D03*
%TD*%
D18*
%TO.C,D-1-3*%
X97345443Y-53668463D03*
D15*
X96530121Y-45911193D03*
%TD*%
D19*
%TO.C,D-1-4*%
X117957368Y-54844187D03*
D15*
X117549148Y-47054877D03*
%TD*%
D20*
%TO.C,D-1-5*%
X138641918Y-54861890D03*
D15*
X138641918Y-47061890D03*
%TD*%
D14*
%TO.C,D-2-0*%
X45621777Y-99780041D03*
D15*
X43602989Y-92245819D03*
%TD*%
D16*
%TO.C,D-2-1*%
X64342026Y-95725695D03*
D15*
X62720314Y-88096143D03*
%TD*%
D17*
%TO.C,D-2-2*%
X80108288Y-77121865D03*
D15*
X78888100Y-69417895D03*
%TD*%
D18*
%TO.C,D-2-3*%
X99333097Y-72625997D03*
D15*
X98517775Y-64868727D03*
%TD*%
D19*
%TO.C,D-2-4*%
X119058482Y-73913493D03*
D15*
X118650262Y-66124183D03*
%TD*%
D20*
%TO.C,D-2-5*%
X138743521Y-73861096D03*
D15*
X138743521Y-66061096D03*
%TD*%
D21*
%TO.C,D-3-3*%
X118047770Y-96166635D03*
D15*
X118319986Y-88371387D03*
%TD*%
D22*
%TO.C,D-3-4*%
X137076216Y-98147642D03*
D15*
X137891538Y-90390372D03*
%TD*%
%TO.C,D-3-5*%
X157298941Y-93728259D03*
D23*
X155944485Y-101409759D03*
%TD*%
D24*
%TO.C,U1*%
X158194730Y-20528905D03*
D25*
X158194730Y-23068905D03*
X158194730Y-25608905D03*
X158194730Y-28148905D03*
X158194730Y-30688905D03*
X158194730Y-33228905D03*
X158194730Y-35768905D03*
X158194730Y-38308905D03*
X158194730Y-40848905D03*
X158194730Y-43388905D03*
X158194730Y-45928905D03*
X158194730Y-48468905D03*
X142954730Y-48468905D03*
X142954730Y-45928905D03*
X142954730Y-43388905D03*
X142954730Y-40848905D03*
X142954730Y-38308905D03*
X142954730Y-35768905D03*
X142954730Y-33228905D03*
X142954730Y-30688905D03*
X142954730Y-28148905D03*
X142954730Y-25608905D03*
X142954730Y-23068905D03*
X142954730Y-20528905D03*
%TD*%
M02*
