M48
; DRILL file {KiCad (6.0.0)} date Sat Feb 12 20:48:11 2022
; FORMAT={-:-/ absolute / inch / decimal}
; #@! TF.CreationDate,2022-02-12T20:48:11+07:00
; #@! TF.GenerationSoftware,Kicad,Pcbnew,(6.0.0)
; #@! TF.FileFunction,NonPlated,1,2,NPTH
FMAT,2
INCH
; #@! TA.AperFunction,NonPlated,NPTH,ComponentDrill
T1C0.0591
; #@! TA.AperFunction,NonPlated,NPTH,ComponentDrill
T2C0.0669
; #@! TA.AperFunction,NonPlated,NPTH,ComponentDrill
T3C0.1181
; #@! TA.AperFunction,NonPlated,NPTH,ComponentDrill
T4C0.1575
; #@! TA.AperFunction,NonPlated,NPTH,ComponentDrill
T5C0.1693
%
G90
G05
T1
X5.9448Y-2.1021
X5.9448Y-2.2832
X6.2203Y-2.1021
X6.2203Y-2.2832
T2
X0.8271Y-2.2802
X1.0208Y-3.0002
X1.2135Y-2.1766
X1.2149Y-3.7247
X1.4072Y-2.8967
X1.6013Y-3.6212
X1.6491Y-2.0659
X1.805Y-2.7995
X1.961Y-3.5331
X2.0404Y-1.9827
X2.1963Y-2.7163
X2.3522Y-3.4499
X2.3619Y-1.2887
X2.4792Y-2.0294
X2.5965Y-2.7702
X2.7569Y-1.2261
X2.8743Y-1.9669
X2.9916Y-2.7076
X3.2073Y-1.0708
X3.2857Y-1.8167
X3.3641Y-2.5626
X3.6051Y-1.029
X3.6835Y-1.7749
X3.7619Y-2.5208
X4.0784Y-1.0884
X4.1177Y-1.8374
X4.1482Y-3.4182
X4.1569Y-2.5864
X4.4779Y-1.0675
X4.5171Y-1.8165
X4.5479Y-3.4322
X4.5564Y-2.5654
X4.9231Y-3.4594
X4.9484Y-1.0567
X4.9484Y-1.8067
X4.9484Y-2.5567
X5.321Y-3.5012
X5.3484Y-1.0567
X5.3484Y-1.8067
X5.3484Y-2.5567
X5.6928Y-3.5558
X6.0867Y-3.6253
T3
X0.8495Y-2.1706
X0.8719Y-2.0611
X1.0432Y-2.8907
X1.0651Y-2.0093
X1.0656Y-2.7812
X1.1393Y-2.093
X1.2373Y-3.6151
X1.2588Y-2.7294
X1.2598Y-3.5056
X1.333Y-2.8131
X1.4529Y-3.4539
X1.5271Y-3.5375
X1.6772Y-1.9577
X1.7053Y-1.8495
X1.8331Y-2.6913
X1.8613Y-2.5831
X1.901Y-1.8079
X1.9707Y-1.8953
X1.9891Y-3.4249
X2.0172Y-3.3167
X2.0569Y-2.5415
X2.1266Y-2.6289
X2.2128Y-3.2751
X2.2825Y-3.3625
X2.3956Y-1.1821
X2.4293Y-1.0755
X2.5129Y-1.9228
X2.5467Y-1.8162
X2.6269Y-1.0442
X2.6302Y-2.6636
X2.664Y-2.557
X2.6919Y-1.1351
X2.7442Y-1.785
X2.8092Y-1.8759
X2.8615Y-2.5257
X2.9265Y-2.6167
X3.2466Y-0.9661
X3.2858Y-0.8615
X3.325Y-1.712
X3.3642Y-1.6073
X3.4034Y-2.4579
X3.4426Y-2.3532
X3.4847Y-0.8406
X3.5449Y-0.9348
X3.5631Y-1.5864
X3.6233Y-1.6807
X3.6415Y-2.3323
X3.7017Y-2.4266
X4.1231Y-0.986
X4.1624Y-1.7349
X4.1678Y-0.8835
X4.2016Y-3.32
X4.2016Y-2.4839
X4.2071Y-1.6324
X4.2463Y-2.3814
X4.2551Y-3.2218
X4.3676Y-0.873
X4.4068Y-1.622
X4.4227Y-0.9703
X4.4461Y-2.3709
X4.455Y-3.2288
X4.462Y-1.7192
X4.5012Y-2.4682
X4.5014Y-3.3305
X4.9833Y-3.3652
X4.9984Y-0.9567
X4.9984Y-1.7067
X4.9984Y-2.4567
X5.0435Y-3.271
X5.0484Y-0.8567
X5.0484Y-1.6067
X5.0484Y-2.3567
X5.2424Y-3.2919
X5.2484Y-0.8567
X5.2484Y-1.6067
X5.2484Y-2.3567
X5.2817Y-3.3965
X5.2984Y-0.9567
X5.2984Y-1.7067
X5.2984Y-2.4567
X5.7594Y-3.466
X5.826Y-3.3762
X6.023Y-3.411
X6.0548Y-3.5181
T4
X1.0203Y-2.2284
X1.214Y-2.9485
X1.4081Y-3.6729
X1.8447Y-2.0243
X2.0007Y-2.7579
X2.1566Y-3.4915
X2.5594Y-1.2574
X2.6767Y-1.9981
X2.794Y-2.7389
X3.4062Y-1.0499
X3.4846Y-1.7958
X3.563Y-2.5417
X4.2782Y-1.078
X4.3174Y-1.8269
X4.348Y-3.4252
X4.3567Y-2.5759
X5.122Y-3.4803
X5.1484Y-1.0567
X5.1484Y-1.8067
X5.1484Y-2.5567
X5.8898Y-3.5906
T5
X1.5385Y-2.5715
X1.7205Y-3.3435
X3.0485Y-1.6535
X3.286Y-3.2356
X4.7205Y-1.5157
X5.3583Y-3.0276
T0
M30
