0
SECTION
2
HEADER
9
$INSUNITS
70
4
9
$ACADVER
1
AC1014
9
$HANDSEED
5
FFFF
0
ENDSEC
0
SECTION
2
TABLES
0
TABLE
2
VPORT
5
8
100
AcDbSymbolTable
0
ENDTAB
0
TABLE
2
LTYPE
5
5
100
AcDbSymbolTable
0
LTYPE
5
14
100
AcDbSymbolTableRecord
100
AcDbLinetypeTableRecord
2
BYBLOCK
70
0
0
LTYPE
5
15
100
AcDbSymbolTableRecord
100
AcDbLinetypeTableRecord
2
BYLAYER
70
0
0
ENDTAB
0
TABLE
2
LAYER
5
2
100
AcDbSymbolTable
70
2
0
LAYER
5
50
100
AcDbSymbolTableRecord
100
AcDbLayerTableRecord
2
0
70
0
6
CONTINUOUS
0
ENDTAB
0
TABLE
2
STYLE
5
3
100
AcDbSymbolTable
70
1
0
STYLE
5
11
100
AcDbSymbolTableRecord
100
AcDbTextStyleTableRecord
2
STANDARD
70
0
0
ENDTAB
0
TABLE
2
VIEW
5
6
100
AcDbSymbolTable
70
0
0
ENDTAB
0
TABLE
2
UCS
5
7
100
AcDbSymbolTable
70
0
0
ENDTAB
0
TABLE
2
APPID
5
9
100
AcDbSymbolTable
70
2
0
APPID
5
12
100
AcDbSymbolTableRecord
100
AcDbRegAppTableRecord
2
ACAD
70
0
0
ENDTAB
0
TABLE
2
DIMSTYLE
5
A
100
AcDbSymbolTable
70
1
0
ENDTAB
0
TABLE
2
BLOCK_RECORD
5
1
100
AcDbSymbolTable
70
1
0
BLOCK_RECORD
5
1F
100
AcDbSymbolTableRecord
100
AcDbBlockTableRecord
2
*MODEL_SPACE
0
BLOCK_RECORD
5
1B
100
AcDbSymbolTableRecord
100
AcDbBlockTableRecord
2
*PAPER_SPACE
0
ENDTAB
0
ENDSEC
0
SECTION
2
BLOCKS
0
BLOCK
5
20
100
AcDbEntity
100
AcDbBlockBegin
2
*MODEL_SPACE
0
ENDBLK
5
21
100
AcDbEntity
100
AcDbBlockEnd
0
BLOCK
5
1C
100
AcDbEntity
100
AcDbBlockBegin
2
*PAPER_SPACE
0
ENDBLK
5
1D
100
AcDbEntity
100
AcDbBlockEnd
0
ENDSEC
0
SECTION
2
ENTITIES
0
CIRCLE
5
100
100
AcDbEntity
8
0
100
AcDbCircle
10
33.171385550083095
20
73.966910807812013
30
0
40
1.0000000000000011
210
0
220
-0
230
1
0
CIRCLE
5
101
100
AcDbEntity
8
0
100
AcDbCircle
10
-85.78333119098798
20
7.4213667881468304
30
0
40
0.99999999999999656
210
0
220
-0
230
1
0
CIRCLE
5
102
100
AcDbEntity
8
0
100
AcDbCircle
10
-109.7654418936439
20
102.4537310123695
30
0
40
0.99999999999999656
210
0
220
-0
230
1
0
CIRCLE
5
103
100
AcDbEntity
8
0
100
AcDbCircle
10
-34.252444348295512
20
8.6401504841586387
30
0
40
0.99999999999999656
210
0
220
-0
230
1
0
CIRCLE
5
104
100
AcDbEntity
8
0
100
AcDbCircle
10
24.732129097579776
20
105.38290999915147
30
0
40
0.99999999999999656
210
0
220
-0
230
1
0
CIRCLE
5
105
100
AcDbEntity
8
0
100
AcDbCircle
10
-68.317321292251336
20
97.164817299263788
30
0
40
0.99999999999999656
210
0
220
-0
230
1
0
CIRCLE
5
106
100
AcDbEntity
8
0
100
AcDbCircle
10
41.610642002586395
20
42.550911616472661
30
0
40
1.0000000000000036
210
0
220
-0
230
1
0
CIRCLE
5
107
100
AcDbEntity
8
0
100
AcDbCircle
10
-113.80109312522865
20
7.4346458093863799
30
0
40
0.99999999999997879
210
0
220
-0
230
1
0
CIRCLE
5
108
100
AcDbEntity
8
0
100
AcDbCircle
10
-114.57434618668987
20
45.389394326746881
30
0
40
1.0000000000000147
210
0
220
-0
230
1
0
CIRCLE
5
109
100
AcDbEntity
8
0
100
AcDbCircle
10
1.4125363967334081
20
16.166725857683339
30
0
40
0.99999999999999656
210
0
220
-0
230
1
0
CIRCLE
5
110
100
AcDbEntity
8
0
100
AcDbCircle
10
-15.617785598713159
20
95.641366807728119
30
0
40
0.99999999999999656
210
0
220
-0
230
1
0
LWPOLYLINE
5
111
100
AcDbEntity
8
0
100
AcDbPolyline
90
23
70
1
43
0.0
10
-51.082525600235158
20
2.8730176375362975
42
-0.028582209536233392
10
-51.65309357715639
20
2.8466357923517887
10
-112.78801232450476
20
3.5157171804383247
42
-0.40436501490200227
10
-117.7319946007573
20
8.4014384788189886
10
-118.57438871142361
20
45.345661663712384
10
-118.54626552174311
20
75.501230518651738
42
-0.043817051141036199
10
-118.46894965478171
20
76.372468372934165
10
-113.87820679287172
20
102.17306732298576
42
-0.41327466973710791
10
-108.09541372776182
20
106.22263180013555
10
-86.905130951420858
20
102.52227126959566
42
0.025484155630521779
10
-86.399559877068839
20
102.46032232003191
10
-49.504059885239712
20
99.837534042723078
42
0.01637565686790823
10
-49.176873657816849
20
99.825023162917347
10
-16.691895524733219
20
99.647302954080871
42
0.060665319377517651
10
-15.4911218112243
20
99.786869530772506
10
22.845836750371792
20
109.04243154290015
42
-0.40675260444973943
10
28.848063846237046
20
105.47923181958181
10
45.57416467801373
20
43.214603038276316
42
-0.32224565242506154
10
43.511668836547116
20
37.752408563089219
10
6.6373098711603076
20
13.261391584738604
42
-0.077381500913277293
10
5.2401101441271596
20
12.617525710662584
10
-15.903740840561515
20
6.5977949661969966
42
-0.043530262980936332
10
-16.757002909422472
20
6.4333777038707325
0
ENDSEC
0
SECTION
2
OBJECTS
0
DICTIONARY
5
C
100
AcDbDictionary
3
ACAD_GROUP
350
D
3
ACAD_MLINESTYLE
350
17
0
DICTIONARY
5
D
100
AcDbDictionary
0
DICTIONARY
5
1A
330
C
100
AcDbDictionary
0
DICTIONARY
5
17
100
AcDbDictionary
0
ENDSEC
0
EOF
