0
SECTION
2
HEADER
9
$INSUNITS
70
4
9
$ACADVER
1
AC1014
9
$HANDSEED
5
FFFF
0
ENDSEC
0
SECTION
2
TABLES
0
TABLE
2
VPORT
5
8
100
AcDbSymbolTable
0
ENDTAB
0
TABLE
2
LTYPE
5
5
100
AcDbSymbolTable
0
LTYPE
5
14
100
AcDbSymbolTableRecord
100
AcDbLinetypeTableRecord
2
BYBLOCK
70
0
0
LTYPE
5
15
100
AcDbSymbolTableRecord
100
AcDbLinetypeTableRecord
2
BYLAYER
70
0
0
ENDTAB
0
TABLE
2
LAYER
5
2
100
AcDbSymbolTable
70
2
0
LAYER
5
50
100
AcDbSymbolTableRecord
100
AcDbLayerTableRecord
2
0
70
0
6
CONTINUOUS
0
ENDTAB
0
TABLE
2
STYLE
5
3
100
AcDbSymbolTable
70
1
0
STYLE
5
11
100
AcDbSymbolTableRecord
100
AcDbTextStyleTableRecord
2
STANDARD
70
0
0
ENDTAB
0
TABLE
2
VIEW
5
6
100
AcDbSymbolTable
70
0
0
ENDTAB
0
TABLE
2
UCS
5
7
100
AcDbSymbolTable
70
0
0
ENDTAB
0
TABLE
2
APPID
5
9
100
AcDbSymbolTable
70
2
0
APPID
5
12
100
AcDbSymbolTableRecord
100
AcDbRegAppTableRecord
2
ACAD
70
0
0
ENDTAB
0
TABLE
2
DIMSTYLE
5
A
100
AcDbSymbolTable
70
1
0
ENDTAB
0
TABLE
2
BLOCK_RECORD
5
1
100
AcDbSymbolTable
70
1
0
BLOCK_RECORD
5
1F
100
AcDbSymbolTableRecord
100
AcDbBlockTableRecord
2
*MODEL_SPACE
0
BLOCK_RECORD
5
1B
100
AcDbSymbolTableRecord
100
AcDbBlockTableRecord
2
*PAPER_SPACE
0
ENDTAB
0
ENDSEC
0
SECTION
2
BLOCKS
0
BLOCK
5
20
100
AcDbEntity
100
AcDbBlockBegin
2
*MODEL_SPACE
0
ENDBLK
5
21
100
AcDbEntity
100
AcDbBlockEnd
0
BLOCK
5
1C
100
AcDbEntity
100
AcDbBlockBegin
2
*PAPER_SPACE
0
ENDBLK
5
1D
100
AcDbEntity
100
AcDbBlockEnd
0
ENDSEC
0
SECTION
2
ENTITIES
0
CIRCLE
5
100
100
AcDbEntity
8
0
100
AcDbCircle
10
-272.51394053345382
20
72.02163043886253
30
0
40
1.0000000000000142
210
0
220
-0
230
1
0
CIRCLE
5
101
100
AcDbEntity
8
0
100
AcDbCircle
10
-152.93204083702997
20
6.6098323530726155
30
0
40
1.0000000000000142
210
0
220
-0
230
1
0
CIRCLE
5
102
100
AcDbEntity
8
0
100
AcDbCircle
10
-129.85435605845208
20
101.86586811490953
30
0
40
1.0000000000000142
210
0
220
-0
230
1
0
CIRCLE
5
103
100
AcDbEntity
8
0
100
AcDbCircle
10
-171.2503296008216
20
96.183202883551289
30
0
40
1.0000000000000142
210
0
220
-0
230
1
0
CIRCLE
5
104
100
AcDbEntity
8
0
100
AcDbCircle
10
-204.47218484525538
20
7.3387274782109913
30
0
40
1.0000000000000142
210
0
220
-0
230
1
0
CIRCLE
5
105
100
AcDbEntity
8
0
100
AcDbCircle
10
-264.37369420424739
20
103.51643071384757
30
0
40
1.0000000000000142
210
0
220
-0
230
1
0
CIRCLE
5
106
100
AcDbEntity
8
0
100
AcDbCircle
10
-280.65418686266031
20
40.52683016387752
30
0
40
1.0000000000000142
210
0
220
-0
230
1
0
CIRCLE
5
107
100
AcDbEntity
8
0
100
AcDbCircle
10
-124.91567095712698
20
6.8894372325862818
30
0
40
1.0000000000000142
210
0
220
-0
230
1
0
CIRCLE
5
108
100
AcDbEntity
8
0
100
AcDbCircle
10
-124.50323659970125
20
44.849821229774236
30
0
40
1.0000000000000142
210
0
220
-0
230
1
0
CIRCLE
5
109
100
AcDbEntity
8
0
100
AcDbCircle
10
-240.20709909901785
20
14.525944719458206
30
0
40
1.0000000000000142
210
0
220
-0
230
1
0
CIRCLE
5
110
100
AcDbEntity
8
0
100
AcDbCircle
10
-223.93300299931775
20
94.158878971216524
30
0
40
1.0000000000000142
210
0
220
-0
230
1
0
LWPOLYLINE
5
111
100
AcDbEntity
8
0
100
AcDbPolyline
90
23
70
1
43
0.0
10
-222.90758359182621
20
6.0163696988976643
42
-0.043530262980929442
10
-223.76084566068712
20
6.180786961223923
10
-244.90469664537588
20
12.200517705689553
42
-0.077381500913286563
10
-246.30189637240906
20
12.844383579765601
10
-283.17625533779574
20
37.335400558116085
42
-0.32224565242505815
10
-285.23875117926241
20
42.797595033303253
10
-268.51265034748559
20
105.06222381460871
42
-0.40675260444974448
10
-262.51042325162047
20
108.62542353792693
10
-224.17346469002644
20
99.369861525799678
42
0.060665319377512544
10
-222.97269097651764
20
99.230294949108014
10
-190.48771284343854
20
99.408015157944021
42
0.016375656867909927
10
-190.16052661601563
20
99.420526037749795
10
-153.26502662418622
20
102.04331431505823
42
0.025484155630526147
10
-152.75945554983412
20
102.10526326462202
10
-131.56917277348683
20
105.80562379516275
42
-0.4132746697371123
10
-125.78637970837667
20
101.75605931801289
10
-121.19563710247687
20
75.955461806770941
42
-0.043816808972797577
10
-121.11832124002605
20
75.084228786570591
10
-121.05882584535857
20
11.355345994523098
10
-121.05882584535861
20
8.0979815949366021
42
-0.41105858633046338
10
-126.00490806701552
20
3.0982723160706627
10
-188.01189405971886
20
2.4295776500412996
42
-0.028542142067680992
10
-188.58166138772592
20
2.4559681936851518
0
ENDSEC
0
SECTION
2
OBJECTS
0
DICTIONARY
5
C
100
AcDbDictionary
3
ACAD_GROUP
350
D
3
ACAD_MLINESTYLE
350
17
0
DICTIONARY
5
D
100
AcDbDictionary
0
DICTIONARY
5
1A
330
C
100
AcDbDictionary
0
DICTIONARY
5
17
100
AcDbDictionary
0
ENDSEC
0
EOF
