0
SECTION
2
HEADER
9
$INSUNITS
70
4
9
$ACADVER
1
AC1014
9
$HANDSEED
5
FFFF
0
ENDSEC
0
SECTION
2
TABLES
0
TABLE
2
VPORT
5
8
100
AcDbSymbolTable
0
ENDTAB
0
TABLE
2
LTYPE
5
5
100
AcDbSymbolTable
0
LTYPE
5
14
100
AcDbSymbolTableRecord
100
AcDbLinetypeTableRecord
2
BYBLOCK
70
0
0
LTYPE
5
15
100
AcDbSymbolTableRecord
100
AcDbLinetypeTableRecord
2
BYLAYER
70
0
0
ENDTAB
0
TABLE
2
LAYER
5
2
100
AcDbSymbolTable
70
2
0
LAYER
5
50
100
AcDbSymbolTableRecord
100
AcDbLayerTableRecord
2
0
70
0
6
CONTINUOUS
0
ENDTAB
0
TABLE
2
STYLE
5
3
100
AcDbSymbolTable
70
1
0
STYLE
5
11
100
AcDbSymbolTableRecord
100
AcDbTextStyleTableRecord
2
STANDARD
70
0
0
ENDTAB
0
TABLE
2
VIEW
5
6
100
AcDbSymbolTable
70
0
0
ENDTAB
0
TABLE
2
UCS
5
7
100
AcDbSymbolTable
70
0
0
ENDTAB
0
TABLE
2
APPID
5
9
100
AcDbSymbolTable
70
2
0
APPID
5
12
100
AcDbSymbolTableRecord
100
AcDbRegAppTableRecord
2
ACAD
70
0
0
ENDTAB
0
TABLE
2
DIMSTYLE
5
A
100
AcDbSymbolTable
70
1
0
ENDTAB
0
TABLE
2
BLOCK_RECORD
5
1
100
AcDbSymbolTable
70
1
0
BLOCK_RECORD
5
1F
100
AcDbSymbolTableRecord
100
AcDbBlockTableRecord
2
*MODEL_SPACE
0
BLOCK_RECORD
5
1B
100
AcDbSymbolTableRecord
100
AcDbBlockTableRecord
2
*PAPER_SPACE
0
ENDTAB
0
ENDSEC
0
SECTION
2
BLOCKS
0
BLOCK
5
20
100
AcDbEntity
100
AcDbBlockBegin
2
*MODEL_SPACE
0
ENDBLK
5
21
100
AcDbEntity
100
AcDbBlockEnd
0
BLOCK
5
1C
100
AcDbEntity
100
AcDbBlockBegin
2
*PAPER_SPACE
0
ENDBLK
5
1D
100
AcDbEntity
100
AcDbBlockEnd
0
ENDSEC
0
SECTION
2
ENTITIES
0
CIRCLE
5
100
100
AcDbEntity
8
0
100
AcDbCircle
10
133.36263698194085
20
6.8570748880954424
30
0
40
1.4999999999999858
210
0
220
-0
230
1
0
CIRCLE
5
101
100
AcDbEntity
8
0
100
AcDbCircle
10
73.461127622948794
20
103.034778123732
30
0
40
1.4999999999999858
210
0
220
-0
230
1
0
CIRCLE
5
102
100
AcDbEntity
8
0
100
AcDbCircle
10
207.98046576874407
20
101.384215524794
30
0
40
1.4999999999999858
210
0
220
-0
230
1
0
CIRCLE
5
103
100
AcDbEntity
8
0
100
AcDbCircle
10
65.320881293742389
20
71.539977848746929
30
0
40
1.4999999999999858
210
0
220
-0
230
1
0
CIRCLE
5
104
100
AcDbEntity
8
0
100
AcDbCircle
10
184.90278099016621
20
6.1281797629571022
30
0
40
1.4999999999999858
210
0
220
-0
230
1
0
CIRCLE
5
105
100
AcDbEntity
8
0
100
AcDbCircle
10
213.33158522749494
20
44.36816863965872
30
0
40
1.4999999999999858
210
0
220
-0
230
1
0
CIRCLE
5
106
100
AcDbEntity
8
0
100
AcDbCircle
10
97.627722728178384
20
14.044292129342622
30
0
40
1.4999999999999858
210
0
220
-0
230
1
0
CIRCLE
5
107
100
AcDbEntity
8
0
100
AcDbCircle
10
113.90181882787843
20
93.677226381100951
30
0
40
1.4999999999999858
210
0
220
-0
230
1
0
CIRCLE
5
108
100
AcDbEntity
8
0
100
AcDbCircle
10
166.58449222637458
20
95.70155029343573
30
0
40
1.4999999999999858
210
0
220
-0
230
1
0
CIRCLE
5
109
100
AcDbEntity
8
0
100
AcDbCircle
10
57.180634964535919
20
40.045177573761919
30
0
40
1.4999999999999858
210
0
220
-0
230
1
0
CIRCLE
5
110
100
AcDbEntity
8
0
100
AcDbCircle
10
212.91915087006927
20
6.4077846424707463
30
0
40
1.4999999999999858
210
0
220
-0
230
1
0
LWPOLYLINE
5
111
100
AcDbEntity
8
0
100
AcDbPolyline
90
23
70
1
43
0.0
10
114.92723823537004
20
5.5347171087821252
42
-0.043530262980937449
10
114.07397616650913
20
5.6991343711083831
10
92.930125181820316
20
11.718865115573962
42
-0.077381500913280638
10
91.532925454787176
20
12.362730989650007
10
54.658566489400471
20
36.853747968000498
42
-0.32224565242506148
10
52.596070647933814
20
42.315942443187673
10
69.322171479710534
20
104.58057122449311
42
-0.40675260444974393
10
75.3243985755757
20
108.14377094781135
10
113.6613571371697
20
98.888208935684091
42
0.060665319377515098
10
114.86213085067857
20
98.748642358992441
10
147.34710898375766
20
98.926362567828448
42
0.01637565686790908
10
147.67429521118055
20
98.938873447634222
10
184.56979520300996
20
101.56166172494268
42
0.025484155630526147
10
185.07536627736209
20
101.62361067450649
10
206.26564905370935
20
105.32397120504726
42
-0.41327466973711863
10
212.04844211881948
20
101.27440672789734
10
216.63918472471934
20
75.47380921665544
42
-0.043816808972837289
10
216.71650058717012
20
74.60257619645509
10
216.7759959818377
20
10.873693404407589
10
216.77599598183764
20
7.616329004821095
42
-0.41105858633046832
10
211.82991376018072
20
2.6166197259551449
10
149.82292776747738
20
1.9479250599257507
42
-0.028542142067679993
10
149.25316043947032
20
1.9743156035695986
0
LWPOLYLINE
5
112
100
AcDbEntity
8
0
100
AcDbPolyline
90
17
70
1
43
0.0
10
208.77599598183764
20
10.869959180315227
10
208.71674998183764
20
74.331701180315235
10
204.69600898183756
20
96.928812180315234
10
185.79840898183761
20
93.628812180315208
10
147.81674998183757
20
90.928812180315191
10
113.32279598183759
20
90.740101180315207
10
76.289595981837607
20
99.680901180315146
10
61.45599598183761
20
44.461301180315154
10
82.842795981837554
20
38.619301180315155
10
103.77239598183763
20
34.047301180315173
10
101.33399598183763
20
18.604101180315173
10
123.53359598183765
20
15.149701180315178
10
123.27959598183764
20
12.711301180315191
10
142.38039598183761
20
10.730101180315202
10
142.52760298183765
20
12.193959180315197
10
165.03719598183764
20
10.669959180315193
10
208.77599598183764
20
10.669959180315232
0
ENDSEC
0
SECTION
2
OBJECTS
0
DICTIONARY
5
C
100
AcDbDictionary
3
ACAD_GROUP
350
D
3
ACAD_MLINESTYLE
350
17
0
DICTIONARY
5
D
100
AcDbDictionary
0
DICTIONARY
5
1A
330
C
100
AcDbDictionary
0
DICTIONARY
5
17
100
AcDbDictionary
0
ENDSEC
0
EOF
