0
SECTION
2
HEADER
9
$INSUNITS
70
4
9
$ACADVER
1
AC1014
9
$HANDSEED
5
FFFF
0
ENDSEC
0
SECTION
2
TABLES
0
TABLE
2
VPORT
5
8
100
AcDbSymbolTable
0
ENDTAB
0
TABLE
2
LTYPE
5
5
100
AcDbSymbolTable
0
LTYPE
5
14
100
AcDbSymbolTableRecord
100
AcDbLinetypeTableRecord
2
BYBLOCK
70
0
0
LTYPE
5
15
100
AcDbSymbolTableRecord
100
AcDbLinetypeTableRecord
2
BYLAYER
70
0
0
ENDTAB
0
TABLE
2
LAYER
5
2
100
AcDbSymbolTable
70
2
0
LAYER
5
50
100
AcDbSymbolTableRecord
100
AcDbLayerTableRecord
2
0
70
0
6
CONTINUOUS
0
ENDTAB
0
TABLE
2
STYLE
5
3
100
AcDbSymbolTable
70
1
0
STYLE
5
11
100
AcDbSymbolTableRecord
100
AcDbTextStyleTableRecord
2
STANDARD
70
0
0
ENDTAB
0
TABLE
2
VIEW
5
6
100
AcDbSymbolTable
70
0
0
ENDTAB
0
TABLE
2
UCS
5
7
100
AcDbSymbolTable
70
0
0
ENDTAB
0
TABLE
2
APPID
5
9
100
AcDbSymbolTable
70
2
0
APPID
5
12
100
AcDbSymbolTableRecord
100
AcDbRegAppTableRecord
2
ACAD
70
0
0
ENDTAB
0
TABLE
2
DIMSTYLE
5
A
100
AcDbSymbolTable
70
1
0
ENDTAB
0
TABLE
2
BLOCK_RECORD
5
1
100
AcDbSymbolTable
70
1
0
BLOCK_RECORD
5
1F
100
AcDbSymbolTableRecord
100
AcDbBlockTableRecord
2
*MODEL_SPACE
0
BLOCK_RECORD
5
1B
100
AcDbSymbolTableRecord
100
AcDbBlockTableRecord
2
*PAPER_SPACE
0
ENDTAB
0
ENDSEC
0
SECTION
2
BLOCKS
0
BLOCK
5
20
100
AcDbEntity
100
AcDbBlockBegin
2
*MODEL_SPACE
0
ENDBLK
5
21
100
AcDbEntity
100
AcDbBlockEnd
0
BLOCK
5
1C
100
AcDbEntity
100
AcDbBlockBegin
2
*PAPER_SPACE
0
ENDBLK
5
1D
100
AcDbEntity
100
AcDbBlockEnd
0
ENDSEC
0
SECTION
2
ENTITIES
0
CIRCLE
5
100
100
AcDbEntity
8
0
100
AcDbCircle
10
134.46264724446104
20
-204.43803989612371
30
0
40
1.499999999999986
210
0
220
-0
230
1
0
CIRCLE
5
101
100
AcDbEntity
8
0
100
AcDbCircle
10
74.56113788546898
20
-108.2603366604871
30
0
40
1.499999999999986
210
0
220
-0
230
1
0
CIRCLE
5
102
100
AcDbEntity
8
0
100
AcDbCircle
10
209.08047603126431
20
-109.91089925942512
30
0
40
1.499999999999986
210
0
220
-0
230
1
0
CIRCLE
5
103
100
AcDbEntity
8
0
100
AcDbCircle
10
66.420891556262589
20
-139.75513693547211
30
0
40
1.499999999999986
210
0
220
-0
230
1
0
CIRCLE
5
104
100
AcDbEntity
8
0
100
AcDbCircle
10
186.00279125268642
20
-205.16693502126202
30
0
40
1.499999999999986
210
0
220
-0
230
1
0
CIRCLE
5
105
100
AcDbEntity
8
0
100
AcDbCircle
10
214.43159549001513
20
-166.92694614456042
30
0
40
1.499999999999986
210
0
220
-0
230
1
0
CIRCLE
5
106
100
AcDbEntity
8
0
100
AcDbCircle
10
98.727732990698513
20
-197.25082265487652
30
0
40
1.499999999999986
210
0
220
-0
230
1
0
CIRCLE
5
107
100
AcDbEntity
8
0
100
AcDbCircle
10
115.00182909039862
20
-117.61788840311812
30
0
40
1.499999999999986
210
0
220
-0
230
1
0
CIRCLE
5
108
100
AcDbEntity
8
0
100
AcDbCircle
10
167.68450248889479
20
-115.59356449078336
30
0
40
1.499999999999986
210
0
220
-0
230
1
0
CIRCLE
5
109
100
AcDbEntity
8
0
100
AcDbCircle
10
58.280645227056098
20
-171.24993721045715
30
0
40
1.499999999999986
210
0
220
-0
230
1
0
CIRCLE
5
110
100
AcDbEntity
8
0
100
AcDbCircle
10
214.01916113258943
20
-204.88733014174841
30
0
40
1.499999999999986
210
0
220
-0
230
1
0
LWPOLYLINE
5
111
100
AcDbEntity
8
0
100
AcDbPolyline
90
23
70
1
43
0.0
10
116.02724849789018
20
-205.76039767543705
42
-0.043530262980926548
10
115.17398642902927
20
-205.59598041311077
10
94.030135444340516
20
-199.57624966864515
42
-0.077381500913284662
10
92.632935717307333
20
-198.93238379456909
10
55.758576751920629
20
-174.44136681621856
42
-0.32224565242505976
10
53.696080910453986
20
-168.97917234103141
10
70.422181742230777
20
-106.714543559726
42
-0.4067526044497396
10
76.424408838095857
20
-103.15134383640775
10
114.7613673996899
20
-112.40690584853496
42
0.060665319377514168
10
115.96214111319874
20
-112.54647242522665
10
148.44711924627785
20
-112.36875221639065
42
0.01637565686790908
10
148.77430547370074
20
-112.35624133658487
10
185.6698054655302
20
-109.7334530592764
42
0.025484155630526147
10
186.17537653988228
20
-109.6715041097126
10
207.36565931622954
20
-105.97114357917181
42
-0.41327466973711896
10
213.14845238133972
20
-110.02070805632175
10
217.73919498723953
20
-135.82130556756366
42
-0.043816808972837178
10
217.8165108496903
20
-136.69253858776403
10
217.87600624435782
20
-200.42142137981153
10
217.8760062443578
20
-203.67878577939805
42
-0.41105858633046671
10
212.9299240227009
20
-208.67849505826399
10
150.92293802999757
20
-209.34718972429329
42
-0.028542142067648772
10
150.35317070199054
20
-209.32079918064949
0
LWPOLYLINE
5
112
100
AcDbEntity
8
0
100
AcDbPolyline
90
17
70
1
43
0.0
10
209.87600624435785
20
-200.42515560390385
10
209.81676024435785
20
-136.96341360390389
10
205.79601924435781
20
-114.36630260390388
10
186.89841924435783
20
-117.66630260390389
10
148.91676024435779
20
-120.3663026039039
10
114.42280624435782
20
-120.55501360390392
10
77.389606244357807
20
-111.61421360390392
10
62.556006244357775
20
-166.83381360390393
10
83.942806244357683
20
-172.67581360390392
10
104.87240624435782
20
-177.24781360390386
10
102.43400624435779
20
-192.69101360390394
10
124.63360624435782
20
-196.1454136039039
10
124.37960624435786
20
-198.58381360390388
10
143.48040624435777
20
-200.56501360390394
10
143.62761324435783
20
-199.10115560390395
10
166.13720624435786
20
-200.62515560390395
10
209.87600624435785
20
-200.62515560390386
0
ENDSEC
0
SECTION
2
OBJECTS
0
DICTIONARY
5
C
100
AcDbDictionary
3
ACAD_GROUP
350
D
3
ACAD_MLINESTYLE
350
17
0
DICTIONARY
5
D
100
AcDbDictionary
0
DICTIONARY
5
1A
330
C
100
AcDbDictionary
0
DICTIONARY
5
17
100
AcDbDictionary
0
ENDSEC
0
EOF
