0
SECTION
2
HEADER
9
$INSUNITS
70
4
9
$ACADVER
1
AC1014
9
$HANDSEED
5
FFFF
0
ENDSEC
0
SECTION
2
TABLES
0
TABLE
2
VPORT
5
8
100
AcDbSymbolTable
0
ENDTAB
0
TABLE
2
LTYPE
5
5
100
AcDbSymbolTable
0
LTYPE
5
14
100
AcDbSymbolTableRecord
100
AcDbLinetypeTableRecord
2
BYBLOCK
70
0
0
LTYPE
5
15
100
AcDbSymbolTableRecord
100
AcDbLinetypeTableRecord
2
BYLAYER
70
0
0
ENDTAB
0
TABLE
2
LAYER
5
2
100
AcDbSymbolTable
70
2
0
LAYER
5
50
100
AcDbSymbolTableRecord
100
AcDbLayerTableRecord
2
0
70
0
6
CONTINUOUS
0
ENDTAB
0
TABLE
2
STYLE
5
3
100
AcDbSymbolTable
70
1
0
STYLE
5
11
100
AcDbSymbolTableRecord
100
AcDbTextStyleTableRecord
2
STANDARD
70
0
0
ENDTAB
0
TABLE
2
VIEW
5
6
100
AcDbSymbolTable
70
0
0
ENDTAB
0
TABLE
2
UCS
5
7
100
AcDbSymbolTable
70
0
0
ENDTAB
0
TABLE
2
APPID
5
9
100
AcDbSymbolTable
70
2
0
APPID
5
12
100
AcDbSymbolTableRecord
100
AcDbRegAppTableRecord
2
ACAD
70
0
0
ENDTAB
0
TABLE
2
DIMSTYLE
5
A
100
AcDbSymbolTable
70
1
0
ENDTAB
0
TABLE
2
BLOCK_RECORD
5
1
100
AcDbSymbolTable
70
1
0
BLOCK_RECORD
5
1F
100
AcDbSymbolTableRecord
100
AcDbBlockTableRecord
2
*MODEL_SPACE
0
BLOCK_RECORD
5
1B
100
AcDbSymbolTableRecord
100
AcDbBlockTableRecord
2
*PAPER_SPACE
0
ENDTAB
0
ENDSEC
0
SECTION
2
BLOCKS
0
BLOCK
5
20
100
AcDbEntity
100
AcDbBlockBegin
2
*MODEL_SPACE
0
ENDBLK
5
21
100
AcDbEntity
100
AcDbBlockEnd
0
BLOCK
5
1C
100
AcDbEntity
100
AcDbBlockBegin
2
*PAPER_SPACE
0
ENDBLK
5
1D
100
AcDbEntity
100
AcDbBlockEnd
0
ENDSEC
0
SECTION
2
ENTITIES
0
CIRCLE
5
100
100
AcDbEntity
8
0
100
AcDbCircle
10
269.37297900666351
20
97.363661032562135
30
0
40
1.500000000000004
210
0
220
-0
230
1
0
CIRCLE
5
101
100
AcDbEntity
8
0
100
AcDbCircle
10
379.30094230150138
20
42.749755349771085
30
0
40
1.5000000000000018
210
0
220
-0
230
1
0
CIRCLE
5
102
100
AcDbEntity
8
0
100
AcDbCircle
10
223.88920717368626
20
7.6334895426846838
30
0
40
1.4999999999999867
210
0
220
-0
230
1
0
CIRCLE
5
103
100
AcDbEntity
8
0
100
AcDbCircle
10
251.90696910792701
20
7.6202105214451432
30
0
40
1.500000000000004
210
0
220
-0
230
1
0
CIRCLE
5
104
100
AcDbEntity
8
0
100
AcDbCircle
10
370.86168584899809
20
74.165754541110459
30
0
40
1.500000000000004
210
0
220
-0
230
1
0
CIRCLE
5
105
100
AcDbEntity
8
0
100
AcDbCircle
10
227.92485840527098
20
102.65257474566783
30
0
40
1.4999999999999867
210
0
220
-0
230
1
0
CIRCLE
5
106
100
AcDbEntity
8
0
100
AcDbCircle
10
322.07251470020168
20
95.840210541026522
30
0
40
1.4999999999999951
210
0
220
-0
230
1
0
CIRCLE
5
107
100
AcDbEntity
8
0
100
AcDbCircle
10
339.10283669564842
20
16.36556959098175
30
0
40
1.500000000000004
210
0
220
-0
230
1
0
CIRCLE
5
108
100
AcDbEntity
8
0
100
AcDbCircle
10
303.43785595061945
20
8.8389942174570102
30
0
40
1.500000000000004
210
0
220
-0
230
1
0
CIRCLE
5
109
100
AcDbEntity
8
0
100
AcDbCircle
10
362.42242939649481
20
105.5817537324499
30
0
40
1.4999999999999996
210
0
220
-0
230
1
0
CIRCLE
5
110
100
AcDbEntity
8
0
100
AcDbCircle
10
223.11595411222504
20
45.5882380600452
30
0
40
1.4999999999999867
210
0
220
-0
230
1
0
LWPOLYLINE
5
111
100
AcDbEntity
8
0
100
AcDbPolyline
90
43
70
1
43
0.0
10
286.60777469868003
20
3.0718613708346707
42
-0.028582209536241167
10
286.03720672175888
20
3.0454795256501614
10
246.97793264302499
20
3.4729575341881791
10
246.97793264302499
20
11.767463508702004
10
270.82333964302484
20
11.767463508701947
10
293.33293264302495
20
13.291463508702105
10
293.48013964302487
20
11.827605508702099
10
312.58093964302498
20
13.80880550870212
10
312.3269396430249
20
16.247205508702113
10
334.52653964302493
20
19.701605508702098
10
332.08813964302493
20
35.144805508702177
10
353.01773964302492
20
39.716805508702215
10
374.40453964302492
20
45.558805508702221
10
359.57093964302476
20
100.77840550870221
10
322.53773964302479
20
91.837605508702111
10
288.04378564302482
20
92.026316508702052
10
250.06212664302473
20
94.726316508702013
10
231.16452664302494
20
98.026316508702024
10
227.14378564302501
20
75.429205508701926
10
227.11599663695887
20
45.631970723079753
10
227.88816773649373
20
11.767463508702015
10
227.88816773649359
20
3.6818824279087181
10
224.9022879744102
20
3.7145609137366424
42
-0.40436501490199944
10
219.95830569815766
20
8.6002822121172926
10
219.11591158749133
20
45.544505397010688
10
219.14403477717175
20
75.700074251950014
42
-0.043817051141081247
10
219.22135064413317
20
76.571312106232469
10
223.81209350604323
20
102.37191105628411
42
-0.41327466973710619
10
229.59488657115301
20
106.42147553343386
10
250.78516934749399
20
102.72111500289405
42
0.025484155630524238
10
251.29074042184607
20
102.6591660533303
10
288.18624041367519
20
100.03637777602148
42
0.01637565686791035
10
288.51342664109808
20
100.02386689621571
10
320.99840477418172
20
99.846146687379246
42
0.060665319377516611
10
322.19917848769057
20
99.985713264070952
10
360.53613704928671
20
109.24127527619851
42
-0.40675260444973488
10
366.53836414515195
20
105.67807555288024
10
383.26446497692865
20
43.413446771574733
42
-0.32224565242504533
10
381.20196913546204
20
37.951252296387672
10
344.32761017007527
20
13.460235318036982
42
-0.077381500913273379
10
342.93041044304221
20
12.816369443960976
10
321.78655945835345
20
6.7966386994953734
42
-0.04353026298091843
10
320.93329738949251
20
6.6322214371691102
0
ENDSEC
0
SECTION
2
OBJECTS
0
DICTIONARY
5
C
100
AcDbDictionary
3
ACAD_GROUP
350
D
3
ACAD_MLINESTYLE
350
17
0
DICTIONARY
5
D
100
AcDbDictionary
0
DICTIONARY
5
1A
330
C
100
AcDbDictionary
0
DICTIONARY
5
17
100
AcDbDictionary
0
ENDSEC
0
EOF
