0
SECTION
2
HEADER
9
$INSUNITS
70
4
9
$ACADVER
1
AC1014
9
$HANDSEED
5
FFFF
0
ENDSEC
0
SECTION
2
TABLES
0
TABLE
2
VPORT
5
8
100
AcDbSymbolTable
0
ENDTAB
0
TABLE
2
LTYPE
5
5
100
AcDbSymbolTable
0
LTYPE
5
14
100
AcDbSymbolTableRecord
100
AcDbLinetypeTableRecord
2
BYBLOCK
70
0
0
LTYPE
5
15
100
AcDbSymbolTableRecord
100
AcDbLinetypeTableRecord
2
BYLAYER
70
0
0
ENDTAB
0
TABLE
2
LAYER
5
2
100
AcDbSymbolTable
70
2
0
LAYER
5
50
100
AcDbSymbolTableRecord
100
AcDbLayerTableRecord
2
0
70
0
6
CONTINUOUS
0
ENDTAB
0
TABLE
2
STYLE
5
3
100
AcDbSymbolTable
70
1
0
STYLE
5
11
100
AcDbSymbolTableRecord
100
AcDbTextStyleTableRecord
2
STANDARD
70
0
0
ENDTAB
0
TABLE
2
VIEW
5
6
100
AcDbSymbolTable
70
0
0
ENDTAB
0
TABLE
2
UCS
5
7
100
AcDbSymbolTable
70
0
0
ENDTAB
0
TABLE
2
APPID
5
9
100
AcDbSymbolTable
70
2
0
APPID
5
12
100
AcDbSymbolTableRecord
100
AcDbRegAppTableRecord
2
ACAD
70
0
0
ENDTAB
0
TABLE
2
DIMSTYLE
5
A
100
AcDbSymbolTable
70
1
0
ENDTAB
0
TABLE
2
BLOCK_RECORD
5
1
100
AcDbSymbolTable
70
1
0
BLOCK_RECORD
5
1F
100
AcDbSymbolTableRecord
100
AcDbBlockTableRecord
2
*MODEL_SPACE
0
BLOCK_RECORD
5
1B
100
AcDbSymbolTableRecord
100
AcDbBlockTableRecord
2
*PAPER_SPACE
0
ENDTAB
0
ENDSEC
0
SECTION
2
BLOCKS
0
BLOCK
5
20
100
AcDbEntity
100
AcDbBlockBegin
2
*MODEL_SPACE
0
ENDBLK
5
21
100
AcDbEntity
100
AcDbBlockEnd
0
BLOCK
5
1C
100
AcDbEntity
100
AcDbBlockBegin
2
*PAPER_SPACE
0
ENDBLK
5
1D
100
AcDbEntity
100
AcDbBlockEnd
0
ENDSEC
0
SECTION
2
ENTITIES
0
CIRCLE
5
100
100
AcDbEntity
8
0
100
AcDbCircle
10
271.33675736931741
20
-114.24733778785097
30
0
40
1.500000000000004
210
0
220
-0
230
1
0
CIRCLE
5
101
100
AcDbEntity
8
0
100
AcDbCircle
10
381.26472066415522
20
-168.86124347064214
30
0
40
1.5000000000000018
210
0
220
-0
230
1
0
CIRCLE
5
102
100
AcDbEntity
8
0
100
AcDbCircle
10
225.8529855363401
20
-203.97750927772833
30
0
40
1.4999999999999862
210
0
220
-0
230
1
0
CIRCLE
5
103
100
AcDbEntity
8
0
100
AcDbCircle
10
253.87074747058082
20
-203.99078829896794
30
0
40
1.500000000000004
210
0
220
-0
230
1
0
CIRCLE
5
104
100
AcDbEntity
8
0
100
AcDbCircle
10
372.82546421165193
20
-137.44524427930273
30
0
40
1.500000000000004
210
0
220
-0
230
1
0
CIRCLE
5
105
100
AcDbEntity
8
0
100
AcDbCircle
10
229.88863676792491
20
-108.9584240747453
30
0
40
1.4999999999999862
210
0
220
-0
230
1
0
CIRCLE
5
106
100
AcDbEntity
8
0
100
AcDbCircle
10
324.03629306285558
20
-115.77078827938664
30
0
40
1.4999999999999949
210
0
220
-0
230
1
0
CIRCLE
5
107
100
AcDbEntity
8
0
100
AcDbCircle
10
341.0666150583022
20
-195.24542922943144
30
0
40
1.500000000000004
210
0
220
-0
230
1
0
CIRCLE
5
108
100
AcDbEntity
8
0
100
AcDbCircle
10
305.40163431327335
20
-202.77200460295609
30
0
40
1.500000000000004
210
0
220
-0
230
1
0
CIRCLE
5
109
100
AcDbEntity
8
0
100
AcDbCircle
10
364.38620775914865
20
-106.02924508796328
30
0
40
1.4999999999999993
210
0
220
-0
230
1
0
CIRCLE
5
110
100
AcDbEntity
8
0
100
AcDbCircle
10
225.07973247487894
20
-166.02276076036785
30
0
40
1.4999999999999862
210
0
220
-0
230
1
0
LWPOLYLINE
5
111
100
AcDbEntity
8
0
100
AcDbPolyline
90
43
70
1
43
0.0
10
288.57155306133387
20
-208.53913744957848
42
-0.028582209536195391
10
288.00098508441266
20
-208.56551929476296
10
248.94171100567888
20
-208.13804128622493
10
248.94171100567883
20
-199.84353531171107
10
272.78711800567868
20
-199.84353531171112
10
295.29671100567884
20
-198.31953531171104
10
295.44391800567871
20
-199.78339331171102
10
314.54471800567882
20
-197.80219331171105
10
314.29071800567874
20
-195.36379331171099
10
336.49031800567866
20
-191.90939331171109
10
334.05191800567877
20
-176.46619331171098
10
354.98151800567882
20
-171.89419331171098
10
376.36831800567893
20
-166.05219331171097
10
361.53471800567866
20
-110.83259331171095
10
324.50151800567875
20
-119.77339331171102
10
290.00756400567872
20
-119.58468231171103
10
252.02590500567865
20
-116.88468231171107
10
233.12830500567887
20
-113.58468231171105
10
229.10756400567888
20
-136.18179331171115
10
229.07977499961271
20
-165.97902809733336
10
229.85194609914757
20
-199.84353531171107
10
229.85194609914743
20
-207.92911639250434
10
226.86606633706404
20
-207.89643790667643
42
-0.40436501490200311
10
221.9220840608115
20
-203.0107166082957
10
221.07968995014517
20
-166.06649342340236
10
221.10781313982559
20
-135.91092456846303
42
-0.043817051141079692
10
221.18512900678701
20
-135.03968671418062
10
225.77587186869707
20
-109.23908776412895
42
-0.41327466973710564
10
231.55866493380697
20
-105.18952328697918
10
252.74894771014797
20
-108.88988381751906
42
0.02548415563052096
10
253.25451878449996
20
-108.95183276708283
10
290.15001877632909
20
-111.57462104439168
42
0.01637565686791035
10
290.47720500375198
20
-111.58713192419739
10
322.96218313683562
20
-111.76485213303393
42
0.060665319377520323
10
324.16295685034459
20
-111.62528555634222
10
362.49991541194061
20
-102.36972354421457
42
-0.40675260444973094
10
368.5021425078059
20
-105.93292326753293
10
385.22824333958255
20
-168.19755204883845
42
-0.32224565242503828
10
383.16574749811593
20
-173.65974652402554
10
346.29138853272912
20
-198.15076350237618
42
-0.077381500913255949
10
344.89418880569599
20
-198.79462937645215
10
323.75033782100729
20
-204.81436012091774
42
-0.043530262980997846
10
322.89707575214635
20
-204.97877738324402
0
ENDSEC
0
SECTION
2
OBJECTS
0
DICTIONARY
5
C
100
AcDbDictionary
3
ACAD_GROUP
350
D
3
ACAD_MLINESTYLE
350
17
0
DICTIONARY
5
D
100
AcDbDictionary
0
DICTIONARY
5
1A
330
C
100
AcDbDictionary
0
DICTIONARY
5
17
100
AcDbDictionary
0
ENDSEC
0
EOF
