0
SECTION
2
HEADER
9
$INSUNITS
70
4
9
$ACADVER
1
AC1014
9
$HANDSEED
5
FFFF
0
ENDSEC
0
SECTION
2
TABLES
0
TABLE
2
VPORT
5
8
100
AcDbSymbolTable
0
ENDTAB
0
TABLE
2
LTYPE
5
5
100
AcDbSymbolTable
0
LTYPE
5
14
100
AcDbSymbolTableRecord
100
AcDbLinetypeTableRecord
2
BYBLOCK
70
0
0
LTYPE
5
15
100
AcDbSymbolTableRecord
100
AcDbLinetypeTableRecord
2
BYLAYER
70
0
0
ENDTAB
0
TABLE
2
LAYER
5
2
100
AcDbSymbolTable
70
2
0
LAYER
5
50
100
AcDbSymbolTableRecord
100
AcDbLayerTableRecord
2
0
70
0
6
CONTINUOUS
0
ENDTAB
0
TABLE
2
STYLE
5
3
100
AcDbSymbolTable
70
1
0
STYLE
5
11
100
AcDbSymbolTableRecord
100
AcDbTextStyleTableRecord
2
STANDARD
70
0
0
ENDTAB
0
TABLE
2
VIEW
5
6
100
AcDbSymbolTable
70
0
0
ENDTAB
0
TABLE
2
UCS
5
7
100
AcDbSymbolTable
70
0
0
ENDTAB
0
TABLE
2
APPID
5
9
100
AcDbSymbolTable
70
2
0
APPID
5
12
100
AcDbSymbolTableRecord
100
AcDbRegAppTableRecord
2
ACAD
70
0
0
ENDTAB
0
TABLE
2
DIMSTYLE
5
A
100
AcDbSymbolTable
70
1
0
ENDTAB
0
TABLE
2
BLOCK_RECORD
5
1
100
AcDbSymbolTable
70
1
0
BLOCK_RECORD
5
1F
100
AcDbSymbolTableRecord
100
AcDbBlockTableRecord
2
*MODEL_SPACE
0
BLOCK_RECORD
5
1B
100
AcDbSymbolTableRecord
100
AcDbBlockTableRecord
2
*PAPER_SPACE
0
ENDTAB
0
ENDSEC
0
SECTION
2
BLOCKS
0
BLOCK
5
20
100
AcDbEntity
100
AcDbBlockBegin
2
*MODEL_SPACE
0
ENDBLK
5
21
100
AcDbEntity
100
AcDbBlockEnd
0
BLOCK
5
1C
100
AcDbEntity
100
AcDbBlockBegin
2
*PAPER_SPACE
0
ENDBLK
5
1D
100
AcDbEntity
100
AcDbBlockEnd
0
ENDSEC
0
SECTION
2
ENTITIES
0
CIRCLE
5
100
100
AcDbEntity
8
0
100
AcDbCircle
10
-202.40283607504176
20
-203.5896767000425
30
0
40
1.4999999999999858
210
0
220
-0
230
1
0
CIRCLE
5
101
100
AcDbEntity
8
0
100
AcDbCircle
10
-262.30434543403373
20
-107.41197346440593
30
0
40
1.4999999999999858
210
0
220
-0
230
1
0
CIRCLE
5
102
100
AcDbEntity
8
0
100
AcDbCircle
10
-127.78500728823846
20
-109.06253606334396
30
0
40
1.4999999999999858
210
0
220
-0
230
1
0
CIRCLE
5
103
100
AcDbEntity
8
0
100
AcDbCircle
10
-270.44459176324017
20
-138.90677373939099
30
0
40
1.4999999999999858
210
0
220
-0
230
1
0
CIRCLE
5
104
100
AcDbEntity
8
0
100
AcDbCircle
10
-150.86269206681638
20
-204.31857182518087
30
0
40
1.4999999999999858
210
0
220
-0
230
1
0
CIRCLE
5
105
100
AcDbEntity
8
0
100
AcDbCircle
10
-122.43388782948763
20
-166.07858294847929
30
0
40
1.4999999999999858
210
0
220
-0
230
1
0
CIRCLE
5
106
100
AcDbEntity
8
0
100
AcDbCircle
10
-238.1377503288042
20
-196.40245945879531
30
0
40
1.4999999999999858
210
0
220
-0
230
1
0
CIRCLE
5
107
100
AcDbEntity
8
0
100
AcDbCircle
10
-221.86365422910413
20
-116.76952520703696
30
0
40
1.4999999999999858
210
0
220
-0
230
1
0
CIRCLE
5
108
100
AcDbEntity
8
0
100
AcDbCircle
10
-169.18098083060798
20
-114.74520129470221
30
0
40
1.4999999999999858
210
0
220
-0
230
1
0
CIRCLE
5
109
100
AcDbEntity
8
0
100
AcDbCircle
10
-278.58483809244666
20
-170.401574014376
30
0
40
1.4999999999999858
210
0
220
-0
230
1
0
CIRCLE
5
110
100
AcDbEntity
8
0
100
AcDbCircle
10
-122.84632218691335
20
-204.03896694566726
30
0
40
1.4999999999999858
210
0
220
-0
230
1
0
LWPOLYLINE
5
111
100
AcDbEntity
8
0
100
AcDbPolyline
90
23
70
1
43
0.0
10
-220.83823482161256
20
-204.91203447935584
42
-0.043530262980924987
10
-221.69149689047347
20
-204.74761721702953
10
-242.83534787516228
20
-198.72788647256391
42
-0.077381500913273601
10
-244.23254760219544
20
-198.08402059848791
10
-281.10690656758214
20
-173.59300362013741
42
-0.3222456524250622
10
-283.16940240904876
20
-168.13080914495026
10
-266.443301577272
20
-105.86618036364479
42
-0.40675260444974642
10
-260.44107448140687
20
-102.30298064032655
10
-222.10411591981284
20
-111.55854265245381
42
0.060665319377514286
10
-220.90334220630399
20
-111.69810922914547
10
-188.41836407322489
20
-111.52038902030949
42
0.016375656867909927
10
-188.09117784580198
20
-111.50787814050372
10
-151.1956778539726
20
-108.88508986319528
42
0.025484155630526147
10
-150.69010677962046
20
-108.82314091363145
10
-129.49982400327318
20
-105.12278038309076
42
-0.41327466973711435
10
-123.71703093816305
20
-109.1723448602406
10
-119.12628833226323
20
-134.97294237148256
42
-0.043816808972796016
10
-119.04897246981243
20
-135.84417539168294
10
-118.98947707514495
20
-199.57305818373041
10
-118.98947707514495
20
-202.8304225833169
42
-0.41105858633046466
10
-123.9355592968019
20
-207.83013186218287
10
-185.94254528950523
20
-208.49882652821219
42
-0.028542142067657549
10
-186.51231261751229
20
-208.47243598456834
0
LWPOLYLINE
5
112
100
AcDbEntity
8
0
100
AcDbPolyline
90
4
70
1
43
0.0
10
-193.75457172204494
20
-177.84301040034276
10
-192.30162608262498
20
-164.01915605473278
10
-206.12548042823494
20
-162.56621041530278
10
-207.57842606766496
20
-176.39006476092277
0
LWPOLYLINE
5
113
100
AcDbEntity
8
0
100
AcDbPolyline
90
4
70
1
43
0.0
10
-215.48861057597495
20
-178.10349797272278
10
-229.21747851024494
20
-175.92905890866277
10
-231.39191757430495
20
-189.65792684293277
10
-217.66304964003496
20
-191.83236590699278
0
LWPOLYLINE
5
114
100
AcDbEntity
8
0
100
AcDbPolyline
90
4
70
1
43
0.0
10
-173.20673670448497
20
-195.7418455702628
10
-172.47926691270496
20
-181.86089503717278
10
-186.36021744579497
20
-181.13342524539277
10
-187.08768723757493
20
-195.01437577848276
0
LWPOLYLINE
5
115
100
AcDbEntity
8
0
100
AcDbPolyline
90
4
70
1
43
0.0
10
-208.11674842823496
20
-181.51185041530277
10
-209.56969406766493
20
-195.33570476092277
10
-195.74583972204496
20
-196.78865040034279
10
-194.29289408262494
20
-182.96479605473277
0
LWPOLYLINE
5
116
100
AcDbEntity
8
0
100
AcDbPolyline
90
4
70
1
43
0.0
10
-233.34947899885495
20
-159.04762283391275
10
-246.94573064905489
20
-156.15765033154275
10
-249.83570315142492
20
-169.75390198174279
10
-236.23945150122495
20
-172.64387448411276
0
LWPOLYLINE
5
117
100
AcDbEntity
8
0
100
AcDbPolyline
90
4
70
1
43
0.0
10
-257.61945794589502
20
-167.72864026400276
10
-254.02187321896497
20
-154.30227127858277
10
-267.44824220438494
20
-150.70468655165274
10
-271.04582693131499
20
-164.13105553707277
0
LWPOLYLINE
5
118
100
AcDbEntity
8
0
100
AcDbPolyline
90
4
70
1
43
0.0
10
-212.50853657597497
20
-159.28803597272278
10
-226.23740451024497
20
-157.11359690866277
10
-228.41184357430495
20
-170.84246484293277
10
-214.68297564003495
20
-173.01690390699278
0
LWPOLYLINE
5
119
100
AcDbEntity
8
0
100
AcDbPolyline
90
4
70
1
43
0.0
10
-185.36321844579493
20
-162.10953324539275
10
-186.09068823757497
20
-175.99048377848277
10
-172.20973770448495
20
-176.71795357026275
10
-171.48226791270497
20
-162.83700303717279
0
LWPOLYLINE
5
120
100
AcDbEntity
8
0
100
AcDbPolyline
90
4
70
1
43
0.0
10
-150.72836607514495
20
-176.87711140782278
10
-150.72836607514495
20
-162.97711140782275
10
-164.62836607514492
20
-162.97711140782275
10
-164.62836607514492
20
-176.87711140782278
0
LWPOLYLINE
5
121
100
AcDbEntity
8
0
100
AcDbPolyline
90
4
70
1
43
0.0
10
-164.62836607514492
20
-182.02711140782276
10
-164.62836607514492
20
-195.92711140782279
10
-150.72836607514495
20
-195.92711140782279
10
-150.72836607514495
20
-182.02711140782276
0
LWPOLYLINE
5
122
100
AcDbEntity
8
0
100
AcDbPolyline
90
4
70
1
43
0.0
10
-130.79745435692496
20
-130.25549845647274
10
-133.21116402649494
20
-116.56667068960274
10
-146.89999179336496
20
-118.98038035917274
10
-144.48628212379492
20
-132.66920812604275
0
LWPOLYLINE
5
123
100
AcDbEntity
8
0
100
AcDbPolyline
90
4
70
1
43
0.0
10
-150.71032308262494
20
-133.60339376092273
10
-152.16326872204493
20
-119.77953941530274
10
-165.98712306766492
20
-121.23248505473273
10
-164.53417742823493
20
-135.05633940034275
0
LWPOLYLINE
5
124
100
AcDbEntity
8
0
100
AcDbPolyline
90
4
70
1
43
0.0
10
-171.30544932944497
20
-121.62962165796276
10
-185.19698182500494
20
-122.11472466212274
10
-184.71187882084496
20
-136.00625715769274
10
-170.82034632527495
20
-135.52115415352276
0
LWPOLYLINE
5
125
100
AcDbEntity
8
0
100
AcDbPolyline
90
4
70
1
43
0.0
10
-247.76815794589504
20
-131.03780026400275
10
-244.17057321896499
20
-117.61143127858276
10
-257.59694220438496
20
-114.01384655172272
10
-261.19452693131501
20
-127.44021553707273
0
LWPOLYLINE
5
126
100
AcDbEntity
8
0
100
AcDbPolyline
90
4
70
1
43
0.0
10
-252.69866194589503
20
-149.43868626400277
10
-249.10107721896503
20
-136.01231727858277
10
-262.527446204385
20
-132.41473255165275
10
-266.125030931315
20
-145.84110153707275
0
LWPOLYLINE
5
127
100
AcDbEntity
8
0
100
AcDbPolyline
90
4
70
1
43
0.0
10
-228.31801650122497
20
-135.37645148411275
10
-225.42804399885495
20
-121.78019983391277
10
-239.02429564905498
20
-118.89022733154275
10
-241.91426815142501
20
-132.48647898174278
0
LWPOLYLINE
5
128
100
AcDbEntity
8
0
100
AcDbPolyline
90
4
70
1
43
0.0
10
-138.88187007514495
20
-136.14979240782276
10
-138.88187007514495
20
-157.73979240782273
10
-128.72187007514498
20
-157.73979240782273
10
-128.72187007514498
20
-136.14979240782276
0
LWPOLYLINE
5
129
100
AcDbEntity
8
0
100
AcDbPolyline
90
4
70
1
43
0.0
10
-150.72836607514495
20
-143.92711140782274
10
-164.62836607514492
20
-143.92711140782274
10
-164.62836607514492
20
-157.82711140782277
10
-150.72836607514495
20
-157.82711140782277
0
LWPOLYLINE
5
130
100
AcDbEntity
8
0
100
AcDbPolyline
90
4
70
1
43
0.0
10
-223.25732751024498
20
-138.29813490866275
10
-225.43176657430496
20
-152.02700284293275
10
-211.70289864003496
20
-154.20144190699276
10
-209.52845957597498
20
-140.47257397272276
0
LWPOLYLINE
5
131
100
AcDbEntity
8
0
100
AcDbPolyline
90
4
70
1
43
0.0
10
-170.48526691270496
20
-143.81311003717275
10
-184.36621744579497
20
-143.08564024539277
10
-185.09368723757493
20
-156.96659077848278
10
-171.21273670448494
20
-157.69406057026276
0
LWPOLYLINE
5
132
100
AcDbEntity
8
0
100
AcDbPolyline
90
4
70
1
43
0.0
10
-191.76330572204495
20
-158.89736740034277
10
-190.31036008262492
20
-145.07351305473276
10
-204.13421442823494
20
-143.62056741530279
10
-205.58716006766497
20
-157.44442176092278
0
LWPOLYLINE
5
133
100
AcDbEntity
8
0
100
AcDbPolyline
90
4
70
1
43
0.0
10
-229.38876499885498
20
-140.41391083391275
10
-242.98501664905496
20
-137.52393833154275
10
-245.87498915142498
20
-151.12018998174275
10
-232.27873750122495
20
-154.01016248411278
0
ENDSEC
0
SECTION
2
OBJECTS
0
DICTIONARY
5
C
100
AcDbDictionary
3
ACAD_GROUP
350
D
3
ACAD_MLINESTYLE
350
17
0
DICTIONARY
5
D
100
AcDbDictionary
0
DICTIONARY
5
1A
330
C
100
AcDbDictionary
0
DICTIONARY
5
17
100
AcDbDictionary
0
ENDSEC
0
EOF
