0
SECTION
2
HEADER
9
$INSUNITS
70
4
9
$ACADVER
1
AC1014
9
$HANDSEED
5
FFFF
0
ENDSEC
0
SECTION
2
TABLES
0
TABLE
2
VPORT
5
8
100
AcDbSymbolTable
0
ENDTAB
0
TABLE
2
LTYPE
5
5
100
AcDbSymbolTable
0
LTYPE
5
14
100
AcDbSymbolTableRecord
100
AcDbLinetypeTableRecord
2
BYBLOCK
70
0
0
LTYPE
5
15
100
AcDbSymbolTableRecord
100
AcDbLinetypeTableRecord
2
BYLAYER
70
0
0
ENDTAB
0
TABLE
2
LAYER
5
2
100
AcDbSymbolTable
70
2
0
LAYER
5
50
100
AcDbSymbolTableRecord
100
AcDbLayerTableRecord
2
0
70
0
6
CONTINUOUS
0
ENDTAB
0
TABLE
2
STYLE
5
3
100
AcDbSymbolTable
70
1
0
STYLE
5
11
100
AcDbSymbolTableRecord
100
AcDbTextStyleTableRecord
2
STANDARD
70
0
0
ENDTAB
0
TABLE
2
VIEW
5
6
100
AcDbSymbolTable
70
0
0
ENDTAB
0
TABLE
2
UCS
5
7
100
AcDbSymbolTable
70
0
0
ENDTAB
0
TABLE
2
APPID
5
9
100
AcDbSymbolTable
70
2
0
APPID
5
12
100
AcDbSymbolTableRecord
100
AcDbRegAppTableRecord
2
ACAD
70
0
0
ENDTAB
0
TABLE
2
DIMSTYLE
5
A
100
AcDbSymbolTable
70
1
0
ENDTAB
0
TABLE
2
BLOCK_RECORD
5
1
100
AcDbSymbolTable
70
1
0
BLOCK_RECORD
5
1F
100
AcDbSymbolTableRecord
100
AcDbBlockTableRecord
2
*MODEL_SPACE
0
BLOCK_RECORD
5
1B
100
AcDbSymbolTableRecord
100
AcDbBlockTableRecord
2
*PAPER_SPACE
0
ENDTAB
0
ENDSEC
0
SECTION
2
BLOCKS
0
BLOCK
5
20
100
AcDbEntity
100
AcDbBlockBegin
2
*MODEL_SPACE
0
ENDBLK
5
21
100
AcDbEntity
100
AcDbBlockEnd
0
BLOCK
5
1C
100
AcDbEntity
100
AcDbBlockBegin
2
*PAPER_SPACE
0
ENDBLK
5
1D
100
AcDbEntity
100
AcDbBlockEnd
0
ENDSEC
0
SECTION
2
ENTITIES
0
CIRCLE
5
100
100
AcDbEntity
8
0
100
AcDbCircle
10
-66.290179984216948
20
-114.51314080294893
30
0
40
1.5000000000000036
210
0
220
-0
230
1
0
CIRCLE
5
101
100
AcDbEntity
8
0
100
AcDbCircle
10
43.637783310620826
20
-169.12704648574007
30
0
40
1.5000000000000016
210
0
220
-0
230
1
0
CIRCLE
5
102
100
AcDbEntity
8
0
100
AcDbCircle
10
-111.77395181719422
20
-204.24331229282632
30
0
40
1.4999999999999858
210
0
220
-0
230
1
0
CIRCLE
5
103
100
AcDbEntity
8
0
100
AcDbCircle
10
-83.756189882953507
20
-204.2565913140659
30
0
40
1.5000000000000036
210
0
220
-0
230
1
0
CIRCLE
5
104
100
AcDbEntity
8
0
100
AcDbCircle
10
35.198526858117525
20
-137.71104729440071
30
0
40
1.5000000000000036
210
0
220
-0
230
1
0
CIRCLE
5
105
100
AcDbEntity
8
0
100
AcDbCircle
10
-107.73830058560945
20
-109.22422708984323
30
0
40
1.4999999999999858
210
0
220
-0
230
1
0
CIRCLE
5
106
100
AcDbEntity
8
0
100
AcDbCircle
10
-13.590644290678746
20
-116.03659129448462
30
0
40
1.4999999999999947
210
0
220
-0
230
1
0
CIRCLE
5
107
100
AcDbEntity
8
0
100
AcDbCircle
10
3.4396777047678384
20
-195.5112322445294
30
0
40
1.5000000000000036
210
0
220
-0
230
1
0
CIRCLE
5
108
100
AcDbEntity
8
0
100
AcDbCircle
10
-32.225303040261068
20
-203.0378076180541
30
0
40
1.5000000000000036
210
0
220
-0
230
1
0
CIRCLE
5
109
100
AcDbEntity
8
0
100
AcDbCircle
10
26.759270405614188
20
-106.29504810306129
30
0
40
1.4999999999999991
210
0
220
-0
230
1
0
CIRCLE
5
110
100
AcDbEntity
8
0
100
AcDbCircle
10
-112.54720487865542
20
-166.2885637754658
30
0
40
1.4999999999999858
210
0
220
-0
230
1
0
LWPOLYLINE
5
111
100
AcDbEntity
8
0
100
AcDbPolyline
90
29
70
1
43
0.0
10
-49.0553842922005
20
-208.80494046467641
42
-0.028582209536198055
10
-49.62595226912174
20
-208.83132230986089
10
-88.685226347855519
20
-208.40384430132286
10
-88.685226347855775
20
-166.24558832680901
10
-107.73522634785552
20
-166.24558832680904
10
-108.54716235392161
20
-166.24483111243131
10
-107.77499125438679
20
-200.10933832680902
10
-107.77499125438695
20
-208.1949194076023
10
-110.76087101647032
20
-208.16224092177438
42
-0.4043650149020061
10
-115.70485329272286
20
-203.27651962339371
10
-116.54724740338915
20
-166.33229643850032
10
-116.51912421370866
20
-136.17672758356099
42
-0.04381705114104243
10
-116.44180834674727
20
-135.30548972927858
10
-111.85106548483728
20
-109.50489077922695
42
-0.4132746697371058
10
-106.06827241972738
20
-105.45532630207717
10
-84.877989643386428
20
-109.15568683261705
42
0.025484155630521779
10
-84.372418569034409
20
-109.21763578218082
10
-47.476918577205282
20
-111.84042405948964
42
0.01637565686790908
10
-47.149732349782397
20
-111.85293493929538
10
-14.664754216698771
20
-112.03065514813188
42
0.060665319377518227
10
-13.463980503189852
20
-111.89108857144021
10
24.872978058406229
20
-102.63552655931262
42
-0.4067526044497391
10
30.875205154271441
20
-106.19872628263093
10
47.601305986048189
20
-168.4633550639364
42
-0.32224565242506087
10
45.538810144581561
20
-173.92554953912352
10
8.6644511791947192
20
-198.41656651747411
42
-0.077381500913270479
10
7.2672514521615756
20
-199.06043239155014
10
-13.8765995325271
20
-205.0801631360157
42
-0.043530262980906523
10
-14.729861601388023
20
-205.24458039834198
0
LWPOLYLINE
5
112
100
AcDbEntity
8
0
100
AcDbPolyline
90
4
70
1
43
0.0
10
-7.2500799217727874
20
-135.70899740309898
10
6.3461717284273433
20
-132.81902490072898
10
3.4561992260612939
20
-119.22277325052892
10
-10.140052424138659
20
-122.11274575289895
0
LWPOLYLINE
5
113
100
AcDbEntity
8
0
100
AcDbPolyline
90
4
70
1
43
0.0
10
-104.77064206607558
20
-130.58804437545905
10
-91.081814299205689
20
-133.00175404502903
10
-88.668104629635678
20
-119.31292627815904
10
-102.35693239650587
20
-116.89921660858903
0
LWPOLYLINE
5
114
100
AcDbEntity
8
0
100
AcDbPolyline
90
4
70
1
43
0.0
10
-71.033918994755609
20
-135.38888531932906
10
-69.5809733553358
20
-121.56503097371908
10
-83.404827700945788
20
-120.11208533428906
10
-84.857773340375815
20
-133.93593967990907
0
LWPOLYLINE
5
115
100
AcDbEntity
8
0
100
AcDbPolyline
90
4
70
1
43
0.0
10
-50.856217602155667
20
-136.33880307667903
10
-50.371114597985631
20
-122.447270581109
10
-64.262647093555628
20
-121.96216757694896
10
-64.747750097715766
20
-135.85370007250901
0
LWPOLYLINE
5
116
100
AcDbEntity
8
0
100
AcDbPolyline
90
4
70
1
43
0.0
10
-70.939730347855686
20
-196.25965732680899
10
-70.939730347855658
20
-182.35965732680904
10
-84.839730347855507
20
-182.35965732680907
10
-84.839730347855607
20
-196.25965732680908
0
LWPOLYLINE
5
117
100
AcDbEntity
8
0
100
AcDbPolyline
90
4
70
1
43
0.0
10
25.626430508316282
20
-127.77276145605899
10
22.028845781391304
20
-114.34639247070893
10
8.6024767959721871
20
-117.94397719756894
10
12.200061522897307
20
-131.37034618298898
0
LWPOLYLINE
5
118
100
AcDbEntity
8
0
100
AcDbPolyline
90
4
70
1
43
0.0
10
17.130565522897356
20
-149.771232182989
10
30.556934508316331
20
-146.17364745605894
10
26.959349781391353
20
-132.74727847063897
10
13.532980795972342
20
-136.34486319756894
0
LWPOLYLINE
5
119
100
AcDbEntity
8
0
100
AcDbPolyline
90
4
70
1
43
0.0
10
-3.2893589217726316
20
-154.34270840309898
10
10.306892728427286
20
-151.45273590072895
10
7.4169202260613076
20
-137.85648425052895
10
-6.1793314241386454
20
-140.74645675289889
0
LWPOLYLINE
5
120
100
AcDbEntity
8
0
100
AcDbPolyline
90
4
70
1
43
0.0
10
-26.039636847021743
20
-140.80511989170898
10
-23.865197782962611
20
-154.53398782597898
10
-10.136329848689627
20
-152.35954876191897
10
-12.310768912748671
20
-138.63068082764897
0
LWPOLYLINE
5
121
100
AcDbEntity
8
0
100
AcDbPolyline
90
4
70
1
43
0.0
10
-45.2577363403757
20
-145.40605897371901
10
-43.80479070095474
20
-159.22991331932909
10
-29.980936355335661
20
-157.77696767990898
10
-31.433881994756625
20
-143.95311333428901
0
LWPOLYLINE
5
122
100
AcDbEntity
8
0
100
AcDbPolyline
90
4
70
1
43
0.0
10
-51.20187897719569
20
-143.41818616437902
10
-65.082829510285677
20
-144.145655956159
10
-64.355359718505639
20
-158.02660648924896
10
-50.474409185415666
20
-157.29913669746895
0
LWPOLYLINE
5
123
100
AcDbEntity
8
0
100
AcDbPolyline
90
4
70
1
43
0.0
10
-20.079485847021665
20
-178.43604389170901
10
-17.905046782962586
20
-192.16491182597895
10
-4.1761788486896734
20
-189.99047276191902
10
-6.3506179127486106
20
-176.26160482764902
0
LWPOLYLINE
5
124
100
AcDbEntity
8
0
100
AcDbPolyline
90
4
70
1
43
0.0
10
-49.207878977195648
20
-181.46597116437903
10
-63.088829510285635
20
-182.19344095615901
10
-62.361359718505582
20
-196.07439148924908
10
-48.480409185422602
20
-195.34692169746901
0
LWPOLYLINE
5
125
100
AcDbEntity
8
0
100
AcDbPolyline
90
4
70
1
43
0.0
10
31.88014578139132
20
-151.037232470639
10
18.453776795972345
20
-154.63481719756888
10
22.051361522897324
20
-168.06118618298896
10
35.477730508316334
20
-164.46360145605897
0
LWPOLYLINE
5
126
100
AcDbEntity
8
0
100
AcDbPolyline
90
4
70
1
43
0.0
10
11.377634226061382
20
-156.49019625052892
10
-2.2186174241387135
20
-159.38016875289895
10
0.67135507822733587
20
-172.97642040309904
10
14.267606728427324
20
-170.08644790072893
0
LWPOLYLINE
5
127
100
AcDbEntity
8
0
100
AcDbPolyline
90
4
70
1
43
0.0
10
-41.813524700954687
20
-178.17555631932902
10
-27.989670355335701
20
-176.722610679909
10
-29.442615994756807
20
-162.89875633428903
10
-43.266470340375633
20
-164.351701973719
0
LWPOLYLINE
5
128
100
AcDbEntity
8
0
100
AcDbPolyline
90
4
70
1
43
0.0
10
-9.330691912748641
20
-157.44614282764897
10
-23.059559847021696
20
-159.62058189170901
10
-20.88512078296251
20
-173.34944982597901
10
-7.1562528486897037
20
-171.175010761919
0
LWPOLYLINE
5
129
100
AcDbEntity
8
0
100
AcDbPolyline
90
4
70
1
43
0.0
10
-84.839730347855635
20
-144.25965732680905
10
-84.839730347855706
20
-158.15965732680905
10
-70.939730347855701
20
-158.15965732680905
10
-70.939730347855701
20
-144.25965732680902
0
LWPOLYLINE
5
130
100
AcDbEntity
8
0
100
AcDbPolyline
90
4
70
1
43
0.0
10
-63.35835871850577
20
-177.05049948924906
10
-49.477408185415612
20
-176.32302969746902
10
-50.204877977195679
20
-162.44207916437898
10
-64.08582851028558
20
-163.16954895615896
0
LWPOLYLINE
5
131
100
AcDbEntity
8
0
100
AcDbPolyline
90
4
70
1
43
0.0
10
-27.451347994756681
20
-181.844396334289
10
-41.27520234037565
20
-183.29734197371909
10
-39.822256700954668
20
-197.12119631932899
10
-25.998402355335646
20
-195.66825067990897
0
LWPOLYLINE
5
132
100
AcDbEntity
8
0
100
AcDbPolyline
90
4
70
1
43
0.0
10
-84.839730347855806
20
-163.30965732680912
10
-84.839730347855621
20
-177.20965732680907
10
-70.939730347855644
20
-177.20965732680907
10
-70.939730347855658
20
-163.30965732680906
0
LWPOLYLINE
5
133
100
AcDbEntity
8
0
100
AcDbPolyline
90
4
70
1
43
0.0
10
-89.929826347855737
20
-158.0723383268091
10
-89.929826347855695
20
-136.48233832680904
10
-100.08982634785565
20
-136.48233832680904
10
-100.08982634785575
20
-158.07233832680907
0
ENDSEC
0
SECTION
2
OBJECTS
0
DICTIONARY
5
C
100
AcDbDictionary
3
ACAD_GROUP
350
D
3
ACAD_MLINESTYLE
350
17
0
DICTIONARY
5
D
100
AcDbDictionary
0
DICTIONARY
5
1A
330
C
100
AcDbDictionary
0
DICTIONARY
5
17
100
AcDbDictionary
0
ENDSEC
0
EOF
