0
SECTION
2
HEADER
9
$INSUNITS
70
4
9
$ACADVER
1
AC1014
9
$HANDSEED
5
FFFF
0
ENDSEC
0
SECTION
2
TABLES
0
TABLE
2
VPORT
5
8
100
AcDbSymbolTable
0
ENDTAB
0
TABLE
2
LTYPE
5
5
100
AcDbSymbolTable
0
LTYPE
5
14
100
AcDbSymbolTableRecord
100
AcDbLinetypeTableRecord
2
BYBLOCK
70
0
0
LTYPE
5
15
100
AcDbSymbolTableRecord
100
AcDbLinetypeTableRecord
2
BYLAYER
70
0
0
ENDTAB
0
TABLE
2
LAYER
5
2
100
AcDbSymbolTable
70
2
0
LAYER
5
50
100
AcDbSymbolTableRecord
100
AcDbLayerTableRecord
2
0
70
0
6
CONTINUOUS
0
ENDTAB
0
TABLE
2
STYLE
5
3
100
AcDbSymbolTable
70
1
0
STYLE
5
11
100
AcDbSymbolTableRecord
100
AcDbTextStyleTableRecord
2
STANDARD
70
0
0
ENDTAB
0
TABLE
2
VIEW
5
6
100
AcDbSymbolTable
70
0
0
ENDTAB
0
TABLE
2
UCS
5
7
100
AcDbSymbolTable
70
0
0
ENDTAB
0
TABLE
2
APPID
5
9
100
AcDbSymbolTable
70
2
0
APPID
5
12
100
AcDbSymbolTableRecord
100
AcDbRegAppTableRecord
2
ACAD
70
0
0
ENDTAB
0
TABLE
2
DIMSTYLE
5
A
100
AcDbSymbolTable
70
1
0
ENDTAB
0
TABLE
2
BLOCK_RECORD
5
1
100
AcDbSymbolTable
70
1
0
BLOCK_RECORD
5
1F
100
AcDbSymbolTableRecord
100
AcDbBlockTableRecord
2
*MODEL_SPACE
0
BLOCK_RECORD
5
1B
100
AcDbSymbolTableRecord
100
AcDbBlockTableRecord
2
*PAPER_SPACE
0
ENDTAB
0
ENDSEC
0
SECTION
2
BLOCKS
0
BLOCK
5
20
100
AcDbEntity
100
AcDbBlockBegin
2
*MODEL_SPACE
0
ENDBLK
5
21
100
AcDbEntity
100
AcDbBlockEnd
0
BLOCK
5
1C
100
AcDbEntity
100
AcDbBlockBegin
2
*PAPER_SPACE
0
ENDBLK
5
1D
100
AcDbEntity
100
AcDbBlockEnd
0
ENDSEC
0
SECTION
2
ENTITIES
0
CIRCLE
5
100
100
AcDbEntity
8
0
100
AcDbCircle
10
269.10442325921014
20
-9.0532647975640117
30
0
40
1.500000000000004
210
0
220
-0
230
1
0
CIRCLE
5
101
100
AcDbEntity
8
0
100
AcDbCircle
10
379.032386554048
20
-63.667170480355104
30
0
40
1.5000000000000022
210
0
220
-0
230
1
0
CIRCLE
5
102
100
AcDbEntity
8
0
100
AcDbCircle
10
223.62065142623288
20
-98.783436287441447
30
0
40
1.4999999999999867
210
0
220
-0
230
1
0
CIRCLE
5
103
100
AcDbEntity
8
0
100
AcDbCircle
10
251.63841336047363
20
-98.796715308680973
30
0
40
1.500000000000004
210
0
220
-0
230
1
0
CIRCLE
5
104
100
AcDbEntity
8
0
100
AcDbCircle
10
370.59313010154472
20
-32.251171289015758
30
0
40
1.500000000000004
210
0
220
-0
230
1
0
CIRCLE
5
105
100
AcDbEntity
8
0
100
AcDbCircle
10
227.65630265781763
20
-3.764351084458315
30
0
40
1.4999999999999867
210
0
220
-0
230
1
0
CIRCLE
5
106
100
AcDbEntity
8
0
100
AcDbCircle
10
321.80395895274836
20
-10.576715289099658
30
0
40
1.4999999999999956
210
0
220
-0
230
1
0
CIRCLE
5
107
100
AcDbEntity
8
0
100
AcDbCircle
10
338.8342809481951
20
-90.051356239144425
30
0
40
1.500000000000004
210
0
220
-0
230
1
0
CIRCLE
5
108
100
AcDbEntity
8
0
100
AcDbCircle
10
303.16930020316613
20
-97.577931612669161
30
0
40
1.500000000000004
210
0
220
-0
230
1
0
CIRCLE
5
109
100
AcDbEntity
8
0
100
AcDbCircle
10
362.15387364904137
20
-0.83517209767632217
30
0
40
1.4999999999999996
210
0
220
-0
230
1
0
CIRCLE
5
110
100
AcDbEntity
8
0
100
AcDbCircle
10
222.84739836477169
20
-60.828687770080919
30
0
40
1.4999999999999867
210
0
220
-0
230
1
0
LWPOLYLINE
5
111
100
AcDbEntity
8
0
100
AcDbPolyline
90
54
70
1
43
0.0
10
286.33921895122671
20
-103.34506445929148
42
-0.028582209536253057
10
285.76865097430544
20
-103.37144630447598
10
246.70937689557155
20
-102.94396829593799
10
246.70937689557155
20
-95.649462321424153
10
270.58859742403962
20
-95.649462321424153
10
292.16623946271977
20
-94.188559564677263
10
292.31697211246421
20
-95.687477382374311
10
313.41065383247604
20
-93.499568906096414
10
313.15149657658714
20
-91.011659249562456
10
335.40205815872741
20
-87.549329300854225
10
332.95444742548335
20
-72.047794656975569
10
352.98780218144623
20
-67.67157638504186
10
375.36008456019067
20
-61.560382861156754
10
360.01525633393896
20
-4.4376832654870029
10
322.15287765986574
20
-13.578669063342909
10
322.26918389557142
20
-14.579320321424046
10
322.61355229730714
20
-17.214231312721811
10
325.31835063973244
20
-29.939307034567008
10
322.66146127506971
20
-30.50404630265718
10
306.26583482118986
20
-33.100858422325892
10
306.6452216538878
20
-35.496212611919702
10
287.16943093473418
20
-37.543200701662755
10
287.23674087422296
20
-30.973155712391829
10
287.72184387839292
20
-17.081623216821789
10
287.77522989557144
20
-14.390609321424115
10
287.81346026501325
20
-13.390803508817088
10
249.91535195794941
20
-10.696742872101124
10
230.08605383613312
20
-7.2340447621826147
10
226.86133539253831
20
-25.357400783785444
10
226.87522989557158
20
-30.987720321424213
10
226.84744088950549
20
-60.784955107046372
10
227.61961198904029
20
-94.649462321424124
10
227.61961198904018
20
-102.73504340221741
10
224.63373222695679
20
-102.70236491638951
42
-0.40436501490200211
10
219.68974995070425
20
-97.816643618008811
10
218.84735584003792
20
-60.872420433115423
10
218.87547902971843
20
-30.716851578176119
42
-0.04381705114108192
10
218.95279489667985
20
-29.845613723893642
10
223.54353775858979
20
-4.045014773842027
42
-0.41327466973710975
10
229.32633082369972
20
0.0045497033077501747
10
250.51661360004067
20
-3.6958108272321244
42
0.025484155630522601
10
251.02218467439272
20
-3.7577597767958859
10
287.91768466622182
20
-6.3805480541046951
42
0.016375656867910777
10
288.2448708936447
20
-6.3930589339104387
10
320.72984902672823
20
-6.5707791427469289
42
0.06066531937752357
10
321.93062274023725
20
-6.4312125660552351
10
360.26758130183339
20
2.8243494460723251
42
-0.4067526044497306
10
366.26980839769857
20
-0.73885027724597485
10
382.99590922947527
20
-63.003479058551484
42
-0.32224565242504505
10
380.93341338800872
20
-68.465673533738538
10
344.0590544226219
20
-92.956690512089168
42
-0.07738150091327986
10
342.66185469558877
20
-93.600556386165209
10
321.51800371090013
20
-99.620287130630771
42
-0.043530262980918874
10
320.66474164203908
20
-99.784704392957039
0
ENDSEC
0
SECTION
2
OBJECTS
0
DICTIONARY
5
C
100
AcDbDictionary
3
ACAD_GROUP
350
D
3
ACAD_MLINESTYLE
350
17
0
DICTIONARY
5
D
100
AcDbDictionary
0
DICTIONARY
5
1A
330
C
100
AcDbDictionary
0
DICTIONARY
5
17
100
AcDbDictionary
0
ENDSEC
0
EOF
