0
SECTION
2
HEADER
9
$INSUNITS
70
4
9
$ACADVER
1
AC1014
9
$HANDSEED
5
FFFF
0
ENDSEC
0
SECTION
2
TABLES
0
TABLE
2
VPORT
5
8
100
AcDbSymbolTable
0
ENDTAB
0
TABLE
2
LTYPE
5
5
100
AcDbSymbolTable
0
LTYPE
5
14
100
AcDbSymbolTableRecord
100
AcDbLinetypeTableRecord
2
BYBLOCK
70
0
0
LTYPE
5
15
100
AcDbSymbolTableRecord
100
AcDbLinetypeTableRecord
2
BYLAYER
70
0
0
ENDTAB
0
TABLE
2
LAYER
5
2
100
AcDbSymbolTable
70
2
0
LAYER
5
50
100
AcDbSymbolTableRecord
100
AcDbLayerTableRecord
2
0
70
0
6
CONTINUOUS
0
ENDTAB
0
TABLE
2
STYLE
5
3
100
AcDbSymbolTable
70
1
0
STYLE
5
11
100
AcDbSymbolTableRecord
100
AcDbTextStyleTableRecord
2
STANDARD
70
0
0
ENDTAB
0
TABLE
2
VIEW
5
6
100
AcDbSymbolTable
70
0
0
ENDTAB
0
TABLE
2
UCS
5
7
100
AcDbSymbolTable
70
0
0
ENDTAB
0
TABLE
2
APPID
5
9
100
AcDbSymbolTable
70
2
0
APPID
5
12
100
AcDbSymbolTableRecord
100
AcDbRegAppTableRecord
2
ACAD
70
0
0
ENDTAB
0
TABLE
2
DIMSTYLE
5
A
100
AcDbSymbolTable
70
1
0
ENDTAB
0
TABLE
2
BLOCK_RECORD
5
1
100
AcDbSymbolTable
70
1
0
BLOCK_RECORD
5
1F
100
AcDbSymbolTableRecord
100
AcDbBlockTableRecord
2
*MODEL_SPACE
0
BLOCK_RECORD
5
1B
100
AcDbSymbolTableRecord
100
AcDbBlockTableRecord
2
*PAPER_SPACE
0
ENDTAB
0
ENDSEC
0
SECTION
2
BLOCKS
0
BLOCK
5
20
100
AcDbEntity
100
AcDbBlockBegin
2
*MODEL_SPACE
0
ENDBLK
5
21
100
AcDbEntity
100
AcDbBlockEnd
0
BLOCK
5
1C
100
AcDbEntity
100
AcDbBlockBegin
2
*PAPER_SPACE
0
ENDBLK
5
1D
100
AcDbEntity
100
AcDbBlockEnd
0
ENDSEC
0
SECTION
2
ENTITIES
0
CIRCLE
5
100
100
AcDbEntity
8
0
100
AcDbCircle
10
132.83798356239177
20
-98.559078219697881
30
0
40
1.499999999999986
210
0
220
-0
230
1
0
CIRCLE
5
101
100
AcDbEntity
8
0
100
AcDbCircle
10
72.936474203399726
20
-2.3813749840613174
30
0
40
1.499999999999986
210
0
220
-0
230
1
0
CIRCLE
5
102
100
AcDbEntity
8
0
100
AcDbCircle
10
207.45581234919501
20
-4.0319375829993458
30
0
40
1.499999999999986
210
0
220
-0
230
1
0
CIRCLE
5
103
100
AcDbEntity
8
0
100
AcDbCircle
10
64.796227874193306
20
-33.876175259046363
30
0
40
1.499999999999986
210
0
220
-0
230
1
0
CIRCLE
5
104
100
AcDbEntity
8
0
100
AcDbCircle
10
184.3781275706171
20
-99.287973344836217
30
0
40
1.499999999999986
210
0
220
-0
230
1
0
CIRCLE
5
105
100
AcDbEntity
8
0
100
AcDbCircle
10
212.80693180794586
20
-61.047984468134651
30
0
40
1.499999999999986
210
0
220
-0
230
1
0
CIRCLE
5
106
100
AcDbEntity
8
0
100
AcDbCircle
10
97.103069308629287
20
-91.371860978450712
30
0
40
1.499999999999986
210
0
220
-0
230
1
0
CIRCLE
5
107
100
AcDbEntity
8
0
100
AcDbCircle
10
113.37716540832938
20
-11.738926726692343
30
0
40
1.499999999999986
210
0
220
-0
230
1
0
CIRCLE
5
108
100
AcDbEntity
8
0
100
AcDbCircle
10
166.05983880682555
20
-9.7146028143575887
30
0
40
1.499999999999986
210
0
220
-0
230
1
0
CIRCLE
5
109
100
AcDbEntity
8
0
100
AcDbCircle
10
56.655981544986822
20
-65.370975534031373
30
0
40
1.499999999999986
210
0
220
-0
230
1
0
CIRCLE
5
110
100
AcDbEntity
8
0
100
AcDbCircle
10
212.39449745052013
20
-99.00836846532259
30
0
40
1.499999999999986
210
0
220
-0
230
1
0
LWPOLYLINE
5
111
100
AcDbEntity
8
0
100
AcDbPolyline
90
23
70
1
43
0.0
10
114.40258481582092
20
-99.881435999011202
42
-0.043530262980910193
10
113.54932274696
20
-99.717018736684935
10
92.405471762271262
20
-93.697287992219316
42
-0.077381500913284218
10
91.008272035238093
20
-93.053422118143288
10
54.133913069851388
20
-68.56240513979283
42
-0.32224565242506181
10
52.071417228384725
20
-63.100210664605626
10
68.797518060161508
20
-0.83558188330016814
42
-0.40675260444973954
10
74.799745156026646
20
2.7276178400180462
10
113.13670371762066
20
-6.5279441721092173
42
0.06066531937751405
10
114.33747743112951
20
-6.6675107488008685
10
146.82245556420861
20
-6.4897905399648712
42
0.01637565686791035
10
147.14964179163152
20
-6.4772796601590983
10
184.04514178346093
20
-3.854491382850652
42
0.025484155630526147
10
184.55071285781304
20
-3.7925424332868451
10
205.74099563416027
20
-0.092181902746035216
42
-0.41327466973711446
10
211.52378869927048
20
-4.1417463798959986
10
216.11453130517026
20
-29.942343891137909
42
-0.043816808972837289
10
216.19184716762106
20
-30.813576911338281
10
216.25134256228853
20
-94.542459703385759
10
216.25134256228853
20
-97.799824102972252
42
-0.41105858633046982
10
211.30526034063163
20
-102.79953338183823
10
149.2982743479283
20
-103.46822804786757
42
-0.028542142067707103
10
148.72850701992124
20
-103.44183750422373
0
LWPOLYLINE
5
112
100
AcDbEntity
8
0
100
AcDbPolyline
90
27
70
1
43
0.0
10
206.51894956228855
20
-55.409193927478142
10
208.21480394189851
20
-55.407610728129875
10
208.18673925262812
20
-25.345934500346274
10
204.9812726337957
20
-7.330776351002493
10
185.15197449809574
20
-10.793474463345339
10
147.25386619227709
20
-13.487535099972899
10
147.29209656228855
20
-14.487340927478128
10
147.34548257947694
20
-17.178354822873917
10
147.83058558363695
20
-31.069887318443932
10
148.03862136988394
20
-37.654723190224274
10
128.42210480397628
20
-35.592944217973098
10
128.80149163667423
20
-33.197590028380162
10
109.71937908721648
20
-30.175280312022849
10
112.45377416055972
20
-17.310962918776692
10
112.91444879972735
20
-13.675400654486165
10
75.052070113298441
20
-4.534414853647375
10
59.707241879428857
20
-61.657114477675449
10
82.079524272857967
20
-67.768308005571811
10
102.11287901546584
20
-72.144526274588031
10
99.665268282084597
20
-87.646060919335952
10
121.91582986498437
20
-91.108390868162445
10
121.65667260901854
20
-93.596300525434103
10
142.75035435872647
20
-95.784209004792089
10
142.90108700852355
20
-94.285291186572721
10
164.47872903331654
20
-95.746193942379307
10
187.21245356228852
20
-95.746193942379293
10
187.21245356228852
20
-55.409193927478135
0
ENDSEC
0
SECTION
2
OBJECTS
0
DICTIONARY
5
C
100
AcDbDictionary
3
ACAD_GROUP
350
D
3
ACAD_MLINESTYLE
350
17
0
DICTIONARY
5
D
100
AcDbDictionary
0
DICTIONARY
5
1A
330
C
100
AcDbDictionary
0
DICTIONARY
5
17
100
AcDbDictionary
0
ENDSEC
0
EOF
