0
SECTION
2
HEADER
9
$INSUNITS
70
4
9
$ACADVER
1
AC1014
9
$HANDSEED
5
FFFF
0
ENDSEC
0
SECTION
2
TABLES
0
TABLE
2
VPORT
5
8
100
AcDbSymbolTable
0
ENDTAB
0
TABLE
2
LTYPE
5
5
100
AcDbSymbolTable
0
LTYPE
5
14
100
AcDbSymbolTableRecord
100
AcDbLinetypeTableRecord
2
BYBLOCK
70
0
0
LTYPE
5
15
100
AcDbSymbolTableRecord
100
AcDbLinetypeTableRecord
2
BYLAYER
70
0
0
ENDTAB
0
TABLE
2
LAYER
5
2
100
AcDbSymbolTable
70
2
0
LAYER
5
50
100
AcDbSymbolTableRecord
100
AcDbLayerTableRecord
2
0
70
0
6
CONTINUOUS
0
ENDTAB
0
TABLE
2
STYLE
5
3
100
AcDbSymbolTable
70
1
0
STYLE
5
11
100
AcDbSymbolTableRecord
100
AcDbTextStyleTableRecord
2
STANDARD
70
0
0
ENDTAB
0
TABLE
2
VIEW
5
6
100
AcDbSymbolTable
70
0
0
ENDTAB
0
TABLE
2
UCS
5
7
100
AcDbSymbolTable
70
0
0
ENDTAB
0
TABLE
2
APPID
5
9
100
AcDbSymbolTable
70
2
0
APPID
5
12
100
AcDbSymbolTableRecord
100
AcDbRegAppTableRecord
2
ACAD
70
0
0
ENDTAB
0
TABLE
2
DIMSTYLE
5
A
100
AcDbSymbolTable
70
1
0
ENDTAB
0
TABLE
2
BLOCK_RECORD
5
1
100
AcDbSymbolTable
70
1
0
BLOCK_RECORD
5
1F
100
AcDbSymbolTableRecord
100
AcDbBlockTableRecord
2
*MODEL_SPACE
0
BLOCK_RECORD
5
1B
100
AcDbSymbolTableRecord
100
AcDbBlockTableRecord
2
*PAPER_SPACE
0
ENDTAB
0
ENDSEC
0
SECTION
2
BLOCKS
0
BLOCK
5
20
100
AcDbEntity
100
AcDbBlockBegin
2
*MODEL_SPACE
0
ENDBLK
5
21
100
AcDbEntity
100
AcDbBlockEnd
0
BLOCK
5
1C
100
AcDbEntity
100
AcDbBlockBegin
2
*PAPER_SPACE
0
ENDBLK
5
1D
100
AcDbEntity
100
AcDbBlockEnd
0
ENDSEC
0
SECTION
2
ENTITIES
0
CIRCLE
5
100
100
AcDbEntity
8
0
100
AcDbCircle
10
-271.68559464196699
20
-33.132917343159647
30
0
40
1.0000000000000142
210
0
220
-0
230
1
0
CIRCLE
5
101
100
AcDbEntity
8
0
100
AcDbCircle
10
-152.10369494554323
20
-98.544715428949544
30
0
40
1.0000000000000142
210
0
220
-0
230
1
0
CIRCLE
5
102
100
AcDbEntity
8
0
100
AcDbCircle
10
-129.02601016696531
20
-3.288679667112655
30
0
40
1.0000000000000142
210
0
220
-0
230
1
0
CIRCLE
5
103
100
AcDbEntity
8
0
100
AcDbCircle
10
-170.4219837093348
20
-8.9713448984708943
30
0
40
1.0000000000000142
210
0
220
-0
230
1
0
CIRCLE
5
104
100
AcDbEntity
8
0
100
AcDbCircle
10
-203.64383895376858
20
-97.815820303811179
30
0
40
1.0000000000000142
210
0
220
-0
230
1
0
CIRCLE
5
105
100
AcDbEntity
8
0
100
AcDbCircle
10
-263.54534831276061
20
-1.6381170681746138
30
0
40
1.0000000000000142
210
0
220
-0
230
1
0
CIRCLE
5
106
100
AcDbEntity
8
0
100
AcDbCircle
10
-279.82584097117348
20
-64.627717618144672
30
0
40
1.0000000000000142
210
0
220
-0
230
1
0
CIRCLE
5
107
100
AcDbEntity
8
0
100
AcDbCircle
10
-124.08732506564019
20
-98.265110549435931
30
0
40
1.0000000000000142
210
0
220
-0
230
1
0
CIRCLE
5
108
100
AcDbEntity
8
0
100
AcDbCircle
10
-123.67489070821446
20
-60.304726552247956
30
0
40
1.0000000000000142
210
0
220
-0
230
1
0
CIRCLE
5
109
100
AcDbEntity
8
0
100
AcDbCircle
10
-239.37875320753105
20
-90.628603062563968
30
0
40
1.0000000000000142
210
0
220
-0
230
1
0
CIRCLE
5
110
100
AcDbEntity
8
0
100
AcDbCircle
10
-223.10465710783095
20
-10.995668810805652
30
0
40
1.0000000000000142
210
0
220
-0
230
1
0
LWPOLYLINE
5
111
100
AcDbEntity
8
0
100
AcDbPolyline
90
23
70
1
43
0.0
10
-222.07923770033941
20
-99.138178083124501
42
-0.043530262980928658
10
-222.93249976920032
20
-98.973760820798219
10
-244.0763507538891
20
-92.954030076332614
42
-0.07738150091327449
10
-245.47355048092226
20
-92.310164202256573
10
-282.3479094463089
20
-67.819147223906086
42
-0.32224565242506831
10
-284.41040528777557
20
-62.356952748718911
10
-267.68430445599881
20
-0.092323967413468072
42
-0.40675260444973943
10
-261.68207736013369
20
3.4708757559047587
10
-223.34511879853966
20
-5.7846862562225132
42
0.06066531937751405
10
-222.14434508503081
20
-5.9242528329141564
10
-189.65936695195171
20
-5.7465326240781636
42
0.016375656867909927
10
-189.33218072452883
20
-5.7340217442723951
10
-152.43668073269941
20
-3.1112334669639532
42
0.025484155630526147
10
-151.93110965834731
20
-3.0492845174001548
10
-130.74082688200002
20
0.65107601314057295
42
-0.4132746697371128
10
-124.95803381688987
20
-3.398488464009306
10
-120.36729121099006
20
-29.199085975251222
42
-0.0438168089727968
10
-120.28997534853926
20
-30.070318995451586
10
-120.23047995387176
20
-93.799201787499072
10
-120.23047995387176
20
-97.056566187085579
42
-0.41105858633046566
10
-125.17656217552872
20
-102.05627546595154
10
-187.18354816823208
20
-102.72497013198088
42
-0.028542142067713661
10
-187.75331549623911
20
-102.69857958833703
0
LWPOLYLINE
5
112
100
AcDbEntity
8
0
100
AcDbPolyline
90
27
70
1
43
0.0
10
-129.96287295387179
20
-54.665936011591441
10
-128.26701857426184
20
-54.66435281224318
10
-128.29508326353223
20
-24.60267658445958
10
-131.50054988236465
20
-6.5875184351157934
10
-151.32984801806458
20
-10.050216547458639
10
-189.22795632388326
20
-12.74427718408619
10
-189.18972595387177
20
-13.744083011591437
10
-189.13633993668338
20
-16.435096906987219
10
-188.6512369325234
20
-30.326629402557231
10
-188.44320114627638
20
-36.91146527433758
10
-208.05971771218401
20
-34.849686302086404
10
-207.68033087948609
20
-32.454332112493454
10
-226.76244342894387
20
-29.432022396136148
10
-224.02804835560062
20
-16.567705002889987
10
-223.567373716433
20
-12.932142738599453
10
-261.42975240286188
20
-3.7911569377606646
10
-276.77458063673146
20
-60.913856561788748
10
-254.40229824330234
20
-67.025050089685095
10
-234.36894350069448
20
-71.40126835870133
10
-236.81655423407574
20
-86.902803003449264
10
-214.56599265117597
20
-90.365132952275758
10
-214.82514990714179
20
-92.85304260954743
10
-193.73146815743385
20
-95.040951088905402
10
-193.58073550763677
20
-93.542033270686019
10
-172.00309348284378
20
-95.002936026492591
10
-149.26936895387178
20
-95.002936026492591
10
-149.26936895387178
20
-54.665936011591441
0
ENDSEC
0
SECTION
2
OBJECTS
0
DICTIONARY
5
C
100
AcDbDictionary
3
ACAD_GROUP
350
D
3
ACAD_MLINESTYLE
350
17
0
DICTIONARY
5
D
100
AcDbDictionary
0
DICTIONARY
5
1A
330
C
100
AcDbDictionary
0
DICTIONARY
5
17
100
AcDbDictionary
0
ENDSEC
0
EOF
