0
SECTION
2
HEADER
9
$INSUNITS
70
4
9
$ACADVER
1
AC1014
9
$HANDSEED
5
FFFF
0
ENDSEC
0
SECTION
2
TABLES
0
TABLE
2
VPORT
5
8
100
AcDbSymbolTable
0
ENDTAB
0
TABLE
2
LTYPE
5
5
100
AcDbSymbolTable
0
LTYPE
5
14
100
AcDbSymbolTableRecord
100
AcDbLinetypeTableRecord
2
BYBLOCK
70
0
0
LTYPE
5
15
100
AcDbSymbolTableRecord
100
AcDbLinetypeTableRecord
2
BYLAYER
70
0
0
ENDTAB
0
TABLE
2
LAYER
5
2
100
AcDbSymbolTable
70
2
0
LAYER
5
50
100
AcDbSymbolTableRecord
100
AcDbLayerTableRecord
2
0
70
0
6
CONTINUOUS
0
ENDTAB
0
TABLE
2
STYLE
5
3
100
AcDbSymbolTable
70
1
0
STYLE
5
11
100
AcDbSymbolTableRecord
100
AcDbTextStyleTableRecord
2
STANDARD
70
0
0
ENDTAB
0
TABLE
2
VIEW
5
6
100
AcDbSymbolTable
70
0
0
ENDTAB
0
TABLE
2
UCS
5
7
100
AcDbSymbolTable
70
0
0
ENDTAB
0
TABLE
2
APPID
5
9
100
AcDbSymbolTable
70
2
0
APPID
5
12
100
AcDbSymbolTableRecord
100
AcDbRegAppTableRecord
2
ACAD
70
0
0
ENDTAB
0
TABLE
2
DIMSTYLE
5
A
100
AcDbSymbolTable
70
1
0
ENDTAB
0
TABLE
2
BLOCK_RECORD
5
1
100
AcDbSymbolTable
70
1
0
BLOCK_RECORD
5
1F
100
AcDbSymbolTableRecord
100
AcDbBlockTableRecord
2
*MODEL_SPACE
0
BLOCK_RECORD
5
1B
100
AcDbSymbolTableRecord
100
AcDbBlockTableRecord
2
*PAPER_SPACE
0
ENDTAB
0
ENDSEC
0
SECTION
2
BLOCKS
0
BLOCK
5
20
100
AcDbEntity
100
AcDbBlockBegin
2
*MODEL_SPACE
0
ENDBLK
5
21
100
AcDbEntity
100
AcDbBlockEnd
0
BLOCK
5
1C
100
AcDbEntity
100
AcDbBlockBegin
2
*PAPER_SPACE
0
ENDBLK
5
1D
100
AcDbEntity
100
AcDbBlockEnd
0
ENDSEC
0
SECTION
2
ENTITIES
0
CIRCLE
5
100
100
AcDbEntity
8
0
100
AcDbCircle
10
33.496097378840645
20
-31.677018286360529
30
0
40
1.0000000000000011
210
0
220
-0
230
1
0
CIRCLE
5
101
100
AcDbEntity
8
0
100
AcDbCircle
10
-85.458619362230408
20
-98.222562306025694
30
0
40
0.99999999999999656
210
0
220
-0
230
1
0
CIRCLE
5
102
100
AcDbEntity
8
0
100
AcDbCircle
10
-109.44073006488634
20
-3.1901980818030307
30
0
40
0.99999999999999656
210
0
220
-0
230
1
0
CIRCLE
5
103
100
AcDbEntity
8
0
100
AcDbCircle
10
-33.927732519537983
20
-97.003778610013882
30
0
40
0.99999999999999656
210
0
220
-0
230
1
0
CIRCLE
5
104
100
AcDbEntity
8
0
100
AcDbCircle
10
25.056840926337323
20
-0.26101909502108889
30
0
40
0.99999999999999656
210
0
220
-0
230
1
0
CIRCLE
5
105
100
AcDbEntity
8
0
100
AcDbCircle
10
-67.992609463493807
20
-8.4791117949087358
30
0
40
0.99999999999999656
210
0
220
-0
230
1
0
CIRCLE
5
106
100
AcDbEntity
8
0
100
AcDbCircle
10
41.93535383134396
20
-63.093017477699888
30
0
40
1.0000000000000036
210
0
220
-0
230
1
0
CIRCLE
5
107
100
AcDbEntity
8
0
100
AcDbCircle
10
-113.47638129647109
20
-98.209283284786139
30
0
40
0.99999999999997879
210
0
220
-0
230
1
0
CIRCLE
5
108
100
AcDbEntity
8
0
100
AcDbCircle
10
-114.24963435793231
20
-60.254534767425596
30
0
40
1.0000000000000147
210
0
220
-0
230
1
0
CIRCLE
5
109
100
AcDbEntity
8
0
100
AcDbCircle
10
1.7372482254909727
20
-89.477203236489203
30
0
40
0.99999999999999656
210
0
220
-0
230
1
0
CIRCLE
5
110
100
AcDbEntity
8
0
100
AcDbCircle
10
-15.293073769955647
20
-10.002562286444405
30
0
40
0.99999999999999656
210
0
220
-0
230
1
0
LWPOLYLINE
5
111
100
AcDbEntity
8
0
100
AcDbPolyline
90
23
70
1
43
0.0
10
-50.757813771477615
20
-102.77091145663624
42
-0.028582209536191502
10
-51.328381748398854
20
-102.79729330182076
10
-112.46330049574723
20
-102.12821191373416
42
-0.4043650149020061
10
-117.40728277199977
20
-97.242490615353518
10
-118.24967688266604
20
-60.298267430460122
10
-118.22155369298555
20
-30.142698575520789
42
-0.043817051141039093
10
-118.14423782602415
20
-29.271460721238363
10
-113.55349496411419
20
-3.4708617711867356
42
-0.41327466973711141
10
-107.77070189900428
20
0.57870270596303897
10
-86.580419122663329
20
-3.1216578245768267
42
0.025484155630523964
10
-86.074848048311281
20
-3.1836067741406104
10
-49.179348056482198
20
-5.8063950514494493
42
0.016375656867910777
10
-48.852161829059284
20
-5.8189059312551894
10
-16.367183695975672
20
-5.9966261400916867
42
0.060665319377519858
10
-15.166409982466718
20
-5.8570595634000178
10
23.170548579129367
20
3.3985024487275983
42
-0.40675260444973882
10
29.172775674994593
20
-0.16469727459072381
10
45.898876506771288
20
-62.429326055896219
42
-0.32224565242506076
10
43.836380665304659
20
-67.89152053108333
10
6.9620216999178481
20
-92.382537509433931
42
-0.077381500913291018
10
5.5648219728847081
20
-93.026403383509958
10
-15.579029011803978
20
-99.046134127975535
42
-0.043530262980926882
10
-16.432291080664925
20
-99.210551390301802
0
LWPOLYLINE
5
112
100
AcDbEntity
8
0
100
AcDbPolyline
90
30
70
1
43
0.0
10
-49.375188844311033
20
-16.507470214166542
10
-49.321802827132579
20
-13.816456318768839
10
-49.283572457690745
20
-12.816650506161853
10
-87.181680764754574
20
-10.122589869445831
10
-107.01097888657091
20
-6.6598917595273388
10
-110.23569733016565
20
-24.783247781130157
10
-110.22180282713234
20
-30.413567318768937
10
-110.24448081584299
20
-54.730426743987273
10
-101.79225582713261
20
-54.738309318768934
10
-90.387655827132647
20
-54.738309318768863
10
-90.387655827132505
20
-95.075309318768831
10
-66.508435298664423
20
-95.075309318768845
10
-44.930793259984227
20
-93.614406562021998
10
-44.780060610239794
20
-95.113324379719018
10
-23.686378890227999
20
-92.925415903441149
10
-23.94553614611695
20
-90.437506246907191
10
-1.6949745639767144
20
-86.975176298198988
10
-4.1425852972206556
20
-71.473641654320318
10
15.890769458742113
20
-67.097423382386609
10
38.263051837486572
20
-60.986229858501545
10
22.918223611234936
20
-3.863530262831798
10
-14.944155062838256
20
-13.004516060687692
10
-14.827848827132577
20
-14.005167318768805
10
-14.483480425396884
20
-16.640078310066578
10
-11.778682082971592
20
-29.365154031911747
10
-14.435571447634246
20
-29.929893300001929
10
-30.831197901514145
20
-32.526705419670627
10
-30.451811068816212
20
-34.922059609264423
10
-49.927601787969813
20
-36.969047699007476
10
-49.860291848480998
20
-30.399002709736564
0
ENDSEC
0
SECTION
2
OBJECTS
0
DICTIONARY
5
C
100
AcDbDictionary
3
ACAD_GROUP
350
D
3
ACAD_MLINESTYLE
350
17
0
DICTIONARY
5
D
100
AcDbDictionary
0
DICTIONARY
5
1A
330
C
100
AcDbDictionary
0
DICTIONARY
5
17
100
AcDbDictionary
0
ENDSEC
0
EOF
