%TF.GenerationSoftware,KiCad,Pcbnew,(6.0.0-0)*%
%TF.CreationDate,2022-02-08T20:13:20+07:00*%
%TF.ProjectId,PCB Bottom,50434220-426f-4747-946f-6d2e6b696361,rev?*%
%TF.SameCoordinates,Original*%
%TF.FileFunction,Legend,Bot*%
%TF.FilePolarity,Positive*%
%FSLAX46Y46*%
G04 Gerber Fmt 4.6, Leading zero omitted, Abs format (unit mm)*
G04 Created by KiCad (PCBNEW (6.0.0-0)) date 2022-02-08 20:13:20*
%MOMM*%
%LPD*%
G01*
G04 APERTURE LIST*
%ADD10C,0.150000*%
%ADD11C,0.750000*%
G04 APERTURE END LIST*
D10*
X98713903Y-92669291D02*
X98742155Y-93478321D01*
X98793069Y-93571840D01*
X98842320Y-93617768D01*
X98939162Y-93662034D01*
X99081933Y-93657048D01*
X99175451Y-93606135D01*
X98735507Y-93287961D02*
X98832349Y-93332228D01*
X99022709Y-93325580D01*
X99116228Y-93274666D01*
X99162156Y-93225414D01*
X99206422Y-93128572D01*
X99196451Y-92843032D01*
X99145537Y-92749514D01*
X99096285Y-92703586D01*
X98999443Y-92659319D01*
X98809083Y-92665967D01*
X98715565Y-92716881D01*
X98261269Y-93352170D02*
X98238002Y-92685910D01*
X98226369Y-92352779D02*
X98275621Y-92398707D01*
X98229693Y-92447959D01*
X98180441Y-92402031D01*
X98226369Y-92352779D01*
X98229693Y-92447959D01*
X97904872Y-92697543D02*
X97524152Y-92710838D01*
X97750469Y-92369398D02*
X97780383Y-93226019D01*
X97736116Y-93322861D01*
X97642598Y-93373775D01*
X97547418Y-93377098D01*
X97214288Y-93388732D02*
X97179388Y-92389341D01*
X96785977Y-93403688D02*
X96767697Y-92880198D01*
X96811963Y-92783356D01*
X96905481Y-92732442D01*
X97048251Y-92727457D01*
X97145093Y-92771723D01*
X97194345Y-92817651D01*
X95858500Y-92769004D02*
X95881767Y-93435264D01*
X96286811Y-92754047D02*
X96305091Y-93277537D01*
X96260825Y-93374379D01*
X96167307Y-93425293D01*
X96024537Y-93430279D01*
X95927695Y-93386012D01*
X95878443Y-93340084D01*
X95405866Y-93451883D02*
X95370967Y-92452492D01*
X95384262Y-92833212D02*
X95287420Y-92788946D01*
X95097060Y-92795594D01*
X95003542Y-92846508D01*
X94957613Y-92895759D01*
X94913347Y-92992601D01*
X94923318Y-93278142D01*
X94974232Y-93371660D01*
X95023484Y-93417588D01*
X95120326Y-93461854D01*
X95310686Y-93455207D01*
X95404204Y-93404293D01*
X94498332Y-93388279D02*
X94452404Y-93437531D01*
X94501656Y-93483459D01*
X94547584Y-93434207D01*
X94498332Y-93388279D01*
X94501656Y-93483459D01*
X93595783Y-93467444D02*
X93692625Y-93511711D01*
X93882985Y-93505063D01*
X93976503Y-93454149D01*
X94022431Y-93404897D01*
X94066698Y-93308055D01*
X94056726Y-93022515D01*
X94005813Y-92928997D01*
X93956561Y-92883069D01*
X93859719Y-92838803D01*
X93669359Y-92845450D01*
X93575840Y-92896364D01*
X93026364Y-93534977D02*
X93119883Y-93484063D01*
X93165811Y-93434811D01*
X93210077Y-93337969D01*
X93200106Y-93052429D01*
X93149192Y-92958911D01*
X93099940Y-92912983D01*
X93003098Y-92868716D01*
X92860328Y-92873702D01*
X92766810Y-92924616D01*
X92720882Y-92973868D01*
X92676615Y-93070710D01*
X92686587Y-93356250D01*
X92737500Y-93449768D01*
X92786752Y-93495696D01*
X92883594Y-93539963D01*
X93026364Y-93534977D01*
X92264924Y-93561567D02*
X92241657Y-92895307D01*
X92244981Y-92990487D02*
X92195729Y-92944558D01*
X92098887Y-92900292D01*
X91956117Y-92905278D01*
X91862599Y-92956192D01*
X91818333Y-93053034D01*
X91836613Y-93576524D01*
X91818333Y-93053034D02*
X91767419Y-92959515D01*
X91670577Y-92915249D01*
X91527807Y-92920235D01*
X91434289Y-92971149D01*
X91390022Y-93067991D01*
X91408303Y-93591481D01*
X90181991Y-92586047D02*
X91083482Y-93841064D01*
X89328694Y-92711141D02*
X89422212Y-92660227D01*
X89564982Y-92655242D01*
X89709414Y-92697846D01*
X89807918Y-92789702D01*
X89858832Y-92883221D01*
X89913069Y-93071919D01*
X89918055Y-93214689D01*
X89877112Y-93406711D01*
X89832846Y-93503553D01*
X89740990Y-93602057D01*
X89599882Y-93654632D01*
X89504701Y-93657956D01*
X89360269Y-93615352D01*
X89311018Y-93569424D01*
X89299384Y-93236293D01*
X89489745Y-93229646D01*
X88886031Y-93679561D02*
X88862765Y-93013300D01*
X88869412Y-93203660D02*
X88818498Y-93110142D01*
X88769246Y-93064214D01*
X88672404Y-93019948D01*
X88577224Y-93023271D01*
X87884978Y-93666870D02*
X87981820Y-93711136D01*
X88172180Y-93704489D01*
X88265699Y-93653575D01*
X88309965Y-93556733D01*
X88296670Y-93176013D01*
X88245756Y-93082495D01*
X88148914Y-93038228D01*
X87958554Y-93044876D01*
X87865036Y-93095790D01*
X87820769Y-93192632D01*
X87824093Y-93287812D01*
X88303317Y-93366373D01*
X87028357Y-93696784D02*
X87125199Y-93741050D01*
X87315560Y-93734403D01*
X87409078Y-93683489D01*
X87453344Y-93586647D01*
X87440049Y-93205927D01*
X87389135Y-93112408D01*
X87292293Y-93068142D01*
X87101933Y-93074790D01*
X87008415Y-93125703D01*
X86964149Y-93222545D01*
X86967472Y-93317726D01*
X87446697Y-93396287D01*
X86530853Y-93094732D02*
X86554119Y-93760993D01*
X86534176Y-93189912D02*
X86484924Y-93143984D01*
X86388083Y-93099718D01*
X86245312Y-93104704D01*
X86151794Y-93155617D01*
X86107528Y-93252459D01*
X86125809Y-93775950D01*
X85649908Y-93792569D02*
X85615009Y-92793178D01*
X85306807Y-93518661D01*
X84948748Y-92816444D01*
X84983648Y-93815835D01*
X84079437Y-93847411D02*
X84061156Y-93323920D01*
X84105423Y-93227078D01*
X84198941Y-93176164D01*
X84389301Y-93169517D01*
X84486143Y-93213783D01*
X84077775Y-93799821D02*
X84174617Y-93844087D01*
X84412567Y-93835777D01*
X84506085Y-93784864D01*
X84550352Y-93688022D01*
X84547028Y-93592842D01*
X84496114Y-93499323D01*
X84399272Y-93455057D01*
X84161322Y-93463367D01*
X84064480Y-93419100D01*
X83649465Y-93814777D02*
X83555947Y-93865691D01*
X83365586Y-93872339D01*
X83268744Y-93828073D01*
X83217831Y-93734554D01*
X83216169Y-93686964D01*
X83260435Y-93590122D01*
X83353953Y-93539209D01*
X83496723Y-93534223D01*
X83590241Y-93483309D01*
X83634508Y-93386467D01*
X83632846Y-93338877D01*
X83581932Y-93245359D01*
X83485090Y-93201093D01*
X83342320Y-93206078D01*
X83248802Y-93256992D01*
X82794506Y-93892281D02*
X82759606Y-92892891D01*
X82366196Y-93907238D02*
X82347915Y-93383748D01*
X82392181Y-93286906D01*
X82485699Y-93235992D01*
X82628469Y-93231006D01*
X82725311Y-93275273D01*
X82774563Y-93321201D01*
X81507913Y-93889562D02*
X81604755Y-93933828D01*
X81795115Y-93927181D01*
X81888633Y-93876267D01*
X81932900Y-93779425D01*
X81919604Y-93398705D01*
X81868691Y-93305187D01*
X81771849Y-93260920D01*
X81581489Y-93267568D01*
X81487970Y-93318482D01*
X81443704Y-93415324D01*
X81447028Y-93510504D01*
X81926252Y-93589065D01*
X80605364Y-93968728D02*
X80570465Y-92969337D01*
X80603702Y-93921138D02*
X80700544Y-93965404D01*
X80890904Y-93958757D01*
X80984422Y-93907843D01*
X81030351Y-93858591D01*
X81074617Y-93761749D01*
X81064646Y-93476209D01*
X81013732Y-93382691D01*
X80964480Y-93336762D01*
X80867638Y-93292496D01*
X80677278Y-93299144D01*
X80583760Y-93350057D01*
X80129464Y-93985347D02*
X80094564Y-92985956D01*
X79713844Y-92999251D01*
X79620326Y-93050165D01*
X79574398Y-93099417D01*
X79530131Y-93196259D01*
X79535117Y-93339029D01*
X79586031Y-93432547D01*
X79635283Y-93478475D01*
X79732125Y-93522741D01*
X80112845Y-93509446D01*
X78987303Y-94025232D02*
X79080821Y-93974318D01*
X79126749Y-93925066D01*
X79171015Y-93828224D01*
X79161044Y-93542684D01*
X79110130Y-93449166D01*
X79060878Y-93403238D01*
X78964036Y-93358971D01*
X78821266Y-93363957D01*
X78727748Y-93414871D01*
X78681820Y-93464123D01*
X78637554Y-93560965D01*
X78647525Y-93846505D01*
X78698439Y-93940023D01*
X78747691Y-93985951D01*
X78844533Y-94030217D01*
X78987303Y-94025232D01*
X78345366Y-93380576D02*
X77964646Y-93393871D01*
X78190963Y-93052431D02*
X78220876Y-93909052D01*
X78176610Y-94005894D01*
X78083092Y-94056808D01*
X77987912Y-94060131D01*
X77226471Y-94086721D02*
X77208191Y-93563231D01*
X77252457Y-93466389D01*
X77345975Y-93415475D01*
X77536335Y-93408828D01*
X77633177Y-93453094D01*
X77224809Y-94039131D02*
X77321651Y-94083398D01*
X77559602Y-94075088D01*
X77653120Y-94024174D01*
X77697386Y-93927333D01*
X77694062Y-93832152D01*
X77643148Y-93738634D01*
X77546306Y-93694368D01*
X77308356Y-93702677D01*
X77211514Y-93658411D01*
X76870075Y-93432094D02*
X76489354Y-93445389D01*
X76715671Y-93103949D02*
X76745585Y-93960570D01*
X76701319Y-94057412D01*
X76607801Y-94108326D01*
X76512621Y-94111650D01*
X76036720Y-94128268D02*
X76130238Y-94077355D01*
X76176167Y-94028103D01*
X76220433Y-93931261D01*
X76210462Y-93645721D01*
X76159548Y-93552202D01*
X76110296Y-93506274D01*
X76013454Y-93462008D01*
X75870684Y-93466994D01*
X75777166Y-93517907D01*
X75731237Y-93567159D01*
X75686971Y-93664001D01*
X75696942Y-93949541D01*
X75747856Y-94043060D01*
X75797108Y-94088988D01*
X75893950Y-94133254D01*
X76036720Y-94128268D01*
X74524868Y-93132806D02*
X75426359Y-94387823D01*
X74274227Y-94142168D02*
X74133119Y-94194744D01*
X73895169Y-94203053D01*
X73798327Y-94158787D01*
X73749075Y-94112859D01*
X73698161Y-94019340D01*
X73694837Y-93924160D01*
X73739103Y-93827318D01*
X73785032Y-93778066D01*
X73878550Y-93727153D01*
X74067248Y-93672915D01*
X74160766Y-93622001D01*
X74206694Y-93572749D01*
X74250961Y-93475907D01*
X74247637Y-93380727D01*
X74196723Y-93287209D01*
X74147471Y-93241281D01*
X74050629Y-93197015D01*
X73812679Y-93205324D01*
X73671571Y-93257900D01*
X73276498Y-94224658D02*
X73241599Y-93225267D01*
X72848188Y-94239614D02*
X72829907Y-93716124D01*
X72874173Y-93619282D01*
X72967691Y-93568368D01*
X73110462Y-93563383D01*
X73207304Y-93607649D01*
X73256555Y-93653577D01*
X72372287Y-94256233D02*
X72349021Y-93589973D01*
X72355668Y-93780333D02*
X72304755Y-93686815D01*
X72255503Y-93640887D01*
X72158661Y-93596620D01*
X72063481Y-93599944D01*
X71753617Y-94277838D02*
X71730350Y-93611577D01*
X71718717Y-93278447D02*
X71767969Y-93324375D01*
X71722041Y-93373627D01*
X71672789Y-93327699D01*
X71718717Y-93278447D01*
X71722041Y-93373627D01*
X71277716Y-94294457D02*
X71254450Y-93628196D01*
X71257774Y-93723376D02*
X71208522Y-93677448D01*
X71111680Y-93633182D01*
X70968910Y-93638167D01*
X70875392Y-93689081D01*
X70831125Y-93785923D01*
X70849406Y-94309413D01*
X70831125Y-93785923D02*
X70780212Y-93692405D01*
X70683370Y-93648139D01*
X70540599Y-93653124D01*
X70447081Y-93704038D01*
X70402815Y-93800880D01*
X70421096Y-94324370D01*
X69921929Y-93674729D02*
X69956828Y-94674119D01*
X69923591Y-93722319D02*
X69826749Y-93678052D01*
X69636389Y-93684700D01*
X69542870Y-93735614D01*
X69496942Y-93784866D01*
X69452676Y-93881708D01*
X69462647Y-94167248D01*
X69513561Y-94260766D01*
X69562813Y-94306694D01*
X69659655Y-94350960D01*
X69850015Y-94344313D01*
X69943533Y-94293399D01*
X68589408Y-93721261D02*
X68612674Y-94387522D01*
X68814063Y-93332232D02*
X69076941Y-94037773D01*
X68458271Y-94059377D01*
X68105198Y-93499930D02*
X68055946Y-93454002D01*
X67959104Y-93409735D01*
X67721154Y-93418045D01*
X67627636Y-93468959D01*
X67581708Y-93518211D01*
X67537441Y-93615053D01*
X67540765Y-93710233D01*
X67593341Y-93851341D01*
X68184364Y-94402479D01*
X67565693Y-94424083D01*
D11*
X93622018Y-89214332D02*
X93208987Y-89522085D01*
X92495680Y-89559468D01*
X92195404Y-89289098D01*
X92037790Y-89011252D01*
X91865222Y-88448083D01*
X91835316Y-87877437D01*
X91948071Y-87299315D01*
X92075779Y-87006516D01*
X92346149Y-86706240D01*
X92901841Y-86391011D01*
X93172211Y-86090735D01*
X93299919Y-85797936D01*
X93412674Y-85219814D01*
X93382768Y-84649169D01*
X93210200Y-84086000D01*
X93052586Y-83808154D01*
X92752310Y-83537784D01*
X92039003Y-83575167D01*
X91625972Y-83882919D01*
X90641083Y-89656663D02*
X90327067Y-83664886D01*
X89357130Y-89723952D02*
X89192646Y-86585402D01*
X89305401Y-86007280D01*
X89575771Y-85707004D01*
X90003755Y-85684574D01*
X90304031Y-85954944D01*
X90461645Y-86232790D01*
X87930517Y-89798718D02*
X87721173Y-85804199D01*
X87780985Y-86945490D02*
X87608418Y-86382321D01*
X87450803Y-86104475D01*
X87150527Y-85834106D01*
X86865205Y-85849059D01*
X86075919Y-89895913D02*
X85866575Y-85901395D01*
X85761903Y-83904136D02*
X85919518Y-84181982D01*
X85791809Y-84474781D01*
X85634195Y-84196935D01*
X85761903Y-83904136D01*
X85791809Y-84474781D01*
X84649305Y-89970679D02*
X84439962Y-85976160D01*
X84469868Y-86546806D02*
X84312253Y-86268960D01*
X84011977Y-85998590D01*
X83583993Y-86021020D01*
X83313624Y-86321296D01*
X83200869Y-86899418D01*
X83365353Y-90037968D01*
X83200869Y-86899418D02*
X83028301Y-86336249D01*
X82728025Y-86065879D01*
X82300041Y-86088309D01*
X82029672Y-86388585D01*
X81916916Y-86966707D01*
X82081401Y-90105257D01*
X80445443Y-86185504D02*
X80759459Y-92177282D01*
X80460397Y-86470827D02*
X80160121Y-86200457D01*
X79589475Y-86230364D01*
X79319106Y-86530640D01*
X79191397Y-86823439D01*
X79078642Y-87401561D01*
X79168361Y-89113497D01*
X79340929Y-89676666D01*
X79498543Y-89954512D01*
X79798819Y-90224882D01*
X80369464Y-90194976D01*
X80639834Y-89894700D01*
X74168343Y-86514473D02*
X74377687Y-90508991D01*
X74762025Y-84194509D02*
X75699629Y-88436967D01*
X73845031Y-88534162D01*
X72666964Y-85162625D02*
X72509350Y-84884779D01*
X72209074Y-84614409D01*
X71495767Y-84651792D01*
X71225397Y-84952068D01*
X71097689Y-85244867D01*
X70984934Y-85822989D01*
X71014840Y-86393635D01*
X71202361Y-87242126D01*
X73093735Y-90576280D01*
X71239137Y-90673476D01*
%TO.C,G\u002A\u002A\u002A*%
G36*
X138429012Y-16247651D02*
G01*
X139387699Y-16409371D01*
X139911361Y-16601954D01*
X140717912Y-17086159D01*
X141393370Y-17701487D01*
X141807098Y-18343501D01*
X141890413Y-18615672D01*
X142015140Y-19459433D01*
X142039236Y-20448095D01*
X141963515Y-21411687D01*
X141788787Y-22180232D01*
X141683895Y-22475695D01*
X141578556Y-22897480D01*
X141637052Y-23178360D01*
X141869049Y-23474213D01*
X141875519Y-23481422D01*
X142203443Y-24103739D01*
X142409651Y-25099551D01*
X142420962Y-25200405D01*
X142423599Y-25223918D01*
X142415384Y-26227450D01*
X142160132Y-27202678D01*
X141627387Y-28230127D01*
X140786693Y-29390317D01*
X140485520Y-29754245D01*
X140028202Y-30229302D01*
X139526004Y-30616048D01*
X138869995Y-30993203D01*
X137951246Y-31439494D01*
X137322838Y-31727041D01*
X136510935Y-32059626D01*
X135787734Y-32278518D01*
X134990793Y-32429175D01*
X133957675Y-32557053D01*
X133007835Y-32641107D01*
X131814707Y-32667838D01*
X130962052Y-32572241D01*
X130675868Y-32506088D01*
X130209395Y-32403428D01*
X130001998Y-32365825D01*
X129991426Y-32380646D01*
X129973849Y-32485055D01*
X129946979Y-32644667D01*
X129908186Y-33132977D01*
X129885236Y-33372398D01*
X129687773Y-34300209D01*
X129336529Y-35402332D01*
X128878827Y-36555800D01*
X128361986Y-37637640D01*
X127833327Y-38524881D01*
X126847288Y-39747642D01*
X125344912Y-41123641D01*
X123645453Y-42243422D01*
X121844339Y-43035118D01*
X120726259Y-43342538D01*
X118677281Y-43602623D01*
X116626365Y-43501182D01*
X114625729Y-43056624D01*
X112727594Y-42287353D01*
X110984179Y-41211777D01*
X109447701Y-39848300D01*
X108170381Y-38215331D01*
X108026385Y-37980786D01*
X107585103Y-37162733D01*
X107142844Y-36223716D01*
X106749519Y-35280769D01*
X106478086Y-34515879D01*
X107567908Y-34515879D01*
X107774810Y-35145357D01*
X108300009Y-36431626D01*
X109333966Y-38115113D01*
X110662553Y-39592539D01*
X112237297Y-40821030D01*
X114009727Y-41757712D01*
X115931371Y-42359712D01*
X116490800Y-42442619D01*
X117418517Y-42500571D01*
X118453519Y-42504695D01*
X119469500Y-42458326D01*
X120340151Y-42364801D01*
X120939163Y-42227456D01*
X121064044Y-42180397D01*
X121575365Y-41986633D01*
X122190613Y-41752542D01*
X122893600Y-41443170D01*
X124386761Y-40517172D01*
X125772402Y-39304752D01*
X126968892Y-37883502D01*
X127894603Y-36331008D01*
X128093017Y-35872716D01*
X128388167Y-35021379D01*
X128630550Y-34126298D01*
X128797004Y-33291569D01*
X128864367Y-32621282D01*
X128809476Y-32219534D01*
X128806778Y-32214742D01*
X128732739Y-32155543D01*
X128572098Y-32117771D01*
X128293834Y-32104331D01*
X127866926Y-32118130D01*
X127260356Y-32162070D01*
X126443103Y-32239057D01*
X125384148Y-32351996D01*
X124052470Y-32503791D01*
X122417049Y-32697347D01*
X120446867Y-32935570D01*
X118110900Y-33221363D01*
X107567908Y-34515879D01*
X106478086Y-34515879D01*
X106455038Y-34450930D01*
X106309309Y-33851234D01*
X106342277Y-33830276D01*
X106693870Y-33749602D01*
X107413296Y-33627703D01*
X108479740Y-33467461D01*
X109872385Y-33271760D01*
X111570414Y-33043484D01*
X113553012Y-32785514D01*
X115799363Y-32500734D01*
X118288650Y-32192028D01*
X118587971Y-32155271D01*
X121211090Y-31832096D01*
X123474552Y-31549067D01*
X124076600Y-31471377D01*
X131450895Y-31471377D01*
X131451190Y-31595914D01*
X131498079Y-31612479D01*
X132012719Y-31679284D01*
X132781079Y-31673542D01*
X133683681Y-31606801D01*
X134601049Y-31490606D01*
X135413707Y-31336509D01*
X136002176Y-31156054D01*
X136419363Y-30974812D01*
X137218354Y-30628052D01*
X138010921Y-30284406D01*
X138554548Y-30022369D01*
X139098392Y-29655831D01*
X139619082Y-29145409D01*
X140232511Y-28392403D01*
X140779694Y-27630453D01*
X141226305Y-26824568D01*
X141428525Y-26134922D01*
X141448789Y-25944908D01*
X141443534Y-25320418D01*
X141354228Y-24736815D01*
X141205614Y-24313764D01*
X141022432Y-24170930D01*
X141018315Y-24172300D01*
X140832146Y-24345911D01*
X140449813Y-24764993D01*
X139924779Y-25369340D01*
X139310505Y-26098748D01*
X138261209Y-27253623D01*
X136497564Y-28804463D01*
X134601930Y-30049970D01*
X132639488Y-30942811D01*
X132573890Y-30966221D01*
X131828738Y-31259497D01*
X131450895Y-31471377D01*
X124076600Y-31471377D01*
X125412226Y-31299024D01*
X127057981Y-31074806D01*
X128445687Y-30869251D01*
X129609212Y-30675199D01*
X130582424Y-30485491D01*
X131399195Y-30292963D01*
X132093392Y-30090456D01*
X132698884Y-29870810D01*
X133249542Y-29626864D01*
X133779234Y-29351455D01*
X134321827Y-29037424D01*
X134911193Y-28677611D01*
X135527179Y-28250632D01*
X136472722Y-27473922D01*
X137465621Y-26550944D01*
X138411760Y-25575100D01*
X139217022Y-24639795D01*
X139787291Y-23838432D01*
X140246094Y-23072756D01*
X139301568Y-22474912D01*
X139271479Y-22455957D01*
X138007793Y-21814018D01*
X136620661Y-21409603D01*
X135078025Y-21244041D01*
X133347824Y-21318663D01*
X131397999Y-21634796D01*
X129196493Y-22193771D01*
X126711245Y-22996916D01*
X126037434Y-23229009D01*
X124608829Y-23702587D01*
X123026578Y-24208731D01*
X121439690Y-24700110D01*
X119997182Y-25129397D01*
X119250511Y-25350371D01*
X117950062Y-25747877D01*
X116399495Y-26232537D01*
X114673355Y-26780635D01*
X112846187Y-27368457D01*
X110992535Y-27972289D01*
X109186945Y-28568415D01*
X108012917Y-28958117D01*
X105358297Y-29831246D01*
X103024660Y-30584803D01*
X100972508Y-31229914D01*
X99162343Y-31777709D01*
X97554668Y-32239314D01*
X96109984Y-32625857D01*
X94788794Y-32948465D01*
X93551601Y-33218266D01*
X92358906Y-33446389D01*
X91171212Y-33643959D01*
X90273147Y-33780324D01*
X89064260Y-33946059D01*
X88069133Y-34049459D01*
X87176865Y-34098411D01*
X86276559Y-34100802D01*
X85257315Y-34064518D01*
X84367922Y-34005362D01*
X83217119Y-33887764D01*
X82167772Y-33739331D01*
X81369128Y-33578710D01*
X81313309Y-33564651D01*
X80361110Y-33383140D01*
X79253929Y-33250968D01*
X78220070Y-33195888D01*
X77863014Y-33191825D01*
X77152062Y-33165224D01*
X76733116Y-33101409D01*
X76527727Y-32982309D01*
X76457448Y-32789853D01*
X76477781Y-32561772D01*
X76702770Y-32376028D01*
X77234986Y-32234545D01*
X77940944Y-32143982D01*
X78971490Y-32152209D01*
X80224858Y-32302856D01*
X81774165Y-32601839D01*
X83073988Y-32833490D01*
X85630129Y-33037555D01*
X88402729Y-32962789D01*
X91346407Y-32609157D01*
X91671662Y-32553202D01*
X93162818Y-32247318D01*
X94972767Y-31811787D01*
X97058592Y-31259038D01*
X99377373Y-30601498D01*
X101886196Y-29851594D01*
X104542144Y-29021752D01*
X107302299Y-28124400D01*
X110123743Y-27171965D01*
X110234855Y-27133821D01*
X111879812Y-26580531D01*
X113715210Y-25980781D01*
X115599269Y-25379831D01*
X117390209Y-24822945D01*
X118946250Y-24355388D01*
X118973266Y-24347465D01*
X120477402Y-23896898D01*
X122086086Y-23399084D01*
X123676928Y-22892951D01*
X125127538Y-22417429D01*
X126315525Y-22011446D01*
X128348586Y-21342629D01*
X130793484Y-20695320D01*
X132982616Y-20316795D01*
X134938201Y-20206152D01*
X136682462Y-20362494D01*
X138237616Y-20784919D01*
X139625883Y-21472528D01*
X140139501Y-21783190D01*
X140468859Y-21925867D01*
X140658020Y-21881355D01*
X140808306Y-21666257D01*
X140888145Y-21415214D01*
X140925960Y-20728600D01*
X140847835Y-19746625D01*
X140829474Y-19599061D01*
X140718924Y-18856004D01*
X140591003Y-18386266D01*
X140404272Y-18081271D01*
X140117293Y-17832440D01*
X140014189Y-17761159D01*
X139495493Y-17505707D01*
X138825579Y-17336229D01*
X137956000Y-17249947D01*
X136838309Y-17244084D01*
X135424062Y-17315862D01*
X133664810Y-17462504D01*
X131021259Y-17776582D01*
X128041551Y-18265707D01*
X124808023Y-18925025D01*
X121301386Y-19759138D01*
X117502358Y-20772643D01*
X113391649Y-21970140D01*
X108949973Y-23356229D01*
X108583898Y-23471965D01*
X106197460Y-24153438D01*
X103481987Y-24819545D01*
X100498186Y-25458734D01*
X97306768Y-26059453D01*
X93968445Y-26610147D01*
X90543925Y-27099266D01*
X87093919Y-27515256D01*
X81128767Y-28166047D01*
X78667697Y-27815461D01*
X78319749Y-27765515D01*
X76636676Y-27512064D01*
X74948760Y-27236069D01*
X73179127Y-26923579D01*
X71250905Y-26560646D01*
X69087221Y-26133319D01*
X66611203Y-25627650D01*
X65830133Y-25467082D01*
X64070564Y-25116127D01*
X62614484Y-24848190D01*
X61400108Y-24657019D01*
X60365654Y-24536360D01*
X59449336Y-24479962D01*
X58589374Y-24481570D01*
X57723982Y-24534933D01*
X56791376Y-24633795D01*
X56708372Y-24643788D01*
X55717006Y-24747961D01*
X55046566Y-24779271D01*
X54629337Y-24737383D01*
X54397602Y-24621962D01*
X54217024Y-24342915D01*
X54344158Y-23995772D01*
X54464693Y-23857436D01*
X54705749Y-23731871D01*
X55120979Y-23638685D01*
X55785565Y-23562127D01*
X56774692Y-23486440D01*
X57041845Y-23468476D01*
X57833187Y-23422504D01*
X58550032Y-23400110D01*
X59244204Y-23407554D01*
X59967528Y-23451097D01*
X60771832Y-23537003D01*
X61708940Y-23671530D01*
X62830678Y-23860940D01*
X64188872Y-24111494D01*
X65835348Y-24429454D01*
X67821931Y-24821081D01*
X68433430Y-24941505D01*
X70226359Y-25287589D01*
X72036908Y-25627795D01*
X73783173Y-25947276D01*
X75383253Y-26231185D01*
X76755244Y-26464676D01*
X77817240Y-26632903D01*
X81203776Y-27135845D01*
X86673680Y-26554337D01*
X88565889Y-26339302D01*
X92272728Y-25841684D01*
X95961917Y-25250363D01*
X99557085Y-24580079D01*
X102981862Y-23845570D01*
X106159879Y-23061573D01*
X109014766Y-22242828D01*
X109638151Y-22049440D01*
X111880682Y-21366486D01*
X114143516Y-20695618D01*
X116359935Y-20055641D01*
X118463225Y-19465358D01*
X120386668Y-18943574D01*
X122063548Y-18509092D01*
X123427147Y-18180718D01*
X123875602Y-18078653D01*
X125130138Y-17791166D01*
X126358113Y-17507261D01*
X127438307Y-17255047D01*
X128249500Y-17062629D01*
X129078658Y-16880509D01*
X130655550Y-16608217D01*
X132334339Y-16396241D01*
X134033051Y-16249388D01*
X135669715Y-16172467D01*
X137162360Y-16170286D01*
X138429012Y-16247651D01*
G37*
G36*
X95821867Y-48497321D02*
G01*
X96645018Y-49108285D01*
X98123693Y-50039126D01*
X99586339Y-50704968D01*
X101157200Y-51157146D01*
X102960518Y-51446998D01*
X103366202Y-51494602D01*
X104101091Y-51586002D01*
X104625191Y-51658347D01*
X104845114Y-51699141D01*
X104859121Y-51750246D01*
X104766213Y-52073592D01*
X104572213Y-52528805D01*
X104537443Y-52610392D01*
X104218359Y-53269020D01*
X103854506Y-53957851D01*
X103491429Y-54585258D01*
X103174675Y-55059616D01*
X102502661Y-55850837D01*
X101120840Y-57109282D01*
X99535513Y-58190330D01*
X97869301Y-59002844D01*
X97394999Y-59162324D01*
X96085969Y-59436735D01*
X94599343Y-59570584D01*
X93075777Y-59555282D01*
X91655922Y-59382241D01*
X91401734Y-59331279D01*
X89375403Y-58760027D01*
X87553615Y-57915403D01*
X85861006Y-56755389D01*
X84222212Y-55237972D01*
X83429977Y-54410353D01*
X84855823Y-54410353D01*
X84871495Y-54439836D01*
X85095876Y-54683197D01*
X85529367Y-55096020D01*
X86099289Y-55608289D01*
X87632654Y-56742785D01*
X89539351Y-57705699D01*
X91581105Y-58316594D01*
X92717588Y-58491775D01*
X94751032Y-58530011D01*
X96694051Y-58218422D01*
X98504879Y-57573889D01*
X100141747Y-56613295D01*
X101562892Y-55353523D01*
X102726543Y-53811455D01*
X103421150Y-52670138D01*
X102009833Y-52417108D01*
X101287839Y-52271518D01*
X98915825Y-51544824D01*
X96739317Y-50476612D01*
X94778839Y-49076364D01*
X93654399Y-48124044D01*
X89247248Y-51206845D01*
X89225166Y-51222293D01*
X88062773Y-52040253D01*
X87017639Y-52784714D01*
X86132071Y-53424818D01*
X85448374Y-53929700D01*
X85008857Y-54268499D01*
X84855823Y-54410353D01*
X83429977Y-54410353D01*
X83206036Y-54176410D01*
X87893795Y-50884162D01*
X88065685Y-50763466D01*
X89292722Y-49903167D01*
X90431367Y-49107006D01*
X91433884Y-48408206D01*
X92252531Y-47839988D01*
X92839571Y-47435576D01*
X93147263Y-47228191D01*
X93712973Y-46864466D01*
X95821867Y-48497321D01*
G37*
G36*
X92813354Y-67873076D02*
G01*
X92759131Y-68278817D01*
X92646092Y-68881986D01*
X92586271Y-69193856D01*
X92400083Y-71334443D01*
X92574775Y-73510451D01*
X93092953Y-75646352D01*
X93937226Y-77666617D01*
X95090202Y-79495716D01*
X95172043Y-79596792D01*
X95607124Y-80054033D01*
X96220476Y-80627983D01*
X96944632Y-81263221D01*
X97712125Y-81904326D01*
X98243187Y-82326931D01*
X98455491Y-82495877D01*
X99107264Y-82982454D01*
X99599977Y-83308636D01*
X99866164Y-83419002D01*
X99893539Y-83399454D01*
X100121882Y-83137159D01*
X100549166Y-82596309D01*
X100960505Y-82058420D01*
X103832034Y-82058420D01*
X103959140Y-82093520D01*
X104457649Y-82080855D01*
X105264309Y-81981727D01*
X106328911Y-81805440D01*
X107601242Y-81561301D01*
X109031093Y-81258610D01*
X110568252Y-80906673D01*
X112162510Y-80514795D01*
X113076660Y-80283148D01*
X114336139Y-79967459D01*
X115441439Y-79694473D01*
X116334255Y-79478411D01*
X116956279Y-79333500D01*
X117249205Y-79273959D01*
X117491247Y-79339688D01*
X117964478Y-79669545D01*
X118536855Y-80224116D01*
X119017267Y-80718541D01*
X119407329Y-81069100D01*
X119618218Y-81195257D01*
X119631858Y-81192892D01*
X119835796Y-80962284D01*
X119974216Y-80441484D01*
X120030590Y-79731487D01*
X119988390Y-78933284D01*
X119807952Y-78070309D01*
X119255977Y-76907443D01*
X119019130Y-76580505D01*
X118316742Y-75817882D01*
X117454158Y-75058443D01*
X116560815Y-74410653D01*
X115766147Y-73982979D01*
X115135098Y-73730032D01*
X109440179Y-77860328D01*
X108256217Y-78721879D01*
X107036819Y-79615764D01*
X105962318Y-80410401D01*
X105068650Y-81078887D01*
X104391755Y-81594321D01*
X103967570Y-81929798D01*
X103832034Y-82058420D01*
X100960505Y-82058420D01*
X101149335Y-81811496D01*
X101608265Y-81200707D01*
X103068181Y-81200707D01*
X103119282Y-81168516D01*
X103449203Y-80936968D01*
X104059348Y-80499576D01*
X104921537Y-79876819D01*
X106007591Y-79089176D01*
X107289332Y-78157127D01*
X108738580Y-77101149D01*
X110327157Y-75941723D01*
X112026882Y-74699327D01*
X113809578Y-73394440D01*
X115034610Y-72497121D01*
X116346695Y-73133552D01*
X116457863Y-73186792D01*
X117062996Y-73449575D01*
X117483472Y-73586206D01*
X117633965Y-73567894D01*
X117615507Y-73502535D01*
X117436084Y-73145871D01*
X117134415Y-72662746D01*
X116955900Y-72420250D01*
X116058432Y-71550262D01*
X114893219Y-70807787D01*
X113561788Y-70248688D01*
X112165664Y-69928827D01*
X111260501Y-69810949D01*
X107552838Y-74909805D01*
X107140234Y-75477314D01*
X106229529Y-76730544D01*
X105391245Y-77884937D01*
X104657965Y-78895574D01*
X104062276Y-79717534D01*
X103636758Y-80305894D01*
X103413998Y-80615735D01*
X103334426Y-80729520D01*
X103114067Y-81073330D01*
X103068181Y-81200707D01*
X101608265Y-81200707D01*
X101896337Y-80817312D01*
X102764115Y-79648348D01*
X103726616Y-78339199D01*
X104757785Y-76924454D01*
X105009462Y-76577757D01*
X106056193Y-75136794D01*
X107045892Y-73775825D01*
X107948935Y-72535489D01*
X108735697Y-71456429D01*
X109376546Y-70579286D01*
X109841860Y-69944703D01*
X110102009Y-69593318D01*
X110749668Y-68732780D01*
X111843849Y-68848969D01*
X113253428Y-69092995D01*
X114878510Y-69640187D01*
X116290994Y-70425454D01*
X117448225Y-71417935D01*
X118307544Y-72586765D01*
X118645755Y-73443661D01*
X118826294Y-73901077D01*
X118917699Y-74214622D01*
X119233506Y-74968362D01*
X119604269Y-75569240D01*
X119924882Y-75995900D01*
X120601135Y-77208977D01*
X121009599Y-78473038D01*
X121044177Y-78803650D01*
X121139255Y-79712720D01*
X120979081Y-80852660D01*
X120518056Y-81817494D01*
X120501099Y-81841053D01*
X120259422Y-82244629D01*
X120243702Y-82589938D01*
X120441720Y-83078877D01*
X120656398Y-83693228D01*
X120845509Y-84630249D01*
X120923210Y-85365506D01*
X120953933Y-85656215D01*
X120966149Y-86615070D01*
X120866635Y-87350762D01*
X120721340Y-87735483D01*
X120368535Y-88422574D01*
X119934219Y-89103616D01*
X119582236Y-89570684D01*
X119242134Y-89970077D01*
X119049068Y-90131226D01*
X119041177Y-90130594D01*
X118776837Y-90055585D01*
X118175873Y-89865372D01*
X117275254Y-89572204D01*
X116111946Y-89188330D01*
X114722917Y-88725999D01*
X113145132Y-88197460D01*
X111415560Y-87614962D01*
X109571166Y-86990753D01*
X100255111Y-83830407D01*
X98240922Y-83837174D01*
X97793647Y-83835008D01*
X96763111Y-83807082D01*
X96715192Y-83804396D01*
X103665187Y-83804396D01*
X103674336Y-83813486D01*
X103935873Y-83923290D01*
X104526225Y-84141516D01*
X105405158Y-84454115D01*
X106532440Y-84847030D01*
X107867840Y-85306211D01*
X109371125Y-85817604D01*
X111002064Y-86367157D01*
X111394481Y-86498751D01*
X113015757Y-87041864D01*
X114511909Y-87542165D01*
X115840596Y-87985552D01*
X116959475Y-88357933D01*
X117826207Y-88645209D01*
X118398451Y-88833283D01*
X118633865Y-88908060D01*
X118757372Y-88889697D01*
X119062689Y-88619537D01*
X119394511Y-88125586D01*
X119688625Y-87512106D01*
X119880817Y-86883359D01*
X119927589Y-86532972D01*
X119896974Y-85491512D01*
X119682675Y-84333038D01*
X119318471Y-83207223D01*
X118838146Y-82263737D01*
X118549957Y-81849481D01*
X118072894Y-81239813D01*
X117671048Y-80808318D01*
X117156477Y-80346229D01*
X110442368Y-82034949D01*
X109132643Y-82365614D01*
X107661085Y-82740329D01*
X106354020Y-83076647D01*
X105256174Y-83362888D01*
X104412271Y-83587378D01*
X103867034Y-83738440D01*
X103665187Y-83804396D01*
X96715192Y-83804396D01*
X95811259Y-83753728D01*
X95098691Y-83682832D01*
X94991052Y-83667051D01*
X92642729Y-83119672D01*
X90389746Y-82217709D01*
X88278865Y-80997476D01*
X86356848Y-79495285D01*
X84670458Y-77747448D01*
X83266457Y-75790277D01*
X82191607Y-73660084D01*
X82161708Y-73585987D01*
X81809688Y-72647230D01*
X81525889Y-71782643D01*
X82777490Y-71782643D01*
X82909668Y-72231498D01*
X83226819Y-72982737D01*
X83401807Y-73377852D01*
X84255214Y-75053596D01*
X85206988Y-76474772D01*
X86347219Y-77761473D01*
X87765993Y-79033792D01*
X88978325Y-79945978D01*
X90948316Y-81111148D01*
X92968688Y-81944610D01*
X94974965Y-82416114D01*
X95127013Y-82438219D01*
X95706929Y-82531717D01*
X96096353Y-82608189D01*
X96133250Y-82585999D01*
X96003536Y-82357845D01*
X95659576Y-81936609D01*
X95145769Y-81379674D01*
X95019671Y-81246851D01*
X93734439Y-79631729D01*
X92668882Y-77803731D01*
X91861001Y-75853039D01*
X91348792Y-73869838D01*
X91170254Y-71944311D01*
X91169586Y-71671741D01*
X91159074Y-70950090D01*
X91138411Y-70433534D01*
X91110947Y-70219518D01*
X91072913Y-70218755D01*
X90753449Y-70307311D01*
X90186284Y-70502666D01*
X89460735Y-70774767D01*
X88448407Y-71117732D01*
X86810336Y-71494437D01*
X85212772Y-71663731D01*
X83792567Y-71605554D01*
X83757666Y-71600706D01*
X83174799Y-71532214D01*
X82856970Y-71571204D01*
X82777490Y-71782643D01*
X81525889Y-71782643D01*
X81508242Y-71728882D01*
X81275495Y-70901710D01*
X81129578Y-70236480D01*
X81088618Y-69803960D01*
X81170744Y-69674918D01*
X82922466Y-70143839D01*
X84524359Y-70390529D01*
X85996873Y-70391554D01*
X87435141Y-70146679D01*
X88934300Y-69655670D01*
X89065888Y-69603302D01*
X89998721Y-69205088D01*
X90918919Y-68773864D01*
X91644743Y-68394213D01*
X92162197Y-68101490D01*
X92605716Y-67859347D01*
X92804373Y-67762920D01*
X92813354Y-67873076D01*
G37*
G36*
X125760275Y-34210241D02*
G01*
X126102406Y-34657876D01*
X126195610Y-35215637D01*
X125975162Y-35767644D01*
X125793487Y-35945357D01*
X125269851Y-36141560D01*
X124709091Y-36067966D01*
X124245154Y-35759750D01*
X124011983Y-35252088D01*
X124103942Y-34713606D01*
X124466083Y-34230746D01*
X124982080Y-33989704D01*
X125233938Y-33988607D01*
X125760275Y-34210241D01*
G37*
G36*
X105509836Y-36408858D02*
G01*
X105744348Y-36626124D01*
X106047564Y-37078523D01*
X106475092Y-37827116D01*
X107381446Y-39281234D01*
X108910643Y-41139011D01*
X110678080Y-42684601D01*
X112667922Y-43904867D01*
X114864333Y-44786673D01*
X115759758Y-45063056D01*
X115486897Y-45432166D01*
X115192269Y-45830721D01*
X114791895Y-46320020D01*
X113744023Y-47338770D01*
X112472879Y-48330623D01*
X111090537Y-49219926D01*
X109709071Y-49931029D01*
X108440554Y-50388277D01*
X107628902Y-50565020D01*
X106273803Y-50753002D01*
X104920185Y-50833968D01*
X103754808Y-50791833D01*
X102125805Y-50499804D01*
X100067929Y-49820547D01*
X98080347Y-48838148D01*
X96241199Y-47599426D01*
X94628622Y-46151196D01*
X93320757Y-44540274D01*
X92963545Y-43979818D01*
X92539587Y-43253038D01*
X92144170Y-42520961D01*
X91951298Y-42131387D01*
X93192575Y-42131387D01*
X93220412Y-42427417D01*
X93385904Y-42777137D01*
X93658793Y-43205398D01*
X94008821Y-43737050D01*
X94851523Y-44876489D01*
X96304248Y-46339800D01*
X98006872Y-47609276D01*
X99881110Y-48636808D01*
X101848675Y-49374284D01*
X103831286Y-49773593D01*
X105590451Y-49818386D01*
X107623666Y-49521130D01*
X109591530Y-48871621D01*
X111426568Y-47892997D01*
X113061307Y-46608398D01*
X113521113Y-46159694D01*
X113867760Y-45792713D01*
X113996756Y-45615132D01*
X113868718Y-45523522D01*
X113455548Y-45330475D01*
X112857553Y-45091297D01*
X111752266Y-44597678D01*
X110006220Y-43480838D01*
X108337621Y-41985885D01*
X106757913Y-40123676D01*
X105278546Y-37905061D01*
X105233646Y-37834901D01*
X105145985Y-37752170D01*
X105002533Y-37713482D01*
X104763036Y-37729752D01*
X104387239Y-37811894D01*
X103834893Y-37970825D01*
X103065743Y-38217460D01*
X102039539Y-38562716D01*
X100716025Y-39017505D01*
X99054951Y-39592746D01*
X97610710Y-40091119D01*
X96177215Y-40586852D01*
X95062920Y-40987176D01*
X94237565Y-41316942D01*
X93670894Y-41600999D01*
X93332650Y-41864197D01*
X93192575Y-42131387D01*
X91951298Y-42131387D01*
X91822078Y-41870381D01*
X91618092Y-41388084D01*
X91576998Y-41160864D01*
X91577844Y-41159997D01*
X91788112Y-41071129D01*
X92322832Y-40870675D01*
X93130131Y-40576845D01*
X94158143Y-40207850D01*
X95354999Y-39781899D01*
X96668828Y-39317203D01*
X98047764Y-38831971D01*
X99439936Y-38344412D01*
X100793474Y-37872739D01*
X102056512Y-37435160D01*
X103177179Y-37049885D01*
X104103608Y-36735124D01*
X104783927Y-36509088D01*
X105166270Y-36389986D01*
X105288423Y-36365666D01*
X105509836Y-36408858D01*
G37*
G36*
X86755901Y-59062038D02*
G01*
X86859981Y-59114487D01*
X87885655Y-59561229D01*
X89099400Y-59999328D01*
X90321131Y-60368447D01*
X91370764Y-60608248D01*
X92090775Y-60689310D01*
X93296187Y-60688963D01*
X94805140Y-60555964D01*
X97016777Y-60293884D01*
X96684878Y-61095291D01*
X96587790Y-61322587D01*
X96405083Y-61657349D01*
X95595731Y-63140263D01*
X94303373Y-64824902D01*
X92777758Y-66310087D01*
X91085927Y-67529399D01*
X89294923Y-68416423D01*
X88503577Y-68675936D01*
X87258665Y-68971206D01*
X85941220Y-69184368D01*
X84699047Y-69292846D01*
X83679946Y-69274063D01*
X83287322Y-69216161D01*
X82464574Y-69037648D01*
X81656913Y-68807003D01*
X81099710Y-68593975D01*
X80363384Y-68255411D01*
X79626893Y-67870497D01*
X78982053Y-67490534D01*
X78520683Y-67166825D01*
X78334597Y-66950672D01*
X78336649Y-66941764D01*
X78479318Y-66755315D01*
X79931956Y-66755315D01*
X80008596Y-66864399D01*
X80378909Y-67106012D01*
X80965013Y-67393455D01*
X81664993Y-67682444D01*
X82376932Y-67928696D01*
X82998912Y-68087927D01*
X83088582Y-68103131D01*
X83846075Y-68171700D01*
X84789331Y-68187646D01*
X85735561Y-68147021D01*
X87419571Y-67890809D01*
X89364859Y-67244233D01*
X91186055Y-66224283D01*
X92901374Y-64822507D01*
X93297038Y-64414198D01*
X93821599Y-63811953D01*
X94342742Y-63163817D01*
X94794439Y-62555605D01*
X95110660Y-62073127D01*
X95225373Y-61802199D01*
X95213223Y-61788026D01*
X94944466Y-61743890D01*
X94395876Y-61726685D01*
X93663867Y-61740238D01*
X91888782Y-61699584D01*
X89940484Y-61368983D01*
X87937906Y-60711971D01*
X87163608Y-60408451D01*
X86665481Y-60244168D01*
X86352396Y-60209622D01*
X86131414Y-60294590D01*
X85909593Y-60488846D01*
X85462732Y-60929833D01*
X84807699Y-61591215D01*
X84051825Y-62365396D01*
X83242670Y-63202525D01*
X82427786Y-64052745D01*
X81654734Y-64866203D01*
X80971067Y-65593043D01*
X80424345Y-66183412D01*
X80062122Y-66587453D01*
X79931956Y-66755315D01*
X78479318Y-66755315D01*
X78502403Y-66725146D01*
X78907985Y-66266249D01*
X79518146Y-65603002D01*
X80297632Y-64773337D01*
X81211193Y-63815178D01*
X82223573Y-62766455D01*
X86132086Y-58741356D01*
X86755901Y-59062038D01*
G37*
%TD*%
M02*
