%TF.GenerationSoftware,KiCad,Pcbnew,(6.0.0)*%
%TF.CreationDate,2022-02-05T19:22:17+07:00*%
%TF.ProjectId,kibod-01-mirrored-rev2,6b69626f-642d-4303-912d-6d6972726f72,rev?*%
%TF.SameCoordinates,Original*%
%TF.FileFunction,OtherDrawing,Comment*%
%FSLAX46Y46*%
G04 Gerber Fmt 4.6, Leading zero omitted, Abs format (unit mm)*
G04 Created by KiCad (PCBNEW (6.0.0)) date 2022-02-05 19:22:17*
%MOMM*%
%LPD*%
G01*
G04 APERTURE LIST*
%ADD10C,0.150000*%
%ADD11C,0.120000*%
%ADD12C,0.066040*%
%ADD13C,0.203200*%
%ADD14C,0.200000*%
G04 APERTURE END LIST*
D10*
%TO.C,U2*%
X142066631Y-63445206D02*
X142876155Y-63445206D01*
X142971393Y-63397587D01*
X143019012Y-63349968D01*
X143066631Y-63254730D01*
X143066631Y-63064254D01*
X143019012Y-62969016D01*
X142971393Y-62921397D01*
X142876155Y-62873778D01*
X142066631Y-62873778D01*
X142161870Y-62445206D02*
X142114251Y-62397587D01*
X142066631Y-62302349D01*
X142066631Y-62064254D01*
X142114251Y-61969016D01*
X142161870Y-61921397D01*
X142257108Y-61873778D01*
X142352346Y-61873778D01*
X142495203Y-61921397D01*
X143066631Y-62492825D01*
X143066631Y-61873778D01*
D11*
%TO.C,K-0-0*%
X12744144Y-53857815D02*
X31096734Y-48940253D01*
X36014296Y-67292843D02*
X17661706Y-72210405D01*
X31096734Y-48940253D02*
X36014296Y-67292843D01*
X17661706Y-72210405D02*
X12744144Y-53857815D01*
%TO.C,K-0-1*%
X38003238Y-66658793D02*
X34052916Y-48073989D01*
X52637720Y-44123667D02*
X56588042Y-62708471D01*
X56588042Y-62708471D02*
X38003238Y-66658793D01*
X34052916Y-48073989D02*
X52637720Y-44123667D01*
%TO.C,K-0-2*%
X52603639Y-28014368D02*
X71369718Y-25042113D01*
X55575894Y-46780447D02*
X52603639Y-28014368D01*
X71369718Y-25042113D02*
X74341973Y-43808192D01*
X74341973Y-43808192D02*
X55575894Y-46780447D01*
%TO.C,K-0-3*%
X93436714Y-20200764D02*
X95422754Y-39096680D01*
X74540798Y-22186804D02*
X93436714Y-20200764D01*
X76526838Y-41082720D02*
X74540798Y-22186804D01*
X95422754Y-39096680D02*
X76526838Y-41082720D01*
%TO.C,K-0-4*%
X116119382Y-21370185D02*
X117113765Y-40344146D01*
X98139804Y-41338529D02*
X97145421Y-22364568D01*
X97145421Y-22364568D02*
X116119382Y-21370185D01*
X117113765Y-40344146D02*
X98139804Y-41338529D01*
%TO.C,K-0-5*%
X138734704Y-21314881D02*
X138734704Y-40314881D01*
X119734704Y-40314881D02*
X119734704Y-21314881D01*
X119734704Y-21314881D02*
X138734704Y-21314881D01*
X138734704Y-40314881D02*
X119734704Y-40314881D01*
%TO.C,K-1-0*%
X40935092Y-85582797D02*
X22582502Y-90500359D01*
X36017530Y-67230207D02*
X40935092Y-85582797D01*
X17664940Y-72147769D02*
X36017530Y-67230207D01*
X22582502Y-90500359D02*
X17664940Y-72147769D01*
%TO.C,K-1-1*%
X41963952Y-85292505D02*
X38013630Y-66707701D01*
X60548756Y-81342183D02*
X41963952Y-85292505D01*
X56598434Y-62757379D02*
X60548756Y-81342183D01*
X38013630Y-66707701D02*
X56598434Y-62757379D01*
%TO.C,K-1-2*%
X74349792Y-43857575D02*
X77322047Y-62623654D01*
X55583713Y-46829830D02*
X74349792Y-43857575D01*
X77322047Y-62623654D02*
X58555968Y-65595909D01*
X58555968Y-65595909D02*
X55583713Y-46829830D01*
%TO.C,K-1-3*%
X78518106Y-60028360D02*
X76532066Y-41132444D01*
X95427982Y-39146404D02*
X97414022Y-58042320D01*
X97414022Y-58042320D02*
X78518106Y-60028360D01*
X76532066Y-41132444D02*
X95427982Y-39146404D01*
%TO.C,K-1-4*%
X99136803Y-60362421D02*
X98142420Y-41388460D01*
X98142420Y-41388460D02*
X117116381Y-40394077D01*
X118110764Y-59368038D02*
X99136803Y-60362421D01*
X117116381Y-40394077D02*
X118110764Y-59368038D01*
%TO.C,K-1-5*%
X138734704Y-59364881D02*
X119734704Y-59364881D01*
X119734704Y-40364881D02*
X138734704Y-40364881D01*
X138734704Y-40364881D02*
X138734704Y-59364881D01*
X119734704Y-59364881D02*
X119734704Y-40364881D01*
%TO.C,K-2-0*%
X22595444Y-90548655D02*
X40948034Y-85631093D01*
X40948034Y-85631093D02*
X45865596Y-103983683D01*
X45865596Y-103983683D02*
X27513006Y-108901245D01*
X27513006Y-108901245D02*
X22595444Y-90548655D01*
%TO.C,K-2-1*%
X41974351Y-85341412D02*
X60559155Y-81391090D01*
X60559155Y-81391090D02*
X64509477Y-99975894D01*
X45924673Y-103926216D02*
X41974351Y-85341412D01*
X64509477Y-99975894D02*
X45924673Y-103926216D01*
%TO.C,K-2-2*%
X80302124Y-81439116D02*
X61536045Y-84411371D01*
X77329869Y-62673037D02*
X80302124Y-81439116D01*
X61536045Y-84411371D02*
X58563790Y-65645292D01*
X58563790Y-65645292D02*
X77329869Y-62673037D01*
%TO.C,K-2-3*%
X99405288Y-76987963D02*
X80509372Y-78974003D01*
X78523332Y-60078087D02*
X97419248Y-58092047D01*
X97419248Y-58092047D02*
X99405288Y-76987963D01*
X80509372Y-78974003D02*
X78523332Y-60078087D01*
%TO.C,K-2-4*%
X119107765Y-78391931D02*
X100133804Y-79386314D01*
X100133804Y-79386314D02*
X99139421Y-60412353D01*
X118113382Y-59417970D02*
X119107765Y-78391931D01*
X99139421Y-60412353D02*
X118113382Y-59417970D01*
%TO.C,K-2-5*%
X119734704Y-78414881D02*
X119734704Y-59414881D01*
X138734704Y-78414881D02*
X119734704Y-78414881D01*
X119734704Y-59414881D02*
X138734704Y-59414881D01*
X138734704Y-59414881D02*
X138734704Y-78414881D01*
%TO.C,K-3-3*%
X99752809Y-79409123D02*
X118741235Y-80072213D01*
X99089719Y-98397549D02*
X99752809Y-79409123D01*
X118741235Y-80072213D02*
X118078145Y-99060639D01*
X118078145Y-99060639D02*
X99089719Y-98397549D01*
%TO.C,K-3-4*%
X120139449Y-80165503D02*
X139035365Y-82151543D01*
X118153409Y-99061419D02*
X120139449Y-80165503D01*
X137049325Y-101047459D02*
X118153409Y-99061419D01*
X139035365Y-82151543D02*
X137049325Y-101047459D01*
%TO.C,K-3-5*%
X140431977Y-82374411D02*
X159143324Y-85673726D01*
X159143324Y-85673726D02*
X155844009Y-104385073D01*
X155844009Y-104385073D02*
X137132662Y-101085758D01*
X137132662Y-101085758D02*
X140431977Y-82374411D01*
D12*
%TO.C,J1*%
X144830800Y-73101200D02*
X144830800Y-72593200D01*
D13*
X142956280Y-63847980D02*
X149753320Y-63847980D01*
D12*
X144830800Y-75641200D02*
X145338800Y-75641200D01*
X147370800Y-75133200D02*
X147878800Y-75133200D01*
X145338800Y-75641200D02*
X145338800Y-75133200D01*
D13*
X142956280Y-81846420D02*
X149753320Y-81846420D01*
D12*
X147878800Y-70561200D02*
X147878800Y-70053200D01*
X147370800Y-70561200D02*
X147878800Y-70561200D01*
X144830800Y-70561200D02*
X145338800Y-70561200D01*
X147878800Y-75641200D02*
X147878800Y-75133200D01*
X147878800Y-78181200D02*
X147878800Y-77673200D01*
X147370800Y-68021200D02*
X147878800Y-68021200D01*
D13*
X142956280Y-81846420D02*
X142956280Y-75046840D01*
D12*
X147370800Y-78181200D02*
X147370800Y-77673200D01*
X145338800Y-75641200D02*
X145338800Y-75133200D01*
X147370800Y-75641200D02*
X147878800Y-75641200D01*
X144830800Y-67513200D02*
X145338800Y-67513200D01*
X147370800Y-77673200D02*
X147878800Y-77673200D01*
X147370800Y-73101200D02*
X147878800Y-73101200D01*
X147878800Y-75641200D02*
X147878800Y-75133200D01*
X144830800Y-77673200D02*
X145338800Y-77673200D01*
X145338800Y-73101200D02*
X145338800Y-72593200D01*
X144830800Y-75641200D02*
X144830800Y-75133200D01*
X144830800Y-68021200D02*
X145338800Y-68021200D01*
X144830800Y-70053200D02*
X145338800Y-70053200D01*
X147370800Y-75641200D02*
X147370800Y-75133200D01*
X147370800Y-75641200D02*
X147370800Y-75133200D01*
X147370800Y-72593200D02*
X147878800Y-72593200D01*
X147370800Y-78181200D02*
X147878800Y-78181200D01*
X144830800Y-75641200D02*
X144830800Y-75133200D01*
X144830800Y-75133200D02*
X145338800Y-75133200D01*
X147370800Y-68021200D02*
X147370800Y-67513200D01*
X147370800Y-75641200D02*
X147878800Y-75641200D01*
X144830800Y-78181200D02*
X145338800Y-78181200D01*
X145338800Y-78181200D02*
X145338800Y-77673200D01*
X145338800Y-68021200D02*
X145338800Y-67513200D01*
D13*
X142956280Y-63847980D02*
X142956280Y-70647560D01*
D12*
X147370800Y-70053200D02*
X147878800Y-70053200D01*
X144830800Y-72593200D02*
X145338800Y-72593200D01*
X144830800Y-70561200D02*
X144830800Y-70053200D01*
X147370800Y-70561200D02*
X147370800Y-70053200D01*
X147878800Y-68021200D02*
X147878800Y-67513200D01*
X144830800Y-73101200D02*
X145338800Y-73101200D01*
X147370800Y-75133200D02*
X147878800Y-75133200D01*
X147878800Y-73101200D02*
X147878800Y-72593200D01*
X144830800Y-75133200D02*
X145338800Y-75133200D01*
X144830800Y-78181200D02*
X144830800Y-77673200D01*
X147370800Y-67513200D02*
X147878800Y-67513200D01*
X144830800Y-68021200D02*
X144830800Y-67513200D01*
D13*
X149753320Y-63847980D02*
X149753320Y-81846420D01*
D12*
X145338800Y-70561200D02*
X145338800Y-70053200D01*
X144830800Y-75641200D02*
X145338800Y-75641200D01*
X147370800Y-73101200D02*
X147370800Y-72593200D01*
D14*
%TO.C,U1*%
X145999200Y-18699950D02*
X145999200Y-23779950D01*
X153365200Y-23779950D02*
X153365200Y-18699950D01*
X145999200Y-23779950D02*
X153365200Y-23779950D01*
X153365200Y-18699950D02*
X145999200Y-18699950D01*
D12*
%TO.C,J2*%
X151587200Y-73101200D02*
X151587200Y-72593200D01*
X154635200Y-73101200D02*
X154127200Y-73101200D01*
X152095200Y-68021200D02*
X152095200Y-67513200D01*
X154635200Y-72593200D02*
X154127200Y-72593200D01*
X152095200Y-73101200D02*
X151587200Y-73101200D01*
X152095200Y-67513200D02*
X151587200Y-67513200D01*
X152095200Y-78181200D02*
X152095200Y-77673200D01*
X154635200Y-70561200D02*
X154127200Y-70561200D01*
X152095200Y-68021200D02*
X151587200Y-68021200D01*
X152095200Y-75133200D02*
X151587200Y-75133200D01*
D13*
X156509720Y-63847980D02*
X149712680Y-63847980D01*
D12*
X152095200Y-78181200D02*
X151587200Y-78181200D01*
X154635200Y-75641200D02*
X154635200Y-75133200D01*
X152095200Y-75641200D02*
X151587200Y-75641200D01*
X152095200Y-75133200D02*
X151587200Y-75133200D01*
X154635200Y-68021200D02*
X154127200Y-68021200D01*
X154635200Y-70561200D02*
X154635200Y-70053200D01*
D13*
X156509720Y-81846420D02*
X149712680Y-81846420D01*
D12*
X152095200Y-77673200D02*
X151587200Y-77673200D01*
X154635200Y-68021200D02*
X154635200Y-67513200D01*
X154127200Y-75641200D02*
X154127200Y-75133200D01*
X151587200Y-78181200D02*
X151587200Y-77673200D01*
D13*
X156509720Y-63847980D02*
X156509720Y-70647560D01*
D12*
X154635200Y-75641200D02*
X154127200Y-75641200D01*
X154127200Y-78181200D02*
X154127200Y-77673200D01*
X154127200Y-68021200D02*
X154127200Y-67513200D01*
X151587200Y-68021200D02*
X151587200Y-67513200D01*
X154127200Y-70561200D02*
X154127200Y-70053200D01*
X152095200Y-70053200D02*
X151587200Y-70053200D01*
D13*
X149712680Y-63847980D02*
X149712680Y-81846420D01*
D12*
X154635200Y-75133200D02*
X154127200Y-75133200D01*
X152095200Y-75641200D02*
X152095200Y-75133200D01*
X154127200Y-73101200D02*
X154127200Y-72593200D01*
X152095200Y-70561200D02*
X151587200Y-70561200D01*
X154635200Y-75133200D02*
X154127200Y-75133200D01*
X154635200Y-73101200D02*
X154635200Y-72593200D01*
X154635200Y-77673200D02*
X154127200Y-77673200D01*
X152095200Y-70561200D02*
X152095200Y-70053200D01*
D13*
X156509720Y-81846420D02*
X156509720Y-75046840D01*
D12*
X154635200Y-78181200D02*
X154127200Y-78181200D01*
X154127200Y-75641200D02*
X154127200Y-75133200D01*
X154635200Y-75641200D02*
X154635200Y-75133200D01*
X154635200Y-75641200D02*
X154127200Y-75641200D01*
X152095200Y-72593200D02*
X151587200Y-72593200D01*
X151587200Y-70561200D02*
X151587200Y-70053200D01*
X151587200Y-75641200D02*
X151587200Y-75133200D01*
X151587200Y-75641200D02*
X151587200Y-75133200D01*
X152095200Y-73101200D02*
X152095200Y-72593200D01*
X154635200Y-78181200D02*
X154635200Y-77673200D01*
X152095200Y-75641200D02*
X151587200Y-75641200D01*
X152095200Y-75641200D02*
X152095200Y-75133200D01*
X154635200Y-70053200D02*
X154127200Y-70053200D01*
X154635200Y-67513200D02*
X154127200Y-67513200D01*
%TD*%
M02*
