%TF.GenerationSoftware,KiCad,Pcbnew,(6.0.0)*%
%TF.CreationDate,2022-02-07T08:26:48+07:00*%
%TF.ProjectId,kibod-01-mirrored-rev2,6b69626f-642d-4303-912d-6d6972726f72,rev?*%
%TF.SameCoordinates,Original*%
%TF.FileFunction,Soldermask,Top*%
%TF.FilePolarity,Negative*%
%FSLAX46Y46*%
G04 Gerber Fmt 4.6, Leading zero omitted, Abs format (unit mm)*
G04 Created by KiCad (PCBNEW (6.0.0)) date 2022-02-07 08:26:48*
%MOMM*%
%LPD*%
G01*
G04 APERTURE LIST*
G04 Aperture macros list*
%AMRotRect*
0 Rectangle, with rotation*
0 The origin of the aperture is its center*
0 $1 length*
0 $2 width*
0 $3 Rotation angle, in degrees counterclockwise*
0 Add horizontal line*
21,1,$1,$2,0,0,$3*%
G04 Aperture macros list end*
%ADD10RotRect,1.600000X1.200000X285.000000*%
%ADD11RotRect,1.600000X1.600000X285.000000*%
%ADD12C,1.600000*%
%ADD13RotRect,1.600000X1.200000X282.000000*%
%ADD14RotRect,1.600000X1.600000X282.000000*%
%ADD15RotRect,1.600000X1.600000X279.000000*%
%ADD16RotRect,1.600000X1.200000X279.000000*%
%ADD17RotRect,1.600000X1.600000X276.000000*%
%ADD18RotRect,1.600000X1.200000X276.000000*%
%ADD19RotRect,1.600000X1.200000X273.000000*%
%ADD20RotRect,1.600000X1.600000X273.000000*%
%ADD21R,1.600000X1.600000*%
%ADD22R,1.200000X1.600000*%
%ADD23RotRect,1.600000X1.600000X268.000000*%
%ADD24RotRect,1.600000X1.200000X268.000000*%
%ADD25RotRect,1.600000X1.200000X264.000000*%
%ADD26RotRect,1.600000X1.600000X264.000000*%
%ADD27RotRect,1.600000X1.200000X260.000000*%
%ADD28RotRect,1.600000X1.600000X260.000000*%
%ADD29C,2.200000*%
%ADD30RotRect,2.000000X2.000000X195.000000*%
%ADD31C,3.000000*%
%ADD32C,1.700000*%
%ADD33C,4.000000*%
%ADD34RotRect,2.000000X2.000000X192.000000*%
%ADD35RotRect,2.000000X2.000000X189.000000*%
%ADD36RotRect,2.000000X2.000000X186.000000*%
%ADD37RotRect,2.000000X2.000000X183.000000*%
%ADD38R,2.000000X2.000000*%
%ADD39RotRect,2.000000X2.000000X178.000000*%
%ADD40RotRect,2.000000X2.000000X174.000000*%
%ADD41RotRect,2.000000X2.000000X170.000000*%
%ADD42C,2.082800*%
%ADD43C,4.300000*%
%ADD44C,1.500000*%
%ADD45O,2.200000X1.600000*%
%ADD46R,1.752600X1.752600*%
%ADD47C,1.752600*%
G04 APERTURE END LIST*
D10*
%TO.C,D-0-0*%
X34070998Y-64118016D03*
D11*
X34718045Y-66532831D03*
D10*
X33346304Y-61413424D03*
D12*
X32699257Y-58998609D03*
%TD*%
D13*
%TO.C,D-0-1*%
X54895421Y-59459837D03*
D14*
X55415201Y-61905206D03*
D12*
X53793489Y-54275654D03*
D13*
X54313269Y-56721023D03*
%TD*%
D15*
%TO.C,D-0-2*%
X73145434Y-43003337D03*
D16*
X72754348Y-40534116D03*
D12*
X71925246Y-35299367D03*
D16*
X72316332Y-37768588D03*
%TD*%
D17*
%TO.C,D-0-3*%
X94240454Y-38273745D03*
D18*
X93979133Y-35787441D03*
D12*
X93425132Y-30516475D03*
D18*
X93686453Y-33002779D03*
%TD*%
D19*
%TO.C,D-0-4*%
X115916776Y-36924906D03*
D20*
X116047616Y-39421480D03*
D12*
X115639396Y-31632170D03*
D19*
X115770236Y-34128744D03*
%TD*%
D21*
%TO.C,D-0-5*%
X137571593Y-39215342D03*
D22*
X137571593Y-36715342D03*
X137571593Y-33915342D03*
D12*
X137571593Y-31415342D03*
%TD*%
D11*
%TO.C,D-1-0*%
X39723492Y-84821774D03*
D10*
X39076445Y-82406959D03*
D12*
X37704704Y-77287552D03*
D10*
X38351751Y-79702367D03*
%TD*%
D14*
%TO.C,D-1-1*%
X59315673Y-80548022D03*
D13*
X58795893Y-78102653D03*
X58213741Y-75363839D03*
D12*
X57693961Y-72918470D03*
%TD*%
D15*
%TO.C,D-1-2*%
X76163279Y-61760092D03*
D16*
X75772193Y-59290871D03*
D12*
X74943091Y-54056122D03*
D16*
X75334177Y-56525343D03*
%TD*%
D18*
%TO.C,D-1-3*%
X96064593Y-54687204D03*
D17*
X96325914Y-57173508D03*
D12*
X95510592Y-49416238D03*
D18*
X95771913Y-51902542D03*
%TD*%
D20*
%TO.C,D-1-4*%
X116937837Y-58349229D03*
D19*
X116806997Y-55852655D03*
X116660457Y-53056493D03*
D12*
X116529617Y-50559919D03*
%TD*%
D22*
%TO.C,D-1-5*%
X137622393Y-55866942D03*
D21*
X137622393Y-58366942D03*
D12*
X137622393Y-50566942D03*
D22*
X137622393Y-53066942D03*
%TD*%
D11*
%TO.C,D-2-0*%
X44602256Y-103285082D03*
D10*
X43955209Y-100870267D03*
X43230515Y-98165675D03*
D12*
X42583468Y-95750860D03*
%TD*%
D13*
%TO.C,D-2-1*%
X62802718Y-96785371D03*
D14*
X63322498Y-99230740D03*
D13*
X62220566Y-94046557D03*
D12*
X61700786Y-91601188D03*
%TD*%
D15*
%TO.C,D-2-2*%
X79088761Y-80626910D03*
D16*
X78697675Y-78157689D03*
X78259659Y-75392161D03*
D12*
X77868573Y-72922940D03*
%TD*%
D18*
%TO.C,D-2-3*%
X98052247Y-73644732D03*
D17*
X98313568Y-76131036D03*
D18*
X97759567Y-70860070D03*
D12*
X97498246Y-68373766D03*
%TD*%
D20*
%TO.C,D-2-4*%
X118038957Y-77418534D03*
D19*
X117908117Y-74921960D03*
D12*
X117630737Y-69629224D03*
D19*
X117761577Y-72125798D03*
%TD*%
D21*
%TO.C,D-2-5*%
X137723993Y-77366142D03*
D22*
X137723993Y-74866142D03*
D12*
X137723993Y-69566142D03*
D22*
X137723993Y-72066142D03*
%TD*%
D23*
%TO.C,D-3-3*%
X117013885Y-98090166D03*
D24*
X117101134Y-95591689D03*
D12*
X117286101Y-90294918D03*
D24*
X117198852Y-92793395D03*
%TD*%
D25*
%TO.C,D-3-4*%
X136409253Y-97515273D03*
D26*
X136147932Y-100001577D03*
D25*
X136701933Y-94730611D03*
D12*
X136963254Y-92244307D03*
%TD*%
D27*
%TO.C,D-3-5*%
X155414486Y-100810755D03*
D28*
X154980365Y-103272774D03*
D27*
X155900700Y-98053293D03*
D12*
X156334821Y-95591274D03*
%TD*%
D29*
%TO.C,K-0-0*%
X28514536Y-62852628D03*
D30*
X30386708Y-56336026D03*
D29*
X28053096Y-64549890D03*
X21936581Y-64615185D03*
X23184830Y-65854338D03*
D30*
X17655235Y-57117812D03*
D31*
X20610968Y-56325826D03*
D32*
X29286123Y-59260528D03*
D31*
X27401997Y-57135777D03*
D33*
X24379220Y-60575329D03*
D32*
X19472317Y-61890130D03*
D31*
X20041642Y-59107978D03*
X25517871Y-55011025D03*
%TD*%
%TO.C,K-0-1*%
X41065641Y-53698879D03*
D32*
X40351489Y-56447421D03*
X50289469Y-54335039D03*
D31*
X46748783Y-49894144D03*
D33*
X45320479Y-55391230D03*
D31*
X41779793Y-50950336D03*
X48519126Y-52114592D03*
D29*
X42669758Y-59297712D03*
X43851444Y-60600494D03*
D34*
X38786661Y-51586546D03*
D29*
X48781308Y-59552620D03*
D34*
X51541602Y-51472144D03*
D29*
X49330943Y-57881833D03*
%TD*%
D31*
%TO.C,K-0-2*%
X65186847Y-30496480D03*
X60169391Y-31291167D03*
X59312370Y-33998567D03*
D32*
X58455349Y-36705967D03*
D33*
X63472806Y-35911280D03*
D32*
X68490263Y-35116593D03*
D31*
X66838555Y-32806536D03*
D35*
X57147064Y-31769856D03*
D29*
X60621268Y-39673680D03*
X61733152Y-41036522D03*
X66711102Y-40248092D03*
X67347426Y-38608362D03*
D35*
X69890512Y-32323154D03*
%TD*%
D31*
%TO.C,K-0-3*%
X81924686Y-25855073D03*
D33*
X84981776Y-30641742D03*
D31*
X88505402Y-27717403D03*
X80927145Y-28513910D03*
X86976857Y-25324068D03*
D32*
X79929605Y-31172747D03*
X90033947Y-30110737D03*
D29*
X81937237Y-34249748D03*
X82976272Y-35668914D03*
D36*
X78881449Y-26174930D03*
D29*
X88709931Y-33537909D03*
X87988663Y-35142090D03*
D36*
X91578475Y-27394410D03*
%TD*%
D31*
%TO.C,K-0-4*%
X110801438Y-28618438D03*
D32*
X112202631Y-31088490D03*
D31*
X103191881Y-29017238D03*
D32*
X102056555Y-31620224D03*
D31*
X104327207Y-26414252D03*
X109400245Y-26148386D03*
D33*
X107129593Y-31354357D03*
D29*
X104863736Y-36269679D03*
X103900398Y-34798080D03*
D37*
X101271401Y-26574400D03*
X113887203Y-28456720D03*
D29*
X109896829Y-36005906D03*
X110701065Y-34441672D03*
%TD*%
D31*
%TO.C,K-0-5*%
X131774704Y-25734881D03*
X125424704Y-28274881D03*
D32*
X134314704Y-30814881D03*
D31*
X133044704Y-28274881D03*
D33*
X129234704Y-30814881D03*
D31*
X126694704Y-25734881D03*
D32*
X124154704Y-30814881D03*
D29*
X126714704Y-35604881D03*
X125829704Y-34084881D03*
D38*
X123634704Y-25734881D03*
D29*
X131754704Y-35604881D03*
D38*
X136134704Y-28274881D03*
D29*
X132639704Y-34084881D03*
%TD*%
D31*
%TO.C,K-1-0*%
X25531764Y-74615780D03*
X24962438Y-77397932D03*
D32*
X34206919Y-77550482D03*
D33*
X29300016Y-78865283D03*
D32*
X24393113Y-80180084D03*
D31*
X30438667Y-73300979D03*
X32322793Y-75425731D03*
D29*
X28105626Y-84144292D03*
D30*
X22576031Y-75407766D03*
D29*
X26857377Y-82905139D03*
X33435332Y-81142582D03*
D30*
X35307504Y-74625980D03*
D29*
X32973892Y-82839844D03*
%TD*%
D33*
%TO.C,K-1-1*%
X49281193Y-74024942D03*
D31*
X45740507Y-69584048D03*
D32*
X44312203Y-75081133D03*
X54250183Y-72968751D03*
D31*
X52479840Y-70748304D03*
X50709497Y-68527856D03*
X45026355Y-72332591D03*
D29*
X47812158Y-79234206D03*
X46630472Y-77931424D03*
D34*
X42747375Y-70220258D03*
D29*
X53291657Y-76515545D03*
X52742022Y-78186332D03*
D34*
X55502316Y-70105856D03*
%TD*%
D31*
%TO.C,K-1-2*%
X63149465Y-50106629D03*
D32*
X71470337Y-53932055D03*
D33*
X66452880Y-54726742D03*
D31*
X62292444Y-52814029D03*
X68166921Y-49311942D03*
D32*
X61435423Y-55521429D03*
D31*
X69818629Y-51621998D03*
D29*
X64713226Y-59851984D03*
X63601342Y-58489142D03*
D35*
X60127138Y-50585318D03*
D29*
X69691176Y-59063554D03*
X70327500Y-57423824D03*
D35*
X72870586Y-51138616D03*
%TD*%
D31*
%TO.C,K-1-3*%
X83915954Y-44800713D03*
D32*
X92025215Y-49056377D03*
D33*
X86973044Y-49587382D03*
D31*
X82918413Y-47459550D03*
X90496670Y-46663043D03*
D32*
X81920873Y-50118387D03*
D31*
X88968125Y-44269708D03*
D36*
X80872717Y-45120570D03*
D29*
X84967540Y-54614554D03*
X83928505Y-53195388D03*
D36*
X93569743Y-46340050D03*
D29*
X89979931Y-54087730D03*
X90701199Y-52483549D03*
%TD*%
D32*
%TO.C,K-1-4*%
X113199630Y-50112382D03*
D31*
X105324206Y-45438144D03*
X110397244Y-45172278D03*
D32*
X103053554Y-50644116D03*
D33*
X108126592Y-50378249D03*
D31*
X104188880Y-48041130D03*
X111798437Y-47642330D03*
D37*
X102268400Y-45598292D03*
D29*
X105860735Y-55293571D03*
X104897397Y-53821972D03*
X110893828Y-55029798D03*
D37*
X114884202Y-47480612D03*
D29*
X111698064Y-53465564D03*
%TD*%
D32*
%TO.C,K-1-5*%
X124154704Y-49864881D03*
D33*
X129234704Y-49864881D03*
D31*
X131774704Y-44784881D03*
X126694704Y-44784881D03*
X133044704Y-47324881D03*
D32*
X134314704Y-49864881D03*
D31*
X125424704Y-47324881D03*
D29*
X126714704Y-54654881D03*
D38*
X123634704Y-44784881D03*
D29*
X125829704Y-53134881D03*
D38*
X136134704Y-47324881D03*
D29*
X131754704Y-54654881D03*
X132639704Y-53134881D03*
%TD*%
D31*
%TO.C,K-2-0*%
X37253297Y-93826617D03*
X30462268Y-93016666D03*
X29892942Y-95798818D03*
D33*
X34230520Y-97266169D03*
D31*
X35369171Y-91701865D03*
D32*
X29323617Y-98580970D03*
X39137423Y-95951368D03*
D29*
X31787881Y-101306025D03*
X33036130Y-102545178D03*
D30*
X27506535Y-93808652D03*
D29*
X38365836Y-99543468D03*
X37904396Y-101240730D03*
D30*
X40238008Y-93026866D03*
%TD*%
D31*
%TO.C,K-2-1*%
X54670218Y-87161567D03*
D33*
X53241914Y-92658653D03*
D31*
X56440561Y-89382015D03*
X49701228Y-88217759D03*
D32*
X48272924Y-93714844D03*
X58210904Y-91602462D03*
D31*
X48987076Y-90966302D03*
D34*
X46708096Y-88853969D03*
D29*
X50591193Y-96565135D03*
X51772879Y-97867917D03*
X57252378Y-95149256D03*
D34*
X59463037Y-88739567D03*
D29*
X56702743Y-96820043D03*
%TD*%
D31*
%TO.C,K-2-2*%
X65272521Y-71629491D03*
D32*
X64415500Y-74336891D03*
D33*
X69432957Y-73542204D03*
D31*
X72798706Y-70437460D03*
X66129542Y-68922091D03*
D32*
X74450414Y-72747517D03*
D31*
X71146998Y-68127404D03*
D29*
X66581419Y-77304604D03*
X67693303Y-78667446D03*
D35*
X63107215Y-69400780D03*
X75850663Y-69954078D03*
D29*
X72671253Y-77879016D03*
X73307577Y-76239286D03*
%TD*%
D31*
%TO.C,K-2-3*%
X92487936Y-65608686D03*
D32*
X94016481Y-68002020D03*
X83912139Y-69064030D03*
D33*
X88964310Y-68533025D03*
D31*
X84909679Y-66405193D03*
X85907220Y-63746356D03*
X90959391Y-63215351D03*
D36*
X82863983Y-64066213D03*
D29*
X85919771Y-72141031D03*
X86958806Y-73560197D03*
D36*
X95561009Y-65285693D03*
D29*
X91971197Y-73033373D03*
X92692465Y-71429192D03*
%TD*%
D32*
%TO.C,K-2-4*%
X104050555Y-69668009D03*
D31*
X106321207Y-64462037D03*
D33*
X109123593Y-69402142D03*
D32*
X114196631Y-69136275D03*
D31*
X105185881Y-67065023D03*
X112795438Y-66666223D03*
X111394245Y-64196171D03*
D37*
X103265401Y-64622185D03*
D29*
X105894398Y-72845865D03*
X106857736Y-74317464D03*
X112695065Y-72489457D03*
X111890829Y-74053691D03*
D37*
X115881203Y-66504505D03*
%TD*%
D32*
%TO.C,K-2-5*%
X134314704Y-68914881D03*
D31*
X133044704Y-66374881D03*
D33*
X129234704Y-68914881D03*
D32*
X124154704Y-68914881D03*
D31*
X131774704Y-63834881D03*
X125424704Y-66374881D03*
X126694704Y-63834881D03*
D29*
X126714704Y-73704881D03*
D38*
X123634704Y-63834881D03*
D29*
X125829704Y-72184881D03*
X131754704Y-73704881D03*
X132639704Y-72184881D03*
D38*
X136134704Y-66374881D03*
%TD*%
D31*
%TO.C,K-3-3*%
X106554314Y-84069331D03*
D32*
X113992382Y-89412170D03*
D31*
X105196443Y-86563461D03*
X112811801Y-86829395D03*
D33*
X108915477Y-89234881D03*
D32*
X103838572Y-89057592D03*
D31*
X111631219Y-84246620D03*
D39*
X103496178Y-83962538D03*
D29*
X105398430Y-92384056D03*
X106229844Y-93934016D03*
X112204281Y-92621722D03*
X111266773Y-94109910D03*
D39*
X115899918Y-86937235D03*
%TD*%
D33*
%TO.C,K-3-4*%
X128594387Y-90606481D03*
D31*
X126599306Y-85288807D03*
X131651477Y-85819812D03*
D32*
X123542216Y-90075476D03*
D31*
X132649018Y-88478649D03*
X125070761Y-87682142D03*
D32*
X133646558Y-91137486D03*
D29*
X124866232Y-93502648D03*
X125587500Y-95106829D03*
D40*
X123556069Y-84968950D03*
X135722090Y-88801642D03*
D29*
X131638926Y-94214487D03*
X130599891Y-95633653D03*
%TD*%
D31*
%TO.C,K-3-5*%
X144826942Y-90216731D03*
D32*
X153140816Y-94261875D03*
D33*
X148137993Y-93379742D03*
D31*
X152331177Y-91539930D03*
D32*
X143135170Y-92497609D03*
D31*
X151521537Y-88817985D03*
X146518714Y-87935852D03*
D29*
X144824503Y-97659378D03*
D41*
X143505202Y-87404489D03*
D29*
X144216893Y-96008791D03*
X149787934Y-98534565D03*
D41*
X155374233Y-92076503D03*
D29*
X150923434Y-97191335D03*
%TD*%
D42*
%TO.C,J1*%
X145084800Y-67767200D03*
X147624800Y-67767200D03*
X145084800Y-70307200D03*
X147624800Y-70307200D03*
X145084800Y-72847200D03*
X147624800Y-72847200D03*
X145084800Y-75387200D03*
X147624800Y-75387200D03*
X145084800Y-77927200D03*
X147624800Y-77927200D03*
%TD*%
D43*
%TO.C,Ref\u002A\u002A*%
X139395200Y-84328000D03*
%TD*%
%TO.C,Ref\u002A\u002A*%
X119075200Y-63449200D03*
%TD*%
%TO.C,Ref\u002A\u002A*%
X118618000Y-42672000D03*
%TD*%
%TO.C,Ref\u002A\u002A*%
X75895200Y-45974000D03*
%TD*%
%TO.C,Ref\u002A\u002A*%
X78486000Y-64770000D03*
%TD*%
%TO.C,Ref\u002A\u002A*%
X37541200Y-69291200D03*
%TD*%
D44*
%TO.C,U2*%
X149461200Y-57367200D03*
X156461200Y-57367200D03*
X156461200Y-61967200D03*
X149461200Y-61967200D03*
D45*
X146761200Y-64267200D03*
X146761200Y-55067200D03*
X147861200Y-59667200D03*
X151861200Y-59667200D03*
X154861200Y-59667200D03*
%TD*%
D43*
%TO.C,Ref\u002A\u002A*%
X42164000Y-88900000D03*
%TD*%
D46*
%TO.C,U1*%
X157175200Y-24033950D03*
D47*
X157175200Y-26573950D03*
X157175200Y-29113950D03*
X157175200Y-31653950D03*
X157175200Y-34193950D03*
X157175200Y-36733950D03*
X157175200Y-39273950D03*
X157175200Y-41813950D03*
X157175200Y-44353950D03*
X157175200Y-46893950D03*
X157175200Y-49433950D03*
X157175200Y-51973950D03*
X141935200Y-51973950D03*
X141935200Y-49433950D03*
X141935200Y-46893950D03*
X141935200Y-44353950D03*
X141935200Y-41813950D03*
X141935200Y-39273950D03*
X141935200Y-36733950D03*
X141935200Y-34193950D03*
X141935200Y-31653950D03*
X141935200Y-29113950D03*
X141935200Y-26573950D03*
X141935200Y-24033950D03*
%TD*%
D42*
%TO.C,J2*%
X151841200Y-77927200D03*
X154381200Y-77927200D03*
X151841200Y-75387200D03*
X154381200Y-75387200D03*
X151841200Y-72847200D03*
X154381200Y-72847200D03*
X151841200Y-70307200D03*
X154381200Y-70307200D03*
X151841200Y-67767200D03*
X154381200Y-67767200D03*
%TD*%
M02*
