%TF.GenerationSoftware,KiCad,Pcbnew,(6.0.0)*%
%TF.CreationDate,2022-02-05T19:22:17+07:00*%
%TF.ProjectId,kibod-01-mirrored-rev2,6b69626f-642d-4303-912d-6d6972726f72,rev?*%
%TF.SameCoordinates,Original*%
%TF.FileFunction,Legend,Top*%
%TF.FilePolarity,Positive*%
%FSLAX46Y46*%
G04 Gerber Fmt 4.6, Leading zero omitted, Abs format (unit mm)*
G04 Created by KiCad (PCBNEW (6.0.0)) date 2022-02-05 19:22:17*
%MOMM*%
%LPD*%
G01*
G04 APERTURE LIST*
%ADD10C,0.750000*%
%ADD11C,0.150000*%
%ADD12C,0.127000*%
%ADD13C,0.203200*%
%ADD14C,0.381000*%
%ADD15R,1.752600X1.752600*%
%ADD16C,1.752600*%
G04 APERTURE END LIST*
D10*
X66098577Y-93089895D02*
X66541514Y-93352788D01*
X67254821Y-93315405D01*
X67525191Y-93015129D01*
X67652899Y-92722330D01*
X67765654Y-92144208D01*
X67735748Y-91573563D01*
X67563180Y-91010394D01*
X67405566Y-90732548D01*
X67105290Y-90462178D01*
X66519691Y-90206762D01*
X66219415Y-89936392D01*
X66061801Y-89658546D01*
X65889233Y-89095377D01*
X65859327Y-88524731D01*
X65972082Y-87946609D01*
X66099790Y-87653810D01*
X66370160Y-87353534D01*
X67083467Y-87316151D01*
X67526404Y-87579044D01*
X69109419Y-93218210D02*
X68795403Y-87226433D01*
X70393371Y-93150921D02*
X70228887Y-90012371D01*
X70056319Y-89449202D01*
X69756043Y-89178832D01*
X69328059Y-89201262D01*
X69057690Y-89501538D01*
X68929981Y-89794337D01*
X71819985Y-93076155D02*
X71610641Y-89081637D01*
X71670453Y-90222928D02*
X71783209Y-89644806D01*
X71910917Y-89352007D01*
X72181286Y-89051731D01*
X72466609Y-89036778D01*
X73674583Y-92978960D02*
X73465239Y-88984442D01*
X73360567Y-86987183D02*
X73232859Y-87279982D01*
X73390473Y-87557828D01*
X73518181Y-87265029D01*
X73360567Y-86987183D01*
X73390473Y-87557828D01*
X75101196Y-92904194D02*
X74891852Y-88909676D01*
X74921759Y-89480321D02*
X75049467Y-89187522D01*
X75319836Y-88887246D01*
X75747820Y-88864817D01*
X76048096Y-89135186D01*
X76220664Y-89698355D01*
X76385148Y-92836905D01*
X76220664Y-89698355D02*
X76333419Y-89120233D01*
X76603789Y-88819957D01*
X77031773Y-88797528D01*
X77332049Y-89067897D01*
X77504616Y-89631066D01*
X77669101Y-92769616D01*
X78886370Y-88700332D02*
X79200386Y-94692109D01*
X78901324Y-88985655D02*
X79171693Y-88685379D01*
X79742339Y-88655473D01*
X80042614Y-88925842D01*
X80200229Y-89203689D01*
X80372797Y-89766857D01*
X80462515Y-91478794D01*
X80349760Y-92056916D01*
X80222052Y-92349715D01*
X79951682Y-92649991D01*
X79381037Y-92679897D01*
X79080761Y-92409528D01*
X85163470Y-88371363D02*
X85372814Y-92365881D01*
X84330539Y-86126164D02*
X83841529Y-90443388D01*
X85696126Y-90346193D01*
X86515318Y-86869984D02*
X86643027Y-86577185D01*
X86913396Y-86276909D01*
X87626703Y-86239526D01*
X87926979Y-86509896D01*
X88084593Y-86787742D01*
X88257161Y-87350911D01*
X88287067Y-87921556D01*
X88189265Y-88785001D01*
X86656766Y-92298592D01*
X88511364Y-92201397D01*
D11*
X69997089Y-99213906D02*
X69962189Y-98214515D01*
X70568169Y-99193963D02*
X70119916Y-98637840D01*
X70533269Y-98194573D02*
X69982132Y-98785596D01*
X70996479Y-99179007D02*
X70973213Y-98512746D01*
X70961580Y-98179616D02*
X70915652Y-98228868D01*
X70964904Y-98274796D01*
X71010832Y-98225544D01*
X70961580Y-98179616D01*
X70964904Y-98274796D01*
X71472380Y-99162388D02*
X71437480Y-98162997D01*
X71450775Y-98543717D02*
X71544293Y-98492803D01*
X71734654Y-98486156D01*
X71831496Y-98530422D01*
X71880748Y-98576350D01*
X71931661Y-98669869D01*
X71941633Y-98955409D01*
X71897366Y-99052251D01*
X71851438Y-99101503D01*
X71757920Y-99152416D01*
X71567560Y-99159064D01*
X71470718Y-99114798D01*
X72519361Y-99125826D02*
X72422519Y-99081560D01*
X72373267Y-99035632D01*
X72322353Y-98942114D01*
X72312382Y-98656574D01*
X72356648Y-98559732D01*
X72402576Y-98510480D01*
X72496094Y-98459566D01*
X72638864Y-98454580D01*
X72735706Y-98498846D01*
X72784958Y-98544775D01*
X72835872Y-98638293D01*
X72845843Y-98923833D01*
X72801577Y-99020675D01*
X72755649Y-99069927D01*
X72662131Y-99120841D01*
X72519361Y-99125826D01*
X73709112Y-99084279D02*
X73674212Y-98084889D01*
X73707450Y-99036689D02*
X73613931Y-99087603D01*
X73423571Y-99094251D01*
X73326729Y-99049984D01*
X73277477Y-99004056D01*
X73226564Y-98910538D01*
X73216592Y-98624998D01*
X73260859Y-98528156D01*
X73306787Y-98478904D01*
X73400305Y-98427990D01*
X73590665Y-98421343D01*
X73687507Y-98465609D01*
X74171717Y-98686940D02*
X74933158Y-98660350D01*
X75577814Y-98018413D02*
X75672994Y-98015090D01*
X75769836Y-98059356D01*
X75819088Y-98105284D01*
X75870001Y-98198802D01*
X75924239Y-98387500D01*
X75932548Y-98625451D01*
X75891606Y-98817473D01*
X75847340Y-98914315D01*
X75801411Y-98963567D01*
X75707893Y-99014480D01*
X75612713Y-99017804D01*
X75515871Y-98973538D01*
X75466619Y-98927610D01*
X75415705Y-98834091D01*
X75361468Y-98645393D01*
X75353159Y-98407443D01*
X75394101Y-98215421D01*
X75438367Y-98118579D01*
X75484295Y-98069327D01*
X75577814Y-98018413D01*
X76897644Y-98972933D02*
X76326564Y-98992876D01*
X76612104Y-98982905D02*
X76577204Y-97983514D01*
X76487010Y-98129608D01*
X76395154Y-98228112D01*
X76301636Y-98279025D01*
X78087395Y-98931386D02*
X78064129Y-98265126D01*
X78070776Y-98455486D02*
X78115043Y-98358644D01*
X78160971Y-98309392D01*
X78254489Y-98258478D01*
X78349669Y-98255154D01*
X79085124Y-98848897D02*
X78991606Y-98899811D01*
X78801246Y-98906458D01*
X78704404Y-98862192D01*
X78653490Y-98768674D01*
X78640195Y-98387953D01*
X78684461Y-98291111D01*
X78777979Y-98240198D01*
X78968340Y-98233550D01*
X79065182Y-98277816D01*
X79116095Y-98371335D01*
X79119419Y-98466515D01*
X78646843Y-98578313D01*
X79444240Y-98216931D02*
X79705457Y-98874882D01*
X79920140Y-98200312D01*
X80244961Y-97950729D02*
X80290889Y-97901477D01*
X80384408Y-97850563D01*
X80622358Y-97842254D01*
X80719200Y-97886520D01*
X80768452Y-97932448D01*
X80819366Y-98025967D01*
X80822689Y-98121147D01*
X80780085Y-98265579D01*
X80228947Y-98856602D01*
X80847617Y-98834997D01*
X82037368Y-98793450D02*
X82002469Y-97794059D01*
X82015764Y-98174780D02*
X82109282Y-98123866D01*
X82299642Y-98117218D01*
X82396484Y-98161485D01*
X82445736Y-98207413D01*
X82496650Y-98300931D01*
X82506621Y-98586471D01*
X82462355Y-98683313D01*
X82416427Y-98732565D01*
X82322909Y-98783479D01*
X82132549Y-98790126D01*
X82035707Y-98745860D01*
X82823133Y-98098938D02*
X83084349Y-98756889D01*
X83299033Y-98082319D02*
X83084349Y-98756889D01*
X82997479Y-98998163D01*
X82951551Y-99047415D01*
X82858032Y-99098329D01*
X84464460Y-98708694D02*
X84429561Y-97709303D01*
X84787619Y-98411521D01*
X85095822Y-97686037D01*
X85130721Y-98685428D01*
X85606621Y-98668809D02*
X85583355Y-98002549D01*
X85571722Y-97669418D02*
X85525794Y-97718670D01*
X85575046Y-97764598D01*
X85620974Y-97715346D01*
X85571722Y-97669418D01*
X85575046Y-97764598D01*
X86509170Y-98589643D02*
X86415652Y-98640557D01*
X86225292Y-98647205D01*
X86128450Y-98602938D01*
X86079198Y-98557010D01*
X86028284Y-98463492D01*
X86018313Y-98177952D01*
X86062579Y-98081110D01*
X86108507Y-98031858D01*
X86202026Y-97980944D01*
X86392386Y-97974297D01*
X86489228Y-98018563D01*
X86939143Y-98622276D02*
X86904243Y-97622886D01*
X87367453Y-98607320D02*
X87349172Y-98083829D01*
X87298258Y-97990311D01*
X87201416Y-97946045D01*
X87058646Y-97951030D01*
X86965128Y-98001944D01*
X86919200Y-98051196D01*
X88271664Y-98575744D02*
X88253383Y-98052253D01*
X88202469Y-97958735D01*
X88105627Y-97914469D01*
X87915267Y-97921116D01*
X87821749Y-97972030D01*
X88270002Y-98528154D02*
X88176484Y-98579068D01*
X87938533Y-98587377D01*
X87841691Y-98543111D01*
X87790778Y-98449593D01*
X87787454Y-98354412D01*
X87831720Y-98257570D01*
X87925238Y-98206657D01*
X88163189Y-98198347D01*
X88256707Y-98147433D01*
X89126622Y-98498240D02*
X89033104Y-98549154D01*
X88842744Y-98555801D01*
X88745902Y-98511535D01*
X88694988Y-98418017D01*
X88681693Y-98037296D01*
X88725960Y-97940455D01*
X88819478Y-97889541D01*
X89009838Y-97882893D01*
X89106680Y-97927159D01*
X89157594Y-98020678D01*
X89160917Y-98115858D01*
X88688341Y-98227657D01*
X89746955Y-98524226D02*
X89650113Y-98479959D01*
X89599199Y-98386441D01*
X89569285Y-97529820D01*
X91379369Y-97514259D02*
X91282527Y-97469993D01*
X91139757Y-97474978D01*
X90998648Y-97527554D01*
X90906792Y-97626058D01*
X90862526Y-97722900D01*
X90821583Y-97914922D01*
X90826569Y-98057692D01*
X90880806Y-98246390D01*
X90931720Y-98339908D01*
X91030224Y-98431765D01*
X91174656Y-98474369D01*
X91269836Y-98471045D01*
X91410944Y-98418470D01*
X91456873Y-98369218D01*
X91445239Y-98036087D01*
X91254879Y-98042735D01*
X66762166Y-96997799D02*
X66790418Y-97806829D01*
X66746152Y-97903671D01*
X66700224Y-97952923D01*
X66606706Y-98003837D01*
X66463936Y-98008823D01*
X66367094Y-97964557D01*
X66783771Y-97616469D02*
X66690253Y-97667383D01*
X66499892Y-97674031D01*
X66403050Y-97629764D01*
X66353799Y-97583836D01*
X66302885Y-97490318D01*
X66292913Y-97204778D01*
X66337180Y-97107936D01*
X66383108Y-97058684D01*
X66476626Y-97007770D01*
X66666986Y-97001123D01*
X66763828Y-97045389D01*
X67261333Y-97647441D02*
X67238067Y-96981180D01*
X67226434Y-96648050D02*
X67180505Y-96697302D01*
X67229757Y-96743230D01*
X67275685Y-96693978D01*
X67226434Y-96648050D01*
X67229757Y-96743230D01*
X67571197Y-96969547D02*
X67951917Y-96956252D01*
X67702334Y-96631431D02*
X67732248Y-97488052D01*
X67783162Y-97581570D01*
X67880004Y-97625836D01*
X67975184Y-97622512D01*
X68308314Y-97610879D02*
X68273414Y-96611488D01*
X68736624Y-97595922D02*
X68718344Y-97072432D01*
X68667430Y-96978914D01*
X68570588Y-96934647D01*
X68427818Y-96939633D01*
X68334299Y-96990547D01*
X68288371Y-97039799D01*
X69617569Y-96898086D02*
X69640835Y-97564347D01*
X69189258Y-96913043D02*
X69207539Y-97436533D01*
X69258453Y-97530052D01*
X69355295Y-97574318D01*
X69498065Y-97569332D01*
X69591583Y-97518418D01*
X69637511Y-97469166D01*
X70116735Y-97547728D02*
X70081836Y-96548337D01*
X70095131Y-96929057D02*
X70188649Y-96878143D01*
X70379009Y-96871496D01*
X70475851Y-96915762D01*
X70525103Y-96961690D01*
X70576017Y-97055209D01*
X70585988Y-97340749D01*
X70541722Y-97437591D01*
X70495794Y-97486843D01*
X70402276Y-97537756D01*
X70211915Y-97544404D01*
X70115074Y-97500138D01*
X71017622Y-97420972D02*
X71066874Y-97466900D01*
X71020946Y-97516152D01*
X70971694Y-97470224D01*
X71017622Y-97420972D01*
X71020946Y-97516152D01*
X71923495Y-97436986D02*
X71829977Y-97487900D01*
X71639617Y-97494548D01*
X71542775Y-97450281D01*
X71493523Y-97404353D01*
X71442609Y-97310835D01*
X71432638Y-97025295D01*
X71476904Y-96928453D01*
X71522832Y-96879201D01*
X71616350Y-96828287D01*
X71806710Y-96821639D01*
X71903552Y-96865906D01*
X72496237Y-97464634D02*
X72399395Y-97420367D01*
X72350143Y-97374439D01*
X72299230Y-97280921D01*
X72289258Y-96995381D01*
X72333525Y-96898539D01*
X72379453Y-96849287D01*
X72472971Y-96798373D01*
X72615741Y-96793387D01*
X72712583Y-96837654D01*
X72761835Y-96883582D01*
X72812749Y-96977100D01*
X72822720Y-97262640D01*
X72778454Y-97359482D01*
X72732526Y-97408734D01*
X72639007Y-97459648D01*
X72496237Y-97464634D01*
X73257678Y-97438044D02*
X73234412Y-96771783D01*
X73237735Y-96866963D02*
X73283664Y-96817711D01*
X73377182Y-96766797D01*
X73519952Y-96761812D01*
X73616794Y-96806078D01*
X73667708Y-96899596D01*
X73685988Y-97423087D01*
X73667708Y-96899596D02*
X73711974Y-96802754D01*
X73805492Y-96751840D01*
X73948262Y-96746855D01*
X74045104Y-96791121D01*
X74096018Y-96884639D01*
X74114299Y-97408130D01*
X75267488Y-96319602D02*
X74455738Y-97634447D01*
X76127433Y-96384868D02*
X76030591Y-96340602D01*
X75887821Y-96345587D01*
X75746712Y-96398163D01*
X75654856Y-96496667D01*
X75610590Y-96593509D01*
X75569647Y-96785531D01*
X75574633Y-96928301D01*
X75628871Y-97116999D01*
X75679784Y-97210518D01*
X75778288Y-97302374D01*
X75922720Y-97344978D01*
X76017900Y-97341654D01*
X76159009Y-97289079D01*
X76204937Y-97239827D01*
X76193304Y-96906697D01*
X76002943Y-96913344D01*
X76636571Y-97320050D02*
X76613304Y-96653789D01*
X76619952Y-96844150D02*
X76664218Y-96747308D01*
X76710146Y-96698056D01*
X76803665Y-96647142D01*
X76898845Y-96643818D01*
X77634300Y-97237561D02*
X77540782Y-97288474D01*
X77350421Y-97295122D01*
X77253579Y-97250856D01*
X77202666Y-97157337D01*
X77189371Y-96776617D01*
X77233637Y-96679775D01*
X77327155Y-96628861D01*
X77517515Y-96622214D01*
X77614357Y-96666480D01*
X77665271Y-96759998D01*
X77668595Y-96855178D01*
X77196018Y-96966977D01*
X78490920Y-97207647D02*
X78397402Y-97258560D01*
X78207042Y-97265208D01*
X78110200Y-97220942D01*
X78059286Y-97127424D01*
X78045991Y-96746703D01*
X78090258Y-96649861D01*
X78183776Y-96598947D01*
X78374136Y-96592300D01*
X78470978Y-96636566D01*
X78521892Y-96730084D01*
X78525215Y-96825264D01*
X78052639Y-96937063D01*
X78945216Y-96572357D02*
X78968483Y-97238618D01*
X78948540Y-96667537D02*
X78994468Y-96618285D01*
X79087987Y-96567372D01*
X79230757Y-96562386D01*
X79327599Y-96606652D01*
X79378512Y-96700171D01*
X79396793Y-97223661D01*
X79872693Y-97207042D02*
X79837794Y-96207651D01*
X80195852Y-96909869D01*
X80504055Y-96184385D01*
X80538954Y-97183776D01*
X81443165Y-97152200D02*
X81424884Y-96628710D01*
X81373970Y-96535191D01*
X81277128Y-96490925D01*
X81086768Y-96497573D01*
X80993250Y-96548487D01*
X81441503Y-97104610D02*
X81347985Y-97155524D01*
X81110035Y-97163833D01*
X81013193Y-97119567D01*
X80962279Y-97026049D01*
X80958955Y-96930869D01*
X81003221Y-96834027D01*
X81096739Y-96783113D01*
X81334690Y-96774804D01*
X81428208Y-96723890D01*
X81869813Y-97089653D02*
X81966655Y-97133919D01*
X82157015Y-97127272D01*
X82250534Y-97076358D01*
X82294800Y-96979516D01*
X82293138Y-96931926D01*
X82242224Y-96838408D01*
X82145382Y-96794142D01*
X82002612Y-96799127D01*
X81905770Y-96754861D01*
X81854856Y-96661343D01*
X81853194Y-96613753D01*
X81897461Y-96516911D01*
X81990979Y-96465997D01*
X82133749Y-96461011D01*
X82230591Y-96505278D01*
X82728096Y-97107329D02*
X82693196Y-96107938D01*
X83156406Y-97092372D02*
X83138126Y-96568882D01*
X83087212Y-96475364D01*
X82990370Y-96431097D01*
X82847600Y-96436083D01*
X82754081Y-96486997D01*
X82708153Y-96536249D01*
X84011365Y-97014868D02*
X83917847Y-97065782D01*
X83727487Y-97072430D01*
X83630645Y-97028164D01*
X83579731Y-96934645D01*
X83566436Y-96553925D01*
X83610702Y-96457083D01*
X83704220Y-96406169D01*
X83894580Y-96399522D01*
X83991422Y-96443788D01*
X84042336Y-96537306D01*
X84045660Y-96632486D01*
X83573083Y-96744285D01*
X84917238Y-97030883D02*
X84882338Y-96031492D01*
X84915576Y-96983293D02*
X84822058Y-97034207D01*
X84631697Y-97040854D01*
X84534855Y-96996588D01*
X84485604Y-96950660D01*
X84434690Y-96857141D01*
X84424718Y-96571601D01*
X84468985Y-96474759D01*
X84514913Y-96425507D01*
X84608431Y-96374594D01*
X84798791Y-96367946D01*
X84895633Y-96412212D01*
X85393138Y-97014264D02*
X85358239Y-96014873D01*
X85738959Y-96001578D01*
X85835801Y-96045844D01*
X85885053Y-96091773D01*
X85935967Y-96185291D01*
X85940952Y-96328061D01*
X85896686Y-96424903D01*
X85850758Y-96474155D01*
X85757240Y-96525069D01*
X85376519Y-96538364D01*
X86535299Y-96974379D02*
X86438457Y-96930113D01*
X86389205Y-96884184D01*
X86338291Y-96790666D01*
X86328320Y-96505126D01*
X86372586Y-96408284D01*
X86418514Y-96359032D01*
X86512033Y-96308118D01*
X86654803Y-96303133D01*
X86751645Y-96347399D01*
X86800897Y-96393327D01*
X86851810Y-96486845D01*
X86861782Y-96772386D01*
X86817515Y-96869227D01*
X86771587Y-96918479D01*
X86678069Y-96969393D01*
X86535299Y-96974379D01*
X87130703Y-96286514D02*
X87511423Y-96273219D01*
X87261840Y-95948398D02*
X87291754Y-96805019D01*
X87342668Y-96898537D01*
X87439510Y-96942803D01*
X87534690Y-96939479D01*
X88296130Y-96912889D02*
X88277850Y-96389399D01*
X88226936Y-96295881D01*
X88130094Y-96251614D01*
X87939734Y-96258262D01*
X87846216Y-96309176D01*
X88294469Y-96865299D02*
X88200950Y-96916213D01*
X87963000Y-96924522D01*
X87866158Y-96880256D01*
X87815244Y-96786738D01*
X87811921Y-96691558D01*
X87856187Y-96594716D01*
X87949705Y-96543802D01*
X88187655Y-96535493D01*
X88281174Y-96484579D01*
X88605994Y-96234996D02*
X88986715Y-96221700D01*
X88737131Y-95896880D02*
X88767045Y-96753500D01*
X88817959Y-96847019D01*
X88914801Y-96891285D01*
X89009981Y-96887961D01*
X89485881Y-96871342D02*
X89389039Y-96827076D01*
X89339788Y-96781148D01*
X89288874Y-96687630D01*
X89278902Y-96402089D01*
X89323169Y-96305247D01*
X89369097Y-96255995D01*
X89462615Y-96205082D01*
X89605385Y-96200096D01*
X89702227Y-96244362D01*
X89751479Y-96290290D01*
X89802393Y-96383809D01*
X89812364Y-96669349D01*
X89768098Y-96766191D01*
X89722170Y-96815443D01*
X89628652Y-96866357D01*
X89485881Y-96871342D01*
X90924611Y-95772843D02*
X90112861Y-97087688D01*
X91294303Y-96808191D02*
X91259403Y-95808800D01*
X91376188Y-96424147D02*
X91675023Y-96794896D01*
X91651757Y-96128635D02*
X91284332Y-96522651D01*
X92103334Y-96779939D02*
X92080067Y-96113678D01*
X92068434Y-95780548D02*
X92022506Y-95829800D01*
X92071758Y-95875728D01*
X92117686Y-95826476D01*
X92068434Y-95780548D01*
X92071758Y-95875728D01*
X92579234Y-96763320D02*
X92544334Y-95763929D01*
X92557630Y-96144649D02*
X92651148Y-96093736D01*
X92841508Y-96087088D01*
X92938350Y-96131354D01*
X92987602Y-96177283D01*
X93038516Y-96270801D01*
X93048487Y-96556341D01*
X93004221Y-96653183D01*
X92958292Y-96702435D01*
X92864774Y-96753349D01*
X92674414Y-96759996D01*
X92577572Y-96715730D01*
X93626215Y-96726759D02*
X93529373Y-96682492D01*
X93480121Y-96636564D01*
X93429207Y-96543046D01*
X93419236Y-96257506D01*
X93463502Y-96160664D01*
X93509430Y-96111412D01*
X93602949Y-96060498D01*
X93745719Y-96055512D01*
X93842561Y-96099779D01*
X93891813Y-96145707D01*
X93942726Y-96239225D01*
X93952698Y-96524765D01*
X93908431Y-96621607D01*
X93862503Y-96670859D01*
X93768985Y-96721773D01*
X93626215Y-96726759D01*
X94815966Y-96685212D02*
X94781066Y-95685821D01*
X94814304Y-96637622D02*
X94720786Y-96688535D01*
X94530426Y-96695183D01*
X94433584Y-96650917D01*
X94384332Y-96604988D01*
X94333418Y-96511470D01*
X94323447Y-96225930D01*
X94367713Y-96129088D01*
X94413641Y-96079836D01*
X94507159Y-96028922D01*
X94697519Y-96022275D01*
X94794361Y-96066541D01*
X95278571Y-96287872D02*
X96040012Y-96261282D01*
X96684668Y-95619346D02*
X96779848Y-95616022D01*
X96876690Y-95660288D01*
X96925942Y-95706216D01*
X96976856Y-95799734D01*
X97031093Y-95988433D01*
X97039403Y-96226383D01*
X96998460Y-96418405D01*
X96954194Y-96515247D01*
X96908266Y-96564499D01*
X96814747Y-96615413D01*
X96719567Y-96618736D01*
X96622725Y-96574470D01*
X96573474Y-96528542D01*
X96522560Y-96435024D01*
X96468322Y-96246325D01*
X96460013Y-96008375D01*
X96500955Y-95816353D01*
X96545222Y-95719511D01*
X96591150Y-95670259D01*
X96684668Y-95619346D01*
X98004498Y-96573866D02*
X97433418Y-96593808D01*
X97718958Y-96583837D02*
X97684059Y-95584446D01*
X97593864Y-95730540D01*
X97502008Y-95829044D01*
X97408490Y-95879958D01*
D12*
%TO.C,J1*%
X146151600Y-64513371D02*
X146151600Y-64948800D01*
X146122571Y-65035885D01*
X146064514Y-65093942D01*
X145977428Y-65122971D01*
X145919371Y-65122971D01*
X146761200Y-65122971D02*
X146412857Y-65122971D01*
X146587028Y-65122971D02*
X146587028Y-64513371D01*
X146528971Y-64600457D01*
X146470914Y-64658514D01*
X146412857Y-64687542D01*
X145208171Y-65513371D02*
X145266228Y-65513371D01*
X145324285Y-65542400D01*
X145353314Y-65571428D01*
X145382342Y-65629485D01*
X145411371Y-65745600D01*
X145411371Y-65890742D01*
X145382342Y-66006857D01*
X145353314Y-66064914D01*
X145324285Y-66093942D01*
X145266228Y-66122971D01*
X145208171Y-66122971D01*
X145150114Y-66093942D01*
X145121085Y-66064914D01*
X145092057Y-66006857D01*
X145063028Y-65890742D01*
X145063028Y-65745600D01*
X145092057Y-65629485D01*
X145121085Y-65571428D01*
X145150114Y-65542400D01*
X145208171Y-65513371D01*
X145643600Y-65571428D02*
X145672628Y-65542400D01*
X145730685Y-65513371D01*
X145875828Y-65513371D01*
X145933885Y-65542400D01*
X145962914Y-65571428D01*
X145991942Y-65629485D01*
X145991942Y-65687542D01*
X145962914Y-65774628D01*
X145614571Y-66122971D01*
X145991942Y-66122971D01*
X146195142Y-66122971D02*
X146514457Y-65716571D01*
X146195142Y-65716571D02*
X146514457Y-66122971D01*
X146862800Y-65513371D02*
X146920857Y-65513371D01*
X146978914Y-65542400D01*
X147007942Y-65571428D01*
X147036971Y-65629485D01*
X147066000Y-65745600D01*
X147066000Y-65890742D01*
X147036971Y-66006857D01*
X147007942Y-66064914D01*
X146978914Y-66093942D01*
X146920857Y-66122971D01*
X146862800Y-66122971D01*
X146804742Y-66093942D01*
X146775714Y-66064914D01*
X146746685Y-66006857D01*
X146717657Y-65890742D01*
X146717657Y-65745600D01*
X146746685Y-65629485D01*
X146775714Y-65571428D01*
X146804742Y-65542400D01*
X146862800Y-65513371D01*
X147617542Y-65513371D02*
X147327257Y-65513371D01*
X147298228Y-65803657D01*
X147327257Y-65774628D01*
X147385314Y-65745600D01*
X147530457Y-65745600D01*
X147588514Y-65774628D01*
X147617542Y-65803657D01*
X147646571Y-65861714D01*
X147646571Y-66006857D01*
X147617542Y-66064914D01*
X147588514Y-66093942D01*
X147530457Y-66122971D01*
X147385314Y-66122971D01*
X147327257Y-66093942D01*
X147298228Y-66064914D01*
D11*
%TO.C,U1*%
X149007580Y-42622997D02*
X149721866Y-42622997D01*
X149864723Y-42670616D01*
X149959961Y-42765854D01*
X150007580Y-42908711D01*
X150007580Y-43003950D01*
X150007580Y-41670616D02*
X150007580Y-42146807D01*
X149007580Y-42146807D01*
X149912342Y-40765854D02*
X149959961Y-40813473D01*
X150007580Y-40956330D01*
X150007580Y-41051569D01*
X149959961Y-41194426D01*
X149864723Y-41289664D01*
X149769485Y-41337283D01*
X149579009Y-41384902D01*
X149436152Y-41384902D01*
X149245676Y-41337283D01*
X149150438Y-41289664D01*
X149055200Y-41194426D01*
X149007580Y-41051569D01*
X149007580Y-40956330D01*
X149055200Y-40813473D01*
X149102819Y-40765854D01*
X149007580Y-40051569D02*
X149721866Y-40051569D01*
X149864723Y-40099188D01*
X149959961Y-40194426D01*
X150007580Y-40337283D01*
X150007580Y-40432521D01*
X150007580Y-39099188D02*
X150007580Y-39575378D01*
X149007580Y-39575378D01*
X149912342Y-38194426D02*
X149959961Y-38242045D01*
X150007580Y-38384902D01*
X150007580Y-38480140D01*
X149959961Y-38622997D01*
X149864723Y-38718235D01*
X149769485Y-38765854D01*
X149579009Y-38813473D01*
X149436152Y-38813473D01*
X149245676Y-38765854D01*
X149150438Y-38718235D01*
X149055200Y-38622997D01*
X149007580Y-38480140D01*
X149007580Y-38384902D01*
X149055200Y-38242045D01*
X149102819Y-38194426D01*
X149007580Y-37480140D02*
X149721866Y-37480140D01*
X149864723Y-37527759D01*
X149959961Y-37622997D01*
X150007580Y-37765854D01*
X150007580Y-37861092D01*
X150007580Y-36527759D02*
X150007580Y-37003950D01*
X149007580Y-37003950D01*
X149912342Y-35622997D02*
X149959961Y-35670616D01*
X150007580Y-35813473D01*
X150007580Y-35908711D01*
X149959961Y-36051569D01*
X149864723Y-36146807D01*
X149769485Y-36194426D01*
X149579009Y-36242045D01*
X149436152Y-36242045D01*
X149245676Y-36194426D01*
X149150438Y-36146807D01*
X149055200Y-36051569D01*
X149007580Y-35908711D01*
X149007580Y-35813473D01*
X149055200Y-35670616D01*
X149102819Y-35622997D01*
X149007580Y-34908711D02*
X149721866Y-34908711D01*
X149864723Y-34956330D01*
X149959961Y-35051569D01*
X150007580Y-35194426D01*
X150007580Y-35289664D01*
X150007580Y-33956330D02*
X150007580Y-34432521D01*
X149007580Y-34432521D01*
X149912342Y-33051569D02*
X149959961Y-33099188D01*
X150007580Y-33242045D01*
X150007580Y-33337283D01*
X149959961Y-33480140D01*
X149864723Y-33575378D01*
X149769485Y-33622997D01*
X149579009Y-33670616D01*
X149436152Y-33670616D01*
X149245676Y-33622997D01*
X149150438Y-33575378D01*
X149055200Y-33480140D01*
X149007580Y-33337283D01*
X149007580Y-33242045D01*
X149055200Y-33099188D01*
X149102819Y-33051569D01*
X143484676Y-26173950D02*
X143408485Y-26135854D01*
X143294200Y-26135854D01*
X143179914Y-26173950D01*
X143103723Y-26250140D01*
X143065628Y-26326330D01*
X143027533Y-26478711D01*
X143027533Y-26592997D01*
X143065628Y-26745378D01*
X143103723Y-26821569D01*
X143179914Y-26897759D01*
X143294200Y-26935854D01*
X143370390Y-26935854D01*
X143484676Y-26897759D01*
X143522771Y-26859664D01*
X143522771Y-26592997D01*
X143370390Y-26592997D01*
X143865628Y-26935854D02*
X143865628Y-26135854D01*
X144322771Y-26935854D01*
X144322771Y-26135854D01*
X144703723Y-26935854D02*
X144703723Y-26135854D01*
X144894200Y-26135854D01*
X145008485Y-26173950D01*
X145084676Y-26250140D01*
X145122771Y-26326330D01*
X145160866Y-26478711D01*
X145160866Y-26592997D01*
X145122771Y-26745378D01*
X145084676Y-26821569D01*
X145008485Y-26897759D01*
X144894200Y-26935854D01*
X144703723Y-26935854D01*
X154692390Y-49376807D02*
X154806676Y-49414902D01*
X154844771Y-49452997D01*
X154882866Y-49529188D01*
X154882866Y-49643473D01*
X154844771Y-49719664D01*
X154806676Y-49757759D01*
X154730485Y-49795854D01*
X154425723Y-49795854D01*
X154425723Y-48995854D01*
X154692390Y-48995854D01*
X154768580Y-49033950D01*
X154806676Y-49072045D01*
X154844771Y-49148235D01*
X154844771Y-49224426D01*
X154806676Y-49300616D01*
X154768580Y-49338711D01*
X154692390Y-49376807D01*
X154425723Y-49376807D01*
X155568580Y-49262521D02*
X155568580Y-49795854D01*
X155378104Y-48957759D02*
X155187628Y-49529188D01*
X155682866Y-49529188D01*
X143770390Y-44296807D02*
X143884676Y-44334902D01*
X143922771Y-44372997D01*
X143960866Y-44449188D01*
X143960866Y-44563473D01*
X143922771Y-44639664D01*
X143884676Y-44677759D01*
X143808485Y-44715854D01*
X143503723Y-44715854D01*
X143503723Y-43915854D01*
X143770390Y-43915854D01*
X143846580Y-43953950D01*
X143884676Y-43992045D01*
X143922771Y-44068235D01*
X143922771Y-44144426D01*
X143884676Y-44220616D01*
X143846580Y-44258711D01*
X143770390Y-44296807D01*
X143503723Y-44296807D01*
X144722771Y-44715854D02*
X144265628Y-44715854D01*
X144494200Y-44715854D02*
X144494200Y-43915854D01*
X144418009Y-44030140D01*
X144341819Y-44106330D01*
X144265628Y-44144426D01*
X154406676Y-28713950D02*
X154330485Y-28675854D01*
X154216200Y-28675854D01*
X154101914Y-28713950D01*
X154025723Y-28790140D01*
X153987628Y-28866330D01*
X153949533Y-29018711D01*
X153949533Y-29132997D01*
X153987628Y-29285378D01*
X154025723Y-29361569D01*
X154101914Y-29437759D01*
X154216200Y-29475854D01*
X154292390Y-29475854D01*
X154406676Y-29437759D01*
X154444771Y-29399664D01*
X154444771Y-29132997D01*
X154292390Y-29132997D01*
X154787628Y-29475854D02*
X154787628Y-28675854D01*
X155244771Y-29475854D01*
X155244771Y-28675854D01*
X155625723Y-29475854D02*
X155625723Y-28675854D01*
X155816200Y-28675854D01*
X155930485Y-28713950D01*
X156006676Y-28790140D01*
X156044771Y-28866330D01*
X156082866Y-29018711D01*
X156082866Y-29132997D01*
X156044771Y-29285378D01*
X156006676Y-29361569D01*
X155930485Y-29437759D01*
X155816200Y-29475854D01*
X155625723Y-29475854D01*
X154425723Y-34555854D02*
X154425723Y-33755854D01*
X154616200Y-33755854D01*
X154730485Y-33793950D01*
X154806676Y-33870140D01*
X154844771Y-33946330D01*
X154882866Y-34098711D01*
X154882866Y-34212997D01*
X154844771Y-34365378D01*
X154806676Y-34441569D01*
X154730485Y-34517759D01*
X154616200Y-34555854D01*
X154425723Y-34555854D01*
X155644771Y-34555854D02*
X155187628Y-34555854D01*
X155416200Y-34555854D02*
X155416200Y-33755854D01*
X155340009Y-33870140D01*
X155263819Y-33946330D01*
X155187628Y-33984426D01*
X150936595Y-23595854D02*
X151393738Y-23595854D01*
X151165167Y-24395854D02*
X151165167Y-23595854D01*
X151584214Y-23595854D02*
X152117548Y-24395854D01*
X152117548Y-23595854D02*
X151584214Y-24395854D01*
X152574691Y-23595854D02*
X152650881Y-23595854D01*
X152727072Y-23633950D01*
X152765167Y-23672045D01*
X152803262Y-23748235D01*
X152841357Y-23900616D01*
X152841357Y-24091092D01*
X152803262Y-24243473D01*
X152765167Y-24319664D01*
X152727072Y-24357759D01*
X152650881Y-24395854D01*
X152574691Y-24395854D01*
X152498500Y-24357759D01*
X152460405Y-24319664D01*
X152422310Y-24243473D01*
X152384214Y-24091092D01*
X152384214Y-23900616D01*
X152422310Y-23748235D01*
X152460405Y-23672045D01*
X152498500Y-23633950D01*
X152574691Y-23595854D01*
X153755643Y-23557759D02*
X153069929Y-24586330D01*
X154022310Y-24395854D02*
X154022310Y-23595854D01*
X154212786Y-23595854D01*
X154327072Y-23633950D01*
X154403262Y-23710140D01*
X154441357Y-23786330D01*
X154479452Y-23938711D01*
X154479452Y-24052997D01*
X154441357Y-24205378D01*
X154403262Y-24281569D01*
X154327072Y-24357759D01*
X154212786Y-24395854D01*
X154022310Y-24395854D01*
X154746119Y-23595854D02*
X155241357Y-23595854D01*
X154974691Y-23900616D01*
X155088976Y-23900616D01*
X155165167Y-23938711D01*
X155203262Y-23976807D01*
X155241357Y-24052997D01*
X155241357Y-24243473D01*
X155203262Y-24319664D01*
X155165167Y-24357759D01*
X155088976Y-24395854D01*
X154860405Y-24395854D01*
X154784214Y-24357759D01*
X154746119Y-24319664D01*
X143981866Y-29417759D02*
X144096152Y-29455854D01*
X144286628Y-29455854D01*
X144362819Y-29417759D01*
X144400914Y-29379664D01*
X144439009Y-29303473D01*
X144439009Y-29227283D01*
X144400914Y-29151092D01*
X144362819Y-29112997D01*
X144286628Y-29074902D01*
X144134247Y-29036807D01*
X144058057Y-28998711D01*
X144019961Y-28960616D01*
X143981866Y-28884426D01*
X143981866Y-28808235D01*
X144019961Y-28732045D01*
X144058057Y-28693950D01*
X144134247Y-28655854D01*
X144324723Y-28655854D01*
X144439009Y-28693950D01*
X144667580Y-28655854D02*
X145124723Y-28655854D01*
X144896152Y-29455854D02*
X144896152Y-28655854D01*
X143827533Y-41756807D02*
X143560866Y-41756807D01*
X143560866Y-42175854D02*
X143560866Y-41375854D01*
X143941819Y-41375854D01*
X144170390Y-41375854D02*
X144703723Y-41375854D01*
X144360866Y-42175854D01*
X154425723Y-44715854D02*
X154425723Y-43915854D01*
X154616200Y-43915854D01*
X154730485Y-43953950D01*
X154806676Y-44030140D01*
X154844771Y-44106330D01*
X154882866Y-44258711D01*
X154882866Y-44372997D01*
X154844771Y-44525378D01*
X154806676Y-44601569D01*
X154730485Y-44677759D01*
X154616200Y-44715854D01*
X154425723Y-44715854D01*
X155149533Y-43915854D02*
X155682866Y-43915854D01*
X155340009Y-44715854D01*
X154425723Y-26935854D02*
X154425723Y-26135854D01*
X154616200Y-26135854D01*
X154730485Y-26173950D01*
X154806676Y-26250140D01*
X154844771Y-26326330D01*
X154882866Y-26478711D01*
X154882866Y-26592997D01*
X154844771Y-26745378D01*
X154806676Y-26821569D01*
X154730485Y-26897759D01*
X154616200Y-26935854D01*
X154425723Y-26935854D01*
X155187628Y-26212045D02*
X155225723Y-26173950D01*
X155301914Y-26135854D01*
X155492390Y-26135854D01*
X155568580Y-26173950D01*
X155606676Y-26212045D01*
X155644771Y-26288235D01*
X155644771Y-26364426D01*
X155606676Y-26478711D01*
X155149533Y-26935854D01*
X155644771Y-26935854D01*
X143827533Y-34136807D02*
X143560866Y-34136807D01*
X143560866Y-34555854D02*
X143560866Y-33755854D01*
X143941819Y-33755854D01*
X144589438Y-34022521D02*
X144589438Y-34555854D01*
X144398961Y-33717759D02*
X144208485Y-34289188D01*
X144703723Y-34289188D01*
X154406676Y-31253950D02*
X154330485Y-31215854D01*
X154216200Y-31215854D01*
X154101914Y-31253950D01*
X154025723Y-31330140D01*
X153987628Y-31406330D01*
X153949533Y-31558711D01*
X153949533Y-31672997D01*
X153987628Y-31825378D01*
X154025723Y-31901569D01*
X154101914Y-31977759D01*
X154216200Y-32015854D01*
X154292390Y-32015854D01*
X154406676Y-31977759D01*
X154444771Y-31939664D01*
X154444771Y-31672997D01*
X154292390Y-31672997D01*
X154787628Y-32015854D02*
X154787628Y-31215854D01*
X155244771Y-32015854D01*
X155244771Y-31215854D01*
X155625723Y-32015854D02*
X155625723Y-31215854D01*
X155816200Y-31215854D01*
X155930485Y-31253950D01*
X156006676Y-31330140D01*
X156044771Y-31406330D01*
X156082866Y-31558711D01*
X156082866Y-31672997D01*
X156044771Y-31825378D01*
X156006676Y-31901569D01*
X155930485Y-31977759D01*
X155816200Y-32015854D01*
X155625723Y-32015854D01*
X154425723Y-37095854D02*
X154425723Y-36295854D01*
X154616200Y-36295854D01*
X154730485Y-36333950D01*
X154806676Y-36410140D01*
X154844771Y-36486330D01*
X154882866Y-36638711D01*
X154882866Y-36752997D01*
X154844771Y-36905378D01*
X154806676Y-36981569D01*
X154730485Y-37057759D01*
X154616200Y-37095854D01*
X154425723Y-37095854D01*
X155378104Y-36295854D02*
X155454295Y-36295854D01*
X155530485Y-36333950D01*
X155568580Y-36372045D01*
X155606676Y-36448235D01*
X155644771Y-36600616D01*
X155644771Y-36791092D01*
X155606676Y-36943473D01*
X155568580Y-37019664D01*
X155530485Y-37057759D01*
X155454295Y-37095854D01*
X155378104Y-37095854D01*
X155301914Y-37057759D01*
X155263819Y-37019664D01*
X155225723Y-36943473D01*
X155187628Y-36791092D01*
X155187628Y-36600616D01*
X155225723Y-36448235D01*
X155263819Y-36372045D01*
X155301914Y-36333950D01*
X155378104Y-36295854D01*
X154463819Y-46836807D02*
X154730485Y-46836807D01*
X154844771Y-47255854D02*
X154463819Y-47255854D01*
X154463819Y-46455854D01*
X154844771Y-46455854D01*
X155530485Y-46455854D02*
X155378104Y-46455854D01*
X155301914Y-46493950D01*
X155263819Y-46532045D01*
X155187628Y-46646330D01*
X155149533Y-46798711D01*
X155149533Y-47103473D01*
X155187628Y-47179664D01*
X155225723Y-47217759D01*
X155301914Y-47255854D01*
X155454295Y-47255854D01*
X155530485Y-47217759D01*
X155568580Y-47179664D01*
X155606676Y-47103473D01*
X155606676Y-46912997D01*
X155568580Y-46836807D01*
X155530485Y-46798711D01*
X155454295Y-46760616D01*
X155301914Y-46760616D01*
X155225723Y-46798711D01*
X155187628Y-46836807D01*
X155149533Y-46912997D01*
X154692390Y-51916807D02*
X154806676Y-51954902D01*
X154844771Y-51992997D01*
X154882866Y-52069188D01*
X154882866Y-52183473D01*
X154844771Y-52259664D01*
X154806676Y-52297759D01*
X154730485Y-52335854D01*
X154425723Y-52335854D01*
X154425723Y-51535854D01*
X154692390Y-51535854D01*
X154768580Y-51573950D01*
X154806676Y-51612045D01*
X154844771Y-51688235D01*
X154844771Y-51764426D01*
X154806676Y-51840616D01*
X154768580Y-51878711D01*
X154692390Y-51916807D01*
X154425723Y-51916807D01*
X155606676Y-51535854D02*
X155225723Y-51535854D01*
X155187628Y-51916807D01*
X155225723Y-51878711D01*
X155301914Y-51840616D01*
X155492390Y-51840616D01*
X155568580Y-51878711D01*
X155606676Y-51916807D01*
X155644771Y-51992997D01*
X155644771Y-52183473D01*
X155606676Y-52259664D01*
X155568580Y-52297759D01*
X155492390Y-52335854D01*
X155301914Y-52335854D01*
X155225723Y-52297759D01*
X155187628Y-52259664D01*
X143541819Y-24395854D02*
X143275152Y-24014902D01*
X143084676Y-24395854D02*
X143084676Y-23595854D01*
X143389438Y-23595854D01*
X143465628Y-23633950D01*
X143503723Y-23672045D01*
X143541819Y-23748235D01*
X143541819Y-23862521D01*
X143503723Y-23938711D01*
X143465628Y-23976807D01*
X143389438Y-24014902D01*
X143084676Y-24014902D01*
X143846580Y-24167283D02*
X144227533Y-24167283D01*
X143770390Y-24395854D02*
X144037057Y-23595854D01*
X144303723Y-24395854D01*
X144494200Y-23595854D02*
X144684676Y-24395854D01*
X144837057Y-23824426D01*
X144989438Y-24395854D01*
X145179914Y-23595854D01*
X143827533Y-36676807D02*
X143560866Y-36676807D01*
X143560866Y-37095854D02*
X143560866Y-36295854D01*
X143941819Y-36295854D01*
X144627533Y-36295854D02*
X144246580Y-36295854D01*
X144208485Y-36676807D01*
X144246580Y-36638711D01*
X144322771Y-36600616D01*
X144513247Y-36600616D01*
X144589438Y-36638711D01*
X144627533Y-36676807D01*
X144665628Y-36752997D01*
X144665628Y-36943473D01*
X144627533Y-37019664D01*
X144589438Y-37057759D01*
X144513247Y-37095854D01*
X144322771Y-37095854D01*
X144246580Y-37057759D01*
X144208485Y-37019664D01*
X143770390Y-51916807D02*
X143884676Y-51954902D01*
X143922771Y-51992997D01*
X143960866Y-52069188D01*
X143960866Y-52183473D01*
X143922771Y-52259664D01*
X143884676Y-52297759D01*
X143808485Y-52335854D01*
X143503723Y-52335854D01*
X143503723Y-51535854D01*
X143770390Y-51535854D01*
X143846580Y-51573950D01*
X143884676Y-51612045D01*
X143922771Y-51688235D01*
X143922771Y-51764426D01*
X143884676Y-51840616D01*
X143846580Y-51878711D01*
X143770390Y-51916807D01*
X143503723Y-51916807D01*
X144646580Y-51535854D02*
X144494200Y-51535854D01*
X144418009Y-51573950D01*
X144379914Y-51612045D01*
X144303723Y-51726330D01*
X144265628Y-51878711D01*
X144265628Y-52183473D01*
X144303723Y-52259664D01*
X144341819Y-52297759D01*
X144418009Y-52335854D01*
X144570390Y-52335854D01*
X144646580Y-52297759D01*
X144684676Y-52259664D01*
X144722771Y-52183473D01*
X144722771Y-51992997D01*
X144684676Y-51916807D01*
X144646580Y-51878711D01*
X144570390Y-51840616D01*
X144418009Y-51840616D01*
X144341819Y-51878711D01*
X144303723Y-51916807D01*
X144265628Y-51992997D01*
X154882866Y-42099664D02*
X154844771Y-42137759D01*
X154730485Y-42175854D01*
X154654295Y-42175854D01*
X154540009Y-42137759D01*
X154463819Y-42061569D01*
X154425723Y-41985378D01*
X154387628Y-41832997D01*
X154387628Y-41718711D01*
X154425723Y-41566330D01*
X154463819Y-41490140D01*
X154540009Y-41413950D01*
X154654295Y-41375854D01*
X154730485Y-41375854D01*
X154844771Y-41413950D01*
X154882866Y-41452045D01*
X155568580Y-41375854D02*
X155416200Y-41375854D01*
X155340009Y-41413950D01*
X155301914Y-41452045D01*
X155225723Y-41566330D01*
X155187628Y-41718711D01*
X155187628Y-42023473D01*
X155225723Y-42099664D01*
X155263819Y-42137759D01*
X155340009Y-42175854D01*
X155492390Y-42175854D01*
X155568580Y-42137759D01*
X155606676Y-42099664D01*
X155644771Y-42023473D01*
X155644771Y-41832997D01*
X155606676Y-41756807D01*
X155568580Y-41718711D01*
X155492390Y-41680616D01*
X155340009Y-41680616D01*
X155263819Y-41718711D01*
X155225723Y-41756807D01*
X155187628Y-41832997D01*
X143027533Y-31215854D02*
X143294200Y-32015854D01*
X143560866Y-31215854D01*
X144284676Y-31939664D02*
X144246580Y-31977759D01*
X144132295Y-32015854D01*
X144056104Y-32015854D01*
X143941819Y-31977759D01*
X143865628Y-31901569D01*
X143827533Y-31825378D01*
X143789438Y-31672997D01*
X143789438Y-31558711D01*
X143827533Y-31406330D01*
X143865628Y-31330140D01*
X143941819Y-31253950D01*
X144056104Y-31215854D01*
X144132295Y-31215854D01*
X144246580Y-31253950D01*
X144284676Y-31292045D01*
X145084676Y-31939664D02*
X145046580Y-31977759D01*
X144932295Y-32015854D01*
X144856104Y-32015854D01*
X144741819Y-31977759D01*
X144665628Y-31901569D01*
X144627533Y-31825378D01*
X144589438Y-31672997D01*
X144589438Y-31558711D01*
X144627533Y-31406330D01*
X144665628Y-31330140D01*
X144741819Y-31253950D01*
X144856104Y-31215854D01*
X144932295Y-31215854D01*
X145046580Y-31253950D01*
X145084676Y-31292045D01*
X143770390Y-46836807D02*
X143884676Y-46874902D01*
X143922771Y-46912997D01*
X143960866Y-46989188D01*
X143960866Y-47103473D01*
X143922771Y-47179664D01*
X143884676Y-47217759D01*
X143808485Y-47255854D01*
X143503723Y-47255854D01*
X143503723Y-46455854D01*
X143770390Y-46455854D01*
X143846580Y-46493950D01*
X143884676Y-46532045D01*
X143922771Y-46608235D01*
X143922771Y-46684426D01*
X143884676Y-46760616D01*
X143846580Y-46798711D01*
X143770390Y-46836807D01*
X143503723Y-46836807D01*
X144227533Y-46455854D02*
X144722771Y-46455854D01*
X144456104Y-46760616D01*
X144570390Y-46760616D01*
X144646580Y-46798711D01*
X144684676Y-46836807D01*
X144722771Y-46912997D01*
X144722771Y-47103473D01*
X144684676Y-47179664D01*
X144646580Y-47217759D01*
X144570390Y-47255854D01*
X144341819Y-47255854D01*
X144265628Y-47217759D01*
X144227533Y-47179664D01*
X143770390Y-49376807D02*
X143884676Y-49414902D01*
X143922771Y-49452997D01*
X143960866Y-49529188D01*
X143960866Y-49643473D01*
X143922771Y-49719664D01*
X143884676Y-49757759D01*
X143808485Y-49795854D01*
X143503723Y-49795854D01*
X143503723Y-48995854D01*
X143770390Y-48995854D01*
X143846580Y-49033950D01*
X143884676Y-49072045D01*
X143922771Y-49148235D01*
X143922771Y-49224426D01*
X143884676Y-49300616D01*
X143846580Y-49338711D01*
X143770390Y-49376807D01*
X143503723Y-49376807D01*
X144265628Y-49072045D02*
X144303723Y-49033950D01*
X144379914Y-48995854D01*
X144570390Y-48995854D01*
X144646580Y-49033950D01*
X144684676Y-49072045D01*
X144722771Y-49148235D01*
X144722771Y-49224426D01*
X144684676Y-49338711D01*
X144227533Y-49795854D01*
X144722771Y-49795854D01*
X154425723Y-39635854D02*
X154425723Y-38835854D01*
X154616200Y-38835854D01*
X154730485Y-38873950D01*
X154806676Y-38950140D01*
X154844771Y-39026330D01*
X154882866Y-39178711D01*
X154882866Y-39292997D01*
X154844771Y-39445378D01*
X154806676Y-39521569D01*
X154730485Y-39597759D01*
X154616200Y-39635854D01*
X154425723Y-39635854D01*
X155568580Y-39102521D02*
X155568580Y-39635854D01*
X155378104Y-38797759D02*
X155187628Y-39369188D01*
X155682866Y-39369188D01*
X143827533Y-39216807D02*
X143560866Y-39216807D01*
X143560866Y-39635854D02*
X143560866Y-38835854D01*
X143941819Y-38835854D01*
X144589438Y-38835854D02*
X144437057Y-38835854D01*
X144360866Y-38873950D01*
X144322771Y-38912045D01*
X144246580Y-39026330D01*
X144208485Y-39178711D01*
X144208485Y-39483473D01*
X144246580Y-39559664D01*
X144284676Y-39597759D01*
X144360866Y-39635854D01*
X144513247Y-39635854D01*
X144589438Y-39597759D01*
X144627533Y-39559664D01*
X144665628Y-39483473D01*
X144665628Y-39292997D01*
X144627533Y-39216807D01*
X144589438Y-39178711D01*
X144513247Y-39140616D01*
X144360866Y-39140616D01*
X144284676Y-39178711D01*
X144246580Y-39216807D01*
X144208485Y-39292997D01*
D13*
%TO.C,D-0-0*%
X34418264Y-60997819D02*
X35207144Y-63941961D01*
D11*
X35055870Y-63543537D02*
X32930834Y-64112939D01*
D13*
X35207144Y-63941961D02*
X32999038Y-64533621D01*
X32210158Y-61589479D02*
X34418264Y-60997819D01*
D11*
X35011042Y-63762605D02*
X35107634Y-63736723D01*
D13*
X32999038Y-64533621D02*
X32210158Y-61589479D01*
D11*
X32982597Y-64306125D02*
X35011042Y-63762605D01*
X35107634Y-63736723D02*
X35011042Y-63762605D01*
X32879070Y-63919754D02*
X35004107Y-63350352D01*
%TO.C,D-0-1*%
X55852778Y-59154110D02*
X55950593Y-59133319D01*
D13*
X56039225Y-59343484D02*
X53803180Y-59818770D01*
D11*
X53798668Y-59590725D02*
X55852778Y-59154110D01*
D13*
X53803180Y-59818770D02*
X53169465Y-56837376D01*
D11*
X55909010Y-58937690D02*
X53757085Y-59395095D01*
D13*
X53169465Y-56837376D02*
X55405510Y-56362090D01*
X55405510Y-56362090D02*
X56039225Y-59343484D01*
D11*
X53715503Y-59199466D02*
X55867428Y-58742060D01*
X55950593Y-59133319D02*
X55852778Y-59154110D01*
D13*
%TO.C,D-0-2*%
X71168006Y-37824920D02*
X73425862Y-37467310D01*
D11*
X73825162Y-40263269D02*
X73726393Y-40278912D01*
X71589674Y-40212349D02*
X73762588Y-39868194D01*
X73793875Y-40065731D02*
X71620961Y-40409887D01*
D13*
X73902674Y-40477784D02*
X71644818Y-40835394D01*
D11*
X71652248Y-40607425D02*
X73726393Y-40278912D01*
D13*
X73425862Y-37467310D02*
X73902674Y-40477784D01*
D11*
X73726393Y-40278912D02*
X73825162Y-40263269D01*
D13*
X71644818Y-40835394D02*
X71168006Y-37824920D01*
D11*
%TO.C,D-0-3*%
X95062654Y-35573007D02*
X94963202Y-35583460D01*
X95041748Y-35374103D02*
X92853800Y-35604065D01*
X92874706Y-35802970D02*
X94963202Y-35583460D01*
D13*
X92536753Y-32998935D02*
X94810230Y-32759983D01*
D11*
X92832895Y-35405161D02*
X95020843Y-35175198D01*
D13*
X95128833Y-35791285D02*
X92855356Y-36030237D01*
X92855356Y-36030237D02*
X92536753Y-32998935D01*
X94810230Y-32759983D02*
X95128833Y-35791285D01*
D11*
X94963202Y-35583460D02*
X95062654Y-35573007D01*
D13*
%TO.C,D-0-4*%
X116905180Y-33945094D02*
X117064700Y-36988916D01*
D11*
X116999568Y-36567748D02*
X114802583Y-36682887D01*
D13*
X114622312Y-34064734D02*
X116905180Y-33945094D01*
X114781832Y-37108556D02*
X114622312Y-34064734D01*
D11*
X114792116Y-36483161D02*
X116989101Y-36368022D01*
X116910172Y-36772707D02*
X117010035Y-36767474D01*
X114813050Y-36882613D02*
X116910172Y-36772707D01*
X117010035Y-36767474D02*
X116910172Y-36772707D01*
D13*
X117064700Y-36988916D02*
X114781832Y-37108556D01*
%TO.C,D-0-5*%
X138714593Y-36839342D02*
X136428593Y-36839342D01*
X136428593Y-33791342D02*
X138714593Y-33791342D01*
D11*
X138671593Y-36615342D02*
X138571593Y-36615342D01*
D13*
X136428593Y-36839342D02*
X136428593Y-33791342D01*
D11*
X138671593Y-36415342D02*
X136471593Y-36415342D01*
X136471593Y-36215342D02*
X138671593Y-36215342D01*
X138571593Y-36615342D02*
X138671593Y-36615342D01*
D13*
X138714593Y-33791342D02*
X138714593Y-36839342D01*
D11*
X136471593Y-36615342D02*
X138571593Y-36615342D01*
%TO.C,D-1-0*%
X40113081Y-82025666D02*
X40016489Y-82051548D01*
X37988044Y-82595068D02*
X40016489Y-82051548D01*
D13*
X39423711Y-79286762D02*
X40212591Y-82230904D01*
D11*
X37884517Y-82208697D02*
X40009554Y-81639295D01*
D13*
X38004485Y-82822564D02*
X37215605Y-79878422D01*
D11*
X40016489Y-82051548D02*
X40113081Y-82025666D01*
D13*
X37215605Y-79878422D02*
X39423711Y-79286762D01*
D11*
X40061317Y-81832480D02*
X37936281Y-82401882D01*
D13*
X40212591Y-82230904D02*
X38004485Y-82822564D01*
%TO.C,D-1-1*%
X59305982Y-75004906D02*
X59939697Y-77986300D01*
D11*
X57699140Y-78233541D02*
X59753250Y-77796926D01*
D13*
X57069937Y-75480192D02*
X59305982Y-75004906D01*
D11*
X59809482Y-77580506D02*
X57657557Y-78037911D01*
D13*
X59939697Y-77986300D02*
X57703652Y-78461586D01*
D11*
X59851065Y-77776135D02*
X59753250Y-77796926D01*
X57615975Y-77842282D02*
X59767900Y-77384876D01*
D13*
X57703652Y-78461586D02*
X57069937Y-75480192D01*
D11*
X59753250Y-77796926D02*
X59851065Y-77776135D01*
D13*
%TO.C,D-1-2*%
X76920519Y-59234539D02*
X74662663Y-59592149D01*
D11*
X76843007Y-59020024D02*
X76744238Y-59035667D01*
X74607519Y-58969104D02*
X76780433Y-58624949D01*
X76744238Y-59035667D02*
X76843007Y-59020024D01*
D13*
X76443707Y-56224065D02*
X76920519Y-59234539D01*
X74662663Y-59592149D02*
X74185851Y-56581675D01*
X74185851Y-56581675D02*
X76443707Y-56224065D01*
D11*
X74670093Y-59364180D02*
X76744238Y-59035667D01*
X76811720Y-58822486D02*
X74638806Y-59166642D01*
D13*
%TO.C,D-1-3*%
X97214293Y-54691048D02*
X94940816Y-54930000D01*
D11*
X94960166Y-54702733D02*
X97048662Y-54483223D01*
D13*
X96895690Y-51659746D02*
X97214293Y-54691048D01*
X94940816Y-54930000D02*
X94622213Y-51898698D01*
X94622213Y-51898698D02*
X96895690Y-51659746D01*
D11*
X97148114Y-54472770D02*
X97048662Y-54483223D01*
X94918355Y-54304924D02*
X97106303Y-54074961D01*
X97048662Y-54483223D02*
X97148114Y-54472770D01*
X97127208Y-54273866D02*
X94939260Y-54503828D01*
%TO.C,D-1-4*%
X117800393Y-55700456D02*
X117900256Y-55695223D01*
X115703271Y-55810362D02*
X117800393Y-55700456D01*
D13*
X115672053Y-56036305D02*
X115512533Y-52992483D01*
X115512533Y-52992483D02*
X117795401Y-52872843D01*
X117795401Y-52872843D02*
X117954921Y-55916665D01*
D11*
X117900256Y-55695223D02*
X117800393Y-55700456D01*
X115682337Y-55410910D02*
X117879322Y-55295771D01*
D13*
X117954921Y-55916665D02*
X115672053Y-56036305D01*
D11*
X117889789Y-55495497D02*
X115692804Y-55610636D01*
D13*
%TO.C,D-1-5*%
X138765393Y-55990942D02*
X136479393Y-55990942D01*
D11*
X138722393Y-55766942D02*
X138622393Y-55766942D01*
D13*
X136479393Y-52942942D02*
X138765393Y-52942942D01*
D11*
X138622393Y-55766942D02*
X138722393Y-55766942D01*
X136522393Y-55366942D02*
X138722393Y-55366942D01*
D13*
X136479393Y-55990942D02*
X136479393Y-52942942D01*
D11*
X136522393Y-55766942D02*
X138622393Y-55766942D01*
D13*
X138765393Y-52942942D02*
X138765393Y-55990942D01*
D11*
X138722393Y-55566942D02*
X136522393Y-55566942D01*
%TO.C,D-2-0*%
X42866808Y-101058376D02*
X44895253Y-100514856D01*
D13*
X45091355Y-100694212D02*
X42883249Y-101285872D01*
D11*
X44940081Y-100295788D02*
X42815045Y-100865190D01*
D13*
X42883249Y-101285872D02*
X42094369Y-98341730D01*
X44302475Y-97750070D02*
X45091355Y-100694212D01*
X42094369Y-98341730D02*
X44302475Y-97750070D01*
D11*
X44895253Y-100514856D02*
X44991845Y-100488974D01*
X44991845Y-100488974D02*
X44895253Y-100514856D01*
X42763281Y-100672005D02*
X44888318Y-100102603D01*
%TO.C,D-2-1*%
X61622800Y-96525000D02*
X63774725Y-96067594D01*
D13*
X61076762Y-94162910D02*
X63312807Y-93687624D01*
D11*
X63760075Y-96479644D02*
X63857890Y-96458853D01*
D13*
X63312807Y-93687624D02*
X63946522Y-96669018D01*
X63946522Y-96669018D02*
X61710477Y-97144304D01*
D11*
X63816307Y-96263224D02*
X61664382Y-96720629D01*
X63857890Y-96458853D02*
X63760075Y-96479644D01*
X61705965Y-96916259D02*
X63760075Y-96479644D01*
D13*
X61710477Y-97144304D02*
X61076762Y-94162910D01*
%TO.C,D-2-2*%
X77588145Y-78458967D02*
X77111333Y-75448493D01*
D11*
X79737202Y-77689304D02*
X77564288Y-78033460D01*
X79669720Y-77902485D02*
X79768489Y-77886842D01*
D13*
X79846001Y-78101357D02*
X77588145Y-78458967D01*
D11*
X77533001Y-77835922D02*
X79705915Y-77491767D01*
D13*
X79369189Y-75090883D02*
X79846001Y-78101357D01*
D11*
X79768489Y-77886842D02*
X79669720Y-77902485D01*
D13*
X77111333Y-75448493D02*
X79369189Y-75090883D01*
D11*
X77595575Y-78230998D02*
X79669720Y-77902485D01*
D13*
%TO.C,D-2-3*%
X98883344Y-70617274D02*
X99201947Y-73648576D01*
X99201947Y-73648576D02*
X96928470Y-73887528D01*
D11*
X96947820Y-73660261D02*
X99036316Y-73440751D01*
D13*
X96928470Y-73887528D02*
X96609867Y-70856226D01*
D11*
X96906009Y-73262452D02*
X99093957Y-73032489D01*
X99114862Y-73231394D02*
X96926914Y-73461356D01*
X99036316Y-73440751D02*
X99135768Y-73430298D01*
D13*
X96609867Y-70856226D02*
X98883344Y-70617274D01*
D11*
X99135768Y-73430298D02*
X99036316Y-73440751D01*
%TO.C,D-2-4*%
X118990909Y-74564802D02*
X116793924Y-74679941D01*
X116804391Y-74879667D02*
X118901513Y-74769761D01*
D13*
X116613653Y-72061788D02*
X118896521Y-71942148D01*
X116773173Y-75105610D02*
X116613653Y-72061788D01*
D11*
X119001376Y-74764528D02*
X118901513Y-74769761D01*
D13*
X119056041Y-74985970D02*
X116773173Y-75105610D01*
D11*
X116783457Y-74480215D02*
X118980442Y-74365076D01*
X118901513Y-74769761D02*
X119001376Y-74764528D01*
D13*
X118896521Y-71942148D02*
X119056041Y-74985970D01*
%TO.C,D-2-5*%
X138866993Y-74990142D02*
X136580993Y-74990142D01*
D11*
X136623993Y-74366142D02*
X138823993Y-74366142D01*
D13*
X136580993Y-74990142D02*
X136580993Y-71942142D01*
X136580993Y-71942142D02*
X138866993Y-71942142D01*
D11*
X136623993Y-74766142D02*
X138723993Y-74766142D01*
X138823993Y-74566142D02*
X136623993Y-74566142D01*
X138823993Y-74766142D02*
X138723993Y-74766142D01*
X138723993Y-74766142D02*
X138823993Y-74766142D01*
D13*
X138866993Y-71942142D02*
X138866993Y-74990142D01*
D11*
%TO.C,D-3-3*%
X116005294Y-95453361D02*
X118104014Y-95526650D01*
X118210933Y-95330261D02*
X116012274Y-95253482D01*
X116019254Y-95053604D02*
X118217913Y-95130383D01*
D13*
X118239110Y-95755504D02*
X115954502Y-95675723D01*
X116060876Y-92629580D02*
X118345484Y-92709361D01*
X118345484Y-92709361D02*
X118239110Y-95755504D01*
D11*
X118203954Y-95530140D02*
X118104014Y-95526650D01*
X118104014Y-95526650D02*
X118203954Y-95530140D01*
D13*
X115954502Y-95675723D02*
X116060876Y-92629580D01*
D11*
%TO.C,D-3-4*%
X137414228Y-97520349D02*
X137513680Y-97530802D01*
D13*
X135578156Y-94487815D02*
X137851633Y-94726767D01*
D11*
X137534586Y-97331897D02*
X135346638Y-97101935D01*
X137513680Y-97530802D02*
X137414228Y-97520349D01*
D13*
X137851633Y-94726767D02*
X137533030Y-97758069D01*
X137533030Y-97758069D02*
X135259553Y-97519117D01*
D11*
X135367543Y-96903030D02*
X137555491Y-97132993D01*
D13*
X135259553Y-97519117D02*
X135578156Y-94487815D01*
D11*
X135325732Y-97300839D02*
X137414228Y-97520349D01*
D13*
%TO.C,D-3-5*%
X154267318Y-100734391D02*
X154796598Y-97732697D01*
X156518588Y-101131351D02*
X154267318Y-100734391D01*
D11*
X156515139Y-100903287D02*
X156416658Y-100885922D01*
X156549869Y-100706326D02*
X154383291Y-100324300D01*
X154348562Y-100521261D02*
X156416658Y-100885922D01*
X154418021Y-100127338D02*
X156584598Y-100509364D01*
D13*
X157047868Y-98129657D02*
X156518588Y-101131351D01*
D11*
X156416658Y-100885922D02*
X156515139Y-100903287D01*
D13*
X154796598Y-97732697D02*
X157047868Y-98129657D01*
D11*
%TO.C,K-0-0*%
X18993236Y-59020339D02*
X17981771Y-55245501D01*
X17981771Y-55245501D02*
X26312882Y-53013187D01*
X29016095Y-54311793D02*
X30037136Y-58122370D01*
X19005142Y-59064772D02*
X23894973Y-57802168D01*
X30039466Y-58131063D02*
X26552473Y-59065400D01*
X26541432Y-59043512D02*
G75*
G03*
X23871860Y-57812502I-1950291J-719281D01*
G01*
X28987352Y-54247025D02*
G75*
G03*
X26312882Y-53013187I-1954154J-720316D01*
G01*
%TO.C,K-0-1*%
X40032822Y-53601485D02*
X44982032Y-52596526D01*
X51100890Y-53246548D02*
X47569778Y-53997110D01*
X39210739Y-49733890D02*
X47647262Y-47940652D01*
X50278808Y-49378953D02*
X51099019Y-53237745D01*
X40023258Y-53556491D02*
X39210739Y-49733890D01*
X47559897Y-53974674D02*
G75*
G03*
X44958409Y-52605637I-1985262J-616225D01*
G01*
X50253493Y-49312770D02*
G75*
G03*
X47647262Y-47940652I-1989174J-617056D01*
G01*
%TO.C,K-0-2*%
X58278868Y-33801820D02*
X57667522Y-29941934D01*
X58286064Y-33847254D02*
X63281086Y-33102693D01*
X68738998Y-30166741D02*
X69356132Y-34063172D01*
X57667522Y-29941934D02*
X66186334Y-28592687D01*
X69357540Y-34072061D02*
X65791985Y-34636789D01*
X65783292Y-34613867D02*
G75*
G03*
X63257019Y-33110555I-2014792J-511480D01*
G01*
X68717183Y-30099324D02*
G75*
G03*
X66186334Y-28592687I-2018743J-512106D01*
G01*
%TO.C,K-0-3*%
X79905356Y-28263343D02*
X79496859Y-24376752D01*
X79910165Y-28309091D02*
X84937309Y-27826970D01*
X90954702Y-29113027D02*
X87364478Y-29490375D01*
X90541397Y-25180687D02*
X90953761Y-29104076D01*
X79496859Y-24376752D02*
X88074611Y-23475194D01*
X87356997Y-29467029D02*
G75*
G03*
X84912864Y-27833562I-2038800J-405333D01*
G01*
X90523140Y-25112220D02*
G75*
G03*
X88074611Y-23475194I-2042778J-405752D01*
G01*
%TO.C,K-0-4*%
X112967404Y-26191754D02*
X113173869Y-30131348D01*
X102184606Y-28713538D02*
X101980077Y-24810894D01*
X102187014Y-28759475D02*
X107232500Y-28541116D01*
X101980077Y-24810894D02*
X110593257Y-24359497D01*
X113174340Y-30140336D02*
X109569288Y-30329268D01*
X109563038Y-30305563D02*
G75*
G03*
X107207744Y-28546419I-2057219J-298075D01*
G01*
X112952755Y-26122426D02*
G75*
G03*
X110593257Y-24359497I-2061213J-298284D01*
G01*
%TO.C,K-0-5*%
X135334704Y-25964881D02*
X135334704Y-29909881D01*
X124434704Y-27918881D02*
X124434704Y-24010881D01*
X124434704Y-24010881D02*
X133059704Y-24010881D01*
X124434704Y-27964881D02*
X129484704Y-28010881D01*
X135334704Y-29918881D02*
X131724704Y-29918881D01*
X135323704Y-25894881D02*
G75*
G03*
X133059704Y-24010881I-2074000J-190000D01*
G01*
X131719704Y-29894881D02*
G75*
G03*
X129459704Y-28014881I-2070000J-190000D01*
G01*
%TO.C,K-1-0*%
X23914032Y-77310293D02*
X22902567Y-73535455D01*
X34960262Y-76421017D02*
X31473269Y-77355354D01*
X22902567Y-73535455D02*
X31233678Y-71303141D01*
X33936891Y-72601747D02*
X34957932Y-76412324D01*
X23925938Y-77354726D02*
X28815769Y-76092122D01*
X33908148Y-72536979D02*
G75*
G03*
X31233678Y-71303141I-1954154J-720316D01*
G01*
X31462228Y-77333466D02*
G75*
G03*
X28792656Y-76102456I-1950291J-719281D01*
G01*
%TO.C,K-1-1*%
X43983972Y-72190203D02*
X43171453Y-68367602D01*
X54239522Y-68012665D02*
X55059733Y-71871457D01*
X43171453Y-68367602D02*
X51607976Y-66574364D01*
X43993536Y-72235197D02*
X48942746Y-71230238D01*
X55061604Y-71880260D02*
X51530492Y-72630822D01*
X51520611Y-72608386D02*
G75*
G03*
X48919123Y-71239349I-1985262J-616225D01*
G01*
X54214207Y-67946482D02*
G75*
G03*
X51607976Y-66574364I-1989174J-617056D01*
G01*
%TO.C,K-1-2*%
X61258942Y-52617282D02*
X60647596Y-48757396D01*
X61266138Y-52662716D02*
X66261160Y-51918155D01*
X72337614Y-52887523D02*
X68772059Y-53452251D01*
X71719072Y-48982203D02*
X72336206Y-52878634D01*
X60647596Y-48757396D02*
X69166408Y-47408149D01*
X68763366Y-53429329D02*
G75*
G03*
X66237093Y-51926017I-2014792J-511480D01*
G01*
X71697257Y-48914786D02*
G75*
G03*
X69166408Y-47408149I-2018743J-512106D01*
G01*
%TO.C,K-1-3*%
X92532665Y-44126327D02*
X92945029Y-48049716D01*
X81896624Y-47208983D02*
X81488127Y-43322392D01*
X81901433Y-47254731D02*
X86928577Y-46772610D01*
X81488127Y-43322392D02*
X90065879Y-42420834D01*
X92945970Y-48058667D02*
X89355746Y-48436015D01*
X89348265Y-48412669D02*
G75*
G03*
X86904132Y-46779202I-2038800J-405333D01*
G01*
X92514408Y-44057860D02*
G75*
G03*
X90065879Y-42420834I-2042778J-405752D01*
G01*
%TO.C,K-1-4*%
X113964403Y-45215646D02*
X114170868Y-49155240D01*
X103184013Y-47783367D02*
X108229499Y-47565008D01*
X103181605Y-47737430D02*
X102977076Y-43834786D01*
X102977076Y-43834786D02*
X111590256Y-43383389D01*
X114171339Y-49164228D02*
X110566287Y-49353160D01*
X110560037Y-49329455D02*
G75*
G03*
X108204743Y-47570311I-2057219J-298075D01*
G01*
X113949754Y-45146318D02*
G75*
G03*
X111590256Y-43383389I-2061213J-298284D01*
G01*
%TO.C,K-1-5*%
X124434704Y-43060881D02*
X133059704Y-43060881D01*
X124434704Y-46968881D02*
X124434704Y-43060881D01*
X135334704Y-45014881D02*
X135334704Y-48959881D01*
X124434704Y-47014881D02*
X129484704Y-47060881D01*
X135334704Y-48968881D02*
X131724704Y-48968881D01*
X135323704Y-44944881D02*
G75*
G03*
X133059704Y-43060881I-2074000J-190000D01*
G01*
X131719704Y-48944881D02*
G75*
G03*
X129459704Y-47064881I-2070000J-190000D01*
G01*
%TO.C,K-2-0*%
X28856442Y-95755612D02*
X33746273Y-94493008D01*
X28844536Y-95711179D02*
X27833071Y-91936341D01*
X38867395Y-91002633D02*
X39888436Y-94813210D01*
X27833071Y-91936341D02*
X36164182Y-89704027D01*
X39890766Y-94821903D02*
X36403773Y-95756240D01*
X36392732Y-95734352D02*
G75*
G03*
X33723160Y-94503342I-1950291J-719281D01*
G01*
X38838652Y-90937865D02*
G75*
G03*
X36164182Y-89704027I-1954154J-720316D01*
G01*
%TO.C,K-2-1*%
X47132174Y-87001313D02*
X55568697Y-85208075D01*
X59022325Y-90513971D02*
X55491213Y-91264533D01*
X47954257Y-90868908D02*
X52903467Y-89863949D01*
X58200243Y-86646376D02*
X59020454Y-90505168D01*
X47944693Y-90823914D02*
X47132174Y-87001313D01*
X58174928Y-86580193D02*
G75*
G03*
X55568697Y-85208075I-1989174J-617056D01*
G01*
X55481332Y-91242097D02*
G75*
G03*
X52879844Y-89873060I-1985262J-616225D01*
G01*
%TO.C,K-2-2*%
X75317691Y-71702985D02*
X71752136Y-72267713D01*
X64239019Y-71432744D02*
X63627673Y-67572858D01*
X74699149Y-67797665D02*
X75316283Y-71694096D01*
X64246215Y-71478178D02*
X69241237Y-70733617D01*
X63627673Y-67572858D02*
X72146485Y-66223611D01*
X71743443Y-72244791D02*
G75*
G03*
X69217170Y-70741479I-2014792J-511480D01*
G01*
X74677334Y-67730248D02*
G75*
G03*
X72146485Y-66223611I-2018743J-512106D01*
G01*
%TO.C,K-2-3*%
X83892699Y-66200374D02*
X88919843Y-65718253D01*
X83887890Y-66154626D02*
X83479393Y-62268035D01*
X94523931Y-63071970D02*
X94936295Y-66995359D01*
X83479393Y-62268035D02*
X92057145Y-61366477D01*
X94937236Y-67004310D02*
X91347012Y-67381658D01*
X91339531Y-67358312D02*
G75*
G03*
X88895398Y-65724845I-2038800J-405333D01*
G01*
X94505674Y-63003503D02*
G75*
G03*
X92057145Y-61366477I-2042778J-405752D01*
G01*
%TO.C,K-2-4*%
X104178606Y-66761323D02*
X103974077Y-62858679D01*
X104181014Y-66807260D02*
X109226500Y-66588901D01*
X115168340Y-68188121D02*
X111563288Y-68377053D01*
X114961404Y-64239539D02*
X115167869Y-68179133D01*
X103974077Y-62858679D02*
X112587257Y-62407282D01*
X111557038Y-68353348D02*
G75*
G03*
X109201744Y-66594204I-2057219J-298075D01*
G01*
X114946755Y-64170211D02*
G75*
G03*
X112587257Y-62407282I-2061213J-298284D01*
G01*
%TO.C,K-2-5*%
X135334704Y-68018881D02*
X131724704Y-68018881D01*
X124434704Y-62110881D02*
X133059704Y-62110881D01*
X124434704Y-66018881D02*
X124434704Y-62110881D01*
X124434704Y-66064881D02*
X129484704Y-66110881D01*
X135334704Y-64064881D02*
X135334704Y-68009881D01*
X131719704Y-67994881D02*
G75*
G03*
X129459704Y-66114881I-2070000J-190000D01*
G01*
X135323704Y-63994881D02*
G75*
G03*
X133059704Y-62110881I-2074000J-190000D01*
G01*
%TO.C,K-3-3*%
X104219470Y-86173128D02*
X104355857Y-82267508D01*
X104217865Y-86219100D02*
X109263183Y-86441314D01*
X115181024Y-84600722D02*
X115043345Y-88543319D01*
X104355857Y-82267508D02*
X112975603Y-82568516D01*
X115043031Y-88552314D02*
X111435230Y-88426327D01*
X111431071Y-88402167D02*
G75*
G03*
X109238059Y-86444439I-2075370J-117642D01*
G01*
X115172474Y-84530381D02*
G75*
G03*
X112975603Y-82568516I-2079368J-117503D01*
G01*
%TO.C,K-3-4*%
X124531894Y-83338017D02*
X133109645Y-84239575D01*
X135167934Y-86420673D02*
X134755569Y-90344062D01*
X124118588Y-87270357D02*
X129136115Y-87843974D01*
X124123396Y-87224609D02*
X124531894Y-83338017D01*
X134754628Y-90353013D02*
X131164404Y-89975665D01*
X131161939Y-89951274D02*
G75*
G03*
X129110834Y-87845339I-2078520J27415D01*
G01*
X135164311Y-86349907D02*
G75*
G03*
X133109645Y-84239575I-2082499J27833D01*
G01*
%TO.C,K-3-5*%
X143905813Y-89739529D02*
X148871104Y-90661753D01*
X143913801Y-89694227D02*
X144592418Y-85845599D01*
X144592418Y-85845599D02*
X153086385Y-87343314D01*
X154300909Y-93556608D02*
X150745753Y-92929738D01*
X154987514Y-89662678D02*
X154302472Y-93547745D01*
X154988837Y-89591832D02*
G75*
G03*
X153086385Y-87343314I-2075485J173033D01*
G01*
X150744996Y-92905235D02*
G75*
G03*
X148845790Y-90661351I-2071545J172339D01*
G01*
D13*
%TO.C,J1*%
X141856460Y-82946240D02*
X141856460Y-75046840D01*
X150853140Y-82946240D02*
X141856460Y-82946240D01*
X143581120Y-67132200D02*
X143581120Y-68402200D01*
X141856460Y-75046840D02*
X141856460Y-70647560D01*
X141856460Y-62748160D02*
X150754080Y-62748160D01*
X150853140Y-62748160D02*
X150853140Y-82946240D01*
X143355060Y-75046840D02*
X141856460Y-75046840D01*
X141856460Y-70647560D02*
X141856460Y-62748160D01*
X143543020Y-67132200D02*
X143543020Y-68402200D01*
X143355060Y-70647560D02*
X143355060Y-75046840D01*
X141856460Y-70647560D02*
X143355060Y-70647560D01*
%TO.C,G\u002A\u002A\u002A*%
G36*
X86369535Y-63211278D02*
G01*
X86472683Y-63265536D01*
X87490405Y-63730110D01*
X88696319Y-64189325D01*
X89911422Y-64579710D01*
X90956710Y-64837793D01*
X91675196Y-64931409D01*
X92880430Y-64952099D01*
X94391475Y-64845455D01*
X96607350Y-64622014D01*
X96261515Y-65417506D01*
X96160474Y-65643073D01*
X95971952Y-65974595D01*
X95136844Y-67443158D01*
X93815281Y-69104985D01*
X92263979Y-70563319D01*
X90551126Y-71752919D01*
X88744914Y-72608550D01*
X87949159Y-72854213D01*
X86699283Y-73127712D01*
X85378319Y-73317849D01*
X84134441Y-73404631D01*
X83115824Y-73368065D01*
X82724270Y-73303320D01*
X81904763Y-73110475D01*
X81101250Y-72865770D01*
X80547850Y-72643050D01*
X79817544Y-72291686D01*
X79087883Y-71893977D01*
X78449773Y-71502818D01*
X77994123Y-71171106D01*
X77811837Y-70951739D01*
X77814045Y-70942868D01*
X77939836Y-70784289D01*
X79412363Y-70784289D01*
X79487088Y-70894694D01*
X79853127Y-71142733D01*
X80434125Y-71440361D01*
X81128955Y-71741523D01*
X81836488Y-72000162D01*
X82455595Y-72170224D01*
X82544985Y-72186991D01*
X83301167Y-72268769D01*
X84244001Y-72301175D01*
X85190795Y-72277070D01*
X86879020Y-72050287D01*
X88835296Y-71437760D01*
X90674015Y-70449749D01*
X92413538Y-69078123D01*
X92816267Y-68676781D01*
X93351259Y-68083783D01*
X93883635Y-67444841D01*
X94345877Y-66844604D01*
X94670470Y-66367719D01*
X94789894Y-66098835D01*
X94777994Y-66084452D01*
X94510048Y-66035631D01*
X93961842Y-66008855D01*
X93229707Y-66009631D01*
X91455602Y-65938003D01*
X89513371Y-65573450D01*
X87522564Y-64881588D01*
X86753681Y-64564601D01*
X86258497Y-64391650D01*
X85946063Y-64351645D01*
X85723631Y-64432743D01*
X85498454Y-64623098D01*
X85043965Y-65056220D01*
X84377489Y-65706069D01*
X83608219Y-66466940D01*
X82784577Y-67289820D01*
X81954979Y-68125689D01*
X81167847Y-68925531D01*
X80471600Y-69640330D01*
X79914658Y-70221066D01*
X79545439Y-70618725D01*
X79412363Y-70784289D01*
X77939836Y-70784289D01*
X77983554Y-70729175D01*
X78397083Y-70277427D01*
X79018726Y-69624930D01*
X79812574Y-68808994D01*
X80742717Y-67866925D01*
X81773246Y-66836030D01*
X85751411Y-62879758D01*
X86369535Y-63211278D01*
G37*
G36*
X95618500Y-52806393D02*
G01*
X96430862Y-53431629D01*
X97893066Y-54388135D01*
X99343869Y-55079403D01*
X100906600Y-55558927D01*
X102704584Y-55880207D01*
X103109376Y-55934885D01*
X103842558Y-56039096D01*
X104365315Y-56120577D01*
X104584493Y-56165203D01*
X104597605Y-56216544D01*
X104499069Y-56538219D01*
X104297154Y-56989978D01*
X104260965Y-57070945D01*
X103930435Y-57723904D01*
X103554615Y-58406280D01*
X103180644Y-59027256D01*
X102855659Y-59496013D01*
X102169940Y-60275385D01*
X100766366Y-61509522D01*
X99162414Y-62562738D01*
X97482275Y-63346048D01*
X97005262Y-63497227D01*
X95691642Y-63748750D01*
X94202907Y-63856633D01*
X92679840Y-63814744D01*
X91263221Y-63616949D01*
X91009961Y-63561559D01*
X88993908Y-62955030D01*
X87187138Y-62078740D01*
X85515032Y-60889363D01*
X83902971Y-59343576D01*
X83148302Y-58527140D01*
X84550930Y-58527140D01*
X84566084Y-58556892D01*
X84786184Y-58804133D01*
X85212404Y-59224458D01*
X85773299Y-59746595D01*
X87286631Y-60907679D01*
X89176232Y-61903724D01*
X91207013Y-62550159D01*
X92340266Y-62745148D01*
X94372733Y-62818867D01*
X96320894Y-62541235D01*
X98142694Y-61928403D01*
X99796079Y-60996523D01*
X101238993Y-59761745D01*
X102429379Y-58240221D01*
X103143799Y-57111201D01*
X101737114Y-56833578D01*
X101017770Y-56675410D01*
X98658801Y-55907429D01*
X96501266Y-54801394D01*
X94565525Y-53367144D01*
X93457877Y-52395345D01*
X88997594Y-55400762D01*
X88975246Y-55415822D01*
X87798755Y-56213370D01*
X86740787Y-56939479D01*
X85844183Y-57564030D01*
X85151779Y-58056902D01*
X84706415Y-58387979D01*
X84550930Y-58527140D01*
X83148302Y-58527140D01*
X82905476Y-58264440D01*
X87649978Y-55054507D01*
X87823949Y-54936829D01*
X89065813Y-54098076D01*
X90218180Y-53321907D01*
X91232740Y-52640710D01*
X92061180Y-52086867D01*
X92655187Y-51692761D01*
X92966452Y-51490778D01*
X93538424Y-51136981D01*
X95618500Y-52806393D01*
G37*
G36*
X137516880Y-21205773D02*
G01*
X138781989Y-21305232D01*
X139737708Y-21483659D01*
X140257930Y-21685352D01*
X141055907Y-22183559D01*
X141720524Y-22810581D01*
X142122984Y-23459719D01*
X142201536Y-23733302D01*
X142311518Y-24579111D01*
X142318356Y-25568044D01*
X142225829Y-26530167D01*
X142037715Y-27295546D01*
X141927683Y-27589133D01*
X141814998Y-28009016D01*
X141868583Y-28290874D01*
X142095382Y-28590730D01*
X142101725Y-28598051D01*
X142418738Y-29225996D01*
X142607535Y-30225256D01*
X142617085Y-30326291D01*
X142619311Y-30349847D01*
X142593583Y-31353083D01*
X142321349Y-32323708D01*
X141770755Y-33341702D01*
X140909941Y-34487043D01*
X140602462Y-34845660D01*
X140136923Y-35312664D01*
X139628052Y-35690585D01*
X138965560Y-36056235D01*
X138039162Y-36486423D01*
X137405832Y-36762959D01*
X136588248Y-37081324D01*
X135861337Y-37287561D01*
X135061888Y-37424286D01*
X134026695Y-37534115D01*
X133075533Y-37601579D01*
X131882120Y-37607483D01*
X131031263Y-37497019D01*
X130746277Y-37425882D01*
X130281667Y-37315096D01*
X130074958Y-37273880D01*
X130064129Y-37288514D01*
X130044732Y-37392600D01*
X130015081Y-37551719D01*
X129967772Y-38039277D01*
X129940647Y-38278261D01*
X129727021Y-39202484D01*
X129356596Y-40298310D01*
X128878833Y-41443614D01*
X128343190Y-42516269D01*
X127799127Y-43394149D01*
X126791898Y-44599515D01*
X125265737Y-45949084D01*
X123546993Y-47039035D01*
X121732337Y-47799177D01*
X120609062Y-48087037D01*
X118555856Y-48311322D01*
X116507023Y-48174104D01*
X114514451Y-47694697D01*
X112630031Y-46892417D01*
X110905653Y-45786577D01*
X109393204Y-44396493D01*
X108144578Y-42741480D01*
X108004697Y-42504458D01*
X107577760Y-41678828D01*
X107151956Y-40732235D01*
X106775148Y-39782568D01*
X106523483Y-39032078D01*
X107606762Y-39032078D01*
X107802646Y-39665070D01*
X108305317Y-40960309D01*
X109309735Y-42661585D01*
X110612335Y-44161973D01*
X112165399Y-45417760D01*
X113921212Y-46385232D01*
X115832057Y-47020679D01*
X116389954Y-47113336D01*
X117316518Y-47187470D01*
X118351290Y-47209656D01*
X119367926Y-47181026D01*
X120240076Y-47102710D01*
X120841394Y-46975841D01*
X120967078Y-46930968D01*
X121481702Y-46746157D01*
X122100942Y-46522839D01*
X122809222Y-46225784D01*
X124318316Y-45325985D01*
X125724905Y-44137933D01*
X126946018Y-42737781D01*
X127898682Y-41201680D01*
X128105064Y-40746920D01*
X128415028Y-39900864D01*
X128672995Y-39010150D01*
X128853991Y-38178452D01*
X128933042Y-37509443D01*
X128885171Y-37106798D01*
X128882557Y-37101960D01*
X128809563Y-37041478D01*
X128649605Y-37000908D01*
X128371618Y-36982614D01*
X127944534Y-36988960D01*
X127337290Y-37022307D01*
X126518818Y-37085019D01*
X125458053Y-37179460D01*
X124123928Y-37307991D01*
X122485379Y-37472976D01*
X120511339Y-37676778D01*
X118170740Y-37921759D01*
X107606762Y-39032078D01*
X106523483Y-39032078D01*
X106495194Y-38947716D01*
X106359954Y-38345568D01*
X106393282Y-38325188D01*
X106746230Y-38250663D01*
X107467674Y-38141338D01*
X108536752Y-37999733D01*
X109932600Y-37828366D01*
X111634354Y-37629760D01*
X113621153Y-37406430D01*
X115872132Y-37160898D01*
X118366427Y-36895683D01*
X118666344Y-36864155D01*
X121294704Y-36586810D01*
X121829693Y-36529377D01*
X131537366Y-36529377D01*
X131583959Y-36546758D01*
X132097355Y-36622535D01*
X132865698Y-36630203D01*
X133769327Y-36579225D01*
X134688584Y-36479059D01*
X135503807Y-36339167D01*
X136095335Y-36169011D01*
X136515623Y-35995077D01*
X137320544Y-35662314D01*
X138118987Y-35332552D01*
X138667105Y-35080043D01*
X139217263Y-34723052D01*
X139746782Y-34221795D01*
X140373259Y-33479610D01*
X140933656Y-32727325D01*
X141394264Y-31929357D01*
X141608489Y-31243346D01*
X141632066Y-31053715D01*
X141637711Y-30429227D01*
X141558604Y-29844155D01*
X141417395Y-29418575D01*
X141236735Y-29272566D01*
X141232595Y-29273863D01*
X141043423Y-29444199D01*
X140653835Y-29856544D01*
X140118333Y-30451636D01*
X139491423Y-31170213D01*
X138422132Y-32306599D01*
X136631689Y-33826423D01*
X134714606Y-35038657D01*
X132736881Y-35897113D01*
X132670885Y-35919375D01*
X131920728Y-36199600D01*
X131539245Y-36404855D01*
X131537366Y-36529377D01*
X121829693Y-36529377D01*
X123562760Y-36343326D01*
X125504504Y-36127139D01*
X127153921Y-35931677D01*
X128545003Y-35750372D01*
X129711737Y-35576656D01*
X130688112Y-35403961D01*
X131508119Y-35225718D01*
X132205745Y-35035357D01*
X132814978Y-34826312D01*
X133369809Y-34592013D01*
X133904227Y-34325890D01*
X134452218Y-34021377D01*
X135047774Y-33671904D01*
X135671118Y-33255741D01*
X136630072Y-32495651D01*
X137638928Y-31590143D01*
X138601954Y-30630960D01*
X139423417Y-29709850D01*
X140007585Y-28918562D01*
X140479680Y-28161010D01*
X139545732Y-27546772D01*
X139515979Y-27527296D01*
X138263688Y-26863400D01*
X136883826Y-26434838D01*
X135344313Y-26242379D01*
X133613074Y-26286793D01*
X131658029Y-26568849D01*
X129447103Y-27089317D01*
X126948217Y-27848966D01*
X126270457Y-28069264D01*
X124833805Y-28517837D01*
X123242961Y-28996290D01*
X121647740Y-29459899D01*
X120197959Y-29863945D01*
X119447546Y-30071855D01*
X118140357Y-30446604D01*
X116581568Y-30904129D01*
X114846125Y-31422018D01*
X113008976Y-31977863D01*
X111145068Y-32549251D01*
X109329349Y-33113775D01*
X108148699Y-33482928D01*
X105479245Y-34309594D01*
X103132812Y-35022309D01*
X101069714Y-35631508D01*
X99250264Y-36147627D01*
X97634778Y-36581104D01*
X96183568Y-36942375D01*
X94856949Y-37241876D01*
X93615235Y-37490044D01*
X92418741Y-37697316D01*
X91227779Y-37874128D01*
X90327472Y-37994799D01*
X89115877Y-38139410D01*
X88119096Y-38225427D01*
X87226110Y-38258800D01*
X86325899Y-38245478D01*
X85307443Y-38191411D01*
X84419218Y-38116743D01*
X83270644Y-37979078D01*
X82224047Y-37812354D01*
X81428327Y-37637819D01*
X81372762Y-37622788D01*
X80423876Y-37424686D01*
X79319171Y-37273212D01*
X78286430Y-37200097D01*
X77929500Y-37189803D01*
X77219120Y-37150798D01*
X76801352Y-37079681D01*
X76598073Y-36957015D01*
X76531163Y-36763362D01*
X76555473Y-36535671D01*
X76783670Y-36353882D01*
X77318274Y-36221708D01*
X78025705Y-36143480D01*
X79055951Y-36169691D01*
X80306498Y-36342189D01*
X81850351Y-36668166D01*
X83145933Y-36922467D01*
X85698124Y-37171111D01*
X88471606Y-37144745D01*
X91421008Y-36842541D01*
X91747190Y-36792271D01*
X93243457Y-36512458D01*
X95060732Y-36108582D01*
X97155885Y-35592319D01*
X99485790Y-34975348D01*
X102007318Y-34269343D01*
X104677344Y-33485980D01*
X107452740Y-32636936D01*
X110290376Y-31733887D01*
X110402137Y-31697688D01*
X112056500Y-31173191D01*
X113902085Y-30605564D01*
X115796345Y-30037587D01*
X117596731Y-29512043D01*
X119160696Y-29071713D01*
X119187846Y-29064263D01*
X120699616Y-28640015D01*
X122316743Y-28170352D01*
X123916176Y-27692061D01*
X125374864Y-27241927D01*
X126569756Y-26856739D01*
X128614179Y-26223506D01*
X131070002Y-25618966D01*
X133265407Y-25278703D01*
X135222625Y-25202207D01*
X136963892Y-25388967D01*
X138511436Y-25838469D01*
X139887492Y-26550201D01*
X140395609Y-26869780D01*
X140722427Y-27018184D01*
X140912336Y-26976980D01*
X141066354Y-26764537D01*
X141150562Y-26514925D01*
X141200354Y-25829077D01*
X141139378Y-24845887D01*
X141123596Y-24698025D01*
X141026031Y-23953152D01*
X140906328Y-23481253D01*
X140724948Y-23173046D01*
X140442355Y-22919244D01*
X140340511Y-22846175D01*
X139826352Y-22581709D01*
X139159498Y-22400565D01*
X138291557Y-22299120D01*
X137174139Y-22273751D01*
X135758855Y-22320837D01*
X133997311Y-22436753D01*
X131348681Y-22704647D01*
X128360891Y-23141694D01*
X125116348Y-23744479D01*
X121595689Y-24517266D01*
X117779551Y-25464314D01*
X113648568Y-26589887D01*
X109183378Y-27898247D01*
X108815339Y-28007576D01*
X106417372Y-28647297D01*
X103690687Y-29265911D01*
X100696185Y-29852928D01*
X97494770Y-30397857D01*
X94147343Y-30890206D01*
X90714809Y-31319484D01*
X87258068Y-31675200D01*
X81282467Y-32221785D01*
X78827891Y-31828302D01*
X78480867Y-31772291D01*
X76802474Y-31489504D01*
X75119631Y-31184093D01*
X73355722Y-30840766D01*
X71434128Y-30444236D01*
X69278231Y-29979213D01*
X66811415Y-29430409D01*
X66033267Y-29256234D01*
X64280091Y-28874623D01*
X62828908Y-28581315D01*
X61618054Y-28368979D01*
X60585863Y-28230286D01*
X59670669Y-28157904D01*
X58810810Y-28144503D01*
X57944618Y-28182754D01*
X57010429Y-28265325D01*
X56927263Y-28273868D01*
X55934230Y-28360724D01*
X55263346Y-28380328D01*
X54846912Y-28331165D01*
X54617226Y-28211717D01*
X54441545Y-27929561D01*
X54574719Y-27584690D01*
X54697649Y-27448479D01*
X54940860Y-27327139D01*
X55357653Y-27241215D01*
X56023475Y-27176267D01*
X57013772Y-27117854D01*
X57281198Y-27104555D01*
X58073221Y-27072401D01*
X58790348Y-27062521D01*
X59484284Y-27082079D01*
X60206738Y-27138240D01*
X61009421Y-27238169D01*
X61944038Y-27389030D01*
X63062300Y-27597989D01*
X64415914Y-27872209D01*
X66056590Y-28218855D01*
X68036036Y-28645093D01*
X68645340Y-28776170D01*
X70431955Y-29153493D01*
X72236291Y-29525245D01*
X73976715Y-29875154D01*
X75571596Y-30186946D01*
X76939303Y-30444345D01*
X77998202Y-30631081D01*
X81375444Y-31193050D01*
X86854664Y-30707093D01*
X88750338Y-30525115D01*
X92465296Y-30092265D01*
X96164243Y-29565420D01*
X99770562Y-28957983D01*
X103207637Y-28283356D01*
X106398852Y-27554943D01*
X109267594Y-26786147D01*
X109894258Y-26603668D01*
X112148367Y-25959955D01*
X114422565Y-25328682D01*
X116649815Y-24727483D01*
X118763087Y-24173998D01*
X120695343Y-23685862D01*
X122379551Y-23280712D01*
X123748673Y-22976186D01*
X124198840Y-22881963D01*
X125458203Y-22616414D01*
X126690945Y-22353984D01*
X127775377Y-22120661D01*
X128589804Y-21942429D01*
X129422015Y-21774808D01*
X131003419Y-21530077D01*
X132685652Y-21347432D01*
X134386668Y-21230249D01*
X136024425Y-21181903D01*
X137516880Y-21205773D01*
G37*
G36*
X125279303Y-38813200D02*
G01*
X125801691Y-39043986D01*
X126135958Y-39497524D01*
X126219414Y-40056826D01*
X125989366Y-40604902D01*
X125804616Y-40779418D01*
X125277636Y-40966452D01*
X124718246Y-40883082D01*
X124259759Y-40566817D01*
X124035484Y-40055163D01*
X124136826Y-39518367D01*
X124507339Y-39041901D01*
X125027465Y-38809901D01*
X125279303Y-38813200D01*
G37*
G36*
X105515966Y-40888850D02*
G01*
X105746650Y-41110175D01*
X106041924Y-41567798D01*
X106456323Y-42323737D01*
X107337161Y-43793452D01*
X108833702Y-45677634D01*
X110573896Y-47253835D01*
X112542138Y-48508643D01*
X114722825Y-49428647D01*
X115613290Y-49720615D01*
X115334029Y-50084907D01*
X115032489Y-50478259D01*
X114623637Y-50960497D01*
X113558145Y-51960804D01*
X112269885Y-52930321D01*
X110872233Y-53795363D01*
X109478567Y-54482247D01*
X108202263Y-54917288D01*
X107387650Y-55079838D01*
X106029476Y-55244142D01*
X104674651Y-55301472D01*
X103510188Y-55239004D01*
X101886529Y-54918590D01*
X99840821Y-54203521D01*
X97870687Y-53186584D01*
X96053438Y-51915953D01*
X94466382Y-50439800D01*
X93186830Y-48806298D01*
X92839454Y-48239694D01*
X92428245Y-47505625D01*
X92045665Y-46766759D01*
X91869879Y-46395541D01*
X93100709Y-46395541D01*
X93123375Y-46692012D01*
X93282739Y-47044567D01*
X93548112Y-47477525D01*
X93888808Y-48015205D01*
X94711496Y-49169178D01*
X96138461Y-50657619D01*
X97818670Y-51956617D01*
X99674689Y-53016702D01*
X101629085Y-53788405D01*
X103604424Y-54222254D01*
X105362540Y-54297743D01*
X107400633Y-54036016D01*
X109379533Y-53420949D01*
X111231371Y-52474501D01*
X112888280Y-51218628D01*
X113355847Y-50778016D01*
X113708846Y-50417142D01*
X113840921Y-50241839D01*
X113714502Y-50148008D01*
X113304764Y-49947780D01*
X112711034Y-49698201D01*
X111614531Y-49185367D01*
X109888242Y-48038226D01*
X108245987Y-46514379D01*
X106699021Y-44624883D01*
X105258599Y-42380788D01*
X105214930Y-42309855D01*
X105128727Y-42225607D01*
X104985972Y-42184422D01*
X104746227Y-42196509D01*
X104369054Y-42272080D01*
X103814018Y-42421347D01*
X103040681Y-42654521D01*
X102008607Y-42981814D01*
X100677357Y-43413436D01*
X99006497Y-43959600D01*
X97553778Y-44432691D01*
X96111851Y-44903330D01*
X94990738Y-45284147D01*
X94159754Y-45599457D01*
X93588212Y-45873582D01*
X93245425Y-46130837D01*
X93100709Y-46395541D01*
X91869879Y-46395541D01*
X91734975Y-46110656D01*
X91539438Y-45624873D01*
X91502315Y-45396970D01*
X91503177Y-45396118D01*
X91714964Y-45310933D01*
X92253100Y-45119842D01*
X93065405Y-44840146D01*
X94099700Y-44489148D01*
X95303807Y-44084150D01*
X96625547Y-43642454D01*
X98012741Y-43181362D01*
X99413210Y-42718175D01*
X100774774Y-42270196D01*
X102045256Y-41854726D01*
X103172477Y-41489068D01*
X104104258Y-41190524D01*
X104788418Y-40976395D01*
X105172782Y-40863984D01*
X105295340Y-40841800D01*
X105515966Y-40888850D01*
G37*
G36*
X92272291Y-72126691D02*
G01*
X92210995Y-72531424D01*
X92087447Y-73132529D01*
X92022192Y-73443307D01*
X91798674Y-75580319D01*
X91935363Y-77759044D01*
X92416185Y-79903663D01*
X93225072Y-81938355D01*
X94345949Y-83787298D01*
X94426014Y-83889786D01*
X94853049Y-84354551D01*
X95456291Y-84939118D01*
X96169250Y-85586897D01*
X96925437Y-86241299D01*
X97449043Y-86673109D01*
X97658366Y-86845734D01*
X98301547Y-87343612D01*
X98788493Y-87678343D01*
X99052714Y-87793338D01*
X99080425Y-87774270D01*
X99313311Y-87516001D01*
X99749969Y-86982691D01*
X100130904Y-86502177D01*
X103041725Y-86502177D01*
X103168199Y-86539490D01*
X103666853Y-86535527D01*
X104475120Y-86450492D01*
X105542636Y-86292813D01*
X106819034Y-86070915D01*
X108253950Y-85793225D01*
X109797018Y-85468169D01*
X111397871Y-85104175D01*
X112315925Y-84888516D01*
X113580722Y-84594856D01*
X114690618Y-84341202D01*
X115587069Y-84140755D01*
X116211527Y-84006722D01*
X116505448Y-83952302D01*
X116746305Y-84022245D01*
X117213708Y-84360311D01*
X117776319Y-84924787D01*
X118248029Y-85427521D01*
X118631914Y-85784834D01*
X118840568Y-85914653D01*
X118854248Y-85912526D01*
X119062180Y-85685513D01*
X119209667Y-85167208D01*
X119278424Y-84458302D01*
X119250161Y-83659485D01*
X119084811Y-82793491D01*
X118553215Y-81621169D01*
X118322111Y-81290148D01*
X117633139Y-80515383D01*
X116783940Y-79741005D01*
X115902039Y-79077723D01*
X115114956Y-78636245D01*
X114488418Y-78372324D01*
X108722282Y-82402600D01*
X107523465Y-83243357D01*
X106288652Y-84115824D01*
X105200446Y-84891587D01*
X104295247Y-85544375D01*
X103609460Y-86047917D01*
X103179485Y-86375941D01*
X103041725Y-86502177D01*
X100130904Y-86502177D01*
X100363744Y-86208471D01*
X100813413Y-85631264D01*
X102292958Y-85631264D01*
X102344612Y-85599970D01*
X102678524Y-85374215D01*
X103296210Y-84947538D01*
X104169136Y-84339923D01*
X105268771Y-83571354D01*
X106566583Y-82661816D01*
X108034040Y-81631292D01*
X109642609Y-80499767D01*
X111363759Y-79287224D01*
X113168956Y-78013649D01*
X114409462Y-77137846D01*
X115710240Y-77797079D01*
X115820461Y-77852251D01*
X116420917Y-78125556D01*
X116838944Y-78269504D01*
X116989733Y-78253821D01*
X116972419Y-78188150D01*
X116799248Y-77828409D01*
X116506057Y-77340092D01*
X116331801Y-77094518D01*
X115449653Y-76208999D01*
X114297576Y-75446302D01*
X112976105Y-74864052D01*
X111585776Y-74519873D01*
X110682808Y-74386216D01*
X106886723Y-79419588D01*
X106464277Y-79979810D01*
X105531839Y-81216954D01*
X104673535Y-82356542D01*
X103922729Y-83354227D01*
X103312786Y-84165666D01*
X102877064Y-84746510D01*
X102648931Y-85052416D01*
X102567385Y-85164795D01*
X102341059Y-85504707D01*
X102292958Y-85631264D01*
X100813413Y-85631264D01*
X101127982Y-85227476D01*
X102016030Y-84073835D01*
X103001232Y-82781682D01*
X104056935Y-81385150D01*
X104314624Y-81042897D01*
X105386343Y-79620423D01*
X106399645Y-78276933D01*
X107324197Y-77052547D01*
X108129671Y-75987382D01*
X108785731Y-75121557D01*
X109262048Y-74495191D01*
X109528290Y-74148400D01*
X110190870Y-73299296D01*
X111282856Y-73434564D01*
X112687961Y-73703152D01*
X114303246Y-74278623D01*
X115701811Y-75088422D01*
X116841544Y-76100948D01*
X117680333Y-77284597D01*
X118003538Y-78147266D01*
X118176066Y-78607762D01*
X118261985Y-78922855D01*
X118564589Y-79681992D01*
X118924809Y-80289249D01*
X119237927Y-80721439D01*
X119892906Y-81946134D01*
X120279247Y-83217132D01*
X120308050Y-83548296D01*
X120387248Y-84458887D01*
X120207204Y-85595858D01*
X119729410Y-86552499D01*
X119712045Y-86575758D01*
X119463361Y-86975055D01*
X119441617Y-87320037D01*
X119631071Y-87812358D01*
X119834995Y-88430362D01*
X120007724Y-89370540D01*
X120072581Y-90107042D01*
X120098226Y-90398242D01*
X120093706Y-91357165D01*
X119981367Y-92091008D01*
X119829380Y-92473135D01*
X119464637Y-93153963D01*
X119018501Y-93827322D01*
X118658421Y-94288176D01*
X118311400Y-94681573D01*
X118115551Y-94839328D01*
X118107673Y-94838558D01*
X117844681Y-94758947D01*
X117247129Y-94558274D01*
X116351763Y-94249433D01*
X115195332Y-93845316D01*
X113814583Y-93358813D01*
X112246263Y-92802818D01*
X110527120Y-92190224D01*
X108693901Y-91533920D01*
X99527800Y-88244975D01*
X102844432Y-88244975D01*
X102853421Y-88254224D01*
X103113002Y-88368575D01*
X103699455Y-88597072D01*
X104572798Y-88924962D01*
X105693051Y-89337491D01*
X107020234Y-89819909D01*
X108514365Y-90357459D01*
X110135465Y-90935392D01*
X110525525Y-91073815D01*
X112137076Y-91645141D01*
X113624268Y-92171476D01*
X114945015Y-92637985D01*
X116057225Y-93029836D01*
X116918811Y-93332195D01*
X117487685Y-93530227D01*
X117721758Y-93609101D01*
X117845567Y-93592897D01*
X118155553Y-93328106D01*
X118495945Y-92840022D01*
X118800720Y-92231768D01*
X119003857Y-91606471D01*
X119056736Y-91256954D01*
X119044302Y-90215118D01*
X118850253Y-89053081D01*
X118505754Y-87921081D01*
X118041968Y-86969356D01*
X117761052Y-86550133D01*
X117294702Y-85932232D01*
X116900448Y-85493790D01*
X116394020Y-85022791D01*
X109651461Y-86594076D01*
X108336166Y-86901833D01*
X106858291Y-87250808D01*
X105545556Y-87564264D01*
X104442882Y-87831301D01*
X103595189Y-88041029D01*
X103047399Y-88182552D01*
X102844432Y-88244975D01*
X99527800Y-88244975D01*
X99434421Y-88211469D01*
X97420421Y-88183082D01*
X96973252Y-88173110D01*
X95943360Y-88127203D01*
X94992584Y-88057245D01*
X94281362Y-87973924D01*
X94174014Y-87956267D01*
X91835602Y-87367987D01*
X89598704Y-86426842D01*
X87509440Y-85169955D01*
X85613933Y-83634449D01*
X83958304Y-81857446D01*
X82588674Y-79876070D01*
X81551165Y-77727442D01*
X81522563Y-77652835D01*
X81186981Y-76708078D01*
X80925064Y-75860513D01*
X82169724Y-75860513D01*
X82294049Y-76311607D01*
X82598041Y-77068266D01*
X82766106Y-77466374D01*
X83590137Y-79156758D01*
X84516964Y-80594328D01*
X85634564Y-81900733D01*
X87030917Y-83197618D01*
X88227145Y-84130824D01*
X90176501Y-85330198D01*
X92182020Y-86198793D01*
X94179762Y-86705240D01*
X94331401Y-86729995D01*
X94909597Y-86833599D01*
X95297627Y-86916856D01*
X95334906Y-86895314D01*
X95209194Y-86664930D01*
X94872637Y-86237756D01*
X94368628Y-85671938D01*
X94244867Y-85536934D01*
X92988019Y-83899628D01*
X91954528Y-82053312D01*
X91180814Y-80088818D01*
X90703294Y-78096980D01*
X90558389Y-76168630D01*
X90562478Y-75896090D01*
X90564562Y-75174366D01*
X90552917Y-74657528D01*
X90529192Y-74443065D01*
X90491178Y-74441639D01*
X90170217Y-74524606D01*
X89599729Y-74710032D01*
X88869541Y-74969429D01*
X87851382Y-75294674D01*
X86206986Y-75642733D01*
X84606711Y-75784120D01*
X83187737Y-75701166D01*
X83152926Y-75695710D01*
X82571344Y-75617056D01*
X82252882Y-75650493D01*
X82169724Y-75860513D01*
X80925064Y-75860513D01*
X80901608Y-75784609D01*
X80683333Y-74953501D01*
X80549048Y-74285826D01*
X80515642Y-73852656D01*
X80600008Y-73725067D01*
X82343279Y-74224488D01*
X83940623Y-74499098D01*
X85412895Y-74525822D01*
X86855218Y-74306085D01*
X88362717Y-73841315D01*
X88495200Y-73791251D01*
X89434841Y-73409378D01*
X90362424Y-72994279D01*
X91094763Y-72627354D01*
X91617247Y-72343707D01*
X92064924Y-72109341D01*
X92265234Y-72016395D01*
X92272291Y-72126691D01*
G37*
D14*
%TO.C,U1*%
X158445200Y-20223950D02*
X158445200Y-53243950D01*
X155905200Y-25303950D02*
X158445200Y-25303950D01*
X140665200Y-53243950D02*
X140665200Y-20223950D01*
X155905200Y-22763950D02*
X158445200Y-22763950D01*
X155905200Y-22763950D02*
X155905200Y-25303950D01*
X140665200Y-20223950D02*
X158445200Y-20223950D01*
X158445200Y-53243950D02*
X140665200Y-53243950D01*
D11*
X143710565Y-28652980D02*
X143710565Y-28752980D01*
X143710565Y-28752980D02*
X143210565Y-28752980D01*
X143210565Y-28752980D02*
X143210565Y-28652980D01*
X143210565Y-28652980D02*
X143710565Y-28652980D01*
G36*
X143710565Y-28752980D02*
G01*
X143210565Y-28752980D01*
X143210565Y-28652980D01*
X143710565Y-28652980D01*
X143710565Y-28752980D01*
G37*
X143710565Y-28752980D02*
X143210565Y-28752980D01*
X143210565Y-28652980D01*
X143710565Y-28652980D01*
X143710565Y-28752980D01*
X143710565Y-29252980D02*
X143710565Y-29452980D01*
X143710565Y-29452980D02*
X143610565Y-29452980D01*
X143610565Y-29452980D02*
X143610565Y-29252980D01*
X143610565Y-29252980D02*
X143710565Y-29252980D01*
G36*
X143710565Y-29452980D02*
G01*
X143610565Y-29452980D01*
X143610565Y-29252980D01*
X143710565Y-29252980D01*
X143710565Y-29452980D01*
G37*
X143710565Y-29452980D02*
X143610565Y-29452980D01*
X143610565Y-29252980D01*
X143710565Y-29252980D01*
X143710565Y-29452980D01*
X143310565Y-28652980D02*
X143310565Y-29452980D01*
X143310565Y-29452980D02*
X143210565Y-29452980D01*
X143210565Y-29452980D02*
X143210565Y-28652980D01*
X143210565Y-28652980D02*
X143310565Y-28652980D01*
G36*
X143310565Y-29452980D02*
G01*
X143210565Y-29452980D01*
X143210565Y-28652980D01*
X143310565Y-28652980D01*
X143310565Y-29452980D01*
G37*
X143310565Y-29452980D02*
X143210565Y-29452980D01*
X143210565Y-28652980D01*
X143310565Y-28652980D01*
X143310565Y-29452980D01*
X143710565Y-28652980D02*
X143710565Y-28952980D01*
X143710565Y-28952980D02*
X143610565Y-28952980D01*
X143610565Y-28952980D02*
X143610565Y-28652980D01*
X143610565Y-28652980D02*
X143710565Y-28652980D01*
G36*
X143710565Y-28952980D02*
G01*
X143610565Y-28952980D01*
X143610565Y-28652980D01*
X143710565Y-28652980D01*
X143710565Y-28952980D01*
G37*
X143710565Y-28952980D02*
X143610565Y-28952980D01*
X143610565Y-28652980D01*
X143710565Y-28652980D01*
X143710565Y-28952980D01*
X143510565Y-29052980D02*
X143510565Y-29152980D01*
X143510565Y-29152980D02*
X143410565Y-29152980D01*
X143410565Y-29152980D02*
X143410565Y-29052980D01*
X143410565Y-29052980D02*
X143510565Y-29052980D01*
G36*
X143510565Y-29152980D02*
G01*
X143410565Y-29152980D01*
X143410565Y-29052980D01*
X143510565Y-29052980D01*
X143510565Y-29152980D01*
G37*
X143510565Y-29152980D02*
X143410565Y-29152980D01*
X143410565Y-29052980D01*
X143510565Y-29052980D01*
X143510565Y-29152980D01*
%TD*%
D15*
%TO.C,U1*%
X157175200Y-24033950D03*
D16*
X157175200Y-26573950D03*
X157175200Y-29113950D03*
X157175200Y-31653950D03*
X157175200Y-34193950D03*
X157175200Y-36733950D03*
X157175200Y-39273950D03*
X157175200Y-41813950D03*
X157175200Y-44353950D03*
X157175200Y-46893950D03*
X157175200Y-49433950D03*
X157175200Y-51973950D03*
X141935200Y-51973950D03*
X141935200Y-49433950D03*
X141935200Y-46893950D03*
X141935200Y-44353950D03*
X141935200Y-41813950D03*
X141935200Y-39273950D03*
X141935200Y-36733950D03*
X141935200Y-34193950D03*
X141935200Y-31653950D03*
X141935200Y-29113950D03*
X141935200Y-26573950D03*
X141935200Y-24033950D03*
%TD*%
M02*
