%TF.GenerationSoftware,KiCad,Pcbnew,(6.0.0)*%
%TF.CreationDate,2022-02-05T20:00:46+07:00*%
%TF.ProjectId,kibod-01-mirrored-rev2,6b69626f-642d-4303-912d-6d6972726f72,rev?*%
%TF.SameCoordinates,Original*%
%TF.FileFunction,Soldermask,Bot*%
%TF.FilePolarity,Negative*%
%FSLAX46Y46*%
G04 Gerber Fmt 4.6, Leading zero omitted, Abs format (unit mm)*
G04 Created by KiCad (PCBNEW (6.0.0)) date 2022-02-05 20:00:46*
%MOMM*%
%LPD*%
G01*
G04 APERTURE LIST*
G04 Aperture macros list*
%AMRotRect*
0 Rectangle, with rotation*
0 The origin of the aperture is its center*
0 $1 length*
0 $2 width*
0 $3 Rotation angle, in degrees counterclockwise*
0 Add horizontal line*
21,1,$1,$2,0,0,$3*%
G04 Aperture macros list end*
%ADD10RotRect,1.651000X1.651000X15.000000*%
%ADD11C,1.651000*%
%ADD12RotRect,1.651000X1.651000X12.000000*%
%ADD13RotRect,1.651000X1.651000X9.000000*%
%ADD14RotRect,1.651000X1.651000X6.000000*%
%ADD15RotRect,1.651000X1.651000X3.000000*%
%ADD16R,1.651000X1.651000*%
%ADD17RotRect,1.651000X1.651000X358.000000*%
%ADD18RotRect,1.651000X1.651000X354.000000*%
%ADD19RotRect,1.651000X1.651000X350.000000*%
%ADD20C,3.000000*%
%ADD21C,1.700000*%
%ADD22C,4.000000*%
%ADD23RotRect,2.000000X2.000000X195.000000*%
%ADD24C,2.200000*%
%ADD25RotRect,2.000000X2.000000X192.000000*%
%ADD26RotRect,2.000000X2.000000X189.000000*%
%ADD27RotRect,2.000000X2.000000X186.000000*%
%ADD28RotRect,2.000000X2.000000X183.000000*%
%ADD29R,2.000000X2.000000*%
%ADD30RotRect,2.000000X2.000000X178.000000*%
%ADD31RotRect,2.000000X2.000000X174.000000*%
%ADD32RotRect,2.000000X2.000000X170.000000*%
%ADD33C,2.082800*%
%ADD34C,4.300000*%
%ADD35C,1.500000*%
%ADD36O,2.200000X1.600000*%
%ADD37R,1.752600X1.752600*%
%ADD38C,1.752600*%
G04 APERTURE END LIST*
D10*
%TO.C,D-0-0*%
X34694752Y-66445897D03*
D11*
X32722550Y-59085543D03*
%TD*%
D12*
%TO.C,D-0-1*%
X55396489Y-61817172D03*
D11*
X53812201Y-54363688D03*
%TD*%
D13*
%TO.C,D-0-2*%
X73131355Y-42914445D03*
D11*
X71939325Y-35388259D03*
%TD*%
D14*
%TO.C,D-0-3*%
X94231046Y-38184238D03*
D11*
X93434540Y-30605982D03*
%TD*%
D15*
%TO.C,D-0-4*%
X116042906Y-39331604D03*
D11*
X115644106Y-31722046D03*
%TD*%
D16*
%TO.C,D-0-5*%
X137571593Y-39125342D03*
D11*
X137571593Y-31505342D03*
%TD*%
D10*
%TO.C,D-1-0*%
X39700199Y-84734840D03*
D11*
X37727997Y-77374486D03*
%TD*%
D12*
%TO.C,D-1-1*%
X59296961Y-80459988D03*
D11*
X57712673Y-73006504D03*
%TD*%
D13*
%TO.C,D-1-2*%
X76149200Y-61671200D03*
D11*
X74957170Y-54145014D03*
%TD*%
D14*
%TO.C,D-1-3*%
X96316506Y-57084001D03*
D11*
X95520000Y-49505745D03*
%TD*%
D15*
%TO.C,D-1-4*%
X116933127Y-58259353D03*
D11*
X116534327Y-50649795D03*
%TD*%
D16*
%TO.C,D-1-5*%
X137622393Y-58276942D03*
D11*
X137622393Y-50656942D03*
%TD*%
D10*
%TO.C,D-2-0*%
X44578963Y-103198148D03*
D11*
X42606761Y-95837794D03*
%TD*%
D12*
%TO.C,D-2-1*%
X63303786Y-99142706D03*
D11*
X61719498Y-91689222D03*
%TD*%
D13*
%TO.C,D-2-2*%
X79074682Y-80538018D03*
D11*
X77882652Y-73011832D03*
%TD*%
D14*
%TO.C,D-2-3*%
X98304160Y-76041529D03*
D11*
X97507654Y-68463273D03*
%TD*%
D15*
%TO.C,D-2-4*%
X118034247Y-77328658D03*
D11*
X117635447Y-69719100D03*
%TD*%
D16*
%TO.C,D-2-5*%
X137723993Y-77276142D03*
D11*
X137723993Y-69656142D03*
%TD*%
D17*
%TO.C,D-3-3*%
X117017026Y-98000221D03*
D11*
X117282960Y-90384863D03*
%TD*%
D18*
%TO.C,D-3-4*%
X136157340Y-99912070D03*
D11*
X136953846Y-92333814D03*
%TD*%
D19*
%TO.C,D-3-5*%
X154995993Y-103184142D03*
D11*
X156319193Y-95679906D03*
%TD*%
D20*
%TO.C,K-0-0*%
X25517871Y-55011025D03*
X20041642Y-59107978D03*
D21*
X19472317Y-61890130D03*
D22*
X24379220Y-60575329D03*
D20*
X27401997Y-57135777D03*
D21*
X29286123Y-59260528D03*
D20*
X20610968Y-56325826D03*
D23*
X17056931Y-59907729D03*
D24*
X23184830Y-65854338D03*
X21936581Y-64615185D03*
X28053096Y-64549890D03*
D23*
X28473604Y-54219039D03*
D24*
X28514536Y-62852628D03*
%TD*%
D20*
%TO.C,K-0-1*%
X41065641Y-53698879D03*
D21*
X40351489Y-56447421D03*
X50289469Y-54335039D03*
D20*
X46748783Y-49894144D03*
D22*
X45320479Y-55391230D03*
D20*
X41779793Y-50950336D03*
X48519126Y-52114592D03*
D24*
X42669758Y-59297712D03*
X43851444Y-60600494D03*
D25*
X38043165Y-54341326D03*
D24*
X48781308Y-59552620D03*
D25*
X49741914Y-49257935D03*
D24*
X49330943Y-57881833D03*
%TD*%
D20*
%TO.C,K-0-2*%
X65186847Y-30496480D03*
X60169391Y-31291167D03*
X59312370Y-33998567D03*
D21*
X58455349Y-36705967D03*
D22*
X63472806Y-35911280D03*
D21*
X68490263Y-35116593D03*
D20*
X66838555Y-32806536D03*
D26*
X56260413Y-34481949D03*
D24*
X60621268Y-39673680D03*
X61733152Y-41036522D03*
D26*
X68209174Y-30017790D03*
D24*
X66711102Y-40248092D03*
X67347426Y-38608362D03*
%TD*%
D20*
%TO.C,K-0-3*%
X81924686Y-25855073D03*
D22*
X84981776Y-30641742D03*
D20*
X88505402Y-27717403D03*
X80927145Y-28513910D03*
X86976857Y-25324068D03*
D21*
X79929605Y-31172747D03*
X90033947Y-30110737D03*
D24*
X81937237Y-34249748D03*
X82976272Y-35668914D03*
D27*
X77854073Y-28836903D03*
D24*
X88709931Y-33537909D03*
D27*
X90020094Y-25004211D03*
D24*
X87988663Y-35142090D03*
%TD*%
D20*
%TO.C,K-0-4*%
X110801438Y-28618438D03*
D21*
X112202631Y-31088490D03*
D20*
X103191881Y-29017238D03*
D21*
X102056555Y-31620224D03*
D20*
X104327207Y-26414252D03*
X109400245Y-26148386D03*
D22*
X107129593Y-31354357D03*
D24*
X104863736Y-36269679D03*
X103900398Y-34798080D03*
D28*
X100106116Y-29178956D03*
X112456052Y-25988238D03*
D24*
X109896829Y-36005906D03*
X110701065Y-34441672D03*
%TD*%
D20*
%TO.C,K-0-5*%
X131774704Y-25734881D03*
X125424704Y-28274881D03*
D21*
X134314704Y-30814881D03*
D20*
X133044704Y-28274881D03*
D22*
X129234704Y-30814881D03*
D20*
X126694704Y-25734881D03*
D21*
X124154704Y-30814881D03*
D24*
X126714704Y-35604881D03*
D29*
X122334704Y-28274881D03*
D24*
X125829704Y-34084881D03*
X131754704Y-35604881D03*
D29*
X134834704Y-25734881D03*
D24*
X132639704Y-34084881D03*
%TD*%
D20*
%TO.C,K-1-0*%
X25531764Y-74615780D03*
X24962438Y-77397932D03*
D21*
X34206919Y-77550482D03*
D22*
X29300016Y-78865283D03*
D21*
X24393113Y-80180084D03*
D20*
X30438667Y-73300979D03*
X32322793Y-75425731D03*
D24*
X28105626Y-84144292D03*
D23*
X21977727Y-78197683D03*
D24*
X26857377Y-82905139D03*
D23*
X33394400Y-72508993D03*
D24*
X33435332Y-81142582D03*
X32973892Y-82839844D03*
%TD*%
D22*
%TO.C,K-1-1*%
X49281193Y-74024942D03*
D20*
X45740507Y-69584048D03*
D21*
X44312203Y-75081133D03*
X54250183Y-72968751D03*
D20*
X52479840Y-70748304D03*
X50709497Y-68527856D03*
X45026355Y-72332591D03*
D24*
X47812158Y-79234206D03*
X46630472Y-77931424D03*
D25*
X42003879Y-72975038D03*
D24*
X53291657Y-76515545D03*
X52742022Y-78186332D03*
D25*
X53702628Y-67891647D03*
%TD*%
D20*
%TO.C,K-1-2*%
X63149465Y-50106629D03*
D21*
X71470337Y-53932055D03*
D22*
X66452880Y-54726742D03*
D20*
X62292444Y-52814029D03*
X68166921Y-49311942D03*
D21*
X61435423Y-55521429D03*
D20*
X69818629Y-51621998D03*
D26*
X59240487Y-53297411D03*
D24*
X64713226Y-59851984D03*
X63601342Y-58489142D03*
X69691176Y-59063554D03*
D26*
X71189248Y-48833252D03*
D24*
X70327500Y-57423824D03*
%TD*%
D20*
%TO.C,K-1-3*%
X83915954Y-44800713D03*
D21*
X92025215Y-49056377D03*
D22*
X86973044Y-49587382D03*
D20*
X82918413Y-47459550D03*
X90496670Y-46663043D03*
D21*
X81920873Y-50118387D03*
D20*
X88968125Y-44269708D03*
D24*
X84967540Y-54614554D03*
X83928505Y-53195388D03*
D27*
X79845341Y-47782543D03*
D24*
X89979931Y-54087730D03*
D27*
X92011362Y-43949851D03*
D24*
X90701199Y-52483549D03*
%TD*%
D21*
%TO.C,K-1-4*%
X113199630Y-50112382D03*
D20*
X105324206Y-45438144D03*
X110397244Y-45172278D03*
D21*
X103053554Y-50644116D03*
D22*
X108126592Y-50378249D03*
D20*
X104188880Y-48041130D03*
X111798437Y-47642330D03*
D24*
X105860735Y-55293571D03*
D28*
X101103115Y-48202848D03*
D24*
X104897397Y-53821972D03*
X110893828Y-55029798D03*
D28*
X113453051Y-45012130D03*
D24*
X111698064Y-53465564D03*
%TD*%
D21*
%TO.C,K-1-5*%
X124154704Y-49864881D03*
D22*
X129234704Y-49864881D03*
D20*
X131774704Y-44784881D03*
X126694704Y-44784881D03*
X133044704Y-47324881D03*
D21*
X134314704Y-49864881D03*
D20*
X125424704Y-47324881D03*
D24*
X126714704Y-54654881D03*
D29*
X122334704Y-47324881D03*
D24*
X125829704Y-53134881D03*
D29*
X134834704Y-44784881D03*
D24*
X131754704Y-54654881D03*
X132639704Y-53134881D03*
%TD*%
D20*
%TO.C,K-2-0*%
X37253297Y-93826617D03*
X30462268Y-93016666D03*
X29892942Y-95798818D03*
D22*
X34230520Y-97266169D03*
D20*
X35369171Y-91701865D03*
D21*
X29323617Y-98580970D03*
X39137423Y-95951368D03*
D24*
X31787881Y-101306025D03*
X33036130Y-102545178D03*
D23*
X26908231Y-96598569D03*
D24*
X38365836Y-99543468D03*
D23*
X38324904Y-90909879D03*
D24*
X37904396Y-101240730D03*
%TD*%
D20*
%TO.C,K-2-1*%
X54670218Y-87161567D03*
D22*
X53241914Y-92658653D03*
D20*
X56440561Y-89382015D03*
X49701228Y-88217759D03*
D21*
X48272924Y-93714844D03*
X58210904Y-91602462D03*
D20*
X48987076Y-90966302D03*
D25*
X45964600Y-91608749D03*
D24*
X50591193Y-96565135D03*
X51772879Y-97867917D03*
X57252378Y-95149256D03*
D25*
X57663349Y-86525358D03*
D24*
X56702743Y-96820043D03*
%TD*%
D20*
%TO.C,K-2-2*%
X65272521Y-71629491D03*
D21*
X64415500Y-74336891D03*
D22*
X69432957Y-73542204D03*
D20*
X72798706Y-70437460D03*
X66129542Y-68922091D03*
D21*
X74450414Y-72747517D03*
D20*
X71146998Y-68127404D03*
D24*
X66581419Y-77304604D03*
X67693303Y-78667446D03*
D26*
X62220564Y-72112873D03*
D24*
X72671253Y-77879016D03*
X73307577Y-76239286D03*
D26*
X74169325Y-67648714D03*
%TD*%
D20*
%TO.C,K-2-3*%
X92487936Y-65608686D03*
D21*
X94016481Y-68002020D03*
X83912139Y-69064030D03*
D22*
X88964310Y-68533025D03*
D20*
X84909679Y-66405193D03*
X85907220Y-63746356D03*
X90959391Y-63215351D03*
D24*
X85919771Y-72141031D03*
D27*
X81836607Y-66728186D03*
D24*
X86958806Y-73560197D03*
X91971197Y-73033373D03*
D27*
X94002628Y-62895494D03*
D24*
X92692465Y-71429192D03*
%TD*%
D21*
%TO.C,K-2-4*%
X104050555Y-69668009D03*
D20*
X106321207Y-64462037D03*
D22*
X109123593Y-69402142D03*
D21*
X114196631Y-69136275D03*
D20*
X105185881Y-67065023D03*
X112795438Y-66666223D03*
X111394245Y-64196171D03*
D24*
X105894398Y-72845865D03*
X106857736Y-74317464D03*
D28*
X102100116Y-67226741D03*
X114450052Y-64036023D03*
D24*
X112695065Y-72489457D03*
X111890829Y-74053691D03*
%TD*%
D21*
%TO.C,K-2-5*%
X134314704Y-68914881D03*
D20*
X133044704Y-66374881D03*
D22*
X129234704Y-68914881D03*
D21*
X124154704Y-68914881D03*
D20*
X131774704Y-63834881D03*
X125424704Y-66374881D03*
X126694704Y-63834881D03*
D24*
X126714704Y-73704881D03*
X125829704Y-72184881D03*
D29*
X122334704Y-66374881D03*
D24*
X131754704Y-73704881D03*
X132639704Y-72184881D03*
D29*
X134834704Y-63834881D03*
%TD*%
D20*
%TO.C,K-3-3*%
X106554314Y-84069331D03*
D21*
X113992382Y-89412170D03*
D20*
X105196443Y-86563461D03*
X112811801Y-86829395D03*
D22*
X108915477Y-89234881D03*
D21*
X103838572Y-89057592D03*
D20*
X111631219Y-84246620D03*
D30*
X102108325Y-86455622D03*
D24*
X105398430Y-92384056D03*
X106229844Y-93934016D03*
D30*
X114689355Y-84353413D03*
D24*
X112204281Y-92621722D03*
X111266773Y-94109910D03*
%TD*%
D22*
%TO.C,K-3-4*%
X128594387Y-90606481D03*
D20*
X126599306Y-85288807D03*
X131651477Y-85819812D03*
D21*
X123542216Y-90075476D03*
D20*
X132649018Y-88478649D03*
X125070761Y-87682142D03*
D21*
X133646558Y-91137486D03*
D24*
X124866232Y-93502648D03*
D31*
X121997688Y-87359149D03*
D24*
X125587500Y-95106829D03*
X131638926Y-94214487D03*
X130599891Y-95633653D03*
D31*
X134694714Y-86139669D03*
%TD*%
D20*
%TO.C,K-3-5*%
X144826942Y-90216731D03*
D21*
X153140816Y-94261875D03*
D22*
X148137993Y-93379742D03*
D20*
X152331177Y-91539930D03*
D21*
X143135170Y-92497609D03*
D20*
X151521537Y-88817985D03*
X146518714Y-87935852D03*
D32*
X141783886Y-89680158D03*
D24*
X144824503Y-97659378D03*
X144216893Y-96008791D03*
X149787934Y-98534565D03*
D32*
X154535049Y-89349348D03*
D24*
X150923434Y-97191335D03*
%TD*%
D33*
%TO.C,J1*%
X145084800Y-67767200D03*
X147624800Y-67767200D03*
X145084800Y-70307200D03*
X147624800Y-70307200D03*
X145084800Y-72847200D03*
X147624800Y-72847200D03*
X145084800Y-75387200D03*
X147624800Y-75387200D03*
X145084800Y-77927200D03*
X147624800Y-77927200D03*
%TD*%
D34*
%TO.C,Ref\u002A\u002A*%
X139395200Y-85801200D03*
%TD*%
%TO.C,Ref\u002A\u002A*%
X119075200Y-63449200D03*
%TD*%
%TO.C,Ref\u002A\u002A*%
X118567200Y-43129200D03*
%TD*%
%TO.C,Ref\u002A\u002A*%
X75895200Y-46177200D03*
%TD*%
%TO.C,Ref\u002A\u002A*%
X78181200Y-65735200D03*
%TD*%
%TO.C,Ref\u002A\u002A*%
X37541200Y-69291200D03*
%TD*%
D35*
%TO.C,U2*%
X149461200Y-57367200D03*
X156461200Y-57367200D03*
X156461200Y-61967200D03*
X149461200Y-61967200D03*
D36*
X146761200Y-64267200D03*
X146761200Y-55067200D03*
X147861200Y-59667200D03*
X151861200Y-59667200D03*
X154861200Y-59667200D03*
%TD*%
D34*
%TO.C,Ref\u002A\u002A*%
X42367200Y-89103200D03*
%TD*%
D37*
%TO.C,U1*%
X157175200Y-24033950D03*
D38*
X157175200Y-26573950D03*
X157175200Y-29113950D03*
X157175200Y-31653950D03*
X157175200Y-34193950D03*
X157175200Y-36733950D03*
X157175200Y-39273950D03*
X157175200Y-41813950D03*
X157175200Y-44353950D03*
X157175200Y-46893950D03*
X157175200Y-49433950D03*
X157175200Y-51973950D03*
X141935200Y-51973950D03*
X141935200Y-49433950D03*
X141935200Y-46893950D03*
X141935200Y-44353950D03*
X141935200Y-41813950D03*
X141935200Y-39273950D03*
X141935200Y-36733950D03*
X141935200Y-34193950D03*
X141935200Y-31653950D03*
X141935200Y-29113950D03*
X141935200Y-26573950D03*
X141935200Y-24033950D03*
%TD*%
D33*
%TO.C,J2*%
X154381200Y-67767200D03*
X151841200Y-67767200D03*
X154381200Y-70307200D03*
X151841200Y-70307200D03*
X154381200Y-72847200D03*
X151841200Y-72847200D03*
X154381200Y-75387200D03*
X151841200Y-75387200D03*
X154381200Y-77927200D03*
X151841200Y-77927200D03*
%TD*%
M02*
