%TF.GenerationSoftware,KiCad,Pcbnew,(6.0.0)*%
%TF.CreationDate,2022-02-06T13:06:23+07:00*%
%TF.ProjectId,kibod-01-mirrored-rev2,6b69626f-642d-4303-912d-6d6972726f72,rev?*%
%TF.SameCoordinates,Original*%
%TF.FileFunction,Legend,Bot*%
%TF.FilePolarity,Positive*%
%FSLAX46Y46*%
G04 Gerber Fmt 4.6, Leading zero omitted, Abs format (unit mm)*
G04 Created by KiCad (PCBNEW (6.0.0)) date 2022-02-06 13:06:23*
%MOMM*%
%LPD*%
G01*
G04 APERTURE LIST*
%ADD10C,0.750000*%
%ADD11C,0.150000*%
%ADD12C,0.127000*%
%ADD13C,0.203200*%
%ADD14C,0.381000*%
%ADD15C,1.752600*%
%ADD16R,1.752600X1.752600*%
G04 APERTURE END LIST*
D10*
X88496411Y-91916074D02*
X88083380Y-92223827D01*
X87370073Y-92261210D01*
X87069797Y-91990840D01*
X86912183Y-91712994D01*
X86739615Y-91149825D01*
X86709709Y-90579179D01*
X86822464Y-90001057D01*
X86950172Y-89708258D01*
X87220542Y-89407982D01*
X87776234Y-89092753D01*
X88046604Y-88792477D01*
X88174312Y-88499678D01*
X88287067Y-87921556D01*
X88257161Y-87350911D01*
X88084593Y-86787742D01*
X87926979Y-86509896D01*
X87626703Y-86239526D01*
X86913396Y-86276909D01*
X86500365Y-86584661D01*
X85515476Y-92358405D02*
X85201460Y-86366628D01*
X84231523Y-92425694D02*
X84067039Y-89287144D01*
X84179794Y-88709022D01*
X84450164Y-88408746D01*
X84878148Y-88386316D01*
X85178424Y-88656686D01*
X85336038Y-88934532D01*
X82804910Y-92500460D02*
X82595566Y-88505941D01*
X82655378Y-89647232D02*
X82482811Y-89084063D01*
X82325196Y-88806217D01*
X82024920Y-88535848D01*
X81739598Y-88550801D01*
X80950312Y-92597655D02*
X80740968Y-88603137D01*
X80636296Y-86605878D02*
X80793911Y-86883724D01*
X80666202Y-87176523D01*
X80508588Y-86898677D01*
X80636296Y-86605878D01*
X80666202Y-87176523D01*
X79523698Y-92672421D02*
X79314355Y-88677902D01*
X79344261Y-89248548D02*
X79186646Y-88970702D01*
X78886370Y-88700332D01*
X78458386Y-88722762D01*
X78188017Y-89023038D01*
X78075262Y-89601160D01*
X78239746Y-92739710D01*
X78075262Y-89601160D02*
X77902694Y-89037991D01*
X77602418Y-88767621D01*
X77174434Y-88790051D01*
X76904065Y-89090327D01*
X76791309Y-89668449D01*
X76955794Y-92806999D01*
X75319836Y-88887246D02*
X75633852Y-94879024D01*
X75334790Y-89172569D02*
X75034514Y-88902199D01*
X74463868Y-88932106D01*
X74193499Y-89232382D01*
X74065790Y-89525181D01*
X73953035Y-90103303D01*
X74042754Y-91815239D01*
X74215322Y-92378408D01*
X74372936Y-92656254D01*
X74673212Y-92926624D01*
X75243857Y-92896718D01*
X75514227Y-92596442D01*
X69042736Y-89216215D02*
X69252080Y-93210733D01*
X69636418Y-86896251D02*
X70574022Y-91138709D01*
X68719424Y-91235904D01*
X67541357Y-87864367D02*
X67383743Y-87586521D01*
X67083467Y-87316151D01*
X66370160Y-87353534D01*
X66099790Y-87653810D01*
X65972082Y-87946609D01*
X65859327Y-88524731D01*
X65889233Y-89095377D01*
X66076754Y-89943868D01*
X67968128Y-93278022D01*
X66113530Y-93375218D01*
D11*
X97438302Y-95982430D02*
X97466554Y-96791460D01*
X97517468Y-96884979D01*
X97566719Y-96930907D01*
X97663561Y-96975173D01*
X97806332Y-96970187D01*
X97899850Y-96919274D01*
X97459906Y-96601100D02*
X97556748Y-96645367D01*
X97747108Y-96638719D01*
X97840627Y-96587805D01*
X97886555Y-96538553D01*
X97930821Y-96441711D01*
X97920850Y-96156171D01*
X97869936Y-96062653D01*
X97820684Y-96016725D01*
X97723842Y-95972458D01*
X97533482Y-95979106D01*
X97439964Y-96030020D01*
X96985668Y-96665309D02*
X96962401Y-95999049D01*
X96950768Y-95665918D02*
X97000020Y-95711846D01*
X96954092Y-95761098D01*
X96904840Y-95715170D01*
X96950768Y-95665918D01*
X96954092Y-95761098D01*
X96629271Y-96010682D02*
X96248551Y-96023977D01*
X96474868Y-95682537D02*
X96504782Y-96539158D01*
X96460515Y-96636000D01*
X96366997Y-96686914D01*
X96271817Y-96690237D01*
X95938687Y-96701871D02*
X95903787Y-95702480D01*
X95510376Y-96716827D02*
X95492096Y-96193337D01*
X95536362Y-96096495D01*
X95629880Y-96045581D01*
X95772650Y-96040596D01*
X95869492Y-96084862D01*
X95918744Y-96130790D01*
X94582899Y-96082143D02*
X94606166Y-96748403D01*
X95011210Y-96067186D02*
X95029490Y-96590676D01*
X94985224Y-96687518D01*
X94891706Y-96738432D01*
X94748936Y-96743418D01*
X94652094Y-96699151D01*
X94602842Y-96653223D01*
X94130265Y-96765022D02*
X94095366Y-95765631D01*
X94108661Y-96146351D02*
X94011819Y-96102085D01*
X93821459Y-96108733D01*
X93727941Y-96159647D01*
X93682012Y-96208898D01*
X93637746Y-96305740D01*
X93647717Y-96591281D01*
X93698631Y-96684799D01*
X93747883Y-96730727D01*
X93844725Y-96774993D01*
X94035085Y-96768346D01*
X94128603Y-96717432D01*
X93222731Y-96701418D02*
X93176803Y-96750670D01*
X93226055Y-96796598D01*
X93271983Y-96747346D01*
X93222731Y-96701418D01*
X93226055Y-96796598D01*
X92320182Y-96780583D02*
X92417024Y-96824850D01*
X92607384Y-96818202D01*
X92700902Y-96767288D01*
X92746830Y-96718036D01*
X92791097Y-96621194D01*
X92781125Y-96335654D01*
X92730212Y-96242136D01*
X92680960Y-96196208D01*
X92584118Y-96151942D01*
X92393758Y-96158589D01*
X92300239Y-96209503D01*
X91750763Y-96848116D02*
X91844282Y-96797202D01*
X91890210Y-96747950D01*
X91934476Y-96651108D01*
X91924505Y-96365568D01*
X91873591Y-96272050D01*
X91824339Y-96226122D01*
X91727497Y-96181855D01*
X91584727Y-96186841D01*
X91491209Y-96237755D01*
X91445281Y-96287007D01*
X91401014Y-96383849D01*
X91410986Y-96669389D01*
X91461899Y-96762907D01*
X91511151Y-96808835D01*
X91607993Y-96853102D01*
X91750763Y-96848116D01*
X90989323Y-96874706D02*
X90966056Y-96208446D01*
X90969380Y-96303626D02*
X90920128Y-96257697D01*
X90823286Y-96213431D01*
X90680516Y-96218417D01*
X90586998Y-96269331D01*
X90542732Y-96366173D01*
X90561012Y-96889663D01*
X90542732Y-96366173D02*
X90491818Y-96272654D01*
X90394976Y-96228388D01*
X90252206Y-96233374D01*
X90158688Y-96284288D01*
X90114421Y-96381130D01*
X90132702Y-96904620D01*
X88906390Y-95899186D02*
X89807881Y-97154203D01*
X88053093Y-96024280D02*
X88146611Y-95973366D01*
X88289381Y-95968381D01*
X88433813Y-96010985D01*
X88532317Y-96102841D01*
X88583231Y-96196360D01*
X88637468Y-96385058D01*
X88642454Y-96527828D01*
X88601511Y-96719850D01*
X88557245Y-96816692D01*
X88465389Y-96915196D01*
X88324281Y-96967771D01*
X88229100Y-96971095D01*
X88084668Y-96928491D01*
X88035417Y-96882563D01*
X88023783Y-96549432D01*
X88214144Y-96542785D01*
X87610430Y-96992700D02*
X87587164Y-96326439D01*
X87593811Y-96516799D02*
X87542897Y-96423281D01*
X87493645Y-96377353D01*
X87396803Y-96333087D01*
X87301623Y-96336410D01*
X86609377Y-96980009D02*
X86706219Y-97024275D01*
X86896579Y-97017628D01*
X86990098Y-96966714D01*
X87034364Y-96869872D01*
X87021069Y-96489152D01*
X86970155Y-96395634D01*
X86873313Y-96351367D01*
X86682953Y-96358015D01*
X86589435Y-96408929D01*
X86545168Y-96505771D01*
X86548492Y-96600951D01*
X87027716Y-96679512D01*
X85752756Y-97009923D02*
X85849598Y-97054189D01*
X86039959Y-97047542D01*
X86133477Y-96996628D01*
X86177743Y-96899786D01*
X86164448Y-96519066D01*
X86113534Y-96425547D01*
X86016692Y-96381281D01*
X85826332Y-96387929D01*
X85732814Y-96438842D01*
X85688548Y-96535684D01*
X85691871Y-96630865D01*
X86171096Y-96709426D01*
X85255252Y-96407871D02*
X85278518Y-97074132D01*
X85258575Y-96503051D02*
X85209323Y-96457123D01*
X85112482Y-96412857D01*
X84969711Y-96417843D01*
X84876193Y-96468756D01*
X84831927Y-96565598D01*
X84850208Y-97089089D01*
X84374307Y-97105708D02*
X84339408Y-96106317D01*
X84031206Y-96831800D01*
X83673147Y-96129583D01*
X83708047Y-97128974D01*
X82803836Y-97160550D02*
X82785555Y-96637059D01*
X82829822Y-96540217D01*
X82923340Y-96489303D01*
X83113700Y-96482656D01*
X83210542Y-96526922D01*
X82802174Y-97112960D02*
X82899016Y-97157226D01*
X83136966Y-97148916D01*
X83230484Y-97098003D01*
X83274751Y-97001161D01*
X83271427Y-96905981D01*
X83220513Y-96812462D01*
X83123671Y-96768196D01*
X82885721Y-96776506D01*
X82788879Y-96732239D01*
X82373864Y-97127916D02*
X82280346Y-97178830D01*
X82089985Y-97185478D01*
X81993143Y-97141212D01*
X81942230Y-97047693D01*
X81940568Y-97000103D01*
X81984834Y-96903261D01*
X82078352Y-96852348D01*
X82221122Y-96847362D01*
X82314640Y-96796448D01*
X82358907Y-96699606D01*
X82357245Y-96652016D01*
X82306331Y-96558498D01*
X82209489Y-96514232D01*
X82066719Y-96519217D01*
X81973201Y-96570131D01*
X81518905Y-97205420D02*
X81484005Y-96206030D01*
X81090595Y-97220377D02*
X81072314Y-96696887D01*
X81116580Y-96600045D01*
X81210098Y-96549131D01*
X81352868Y-96544145D01*
X81449710Y-96588412D01*
X81498962Y-96634340D01*
X80232312Y-97202701D02*
X80329154Y-97246967D01*
X80519514Y-97240320D01*
X80613032Y-97189406D01*
X80657299Y-97092564D01*
X80644003Y-96711844D01*
X80593090Y-96618326D01*
X80496248Y-96574059D01*
X80305888Y-96580707D01*
X80212369Y-96631621D01*
X80168103Y-96728463D01*
X80171427Y-96823643D01*
X80650651Y-96902204D01*
X79329763Y-97281867D02*
X79294864Y-96282476D01*
X79328101Y-97234277D02*
X79424943Y-97278543D01*
X79615303Y-97271896D01*
X79708821Y-97220982D01*
X79754750Y-97171730D01*
X79799016Y-97074888D01*
X79789045Y-96789348D01*
X79738131Y-96695830D01*
X79688879Y-96649901D01*
X79592037Y-96605635D01*
X79401677Y-96612283D01*
X79308159Y-96663196D01*
X78853863Y-97298486D02*
X78818963Y-96299095D01*
X78438243Y-96312390D01*
X78344725Y-96363304D01*
X78298797Y-96412556D01*
X78254530Y-96509398D01*
X78259516Y-96652168D01*
X78310430Y-96745686D01*
X78359682Y-96791614D01*
X78456524Y-96835880D01*
X78837244Y-96822585D01*
X77711702Y-97338371D02*
X77805220Y-97287457D01*
X77851148Y-97238205D01*
X77895414Y-97141363D01*
X77885443Y-96855823D01*
X77834529Y-96762305D01*
X77785277Y-96716377D01*
X77688435Y-96672110D01*
X77545665Y-96677096D01*
X77452147Y-96728010D01*
X77406219Y-96777262D01*
X77361953Y-96874104D01*
X77371924Y-97159644D01*
X77422838Y-97253162D01*
X77472090Y-97299090D01*
X77568932Y-97343356D01*
X77711702Y-97338371D01*
X77069765Y-96693715D02*
X76689045Y-96707010D01*
X76915362Y-96365570D02*
X76945275Y-97222191D01*
X76901009Y-97319033D01*
X76807491Y-97369947D01*
X76712311Y-97373270D01*
X75950870Y-97399860D02*
X75932590Y-96876370D01*
X75976856Y-96779528D01*
X76070374Y-96728614D01*
X76260734Y-96721967D01*
X76357576Y-96766233D01*
X75949208Y-97352270D02*
X76046050Y-97396537D01*
X76284001Y-97388227D01*
X76377519Y-97337313D01*
X76421785Y-97240472D01*
X76418461Y-97145291D01*
X76367547Y-97051773D01*
X76270705Y-97007507D01*
X76032755Y-97015816D01*
X75935913Y-96971550D01*
X75594474Y-96745233D02*
X75213753Y-96758528D01*
X75440070Y-96417088D02*
X75469984Y-97273709D01*
X75425718Y-97370551D01*
X75332200Y-97421465D01*
X75237020Y-97424789D01*
X74761119Y-97441407D02*
X74854637Y-97390494D01*
X74900566Y-97341242D01*
X74944832Y-97244400D01*
X74934861Y-96958860D01*
X74883947Y-96865341D01*
X74834695Y-96819413D01*
X74737853Y-96775147D01*
X74595083Y-96780133D01*
X74501565Y-96831046D01*
X74455636Y-96880298D01*
X74411370Y-96977140D01*
X74421341Y-97262680D01*
X74472255Y-97356199D01*
X74521507Y-97402127D01*
X74618349Y-97446393D01*
X74761119Y-97441407D01*
X73249267Y-96445945D02*
X74150758Y-97700962D01*
X72998626Y-97455307D02*
X72857518Y-97507883D01*
X72619568Y-97516192D01*
X72522726Y-97471926D01*
X72473474Y-97425998D01*
X72422560Y-97332479D01*
X72419236Y-97237299D01*
X72463502Y-97140457D01*
X72509431Y-97091205D01*
X72602949Y-97040292D01*
X72791647Y-96986054D01*
X72885165Y-96935140D01*
X72931093Y-96885888D01*
X72975360Y-96789046D01*
X72972036Y-96693866D01*
X72921122Y-96600348D01*
X72871870Y-96554420D01*
X72775028Y-96510154D01*
X72537078Y-96518463D01*
X72395970Y-96571039D01*
X72000897Y-97537797D02*
X71965998Y-96538406D01*
X71572587Y-97552753D02*
X71554306Y-97029263D01*
X71598572Y-96932421D01*
X71692090Y-96881507D01*
X71834861Y-96876522D01*
X71931703Y-96920788D01*
X71980954Y-96966716D01*
X71096686Y-97569372D02*
X71073420Y-96903112D01*
X71080067Y-97093472D02*
X71029154Y-96999954D01*
X70979902Y-96954026D01*
X70883060Y-96909759D01*
X70787880Y-96913083D01*
X70478016Y-97590977D02*
X70454749Y-96924716D01*
X70443116Y-96591586D02*
X70492368Y-96637514D01*
X70446440Y-96686766D01*
X70397188Y-96640838D01*
X70443116Y-96591586D01*
X70446440Y-96686766D01*
X70002115Y-97607596D02*
X69978849Y-96941335D01*
X69982173Y-97036515D02*
X69932921Y-96990587D01*
X69836079Y-96946321D01*
X69693309Y-96951306D01*
X69599791Y-97002220D01*
X69555524Y-97099062D01*
X69573805Y-97622552D01*
X69555524Y-97099062D02*
X69504611Y-97005544D01*
X69407769Y-96961278D01*
X69264998Y-96966263D01*
X69171480Y-97017177D01*
X69127214Y-97114019D01*
X69145495Y-97637509D01*
X68646328Y-96987868D02*
X68681227Y-97987258D01*
X68647990Y-97035458D02*
X68551148Y-96991191D01*
X68360788Y-96997839D01*
X68267269Y-97048753D01*
X68221341Y-97098005D01*
X68177075Y-97194847D01*
X68187046Y-97480387D01*
X68237960Y-97573905D01*
X68287212Y-97619833D01*
X68384054Y-97664099D01*
X68574414Y-97657452D01*
X68667932Y-97606538D01*
X67313807Y-97034400D02*
X67337073Y-97700661D01*
X67538462Y-96645371D02*
X67801340Y-97350912D01*
X67182670Y-97372516D01*
X66829597Y-96813069D02*
X66780345Y-96767141D01*
X66683503Y-96722874D01*
X66445553Y-96731184D01*
X66352035Y-96782098D01*
X66306107Y-96831350D01*
X66261840Y-96928192D01*
X66265164Y-97023372D01*
X66317740Y-97164480D01*
X66908763Y-97715618D01*
X66290092Y-97737222D01*
X89364573Y-98489931D02*
X89223464Y-98542506D01*
X88985514Y-98550816D01*
X88888672Y-98506549D01*
X88839420Y-98460621D01*
X88788507Y-98367103D01*
X88785183Y-98271923D01*
X88829449Y-98175081D01*
X88875377Y-98125829D01*
X88968895Y-98074915D01*
X89157594Y-98020678D01*
X89251112Y-97969764D01*
X89297040Y-97920512D01*
X89341306Y-97823670D01*
X89337983Y-97728490D01*
X89287069Y-97634972D01*
X89237817Y-97589044D01*
X89140975Y-97544777D01*
X88903025Y-97553087D01*
X88761916Y-97605662D01*
X88366844Y-98572420D02*
X88331944Y-97573029D01*
X87938533Y-98587377D02*
X87920253Y-98063887D01*
X87964519Y-97967045D01*
X88058037Y-97916131D01*
X88200807Y-97911145D01*
X88297649Y-97955411D01*
X88346901Y-98001340D01*
X87462633Y-98603996D02*
X87439367Y-97937735D01*
X87446014Y-98128095D02*
X87395100Y-98034577D01*
X87345848Y-97988649D01*
X87249006Y-97944383D01*
X87153826Y-97947707D01*
X86843962Y-98625600D02*
X86820696Y-97959340D01*
X86809063Y-97626209D02*
X86858315Y-97672138D01*
X86812387Y-97721390D01*
X86763135Y-97675461D01*
X86809063Y-97626209D01*
X86812387Y-97721390D01*
X86368062Y-98642219D02*
X86344796Y-97975959D01*
X86348119Y-98071139D02*
X86298868Y-98025210D01*
X86202026Y-97980944D01*
X86059255Y-97985930D01*
X85965737Y-98036844D01*
X85921471Y-98133686D01*
X85939752Y-98657176D01*
X85921471Y-98133686D02*
X85870557Y-98040167D01*
X85773715Y-97995901D01*
X85630945Y-98000887D01*
X85537427Y-98051801D01*
X85493161Y-98148642D01*
X85511441Y-98672133D01*
X85012275Y-98022491D02*
X85047174Y-99021882D01*
X85013937Y-98070081D02*
X84917095Y-98025815D01*
X84726734Y-98032462D01*
X84633216Y-98083376D01*
X84587288Y-98132628D01*
X84543022Y-98229470D01*
X84552993Y-98515010D01*
X84603907Y-98608529D01*
X84653159Y-98654457D01*
X84750001Y-98698723D01*
X84940361Y-98692075D01*
X85033879Y-98641162D01*
X83679754Y-98069024D02*
X83703020Y-98735284D01*
X83904409Y-97679994D02*
X84167287Y-98385535D01*
X83548617Y-98407140D01*
X83195544Y-97847692D02*
X83146292Y-97801764D01*
X83049450Y-97757498D01*
X82811500Y-97765807D01*
X82717981Y-97816721D01*
X82672053Y-97865973D01*
X82627787Y-97962815D01*
X82631111Y-98057995D01*
X82683686Y-98199103D01*
X83274709Y-98750241D01*
X82656039Y-98771846D01*
X81466288Y-98813393D02*
X81431389Y-97814002D01*
X81444684Y-98194722D02*
X81347842Y-98150456D01*
X81157481Y-98157104D01*
X81063963Y-98208017D01*
X81018035Y-98257269D01*
X80973769Y-98354111D01*
X80983740Y-98639651D01*
X81034654Y-98733170D01*
X81083906Y-98779098D01*
X81180748Y-98823364D01*
X81371108Y-98816717D01*
X81464626Y-98765803D01*
X80633991Y-98175384D02*
X80419307Y-98849954D01*
X80158091Y-98192003D02*
X80419307Y-98849954D01*
X80522797Y-99084581D01*
X80572049Y-99130509D01*
X80668890Y-99174775D01*
X79039196Y-98898149D02*
X79004296Y-97898758D01*
X78696094Y-98624242D01*
X78338036Y-97922024D01*
X78372935Y-98921415D01*
X77897035Y-98938034D02*
X77873769Y-98271773D01*
X77862136Y-97938643D02*
X77911387Y-97984571D01*
X77865459Y-98033823D01*
X77816207Y-97987895D01*
X77862136Y-97938643D01*
X77865459Y-98033823D01*
X76991162Y-98922020D02*
X77088004Y-98966286D01*
X77278365Y-98959638D01*
X77371883Y-98908724D01*
X77417811Y-98859473D01*
X77462077Y-98762631D01*
X77452106Y-98477090D01*
X77401192Y-98383572D01*
X77351940Y-98337644D01*
X77255098Y-98293378D01*
X77064738Y-98300025D01*
X76971220Y-98350939D01*
X76564514Y-98984567D02*
X76529614Y-97985176D01*
X76136204Y-98999523D02*
X76117923Y-98476033D01*
X76162189Y-98379191D01*
X76255707Y-98328277D01*
X76398477Y-98323292D01*
X76495319Y-98367558D01*
X76544571Y-98413486D01*
X75231993Y-99031099D02*
X75213712Y-98507609D01*
X75257978Y-98410767D01*
X75351497Y-98359853D01*
X75541857Y-98353205D01*
X75638699Y-98397472D01*
X75230331Y-98983509D02*
X75327173Y-99027775D01*
X75565123Y-99019466D01*
X75658641Y-98968552D01*
X75702908Y-98871710D01*
X75699584Y-98776530D01*
X75648670Y-98683012D01*
X75551828Y-98638746D01*
X75313878Y-98647055D01*
X75217036Y-98602789D01*
X74373710Y-99013423D02*
X74470552Y-99057689D01*
X74660912Y-99051042D01*
X74754431Y-99000128D01*
X74798697Y-98903286D01*
X74785402Y-98522566D01*
X74734488Y-98429047D01*
X74637646Y-98384781D01*
X74447286Y-98391429D01*
X74353768Y-98442343D01*
X74309501Y-98539184D01*
X74312825Y-98634365D01*
X74792049Y-98712926D01*
X73756702Y-99082617D02*
X73850220Y-99031704D01*
X73894486Y-98934862D01*
X73864572Y-98078241D01*
X72057813Y-98188983D02*
X72151331Y-98138069D01*
X72294101Y-98133083D01*
X72438533Y-98175687D01*
X72537037Y-98267544D01*
X72587951Y-98361062D01*
X72642188Y-98549760D01*
X72647174Y-98692530D01*
X72606231Y-98884552D01*
X72561965Y-98981394D01*
X72470109Y-99079898D01*
X72329000Y-99132474D01*
X72233820Y-99135798D01*
X72089388Y-99093193D01*
X72040136Y-99047265D01*
X72028503Y-98714135D01*
X72218863Y-98707487D01*
%TO.C,U1*%
X155625723Y-31253950D02*
X155701914Y-31215854D01*
X155816200Y-31215854D01*
X155930485Y-31253950D01*
X156006676Y-31330140D01*
X156044771Y-31406330D01*
X156082866Y-31558711D01*
X156082866Y-31672997D01*
X156044771Y-31825378D01*
X156006676Y-31901569D01*
X155930485Y-31977759D01*
X155816200Y-32015854D01*
X155740009Y-32015854D01*
X155625723Y-31977759D01*
X155587628Y-31939664D01*
X155587628Y-31672997D01*
X155740009Y-31672997D01*
X155244771Y-32015854D02*
X155244771Y-31215854D01*
X154787628Y-32015854D01*
X154787628Y-31215854D01*
X154406676Y-32015854D02*
X154406676Y-31215854D01*
X154216200Y-31215854D01*
X154101914Y-31253950D01*
X154025723Y-31330140D01*
X153987628Y-31406330D01*
X153949533Y-31558711D01*
X153949533Y-31672997D01*
X153987628Y-31825378D01*
X154025723Y-31901569D01*
X154101914Y-31977759D01*
X154216200Y-32015854D01*
X154406676Y-32015854D01*
X144418009Y-49376807D02*
X144303723Y-49414902D01*
X144265628Y-49452997D01*
X144227533Y-49529188D01*
X144227533Y-49643473D01*
X144265628Y-49719664D01*
X144303723Y-49757759D01*
X144379914Y-49795854D01*
X144684676Y-49795854D01*
X144684676Y-48995854D01*
X144418009Y-48995854D01*
X144341819Y-49033950D01*
X144303723Y-49072045D01*
X144265628Y-49148235D01*
X144265628Y-49224426D01*
X144303723Y-49300616D01*
X144341819Y-49338711D01*
X144418009Y-49376807D01*
X144684676Y-49376807D01*
X143922771Y-49072045D02*
X143884676Y-49033950D01*
X143808485Y-48995854D01*
X143618009Y-48995854D01*
X143541819Y-49033950D01*
X143503723Y-49072045D01*
X143465628Y-49148235D01*
X143465628Y-49224426D01*
X143503723Y-49338711D01*
X143960866Y-49795854D01*
X143465628Y-49795854D01*
X144418009Y-44296807D02*
X144303723Y-44334902D01*
X144265628Y-44372997D01*
X144227533Y-44449188D01*
X144227533Y-44563473D01*
X144265628Y-44639664D01*
X144303723Y-44677759D01*
X144379914Y-44715854D01*
X144684676Y-44715854D01*
X144684676Y-43915854D01*
X144418009Y-43915854D01*
X144341819Y-43953950D01*
X144303723Y-43992045D01*
X144265628Y-44068235D01*
X144265628Y-44144426D01*
X144303723Y-44220616D01*
X144341819Y-44258711D01*
X144418009Y-44296807D01*
X144684676Y-44296807D01*
X143465628Y-44715854D02*
X143922771Y-44715854D01*
X143694200Y-44715854D02*
X143694200Y-43915854D01*
X143770390Y-44030140D01*
X143846580Y-44106330D01*
X143922771Y-44144426D01*
X144360866Y-34136807D02*
X144627533Y-34136807D01*
X144627533Y-34555854D02*
X144627533Y-33755854D01*
X144246580Y-33755854D01*
X143598961Y-34022521D02*
X143598961Y-34555854D01*
X143789438Y-33717759D02*
X143979914Y-34289188D01*
X143484676Y-34289188D01*
X155606676Y-26935854D02*
X155606676Y-26135854D01*
X155416200Y-26135854D01*
X155301914Y-26173950D01*
X155225723Y-26250140D01*
X155187628Y-26326330D01*
X155149533Y-26478711D01*
X155149533Y-26592997D01*
X155187628Y-26745378D01*
X155225723Y-26821569D01*
X155301914Y-26897759D01*
X155416200Y-26935854D01*
X155606676Y-26935854D01*
X154844771Y-26212045D02*
X154806676Y-26173950D01*
X154730485Y-26135854D01*
X154540009Y-26135854D01*
X154463819Y-26173950D01*
X154425723Y-26212045D01*
X154387628Y-26288235D01*
X154387628Y-26364426D01*
X154425723Y-26478711D01*
X154882866Y-26935854D01*
X154387628Y-26935854D01*
X155606676Y-44715854D02*
X155606676Y-43915854D01*
X155416200Y-43915854D01*
X155301914Y-43953950D01*
X155225723Y-44030140D01*
X155187628Y-44106330D01*
X155149533Y-44258711D01*
X155149533Y-44372997D01*
X155187628Y-44525378D01*
X155225723Y-44601569D01*
X155301914Y-44677759D01*
X155416200Y-44715854D01*
X155606676Y-44715854D01*
X154882866Y-43915854D02*
X154349533Y-43915854D01*
X154692390Y-44715854D01*
X155606676Y-39635854D02*
X155606676Y-38835854D01*
X155416200Y-38835854D01*
X155301914Y-38873950D01*
X155225723Y-38950140D01*
X155187628Y-39026330D01*
X155149533Y-39178711D01*
X155149533Y-39292997D01*
X155187628Y-39445378D01*
X155225723Y-39521569D01*
X155301914Y-39597759D01*
X155416200Y-39635854D01*
X155606676Y-39635854D01*
X154463819Y-39102521D02*
X154463819Y-39635854D01*
X154654295Y-38797759D02*
X154844771Y-39369188D01*
X154349533Y-39369188D01*
X144360866Y-41756807D02*
X144627533Y-41756807D01*
X144627533Y-42175854D02*
X144627533Y-41375854D01*
X144246580Y-41375854D01*
X144018009Y-41375854D02*
X143484676Y-41375854D01*
X143827533Y-42175854D01*
X144360866Y-36676807D02*
X144627533Y-36676807D01*
X144627533Y-37095854D02*
X144627533Y-36295854D01*
X144246580Y-36295854D01*
X143560866Y-36295854D02*
X143941819Y-36295854D01*
X143979914Y-36676807D01*
X143941819Y-36638711D01*
X143865628Y-36600616D01*
X143675152Y-36600616D01*
X143598961Y-36638711D01*
X143560866Y-36676807D01*
X143522771Y-36752997D01*
X143522771Y-36943473D01*
X143560866Y-37019664D01*
X143598961Y-37057759D01*
X143675152Y-37095854D01*
X143865628Y-37095854D01*
X143941819Y-37057759D01*
X143979914Y-37019664D01*
X155606676Y-37095854D02*
X155606676Y-36295854D01*
X155416200Y-36295854D01*
X155301914Y-36333950D01*
X155225723Y-36410140D01*
X155187628Y-36486330D01*
X155149533Y-36638711D01*
X155149533Y-36752997D01*
X155187628Y-36905378D01*
X155225723Y-36981569D01*
X155301914Y-37057759D01*
X155416200Y-37095854D01*
X155606676Y-37095854D01*
X154654295Y-36295854D02*
X154578104Y-36295854D01*
X154501914Y-36333950D01*
X154463819Y-36372045D01*
X154425723Y-36448235D01*
X154387628Y-36600616D01*
X154387628Y-36791092D01*
X154425723Y-36943473D01*
X154463819Y-37019664D01*
X154501914Y-37057759D01*
X154578104Y-37095854D01*
X154654295Y-37095854D01*
X154730485Y-37057759D01*
X154768580Y-37019664D01*
X154806676Y-36943473D01*
X154844771Y-36791092D01*
X154844771Y-36600616D01*
X154806676Y-36448235D01*
X154768580Y-36372045D01*
X154730485Y-36333950D01*
X154654295Y-36295854D01*
X155568580Y-46836807D02*
X155301914Y-46836807D01*
X155187628Y-47255854D02*
X155568580Y-47255854D01*
X155568580Y-46455854D01*
X155187628Y-46455854D01*
X154501914Y-46455854D02*
X154654295Y-46455854D01*
X154730485Y-46493950D01*
X154768580Y-46532045D01*
X154844771Y-46646330D01*
X154882866Y-46798711D01*
X154882866Y-47103473D01*
X154844771Y-47179664D01*
X154806676Y-47217759D01*
X154730485Y-47255854D01*
X154578104Y-47255854D01*
X154501914Y-47217759D01*
X154463819Y-47179664D01*
X154425723Y-47103473D01*
X154425723Y-46912997D01*
X154463819Y-46836807D01*
X154501914Y-46798711D01*
X154578104Y-46760616D01*
X154730485Y-46760616D01*
X154806676Y-46798711D01*
X154844771Y-46836807D01*
X154882866Y-46912997D01*
X144418009Y-46836807D02*
X144303723Y-46874902D01*
X144265628Y-46912997D01*
X144227533Y-46989188D01*
X144227533Y-47103473D01*
X144265628Y-47179664D01*
X144303723Y-47217759D01*
X144379914Y-47255854D01*
X144684676Y-47255854D01*
X144684676Y-46455854D01*
X144418009Y-46455854D01*
X144341819Y-46493950D01*
X144303723Y-46532045D01*
X144265628Y-46608235D01*
X144265628Y-46684426D01*
X144303723Y-46760616D01*
X144341819Y-46798711D01*
X144418009Y-46836807D01*
X144684676Y-46836807D01*
X143960866Y-46455854D02*
X143465628Y-46455854D01*
X143732295Y-46760616D01*
X143618009Y-46760616D01*
X143541819Y-46798711D01*
X143503723Y-46836807D01*
X143465628Y-46912997D01*
X143465628Y-47103473D01*
X143503723Y-47179664D01*
X143541819Y-47217759D01*
X143618009Y-47255854D01*
X143846580Y-47255854D01*
X143922771Y-47217759D01*
X143960866Y-47179664D01*
X155317548Y-23595854D02*
X154860405Y-23595854D01*
X155088976Y-24395854D02*
X155088976Y-23595854D01*
X154669929Y-23595854D02*
X154136595Y-24395854D01*
X154136595Y-23595854D02*
X154669929Y-24395854D01*
X153679452Y-23595854D02*
X153603262Y-23595854D01*
X153527072Y-23633950D01*
X153488976Y-23672045D01*
X153450881Y-23748235D01*
X153412786Y-23900616D01*
X153412786Y-24091092D01*
X153450881Y-24243473D01*
X153488976Y-24319664D01*
X153527072Y-24357759D01*
X153603262Y-24395854D01*
X153679452Y-24395854D01*
X153755643Y-24357759D01*
X153793738Y-24319664D01*
X153831833Y-24243473D01*
X153869929Y-24091092D01*
X153869929Y-23900616D01*
X153831833Y-23748235D01*
X153793738Y-23672045D01*
X153755643Y-23633950D01*
X153679452Y-23595854D01*
X152498500Y-23557759D02*
X153184214Y-24586330D01*
X152231833Y-24395854D02*
X152231833Y-23595854D01*
X152041357Y-23595854D01*
X151927072Y-23633950D01*
X151850881Y-23710140D01*
X151812786Y-23786330D01*
X151774691Y-23938711D01*
X151774691Y-24052997D01*
X151812786Y-24205378D01*
X151850881Y-24281569D01*
X151927072Y-24357759D01*
X152041357Y-24395854D01*
X152231833Y-24395854D01*
X151508024Y-23595854D02*
X151012786Y-23595854D01*
X151279452Y-23900616D01*
X151165167Y-23900616D01*
X151088976Y-23938711D01*
X151050881Y-23976807D01*
X151012786Y-24052997D01*
X151012786Y-24243473D01*
X151050881Y-24319664D01*
X151088976Y-24357759D01*
X151165167Y-24395854D01*
X151393738Y-24395854D01*
X151469929Y-24357759D01*
X151508024Y-24319664D01*
X155606676Y-34555854D02*
X155606676Y-33755854D01*
X155416200Y-33755854D01*
X155301914Y-33793950D01*
X155225723Y-33870140D01*
X155187628Y-33946330D01*
X155149533Y-34098711D01*
X155149533Y-34212997D01*
X155187628Y-34365378D01*
X155225723Y-34441569D01*
X155301914Y-34517759D01*
X155416200Y-34555854D01*
X155606676Y-34555854D01*
X154387628Y-34555854D02*
X154844771Y-34555854D01*
X154616200Y-34555854D02*
X154616200Y-33755854D01*
X154692390Y-33870140D01*
X154768580Y-33946330D01*
X154844771Y-33984426D01*
X155149533Y-42099664D02*
X155187628Y-42137759D01*
X155301914Y-42175854D01*
X155378104Y-42175854D01*
X155492390Y-42137759D01*
X155568580Y-42061569D01*
X155606676Y-41985378D01*
X155644771Y-41832997D01*
X155644771Y-41718711D01*
X155606676Y-41566330D01*
X155568580Y-41490140D01*
X155492390Y-41413950D01*
X155378104Y-41375854D01*
X155301914Y-41375854D01*
X155187628Y-41413950D01*
X155149533Y-41452045D01*
X154463819Y-41375854D02*
X154616200Y-41375854D01*
X154692390Y-41413950D01*
X154730485Y-41452045D01*
X154806676Y-41566330D01*
X154844771Y-41718711D01*
X154844771Y-42023473D01*
X154806676Y-42099664D01*
X154768580Y-42137759D01*
X154692390Y-42175854D01*
X154540009Y-42175854D01*
X154463819Y-42137759D01*
X154425723Y-42099664D01*
X154387628Y-42023473D01*
X154387628Y-41832997D01*
X154425723Y-41756807D01*
X154463819Y-41718711D01*
X154540009Y-41680616D01*
X154692390Y-41680616D01*
X154768580Y-41718711D01*
X154806676Y-41756807D01*
X154844771Y-41832997D01*
X144703723Y-26173950D02*
X144779914Y-26135854D01*
X144894200Y-26135854D01*
X145008485Y-26173950D01*
X145084676Y-26250140D01*
X145122771Y-26326330D01*
X145160866Y-26478711D01*
X145160866Y-26592997D01*
X145122771Y-26745378D01*
X145084676Y-26821569D01*
X145008485Y-26897759D01*
X144894200Y-26935854D01*
X144818009Y-26935854D01*
X144703723Y-26897759D01*
X144665628Y-26859664D01*
X144665628Y-26592997D01*
X144818009Y-26592997D01*
X144322771Y-26935854D02*
X144322771Y-26135854D01*
X143865628Y-26935854D01*
X143865628Y-26135854D01*
X143484676Y-26935854D02*
X143484676Y-26135854D01*
X143294200Y-26135854D01*
X143179914Y-26173950D01*
X143103723Y-26250140D01*
X143065628Y-26326330D01*
X143027533Y-26478711D01*
X143027533Y-26592997D01*
X143065628Y-26745378D01*
X143103723Y-26821569D01*
X143179914Y-26897759D01*
X143294200Y-26935854D01*
X143484676Y-26935854D01*
X155625723Y-28713950D02*
X155701914Y-28675854D01*
X155816200Y-28675854D01*
X155930485Y-28713950D01*
X156006676Y-28790140D01*
X156044771Y-28866330D01*
X156082866Y-29018711D01*
X156082866Y-29132997D01*
X156044771Y-29285378D01*
X156006676Y-29361569D01*
X155930485Y-29437759D01*
X155816200Y-29475854D01*
X155740009Y-29475854D01*
X155625723Y-29437759D01*
X155587628Y-29399664D01*
X155587628Y-29132997D01*
X155740009Y-29132997D01*
X155244771Y-29475854D02*
X155244771Y-28675854D01*
X154787628Y-29475854D01*
X154787628Y-28675854D01*
X154406676Y-29475854D02*
X154406676Y-28675854D01*
X154216200Y-28675854D01*
X154101914Y-28713950D01*
X154025723Y-28790140D01*
X153987628Y-28866330D01*
X153949533Y-29018711D01*
X153949533Y-29132997D01*
X153987628Y-29285378D01*
X154025723Y-29361569D01*
X154101914Y-29437759D01*
X154216200Y-29475854D01*
X154406676Y-29475854D01*
X144418009Y-51916807D02*
X144303723Y-51954902D01*
X144265628Y-51992997D01*
X144227533Y-52069188D01*
X144227533Y-52183473D01*
X144265628Y-52259664D01*
X144303723Y-52297759D01*
X144379914Y-52335854D01*
X144684676Y-52335854D01*
X144684676Y-51535854D01*
X144418009Y-51535854D01*
X144341819Y-51573950D01*
X144303723Y-51612045D01*
X144265628Y-51688235D01*
X144265628Y-51764426D01*
X144303723Y-51840616D01*
X144341819Y-51878711D01*
X144418009Y-51916807D01*
X144684676Y-51916807D01*
X143541819Y-51535854D02*
X143694200Y-51535854D01*
X143770390Y-51573950D01*
X143808485Y-51612045D01*
X143884676Y-51726330D01*
X143922771Y-51878711D01*
X143922771Y-52183473D01*
X143884676Y-52259664D01*
X143846580Y-52297759D01*
X143770390Y-52335854D01*
X143618009Y-52335854D01*
X143541819Y-52297759D01*
X143503723Y-52259664D01*
X143465628Y-52183473D01*
X143465628Y-51992997D01*
X143503723Y-51916807D01*
X143541819Y-51878711D01*
X143618009Y-51840616D01*
X143770390Y-51840616D01*
X143846580Y-51878711D01*
X143884676Y-51916807D01*
X143922771Y-51992997D01*
X145160866Y-31215854D02*
X144894200Y-32015854D01*
X144627533Y-31215854D01*
X143903723Y-31939664D02*
X143941819Y-31977759D01*
X144056104Y-32015854D01*
X144132295Y-32015854D01*
X144246580Y-31977759D01*
X144322771Y-31901569D01*
X144360866Y-31825378D01*
X144398961Y-31672997D01*
X144398961Y-31558711D01*
X144360866Y-31406330D01*
X144322771Y-31330140D01*
X144246580Y-31253950D01*
X144132295Y-31215854D01*
X144056104Y-31215854D01*
X143941819Y-31253950D01*
X143903723Y-31292045D01*
X143103723Y-31939664D02*
X143141819Y-31977759D01*
X143256104Y-32015854D01*
X143332295Y-32015854D01*
X143446580Y-31977759D01*
X143522771Y-31901569D01*
X143560866Y-31825378D01*
X143598961Y-31672997D01*
X143598961Y-31558711D01*
X143560866Y-31406330D01*
X143522771Y-31330140D01*
X143446580Y-31253950D01*
X143332295Y-31215854D01*
X143256104Y-31215854D01*
X143141819Y-31253950D01*
X143103723Y-31292045D01*
X155340009Y-49376807D02*
X155225723Y-49414902D01*
X155187628Y-49452997D01*
X155149533Y-49529188D01*
X155149533Y-49643473D01*
X155187628Y-49719664D01*
X155225723Y-49757759D01*
X155301914Y-49795854D01*
X155606676Y-49795854D01*
X155606676Y-48995854D01*
X155340009Y-48995854D01*
X155263819Y-49033950D01*
X155225723Y-49072045D01*
X155187628Y-49148235D01*
X155187628Y-49224426D01*
X155225723Y-49300616D01*
X155263819Y-49338711D01*
X155340009Y-49376807D01*
X155606676Y-49376807D01*
X154463819Y-49262521D02*
X154463819Y-49795854D01*
X154654295Y-48957759D02*
X154844771Y-49529188D01*
X154349533Y-49529188D01*
X144360866Y-39216807D02*
X144627533Y-39216807D01*
X144627533Y-39635854D02*
X144627533Y-38835854D01*
X144246580Y-38835854D01*
X143598961Y-38835854D02*
X143751342Y-38835854D01*
X143827533Y-38873950D01*
X143865628Y-38912045D01*
X143941819Y-39026330D01*
X143979914Y-39178711D01*
X143979914Y-39483473D01*
X143941819Y-39559664D01*
X143903723Y-39597759D01*
X143827533Y-39635854D01*
X143675152Y-39635854D01*
X143598961Y-39597759D01*
X143560866Y-39559664D01*
X143522771Y-39483473D01*
X143522771Y-39292997D01*
X143560866Y-39216807D01*
X143598961Y-39178711D01*
X143675152Y-39140616D01*
X143827533Y-39140616D01*
X143903723Y-39178711D01*
X143941819Y-39216807D01*
X143979914Y-39292997D01*
X144646580Y-24395854D02*
X144913247Y-24014902D01*
X145103723Y-24395854D02*
X145103723Y-23595854D01*
X144798961Y-23595854D01*
X144722771Y-23633950D01*
X144684676Y-23672045D01*
X144646580Y-23748235D01*
X144646580Y-23862521D01*
X144684676Y-23938711D01*
X144722771Y-23976807D01*
X144798961Y-24014902D01*
X145103723Y-24014902D01*
X144341819Y-24167283D02*
X143960866Y-24167283D01*
X144418009Y-24395854D02*
X144151342Y-23595854D01*
X143884676Y-24395854D01*
X143694200Y-23595854D02*
X143503723Y-24395854D01*
X143351342Y-23824426D01*
X143198961Y-24395854D01*
X143008485Y-23595854D01*
X144355413Y-29407759D02*
X144241127Y-29445854D01*
X144050651Y-29445854D01*
X143974460Y-29407759D01*
X143936365Y-29369664D01*
X143898270Y-29293473D01*
X143898270Y-29217283D01*
X143936365Y-29141092D01*
X143974460Y-29102997D01*
X144050651Y-29064902D01*
X144203032Y-29026807D01*
X144279222Y-28988711D01*
X144317318Y-28950616D01*
X144355413Y-28874426D01*
X144355413Y-28798235D01*
X144317318Y-28722045D01*
X144279222Y-28683950D01*
X144203032Y-28645854D01*
X144012556Y-28645854D01*
X143898270Y-28683950D01*
X143669699Y-28645854D02*
X143212556Y-28645854D01*
X143441127Y-29445854D02*
X143441127Y-28645854D01*
X155340009Y-51916807D02*
X155225723Y-51954902D01*
X155187628Y-51992997D01*
X155149533Y-52069188D01*
X155149533Y-52183473D01*
X155187628Y-52259664D01*
X155225723Y-52297759D01*
X155301914Y-52335854D01*
X155606676Y-52335854D01*
X155606676Y-51535854D01*
X155340009Y-51535854D01*
X155263819Y-51573950D01*
X155225723Y-51612045D01*
X155187628Y-51688235D01*
X155187628Y-51764426D01*
X155225723Y-51840616D01*
X155263819Y-51878711D01*
X155340009Y-51916807D01*
X155606676Y-51916807D01*
X154425723Y-51535854D02*
X154806676Y-51535854D01*
X154844771Y-51916807D01*
X154806676Y-51878711D01*
X154730485Y-51840616D01*
X154540009Y-51840616D01*
X154463819Y-51878711D01*
X154425723Y-51916807D01*
X154387628Y-51992997D01*
X154387628Y-52183473D01*
X154425723Y-52259664D01*
X154463819Y-52297759D01*
X154540009Y-52335854D01*
X154730485Y-52335854D01*
X154806676Y-52297759D01*
X154844771Y-52259664D01*
D12*
%TO.C,J2*%
X153314400Y-64513371D02*
X153314400Y-64948800D01*
X153343428Y-65035885D01*
X153401485Y-65093942D01*
X153488571Y-65122971D01*
X153546628Y-65122971D01*
X153053142Y-64571428D02*
X153024114Y-64542400D01*
X152966057Y-64513371D01*
X152820914Y-64513371D01*
X152762857Y-64542400D01*
X152733828Y-64571428D01*
X152704800Y-64629485D01*
X152704800Y-64687542D01*
X152733828Y-64774628D01*
X153082171Y-65122971D01*
X152704800Y-65122971D01*
X154257828Y-65513371D02*
X154199771Y-65513371D01*
X154141714Y-65542400D01*
X154112685Y-65571428D01*
X154083657Y-65629485D01*
X154054628Y-65745600D01*
X154054628Y-65890742D01*
X154083657Y-66006857D01*
X154112685Y-66064914D01*
X154141714Y-66093942D01*
X154199771Y-66122971D01*
X154257828Y-66122971D01*
X154315885Y-66093942D01*
X154344914Y-66064914D01*
X154373942Y-66006857D01*
X154402971Y-65890742D01*
X154402971Y-65745600D01*
X154373942Y-65629485D01*
X154344914Y-65571428D01*
X154315885Y-65542400D01*
X154257828Y-65513371D01*
X153822400Y-65571428D02*
X153793371Y-65542400D01*
X153735314Y-65513371D01*
X153590171Y-65513371D01*
X153532114Y-65542400D01*
X153503085Y-65571428D01*
X153474057Y-65629485D01*
X153474057Y-65687542D01*
X153503085Y-65774628D01*
X153851428Y-66122971D01*
X153474057Y-66122971D01*
X153270857Y-66122971D02*
X152951542Y-65716571D01*
X153270857Y-65716571D02*
X152951542Y-66122971D01*
X152603200Y-65513371D02*
X152545142Y-65513371D01*
X152487085Y-65542400D01*
X152458057Y-65571428D01*
X152429028Y-65629485D01*
X152400000Y-65745600D01*
X152400000Y-65890742D01*
X152429028Y-66006857D01*
X152458057Y-66064914D01*
X152487085Y-66093942D01*
X152545142Y-66122971D01*
X152603200Y-66122971D01*
X152661257Y-66093942D01*
X152690285Y-66064914D01*
X152719314Y-66006857D01*
X152748342Y-65890742D01*
X152748342Y-65745600D01*
X152719314Y-65629485D01*
X152690285Y-65571428D01*
X152661257Y-65542400D01*
X152603200Y-65513371D01*
X151848457Y-65513371D02*
X152138742Y-65513371D01*
X152167771Y-65803657D01*
X152138742Y-65774628D01*
X152080685Y-65745600D01*
X151935542Y-65745600D01*
X151877485Y-65774628D01*
X151848457Y-65803657D01*
X151819428Y-65861714D01*
X151819428Y-66006857D01*
X151848457Y-66064914D01*
X151877485Y-66093942D01*
X151935542Y-66122971D01*
X152080685Y-66122971D01*
X152138742Y-66093942D01*
X152167771Y-66064914D01*
D11*
%TO.C,D-0-0*%
X35055870Y-63543537D02*
X32930834Y-64112939D01*
D13*
X32210158Y-61589479D02*
X34418264Y-60997819D01*
X35207144Y-63941961D02*
X32999038Y-64533621D01*
X34418264Y-60997819D02*
X35207144Y-63941961D01*
D11*
X35107634Y-63736723D02*
X35011042Y-63762605D01*
X35011042Y-63762605D02*
X35107634Y-63736723D01*
X32982597Y-64306125D02*
X35011042Y-63762605D01*
D13*
X32999038Y-64533621D02*
X32210158Y-61589479D01*
D11*
X32879070Y-63919754D02*
X35004107Y-63350352D01*
%TO.C,D-0-1*%
X55909010Y-58937690D02*
X53757085Y-59395095D01*
D13*
X53803180Y-59818770D02*
X53169465Y-56837376D01*
X56039225Y-59343484D02*
X53803180Y-59818770D01*
D11*
X53715503Y-59199466D02*
X55867428Y-58742060D01*
D13*
X55405510Y-56362090D02*
X56039225Y-59343484D01*
X53169465Y-56837376D02*
X55405510Y-56362090D01*
D11*
X55950593Y-59133319D02*
X55852778Y-59154110D01*
X55852778Y-59154110D02*
X55950593Y-59133319D01*
X53798668Y-59590725D02*
X55852778Y-59154110D01*
%TO.C,D-0-2*%
X73793875Y-40065731D02*
X71620961Y-40409887D01*
D13*
X73902674Y-40477784D02*
X71644818Y-40835394D01*
D11*
X73825162Y-40263269D02*
X73726393Y-40278912D01*
X71652248Y-40607425D02*
X73726393Y-40278912D01*
D13*
X73425862Y-37467310D02*
X73902674Y-40477784D01*
D11*
X73726393Y-40278912D02*
X73825162Y-40263269D01*
D13*
X71644818Y-40835394D02*
X71168006Y-37824920D01*
D11*
X71589674Y-40212349D02*
X73762588Y-39868194D01*
D13*
X71168006Y-37824920D02*
X73425862Y-37467310D01*
%TO.C,D-0-3*%
X94810230Y-32759983D02*
X95128833Y-35791285D01*
X95128833Y-35791285D02*
X92855356Y-36030237D01*
D11*
X95062654Y-35573007D02*
X94963202Y-35583460D01*
X95041748Y-35374103D02*
X92853800Y-35604065D01*
X92832895Y-35405161D02*
X95020843Y-35175198D01*
D13*
X92536753Y-32998935D02*
X94810230Y-32759983D01*
X92855356Y-36030237D02*
X92536753Y-32998935D01*
D11*
X92874706Y-35802970D02*
X94963202Y-35583460D01*
X94963202Y-35583460D02*
X95062654Y-35573007D01*
D13*
%TO.C,D-0-4*%
X114622312Y-34064734D02*
X116905180Y-33945094D01*
X114781832Y-37108556D02*
X114622312Y-34064734D01*
X116905180Y-33945094D02*
X117064700Y-36988916D01*
D11*
X117010035Y-36767474D02*
X116910172Y-36772707D01*
X116999568Y-36567748D02*
X114802583Y-36682887D01*
X114813050Y-36882613D02*
X116910172Y-36772707D01*
D13*
X117064700Y-36988916D02*
X114781832Y-37108556D01*
D11*
X116910172Y-36772707D02*
X117010035Y-36767474D01*
X114792116Y-36483161D02*
X116989101Y-36368022D01*
D13*
%TO.C,D-0-5*%
X136428593Y-36839342D02*
X136428593Y-33791342D01*
X138714593Y-33791342D02*
X138714593Y-36839342D01*
D11*
X138671593Y-36615342D02*
X138571593Y-36615342D01*
D13*
X138714593Y-36839342D02*
X136428593Y-36839342D01*
D11*
X136471593Y-36615342D02*
X138571593Y-36615342D01*
D13*
X136428593Y-33791342D02*
X138714593Y-33791342D01*
D11*
X136471593Y-36215342D02*
X138671593Y-36215342D01*
X138671593Y-36415342D02*
X136471593Y-36415342D01*
X138571593Y-36615342D02*
X138671593Y-36615342D01*
%TO.C,D-1-0*%
X40016489Y-82051548D02*
X40113081Y-82025666D01*
D13*
X37215605Y-79878422D02*
X39423711Y-79286762D01*
X40212591Y-82230904D02*
X38004485Y-82822564D01*
X39423711Y-79286762D02*
X40212591Y-82230904D01*
D11*
X37988044Y-82595068D02*
X40016489Y-82051548D01*
X37884517Y-82208697D02*
X40009554Y-81639295D01*
X40113081Y-82025666D02*
X40016489Y-82051548D01*
X40061317Y-81832480D02*
X37936281Y-82401882D01*
D13*
X38004485Y-82822564D02*
X37215605Y-79878422D01*
D11*
%TO.C,D-1-1*%
X59809482Y-77580506D02*
X57657557Y-78037911D01*
D13*
X57703652Y-78461586D02*
X57069937Y-75480192D01*
D11*
X59851065Y-77776135D02*
X59753250Y-77796926D01*
D13*
X59305982Y-75004906D02*
X59939697Y-77986300D01*
D11*
X59753250Y-77796926D02*
X59851065Y-77776135D01*
D13*
X59939697Y-77986300D02*
X57703652Y-78461586D01*
D11*
X57699140Y-78233541D02*
X59753250Y-77796926D01*
D13*
X57069937Y-75480192D02*
X59305982Y-75004906D01*
D11*
X57615975Y-77842282D02*
X59767900Y-77384876D01*
D13*
%TO.C,D-1-2*%
X76920519Y-59234539D02*
X74662663Y-59592149D01*
D11*
X76744238Y-59035667D02*
X76843007Y-59020024D01*
X76843007Y-59020024D02*
X76744238Y-59035667D01*
D13*
X76443707Y-56224065D02*
X76920519Y-59234539D01*
X74662663Y-59592149D02*
X74185851Y-56581675D01*
D11*
X74607519Y-58969104D02*
X76780433Y-58624949D01*
X76811720Y-58822486D02*
X74638806Y-59166642D01*
X74670093Y-59364180D02*
X76744238Y-59035667D01*
D13*
X74185851Y-56581675D02*
X76443707Y-56224065D01*
%TO.C,D-1-3*%
X94622213Y-51898698D02*
X96895690Y-51659746D01*
D11*
X97148114Y-54472770D02*
X97048662Y-54483223D01*
D13*
X96895690Y-51659746D02*
X97214293Y-54691048D01*
D11*
X97048662Y-54483223D02*
X97148114Y-54472770D01*
X94918355Y-54304924D02*
X97106303Y-54074961D01*
X97127208Y-54273866D02*
X94939260Y-54503828D01*
X94960166Y-54702733D02*
X97048662Y-54483223D01*
D13*
X94940816Y-54930000D02*
X94622213Y-51898698D01*
X97214293Y-54691048D02*
X94940816Y-54930000D01*
%TO.C,D-1-4*%
X117954921Y-55916665D02*
X115672053Y-56036305D01*
D11*
X115703271Y-55810362D02*
X117800393Y-55700456D01*
X117800393Y-55700456D02*
X117900256Y-55695223D01*
D13*
X115512533Y-52992483D02*
X117795401Y-52872843D01*
D11*
X117889789Y-55495497D02*
X115692804Y-55610636D01*
D13*
X117795401Y-52872843D02*
X117954921Y-55916665D01*
X115672053Y-56036305D02*
X115512533Y-52992483D01*
D11*
X117900256Y-55695223D02*
X117800393Y-55700456D01*
X115682337Y-55410910D02*
X117879322Y-55295771D01*
%TO.C,D-1-5*%
X138722393Y-55566942D02*
X136522393Y-55566942D01*
X138622393Y-55766942D02*
X138722393Y-55766942D01*
D13*
X138765393Y-55990942D02*
X136479393Y-55990942D01*
D11*
X138722393Y-55766942D02*
X138622393Y-55766942D01*
D13*
X136479393Y-55990942D02*
X136479393Y-52942942D01*
X138765393Y-52942942D02*
X138765393Y-55990942D01*
D11*
X136522393Y-55766942D02*
X138622393Y-55766942D01*
D13*
X136479393Y-52942942D02*
X138765393Y-52942942D01*
D11*
X136522393Y-55366942D02*
X138722393Y-55366942D01*
%TO.C,D-2-0*%
X44940081Y-100295788D02*
X42815045Y-100865190D01*
X44991845Y-100488974D02*
X44895253Y-100514856D01*
D13*
X42883249Y-101285872D02*
X42094369Y-98341730D01*
X45091355Y-100694212D02*
X42883249Y-101285872D01*
X42094369Y-98341730D02*
X44302475Y-97750070D01*
D11*
X42866808Y-101058376D02*
X44895253Y-100514856D01*
X44895253Y-100514856D02*
X44991845Y-100488974D01*
X42763281Y-100672005D02*
X44888318Y-100102603D01*
D13*
X44302475Y-97750070D02*
X45091355Y-100694212D01*
D11*
%TO.C,D-2-1*%
X63857890Y-96458853D02*
X63760075Y-96479644D01*
X61622800Y-96525000D02*
X63774725Y-96067594D01*
D13*
X63312807Y-93687624D02*
X63946522Y-96669018D01*
D11*
X63816307Y-96263224D02*
X61664382Y-96720629D01*
D13*
X63946522Y-96669018D02*
X61710477Y-97144304D01*
X61710477Y-97144304D02*
X61076762Y-94162910D01*
X61076762Y-94162910D02*
X63312807Y-93687624D01*
D11*
X61705965Y-96916259D02*
X63760075Y-96479644D01*
X63760075Y-96479644D02*
X63857890Y-96458853D01*
D13*
%TO.C,D-2-2*%
X79846001Y-78101357D02*
X77588145Y-78458967D01*
X79369189Y-75090883D02*
X79846001Y-78101357D01*
X77588145Y-78458967D02*
X77111333Y-75448493D01*
D11*
X79669720Y-77902485D02*
X79768489Y-77886842D01*
X77595575Y-78230998D02*
X79669720Y-77902485D01*
X79768489Y-77886842D02*
X79669720Y-77902485D01*
X79737202Y-77689304D02*
X77564288Y-78033460D01*
D13*
X77111333Y-75448493D02*
X79369189Y-75090883D01*
D11*
X77533001Y-77835922D02*
X79705915Y-77491767D01*
D13*
%TO.C,D-2-3*%
X98883344Y-70617274D02*
X99201947Y-73648576D01*
D11*
X96906009Y-73262452D02*
X99093957Y-73032489D01*
D13*
X99201947Y-73648576D02*
X96928470Y-73887528D01*
D11*
X99135768Y-73430298D02*
X99036316Y-73440751D01*
X99114862Y-73231394D02*
X96926914Y-73461356D01*
D13*
X96928470Y-73887528D02*
X96609867Y-70856226D01*
D11*
X99036316Y-73440751D02*
X99135768Y-73430298D01*
D13*
X96609867Y-70856226D02*
X98883344Y-70617274D01*
D11*
X96947820Y-73660261D02*
X99036316Y-73440751D01*
D13*
%TO.C,D-2-4*%
X116613653Y-72061788D02*
X118896521Y-71942148D01*
X118896521Y-71942148D02*
X119056041Y-74985970D01*
X119056041Y-74985970D02*
X116773173Y-75105610D01*
D11*
X116804391Y-74879667D02*
X118901513Y-74769761D01*
X116783457Y-74480215D02*
X118980442Y-74365076D01*
X118990909Y-74564802D02*
X116793924Y-74679941D01*
D13*
X116773173Y-75105610D02*
X116613653Y-72061788D01*
D11*
X118901513Y-74769761D02*
X119001376Y-74764528D01*
X119001376Y-74764528D02*
X118901513Y-74769761D01*
D13*
%TO.C,D-2-5*%
X138866993Y-71942142D02*
X138866993Y-74990142D01*
X136580993Y-74990142D02*
X136580993Y-71942142D01*
D11*
X136623993Y-74766142D02*
X138723993Y-74766142D01*
D13*
X138866993Y-74990142D02*
X136580993Y-74990142D01*
D11*
X136623993Y-74366142D02*
X138823993Y-74366142D01*
X138723993Y-74766142D02*
X138823993Y-74766142D01*
X138823993Y-74766142D02*
X138723993Y-74766142D01*
D13*
X136580993Y-71942142D02*
X138866993Y-71942142D01*
D11*
X138823993Y-74566142D02*
X136623993Y-74566142D01*
D13*
%TO.C,D-3-3*%
X116060876Y-92629580D02*
X118345484Y-92709361D01*
X118345484Y-92709361D02*
X118239110Y-95755504D01*
D11*
X116019254Y-95053604D02*
X118217913Y-95130383D01*
X118104014Y-95526650D02*
X118203954Y-95530140D01*
X118203954Y-95530140D02*
X118104014Y-95526650D01*
D13*
X115954502Y-95675723D02*
X116060876Y-92629580D01*
X118239110Y-95755504D02*
X115954502Y-95675723D01*
D11*
X118210933Y-95330261D02*
X116012274Y-95253482D01*
X116005294Y-95453361D02*
X118104014Y-95526650D01*
D13*
%TO.C,D-3-4*%
X135578156Y-94487815D02*
X137851633Y-94726767D01*
D11*
X137513680Y-97530802D02*
X137414228Y-97520349D01*
X135325732Y-97300839D02*
X137414228Y-97520349D01*
X135367543Y-96903030D02*
X137555491Y-97132993D01*
D13*
X137533030Y-97758069D02*
X135259553Y-97519117D01*
X137851633Y-94726767D02*
X137533030Y-97758069D01*
D11*
X137414228Y-97520349D02*
X137513680Y-97530802D01*
X137534586Y-97331897D02*
X135346638Y-97101935D01*
D13*
X135259553Y-97519117D02*
X135578156Y-94487815D01*
D11*
%TO.C,D-3-5*%
X154348562Y-100521261D02*
X156416658Y-100885922D01*
D13*
X154796598Y-97732697D02*
X157047868Y-98129657D01*
X157047868Y-98129657D02*
X156518588Y-101131351D01*
D11*
X154418021Y-100127338D02*
X156584598Y-100509364D01*
X156416658Y-100885922D02*
X156515139Y-100903287D01*
D13*
X154267318Y-100734391D02*
X154796598Y-97732697D01*
D11*
X156515139Y-100903287D02*
X156416658Y-100885922D01*
D13*
X156518588Y-101131351D02*
X154267318Y-100734391D01*
D11*
X156549869Y-100706326D02*
X154383291Y-100324300D01*
%TO.C,K-0-0*%
X28278030Y-56580109D02*
X23412010Y-57931578D01*
X18255171Y-61288656D02*
X21742163Y-60354319D01*
X28266124Y-56535676D02*
X27254659Y-52760838D01*
X17231800Y-57469385D02*
X18252841Y-61279962D01*
X27254659Y-52760838D02*
X18923549Y-54993153D01*
X18923549Y-54993152D02*
G75*
G03*
X17224308Y-57398923I353265J-2052506D01*
G01*
X23437193Y-57928971D02*
G75*
G03*
X21740781Y-60329843I352230J-2048642D01*
G01*
%TO.C,K-0-1*%
X49413475Y-51560538D02*
X48600956Y-47737938D01*
X48600956Y-47737938D02*
X40164433Y-49531176D01*
X38345407Y-51915475D02*
X39165619Y-55774268D01*
X49423039Y-51605533D02*
X44492958Y-52700482D01*
X39167490Y-55783071D02*
X42698603Y-55032510D01*
X44518243Y-52699197D02*
G75*
G03*
X42698503Y-55007995I244529J-2064269D01*
G01*
X40164433Y-49531176D02*
G75*
G03*
X38341613Y-51844718I245361J-2068181D01*
G01*
%TO.C,K-0-2*%
X67149330Y-28440163D02*
X58630518Y-29789410D01*
X56689200Y-32075242D02*
X57306334Y-35971672D01*
X67760676Y-32300049D02*
X67149330Y-28440163D01*
X67767872Y-32345483D02*
X62787242Y-33180911D01*
X57307742Y-35980561D02*
X60873297Y-35415833D01*
X62812560Y-33180951D02*
G75*
G03*
X60874481Y-35391346I136158J-2074237D01*
G01*
X58630518Y-29789411D02*
G75*
G03*
X56689114Y-32004383I136784J-2078188D01*
G01*
%TO.C,K-0-3*%
X78821535Y-30388274D02*
X82411759Y-30010926D01*
X78408229Y-26455934D02*
X78820594Y-30379323D01*
X89452767Y-27259870D02*
X89044269Y-23373278D01*
X89044269Y-23373278D02*
X80466518Y-24274836D01*
X89457575Y-27305618D02*
X84440048Y-27879235D01*
X80466518Y-24274836D02*
G75*
G03*
X78411852Y-26385168I27833J-2082499D01*
G01*
X84465329Y-27880599D02*
G75*
G03*
X82414223Y-29986535I27415J-2078521D01*
G01*
%TO.C,K-0-4*%
X111566921Y-24308469D02*
X102953741Y-24759867D01*
X100991060Y-30778834D02*
X104596112Y-30589901D01*
X111771450Y-28211113D02*
X111566921Y-24308469D01*
X100784123Y-26830253D02*
X100990589Y-30769847D01*
X111773857Y-28257050D02*
X106733186Y-28567284D01*
X106758361Y-28569971D02*
G75*
G03*
X104599850Y-30565673I-81405J-2077106D01*
G01*
X102953741Y-24759867D02*
G75*
G03*
X100791445Y-26759773I-81195J-2081101D01*
G01*
%TO.C,K-0-5*%
X134034704Y-27964881D02*
X128984704Y-28010881D01*
X123134704Y-25964881D02*
X123134704Y-29909881D01*
X123134704Y-29918881D02*
X126744704Y-29918881D01*
X134034704Y-24010881D02*
X125409704Y-24010881D01*
X134034704Y-27918881D02*
X134034704Y-24010881D01*
X129009704Y-28014881D02*
G75*
G03*
X126749704Y-29894881I-190000J-2070000D01*
G01*
X125409704Y-24010881D02*
G75*
G03*
X123145704Y-25894881I-190000J-2074000D01*
G01*
%TO.C,K-1-0*%
X32175455Y-71050792D02*
X23844345Y-73283107D01*
X22152596Y-75759339D02*
X23173637Y-79569916D01*
X23175967Y-79578610D02*
X26662959Y-78644273D01*
X33198826Y-74870063D02*
X28332806Y-76221532D01*
X33186920Y-74825630D02*
X32175455Y-71050792D01*
X28357989Y-76218925D02*
G75*
G03*
X26661577Y-78619797I352230J-2048642D01*
G01*
X23844345Y-73283106D02*
G75*
G03*
X22145104Y-75688877I353265J-2052506D01*
G01*
%TO.C,K-1-1*%
X53374189Y-70194250D02*
X52561670Y-66371650D01*
X43128204Y-74416783D02*
X46659317Y-73666222D01*
X42306121Y-70549187D02*
X43126333Y-74407980D01*
X52561670Y-66371650D02*
X44125147Y-68164888D01*
X53383753Y-70239245D02*
X48453672Y-71334194D01*
X48478957Y-71332909D02*
G75*
G03*
X46659217Y-73641707I244529J-2064269D01*
G01*
X44125147Y-68164888D02*
G75*
G03*
X42302327Y-70478430I245361J-2068181D01*
G01*
%TO.C,K-1-2*%
X59669274Y-50890704D02*
X60286408Y-54787134D01*
X70740750Y-51115511D02*
X70129404Y-47255625D01*
X70129404Y-47255625D02*
X61610592Y-48604872D01*
X60287816Y-54796023D02*
X63853371Y-54231295D01*
X70747946Y-51160945D02*
X65767316Y-51996373D01*
X61610592Y-48604873D02*
G75*
G03*
X59669188Y-50819845I136784J-2078188D01*
G01*
X65792634Y-51996413D02*
G75*
G03*
X63854555Y-54206808I136158J-2074237D01*
G01*
%TO.C,K-1-3*%
X91444035Y-46205510D02*
X91035537Y-42318918D01*
X91035537Y-42318918D02*
X82457786Y-43220476D01*
X80812803Y-49333914D02*
X84403027Y-48956566D01*
X91448843Y-46251258D02*
X86431316Y-46824875D01*
X80399497Y-45401574D02*
X80811862Y-49324963D01*
X86456597Y-46826239D02*
G75*
G03*
X84405491Y-48932175I27415J-2078521D01*
G01*
X82457786Y-43220476D02*
G75*
G03*
X80403120Y-45330808I27833J-2082499D01*
G01*
%TO.C,K-1-4*%
X112770856Y-47280942D02*
X107730185Y-47591176D01*
X112563920Y-43332361D02*
X103950740Y-43783759D01*
X101988059Y-49802726D02*
X105593111Y-49613793D01*
X112768449Y-47235005D02*
X112563920Y-43332361D01*
X101781122Y-45854145D02*
X101987588Y-49793739D01*
X107755360Y-47593863D02*
G75*
G03*
X105596849Y-49589565I-81405J-2077106D01*
G01*
X103950740Y-43783759D02*
G75*
G03*
X101788444Y-45783665I-81195J-2081101D01*
G01*
%TO.C,K-1-5*%
X134034704Y-47014881D02*
X128984704Y-47060881D01*
X123134704Y-45014881D02*
X123134704Y-48959881D01*
X123134704Y-48968881D02*
X126744704Y-48968881D01*
X134034704Y-43060881D02*
X125409704Y-43060881D01*
X134034704Y-46968881D02*
X134034704Y-43060881D01*
X125409704Y-43060881D02*
G75*
G03*
X123145704Y-44944881I-190000J-2074000D01*
G01*
X129009704Y-47064881D02*
G75*
G03*
X126749704Y-48944881I-190000J-2070000D01*
G01*
%TO.C,K-2-0*%
X27083100Y-94160225D02*
X28104141Y-97970802D01*
X28106471Y-97979496D02*
X31593463Y-97045159D01*
X38117424Y-93226516D02*
X37105959Y-89451678D01*
X38129330Y-93270949D02*
X33263310Y-94622418D01*
X37105959Y-89451678D02*
X28774849Y-91683993D01*
X28774849Y-91683992D02*
G75*
G03*
X27075608Y-94089763I353265J-2052506D01*
G01*
X33288493Y-94619811D02*
G75*
G03*
X31592081Y-97020683I352230J-2048642D01*
G01*
%TO.C,K-2-1*%
X56522391Y-85005361D02*
X48085868Y-86798599D01*
X57334910Y-88827961D02*
X56522391Y-85005361D01*
X47088925Y-93050494D02*
X50620038Y-92299933D01*
X46266842Y-89182898D02*
X47087054Y-93041691D01*
X57344474Y-88872956D02*
X52414393Y-89967905D01*
X48085868Y-86798599D02*
G75*
G03*
X46263048Y-89112141I245361J-2068181D01*
G01*
X52439678Y-89966620D02*
G75*
G03*
X50619938Y-92275418I244529J-2064269D01*
G01*
%TO.C,K-2-2*%
X73109481Y-66071087D02*
X64590669Y-67420334D01*
X73728023Y-69976407D02*
X68747393Y-70811835D01*
X63267893Y-73611485D02*
X66833448Y-73046757D01*
X62649351Y-69706166D02*
X63266485Y-73602596D01*
X73720827Y-69930973D02*
X73109481Y-66071087D01*
X64590669Y-67420335D02*
G75*
G03*
X62649265Y-69635307I136784J-2078188D01*
G01*
X68772711Y-70811875D02*
G75*
G03*
X66834632Y-73022270I136158J-2074237D01*
G01*
%TO.C,K-2-3*%
X82804069Y-68279557D02*
X86394293Y-67902209D01*
X82390763Y-64347217D02*
X82803128Y-68270606D01*
X93435301Y-65151153D02*
X93026803Y-61264561D01*
X93440109Y-65196901D02*
X88422582Y-65770518D01*
X93026803Y-61264561D02*
X84449052Y-62166119D01*
X84449052Y-62166119D02*
G75*
G03*
X82394386Y-64276451I27833J-2082499D01*
G01*
X88447863Y-65771882D02*
G75*
G03*
X86396757Y-67877818I27415J-2078521D01*
G01*
%TO.C,K-2-4*%
X102985060Y-68826619D02*
X106590112Y-68637686D01*
X113560921Y-62356254D02*
X104947741Y-62807652D01*
X113767857Y-66304835D02*
X108727186Y-66615069D01*
X102778123Y-64878038D02*
X102984589Y-68817632D01*
X113765450Y-66258898D02*
X113560921Y-62356254D01*
X108752361Y-66617756D02*
G75*
G03*
X106593850Y-68613458I-81405J-2077106D01*
G01*
X104947741Y-62807652D02*
G75*
G03*
X102785445Y-64807558I-81195J-2081101D01*
G01*
%TO.C,K-2-5*%
X134034704Y-62110881D02*
X125409704Y-62110881D01*
X123134704Y-68018881D02*
X126744704Y-68018881D01*
X134034704Y-66018881D02*
X134034704Y-62110881D01*
X123134704Y-64064881D02*
X123134704Y-68009881D01*
X134034704Y-66064881D02*
X128984704Y-66110881D01*
X129009704Y-66114881D02*
G75*
G03*
X126749704Y-67994881I-190000J-2070000D01*
G01*
X125409704Y-62110881D02*
G75*
G03*
X123145704Y-63994881I-190000J-2074000D01*
G01*
%TO.C,K-3-3*%
X102850463Y-88126540D02*
X106458264Y-88252527D01*
X102988456Y-84174949D02*
X102850777Y-88117545D01*
X113950009Y-82602543D02*
X105330263Y-82301535D01*
X113812017Y-86554135D02*
X108763487Y-86423864D01*
X113813622Y-86508163D02*
X113950009Y-82602543D01*
X108788333Y-86428735D02*
G75*
G03*
X106464098Y-88228716I-262127J-2062107D01*
G01*
X105330263Y-82301536D02*
G75*
G03*
X103001892Y-84105375I-262266J-2066105D01*
G01*
%TO.C,K-3-4*%
X133665998Y-88273830D02*
X128638854Y-87791709D01*
X134079304Y-84341491D02*
X125501552Y-83439933D01*
X122621461Y-89077766D02*
X126211685Y-89455114D01*
X133670807Y-88228082D02*
X134079304Y-84341491D01*
X123034766Y-85145426D02*
X122622402Y-89068815D01*
X125501552Y-83439933D02*
G75*
G03*
X123053023Y-85076959I-405751J-2042778D01*
G01*
X128663299Y-87798301D02*
G75*
G03*
X126219166Y-89431768I-405333J-2038800D01*
G01*
%TO.C,K-3-5*%
X153359968Y-91406551D02*
X148378701Y-90574929D01*
X142972859Y-87544171D02*
X142287817Y-91429237D01*
X154046572Y-87512621D02*
X145552606Y-86014906D01*
X142286254Y-91438100D02*
X145841410Y-92064970D01*
X153367955Y-91361250D02*
X154046572Y-87512621D01*
X145552606Y-86014906D02*
G75*
G03*
X142995848Y-87477144I-547260J-2009498D01*
G01*
X148402626Y-90583209D02*
G75*
G03*
X145850502Y-92042203I-546565J-2005559D01*
G01*
%TO.C,U1*%
X144623632Y-28643310D02*
X144623632Y-28943310D01*
X144623632Y-28943310D02*
X144723632Y-28943310D01*
X144723632Y-28943310D02*
X144723632Y-28643310D01*
X144723632Y-28643310D02*
X144623632Y-28643310D01*
G36*
X144723632Y-28943310D02*
G01*
X144623632Y-28943310D01*
X144623632Y-28643310D01*
X144723632Y-28643310D01*
X144723632Y-28943310D01*
G37*
X144723632Y-28943310D02*
X144623632Y-28943310D01*
X144623632Y-28643310D01*
X144723632Y-28643310D01*
X144723632Y-28943310D01*
X144823632Y-29043310D02*
X144823632Y-29143310D01*
X144823632Y-29143310D02*
X144923632Y-29143310D01*
X144923632Y-29143310D02*
X144923632Y-29043310D01*
X144923632Y-29043310D02*
X144823632Y-29043310D01*
G36*
X144923632Y-29143310D02*
G01*
X144823632Y-29143310D01*
X144823632Y-29043310D01*
X144923632Y-29043310D01*
X144923632Y-29143310D01*
G37*
X144923632Y-29143310D02*
X144823632Y-29143310D01*
X144823632Y-29043310D01*
X144923632Y-29043310D01*
X144923632Y-29143310D01*
X144623632Y-28643310D02*
X144623632Y-28743310D01*
X144623632Y-28743310D02*
X145123632Y-28743310D01*
X145123632Y-28743310D02*
X145123632Y-28643310D01*
X145123632Y-28643310D02*
X144623632Y-28643310D01*
G36*
X145123632Y-28743310D02*
G01*
X144623632Y-28743310D01*
X144623632Y-28643310D01*
X145123632Y-28643310D01*
X145123632Y-28743310D01*
G37*
X145123632Y-28743310D02*
X144623632Y-28743310D01*
X144623632Y-28643310D01*
X145123632Y-28643310D01*
X145123632Y-28743310D01*
X145023632Y-28643310D02*
X145023632Y-29443310D01*
X145023632Y-29443310D02*
X145123632Y-29443310D01*
X145123632Y-29443310D02*
X145123632Y-28643310D01*
X145123632Y-28643310D02*
X145023632Y-28643310D01*
G36*
X145123632Y-29443310D02*
G01*
X145023632Y-29443310D01*
X145023632Y-28643310D01*
X145123632Y-28643310D01*
X145123632Y-29443310D01*
G37*
X145123632Y-29443310D02*
X145023632Y-29443310D01*
X145023632Y-28643310D01*
X145123632Y-28643310D01*
X145123632Y-29443310D01*
X144623632Y-29243310D02*
X144623632Y-29443310D01*
X144623632Y-29443310D02*
X144723632Y-29443310D01*
X144723632Y-29443310D02*
X144723632Y-29243310D01*
X144723632Y-29243310D02*
X144623632Y-29243310D01*
G36*
X144723632Y-29443310D02*
G01*
X144623632Y-29443310D01*
X144623632Y-29243310D01*
X144723632Y-29243310D01*
X144723632Y-29443310D01*
G37*
X144723632Y-29443310D02*
X144623632Y-29443310D01*
X144623632Y-29243310D01*
X144723632Y-29243310D01*
X144723632Y-29443310D01*
D14*
X158445200Y-53243950D02*
X140665200Y-53243950D01*
X140665200Y-20223950D02*
X158445200Y-20223950D01*
X155905200Y-22763950D02*
X155905200Y-25303950D01*
X158445200Y-20223950D02*
X158445200Y-22763950D01*
X155905200Y-25303950D02*
X158445200Y-25303950D01*
X158445200Y-22763950D02*
X158445200Y-53243950D01*
X140665200Y-53243950D02*
X140665200Y-22763950D01*
X140665200Y-22763950D02*
X140665200Y-20223950D01*
X155905200Y-22763950D02*
X158445200Y-22763950D01*
D13*
%TO.C,J2*%
X157609540Y-70647560D02*
X157609540Y-62748160D01*
X157609540Y-82946240D02*
X157609540Y-75046840D01*
X155922980Y-67132200D02*
X155922980Y-68402200D01*
X156110940Y-70647560D02*
X156110940Y-75046840D01*
X148612860Y-62748160D02*
X148612860Y-82946240D01*
X157609540Y-70647560D02*
X156110940Y-70647560D01*
X148612860Y-82946240D02*
X157609540Y-82946240D01*
X155884880Y-67132200D02*
X155884880Y-68402200D01*
X157609540Y-75046840D02*
X157609540Y-70647560D01*
X157609540Y-62748160D02*
X148711920Y-62748160D01*
X156110940Y-75046840D02*
X157609540Y-75046840D01*
%TO.C,G\u002A\u002A\u002A*%
G36*
X137458424Y-21414943D02*
G01*
X138723533Y-21514403D01*
X139679252Y-21692829D01*
X140199474Y-21894522D01*
X140997451Y-22392729D01*
X141662068Y-23019752D01*
X142064528Y-23668889D01*
X142143080Y-23942472D01*
X142253062Y-24788281D01*
X142259900Y-25777214D01*
X142167373Y-26739337D01*
X141979259Y-27504716D01*
X141869227Y-27798303D01*
X141756542Y-28218186D01*
X141810127Y-28500044D01*
X142036926Y-28799900D01*
X142043269Y-28807222D01*
X142360282Y-29435167D01*
X142549079Y-30434426D01*
X142558629Y-30535461D01*
X142560855Y-30559018D01*
X142535127Y-31562253D01*
X142262893Y-32532878D01*
X141712299Y-33550873D01*
X140851485Y-34696213D01*
X140544006Y-35054830D01*
X140078467Y-35521834D01*
X139569596Y-35899755D01*
X138907104Y-36265405D01*
X137980706Y-36695593D01*
X137347376Y-36972129D01*
X136529792Y-37290494D01*
X135802881Y-37496731D01*
X135003432Y-37633456D01*
X133968239Y-37743285D01*
X133017077Y-37810749D01*
X131823664Y-37816653D01*
X130972807Y-37706189D01*
X130687821Y-37635052D01*
X130223211Y-37524266D01*
X130016502Y-37483050D01*
X130005673Y-37497684D01*
X129986276Y-37601770D01*
X129956625Y-37760889D01*
X129909316Y-38248447D01*
X129882191Y-38487432D01*
X129668565Y-39411655D01*
X129298140Y-40507481D01*
X128820377Y-41652785D01*
X128284734Y-42725440D01*
X127740671Y-43603319D01*
X126733442Y-44808685D01*
X125207281Y-46158254D01*
X123488537Y-47248205D01*
X121673881Y-48008347D01*
X120550606Y-48296207D01*
X118497400Y-48520492D01*
X116448567Y-48383274D01*
X114455995Y-47903867D01*
X112571575Y-47101587D01*
X110847197Y-45995748D01*
X109334748Y-44605664D01*
X108086122Y-42950650D01*
X107946241Y-42713628D01*
X107519304Y-41887998D01*
X107093500Y-40941406D01*
X106716692Y-39991738D01*
X106465027Y-39241248D01*
X107548306Y-39241248D01*
X107744190Y-39874240D01*
X108246861Y-41169479D01*
X109251279Y-42870755D01*
X110553879Y-44371143D01*
X112106943Y-45626930D01*
X113862756Y-46594402D01*
X115773601Y-47229849D01*
X116331498Y-47322506D01*
X117258062Y-47396640D01*
X118292834Y-47418826D01*
X119309470Y-47390196D01*
X120181620Y-47311881D01*
X120782938Y-47185011D01*
X120908622Y-47140138D01*
X121423246Y-46955327D01*
X122042486Y-46732010D01*
X122750766Y-46434954D01*
X124259860Y-45535155D01*
X125666449Y-44347104D01*
X126887562Y-42946951D01*
X127840226Y-41410850D01*
X128046608Y-40956090D01*
X128356572Y-40110034D01*
X128614539Y-39219320D01*
X128795535Y-38387622D01*
X128874586Y-37718613D01*
X128826715Y-37315969D01*
X128824101Y-37311130D01*
X128751107Y-37250648D01*
X128591149Y-37210078D01*
X128313162Y-37191784D01*
X127886078Y-37198130D01*
X127278834Y-37231477D01*
X126460362Y-37294189D01*
X125399597Y-37388630D01*
X124065472Y-37517161D01*
X122426923Y-37682146D01*
X120452883Y-37885948D01*
X118112284Y-38130929D01*
X107548306Y-39241248D01*
X106465027Y-39241248D01*
X106436738Y-39156886D01*
X106301498Y-38554738D01*
X106334826Y-38534359D01*
X106687774Y-38459833D01*
X107409218Y-38350508D01*
X108478296Y-38208903D01*
X109874144Y-38037536D01*
X111575898Y-37838930D01*
X113562697Y-37615600D01*
X115813676Y-37370068D01*
X118307971Y-37104853D01*
X118607888Y-37073326D01*
X121236248Y-36795980D01*
X121771237Y-36738547D01*
X131478910Y-36738547D01*
X131525503Y-36755928D01*
X132038899Y-36831705D01*
X132807242Y-36839373D01*
X133710871Y-36788395D01*
X134630128Y-36688229D01*
X135445351Y-36548337D01*
X136036879Y-36378181D01*
X136457167Y-36204247D01*
X137262088Y-35871484D01*
X138060531Y-35541722D01*
X138608649Y-35289213D01*
X139158807Y-34932222D01*
X139688326Y-34430966D01*
X140314803Y-33688780D01*
X140875200Y-32936496D01*
X141335808Y-32138528D01*
X141550033Y-31452516D01*
X141573610Y-31262885D01*
X141579255Y-30638398D01*
X141500148Y-30053325D01*
X141358939Y-29627745D01*
X141178279Y-29481736D01*
X141174139Y-29483034D01*
X140984967Y-29653370D01*
X140595379Y-30065714D01*
X140059877Y-30660807D01*
X139432967Y-31379383D01*
X138363676Y-32515770D01*
X136573233Y-34035594D01*
X134656150Y-35247827D01*
X132678425Y-36106283D01*
X132612429Y-36128545D01*
X131862272Y-36408771D01*
X131480789Y-36614025D01*
X131478910Y-36738547D01*
X121771237Y-36738547D01*
X123504304Y-36552496D01*
X125446048Y-36336309D01*
X127095465Y-36140847D01*
X128486547Y-35959542D01*
X129653281Y-35785826D01*
X130629656Y-35613131D01*
X131449663Y-35434888D01*
X132147289Y-35244527D01*
X132756522Y-35035482D01*
X133311353Y-34801183D01*
X133845771Y-34535060D01*
X134393762Y-34230547D01*
X134989318Y-33881074D01*
X135612662Y-33464911D01*
X136571616Y-32704822D01*
X137580472Y-31799313D01*
X138543498Y-30840130D01*
X139364961Y-29919021D01*
X139949129Y-29127733D01*
X140421224Y-28370180D01*
X139487276Y-27755943D01*
X139457523Y-27736466D01*
X138205233Y-27072570D01*
X136825370Y-26644008D01*
X135285857Y-26451549D01*
X133554618Y-26495963D01*
X131599573Y-26778019D01*
X129388647Y-27298487D01*
X126889761Y-28058136D01*
X126212001Y-28278434D01*
X124775349Y-28727007D01*
X123184505Y-29205460D01*
X121589284Y-29669070D01*
X120139503Y-30073115D01*
X119389090Y-30281025D01*
X118081901Y-30655774D01*
X116523112Y-31113299D01*
X114787669Y-31631189D01*
X112950520Y-32187033D01*
X111086612Y-32758421D01*
X109270893Y-33322945D01*
X108090243Y-33692098D01*
X105420789Y-34518765D01*
X103074356Y-35231479D01*
X101011258Y-35840678D01*
X99191808Y-36356797D01*
X97576322Y-36790274D01*
X96125112Y-37151545D01*
X94798493Y-37451046D01*
X93556779Y-37699214D01*
X92360285Y-37906486D01*
X91169323Y-38083298D01*
X90269016Y-38203969D01*
X89057421Y-38348580D01*
X88060640Y-38434598D01*
X87167654Y-38467970D01*
X86267443Y-38454649D01*
X85248987Y-38400581D01*
X84360762Y-38325913D01*
X83212188Y-38188248D01*
X82165591Y-38021524D01*
X81369871Y-37846989D01*
X81314306Y-37831958D01*
X80365420Y-37633857D01*
X79260715Y-37482382D01*
X78227974Y-37409267D01*
X77871044Y-37398973D01*
X77160664Y-37359968D01*
X76742896Y-37288852D01*
X76539617Y-37166185D01*
X76472707Y-36972532D01*
X76497017Y-36744841D01*
X76725214Y-36563052D01*
X77259818Y-36430878D01*
X77967249Y-36352650D01*
X78997495Y-36378861D01*
X80248042Y-36551359D01*
X81791895Y-36877336D01*
X83087477Y-37131637D01*
X85639668Y-37380281D01*
X88413150Y-37353915D01*
X91362552Y-37051711D01*
X91688734Y-37001442D01*
X93185001Y-36721628D01*
X95002276Y-36317752D01*
X97097429Y-35801489D01*
X99427334Y-35184518D01*
X101948862Y-34478513D01*
X104618888Y-33695150D01*
X107394284Y-32846106D01*
X110231920Y-31943057D01*
X110343681Y-31906858D01*
X111998044Y-31382361D01*
X113843629Y-30814734D01*
X115737889Y-30246757D01*
X117538275Y-29721213D01*
X119102240Y-29280883D01*
X119129390Y-29273433D01*
X120641160Y-28849185D01*
X122258287Y-28379522D01*
X123857720Y-27901231D01*
X125316408Y-27451098D01*
X126511300Y-27065909D01*
X128555723Y-26432676D01*
X131011546Y-25828136D01*
X133206951Y-25487874D01*
X135164169Y-25411378D01*
X136905436Y-25598137D01*
X138452980Y-26047639D01*
X139829036Y-26759372D01*
X140337153Y-27078951D01*
X140663971Y-27227354D01*
X140853880Y-27186150D01*
X141007898Y-26973707D01*
X141092106Y-26724096D01*
X141141898Y-26038247D01*
X141080922Y-25055057D01*
X141065140Y-24907195D01*
X140967575Y-24162322D01*
X140847872Y-23690423D01*
X140666492Y-23382216D01*
X140383899Y-23128414D01*
X140282055Y-23055345D01*
X139767896Y-22790880D01*
X139101042Y-22609736D01*
X138233101Y-22508290D01*
X137115683Y-22482921D01*
X135700399Y-22530007D01*
X133938855Y-22645923D01*
X131290225Y-22913817D01*
X128302435Y-23350864D01*
X125057892Y-23953650D01*
X121537233Y-24726436D01*
X117721095Y-25673484D01*
X113590112Y-26799057D01*
X109124923Y-28107417D01*
X108756883Y-28216747D01*
X106358916Y-28856467D01*
X103632231Y-29475081D01*
X100637729Y-30062098D01*
X97436314Y-30607028D01*
X94088887Y-31099376D01*
X90656353Y-31528654D01*
X87199612Y-31884370D01*
X81224011Y-32430955D01*
X78769435Y-32037472D01*
X78422411Y-31981461D01*
X76744018Y-31698675D01*
X75061175Y-31393264D01*
X73297266Y-31049936D01*
X71375672Y-30653407D01*
X69219775Y-30188384D01*
X66752959Y-29639579D01*
X65974811Y-29465404D01*
X64221635Y-29083794D01*
X62770452Y-28790486D01*
X61559598Y-28578149D01*
X60527407Y-28439456D01*
X59612213Y-28367074D01*
X58752354Y-28353673D01*
X57886162Y-28391925D01*
X56951973Y-28474495D01*
X56868807Y-28483038D01*
X55875774Y-28569894D01*
X55204890Y-28589498D01*
X54788456Y-28540335D01*
X54558770Y-28420887D01*
X54383089Y-28138731D01*
X54516263Y-27793860D01*
X54639193Y-27657649D01*
X54882404Y-27536310D01*
X55299197Y-27450385D01*
X55965019Y-27385437D01*
X56955316Y-27327024D01*
X57222742Y-27313725D01*
X58014765Y-27281571D01*
X58731892Y-27271691D01*
X59425828Y-27291249D01*
X60148282Y-27347410D01*
X60950965Y-27447339D01*
X61885582Y-27598200D01*
X63003844Y-27807159D01*
X64357458Y-28081379D01*
X65998134Y-28428025D01*
X67977580Y-28854263D01*
X68586884Y-28985340D01*
X70373499Y-29362663D01*
X72177835Y-29734415D01*
X73918259Y-30084324D01*
X75513140Y-30396116D01*
X76880847Y-30653516D01*
X77939746Y-30840252D01*
X81316988Y-31402220D01*
X86796208Y-30916264D01*
X88691882Y-30734285D01*
X92406840Y-30301436D01*
X96105787Y-29774590D01*
X99712106Y-29167153D01*
X103149181Y-28492526D01*
X106340396Y-27764113D01*
X109209138Y-26995317D01*
X109835802Y-26812838D01*
X112089911Y-26169125D01*
X114364109Y-25537852D01*
X116591359Y-24936653D01*
X118704631Y-24383168D01*
X120636887Y-23895032D01*
X122321095Y-23489882D01*
X123690217Y-23185356D01*
X124140384Y-23091133D01*
X125399747Y-22825584D01*
X126632489Y-22563154D01*
X127716921Y-22329831D01*
X128531348Y-22151599D01*
X129363559Y-21983978D01*
X130944963Y-21739247D01*
X132627196Y-21556603D01*
X134328212Y-21439419D01*
X135965969Y-21391073D01*
X137458424Y-21414943D01*
G37*
G36*
X95560044Y-53015564D02*
G01*
X96372406Y-53640800D01*
X97834610Y-54597306D01*
X99285413Y-55288573D01*
X100848144Y-55768097D01*
X102646128Y-56089378D01*
X103050920Y-56144055D01*
X103784102Y-56248266D01*
X104306859Y-56329747D01*
X104526037Y-56374373D01*
X104539149Y-56425715D01*
X104440613Y-56747390D01*
X104238698Y-57199148D01*
X104202509Y-57280116D01*
X103871979Y-57933074D01*
X103496159Y-58615450D01*
X103122188Y-59236426D01*
X102797203Y-59705183D01*
X102111484Y-60484555D01*
X100707910Y-61718693D01*
X99103958Y-62771908D01*
X97423819Y-63555218D01*
X96946806Y-63706397D01*
X95633186Y-63957920D01*
X94144451Y-64065804D01*
X92621384Y-64023914D01*
X91204765Y-63826119D01*
X90951505Y-63770729D01*
X88935452Y-63164200D01*
X87128682Y-62287910D01*
X85456576Y-61098533D01*
X83844515Y-59552746D01*
X83089846Y-58736310D01*
X84492474Y-58736310D01*
X84507628Y-58766062D01*
X84727728Y-59013303D01*
X85153948Y-59433629D01*
X85714843Y-59955765D01*
X87228175Y-61116850D01*
X89117776Y-62112894D01*
X91148557Y-62759329D01*
X92281810Y-62954318D01*
X94314277Y-63028037D01*
X96262438Y-62750405D01*
X98084238Y-62137574D01*
X99737623Y-61205693D01*
X101180537Y-59970915D01*
X102370923Y-58449391D01*
X103085343Y-57320371D01*
X101678658Y-57042749D01*
X100959314Y-56884580D01*
X98600345Y-56116599D01*
X96442810Y-55010564D01*
X94507069Y-53576314D01*
X93399421Y-52604515D01*
X88939138Y-55609932D01*
X88916790Y-55624992D01*
X87740299Y-56422540D01*
X86682331Y-57148649D01*
X85785727Y-57773200D01*
X85093323Y-58266073D01*
X84647959Y-58597149D01*
X84492474Y-58736310D01*
X83089846Y-58736310D01*
X82847020Y-58473610D01*
X87591522Y-55263677D01*
X87765493Y-55145999D01*
X89007357Y-54307246D01*
X90159724Y-53531078D01*
X91174284Y-52849881D01*
X92002724Y-52296037D01*
X92596731Y-51901931D01*
X92907996Y-51699948D01*
X93479968Y-51346151D01*
X95560044Y-53015564D01*
G37*
G36*
X92213835Y-72335861D02*
G01*
X92152539Y-72740594D01*
X92028991Y-73341699D01*
X91963736Y-73652477D01*
X91740218Y-75789489D01*
X91876907Y-77968214D01*
X92357729Y-80112833D01*
X93166616Y-82147525D01*
X94287493Y-83996468D01*
X94367558Y-84098956D01*
X94794593Y-84563721D01*
X95397835Y-85148288D01*
X96110794Y-85796068D01*
X96866981Y-86450469D01*
X97390587Y-86882279D01*
X97599910Y-87054905D01*
X98243091Y-87552782D01*
X98730037Y-87887513D01*
X98994258Y-88002509D01*
X99021969Y-87983440D01*
X99254855Y-87725171D01*
X99691513Y-87191861D01*
X100072448Y-86711347D01*
X102983269Y-86711347D01*
X103109743Y-86748661D01*
X103608397Y-86744697D01*
X104416664Y-86659662D01*
X105484180Y-86501983D01*
X106760578Y-86280085D01*
X108195494Y-86002396D01*
X109738562Y-85677339D01*
X111339415Y-85313345D01*
X112257469Y-85097687D01*
X113522266Y-84804027D01*
X114632162Y-84550372D01*
X115528613Y-84349926D01*
X116153071Y-84215892D01*
X116446992Y-84161472D01*
X116687849Y-84231415D01*
X117155252Y-84569481D01*
X117717863Y-85133958D01*
X118189573Y-85636692D01*
X118573458Y-85994004D01*
X118782112Y-86123823D01*
X118795792Y-86121696D01*
X119003724Y-85894683D01*
X119151211Y-85376378D01*
X119219968Y-84667472D01*
X119191705Y-83868655D01*
X119026355Y-83002662D01*
X118494759Y-81830339D01*
X118263655Y-81499318D01*
X117574683Y-80724553D01*
X116725484Y-79950175D01*
X115843583Y-79286893D01*
X115056500Y-78845416D01*
X114429962Y-78581494D01*
X108663826Y-82611770D01*
X107465009Y-83452527D01*
X106230196Y-84324994D01*
X105141990Y-85100757D01*
X104236791Y-85753546D01*
X103551004Y-86257087D01*
X103121029Y-86585111D01*
X102983269Y-86711347D01*
X100072448Y-86711347D01*
X100305288Y-86417642D01*
X100754958Y-85840434D01*
X102234502Y-85840434D01*
X102286156Y-85809140D01*
X102620068Y-85583385D01*
X103237754Y-85156708D01*
X104110680Y-84549093D01*
X105210315Y-83780524D01*
X106508127Y-82870986D01*
X107975584Y-81840462D01*
X109584153Y-80708937D01*
X111305303Y-79496395D01*
X113110500Y-78222819D01*
X114351006Y-77347016D01*
X115651784Y-78006249D01*
X115762005Y-78061421D01*
X116362461Y-78334726D01*
X116780488Y-78478674D01*
X116931277Y-78462991D01*
X116913963Y-78397320D01*
X116740792Y-78037580D01*
X116447601Y-77549262D01*
X116273345Y-77303688D01*
X115391198Y-76418169D01*
X114239120Y-75655472D01*
X112917649Y-75073222D01*
X111527320Y-74729043D01*
X110624352Y-74595386D01*
X106828267Y-79628758D01*
X106405821Y-80188980D01*
X105473383Y-81426124D01*
X104615079Y-82565712D01*
X103864274Y-83563397D01*
X103254330Y-84374836D01*
X102818608Y-84955680D01*
X102590475Y-85261586D01*
X102508929Y-85373965D01*
X102282603Y-85713877D01*
X102234502Y-85840434D01*
X100754958Y-85840434D01*
X101069526Y-85436646D01*
X101957574Y-84283005D01*
X102942776Y-82990853D01*
X103998479Y-81594320D01*
X104256168Y-81252068D01*
X105327887Y-79829593D01*
X106341189Y-78486103D01*
X107265741Y-77261717D01*
X108071215Y-76196552D01*
X108727275Y-75330727D01*
X109203592Y-74704361D01*
X109469834Y-74357570D01*
X110132414Y-73508466D01*
X111224400Y-73643734D01*
X112629505Y-73912323D01*
X114244790Y-74487793D01*
X115643355Y-75297592D01*
X116783088Y-76310118D01*
X117621877Y-77493767D01*
X117945082Y-78356436D01*
X118117610Y-78816932D01*
X118203529Y-79132026D01*
X118506133Y-79891162D01*
X118866353Y-80498419D01*
X119179472Y-80930610D01*
X119834450Y-82155304D01*
X120220791Y-83426302D01*
X120249594Y-83757466D01*
X120328792Y-84668057D01*
X120148748Y-85805028D01*
X119670954Y-86761669D01*
X119653589Y-86784928D01*
X119404905Y-87184225D01*
X119383161Y-87529207D01*
X119572615Y-88021528D01*
X119776539Y-88639532D01*
X119949268Y-89579711D01*
X120014125Y-90316212D01*
X120039770Y-90607412D01*
X120035250Y-91566335D01*
X119922911Y-92300178D01*
X119770924Y-92682305D01*
X119406181Y-93363134D01*
X118960045Y-94036492D01*
X118599965Y-94497347D01*
X118252944Y-94890743D01*
X118057095Y-95048498D01*
X118049217Y-95047728D01*
X117786225Y-94968117D01*
X117188673Y-94767444D01*
X116293307Y-94458604D01*
X115136876Y-94054486D01*
X113756127Y-93567983D01*
X112187807Y-93011989D01*
X110468664Y-92399394D01*
X108635445Y-91743090D01*
X99469344Y-88454145D01*
X102785976Y-88454145D01*
X102794965Y-88463394D01*
X103054546Y-88577745D01*
X103640999Y-88806242D01*
X104514342Y-89134132D01*
X105634595Y-89546661D01*
X106961778Y-90029079D01*
X108455909Y-90566629D01*
X110077009Y-91144562D01*
X110467069Y-91282985D01*
X112078620Y-91854311D01*
X113565812Y-92380646D01*
X114886559Y-92847155D01*
X115998769Y-93239006D01*
X116860355Y-93541365D01*
X117429229Y-93739398D01*
X117663302Y-93818271D01*
X117787111Y-93802067D01*
X118097097Y-93537276D01*
X118437489Y-93049192D01*
X118742264Y-92440938D01*
X118945401Y-91815641D01*
X118998280Y-91466124D01*
X118985846Y-90424288D01*
X118791797Y-89262251D01*
X118447298Y-88130251D01*
X117983512Y-87178526D01*
X117702596Y-86759303D01*
X117236246Y-86141402D01*
X116841992Y-85702960D01*
X116335564Y-85231961D01*
X109593006Y-86803246D01*
X108277710Y-87111003D01*
X106799835Y-87459978D01*
X105487100Y-87773434D01*
X104384426Y-88040472D01*
X103536733Y-88250199D01*
X102988943Y-88391722D01*
X102785976Y-88454145D01*
X99469344Y-88454145D01*
X99375965Y-88420639D01*
X97361965Y-88392252D01*
X96914796Y-88382280D01*
X95884904Y-88336374D01*
X94934128Y-88266415D01*
X94222906Y-88183094D01*
X94115558Y-88165437D01*
X91777146Y-87577157D01*
X89540248Y-86636012D01*
X87450984Y-85379125D01*
X85555477Y-83843619D01*
X83899848Y-82066617D01*
X82530218Y-80085240D01*
X81492709Y-77936613D01*
X81464107Y-77862006D01*
X81128525Y-76917248D01*
X80866608Y-76069683D01*
X82111268Y-76069683D01*
X82235593Y-76520777D01*
X82539585Y-77277436D01*
X82707650Y-77675544D01*
X83531681Y-79365928D01*
X84458508Y-80803498D01*
X85576108Y-82109903D01*
X86972461Y-83406789D01*
X88168689Y-84339994D01*
X90118045Y-85539368D01*
X92123564Y-86407964D01*
X94121306Y-86914410D01*
X94272945Y-86939165D01*
X94851141Y-87042770D01*
X95239171Y-87126027D01*
X95276450Y-87104484D01*
X95150738Y-86874100D01*
X94814181Y-86446926D01*
X94310172Y-85881109D01*
X94186411Y-85746105D01*
X92929563Y-84108799D01*
X91896072Y-82262483D01*
X91122358Y-80297988D01*
X90644838Y-78306150D01*
X90499933Y-76377800D01*
X90504022Y-76105260D01*
X90506106Y-75383536D01*
X90494461Y-74866698D01*
X90470736Y-74652235D01*
X90432722Y-74650809D01*
X90111761Y-74733776D01*
X89541273Y-74919202D01*
X88811085Y-75178599D01*
X87792926Y-75503845D01*
X86148530Y-75851903D01*
X84548255Y-75993290D01*
X83129281Y-75910336D01*
X83094470Y-75904880D01*
X82512888Y-75826226D01*
X82194426Y-75859663D01*
X82111268Y-76069683D01*
X80866608Y-76069683D01*
X80843152Y-75993779D01*
X80624877Y-75162671D01*
X80490592Y-74494996D01*
X80457186Y-74061827D01*
X80541552Y-73934237D01*
X82284823Y-74433658D01*
X83882167Y-74708268D01*
X85354439Y-74734992D01*
X86796762Y-74515256D01*
X88304261Y-74050485D01*
X88436744Y-74000421D01*
X89376385Y-73618548D01*
X90303968Y-73203449D01*
X91036307Y-72836524D01*
X91558791Y-72552877D01*
X92006469Y-72318511D01*
X92206778Y-72225566D01*
X92213835Y-72335861D01*
G37*
G36*
X125220847Y-39022370D02*
G01*
X125743235Y-39253156D01*
X126077502Y-39706694D01*
X126160958Y-40265996D01*
X125930910Y-40814073D01*
X125746160Y-40988588D01*
X125219180Y-41175622D01*
X124659790Y-41092253D01*
X124201303Y-40775987D01*
X123977028Y-40264333D01*
X124078370Y-39727537D01*
X124448883Y-39251071D01*
X124969009Y-39019071D01*
X125220847Y-39022370D01*
G37*
G36*
X105457510Y-41098020D02*
G01*
X105688194Y-41319345D01*
X105983468Y-41776968D01*
X106397867Y-42532907D01*
X107278705Y-44002622D01*
X108775246Y-45886805D01*
X110515440Y-47463005D01*
X112483682Y-48717813D01*
X114664369Y-49637817D01*
X115554834Y-49929786D01*
X115275573Y-50294077D01*
X114974034Y-50687429D01*
X114565181Y-51169667D01*
X113499689Y-52169974D01*
X112211429Y-53139491D01*
X110813777Y-54004533D01*
X109420111Y-54691417D01*
X108143807Y-55126458D01*
X107329194Y-55289008D01*
X105971020Y-55453312D01*
X104616195Y-55510642D01*
X103451732Y-55448175D01*
X101828073Y-55127760D01*
X99782365Y-54412691D01*
X97812231Y-53395755D01*
X95994982Y-52125123D01*
X94407926Y-50648970D01*
X93128374Y-49015468D01*
X92780998Y-48448864D01*
X92369789Y-47714795D01*
X91987209Y-46975929D01*
X91811423Y-46604711D01*
X93042253Y-46604711D01*
X93064919Y-46901182D01*
X93224283Y-47253737D01*
X93489656Y-47686695D01*
X93830352Y-48224375D01*
X94653040Y-49378348D01*
X96080005Y-50866790D01*
X97760214Y-52165787D01*
X99616233Y-53225872D01*
X101570629Y-53997575D01*
X103545968Y-54431424D01*
X105304084Y-54506913D01*
X107342177Y-54245186D01*
X109321077Y-53630119D01*
X111172915Y-52683671D01*
X112829824Y-51427798D01*
X113297391Y-50987186D01*
X113650390Y-50626312D01*
X113782465Y-50451009D01*
X113656046Y-50357178D01*
X113246308Y-50156950D01*
X112652578Y-49907371D01*
X111556075Y-49394538D01*
X109829786Y-48247396D01*
X108187531Y-46723549D01*
X106640565Y-44834054D01*
X105200143Y-42589958D01*
X105156474Y-42519025D01*
X105070271Y-42434777D01*
X104927516Y-42393592D01*
X104687771Y-42405679D01*
X104310598Y-42481250D01*
X103755562Y-42630517D01*
X102982225Y-42863691D01*
X101950151Y-43190984D01*
X100618902Y-43622606D01*
X98948041Y-44168770D01*
X97495322Y-44641861D01*
X96053395Y-45112501D01*
X94932282Y-45493317D01*
X94101298Y-45808628D01*
X93529756Y-46082752D01*
X93186969Y-46340007D01*
X93042253Y-46604711D01*
X91811423Y-46604711D01*
X91676519Y-46319826D01*
X91480982Y-45834043D01*
X91443859Y-45606140D01*
X91444721Y-45605289D01*
X91656508Y-45520103D01*
X92194644Y-45329012D01*
X93006949Y-45049317D01*
X94041244Y-44698319D01*
X95245351Y-44293320D01*
X96567091Y-43851624D01*
X97954285Y-43390532D01*
X99354754Y-42927345D01*
X100716318Y-42479366D01*
X101986800Y-42063896D01*
X103114021Y-41698238D01*
X104045802Y-41399694D01*
X104729962Y-41185565D01*
X105114326Y-41073154D01*
X105236884Y-41050970D01*
X105457510Y-41098020D01*
G37*
G36*
X86311079Y-63420449D02*
G01*
X86414227Y-63474706D01*
X87431949Y-63939280D01*
X88637863Y-64398495D01*
X89852966Y-64788880D01*
X90898254Y-65046964D01*
X91616740Y-65140579D01*
X92821974Y-65161269D01*
X94333019Y-65054625D01*
X96548894Y-64831184D01*
X96203059Y-65626676D01*
X96102018Y-65852243D01*
X95913496Y-66183765D01*
X95078388Y-67652328D01*
X93756825Y-69314156D01*
X92205523Y-70772489D01*
X90492670Y-71962089D01*
X88686458Y-72817720D01*
X87890703Y-73063383D01*
X86640827Y-73336882D01*
X85319863Y-73527019D01*
X84075985Y-73613801D01*
X83057368Y-73577235D01*
X82665814Y-73512490D01*
X81846307Y-73319645D01*
X81042794Y-73074940D01*
X80489394Y-72852220D01*
X79759088Y-72500857D01*
X79029427Y-72103147D01*
X78391317Y-71711988D01*
X77935667Y-71380276D01*
X77753381Y-71160909D01*
X77755589Y-71152038D01*
X77881380Y-70993459D01*
X79353907Y-70993459D01*
X79428632Y-71103864D01*
X79794671Y-71351903D01*
X80375669Y-71649532D01*
X81070499Y-71950693D01*
X81778032Y-72209333D01*
X82397139Y-72379394D01*
X82486529Y-72396161D01*
X83242711Y-72477939D01*
X84185545Y-72510345D01*
X85132339Y-72486240D01*
X86820564Y-72259457D01*
X88776840Y-71646930D01*
X90615559Y-70658919D01*
X92355082Y-69287294D01*
X92757811Y-68885951D01*
X93292803Y-68292953D01*
X93825179Y-67654011D01*
X94287421Y-67053775D01*
X94612014Y-66576889D01*
X94731438Y-66308005D01*
X94719538Y-66293622D01*
X94451592Y-66244801D01*
X93903386Y-66218025D01*
X93171251Y-66218801D01*
X91397146Y-66147173D01*
X89454915Y-65782620D01*
X87464108Y-65090758D01*
X86695225Y-64773771D01*
X86200041Y-64600820D01*
X85887607Y-64560816D01*
X85665175Y-64641913D01*
X85439998Y-64832268D01*
X84985509Y-65265390D01*
X84319033Y-65915239D01*
X83549763Y-66676111D01*
X82726121Y-67498991D01*
X81896523Y-68334859D01*
X81109391Y-69134701D01*
X80413144Y-69849500D01*
X79856202Y-70430236D01*
X79486983Y-70827895D01*
X79353907Y-70993459D01*
X77881380Y-70993459D01*
X77925098Y-70938345D01*
X78338627Y-70486597D01*
X78960270Y-69834100D01*
X79754118Y-69018165D01*
X80684261Y-68076095D01*
X81714790Y-67045200D01*
X85692955Y-63088928D01*
X86311079Y-63420449D01*
G37*
%TD*%
D15*
%TO.C,U1*%
X141935200Y-24033950D03*
X141935200Y-26573950D03*
X141935200Y-29113950D03*
X141935200Y-31653950D03*
X141935200Y-34193950D03*
X141935200Y-36733950D03*
X141935200Y-39273950D03*
X141935200Y-41813950D03*
X141935200Y-44353950D03*
X141935200Y-46893950D03*
X141935200Y-49433950D03*
X141935200Y-51973950D03*
X157175200Y-51973950D03*
X157175200Y-49433950D03*
X157175200Y-46893950D03*
X157175200Y-44353950D03*
X157175200Y-41813950D03*
X157175200Y-39273950D03*
X157175200Y-36733950D03*
X157175200Y-34193950D03*
X157175200Y-31653950D03*
X157175200Y-29113950D03*
X157175200Y-26573950D03*
D16*
X157175200Y-24033950D03*
%TD*%
M02*
