%TF.GenerationSoftware,KiCad,Pcbnew,(6.0.0)*%
%TF.CreationDate,2022-02-07T08:26:48+07:00*%
%TF.ProjectId,kibod-01-mirrored-rev2,6b69626f-642d-4303-912d-6d6972726f72,rev?*%
%TF.SameCoordinates,Original*%
%TF.FileFunction,Legend,Bot*%
%TF.FilePolarity,Positive*%
%FSLAX46Y46*%
G04 Gerber Fmt 4.6, Leading zero omitted, Abs format (unit mm)*
G04 Created by KiCad (PCBNEW (6.0.0)) date 2022-02-07 08:26:48*
%MOMM*%
%LPD*%
G01*
G04 APERTURE LIST*
%ADD10C,0.750000*%
%ADD11C,0.150000*%
%ADD12C,0.381000*%
%ADD13C,0.203200*%
%ADD14R,1.752600X1.752600*%
%ADD15C,1.752600*%
G04 APERTURE END LIST*
D10*
X93368018Y-94294332D02*
X92954987Y-94602085D01*
X92241680Y-94639468D01*
X91941404Y-94369098D01*
X91783790Y-94091252D01*
X91611222Y-93528083D01*
X91581316Y-92957437D01*
X91694071Y-92379315D01*
X91821779Y-92086516D01*
X92092149Y-91786240D01*
X92647841Y-91471011D01*
X92918211Y-91170735D01*
X93045919Y-90877936D01*
X93158674Y-90299814D01*
X93128768Y-89729169D01*
X92956200Y-89166000D01*
X92798586Y-88888154D01*
X92498310Y-88617784D01*
X91785003Y-88655167D01*
X91371972Y-88962919D01*
X90387083Y-94736663D02*
X90073067Y-88744886D01*
X89103130Y-94803952D02*
X88938646Y-91665402D01*
X89051401Y-91087280D01*
X89321771Y-90787004D01*
X89749755Y-90764574D01*
X90050031Y-91034944D01*
X90207645Y-91312790D01*
X87676517Y-94878718D02*
X87467173Y-90884199D01*
X87526985Y-92025490D02*
X87354418Y-91462321D01*
X87196803Y-91184475D01*
X86896527Y-90914106D01*
X86611205Y-90929059D01*
X85821919Y-94975913D02*
X85612575Y-90981395D01*
X85507903Y-88984136D02*
X85665518Y-89261982D01*
X85537809Y-89554781D01*
X85380195Y-89276935D01*
X85507903Y-88984136D01*
X85537809Y-89554781D01*
X84395305Y-95050679D02*
X84185962Y-91056160D01*
X84215868Y-91626806D02*
X84058253Y-91348960D01*
X83757977Y-91078590D01*
X83329993Y-91101020D01*
X83059624Y-91401296D01*
X82946869Y-91979418D01*
X83111353Y-95117968D01*
X82946869Y-91979418D02*
X82774301Y-91416249D01*
X82474025Y-91145879D01*
X82046041Y-91168309D01*
X81775672Y-91468585D01*
X81662916Y-92046707D01*
X81827401Y-95185257D01*
X80191443Y-91265504D02*
X80505459Y-97257282D01*
X80206397Y-91550827D02*
X79906121Y-91280457D01*
X79335475Y-91310364D01*
X79065106Y-91610640D01*
X78937397Y-91903439D01*
X78824642Y-92481561D01*
X78914361Y-94193497D01*
X79086929Y-94756666D01*
X79244543Y-95034512D01*
X79544819Y-95304882D01*
X80115464Y-95274976D01*
X80385834Y-94974700D01*
X73914343Y-91594473D02*
X74123687Y-95588991D01*
X74508025Y-89274509D02*
X75445629Y-93516967D01*
X73591031Y-93614162D01*
X72412964Y-90242625D02*
X72255350Y-89964779D01*
X71955074Y-89694409D01*
X71241767Y-89731792D01*
X70971397Y-90032068D01*
X70843689Y-90324867D01*
X70730934Y-90902989D01*
X70760840Y-91473635D01*
X70948361Y-92322126D01*
X72839735Y-95656280D01*
X70985137Y-95753476D01*
D11*
X97636309Y-97547888D02*
X97664561Y-98356918D01*
X97715475Y-98450437D01*
X97764726Y-98496365D01*
X97861568Y-98540631D01*
X98004339Y-98535645D01*
X98097857Y-98484732D01*
X97657913Y-98166558D02*
X97754755Y-98210825D01*
X97945115Y-98204177D01*
X98038634Y-98153263D01*
X98084562Y-98104011D01*
X98128828Y-98007169D01*
X98118857Y-97721629D01*
X98067943Y-97628111D01*
X98018691Y-97582183D01*
X97921849Y-97537916D01*
X97731489Y-97544564D01*
X97637971Y-97595478D01*
X97183675Y-98230767D02*
X97160408Y-97564507D01*
X97148775Y-97231376D02*
X97198027Y-97277304D01*
X97152099Y-97326556D01*
X97102847Y-97280628D01*
X97148775Y-97231376D01*
X97152099Y-97326556D01*
X96827278Y-97576140D02*
X96446558Y-97589435D01*
X96672875Y-97247995D02*
X96702789Y-98104616D01*
X96658522Y-98201458D01*
X96565004Y-98252372D01*
X96469824Y-98255695D01*
X96136694Y-98267329D02*
X96101794Y-97267938D01*
X95708383Y-98282285D02*
X95690103Y-97758795D01*
X95734369Y-97661953D01*
X95827887Y-97611039D01*
X95970657Y-97606054D01*
X96067499Y-97650320D01*
X96116751Y-97696248D01*
X94780906Y-97647601D02*
X94804173Y-98313861D01*
X95209217Y-97632644D02*
X95227497Y-98156134D01*
X95183231Y-98252976D01*
X95089713Y-98303890D01*
X94946943Y-98308876D01*
X94850101Y-98264609D01*
X94800849Y-98218681D01*
X94328272Y-98330480D02*
X94293373Y-97331089D01*
X94306668Y-97711809D02*
X94209826Y-97667543D01*
X94019466Y-97674191D01*
X93925948Y-97725105D01*
X93880019Y-97774356D01*
X93835753Y-97871198D01*
X93845724Y-98156739D01*
X93896638Y-98250257D01*
X93945890Y-98296185D01*
X94042732Y-98340451D01*
X94233092Y-98333804D01*
X94326610Y-98282890D01*
X93420738Y-98266876D02*
X93374810Y-98316128D01*
X93424062Y-98362056D01*
X93469990Y-98312804D01*
X93420738Y-98266876D01*
X93424062Y-98362056D01*
X92518189Y-98346041D02*
X92615031Y-98390308D01*
X92805391Y-98383660D01*
X92898909Y-98332746D01*
X92944837Y-98283494D01*
X92989104Y-98186652D01*
X92979132Y-97901112D01*
X92928219Y-97807594D01*
X92878967Y-97761666D01*
X92782125Y-97717400D01*
X92591765Y-97724047D01*
X92498246Y-97774961D01*
X91948770Y-98413574D02*
X92042289Y-98362660D01*
X92088217Y-98313408D01*
X92132483Y-98216566D01*
X92122512Y-97931026D01*
X92071598Y-97837508D01*
X92022346Y-97791580D01*
X91925504Y-97747313D01*
X91782734Y-97752299D01*
X91689216Y-97803213D01*
X91643288Y-97852465D01*
X91599021Y-97949307D01*
X91608993Y-98234847D01*
X91659906Y-98328365D01*
X91709158Y-98374293D01*
X91806000Y-98418560D01*
X91948770Y-98413574D01*
X91187330Y-98440164D02*
X91164063Y-97773904D01*
X91167387Y-97869084D02*
X91118135Y-97823155D01*
X91021293Y-97778889D01*
X90878523Y-97783875D01*
X90785005Y-97834789D01*
X90740739Y-97931631D01*
X90759019Y-98455121D01*
X90740739Y-97931631D02*
X90689825Y-97838112D01*
X90592983Y-97793846D01*
X90450213Y-97798832D01*
X90356695Y-97849746D01*
X90312428Y-97946588D01*
X90330709Y-98470078D01*
X89104397Y-97464644D02*
X90005888Y-98719661D01*
X88251100Y-97589738D02*
X88344618Y-97538824D01*
X88487388Y-97533839D01*
X88631820Y-97576443D01*
X88730324Y-97668299D01*
X88781238Y-97761818D01*
X88835475Y-97950516D01*
X88840461Y-98093286D01*
X88799518Y-98285308D01*
X88755252Y-98382150D01*
X88663396Y-98480654D01*
X88522288Y-98533229D01*
X88427107Y-98536553D01*
X88282675Y-98493949D01*
X88233424Y-98448021D01*
X88221790Y-98114890D01*
X88412151Y-98108243D01*
X87808437Y-98558158D02*
X87785171Y-97891897D01*
X87791818Y-98082257D02*
X87740904Y-97988739D01*
X87691652Y-97942811D01*
X87594810Y-97898545D01*
X87499630Y-97901868D01*
X86807384Y-98545467D02*
X86904226Y-98589733D01*
X87094586Y-98583086D01*
X87188105Y-98532172D01*
X87232371Y-98435330D01*
X87219076Y-98054610D01*
X87168162Y-97961092D01*
X87071320Y-97916825D01*
X86880960Y-97923473D01*
X86787442Y-97974387D01*
X86743175Y-98071229D01*
X86746499Y-98166409D01*
X87225723Y-98244970D01*
X85950763Y-98575381D02*
X86047605Y-98619647D01*
X86237966Y-98613000D01*
X86331484Y-98562086D01*
X86375750Y-98465244D01*
X86362455Y-98084524D01*
X86311541Y-97991005D01*
X86214699Y-97946739D01*
X86024339Y-97953387D01*
X85930821Y-98004300D01*
X85886555Y-98101142D01*
X85889878Y-98196323D01*
X86369103Y-98274884D01*
X85453259Y-97973329D02*
X85476525Y-98639590D01*
X85456582Y-98068509D02*
X85407330Y-98022581D01*
X85310489Y-97978315D01*
X85167718Y-97983301D01*
X85074200Y-98034214D01*
X85029934Y-98131056D01*
X85048215Y-98654547D01*
X84572314Y-98671166D02*
X84537415Y-97671775D01*
X84229213Y-98397258D01*
X83871154Y-97695041D01*
X83906054Y-98694432D01*
X83001843Y-98726008D02*
X82983562Y-98202517D01*
X83027829Y-98105675D01*
X83121347Y-98054761D01*
X83311707Y-98048114D01*
X83408549Y-98092380D01*
X83000181Y-98678418D02*
X83097023Y-98722684D01*
X83334973Y-98714374D01*
X83428491Y-98663461D01*
X83472758Y-98566619D01*
X83469434Y-98471439D01*
X83418520Y-98377920D01*
X83321678Y-98333654D01*
X83083728Y-98341964D01*
X82986886Y-98297697D01*
X82571871Y-98693374D02*
X82478353Y-98744288D01*
X82287992Y-98750936D01*
X82191150Y-98706670D01*
X82140237Y-98613151D01*
X82138575Y-98565561D01*
X82182841Y-98468719D01*
X82276359Y-98417806D01*
X82419129Y-98412820D01*
X82512647Y-98361906D01*
X82556914Y-98265064D01*
X82555252Y-98217474D01*
X82504338Y-98123956D01*
X82407496Y-98079690D01*
X82264726Y-98084675D01*
X82171208Y-98135589D01*
X81716912Y-98770878D02*
X81682012Y-97771488D01*
X81288602Y-98785835D02*
X81270321Y-98262345D01*
X81314587Y-98165503D01*
X81408105Y-98114589D01*
X81550875Y-98109603D01*
X81647717Y-98153870D01*
X81696969Y-98199798D01*
X80430319Y-98768159D02*
X80527161Y-98812425D01*
X80717521Y-98805778D01*
X80811039Y-98754864D01*
X80855306Y-98658022D01*
X80842010Y-98277302D01*
X80791097Y-98183784D01*
X80694255Y-98139517D01*
X80503895Y-98146165D01*
X80410376Y-98197079D01*
X80366110Y-98293921D01*
X80369434Y-98389101D01*
X80848658Y-98467662D01*
X79527770Y-98847325D02*
X79492871Y-97847934D01*
X79526108Y-98799735D02*
X79622950Y-98844001D01*
X79813310Y-98837354D01*
X79906828Y-98786440D01*
X79952757Y-98737188D01*
X79997023Y-98640346D01*
X79987052Y-98354806D01*
X79936138Y-98261288D01*
X79886886Y-98215359D01*
X79790044Y-98171093D01*
X79599684Y-98177741D01*
X79506166Y-98228654D01*
X79051870Y-98863944D02*
X79016970Y-97864553D01*
X78636250Y-97877848D01*
X78542732Y-97928762D01*
X78496804Y-97978014D01*
X78452537Y-98074856D01*
X78457523Y-98217626D01*
X78508437Y-98311144D01*
X78557689Y-98357072D01*
X78654531Y-98401338D01*
X79035251Y-98388043D01*
X77909709Y-98903829D02*
X78003227Y-98852915D01*
X78049155Y-98803663D01*
X78093421Y-98706821D01*
X78083450Y-98421281D01*
X78032536Y-98327763D01*
X77983284Y-98281835D01*
X77886442Y-98237568D01*
X77743672Y-98242554D01*
X77650154Y-98293468D01*
X77604226Y-98342720D01*
X77559960Y-98439562D01*
X77569931Y-98725102D01*
X77620845Y-98818620D01*
X77670097Y-98864548D01*
X77766939Y-98908814D01*
X77909709Y-98903829D01*
X77267772Y-98259173D02*
X76887052Y-98272468D01*
X77113369Y-97931028D02*
X77143282Y-98787649D01*
X77099016Y-98884491D01*
X77005498Y-98935405D01*
X76910318Y-98938728D01*
X76148877Y-98965318D02*
X76130597Y-98441828D01*
X76174863Y-98344986D01*
X76268381Y-98294072D01*
X76458741Y-98287425D01*
X76555583Y-98331691D01*
X76147215Y-98917728D02*
X76244057Y-98961995D01*
X76482008Y-98953685D01*
X76575526Y-98902771D01*
X76619792Y-98805930D01*
X76616468Y-98710749D01*
X76565554Y-98617231D01*
X76468712Y-98572965D01*
X76230762Y-98581274D01*
X76133920Y-98537008D01*
X75792481Y-98310691D02*
X75411760Y-98323986D01*
X75638077Y-97982546D02*
X75667991Y-98839167D01*
X75623725Y-98936009D01*
X75530207Y-98986923D01*
X75435027Y-98990247D01*
X74959126Y-99006865D02*
X75052644Y-98955952D01*
X75098573Y-98906700D01*
X75142839Y-98809858D01*
X75132868Y-98524318D01*
X75081954Y-98430799D01*
X75032702Y-98384871D01*
X74935860Y-98340605D01*
X74793090Y-98345591D01*
X74699572Y-98396504D01*
X74653643Y-98445756D01*
X74609377Y-98542598D01*
X74619348Y-98828138D01*
X74670262Y-98921657D01*
X74719514Y-98967585D01*
X74816356Y-99011851D01*
X74959126Y-99006865D01*
X73447274Y-98011403D02*
X74348765Y-99266420D01*
X73196633Y-99020765D02*
X73055525Y-99073341D01*
X72817575Y-99081650D01*
X72720733Y-99037384D01*
X72671481Y-98991456D01*
X72620567Y-98897937D01*
X72617243Y-98802757D01*
X72661509Y-98705915D01*
X72707438Y-98656663D01*
X72800956Y-98605750D01*
X72989654Y-98551512D01*
X73083172Y-98500598D01*
X73129100Y-98451346D01*
X73173367Y-98354504D01*
X73170043Y-98259324D01*
X73119129Y-98165806D01*
X73069877Y-98119878D01*
X72973035Y-98075612D01*
X72735085Y-98083921D01*
X72593977Y-98136497D01*
X72198904Y-99103255D02*
X72164005Y-98103864D01*
X71770594Y-99118211D02*
X71752313Y-98594721D01*
X71796579Y-98497879D01*
X71890097Y-98446965D01*
X72032868Y-98441980D01*
X72129710Y-98486246D01*
X72178961Y-98532174D01*
X71294693Y-99134830D02*
X71271427Y-98468570D01*
X71278074Y-98658930D02*
X71227161Y-98565412D01*
X71177909Y-98519484D01*
X71081067Y-98475217D01*
X70985887Y-98478541D01*
X70676023Y-99156435D02*
X70652756Y-98490174D01*
X70641123Y-98157044D02*
X70690375Y-98202972D01*
X70644447Y-98252224D01*
X70595195Y-98206296D01*
X70641123Y-98157044D01*
X70644447Y-98252224D01*
X70200122Y-99173054D02*
X70176856Y-98506793D01*
X70180180Y-98601973D02*
X70130928Y-98556045D01*
X70034086Y-98511779D01*
X69891316Y-98516764D01*
X69797798Y-98567678D01*
X69753531Y-98664520D01*
X69771812Y-99188010D01*
X69753531Y-98664520D02*
X69702618Y-98571002D01*
X69605776Y-98526736D01*
X69463005Y-98531721D01*
X69369487Y-98582635D01*
X69325221Y-98679477D01*
X69343502Y-99202967D01*
X68844335Y-98553326D02*
X68879234Y-99552716D01*
X68845997Y-98600916D02*
X68749155Y-98556649D01*
X68558795Y-98563297D01*
X68465276Y-98614211D01*
X68419348Y-98663463D01*
X68375082Y-98760305D01*
X68385053Y-99045845D01*
X68435967Y-99139363D01*
X68485219Y-99185291D01*
X68582061Y-99229557D01*
X68772421Y-99222910D01*
X68865939Y-99171996D01*
X67511814Y-98599858D02*
X67535080Y-99266119D01*
X67736469Y-98210829D02*
X67999347Y-98916370D01*
X67380677Y-98937974D01*
X67027604Y-98378527D02*
X66978352Y-98332599D01*
X66881510Y-98288332D01*
X66643560Y-98296642D01*
X66550042Y-98347556D01*
X66504114Y-98396808D01*
X66459847Y-98493650D01*
X66463171Y-98588830D01*
X66515747Y-98729938D01*
X67106770Y-99281076D01*
X66488099Y-99302680D01*
%TO.C,U1*%
X155340009Y-51916807D02*
X155225723Y-51954902D01*
X155187628Y-51992997D01*
X155149533Y-52069188D01*
X155149533Y-52183473D01*
X155187628Y-52259664D01*
X155225723Y-52297759D01*
X155301914Y-52335854D01*
X155606676Y-52335854D01*
X155606676Y-51535854D01*
X155340009Y-51535854D01*
X155263819Y-51573950D01*
X155225723Y-51612045D01*
X155187628Y-51688235D01*
X155187628Y-51764426D01*
X155225723Y-51840616D01*
X155263819Y-51878711D01*
X155340009Y-51916807D01*
X155606676Y-51916807D01*
X154425723Y-51535854D02*
X154806676Y-51535854D01*
X154844771Y-51916807D01*
X154806676Y-51878711D01*
X154730485Y-51840616D01*
X154540009Y-51840616D01*
X154463819Y-51878711D01*
X154425723Y-51916807D01*
X154387628Y-51992997D01*
X154387628Y-52183473D01*
X154425723Y-52259664D01*
X154463819Y-52297759D01*
X154540009Y-52335854D01*
X154730485Y-52335854D01*
X154806676Y-52297759D01*
X154844771Y-52259664D01*
X144355413Y-29407759D02*
X144241127Y-29445854D01*
X144050651Y-29445854D01*
X143974460Y-29407759D01*
X143936365Y-29369664D01*
X143898270Y-29293473D01*
X143898270Y-29217283D01*
X143936365Y-29141092D01*
X143974460Y-29102997D01*
X144050651Y-29064902D01*
X144203032Y-29026807D01*
X144279222Y-28988711D01*
X144317318Y-28950616D01*
X144355413Y-28874426D01*
X144355413Y-28798235D01*
X144317318Y-28722045D01*
X144279222Y-28683950D01*
X144203032Y-28645854D01*
X144012556Y-28645854D01*
X143898270Y-28683950D01*
X143669699Y-28645854D02*
X143212556Y-28645854D01*
X143441127Y-29445854D02*
X143441127Y-28645854D01*
X144646580Y-24395854D02*
X144913247Y-24014902D01*
X145103723Y-24395854D02*
X145103723Y-23595854D01*
X144798961Y-23595854D01*
X144722771Y-23633950D01*
X144684676Y-23672045D01*
X144646580Y-23748235D01*
X144646580Y-23862521D01*
X144684676Y-23938711D01*
X144722771Y-23976807D01*
X144798961Y-24014902D01*
X145103723Y-24014902D01*
X144341819Y-24167283D02*
X143960866Y-24167283D01*
X144418009Y-24395854D02*
X144151342Y-23595854D01*
X143884676Y-24395854D01*
X143694200Y-23595854D02*
X143503723Y-24395854D01*
X143351342Y-23824426D01*
X143198961Y-24395854D01*
X143008485Y-23595854D01*
X144360866Y-39216807D02*
X144627533Y-39216807D01*
X144627533Y-39635854D02*
X144627533Y-38835854D01*
X144246580Y-38835854D01*
X143598961Y-38835854D02*
X143751342Y-38835854D01*
X143827533Y-38873950D01*
X143865628Y-38912045D01*
X143941819Y-39026330D01*
X143979914Y-39178711D01*
X143979914Y-39483473D01*
X143941819Y-39559664D01*
X143903723Y-39597759D01*
X143827533Y-39635854D01*
X143675152Y-39635854D01*
X143598961Y-39597759D01*
X143560866Y-39559664D01*
X143522771Y-39483473D01*
X143522771Y-39292997D01*
X143560866Y-39216807D01*
X143598961Y-39178711D01*
X143675152Y-39140616D01*
X143827533Y-39140616D01*
X143903723Y-39178711D01*
X143941819Y-39216807D01*
X143979914Y-39292997D01*
X155340009Y-49376807D02*
X155225723Y-49414902D01*
X155187628Y-49452997D01*
X155149533Y-49529188D01*
X155149533Y-49643473D01*
X155187628Y-49719664D01*
X155225723Y-49757759D01*
X155301914Y-49795854D01*
X155606676Y-49795854D01*
X155606676Y-48995854D01*
X155340009Y-48995854D01*
X155263819Y-49033950D01*
X155225723Y-49072045D01*
X155187628Y-49148235D01*
X155187628Y-49224426D01*
X155225723Y-49300616D01*
X155263819Y-49338711D01*
X155340009Y-49376807D01*
X155606676Y-49376807D01*
X154463819Y-49262521D02*
X154463819Y-49795854D01*
X154654295Y-48957759D02*
X154844771Y-49529188D01*
X154349533Y-49529188D01*
X145160866Y-31215854D02*
X144894200Y-32015854D01*
X144627533Y-31215854D01*
X143903723Y-31939664D02*
X143941819Y-31977759D01*
X144056104Y-32015854D01*
X144132295Y-32015854D01*
X144246580Y-31977759D01*
X144322771Y-31901569D01*
X144360866Y-31825378D01*
X144398961Y-31672997D01*
X144398961Y-31558711D01*
X144360866Y-31406330D01*
X144322771Y-31330140D01*
X144246580Y-31253950D01*
X144132295Y-31215854D01*
X144056104Y-31215854D01*
X143941819Y-31253950D01*
X143903723Y-31292045D01*
X143103723Y-31939664D02*
X143141819Y-31977759D01*
X143256104Y-32015854D01*
X143332295Y-32015854D01*
X143446580Y-31977759D01*
X143522771Y-31901569D01*
X143560866Y-31825378D01*
X143598961Y-31672997D01*
X143598961Y-31558711D01*
X143560866Y-31406330D01*
X143522771Y-31330140D01*
X143446580Y-31253950D01*
X143332295Y-31215854D01*
X143256104Y-31215854D01*
X143141819Y-31253950D01*
X143103723Y-31292045D01*
X144418009Y-51916807D02*
X144303723Y-51954902D01*
X144265628Y-51992997D01*
X144227533Y-52069188D01*
X144227533Y-52183473D01*
X144265628Y-52259664D01*
X144303723Y-52297759D01*
X144379914Y-52335854D01*
X144684676Y-52335854D01*
X144684676Y-51535854D01*
X144418009Y-51535854D01*
X144341819Y-51573950D01*
X144303723Y-51612045D01*
X144265628Y-51688235D01*
X144265628Y-51764426D01*
X144303723Y-51840616D01*
X144341819Y-51878711D01*
X144418009Y-51916807D01*
X144684676Y-51916807D01*
X143541819Y-51535854D02*
X143694200Y-51535854D01*
X143770390Y-51573950D01*
X143808485Y-51612045D01*
X143884676Y-51726330D01*
X143922771Y-51878711D01*
X143922771Y-52183473D01*
X143884676Y-52259664D01*
X143846580Y-52297759D01*
X143770390Y-52335854D01*
X143618009Y-52335854D01*
X143541819Y-52297759D01*
X143503723Y-52259664D01*
X143465628Y-52183473D01*
X143465628Y-51992997D01*
X143503723Y-51916807D01*
X143541819Y-51878711D01*
X143618009Y-51840616D01*
X143770390Y-51840616D01*
X143846580Y-51878711D01*
X143884676Y-51916807D01*
X143922771Y-51992997D01*
X155625723Y-28713950D02*
X155701914Y-28675854D01*
X155816200Y-28675854D01*
X155930485Y-28713950D01*
X156006676Y-28790140D01*
X156044771Y-28866330D01*
X156082866Y-29018711D01*
X156082866Y-29132997D01*
X156044771Y-29285378D01*
X156006676Y-29361569D01*
X155930485Y-29437759D01*
X155816200Y-29475854D01*
X155740009Y-29475854D01*
X155625723Y-29437759D01*
X155587628Y-29399664D01*
X155587628Y-29132997D01*
X155740009Y-29132997D01*
X155244771Y-29475854D02*
X155244771Y-28675854D01*
X154787628Y-29475854D01*
X154787628Y-28675854D01*
X154406676Y-29475854D02*
X154406676Y-28675854D01*
X154216200Y-28675854D01*
X154101914Y-28713950D01*
X154025723Y-28790140D01*
X153987628Y-28866330D01*
X153949533Y-29018711D01*
X153949533Y-29132997D01*
X153987628Y-29285378D01*
X154025723Y-29361569D01*
X154101914Y-29437759D01*
X154216200Y-29475854D01*
X154406676Y-29475854D01*
X144703723Y-26173950D02*
X144779914Y-26135854D01*
X144894200Y-26135854D01*
X145008485Y-26173950D01*
X145084676Y-26250140D01*
X145122771Y-26326330D01*
X145160866Y-26478711D01*
X145160866Y-26592997D01*
X145122771Y-26745378D01*
X145084676Y-26821569D01*
X145008485Y-26897759D01*
X144894200Y-26935854D01*
X144818009Y-26935854D01*
X144703723Y-26897759D01*
X144665628Y-26859664D01*
X144665628Y-26592997D01*
X144818009Y-26592997D01*
X144322771Y-26935854D02*
X144322771Y-26135854D01*
X143865628Y-26935854D01*
X143865628Y-26135854D01*
X143484676Y-26935854D02*
X143484676Y-26135854D01*
X143294200Y-26135854D01*
X143179914Y-26173950D01*
X143103723Y-26250140D01*
X143065628Y-26326330D01*
X143027533Y-26478711D01*
X143027533Y-26592997D01*
X143065628Y-26745378D01*
X143103723Y-26821569D01*
X143179914Y-26897759D01*
X143294200Y-26935854D01*
X143484676Y-26935854D01*
X155149533Y-42099664D02*
X155187628Y-42137759D01*
X155301914Y-42175854D01*
X155378104Y-42175854D01*
X155492390Y-42137759D01*
X155568580Y-42061569D01*
X155606676Y-41985378D01*
X155644771Y-41832997D01*
X155644771Y-41718711D01*
X155606676Y-41566330D01*
X155568580Y-41490140D01*
X155492390Y-41413950D01*
X155378104Y-41375854D01*
X155301914Y-41375854D01*
X155187628Y-41413950D01*
X155149533Y-41452045D01*
X154463819Y-41375854D02*
X154616200Y-41375854D01*
X154692390Y-41413950D01*
X154730485Y-41452045D01*
X154806676Y-41566330D01*
X154844771Y-41718711D01*
X154844771Y-42023473D01*
X154806676Y-42099664D01*
X154768580Y-42137759D01*
X154692390Y-42175854D01*
X154540009Y-42175854D01*
X154463819Y-42137759D01*
X154425723Y-42099664D01*
X154387628Y-42023473D01*
X154387628Y-41832997D01*
X154425723Y-41756807D01*
X154463819Y-41718711D01*
X154540009Y-41680616D01*
X154692390Y-41680616D01*
X154768580Y-41718711D01*
X154806676Y-41756807D01*
X154844771Y-41832997D01*
X155606676Y-34555854D02*
X155606676Y-33755854D01*
X155416200Y-33755854D01*
X155301914Y-33793950D01*
X155225723Y-33870140D01*
X155187628Y-33946330D01*
X155149533Y-34098711D01*
X155149533Y-34212997D01*
X155187628Y-34365378D01*
X155225723Y-34441569D01*
X155301914Y-34517759D01*
X155416200Y-34555854D01*
X155606676Y-34555854D01*
X154387628Y-34555854D02*
X154844771Y-34555854D01*
X154616200Y-34555854D02*
X154616200Y-33755854D01*
X154692390Y-33870140D01*
X154768580Y-33946330D01*
X154844771Y-33984426D01*
X155317548Y-23595854D02*
X154860405Y-23595854D01*
X155088976Y-24395854D02*
X155088976Y-23595854D01*
X154669929Y-23595854D02*
X154136595Y-24395854D01*
X154136595Y-23595854D02*
X154669929Y-24395854D01*
X153679452Y-23595854D02*
X153603262Y-23595854D01*
X153527072Y-23633950D01*
X153488976Y-23672045D01*
X153450881Y-23748235D01*
X153412786Y-23900616D01*
X153412786Y-24091092D01*
X153450881Y-24243473D01*
X153488976Y-24319664D01*
X153527072Y-24357759D01*
X153603262Y-24395854D01*
X153679452Y-24395854D01*
X153755643Y-24357759D01*
X153793738Y-24319664D01*
X153831833Y-24243473D01*
X153869929Y-24091092D01*
X153869929Y-23900616D01*
X153831833Y-23748235D01*
X153793738Y-23672045D01*
X153755643Y-23633950D01*
X153679452Y-23595854D01*
X152498500Y-23557759D02*
X153184214Y-24586330D01*
X152231833Y-24395854D02*
X152231833Y-23595854D01*
X152041357Y-23595854D01*
X151927072Y-23633950D01*
X151850881Y-23710140D01*
X151812786Y-23786330D01*
X151774691Y-23938711D01*
X151774691Y-24052997D01*
X151812786Y-24205378D01*
X151850881Y-24281569D01*
X151927072Y-24357759D01*
X152041357Y-24395854D01*
X152231833Y-24395854D01*
X151508024Y-23595854D02*
X151012786Y-23595854D01*
X151279452Y-23900616D01*
X151165167Y-23900616D01*
X151088976Y-23938711D01*
X151050881Y-23976807D01*
X151012786Y-24052997D01*
X151012786Y-24243473D01*
X151050881Y-24319664D01*
X151088976Y-24357759D01*
X151165167Y-24395854D01*
X151393738Y-24395854D01*
X151469929Y-24357759D01*
X151508024Y-24319664D01*
X144418009Y-46836807D02*
X144303723Y-46874902D01*
X144265628Y-46912997D01*
X144227533Y-46989188D01*
X144227533Y-47103473D01*
X144265628Y-47179664D01*
X144303723Y-47217759D01*
X144379914Y-47255854D01*
X144684676Y-47255854D01*
X144684676Y-46455854D01*
X144418009Y-46455854D01*
X144341819Y-46493950D01*
X144303723Y-46532045D01*
X144265628Y-46608235D01*
X144265628Y-46684426D01*
X144303723Y-46760616D01*
X144341819Y-46798711D01*
X144418009Y-46836807D01*
X144684676Y-46836807D01*
X143960866Y-46455854D02*
X143465628Y-46455854D01*
X143732295Y-46760616D01*
X143618009Y-46760616D01*
X143541819Y-46798711D01*
X143503723Y-46836807D01*
X143465628Y-46912997D01*
X143465628Y-47103473D01*
X143503723Y-47179664D01*
X143541819Y-47217759D01*
X143618009Y-47255854D01*
X143846580Y-47255854D01*
X143922771Y-47217759D01*
X143960866Y-47179664D01*
X155568580Y-46836807D02*
X155301914Y-46836807D01*
X155187628Y-47255854D02*
X155568580Y-47255854D01*
X155568580Y-46455854D01*
X155187628Y-46455854D01*
X154501914Y-46455854D02*
X154654295Y-46455854D01*
X154730485Y-46493950D01*
X154768580Y-46532045D01*
X154844771Y-46646330D01*
X154882866Y-46798711D01*
X154882866Y-47103473D01*
X154844771Y-47179664D01*
X154806676Y-47217759D01*
X154730485Y-47255854D01*
X154578104Y-47255854D01*
X154501914Y-47217759D01*
X154463819Y-47179664D01*
X154425723Y-47103473D01*
X154425723Y-46912997D01*
X154463819Y-46836807D01*
X154501914Y-46798711D01*
X154578104Y-46760616D01*
X154730485Y-46760616D01*
X154806676Y-46798711D01*
X154844771Y-46836807D01*
X154882866Y-46912997D01*
X155606676Y-37095854D02*
X155606676Y-36295854D01*
X155416200Y-36295854D01*
X155301914Y-36333950D01*
X155225723Y-36410140D01*
X155187628Y-36486330D01*
X155149533Y-36638711D01*
X155149533Y-36752997D01*
X155187628Y-36905378D01*
X155225723Y-36981569D01*
X155301914Y-37057759D01*
X155416200Y-37095854D01*
X155606676Y-37095854D01*
X154654295Y-36295854D02*
X154578104Y-36295854D01*
X154501914Y-36333950D01*
X154463819Y-36372045D01*
X154425723Y-36448235D01*
X154387628Y-36600616D01*
X154387628Y-36791092D01*
X154425723Y-36943473D01*
X154463819Y-37019664D01*
X154501914Y-37057759D01*
X154578104Y-37095854D01*
X154654295Y-37095854D01*
X154730485Y-37057759D01*
X154768580Y-37019664D01*
X154806676Y-36943473D01*
X154844771Y-36791092D01*
X154844771Y-36600616D01*
X154806676Y-36448235D01*
X154768580Y-36372045D01*
X154730485Y-36333950D01*
X154654295Y-36295854D01*
X144360866Y-36676807D02*
X144627533Y-36676807D01*
X144627533Y-37095854D02*
X144627533Y-36295854D01*
X144246580Y-36295854D01*
X143560866Y-36295854D02*
X143941819Y-36295854D01*
X143979914Y-36676807D01*
X143941819Y-36638711D01*
X143865628Y-36600616D01*
X143675152Y-36600616D01*
X143598961Y-36638711D01*
X143560866Y-36676807D01*
X143522771Y-36752997D01*
X143522771Y-36943473D01*
X143560866Y-37019664D01*
X143598961Y-37057759D01*
X143675152Y-37095854D01*
X143865628Y-37095854D01*
X143941819Y-37057759D01*
X143979914Y-37019664D01*
X144360866Y-41756807D02*
X144627533Y-41756807D01*
X144627533Y-42175854D02*
X144627533Y-41375854D01*
X144246580Y-41375854D01*
X144018009Y-41375854D02*
X143484676Y-41375854D01*
X143827533Y-42175854D01*
X155606676Y-39635854D02*
X155606676Y-38835854D01*
X155416200Y-38835854D01*
X155301914Y-38873950D01*
X155225723Y-38950140D01*
X155187628Y-39026330D01*
X155149533Y-39178711D01*
X155149533Y-39292997D01*
X155187628Y-39445378D01*
X155225723Y-39521569D01*
X155301914Y-39597759D01*
X155416200Y-39635854D01*
X155606676Y-39635854D01*
X154463819Y-39102521D02*
X154463819Y-39635854D01*
X154654295Y-38797759D02*
X154844771Y-39369188D01*
X154349533Y-39369188D01*
X155606676Y-44715854D02*
X155606676Y-43915854D01*
X155416200Y-43915854D01*
X155301914Y-43953950D01*
X155225723Y-44030140D01*
X155187628Y-44106330D01*
X155149533Y-44258711D01*
X155149533Y-44372997D01*
X155187628Y-44525378D01*
X155225723Y-44601569D01*
X155301914Y-44677759D01*
X155416200Y-44715854D01*
X155606676Y-44715854D01*
X154882866Y-43915854D02*
X154349533Y-43915854D01*
X154692390Y-44715854D01*
X155606676Y-26935854D02*
X155606676Y-26135854D01*
X155416200Y-26135854D01*
X155301914Y-26173950D01*
X155225723Y-26250140D01*
X155187628Y-26326330D01*
X155149533Y-26478711D01*
X155149533Y-26592997D01*
X155187628Y-26745378D01*
X155225723Y-26821569D01*
X155301914Y-26897759D01*
X155416200Y-26935854D01*
X155606676Y-26935854D01*
X154844771Y-26212045D02*
X154806676Y-26173950D01*
X154730485Y-26135854D01*
X154540009Y-26135854D01*
X154463819Y-26173950D01*
X154425723Y-26212045D01*
X154387628Y-26288235D01*
X154387628Y-26364426D01*
X154425723Y-26478711D01*
X154882866Y-26935854D01*
X154387628Y-26935854D01*
X144360866Y-34136807D02*
X144627533Y-34136807D01*
X144627533Y-34555854D02*
X144627533Y-33755854D01*
X144246580Y-33755854D01*
X143598961Y-34022521D02*
X143598961Y-34555854D01*
X143789438Y-33717759D02*
X143979914Y-34289188D01*
X143484676Y-34289188D01*
X144418009Y-44296807D02*
X144303723Y-44334902D01*
X144265628Y-44372997D01*
X144227533Y-44449188D01*
X144227533Y-44563473D01*
X144265628Y-44639664D01*
X144303723Y-44677759D01*
X144379914Y-44715854D01*
X144684676Y-44715854D01*
X144684676Y-43915854D01*
X144418009Y-43915854D01*
X144341819Y-43953950D01*
X144303723Y-43992045D01*
X144265628Y-44068235D01*
X144265628Y-44144426D01*
X144303723Y-44220616D01*
X144341819Y-44258711D01*
X144418009Y-44296807D01*
X144684676Y-44296807D01*
X143465628Y-44715854D02*
X143922771Y-44715854D01*
X143694200Y-44715854D02*
X143694200Y-43915854D01*
X143770390Y-44030140D01*
X143846580Y-44106330D01*
X143922771Y-44144426D01*
X144418009Y-49376807D02*
X144303723Y-49414902D01*
X144265628Y-49452997D01*
X144227533Y-49529188D01*
X144227533Y-49643473D01*
X144265628Y-49719664D01*
X144303723Y-49757759D01*
X144379914Y-49795854D01*
X144684676Y-49795854D01*
X144684676Y-48995854D01*
X144418009Y-48995854D01*
X144341819Y-49033950D01*
X144303723Y-49072045D01*
X144265628Y-49148235D01*
X144265628Y-49224426D01*
X144303723Y-49300616D01*
X144341819Y-49338711D01*
X144418009Y-49376807D01*
X144684676Y-49376807D01*
X143922771Y-49072045D02*
X143884676Y-49033950D01*
X143808485Y-48995854D01*
X143618009Y-48995854D01*
X143541819Y-49033950D01*
X143503723Y-49072045D01*
X143465628Y-49148235D01*
X143465628Y-49224426D01*
X143503723Y-49338711D01*
X143960866Y-49795854D01*
X143465628Y-49795854D01*
X155625723Y-31253950D02*
X155701914Y-31215854D01*
X155816200Y-31215854D01*
X155930485Y-31253950D01*
X156006676Y-31330140D01*
X156044771Y-31406330D01*
X156082866Y-31558711D01*
X156082866Y-31672997D01*
X156044771Y-31825378D01*
X156006676Y-31901569D01*
X155930485Y-31977759D01*
X155816200Y-32015854D01*
X155740009Y-32015854D01*
X155625723Y-31977759D01*
X155587628Y-31939664D01*
X155587628Y-31672997D01*
X155740009Y-31672997D01*
X155244771Y-32015854D02*
X155244771Y-31215854D01*
X154787628Y-32015854D01*
X154787628Y-31215854D01*
X154406676Y-32015854D02*
X154406676Y-31215854D01*
X154216200Y-31215854D01*
X154101914Y-31253950D01*
X154025723Y-31330140D01*
X153987628Y-31406330D01*
X153949533Y-31558711D01*
X153949533Y-31672997D01*
X153987628Y-31825378D01*
X154025723Y-31901569D01*
X154101914Y-31977759D01*
X154216200Y-32015854D01*
X154406676Y-32015854D01*
%TO.C,K-0-0*%
X23437193Y-57928971D02*
G75*
G03*
X21740781Y-60329843I352230J-2048642D01*
G01*
X18923549Y-54993152D02*
G75*
G03*
X17224308Y-57398923I353265J-2052506D01*
G01*
X27254659Y-52760838D02*
X18923549Y-54993153D01*
X17231800Y-57469385D02*
X18252841Y-61279962D01*
X28266124Y-56535676D02*
X27254659Y-52760838D01*
X18255171Y-61288656D02*
X21742163Y-60354319D01*
X28278030Y-56580109D02*
X23412010Y-57931578D01*
%TO.C,K-0-1*%
X49413475Y-51560538D02*
X48600956Y-47737938D01*
X48600956Y-47737938D02*
X40164433Y-49531176D01*
X38345407Y-51915475D02*
X39165619Y-55774268D01*
X49423039Y-51605533D02*
X44492958Y-52700482D01*
X39167490Y-55783071D02*
X42698603Y-55032510D01*
X44518243Y-52699197D02*
G75*
G03*
X42698503Y-55007995I244529J-2064269D01*
G01*
X40164433Y-49531176D02*
G75*
G03*
X38341613Y-51844718I245361J-2068181D01*
G01*
%TO.C,K-0-2*%
X67149330Y-28440163D02*
X58630518Y-29789410D01*
X56689200Y-32075242D02*
X57306334Y-35971672D01*
X67760676Y-32300049D02*
X67149330Y-28440163D01*
X67767872Y-32345483D02*
X62787242Y-33180911D01*
X57307742Y-35980561D02*
X60873297Y-35415833D01*
X62812560Y-33180951D02*
G75*
G03*
X60874481Y-35391346I136158J-2074237D01*
G01*
X58630518Y-29789411D02*
G75*
G03*
X56689114Y-32004383I136784J-2078188D01*
G01*
%TO.C,K-0-3*%
X78821535Y-30388274D02*
X82411759Y-30010926D01*
X78408229Y-26455934D02*
X78820594Y-30379323D01*
X89452767Y-27259870D02*
X89044269Y-23373278D01*
X89044269Y-23373278D02*
X80466518Y-24274836D01*
X89457575Y-27305618D02*
X84440048Y-27879235D01*
X80466518Y-24274836D02*
G75*
G03*
X78411852Y-26385168I27833J-2082499D01*
G01*
X84465329Y-27880599D02*
G75*
G03*
X82414223Y-29986535I27415J-2078521D01*
G01*
%TO.C,K-0-4*%
X111566921Y-24308469D02*
X102953741Y-24759867D01*
X100991060Y-30778834D02*
X104596112Y-30589901D01*
X111771450Y-28211113D02*
X111566921Y-24308469D01*
X100784123Y-26830253D02*
X100990589Y-30769847D01*
X111773857Y-28257050D02*
X106733186Y-28567284D01*
X106758361Y-28569971D02*
G75*
G03*
X104599850Y-30565673I-81405J-2077106D01*
G01*
X102953741Y-24759867D02*
G75*
G03*
X100791445Y-26759773I-81195J-2081101D01*
G01*
%TO.C,K-0-5*%
X134034704Y-27964881D02*
X128984704Y-28010881D01*
X123134704Y-25964881D02*
X123134704Y-29909881D01*
X123134704Y-29918881D02*
X126744704Y-29918881D01*
X134034704Y-24010881D02*
X125409704Y-24010881D01*
X134034704Y-27918881D02*
X134034704Y-24010881D01*
X129009704Y-28014881D02*
G75*
G03*
X126749704Y-29894881I-190000J-2070000D01*
G01*
X125409704Y-24010881D02*
G75*
G03*
X123145704Y-25894881I-190000J-2074000D01*
G01*
%TO.C,K-1-0*%
X32175455Y-71050792D02*
X23844345Y-73283107D01*
X22152596Y-75759339D02*
X23173637Y-79569916D01*
X23175967Y-79578610D02*
X26662959Y-78644273D01*
X33198826Y-74870063D02*
X28332806Y-76221532D01*
X33186920Y-74825630D02*
X32175455Y-71050792D01*
X28357989Y-76218925D02*
G75*
G03*
X26661577Y-78619797I352230J-2048642D01*
G01*
X23844345Y-73283106D02*
G75*
G03*
X22145104Y-75688877I353265J-2052506D01*
G01*
%TO.C,K-1-1*%
X53374189Y-70194250D02*
X52561670Y-66371650D01*
X43128204Y-74416783D02*
X46659317Y-73666222D01*
X42306121Y-70549187D02*
X43126333Y-74407980D01*
X52561670Y-66371650D02*
X44125147Y-68164888D01*
X53383753Y-70239245D02*
X48453672Y-71334194D01*
X48478957Y-71332909D02*
G75*
G03*
X46659217Y-73641707I244529J-2064269D01*
G01*
X44125147Y-68164888D02*
G75*
G03*
X42302327Y-70478430I245361J-2068181D01*
G01*
%TO.C,K-1-2*%
X59669274Y-50890704D02*
X60286408Y-54787134D01*
X70740750Y-51115511D02*
X70129404Y-47255625D01*
X70129404Y-47255625D02*
X61610592Y-48604872D01*
X60287816Y-54796023D02*
X63853371Y-54231295D01*
X70747946Y-51160945D02*
X65767316Y-51996373D01*
X61610592Y-48604873D02*
G75*
G03*
X59669188Y-50819845I136784J-2078188D01*
G01*
X65792634Y-51996413D02*
G75*
G03*
X63854555Y-54206808I136158J-2074237D01*
G01*
%TO.C,K-1-3*%
X91444035Y-46205510D02*
X91035537Y-42318918D01*
X91035537Y-42318918D02*
X82457786Y-43220476D01*
X80812803Y-49333914D02*
X84403027Y-48956566D01*
X91448843Y-46251258D02*
X86431316Y-46824875D01*
X80399497Y-45401574D02*
X80811862Y-49324963D01*
X86456597Y-46826239D02*
G75*
G03*
X84405491Y-48932175I27415J-2078521D01*
G01*
X82457786Y-43220476D02*
G75*
G03*
X80403120Y-45330808I27833J-2082499D01*
G01*
%TO.C,K-1-4*%
X112770856Y-47280942D02*
X107730185Y-47591176D01*
X112563920Y-43332361D02*
X103950740Y-43783759D01*
X101988059Y-49802726D02*
X105593111Y-49613793D01*
X112768449Y-47235005D02*
X112563920Y-43332361D01*
X101781122Y-45854145D02*
X101987588Y-49793739D01*
X107755360Y-47593863D02*
G75*
G03*
X105596849Y-49589565I-81405J-2077106D01*
G01*
X103950740Y-43783759D02*
G75*
G03*
X101788444Y-45783665I-81195J-2081101D01*
G01*
%TO.C,K-1-5*%
X134034704Y-47014881D02*
X128984704Y-47060881D01*
X123134704Y-45014881D02*
X123134704Y-48959881D01*
X123134704Y-48968881D02*
X126744704Y-48968881D01*
X134034704Y-43060881D02*
X125409704Y-43060881D01*
X134034704Y-46968881D02*
X134034704Y-43060881D01*
X125409704Y-43060881D02*
G75*
G03*
X123145704Y-44944881I-190000J-2074000D01*
G01*
X129009704Y-47064881D02*
G75*
G03*
X126749704Y-48944881I-190000J-2070000D01*
G01*
%TO.C,K-2-0*%
X27083100Y-94160225D02*
X28104141Y-97970802D01*
X28106471Y-97979496D02*
X31593463Y-97045159D01*
X38117424Y-93226516D02*
X37105959Y-89451678D01*
X38129330Y-93270949D02*
X33263310Y-94622418D01*
X37105959Y-89451678D02*
X28774849Y-91683993D01*
X28774849Y-91683992D02*
G75*
G03*
X27075608Y-94089763I353265J-2052506D01*
G01*
X33288493Y-94619811D02*
G75*
G03*
X31592081Y-97020683I352230J-2048642D01*
G01*
%TO.C,K-2-1*%
X56522391Y-85005361D02*
X48085868Y-86798599D01*
X57334910Y-88827961D02*
X56522391Y-85005361D01*
X47088925Y-93050494D02*
X50620038Y-92299933D01*
X46266842Y-89182898D02*
X47087054Y-93041691D01*
X57344474Y-88872956D02*
X52414393Y-89967905D01*
X48085868Y-86798599D02*
G75*
G03*
X46263048Y-89112141I245361J-2068181D01*
G01*
X52439678Y-89966620D02*
G75*
G03*
X50619938Y-92275418I244529J-2064269D01*
G01*
%TO.C,K-2-2*%
X73109481Y-66071087D02*
X64590669Y-67420334D01*
X73728023Y-69976407D02*
X68747393Y-70811835D01*
X63267893Y-73611485D02*
X66833448Y-73046757D01*
X62649351Y-69706166D02*
X63266485Y-73602596D01*
X73720827Y-69930973D02*
X73109481Y-66071087D01*
X64590669Y-67420335D02*
G75*
G03*
X62649265Y-69635307I136784J-2078188D01*
G01*
X68772711Y-70811875D02*
G75*
G03*
X66834632Y-73022270I136158J-2074237D01*
G01*
%TO.C,K-2-3*%
X82804069Y-68279557D02*
X86394293Y-67902209D01*
X82390763Y-64347217D02*
X82803128Y-68270606D01*
X93435301Y-65151153D02*
X93026803Y-61264561D01*
X93440109Y-65196901D02*
X88422582Y-65770518D01*
X93026803Y-61264561D02*
X84449052Y-62166119D01*
X84449052Y-62166119D02*
G75*
G03*
X82394386Y-64276451I27833J-2082499D01*
G01*
X88447863Y-65771882D02*
G75*
G03*
X86396757Y-67877818I27415J-2078521D01*
G01*
%TO.C,K-2-4*%
X102985060Y-68826619D02*
X106590112Y-68637686D01*
X113560921Y-62356254D02*
X104947741Y-62807652D01*
X113767857Y-66304835D02*
X108727186Y-66615069D01*
X102778123Y-64878038D02*
X102984589Y-68817632D01*
X113765450Y-66258898D02*
X113560921Y-62356254D01*
X108752361Y-66617756D02*
G75*
G03*
X106593850Y-68613458I-81405J-2077106D01*
G01*
X104947741Y-62807652D02*
G75*
G03*
X102785445Y-64807558I-81195J-2081101D01*
G01*
%TO.C,K-2-5*%
X134034704Y-62110881D02*
X125409704Y-62110881D01*
X123134704Y-68018881D02*
X126744704Y-68018881D01*
X134034704Y-66018881D02*
X134034704Y-62110881D01*
X123134704Y-64064881D02*
X123134704Y-68009881D01*
X134034704Y-66064881D02*
X128984704Y-66110881D01*
X129009704Y-66114881D02*
G75*
G03*
X126749704Y-67994881I-190000J-2070000D01*
G01*
X125409704Y-62110881D02*
G75*
G03*
X123145704Y-63994881I-190000J-2074000D01*
G01*
%TO.C,K-3-3*%
X102850463Y-88126540D02*
X106458264Y-88252527D01*
X102988456Y-84174949D02*
X102850777Y-88117545D01*
X113950009Y-82602543D02*
X105330263Y-82301535D01*
X113812017Y-86554135D02*
X108763487Y-86423864D01*
X113813622Y-86508163D02*
X113950009Y-82602543D01*
X108788333Y-86428735D02*
G75*
G03*
X106464098Y-88228716I-262127J-2062107D01*
G01*
X105330263Y-82301536D02*
G75*
G03*
X103001892Y-84105375I-262266J-2066105D01*
G01*
%TO.C,K-3-4*%
X133665998Y-88273830D02*
X128638854Y-87791709D01*
X134079304Y-84341491D02*
X125501552Y-83439933D01*
X122621461Y-89077766D02*
X126211685Y-89455114D01*
X133670807Y-88228082D02*
X134079304Y-84341491D01*
X123034766Y-85145426D02*
X122622402Y-89068815D01*
X125501552Y-83439933D02*
G75*
G03*
X123053023Y-85076959I-405751J-2042778D01*
G01*
X128663299Y-87798301D02*
G75*
G03*
X126219166Y-89431768I-405333J-2038800D01*
G01*
%TO.C,K-3-5*%
X153359968Y-91406551D02*
X148378701Y-90574929D01*
X142972859Y-87544171D02*
X142287817Y-91429237D01*
X154046572Y-87512621D02*
X145552606Y-86014906D01*
X142286254Y-91438100D02*
X145841410Y-92064970D01*
X153367955Y-91361250D02*
X154046572Y-87512621D01*
X145552606Y-86014906D02*
G75*
G03*
X142995848Y-87477144I-547260J-2009498D01*
G01*
X148402626Y-90583209D02*
G75*
G03*
X145850502Y-92042203I-546565J-2005559D01*
G01*
D12*
%TO.C,U1*%
X155905200Y-22763950D02*
X158445200Y-22763950D01*
X140665200Y-22763950D02*
X140665200Y-20223950D01*
X140665200Y-53243950D02*
X140665200Y-22763950D01*
X158445200Y-22763950D02*
X158445200Y-53243950D01*
X155905200Y-25303950D02*
X158445200Y-25303950D01*
X158445200Y-20223950D02*
X158445200Y-22763950D01*
X155905200Y-22763950D02*
X155905200Y-25303950D01*
X140665200Y-20223950D02*
X158445200Y-20223950D01*
X158445200Y-53243950D02*
X140665200Y-53243950D01*
D11*
X144623632Y-29243310D02*
X144623632Y-29443310D01*
X144623632Y-29443310D02*
X144723632Y-29443310D01*
X144723632Y-29443310D02*
X144723632Y-29243310D01*
X144723632Y-29243310D02*
X144623632Y-29243310D01*
G36*
X144723632Y-29443310D02*
G01*
X144623632Y-29443310D01*
X144623632Y-29243310D01*
X144723632Y-29243310D01*
X144723632Y-29443310D01*
G37*
X144723632Y-29443310D02*
X144623632Y-29443310D01*
X144623632Y-29243310D01*
X144723632Y-29243310D01*
X144723632Y-29443310D01*
X145023632Y-28643310D02*
X145023632Y-29443310D01*
X145023632Y-29443310D02*
X145123632Y-29443310D01*
X145123632Y-29443310D02*
X145123632Y-28643310D01*
X145123632Y-28643310D02*
X145023632Y-28643310D01*
G36*
X145123632Y-29443310D02*
G01*
X145023632Y-29443310D01*
X145023632Y-28643310D01*
X145123632Y-28643310D01*
X145123632Y-29443310D01*
G37*
X145123632Y-29443310D02*
X145023632Y-29443310D01*
X145023632Y-28643310D01*
X145123632Y-28643310D01*
X145123632Y-29443310D01*
X144623632Y-28643310D02*
X144623632Y-28743310D01*
X144623632Y-28743310D02*
X145123632Y-28743310D01*
X145123632Y-28743310D02*
X145123632Y-28643310D01*
X145123632Y-28643310D02*
X144623632Y-28643310D01*
G36*
X145123632Y-28743310D02*
G01*
X144623632Y-28743310D01*
X144623632Y-28643310D01*
X145123632Y-28643310D01*
X145123632Y-28743310D01*
G37*
X145123632Y-28743310D02*
X144623632Y-28743310D01*
X144623632Y-28643310D01*
X145123632Y-28643310D01*
X145123632Y-28743310D01*
X144823632Y-29043310D02*
X144823632Y-29143310D01*
X144823632Y-29143310D02*
X144923632Y-29143310D01*
X144923632Y-29143310D02*
X144923632Y-29043310D01*
X144923632Y-29043310D02*
X144823632Y-29043310D01*
G36*
X144923632Y-29143310D02*
G01*
X144823632Y-29143310D01*
X144823632Y-29043310D01*
X144923632Y-29043310D01*
X144923632Y-29143310D01*
G37*
X144923632Y-29143310D02*
X144823632Y-29143310D01*
X144823632Y-29043310D01*
X144923632Y-29043310D01*
X144923632Y-29143310D01*
X144623632Y-28643310D02*
X144623632Y-28943310D01*
X144623632Y-28943310D02*
X144723632Y-28943310D01*
X144723632Y-28943310D02*
X144723632Y-28643310D01*
X144723632Y-28643310D02*
X144623632Y-28643310D01*
G36*
X144723632Y-28943310D02*
G01*
X144623632Y-28943310D01*
X144623632Y-28643310D01*
X144723632Y-28643310D01*
X144723632Y-28943310D01*
G37*
X144723632Y-28943310D02*
X144623632Y-28943310D01*
X144623632Y-28643310D01*
X144723632Y-28643310D01*
X144723632Y-28943310D01*
D13*
%TO.C,J2*%
X156110940Y-75046840D02*
X157609540Y-75046840D01*
X157609540Y-62748160D02*
X148711920Y-62748160D01*
X157609540Y-75046840D02*
X157609540Y-70647560D01*
X155884880Y-67132200D02*
X155884880Y-68402200D01*
X148612860Y-82946240D02*
X157609540Y-82946240D01*
X157609540Y-70647560D02*
X156110940Y-70647560D01*
X148612860Y-62748160D02*
X148612860Y-82946240D01*
X156110940Y-70647560D02*
X156110940Y-75046840D01*
X155922980Y-67132200D02*
X155922980Y-68402200D01*
X157609540Y-82946240D02*
X157609540Y-75046840D01*
X157609540Y-70647560D02*
X157609540Y-62748160D01*
%TO.C,G\u002A\u002A\u002A*%
G36*
X137438968Y-22007699D02*
G01*
X138704077Y-22107159D01*
X139659796Y-22285586D01*
X140180018Y-22487279D01*
X140977995Y-22985486D01*
X141642611Y-23612508D01*
X142045071Y-24261646D01*
X142123624Y-24535229D01*
X142233606Y-25381038D01*
X142240444Y-26369971D01*
X142147917Y-27332094D01*
X141959802Y-28097473D01*
X141849771Y-28391060D01*
X141737086Y-28810943D01*
X141790671Y-29092801D01*
X142017470Y-29392657D01*
X142023813Y-29399978D01*
X142340826Y-30027923D01*
X142529623Y-31027183D01*
X142539172Y-31128218D01*
X142541399Y-31151774D01*
X142515671Y-32155010D01*
X142243437Y-33125635D01*
X141692842Y-34143629D01*
X140832028Y-35288970D01*
X140524550Y-35647587D01*
X140059011Y-36114591D01*
X139550140Y-36492512D01*
X138887648Y-36858162D01*
X137961250Y-37288350D01*
X137327920Y-37564886D01*
X136510336Y-37883251D01*
X135783424Y-38089488D01*
X134983976Y-38226213D01*
X133948783Y-38336042D01*
X132997620Y-38403506D01*
X131804208Y-38409410D01*
X130953351Y-38298946D01*
X130668365Y-38227809D01*
X130203755Y-38117023D01*
X129997046Y-38075807D01*
X129986216Y-38090441D01*
X129966820Y-38194527D01*
X129937169Y-38353646D01*
X129889860Y-38841204D01*
X129862735Y-39080188D01*
X129649109Y-40004411D01*
X129278684Y-41100237D01*
X128800920Y-42245541D01*
X128265278Y-43318196D01*
X127721215Y-44196076D01*
X126713985Y-45401442D01*
X125187824Y-46751011D01*
X123469081Y-47840962D01*
X121654424Y-48601104D01*
X120531150Y-48888964D01*
X118477944Y-49113249D01*
X116429111Y-48976031D01*
X114436539Y-48496624D01*
X112552119Y-47694344D01*
X110827741Y-46588504D01*
X109315292Y-45198420D01*
X108066666Y-43543407D01*
X107926785Y-43306385D01*
X107499848Y-42480755D01*
X107074044Y-41534162D01*
X106697236Y-40584495D01*
X106445571Y-39834005D01*
X107528850Y-39834005D01*
X107724733Y-40466997D01*
X108227404Y-41762236D01*
X109231823Y-43463512D01*
X110534423Y-44963900D01*
X112087487Y-46219687D01*
X113843300Y-47187159D01*
X115754145Y-47822606D01*
X116312041Y-47915263D01*
X117238605Y-47989397D01*
X118273378Y-48011583D01*
X119290014Y-47982953D01*
X120162164Y-47904637D01*
X120763482Y-47777768D01*
X120889166Y-47732895D01*
X121403790Y-47548084D01*
X122023030Y-47324766D01*
X122731309Y-47027711D01*
X124240404Y-46127912D01*
X125646993Y-44939860D01*
X126868106Y-43539708D01*
X127820770Y-42003607D01*
X128027152Y-41548847D01*
X128337115Y-40702791D01*
X128595083Y-39812077D01*
X128776079Y-38980379D01*
X128855130Y-38311370D01*
X128807259Y-37908725D01*
X128804644Y-37903887D01*
X128731650Y-37843405D01*
X128571692Y-37802835D01*
X128293705Y-37784541D01*
X127866622Y-37790887D01*
X127259377Y-37824234D01*
X126440906Y-37886946D01*
X125380141Y-37981387D01*
X124046016Y-38109918D01*
X122407467Y-38274903D01*
X120433427Y-38478704D01*
X118092828Y-38723686D01*
X107528850Y-39834005D01*
X106445571Y-39834005D01*
X106417282Y-39749643D01*
X106282042Y-39147495D01*
X106315370Y-39127115D01*
X106668317Y-39052590D01*
X107389762Y-38943265D01*
X108458840Y-38801660D01*
X109854688Y-38630293D01*
X111556442Y-38431686D01*
X113543241Y-38208357D01*
X115794220Y-37962825D01*
X118288515Y-37697610D01*
X118588432Y-37666082D01*
X121216792Y-37388737D01*
X121751781Y-37331304D01*
X131459454Y-37331304D01*
X131506047Y-37348685D01*
X132019443Y-37424462D01*
X132787785Y-37432130D01*
X133691415Y-37381152D01*
X134610672Y-37280986D01*
X135425895Y-37141094D01*
X136017423Y-36970938D01*
X136437710Y-36797004D01*
X137242632Y-36464241D01*
X138041075Y-36134479D01*
X138589192Y-35881970D01*
X139139350Y-35524979D01*
X139668870Y-35023722D01*
X140295347Y-34281537D01*
X140855744Y-33529252D01*
X141316352Y-32731284D01*
X141530576Y-32045273D01*
X141554154Y-31855642D01*
X141559799Y-31231154D01*
X141480692Y-30646082D01*
X141339483Y-30220502D01*
X141158822Y-30074493D01*
X141154682Y-30075790D01*
X140965511Y-30246126D01*
X140575923Y-30658471D01*
X140040421Y-31253563D01*
X139413511Y-31972140D01*
X138344220Y-33108526D01*
X136553777Y-34628350D01*
X134636694Y-35840584D01*
X132658969Y-36699040D01*
X132592972Y-36721302D01*
X131842816Y-37001527D01*
X131461333Y-37206782D01*
X131459454Y-37331304D01*
X121751781Y-37331304D01*
X123484848Y-37145253D01*
X125426592Y-36929066D01*
X127076009Y-36733604D01*
X128467091Y-36552299D01*
X129633825Y-36378583D01*
X130610200Y-36205888D01*
X131430207Y-36027645D01*
X132127832Y-35837284D01*
X132737066Y-35628239D01*
X133291897Y-35393940D01*
X133826314Y-35127817D01*
X134374306Y-34823304D01*
X134969862Y-34473831D01*
X135593206Y-34057668D01*
X136552160Y-33297578D01*
X137561016Y-32392070D01*
X138524042Y-31432887D01*
X139345505Y-30511777D01*
X139929673Y-29720489D01*
X140401768Y-28962937D01*
X139467819Y-28348699D01*
X139438067Y-28329223D01*
X138185776Y-27665327D01*
X136805913Y-27236765D01*
X135266401Y-27044306D01*
X133535162Y-27088720D01*
X131580117Y-27370776D01*
X129369191Y-27891244D01*
X126870305Y-28650893D01*
X126192545Y-28871191D01*
X124755893Y-29319764D01*
X123165049Y-29798217D01*
X121569827Y-30261826D01*
X120120047Y-30665872D01*
X119369633Y-30873782D01*
X118062444Y-31248531D01*
X116503656Y-31706056D01*
X114768213Y-32223945D01*
X112931064Y-32779790D01*
X111067156Y-33351178D01*
X109251437Y-33915702D01*
X108070786Y-34284855D01*
X105401333Y-35111521D01*
X103054900Y-35824236D01*
X100991802Y-36433434D01*
X99172352Y-36949554D01*
X97556866Y-37383031D01*
X96105656Y-37744302D01*
X94779037Y-38043803D01*
X93537323Y-38291971D01*
X92340829Y-38499243D01*
X91149867Y-38676055D01*
X90249560Y-38796726D01*
X89037964Y-38941337D01*
X88041184Y-39027354D01*
X87148198Y-39060727D01*
X86247987Y-39047405D01*
X85229531Y-38993338D01*
X84341306Y-38918670D01*
X83192731Y-38781005D01*
X82146135Y-38614281D01*
X81350415Y-38439746D01*
X81294850Y-38424715D01*
X80345964Y-38226613D01*
X79241259Y-38075139D01*
X78208518Y-38002024D01*
X77851587Y-37991730D01*
X77141208Y-37952725D01*
X76723439Y-37881608D01*
X76520161Y-37758942D01*
X76453251Y-37565289D01*
X76477561Y-37337598D01*
X76705758Y-37155809D01*
X77240362Y-37023635D01*
X77947793Y-36945407D01*
X78978038Y-36971618D01*
X80228586Y-37144116D01*
X81772439Y-37470093D01*
X83068021Y-37724394D01*
X85620212Y-37973038D01*
X88393694Y-37946672D01*
X91343095Y-37644468D01*
X91669278Y-37594198D01*
X93165545Y-37314385D01*
X94982820Y-36910509D01*
X97077973Y-36394246D01*
X99407877Y-35777275D01*
X101929406Y-35071270D01*
X104599432Y-34287907D01*
X107374828Y-33438863D01*
X110212464Y-32535814D01*
X110324224Y-32499615D01*
X111978587Y-31975118D01*
X113824173Y-31407491D01*
X115718433Y-30839514D01*
X117518819Y-30313970D01*
X119082784Y-29873640D01*
X119109934Y-29866190D01*
X120621703Y-29441942D01*
X122238831Y-28972279D01*
X123838264Y-28493988D01*
X125296952Y-28043854D01*
X126491843Y-27658666D01*
X128536267Y-27025433D01*
X130992090Y-26420893D01*
X133187494Y-26080630D01*
X135144713Y-26004134D01*
X136885980Y-26190894D01*
X138433524Y-26640395D01*
X139809580Y-27352128D01*
X140317697Y-27671707D01*
X140644515Y-27820111D01*
X140834424Y-27778907D01*
X140988442Y-27566464D01*
X141072649Y-27316852D01*
X141122441Y-26631004D01*
X141061466Y-25647814D01*
X141045684Y-25499952D01*
X140948119Y-24755079D01*
X140828415Y-24283180D01*
X140647035Y-23974973D01*
X140364443Y-23721171D01*
X140262599Y-23648102D01*
X139748440Y-23383636D01*
X139081585Y-23202492D01*
X138213645Y-23101047D01*
X137096227Y-23075678D01*
X135680942Y-23122764D01*
X133919399Y-23238680D01*
X131270769Y-23506574D01*
X128282979Y-23943621D01*
X125038436Y-24546406D01*
X121517776Y-25319193D01*
X117701639Y-26266241D01*
X113570656Y-27391814D01*
X109105466Y-28700174D01*
X108737427Y-28809503D01*
X106339460Y-29449224D01*
X103612775Y-30067838D01*
X100618272Y-30654855D01*
X97416857Y-31199784D01*
X94069431Y-31692133D01*
X90636897Y-32121411D01*
X87180156Y-32477126D01*
X81204555Y-33023712D01*
X78749978Y-32630229D01*
X78402955Y-32574218D01*
X76724562Y-32291431D01*
X75041719Y-31986020D01*
X73277810Y-31642693D01*
X71356215Y-31246163D01*
X69200319Y-30781140D01*
X66733503Y-30232336D01*
X65955355Y-30058161D01*
X64202179Y-29676550D01*
X62750996Y-29383242D01*
X61540141Y-29170906D01*
X60507951Y-29032213D01*
X59592757Y-28959831D01*
X58732898Y-28946430D01*
X57866706Y-28984681D01*
X56932517Y-29067252D01*
X56849351Y-29075795D01*
X55856318Y-29162651D01*
X55185434Y-29182255D01*
X54769000Y-29133092D01*
X54539314Y-29013644D01*
X54363633Y-28731488D01*
X54496807Y-28386617D01*
X54619737Y-28250406D01*
X54862948Y-28129066D01*
X55279741Y-28043142D01*
X55945562Y-27978194D01*
X56935859Y-27919781D01*
X57203285Y-27906482D01*
X57995309Y-27874328D01*
X58712436Y-27864448D01*
X59406372Y-27884006D01*
X60128826Y-27940167D01*
X60931508Y-28040096D01*
X61866126Y-28190957D01*
X62984388Y-28399916D01*
X64338002Y-28674136D01*
X65978678Y-29020782D01*
X67958123Y-29447020D01*
X68567428Y-29578097D01*
X70354043Y-29955420D01*
X72158379Y-30327172D01*
X73898803Y-30677081D01*
X75493684Y-30988873D01*
X76861391Y-31246272D01*
X77920290Y-31433008D01*
X81297532Y-31994977D01*
X86776752Y-31509020D01*
X88672425Y-31327042D01*
X92387384Y-30894192D01*
X96086331Y-30367347D01*
X99692649Y-29759910D01*
X103129724Y-29085283D01*
X106320940Y-28356870D01*
X109189682Y-27588074D01*
X109816346Y-27405595D01*
X112070455Y-26761882D01*
X114344652Y-26130609D01*
X116571903Y-25529410D01*
X118685175Y-24975925D01*
X120617431Y-24487789D01*
X122301638Y-24082639D01*
X123670761Y-23778113D01*
X124120928Y-23683890D01*
X125380291Y-23418341D01*
X126613033Y-23155911D01*
X127697465Y-22922588D01*
X128511892Y-22744356D01*
X129344103Y-22576735D01*
X130925507Y-22332004D01*
X132607740Y-22149359D01*
X134308756Y-22032176D01*
X135946513Y-21983830D01*
X137438968Y-22007699D01*
G37*
G36*
X95540588Y-53608320D02*
G01*
X96352950Y-54233556D01*
X97815154Y-55190062D01*
X99265957Y-55881330D01*
X100828688Y-56360854D01*
X102626672Y-56682134D01*
X103031464Y-56736812D01*
X103764645Y-56841023D01*
X104287403Y-56922504D01*
X104506581Y-56967130D01*
X104519693Y-57018471D01*
X104421156Y-57340146D01*
X104219242Y-57791905D01*
X104183053Y-57872872D01*
X103852523Y-58525831D01*
X103476703Y-59208207D01*
X103102732Y-59829183D01*
X102777747Y-60297940D01*
X102092027Y-61077312D01*
X100688454Y-62311449D01*
X99084501Y-63364665D01*
X97404363Y-64147975D01*
X96927350Y-64299154D01*
X95613730Y-64550677D01*
X94124995Y-64658560D01*
X92601927Y-64616671D01*
X91185309Y-64418876D01*
X90932049Y-64363486D01*
X88915996Y-63756957D01*
X87109226Y-62880666D01*
X85437120Y-61691290D01*
X83825058Y-60145503D01*
X83070389Y-59329067D01*
X84473017Y-59329067D01*
X84488172Y-59358819D01*
X84708272Y-59606060D01*
X85134492Y-60026385D01*
X85695386Y-60548522D01*
X87208719Y-61709606D01*
X89098320Y-62705651D01*
X91129101Y-63352086D01*
X92262354Y-63547075D01*
X94294821Y-63620794D01*
X96242982Y-63343162D01*
X98064782Y-62730330D01*
X99718167Y-61798450D01*
X101161081Y-60563672D01*
X102351467Y-59042148D01*
X103065887Y-57913128D01*
X101659202Y-57635505D01*
X100939858Y-57477337D01*
X98580888Y-56709356D01*
X96423354Y-55603321D01*
X94487613Y-54169071D01*
X93379964Y-53197272D01*
X88919682Y-56202689D01*
X88897334Y-56217749D01*
X87720842Y-57015297D01*
X86662875Y-57741405D01*
X85766270Y-58365957D01*
X85073867Y-58858829D01*
X84628503Y-59189906D01*
X84473017Y-59329067D01*
X83070389Y-59329067D01*
X82827564Y-59066367D01*
X87572066Y-55856434D01*
X87746036Y-55738756D01*
X88987901Y-54900003D01*
X90140268Y-54123834D01*
X91154828Y-53442637D01*
X91983267Y-52888794D01*
X92577275Y-52494688D01*
X92888540Y-52292705D01*
X93460512Y-51938908D01*
X95540588Y-53608320D01*
G37*
G36*
X92194379Y-72928618D02*
G01*
X92133083Y-73333351D01*
X92009535Y-73934456D01*
X91944280Y-74245234D01*
X91720762Y-76382246D01*
X91857450Y-78560971D01*
X92338273Y-80705590D01*
X93147159Y-82740282D01*
X94268037Y-84589225D01*
X94348101Y-84691713D01*
X94775137Y-85156478D01*
X95378378Y-85741045D01*
X96091338Y-86388824D01*
X96847525Y-87043226D01*
X97371130Y-87475036D01*
X97580453Y-87647661D01*
X98223635Y-88145539D01*
X98710581Y-88480270D01*
X98974801Y-88595265D01*
X99002513Y-88576197D01*
X99235399Y-88317928D01*
X99672057Y-87784617D01*
X100052992Y-87304104D01*
X102963812Y-87304104D01*
X103090287Y-87341417D01*
X103588941Y-87337454D01*
X104397208Y-87252419D01*
X105464724Y-87094740D01*
X106741122Y-86872842D01*
X108176038Y-86595152D01*
X109719105Y-86270096D01*
X111319959Y-85906101D01*
X112238013Y-85690443D01*
X113502810Y-85396783D01*
X114612706Y-85143129D01*
X115509156Y-84942682D01*
X116133615Y-84808648D01*
X116427536Y-84754229D01*
X116668393Y-84824172D01*
X117135796Y-85162238D01*
X117698407Y-85726714D01*
X118170117Y-86229448D01*
X118554001Y-86586761D01*
X118762656Y-86716580D01*
X118776336Y-86714453D01*
X118984267Y-86487440D01*
X119131755Y-85969135D01*
X119200512Y-85260229D01*
X119172249Y-84461412D01*
X119006899Y-83595418D01*
X118475303Y-82423096D01*
X118244199Y-82092075D01*
X117555226Y-81317310D01*
X116706028Y-80542932D01*
X115824127Y-79879650D01*
X115037044Y-79438172D01*
X114410506Y-79174251D01*
X108644370Y-83204527D01*
X107445552Y-84045284D01*
X106210740Y-84917751D01*
X105122534Y-85693514D01*
X104217335Y-86346302D01*
X103531547Y-86849844D01*
X103101573Y-87177868D01*
X102963812Y-87304104D01*
X100052992Y-87304104D01*
X100285832Y-87010398D01*
X100735501Y-86433191D01*
X102215045Y-86433191D01*
X102266700Y-86401897D01*
X102600612Y-86176142D01*
X103218297Y-85749465D01*
X104091223Y-85141849D01*
X105190859Y-84373281D01*
X106488671Y-83463743D01*
X107956128Y-82433219D01*
X109564697Y-81301694D01*
X111285846Y-80089151D01*
X113091044Y-78815576D01*
X114331550Y-77939773D01*
X115632327Y-78599006D01*
X115742549Y-78654178D01*
X116343005Y-78927483D01*
X116761031Y-79071431D01*
X116911821Y-79055748D01*
X116894507Y-78990077D01*
X116721336Y-78630336D01*
X116428145Y-78142019D01*
X116253889Y-77896445D01*
X115371741Y-77010926D01*
X114219664Y-76248229D01*
X112898193Y-75665979D01*
X111507864Y-75321800D01*
X110604896Y-75188143D01*
X106808811Y-80221515D01*
X106386365Y-80781737D01*
X105453926Y-82018881D01*
X104595623Y-83158469D01*
X103844817Y-84156154D01*
X103234873Y-84967593D01*
X102799152Y-85548437D01*
X102571018Y-85854343D01*
X102489472Y-85966722D01*
X102263147Y-86306634D01*
X102215045Y-86433191D01*
X100735501Y-86433191D01*
X101050070Y-86029403D01*
X101938118Y-84875762D01*
X102923320Y-83583609D01*
X103979023Y-82187077D01*
X104236711Y-81844824D01*
X105308431Y-80422350D01*
X106321732Y-79078860D01*
X107246285Y-77854474D01*
X108051758Y-76789309D01*
X108707819Y-75923484D01*
X109184136Y-75297118D01*
X109450378Y-74950327D01*
X110112957Y-74101223D01*
X111204944Y-74236491D01*
X112610049Y-74505079D01*
X114225334Y-75080550D01*
X115623898Y-75890349D01*
X116763632Y-76902875D01*
X117602421Y-78086524D01*
X117925626Y-78949193D01*
X118098154Y-79409689D01*
X118184073Y-79724782D01*
X118486677Y-80483919D01*
X118846897Y-81091176D01*
X119160015Y-81523366D01*
X119814994Y-82748061D01*
X120201335Y-84019059D01*
X120230138Y-84350223D01*
X120309336Y-85260814D01*
X120129292Y-86397785D01*
X119651497Y-87354426D01*
X119634133Y-87377685D01*
X119385449Y-87776982D01*
X119363704Y-88121964D01*
X119553159Y-88614285D01*
X119757083Y-89232289D01*
X119929812Y-90172467D01*
X119994669Y-90908969D01*
X120020313Y-91200169D01*
X120015793Y-92159092D01*
X119903454Y-92892935D01*
X119751468Y-93275062D01*
X119386725Y-93955890D01*
X118940589Y-94629249D01*
X118580509Y-95090103D01*
X118233488Y-95483500D01*
X118037639Y-95641255D01*
X118029760Y-95640485D01*
X117766769Y-95560874D01*
X117169217Y-95360201D01*
X116273851Y-95051360D01*
X115117420Y-94647243D01*
X113736671Y-94160740D01*
X112168351Y-93604745D01*
X110449208Y-92992151D01*
X108615989Y-92335847D01*
X99449888Y-89046902D01*
X102766520Y-89046902D01*
X102775509Y-89056151D01*
X103035090Y-89170502D01*
X103621543Y-89398999D01*
X104494886Y-89726889D01*
X105615139Y-90139418D01*
X106942321Y-90621836D01*
X108436453Y-91159386D01*
X110057553Y-91737319D01*
X110447613Y-91875742D01*
X112059164Y-92447068D01*
X113546356Y-92973403D01*
X114867102Y-93439912D01*
X115979313Y-93831763D01*
X116840899Y-94134122D01*
X117409773Y-94332154D01*
X117643846Y-94411028D01*
X117767654Y-94394824D01*
X118077640Y-94130033D01*
X118418032Y-93641949D01*
X118722808Y-93033695D01*
X118925945Y-92408398D01*
X118978824Y-92058881D01*
X118966390Y-91017045D01*
X118772341Y-89855008D01*
X118427842Y-88723008D01*
X117964056Y-87771283D01*
X117683140Y-87352060D01*
X117216790Y-86734159D01*
X116822536Y-86295717D01*
X116316108Y-85824718D01*
X109573549Y-87396003D01*
X108258253Y-87703760D01*
X106780379Y-88052735D01*
X105467644Y-88366191D01*
X104364969Y-88633228D01*
X103517277Y-88842956D01*
X102969487Y-88984479D01*
X102766520Y-89046902D01*
X99449888Y-89046902D01*
X99356509Y-89013396D01*
X97342509Y-88985008D01*
X96895340Y-88975037D01*
X95865447Y-88929130D01*
X94914672Y-88859172D01*
X94203450Y-88775851D01*
X94096102Y-88758194D01*
X91757690Y-88169914D01*
X89520791Y-87228769D01*
X87431528Y-85971882D01*
X85536021Y-84436376D01*
X83880392Y-82659373D01*
X82510762Y-80677997D01*
X81473252Y-78529369D01*
X81444651Y-78454762D01*
X81109069Y-77510005D01*
X80847152Y-76662440D01*
X82091812Y-76662440D01*
X82216137Y-77113534D01*
X82520129Y-77870193D01*
X82688194Y-78268301D01*
X83512225Y-79958685D01*
X84439051Y-81396255D01*
X85556652Y-82702660D01*
X86953005Y-83999545D01*
X88149233Y-84932751D01*
X90098589Y-86132125D01*
X92104108Y-87000720D01*
X94101850Y-87507167D01*
X94253489Y-87531922D01*
X94831685Y-87635526D01*
X95219715Y-87718783D01*
X95256994Y-87697241D01*
X95131281Y-87466857D01*
X94794725Y-87039683D01*
X94290716Y-86473865D01*
X94166955Y-86338861D01*
X92910107Y-84701555D01*
X91876616Y-82855239D01*
X91102902Y-80890745D01*
X90625382Y-78898907D01*
X90480477Y-76970557D01*
X90484566Y-76698017D01*
X90486650Y-75976293D01*
X90475004Y-75459455D01*
X90451280Y-75244992D01*
X90413266Y-75243566D01*
X90092305Y-75326533D01*
X89521817Y-75511959D01*
X88791629Y-75771356D01*
X87773470Y-76096601D01*
X86129074Y-76444660D01*
X84528798Y-76586047D01*
X83109825Y-76503093D01*
X83075014Y-76497637D01*
X82493432Y-76418983D01*
X82174970Y-76452420D01*
X82091812Y-76662440D01*
X80847152Y-76662440D01*
X80823696Y-76586536D01*
X80605420Y-75755428D01*
X80471136Y-75087753D01*
X80437730Y-74654583D01*
X80522096Y-74526994D01*
X82265367Y-75026415D01*
X83862711Y-75301025D01*
X85334983Y-75327749D01*
X86777305Y-75108012D01*
X88284805Y-74643242D01*
X88417287Y-74593178D01*
X89356928Y-74211305D01*
X90284512Y-73796206D01*
X91016851Y-73429281D01*
X91539335Y-73145634D01*
X91987012Y-72911268D01*
X92187322Y-72818322D01*
X92194379Y-72928618D01*
G37*
G36*
X125201391Y-39615127D02*
G01*
X125723779Y-39845913D01*
X126058046Y-40299451D01*
X126141502Y-40858753D01*
X125911453Y-41406829D01*
X125726704Y-41581345D01*
X125199724Y-41768379D01*
X124640334Y-41685009D01*
X124181846Y-41368744D01*
X123957571Y-40857090D01*
X124058914Y-40320294D01*
X124429427Y-39843828D01*
X124949552Y-39611828D01*
X125201391Y-39615127D01*
G37*
G36*
X105438054Y-41690777D02*
G01*
X105668738Y-41912102D01*
X105964012Y-42369725D01*
X106378411Y-43125664D01*
X107259249Y-44595379D01*
X108755790Y-46479561D01*
X110495984Y-48055762D01*
X112464226Y-49310570D01*
X114644913Y-50230574D01*
X115535378Y-50522542D01*
X115256117Y-50886834D01*
X114954577Y-51280186D01*
X114545725Y-51762423D01*
X113480233Y-52762731D01*
X112191973Y-53732248D01*
X110794321Y-54597290D01*
X109400655Y-55284174D01*
X108124350Y-55719215D01*
X107309738Y-55881765D01*
X105951564Y-56046069D01*
X104596739Y-56103399D01*
X103432275Y-56040931D01*
X101808617Y-55720517D01*
X99762909Y-55005448D01*
X97792775Y-53988511D01*
X95975526Y-52717880D01*
X94388470Y-51241727D01*
X93108918Y-49608225D01*
X92761542Y-49041621D01*
X92350333Y-48307552D01*
X91967753Y-47568686D01*
X91791967Y-47197468D01*
X93022796Y-47197468D01*
X93045463Y-47493939D01*
X93204826Y-47846494D01*
X93470199Y-48279452D01*
X93810896Y-48817132D01*
X94633584Y-49971105D01*
X96060549Y-51459546D01*
X97740758Y-52758544D01*
X99596777Y-53818629D01*
X101551172Y-54590332D01*
X103526512Y-55024181D01*
X105284628Y-55099670D01*
X107322721Y-54837943D01*
X109301621Y-54222876D01*
X111153458Y-53276428D01*
X112810368Y-52020555D01*
X113277935Y-51579943D01*
X113630934Y-51219069D01*
X113763009Y-51043766D01*
X113636590Y-50949935D01*
X113226851Y-50749707D01*
X112633122Y-50500128D01*
X111536618Y-49987294D01*
X109810330Y-48840153D01*
X108168075Y-47316306D01*
X106621108Y-45426810D01*
X105180687Y-43182715D01*
X105137018Y-43111782D01*
X105050814Y-43027534D01*
X104908059Y-42986349D01*
X104668314Y-42998436D01*
X104291142Y-43074007D01*
X103736106Y-43223274D01*
X102962769Y-43456448D01*
X101930695Y-43783741D01*
X100599445Y-44215363D01*
X98928585Y-44761527D01*
X97475866Y-45234618D01*
X96033938Y-45705257D01*
X94912826Y-46086074D01*
X94081842Y-46401384D01*
X93510299Y-46675509D01*
X93167513Y-46932764D01*
X93022796Y-47197468D01*
X91791967Y-47197468D01*
X91657063Y-46912583D01*
X91461526Y-46426800D01*
X91424403Y-46198897D01*
X91425265Y-46198045D01*
X91637052Y-46112860D01*
X92175188Y-45921769D01*
X92987493Y-45642073D01*
X94021788Y-45291075D01*
X95225895Y-44886077D01*
X96547635Y-44444381D01*
X97934829Y-43983289D01*
X99335298Y-43520102D01*
X100696862Y-43072123D01*
X101967344Y-42656653D01*
X103094565Y-42290995D01*
X104026346Y-41992451D01*
X104710506Y-41778322D01*
X105094869Y-41665911D01*
X105217428Y-41643727D01*
X105438054Y-41690777D01*
G37*
G36*
X86291623Y-64013205D02*
G01*
X86394771Y-64067463D01*
X87412492Y-64532037D01*
X88618407Y-64991252D01*
X89833509Y-65381637D01*
X90878798Y-65639720D01*
X91597284Y-65733336D01*
X92802518Y-65754026D01*
X94313563Y-65647382D01*
X96529437Y-65423941D01*
X96183602Y-66219433D01*
X96082562Y-66445000D01*
X95894040Y-66776522D01*
X95058932Y-68245085D01*
X93737369Y-69906912D01*
X92186066Y-71365246D01*
X90473213Y-72554846D01*
X88667002Y-73410477D01*
X87871247Y-73656140D01*
X86621371Y-73929639D01*
X85300407Y-74119776D01*
X84056529Y-74206558D01*
X83037912Y-74169992D01*
X82646358Y-74105247D01*
X81826851Y-73912402D01*
X81023337Y-73667697D01*
X80469937Y-73444977D01*
X79739632Y-73093613D01*
X79009971Y-72695904D01*
X78371861Y-72304745D01*
X77916211Y-71973033D01*
X77733925Y-71753666D01*
X77736133Y-71744795D01*
X77861923Y-71586216D01*
X79334451Y-71586216D01*
X79409175Y-71696621D01*
X79775215Y-71944660D01*
X80356213Y-72242288D01*
X81051042Y-72543450D01*
X81758576Y-72802089D01*
X82377682Y-72972151D01*
X82467073Y-72988918D01*
X83223254Y-73070696D01*
X84166089Y-73103102D01*
X85112883Y-73078997D01*
X86801108Y-72852214D01*
X88757384Y-72239687D01*
X90596103Y-71251676D01*
X92335626Y-69880050D01*
X92738355Y-69478708D01*
X93273347Y-68885710D01*
X93805722Y-68246768D01*
X94267965Y-67646531D01*
X94592558Y-67169646D01*
X94711982Y-66900762D01*
X94700081Y-66886379D01*
X94432135Y-66837558D01*
X93883929Y-66810782D01*
X93151795Y-66811558D01*
X91377690Y-66739930D01*
X89435459Y-66375377D01*
X87444652Y-65683515D01*
X86675769Y-65366528D01*
X86180585Y-65193577D01*
X85868151Y-65153572D01*
X85645719Y-65234670D01*
X85420542Y-65425025D01*
X84966053Y-65858147D01*
X84299577Y-66507996D01*
X83530307Y-67268867D01*
X82706665Y-68091747D01*
X81877067Y-68927616D01*
X81089935Y-69727458D01*
X80393688Y-70442257D01*
X79836745Y-71022993D01*
X79467526Y-71420652D01*
X79334451Y-71586216D01*
X77861923Y-71586216D01*
X77905641Y-71531102D01*
X78319171Y-71079354D01*
X78940814Y-70426857D01*
X79734662Y-69610921D01*
X80664805Y-68668852D01*
X81695333Y-67637957D01*
X85673499Y-63681685D01*
X86291623Y-64013205D01*
G37*
%TD*%
D14*
%TO.C,U1*%
X157175200Y-24033950D03*
D15*
X157175200Y-26573950D03*
X157175200Y-29113950D03*
X157175200Y-31653950D03*
X157175200Y-34193950D03*
X157175200Y-36733950D03*
X157175200Y-39273950D03*
X157175200Y-41813950D03*
X157175200Y-44353950D03*
X157175200Y-46893950D03*
X157175200Y-49433950D03*
X157175200Y-51973950D03*
X141935200Y-51973950D03*
X141935200Y-49433950D03*
X141935200Y-46893950D03*
X141935200Y-44353950D03*
X141935200Y-41813950D03*
X141935200Y-39273950D03*
X141935200Y-36733950D03*
X141935200Y-34193950D03*
X141935200Y-31653950D03*
X141935200Y-29113950D03*
X141935200Y-26573950D03*
X141935200Y-24033950D03*
%TD*%
M02*
