M48
; DRILL file {KiCad (6.0.0-0)} date 2022 February 04, Friday 21:27:01
; FORMAT={-:-/ absolute / inch / decimal}
; #@! TF.CreationDate,2022-02-04T21:27:01+07:00
; #@! TF.GenerationSoftware,Kicad,Pcbnew,(6.0.0-0)
; #@! TF.FileFunction,Plated,1,2,PTH
FMAT,2
INCH
; #@! TA.AperFunction,Plated,PTH,ComponentDrill
T1C0.0390
; #@! TA.AperFunction,Plated,PTH,ComponentDrill
T2C0.0400
; #@! TA.AperFunction,Plated,PTH,ComponentDrill
T3C0.0430
; #@! TA.AperFunction,Plated,PTH,ComponentDrill
T4C0.0591
%
G90
G05
T1
X1.5881Y-2.2778
X1.6657Y-2.5676
X1.7851Y-2.9979
X1.8628Y-3.2876
X1.9772Y-3.7248
X2.0549Y-4.0146
X2.4184Y-2.0919
X2.4808Y-2.3854
X2.5719Y-2.8259
X2.6343Y-3.1193
X2.7297Y-3.5614
X2.7921Y-3.8549
X3.1321Y-1.3449
X3.179Y-1.6412
X3.2509Y-2.0833
X3.2978Y-2.3796
X3.366Y-2.8261
X3.413Y-3.1224
X3.9783Y-1.1566
X4.0097Y-1.4549
X4.0604Y-1.9007
X4.0918Y-2.199
X4.1387Y-2.647
X4.17Y-2.9454
X4.8527Y-1.2005
X4.8684Y-1.5001
X4.8878Y-1.9457
X4.9035Y-2.2453
X4.9068Y-3.8099
X4.9172Y-3.5101
X4.9311Y-2.6965
X4.9468Y-2.9961
X5.6603Y-3.8852
X5.6917Y-3.5868
X5.716Y-1.192
X5.716Y-1.492
X5.718Y-1.946
X5.718Y-2.246
X5.722Y-2.694
X5.722Y-2.994
X6.402Y-4.014
X6.4541Y-3.7186
T2
X6.006Y-2.466
X6.006Y-2.566
X6.006Y-2.666
X6.006Y-2.766
X6.006Y-2.866
X6.106Y-2.466
X6.106Y-2.566
X6.106Y-2.666
X6.106Y-2.766
X6.106Y-2.866
X6.272Y-2.466
X6.272Y-2.566
X6.272Y-2.666
X6.272Y-2.766
X6.272Y-2.866
X6.372Y-2.466
X6.372Y-2.566
X6.372Y-2.666
X6.372Y-2.766
X6.372Y-2.866
T3
X5.888Y-0.9462
X5.888Y-1.0462
X5.888Y-1.1462
X5.888Y-1.2462
X5.888Y-1.3462
X5.888Y-1.4462
X5.888Y-1.5462
X5.888Y-1.6462
X5.888Y-1.7462
X5.888Y-1.8462
X5.888Y-1.9462
X5.888Y-2.0462
X6.488Y-0.9462
X6.488Y-1.0462
X6.488Y-1.1462
X6.488Y-1.2462
X6.488Y-1.3462
X6.488Y-1.4462
X6.488Y-1.5462
X6.488Y-1.6462
X6.488Y-1.7462
X6.488Y-1.8462
X6.488Y-1.9462
X6.488Y-2.0462
T4
X1.1634Y-2.4955
X1.2126Y-2.5443
X1.3572Y-3.2156
X1.4042Y-2.493
X1.4063Y-3.2644
X1.4224Y-2.4261
X1.5513Y-3.9401
X1.598Y-3.213
X1.6004Y-3.9888
X1.6161Y-3.1462
X1.7921Y-3.9375
X1.8103Y-3.8707
X1.9797Y-2.2862
X2.0262Y-2.3375
X2.1356Y-3.0198
X2.1822Y-3.0711
X2.2203Y-2.2962
X2.242Y-2.2304
X2.2916Y-3.7534
X2.3381Y-3.8047
X2.3763Y-3.0298
X2.3979Y-2.9641
X2.5322Y-3.7634
X2.5538Y-3.6977
X2.6865Y-1.5136
X2.7302Y-1.5672
X2.8038Y-2.2544
X2.8476Y-2.308
X2.9211Y-2.9951
X2.9262Y-1.5362
X2.9513Y-1.4716
X2.9649Y-3.0488
X3.0435Y-2.277
X3.0686Y-2.2124
X3.1609Y-3.0177
X3.1859Y-2.9532
X3.5257Y-1.3
X3.5666Y-1.3559
X3.6041Y-2.0459
X3.645Y-2.1018
X3.6825Y-2.7918
X3.7234Y-2.8477
X3.7639Y-1.3352
X3.7923Y-1.272
X3.8423Y-2.0811
X3.8707Y-2.0179
X3.9207Y-2.827
X3.9491Y-2.7638
X4.3904Y-1.3216
X4.4283Y-1.3796
X4.4296Y-2.0706
X4.4493Y-3.5888
X4.4675Y-2.1285
X4.4689Y-2.8196
X4.4821Y-3.6498
X4.5068Y-2.8775
X4.6264Y-1.3692
X4.6581Y-1.3076
X4.6657Y-2.1182
X4.6804Y-3.6567
X4.6974Y-2.0566
X4.7049Y-2.8671
X4.7173Y-3.5982
X4.7366Y-2.8055
X5.2158Y-3.6328
X5.2442Y-3.696
X5.2537Y-1.2936
X5.2537Y-2.0436
X5.2537Y-2.7936
X5.2886Y-1.3534
X5.2886Y-2.1034
X5.2886Y-2.8534
X5.4415Y-3.7167
X5.4824Y-3.6609
X5.487Y-1.3534
X5.487Y-2.1034
X5.487Y-2.8534
X5.5218Y-1.2936
X5.5218Y-2.0436
X5.5218Y-2.7936
X5.9776Y-3.7315
X6.0015Y-3.7965
X6.197Y-3.8309
X6.2417Y-3.7781
T0
M30
