%TF.GenerationSoftware,KiCad,Pcbnew,(6.0.0-0)*%
%TF.CreationDate,2022-02-04T21:27:05+07:00*%
%TF.ProjectId,kibod-01-mirrored-rev2,6b69626f-642d-4303-912d-6d6972726f72,rev?*%
%TF.SameCoordinates,Original*%
%TF.FileFunction,Legend,Bot*%
%TF.FilePolarity,Positive*%
%FSLAX46Y46*%
G04 Gerber Fmt 4.6, Leading zero omitted, Abs format (unit mm)*
G04 Created by KiCad (PCBNEW (6.0.0-0)) date 2022-02-04 21:27:05*
%MOMM*%
%LPD*%
G01*
G04 APERTURE LIST*
%ADD10C,0.150000*%
%ADD11C,0.127000*%
%ADD12C,0.381000*%
%ADD13C,0.203200*%
%ADD14R,1.752600X1.752600*%
%ADD15C,1.752600*%
G04 APERTURE END LIST*
D10*
X105076904Y-94753057D02*
X105105156Y-95562087D01*
X105156070Y-95655606D01*
X105205321Y-95701534D01*
X105302163Y-95745800D01*
X105444934Y-95740814D01*
X105538452Y-95689901D01*
X105098508Y-95371727D02*
X105195350Y-95415994D01*
X105385710Y-95409346D01*
X105479229Y-95358432D01*
X105525157Y-95309180D01*
X105569423Y-95212338D01*
X105559452Y-94926798D01*
X105508538Y-94833280D01*
X105459286Y-94787352D01*
X105362444Y-94743086D01*
X105172084Y-94749733D01*
X105078566Y-94800647D01*
X104624270Y-95435936D02*
X104601003Y-94769676D01*
X104589370Y-94436545D02*
X104638622Y-94482474D01*
X104592694Y-94531725D01*
X104543442Y-94485797D01*
X104589370Y-94436545D01*
X104592694Y-94531725D01*
X104267873Y-94781309D02*
X103887153Y-94794604D01*
X104113470Y-94453164D02*
X104143384Y-95309785D01*
X104099117Y-95406627D01*
X104005599Y-95457541D01*
X103910419Y-95460864D01*
X103577289Y-95472498D02*
X103542389Y-94473107D01*
X103148978Y-95487454D02*
X103130698Y-94963964D01*
X103174964Y-94867122D01*
X103268482Y-94816208D01*
X103411252Y-94811223D01*
X103508094Y-94855489D01*
X103557346Y-94901417D01*
X102221501Y-94852770D02*
X102244768Y-95519030D01*
X102649812Y-94837813D02*
X102668092Y-95361303D01*
X102623826Y-95458145D01*
X102530308Y-95509059D01*
X102387538Y-95514045D01*
X102290696Y-95469778D01*
X102241444Y-95423850D01*
X101768867Y-95535649D02*
X101733968Y-94536258D01*
X101747263Y-94916979D02*
X101650421Y-94872712D01*
X101460061Y-94879360D01*
X101366543Y-94930274D01*
X101320614Y-94979525D01*
X101276348Y-95076367D01*
X101286319Y-95361908D01*
X101337233Y-95455426D01*
X101386485Y-95501354D01*
X101483327Y-95545620D01*
X101673687Y-95538973D01*
X101767205Y-95488059D01*
X100861333Y-95472045D02*
X100815405Y-95521297D01*
X100864657Y-95567225D01*
X100910585Y-95517973D01*
X100861333Y-95472045D01*
X100864657Y-95567225D01*
X99958784Y-95551210D02*
X100055626Y-95595477D01*
X100245986Y-95588829D01*
X100339504Y-95537915D01*
X100385432Y-95488663D01*
X100429699Y-95391822D01*
X100419727Y-95106281D01*
X100368814Y-95012763D01*
X100319562Y-94966835D01*
X100222720Y-94922569D01*
X100032360Y-94929216D01*
X99938841Y-94980130D01*
X99389365Y-95618743D02*
X99482884Y-95567829D01*
X99528812Y-95518577D01*
X99573078Y-95421735D01*
X99563107Y-95136195D01*
X99512193Y-95042677D01*
X99462941Y-94996749D01*
X99366099Y-94952483D01*
X99223329Y-94957468D01*
X99129811Y-95008382D01*
X99083883Y-95057634D01*
X99039616Y-95154476D01*
X99049588Y-95440016D01*
X99100501Y-95533534D01*
X99149753Y-95579462D01*
X99246595Y-95623729D01*
X99389365Y-95618743D01*
X98627925Y-95645333D02*
X98604658Y-94979073D01*
X98607982Y-95074253D02*
X98558730Y-95028325D01*
X98461888Y-94984058D01*
X98319118Y-94989044D01*
X98225600Y-95039958D01*
X98181334Y-95136800D01*
X98199614Y-95660290D01*
X98181334Y-95136800D02*
X98130420Y-95043281D01*
X98033578Y-94999015D01*
X97890808Y-95004001D01*
X97797290Y-95054915D01*
X97753023Y-95151757D01*
X97771304Y-95675247D01*
X96544992Y-94669813D02*
X97446483Y-95924830D01*
X95691695Y-94794907D02*
X95785213Y-94743993D01*
X95927983Y-94739008D01*
X96072415Y-94781612D01*
X96170919Y-94873468D01*
X96221833Y-94966987D01*
X96276070Y-95155685D01*
X96281056Y-95298455D01*
X96240113Y-95490477D01*
X96195847Y-95587319D01*
X96103991Y-95685823D01*
X95962883Y-95738398D01*
X95867702Y-95741722D01*
X95723270Y-95699118D01*
X95674019Y-95653190D01*
X95662385Y-95320059D01*
X95852746Y-95313412D01*
X95249032Y-95763327D02*
X95225766Y-95097066D01*
X95232413Y-95287426D02*
X95181499Y-95193908D01*
X95132247Y-95147980D01*
X95035405Y-95103714D01*
X94940225Y-95107037D01*
X94247979Y-95750636D02*
X94344821Y-95794902D01*
X94535181Y-95788255D01*
X94628700Y-95737341D01*
X94672966Y-95640499D01*
X94659671Y-95259779D01*
X94608757Y-95166261D01*
X94511915Y-95121994D01*
X94321555Y-95128642D01*
X94228037Y-95179556D01*
X94183770Y-95276398D01*
X94187094Y-95371578D01*
X94666318Y-95450139D01*
X93391359Y-95780550D02*
X93488200Y-95824816D01*
X93678561Y-95818169D01*
X93772079Y-95767255D01*
X93816345Y-95670413D01*
X93803050Y-95289693D01*
X93752136Y-95196174D01*
X93655294Y-95151908D01*
X93464934Y-95158556D01*
X93371416Y-95209470D01*
X93327150Y-95306312D01*
X93330473Y-95401492D01*
X93809698Y-95480053D01*
X92893854Y-95178498D02*
X92917120Y-95844759D01*
X92897177Y-95273678D02*
X92847926Y-95227750D01*
X92751084Y-95183484D01*
X92608313Y-95188470D01*
X92514795Y-95239383D01*
X92470529Y-95336225D01*
X92488810Y-95859716D01*
X92012909Y-95876335D02*
X91978010Y-94876944D01*
X91669808Y-95602428D01*
X91311749Y-94900210D01*
X91346649Y-95899601D01*
X90442438Y-95931177D02*
X90424157Y-95407686D01*
X90468424Y-95310844D01*
X90561942Y-95259930D01*
X90752302Y-95253283D01*
X90849144Y-95297549D01*
X90440776Y-95883587D02*
X90537618Y-95927853D01*
X90775568Y-95919543D01*
X90869086Y-95868630D01*
X90913353Y-95771788D01*
X90910029Y-95676608D01*
X90859115Y-95583089D01*
X90762273Y-95538823D01*
X90524323Y-95547133D01*
X90427481Y-95502866D01*
X90012466Y-95898544D02*
X89918948Y-95949457D01*
X89728587Y-95956105D01*
X89631745Y-95911839D01*
X89580832Y-95818320D01*
X89579170Y-95770730D01*
X89623436Y-95673888D01*
X89716954Y-95622975D01*
X89859724Y-95617989D01*
X89953243Y-95567075D01*
X89997509Y-95470233D01*
X89995847Y-95422643D01*
X89944933Y-95329125D01*
X89848091Y-95284859D01*
X89705321Y-95289844D01*
X89611803Y-95340758D01*
X89157507Y-95976047D02*
X89122607Y-94976657D01*
X88729197Y-95991004D02*
X88710916Y-95467514D01*
X88755182Y-95370672D01*
X88848700Y-95319758D01*
X88991470Y-95314773D01*
X89088312Y-95359039D01*
X89137564Y-95404967D01*
X87870914Y-95973328D02*
X87967756Y-96017594D01*
X88158116Y-96010947D01*
X88251634Y-95960033D01*
X88295901Y-95863191D01*
X88282605Y-95482471D01*
X88231692Y-95388953D01*
X88134850Y-95344686D01*
X87944490Y-95351334D01*
X87850971Y-95402248D01*
X87806705Y-95499090D01*
X87810029Y-95594270D01*
X88289253Y-95672831D01*
X86968365Y-96052494D02*
X86933466Y-95053103D01*
X86966703Y-96004904D02*
X87063545Y-96049170D01*
X87253905Y-96042523D01*
X87347424Y-95991609D01*
X87393352Y-95942357D01*
X87437618Y-95845515D01*
X87427647Y-95559975D01*
X87376733Y-95466457D01*
X87327481Y-95420528D01*
X87230639Y-95376262D01*
X87040279Y-95382910D01*
X86946761Y-95433823D01*
X86492465Y-96069113D02*
X86457565Y-95069722D01*
X86076845Y-95083017D01*
X85983327Y-95133931D01*
X85937399Y-95183183D01*
X85893132Y-95280025D01*
X85898118Y-95422795D01*
X85949032Y-95516313D01*
X85998284Y-95562241D01*
X86095126Y-95606507D01*
X86475846Y-95593212D01*
X85350304Y-96108998D02*
X85443822Y-96058084D01*
X85489750Y-96008832D01*
X85534016Y-95911990D01*
X85524045Y-95626450D01*
X85473131Y-95532932D01*
X85423879Y-95487004D01*
X85327037Y-95442737D01*
X85184267Y-95447723D01*
X85090749Y-95498637D01*
X85044821Y-95547889D01*
X85000555Y-95644731D01*
X85010526Y-95930271D01*
X85061440Y-96023789D01*
X85110692Y-96069717D01*
X85207534Y-96113984D01*
X85350304Y-96108998D01*
X84708367Y-95464342D02*
X84327647Y-95477637D01*
X84553964Y-95136197D02*
X84583877Y-95992818D01*
X84539611Y-96089660D01*
X84446093Y-96140574D01*
X84350913Y-96143897D01*
X83589472Y-96170487D02*
X83571192Y-95646997D01*
X83615458Y-95550155D01*
X83708976Y-95499241D01*
X83899336Y-95492594D01*
X83996178Y-95536860D01*
X83587810Y-96122897D02*
X83684652Y-96167164D01*
X83922603Y-96158854D01*
X84016121Y-96107941D01*
X84060387Y-96011099D01*
X84057063Y-95915918D01*
X84006149Y-95822400D01*
X83909308Y-95778134D01*
X83671357Y-95786443D01*
X83574515Y-95742177D01*
X83233076Y-95515860D02*
X82852355Y-95529155D01*
X83078672Y-95187715D02*
X83108586Y-96044336D01*
X83064320Y-96141178D01*
X82970802Y-96192092D01*
X82875622Y-96195416D01*
X82399721Y-96212035D02*
X82493240Y-96161121D01*
X82539168Y-96111869D01*
X82583434Y-96015027D01*
X82573463Y-95729487D01*
X82522549Y-95635968D01*
X82473297Y-95590040D01*
X82376455Y-95545774D01*
X82233685Y-95550760D01*
X82140167Y-95601673D01*
X82094238Y-95650925D01*
X82049972Y-95747767D01*
X82059944Y-96033308D01*
X82110857Y-96126826D01*
X82160109Y-96172754D01*
X82256951Y-96217020D01*
X82399721Y-96212035D01*
X80887869Y-95216572D02*
X81789360Y-96471589D01*
X80591300Y-96275186D02*
X80556400Y-95275795D01*
X80482825Y-95897789D02*
X80210579Y-96288481D01*
X80187313Y-95622220D02*
X80581329Y-95989646D01*
X79782269Y-96303438D02*
X79759003Y-95637177D01*
X79747370Y-95304047D02*
X79796622Y-95349975D01*
X79750693Y-95399227D01*
X79701441Y-95353299D01*
X79747370Y-95304047D01*
X79750693Y-95399227D01*
X79306369Y-96320057D02*
X79271469Y-95320666D01*
X79284764Y-95701386D02*
X79187922Y-95657120D01*
X78997562Y-95663768D01*
X78904044Y-95714681D01*
X78858116Y-95763933D01*
X78813850Y-95860775D01*
X78823821Y-96146315D01*
X78874735Y-96239834D01*
X78923987Y-96285762D01*
X79020829Y-96330028D01*
X79211189Y-96323381D01*
X79304707Y-96272467D01*
X78259388Y-96356618D02*
X78352906Y-96305704D01*
X78398834Y-96256452D01*
X78443101Y-96159610D01*
X78433129Y-95874070D01*
X78382215Y-95780552D01*
X78332964Y-95734624D01*
X78236122Y-95690358D01*
X78093351Y-95695343D01*
X77999833Y-95746257D01*
X77953905Y-95795509D01*
X77909639Y-95892351D01*
X77919610Y-96177891D01*
X77970524Y-96271409D01*
X78019776Y-96317338D01*
X78116618Y-96361604D01*
X78259388Y-96356618D01*
X77069637Y-96398165D02*
X77034737Y-95398774D01*
X77067975Y-96350575D02*
X77164817Y-96394841D01*
X77355177Y-96388194D01*
X77448695Y-96337280D01*
X77494623Y-96288028D01*
X77538890Y-96191186D01*
X77528918Y-95905646D01*
X77478005Y-95812128D01*
X77428753Y-95766200D01*
X77331911Y-95721933D01*
X77141551Y-95728581D01*
X77048032Y-95779495D01*
X76580441Y-96034064D02*
X75819001Y-96060654D01*
X75131136Y-95465250D02*
X75035956Y-95468573D01*
X74942438Y-95519487D01*
X74896509Y-95568739D01*
X74852243Y-95665581D01*
X74811301Y-95857603D01*
X74819610Y-96095553D01*
X74873848Y-96284252D01*
X74924761Y-96377770D01*
X74974013Y-96423698D01*
X75070855Y-96467964D01*
X75166035Y-96464640D01*
X75259554Y-96413727D01*
X75305482Y-96364475D01*
X75349748Y-96267633D01*
X75390690Y-96075611D01*
X75382381Y-95837660D01*
X75328144Y-95648962D01*
X75277230Y-95555444D01*
X75227978Y-95509516D01*
X75131136Y-95465250D01*
X73881104Y-96509511D02*
X74452185Y-96489569D01*
X74166644Y-96499540D02*
X74131745Y-95500149D01*
X74231911Y-95639595D01*
X74330415Y-95731452D01*
X74427257Y-95775718D01*
X99027413Y-97237518D02*
X98992514Y-96238127D01*
X98456333Y-97257460D02*
X98864701Y-96671423D01*
X98421433Y-96258069D02*
X99012456Y-96809207D01*
X98028022Y-97272417D02*
X98004756Y-96606157D01*
X97993123Y-96273026D02*
X98042375Y-96318955D01*
X97996447Y-96368206D01*
X97947195Y-96322278D01*
X97993123Y-96273026D01*
X97996447Y-96368206D01*
X97552122Y-97289036D02*
X97517223Y-96289645D01*
X97530518Y-96670365D02*
X97433676Y-96626099D01*
X97243315Y-96632747D01*
X97149797Y-96683661D01*
X97103869Y-96732912D01*
X97059603Y-96829754D01*
X97069574Y-97115295D01*
X97120488Y-97208813D01*
X97169740Y-97254741D01*
X97266582Y-97299007D01*
X97456942Y-97292360D01*
X97550460Y-97241446D01*
X96505141Y-97325597D02*
X96598659Y-97274684D01*
X96644587Y-97225432D01*
X96688854Y-97128590D01*
X96678882Y-96843049D01*
X96627969Y-96749531D01*
X96578717Y-96703603D01*
X96481875Y-96659337D01*
X96339105Y-96664322D01*
X96245586Y-96715236D01*
X96199658Y-96764488D01*
X96155392Y-96861330D01*
X96165363Y-97146870D01*
X96216277Y-97240389D01*
X96265529Y-97286317D01*
X96362371Y-97330583D01*
X96505141Y-97325597D01*
X95315390Y-97367144D02*
X95280491Y-96367754D01*
X95313728Y-97319554D02*
X95410570Y-97363821D01*
X95600930Y-97357173D01*
X95694449Y-97306259D01*
X95740377Y-97257007D01*
X95784643Y-97160165D01*
X95774672Y-96874625D01*
X95723758Y-96781107D01*
X95674506Y-96735179D01*
X95577664Y-96690913D01*
X95387304Y-96697560D01*
X95293786Y-96748474D01*
X94826195Y-97003043D02*
X94064754Y-97029633D01*
X93376889Y-96434229D02*
X93281709Y-96437553D01*
X93188191Y-96488466D01*
X93142263Y-96537718D01*
X93097996Y-96634560D01*
X93057054Y-96826582D01*
X93065363Y-97064532D01*
X93119601Y-97253231D01*
X93170515Y-97346749D01*
X93219767Y-97392677D01*
X93316609Y-97436943D01*
X93411789Y-97433620D01*
X93505307Y-97382706D01*
X93551235Y-97333454D01*
X93595501Y-97236612D01*
X93636444Y-97044590D01*
X93628134Y-96806640D01*
X93573897Y-96617941D01*
X93522983Y-96524423D01*
X93473731Y-96478495D01*
X93376889Y-96434229D01*
X92126858Y-97478490D02*
X92697938Y-97458548D01*
X92412398Y-97468519D02*
X92377498Y-96469128D01*
X92477664Y-96608575D01*
X92576168Y-96700431D01*
X92673010Y-96744697D01*
X90937107Y-97520037D02*
X90913840Y-96853777D01*
X90920488Y-97044137D02*
X90869574Y-96950619D01*
X90820322Y-96904691D01*
X90723480Y-96860424D01*
X90628300Y-96863748D01*
X89936054Y-97507347D02*
X90032896Y-97551613D01*
X90223256Y-97544966D01*
X90316774Y-97494052D01*
X90361040Y-97397210D01*
X90347745Y-97016490D01*
X90296832Y-96922971D01*
X90199990Y-96878705D01*
X90009629Y-96885353D01*
X89916111Y-96936266D01*
X89871845Y-97033108D01*
X89875169Y-97128288D01*
X90354393Y-97206850D01*
X89533729Y-96901971D02*
X89319045Y-97576541D01*
X89057829Y-96918590D01*
X88716389Y-96692273D02*
X88667137Y-96646345D01*
X88570295Y-96602079D01*
X88332345Y-96610388D01*
X88238827Y-96661302D01*
X88192899Y-96710554D01*
X88148632Y-96807396D01*
X88151956Y-96902576D01*
X88204532Y-97043684D01*
X88795555Y-97594822D01*
X88176884Y-97616427D01*
X86987133Y-97657974D02*
X86952234Y-96658583D01*
X86965529Y-97039303D02*
X86868687Y-96995037D01*
X86678327Y-97001684D01*
X86584808Y-97052598D01*
X86538880Y-97101850D01*
X86494614Y-97198692D01*
X86504585Y-97484232D01*
X86555499Y-97577750D01*
X86604751Y-97623679D01*
X86701593Y-97667945D01*
X86891953Y-97661297D01*
X86985471Y-97610383D01*
X86154836Y-97019965D02*
X85940152Y-97694535D01*
X85678936Y-97036584D02*
X85940152Y-97694535D01*
X86043642Y-97929161D01*
X86092894Y-97975090D01*
X86189736Y-98019356D01*
X84560041Y-97742729D02*
X84525142Y-96743339D01*
X84216940Y-97468822D01*
X83858881Y-96766605D01*
X83893781Y-97765996D01*
X83417880Y-97782615D02*
X83394614Y-97116354D01*
X83382981Y-96783224D02*
X83432233Y-96829152D01*
X83386305Y-96878404D01*
X83337053Y-96832476D01*
X83382981Y-96783224D01*
X83386305Y-96878404D01*
X82512008Y-97766600D02*
X82608850Y-97810867D01*
X82799210Y-97804219D01*
X82892728Y-97753305D01*
X82938656Y-97704053D01*
X82982922Y-97607211D01*
X82972951Y-97321671D01*
X82922037Y-97228153D01*
X82872785Y-97182225D01*
X82775943Y-97137958D01*
X82585583Y-97144606D01*
X82492065Y-97195520D01*
X82085359Y-97829147D02*
X82050460Y-96829756D01*
X81657049Y-97844104D02*
X81638768Y-97320614D01*
X81683034Y-97223772D01*
X81776553Y-97172858D01*
X81919323Y-97167872D01*
X82016165Y-97212139D01*
X82065417Y-97258067D01*
X80752838Y-97875680D02*
X80734557Y-97352189D01*
X80778824Y-97255348D01*
X80872342Y-97204434D01*
X81062702Y-97197786D01*
X81159544Y-97242052D01*
X80751176Y-97828090D02*
X80848018Y-97872356D01*
X81085968Y-97864047D01*
X81179487Y-97813133D01*
X81223753Y-97716291D01*
X81220429Y-97621111D01*
X81169515Y-97527593D01*
X81072673Y-97483326D01*
X80834723Y-97491636D01*
X80737881Y-97447370D01*
X79894556Y-97858004D02*
X79991397Y-97902270D01*
X80181758Y-97895622D01*
X80275276Y-97844709D01*
X80319542Y-97747867D01*
X80306247Y-97367146D01*
X80255333Y-97273628D01*
X80158491Y-97229362D01*
X79968131Y-97236009D01*
X79874613Y-97286923D01*
X79830347Y-97383765D01*
X79833670Y-97478945D01*
X80312895Y-97557507D01*
X79277547Y-97927198D02*
X79371065Y-97876284D01*
X79415331Y-97779442D01*
X79385418Y-96922822D01*
X77578658Y-97033563D02*
X77672176Y-96982649D01*
X77814946Y-96977664D01*
X77959378Y-97020268D01*
X78057882Y-97112125D01*
X78108796Y-97205643D01*
X78163033Y-97394341D01*
X78168019Y-97537111D01*
X78127077Y-97729133D01*
X78082810Y-97825975D01*
X77990954Y-97924479D01*
X77849846Y-97977055D01*
X77754666Y-97980378D01*
X77610234Y-97937774D01*
X77560982Y-97891846D01*
X77549349Y-97558716D01*
X77739709Y-97552068D01*
%TO.C,U1*%
X162960009Y-51916807D02*
X162845723Y-51954902D01*
X162807628Y-51992997D01*
X162769533Y-52069188D01*
X162769533Y-52183473D01*
X162807628Y-52259664D01*
X162845723Y-52297759D01*
X162921914Y-52335854D01*
X163226676Y-52335854D01*
X163226676Y-51535854D01*
X162960009Y-51535854D01*
X162883819Y-51573950D01*
X162845723Y-51612045D01*
X162807628Y-51688235D01*
X162807628Y-51764426D01*
X162845723Y-51840616D01*
X162883819Y-51878711D01*
X162960009Y-51916807D01*
X163226676Y-51916807D01*
X162045723Y-51535854D02*
X162426676Y-51535854D01*
X162464771Y-51916807D01*
X162426676Y-51878711D01*
X162350485Y-51840616D01*
X162160009Y-51840616D01*
X162083819Y-51878711D01*
X162045723Y-51916807D01*
X162007628Y-51992997D01*
X162007628Y-52183473D01*
X162045723Y-52259664D01*
X162083819Y-52297759D01*
X162160009Y-52335854D01*
X162350485Y-52335854D01*
X162426676Y-52297759D01*
X162464771Y-52259664D01*
X151975413Y-29407759D02*
X151861127Y-29445854D01*
X151670651Y-29445854D01*
X151594460Y-29407759D01*
X151556365Y-29369664D01*
X151518270Y-29293473D01*
X151518270Y-29217283D01*
X151556365Y-29141092D01*
X151594460Y-29102997D01*
X151670651Y-29064902D01*
X151823032Y-29026807D01*
X151899222Y-28988711D01*
X151937318Y-28950616D01*
X151975413Y-28874426D01*
X151975413Y-28798235D01*
X151937318Y-28722045D01*
X151899222Y-28683950D01*
X151823032Y-28645854D01*
X151632556Y-28645854D01*
X151518270Y-28683950D01*
X151289699Y-28645854D02*
X150832556Y-28645854D01*
X151061127Y-29445854D02*
X151061127Y-28645854D01*
X152266580Y-24395854D02*
X152533247Y-24014902D01*
X152723723Y-24395854D02*
X152723723Y-23595854D01*
X152418961Y-23595854D01*
X152342771Y-23633950D01*
X152304676Y-23672045D01*
X152266580Y-23748235D01*
X152266580Y-23862521D01*
X152304676Y-23938711D01*
X152342771Y-23976807D01*
X152418961Y-24014902D01*
X152723723Y-24014902D01*
X151961819Y-24167283D02*
X151580866Y-24167283D01*
X152038009Y-24395854D02*
X151771342Y-23595854D01*
X151504676Y-24395854D01*
X151314200Y-23595854D02*
X151123723Y-24395854D01*
X150971342Y-23824426D01*
X150818961Y-24395854D01*
X150628485Y-23595854D01*
X151980866Y-39216807D02*
X152247533Y-39216807D01*
X152247533Y-39635854D02*
X152247533Y-38835854D01*
X151866580Y-38835854D01*
X151218961Y-38835854D02*
X151371342Y-38835854D01*
X151447533Y-38873950D01*
X151485628Y-38912045D01*
X151561819Y-39026330D01*
X151599914Y-39178711D01*
X151599914Y-39483473D01*
X151561819Y-39559664D01*
X151523723Y-39597759D01*
X151447533Y-39635854D01*
X151295152Y-39635854D01*
X151218961Y-39597759D01*
X151180866Y-39559664D01*
X151142771Y-39483473D01*
X151142771Y-39292997D01*
X151180866Y-39216807D01*
X151218961Y-39178711D01*
X151295152Y-39140616D01*
X151447533Y-39140616D01*
X151523723Y-39178711D01*
X151561819Y-39216807D01*
X151599914Y-39292997D01*
X162960009Y-49376807D02*
X162845723Y-49414902D01*
X162807628Y-49452997D01*
X162769533Y-49529188D01*
X162769533Y-49643473D01*
X162807628Y-49719664D01*
X162845723Y-49757759D01*
X162921914Y-49795854D01*
X163226676Y-49795854D01*
X163226676Y-48995854D01*
X162960009Y-48995854D01*
X162883819Y-49033950D01*
X162845723Y-49072045D01*
X162807628Y-49148235D01*
X162807628Y-49224426D01*
X162845723Y-49300616D01*
X162883819Y-49338711D01*
X162960009Y-49376807D01*
X163226676Y-49376807D01*
X162083819Y-49262521D02*
X162083819Y-49795854D01*
X162274295Y-48957759D02*
X162464771Y-49529188D01*
X161969533Y-49529188D01*
X152780866Y-31215854D02*
X152514200Y-32015854D01*
X152247533Y-31215854D01*
X151523723Y-31939664D02*
X151561819Y-31977759D01*
X151676104Y-32015854D01*
X151752295Y-32015854D01*
X151866580Y-31977759D01*
X151942771Y-31901569D01*
X151980866Y-31825378D01*
X152018961Y-31672997D01*
X152018961Y-31558711D01*
X151980866Y-31406330D01*
X151942771Y-31330140D01*
X151866580Y-31253950D01*
X151752295Y-31215854D01*
X151676104Y-31215854D01*
X151561819Y-31253950D01*
X151523723Y-31292045D01*
X150723723Y-31939664D02*
X150761819Y-31977759D01*
X150876104Y-32015854D01*
X150952295Y-32015854D01*
X151066580Y-31977759D01*
X151142771Y-31901569D01*
X151180866Y-31825378D01*
X151218961Y-31672997D01*
X151218961Y-31558711D01*
X151180866Y-31406330D01*
X151142771Y-31330140D01*
X151066580Y-31253950D01*
X150952295Y-31215854D01*
X150876104Y-31215854D01*
X150761819Y-31253950D01*
X150723723Y-31292045D01*
X152038009Y-51916807D02*
X151923723Y-51954902D01*
X151885628Y-51992997D01*
X151847533Y-52069188D01*
X151847533Y-52183473D01*
X151885628Y-52259664D01*
X151923723Y-52297759D01*
X151999914Y-52335854D01*
X152304676Y-52335854D01*
X152304676Y-51535854D01*
X152038009Y-51535854D01*
X151961819Y-51573950D01*
X151923723Y-51612045D01*
X151885628Y-51688235D01*
X151885628Y-51764426D01*
X151923723Y-51840616D01*
X151961819Y-51878711D01*
X152038009Y-51916807D01*
X152304676Y-51916807D01*
X151161819Y-51535854D02*
X151314200Y-51535854D01*
X151390390Y-51573950D01*
X151428485Y-51612045D01*
X151504676Y-51726330D01*
X151542771Y-51878711D01*
X151542771Y-52183473D01*
X151504676Y-52259664D01*
X151466580Y-52297759D01*
X151390390Y-52335854D01*
X151238009Y-52335854D01*
X151161819Y-52297759D01*
X151123723Y-52259664D01*
X151085628Y-52183473D01*
X151085628Y-51992997D01*
X151123723Y-51916807D01*
X151161819Y-51878711D01*
X151238009Y-51840616D01*
X151390390Y-51840616D01*
X151466580Y-51878711D01*
X151504676Y-51916807D01*
X151542771Y-51992997D01*
X163245723Y-28713950D02*
X163321914Y-28675854D01*
X163436200Y-28675854D01*
X163550485Y-28713950D01*
X163626676Y-28790140D01*
X163664771Y-28866330D01*
X163702866Y-29018711D01*
X163702866Y-29132997D01*
X163664771Y-29285378D01*
X163626676Y-29361569D01*
X163550485Y-29437759D01*
X163436200Y-29475854D01*
X163360009Y-29475854D01*
X163245723Y-29437759D01*
X163207628Y-29399664D01*
X163207628Y-29132997D01*
X163360009Y-29132997D01*
X162864771Y-29475854D02*
X162864771Y-28675854D01*
X162407628Y-29475854D01*
X162407628Y-28675854D01*
X162026676Y-29475854D02*
X162026676Y-28675854D01*
X161836200Y-28675854D01*
X161721914Y-28713950D01*
X161645723Y-28790140D01*
X161607628Y-28866330D01*
X161569533Y-29018711D01*
X161569533Y-29132997D01*
X161607628Y-29285378D01*
X161645723Y-29361569D01*
X161721914Y-29437759D01*
X161836200Y-29475854D01*
X162026676Y-29475854D01*
X152323723Y-26173950D02*
X152399914Y-26135854D01*
X152514200Y-26135854D01*
X152628485Y-26173950D01*
X152704676Y-26250140D01*
X152742771Y-26326330D01*
X152780866Y-26478711D01*
X152780866Y-26592997D01*
X152742771Y-26745378D01*
X152704676Y-26821569D01*
X152628485Y-26897759D01*
X152514200Y-26935854D01*
X152438009Y-26935854D01*
X152323723Y-26897759D01*
X152285628Y-26859664D01*
X152285628Y-26592997D01*
X152438009Y-26592997D01*
X151942771Y-26935854D02*
X151942771Y-26135854D01*
X151485628Y-26935854D01*
X151485628Y-26135854D01*
X151104676Y-26935854D02*
X151104676Y-26135854D01*
X150914200Y-26135854D01*
X150799914Y-26173950D01*
X150723723Y-26250140D01*
X150685628Y-26326330D01*
X150647533Y-26478711D01*
X150647533Y-26592997D01*
X150685628Y-26745378D01*
X150723723Y-26821569D01*
X150799914Y-26897759D01*
X150914200Y-26935854D01*
X151104676Y-26935854D01*
X162769533Y-42099664D02*
X162807628Y-42137759D01*
X162921914Y-42175854D01*
X162998104Y-42175854D01*
X163112390Y-42137759D01*
X163188580Y-42061569D01*
X163226676Y-41985378D01*
X163264771Y-41832997D01*
X163264771Y-41718711D01*
X163226676Y-41566330D01*
X163188580Y-41490140D01*
X163112390Y-41413950D01*
X162998104Y-41375854D01*
X162921914Y-41375854D01*
X162807628Y-41413950D01*
X162769533Y-41452045D01*
X162083819Y-41375854D02*
X162236200Y-41375854D01*
X162312390Y-41413950D01*
X162350485Y-41452045D01*
X162426676Y-41566330D01*
X162464771Y-41718711D01*
X162464771Y-42023473D01*
X162426676Y-42099664D01*
X162388580Y-42137759D01*
X162312390Y-42175854D01*
X162160009Y-42175854D01*
X162083819Y-42137759D01*
X162045723Y-42099664D01*
X162007628Y-42023473D01*
X162007628Y-41832997D01*
X162045723Y-41756807D01*
X162083819Y-41718711D01*
X162160009Y-41680616D01*
X162312390Y-41680616D01*
X162388580Y-41718711D01*
X162426676Y-41756807D01*
X162464771Y-41832997D01*
X163226676Y-34555854D02*
X163226676Y-33755854D01*
X163036200Y-33755854D01*
X162921914Y-33793950D01*
X162845723Y-33870140D01*
X162807628Y-33946330D01*
X162769533Y-34098711D01*
X162769533Y-34212997D01*
X162807628Y-34365378D01*
X162845723Y-34441569D01*
X162921914Y-34517759D01*
X163036200Y-34555854D01*
X163226676Y-34555854D01*
X162007628Y-34555854D02*
X162464771Y-34555854D01*
X162236200Y-34555854D02*
X162236200Y-33755854D01*
X162312390Y-33870140D01*
X162388580Y-33946330D01*
X162464771Y-33984426D01*
X162937548Y-23595854D02*
X162480405Y-23595854D01*
X162708976Y-24395854D02*
X162708976Y-23595854D01*
X162289929Y-23595854D02*
X161756595Y-24395854D01*
X161756595Y-23595854D02*
X162289929Y-24395854D01*
X161299452Y-23595854D02*
X161223262Y-23595854D01*
X161147072Y-23633950D01*
X161108976Y-23672045D01*
X161070881Y-23748235D01*
X161032786Y-23900616D01*
X161032786Y-24091092D01*
X161070881Y-24243473D01*
X161108976Y-24319664D01*
X161147072Y-24357759D01*
X161223262Y-24395854D01*
X161299452Y-24395854D01*
X161375643Y-24357759D01*
X161413738Y-24319664D01*
X161451833Y-24243473D01*
X161489929Y-24091092D01*
X161489929Y-23900616D01*
X161451833Y-23748235D01*
X161413738Y-23672045D01*
X161375643Y-23633950D01*
X161299452Y-23595854D01*
X160118500Y-23557759D02*
X160804214Y-24586330D01*
X159851833Y-24395854D02*
X159851833Y-23595854D01*
X159661357Y-23595854D01*
X159547072Y-23633950D01*
X159470881Y-23710140D01*
X159432786Y-23786330D01*
X159394691Y-23938711D01*
X159394691Y-24052997D01*
X159432786Y-24205378D01*
X159470881Y-24281569D01*
X159547072Y-24357759D01*
X159661357Y-24395854D01*
X159851833Y-24395854D01*
X159128024Y-23595854D02*
X158632786Y-23595854D01*
X158899452Y-23900616D01*
X158785167Y-23900616D01*
X158708976Y-23938711D01*
X158670881Y-23976807D01*
X158632786Y-24052997D01*
X158632786Y-24243473D01*
X158670881Y-24319664D01*
X158708976Y-24357759D01*
X158785167Y-24395854D01*
X159013738Y-24395854D01*
X159089929Y-24357759D01*
X159128024Y-24319664D01*
X152038009Y-46836807D02*
X151923723Y-46874902D01*
X151885628Y-46912997D01*
X151847533Y-46989188D01*
X151847533Y-47103473D01*
X151885628Y-47179664D01*
X151923723Y-47217759D01*
X151999914Y-47255854D01*
X152304676Y-47255854D01*
X152304676Y-46455854D01*
X152038009Y-46455854D01*
X151961819Y-46493950D01*
X151923723Y-46532045D01*
X151885628Y-46608235D01*
X151885628Y-46684426D01*
X151923723Y-46760616D01*
X151961819Y-46798711D01*
X152038009Y-46836807D01*
X152304676Y-46836807D01*
X151580866Y-46455854D02*
X151085628Y-46455854D01*
X151352295Y-46760616D01*
X151238009Y-46760616D01*
X151161819Y-46798711D01*
X151123723Y-46836807D01*
X151085628Y-46912997D01*
X151085628Y-47103473D01*
X151123723Y-47179664D01*
X151161819Y-47217759D01*
X151238009Y-47255854D01*
X151466580Y-47255854D01*
X151542771Y-47217759D01*
X151580866Y-47179664D01*
X163188580Y-46836807D02*
X162921914Y-46836807D01*
X162807628Y-47255854D02*
X163188580Y-47255854D01*
X163188580Y-46455854D01*
X162807628Y-46455854D01*
X162121914Y-46455854D02*
X162274295Y-46455854D01*
X162350485Y-46493950D01*
X162388580Y-46532045D01*
X162464771Y-46646330D01*
X162502866Y-46798711D01*
X162502866Y-47103473D01*
X162464771Y-47179664D01*
X162426676Y-47217759D01*
X162350485Y-47255854D01*
X162198104Y-47255854D01*
X162121914Y-47217759D01*
X162083819Y-47179664D01*
X162045723Y-47103473D01*
X162045723Y-46912997D01*
X162083819Y-46836807D01*
X162121914Y-46798711D01*
X162198104Y-46760616D01*
X162350485Y-46760616D01*
X162426676Y-46798711D01*
X162464771Y-46836807D01*
X162502866Y-46912997D01*
X163226676Y-37095854D02*
X163226676Y-36295854D01*
X163036200Y-36295854D01*
X162921914Y-36333950D01*
X162845723Y-36410140D01*
X162807628Y-36486330D01*
X162769533Y-36638711D01*
X162769533Y-36752997D01*
X162807628Y-36905378D01*
X162845723Y-36981569D01*
X162921914Y-37057759D01*
X163036200Y-37095854D01*
X163226676Y-37095854D01*
X162274295Y-36295854D02*
X162198104Y-36295854D01*
X162121914Y-36333950D01*
X162083819Y-36372045D01*
X162045723Y-36448235D01*
X162007628Y-36600616D01*
X162007628Y-36791092D01*
X162045723Y-36943473D01*
X162083819Y-37019664D01*
X162121914Y-37057759D01*
X162198104Y-37095854D01*
X162274295Y-37095854D01*
X162350485Y-37057759D01*
X162388580Y-37019664D01*
X162426676Y-36943473D01*
X162464771Y-36791092D01*
X162464771Y-36600616D01*
X162426676Y-36448235D01*
X162388580Y-36372045D01*
X162350485Y-36333950D01*
X162274295Y-36295854D01*
X151980866Y-36676807D02*
X152247533Y-36676807D01*
X152247533Y-37095854D02*
X152247533Y-36295854D01*
X151866580Y-36295854D01*
X151180866Y-36295854D02*
X151561819Y-36295854D01*
X151599914Y-36676807D01*
X151561819Y-36638711D01*
X151485628Y-36600616D01*
X151295152Y-36600616D01*
X151218961Y-36638711D01*
X151180866Y-36676807D01*
X151142771Y-36752997D01*
X151142771Y-36943473D01*
X151180866Y-37019664D01*
X151218961Y-37057759D01*
X151295152Y-37095854D01*
X151485628Y-37095854D01*
X151561819Y-37057759D01*
X151599914Y-37019664D01*
X151980866Y-41756807D02*
X152247533Y-41756807D01*
X152247533Y-42175854D02*
X152247533Y-41375854D01*
X151866580Y-41375854D01*
X151638009Y-41375854D02*
X151104676Y-41375854D01*
X151447533Y-42175854D01*
X163226676Y-39635854D02*
X163226676Y-38835854D01*
X163036200Y-38835854D01*
X162921914Y-38873950D01*
X162845723Y-38950140D01*
X162807628Y-39026330D01*
X162769533Y-39178711D01*
X162769533Y-39292997D01*
X162807628Y-39445378D01*
X162845723Y-39521569D01*
X162921914Y-39597759D01*
X163036200Y-39635854D01*
X163226676Y-39635854D01*
X162083819Y-39102521D02*
X162083819Y-39635854D01*
X162274295Y-38797759D02*
X162464771Y-39369188D01*
X161969533Y-39369188D01*
X163226676Y-44715854D02*
X163226676Y-43915854D01*
X163036200Y-43915854D01*
X162921914Y-43953950D01*
X162845723Y-44030140D01*
X162807628Y-44106330D01*
X162769533Y-44258711D01*
X162769533Y-44372997D01*
X162807628Y-44525378D01*
X162845723Y-44601569D01*
X162921914Y-44677759D01*
X163036200Y-44715854D01*
X163226676Y-44715854D01*
X162502866Y-43915854D02*
X161969533Y-43915854D01*
X162312390Y-44715854D01*
X163226676Y-26935854D02*
X163226676Y-26135854D01*
X163036200Y-26135854D01*
X162921914Y-26173950D01*
X162845723Y-26250140D01*
X162807628Y-26326330D01*
X162769533Y-26478711D01*
X162769533Y-26592997D01*
X162807628Y-26745378D01*
X162845723Y-26821569D01*
X162921914Y-26897759D01*
X163036200Y-26935854D01*
X163226676Y-26935854D01*
X162464771Y-26212045D02*
X162426676Y-26173950D01*
X162350485Y-26135854D01*
X162160009Y-26135854D01*
X162083819Y-26173950D01*
X162045723Y-26212045D01*
X162007628Y-26288235D01*
X162007628Y-26364426D01*
X162045723Y-26478711D01*
X162502866Y-26935854D01*
X162007628Y-26935854D01*
X151980866Y-34136807D02*
X152247533Y-34136807D01*
X152247533Y-34555854D02*
X152247533Y-33755854D01*
X151866580Y-33755854D01*
X151218961Y-34022521D02*
X151218961Y-34555854D01*
X151409438Y-33717759D02*
X151599914Y-34289188D01*
X151104676Y-34289188D01*
X152038009Y-44296807D02*
X151923723Y-44334902D01*
X151885628Y-44372997D01*
X151847533Y-44449188D01*
X151847533Y-44563473D01*
X151885628Y-44639664D01*
X151923723Y-44677759D01*
X151999914Y-44715854D01*
X152304676Y-44715854D01*
X152304676Y-43915854D01*
X152038009Y-43915854D01*
X151961819Y-43953950D01*
X151923723Y-43992045D01*
X151885628Y-44068235D01*
X151885628Y-44144426D01*
X151923723Y-44220616D01*
X151961819Y-44258711D01*
X152038009Y-44296807D01*
X152304676Y-44296807D01*
X151085628Y-44715854D02*
X151542771Y-44715854D01*
X151314200Y-44715854D02*
X151314200Y-43915854D01*
X151390390Y-44030140D01*
X151466580Y-44106330D01*
X151542771Y-44144426D01*
X152038009Y-49376807D02*
X151923723Y-49414902D01*
X151885628Y-49452997D01*
X151847533Y-49529188D01*
X151847533Y-49643473D01*
X151885628Y-49719664D01*
X151923723Y-49757759D01*
X151999914Y-49795854D01*
X152304676Y-49795854D01*
X152304676Y-48995854D01*
X152038009Y-48995854D01*
X151961819Y-49033950D01*
X151923723Y-49072045D01*
X151885628Y-49148235D01*
X151885628Y-49224426D01*
X151923723Y-49300616D01*
X151961819Y-49338711D01*
X152038009Y-49376807D01*
X152304676Y-49376807D01*
X151542771Y-49072045D02*
X151504676Y-49033950D01*
X151428485Y-48995854D01*
X151238009Y-48995854D01*
X151161819Y-49033950D01*
X151123723Y-49072045D01*
X151085628Y-49148235D01*
X151085628Y-49224426D01*
X151123723Y-49338711D01*
X151580866Y-49795854D01*
X151085628Y-49795854D01*
X163245723Y-31253950D02*
X163321914Y-31215854D01*
X163436200Y-31215854D01*
X163550485Y-31253950D01*
X163626676Y-31330140D01*
X163664771Y-31406330D01*
X163702866Y-31558711D01*
X163702866Y-31672997D01*
X163664771Y-31825378D01*
X163626676Y-31901569D01*
X163550485Y-31977759D01*
X163436200Y-32015854D01*
X163360009Y-32015854D01*
X163245723Y-31977759D01*
X163207628Y-31939664D01*
X163207628Y-31672997D01*
X163360009Y-31672997D01*
X162864771Y-32015854D02*
X162864771Y-31215854D01*
X162407628Y-32015854D01*
X162407628Y-31215854D01*
X162026676Y-32015854D02*
X162026676Y-31215854D01*
X161836200Y-31215854D01*
X161721914Y-31253950D01*
X161645723Y-31330140D01*
X161607628Y-31406330D01*
X161569533Y-31558711D01*
X161569533Y-31672997D01*
X161607628Y-31825378D01*
X161645723Y-31901569D01*
X161721914Y-31977759D01*
X161836200Y-32015854D01*
X162026676Y-32015854D01*
D11*
%TO.C,J2*%
X160782000Y-59382571D02*
X160782000Y-59818000D01*
X160811028Y-59905085D01*
X160869085Y-59963142D01*
X160956171Y-59992171D01*
X161014228Y-59992171D01*
X160520742Y-59440628D02*
X160491714Y-59411600D01*
X160433657Y-59382571D01*
X160288514Y-59382571D01*
X160230457Y-59411600D01*
X160201428Y-59440628D01*
X160172400Y-59498685D01*
X160172400Y-59556742D01*
X160201428Y-59643828D01*
X160549771Y-59992171D01*
X160172400Y-59992171D01*
X161725428Y-60382571D02*
X161667371Y-60382571D01*
X161609314Y-60411600D01*
X161580285Y-60440628D01*
X161551257Y-60498685D01*
X161522228Y-60614800D01*
X161522228Y-60759942D01*
X161551257Y-60876057D01*
X161580285Y-60934114D01*
X161609314Y-60963142D01*
X161667371Y-60992171D01*
X161725428Y-60992171D01*
X161783485Y-60963142D01*
X161812514Y-60934114D01*
X161841542Y-60876057D01*
X161870571Y-60759942D01*
X161870571Y-60614800D01*
X161841542Y-60498685D01*
X161812514Y-60440628D01*
X161783485Y-60411600D01*
X161725428Y-60382571D01*
X161290000Y-60440628D02*
X161260971Y-60411600D01*
X161202914Y-60382571D01*
X161057771Y-60382571D01*
X160999714Y-60411600D01*
X160970685Y-60440628D01*
X160941657Y-60498685D01*
X160941657Y-60556742D01*
X160970685Y-60643828D01*
X161319028Y-60992171D01*
X160941657Y-60992171D01*
X160738457Y-60992171D02*
X160419142Y-60585771D01*
X160738457Y-60585771D02*
X160419142Y-60992171D01*
X160070800Y-60382571D02*
X160012742Y-60382571D01*
X159954685Y-60411600D01*
X159925657Y-60440628D01*
X159896628Y-60498685D01*
X159867600Y-60614800D01*
X159867600Y-60759942D01*
X159896628Y-60876057D01*
X159925657Y-60934114D01*
X159954685Y-60963142D01*
X160012742Y-60992171D01*
X160070800Y-60992171D01*
X160128857Y-60963142D01*
X160157885Y-60934114D01*
X160186914Y-60876057D01*
X160215942Y-60759942D01*
X160215942Y-60614800D01*
X160186914Y-60498685D01*
X160157885Y-60440628D01*
X160128857Y-60411600D01*
X160070800Y-60382571D01*
X159316057Y-60382571D02*
X159606342Y-60382571D01*
X159635371Y-60672857D01*
X159606342Y-60643828D01*
X159548285Y-60614800D01*
X159403142Y-60614800D01*
X159345085Y-60643828D01*
X159316057Y-60672857D01*
X159287028Y-60730914D01*
X159287028Y-60876057D01*
X159316057Y-60934114D01*
X159345085Y-60963142D01*
X159403142Y-60992171D01*
X159548285Y-60992171D01*
X159606342Y-60963142D01*
X159635371Y-60934114D01*
D12*
%TO.C,U1*%
X163525200Y-22763950D02*
X166065200Y-22763950D01*
X148285200Y-22763950D02*
X148285200Y-20223950D01*
X148285200Y-53243950D02*
X148285200Y-22763950D01*
X166065200Y-22763950D02*
X166065200Y-53243950D01*
X163525200Y-25303950D02*
X166065200Y-25303950D01*
X166065200Y-20223950D02*
X166065200Y-22763950D01*
X163525200Y-22763950D02*
X163525200Y-25303950D01*
X148285200Y-20223950D02*
X166065200Y-20223950D01*
X166065200Y-53243950D02*
X148285200Y-53243950D01*
D10*
X152243632Y-29243310D02*
X152243632Y-29443310D01*
X152243632Y-29443310D02*
X152343632Y-29443310D01*
X152343632Y-29443310D02*
X152343632Y-29243310D01*
X152343632Y-29243310D02*
X152243632Y-29243310D01*
G36*
X152343632Y-29443310D02*
G01*
X152243632Y-29443310D01*
X152243632Y-29243310D01*
X152343632Y-29243310D01*
X152343632Y-29443310D01*
G37*
X152343632Y-29443310D02*
X152243632Y-29443310D01*
X152243632Y-29243310D01*
X152343632Y-29243310D01*
X152343632Y-29443310D01*
X152643632Y-28643310D02*
X152643632Y-29443310D01*
X152643632Y-29443310D02*
X152743632Y-29443310D01*
X152743632Y-29443310D02*
X152743632Y-28643310D01*
X152743632Y-28643310D02*
X152643632Y-28643310D01*
G36*
X152743632Y-29443310D02*
G01*
X152643632Y-29443310D01*
X152643632Y-28643310D01*
X152743632Y-28643310D01*
X152743632Y-29443310D01*
G37*
X152743632Y-29443310D02*
X152643632Y-29443310D01*
X152643632Y-28643310D01*
X152743632Y-28643310D01*
X152743632Y-29443310D01*
X152243632Y-28643310D02*
X152243632Y-28743310D01*
X152243632Y-28743310D02*
X152743632Y-28743310D01*
X152743632Y-28743310D02*
X152743632Y-28643310D01*
X152743632Y-28643310D02*
X152243632Y-28643310D01*
G36*
X152743632Y-28743310D02*
G01*
X152243632Y-28743310D01*
X152243632Y-28643310D01*
X152743632Y-28643310D01*
X152743632Y-28743310D01*
G37*
X152743632Y-28743310D02*
X152243632Y-28743310D01*
X152243632Y-28643310D01*
X152743632Y-28643310D01*
X152743632Y-28743310D01*
X152443632Y-29043310D02*
X152443632Y-29143310D01*
X152443632Y-29143310D02*
X152543632Y-29143310D01*
X152543632Y-29143310D02*
X152543632Y-29043310D01*
X152543632Y-29043310D02*
X152443632Y-29043310D01*
G36*
X152543632Y-29143310D02*
G01*
X152443632Y-29143310D01*
X152443632Y-29043310D01*
X152543632Y-29043310D01*
X152543632Y-29143310D01*
G37*
X152543632Y-29143310D02*
X152443632Y-29143310D01*
X152443632Y-29043310D01*
X152543632Y-29043310D01*
X152543632Y-29143310D01*
X152243632Y-28643310D02*
X152243632Y-28943310D01*
X152243632Y-28943310D02*
X152343632Y-28943310D01*
X152343632Y-28943310D02*
X152343632Y-28643310D01*
X152343632Y-28643310D02*
X152243632Y-28643310D01*
G36*
X152343632Y-28943310D02*
G01*
X152243632Y-28943310D01*
X152243632Y-28643310D01*
X152343632Y-28643310D01*
X152343632Y-28943310D01*
G37*
X152343632Y-28943310D02*
X152243632Y-28943310D01*
X152243632Y-28643310D01*
X152343632Y-28643310D01*
X152343632Y-28943310D01*
%TO.C,K-3-5*%
X149901061Y-90209558D02*
X153456217Y-90836428D01*
X150587666Y-86315629D02*
X149902624Y-90200695D01*
X161661379Y-86284079D02*
X153167413Y-84786364D01*
X160982762Y-90132708D02*
X161661379Y-86284079D01*
X160974775Y-90178009D02*
X155993508Y-89346387D01*
X153167413Y-84786364D02*
G75*
G03*
X150610655Y-86248602I-547260J-2009498D01*
G01*
X156017433Y-89354667D02*
G75*
G03*
X153465309Y-90813661I-546565J-2005559D01*
G01*
%TO.C,K-3-4*%
X130236268Y-87849224D02*
X133826492Y-88226572D01*
X130649573Y-83916884D02*
X130237209Y-87840273D01*
X141694111Y-83112949D02*
X133116359Y-82211391D01*
X141285614Y-86999540D02*
X141694111Y-83112949D01*
X141280805Y-87045288D02*
X136253661Y-86563167D01*
X133116359Y-82211391D02*
G75*
G03*
X130667830Y-83848417I-405751J-2042778D01*
G01*
X136278106Y-86569759D02*
G75*
G03*
X133833973Y-88203226I-405333J-2038800D01*
G01*
%TO.C,K-3-3*%
X110465270Y-86897998D02*
X114073071Y-87023985D01*
X110603263Y-82946407D02*
X110465584Y-86889003D01*
X121564816Y-81374001D02*
X112945070Y-81072993D01*
X121428429Y-85279621D02*
X121564816Y-81374001D01*
X121426824Y-85325593D02*
X116378294Y-85195322D01*
X112945070Y-81072994D02*
G75*
G03*
X110616699Y-82876833I-262266J-2066105D01*
G01*
X116403140Y-85200193D02*
G75*
G03*
X114078905Y-87000174I-262127J-2062107D01*
G01*
%TO.C,K-2-5*%
X130749511Y-66790339D02*
X134359511Y-66790339D01*
X130749511Y-62836339D02*
X130749511Y-66781339D01*
X141649511Y-60882339D02*
X133024511Y-60882339D01*
X141649511Y-64790339D02*
X141649511Y-60882339D01*
X141649511Y-64836339D02*
X136599511Y-64882339D01*
X133024511Y-60882339D02*
G75*
G03*
X130760511Y-62766339I-190000J-2074000D01*
G01*
X136624511Y-64886339D02*
G75*
G03*
X134364511Y-66766339I-190000J-2070000D01*
G01*
%TO.C,K-2-4*%
X110599867Y-67598077D02*
X114204919Y-67409144D01*
X110392930Y-63649496D02*
X110599396Y-67589090D01*
X121175728Y-61127712D02*
X112562548Y-61579110D01*
X121380257Y-65030356D02*
X121175728Y-61127712D01*
X121382664Y-65076293D02*
X116341993Y-65386527D01*
X112562548Y-61579110D02*
G75*
G03*
X110400252Y-63579016I-81195J-2081101D01*
G01*
X116367168Y-65389214D02*
G75*
G03*
X114208657Y-67384916I-81405J-2077106D01*
G01*
%TO.C,K-2-3*%
X96062670Y-64543340D02*
G75*
G03*
X94011564Y-66649276I27415J-2078521D01*
G01*
X92063859Y-60937577D02*
G75*
G03*
X90009193Y-63047909I27833J-2082499D01*
G01*
X101054916Y-63968359D02*
X96037389Y-64541976D01*
X101050108Y-63922611D02*
X100641610Y-60036019D01*
X100641610Y-60036019D02*
X92063859Y-60937577D01*
X90005570Y-63118675D02*
X90417935Y-67042064D01*
X90418876Y-67051015D02*
X94009100Y-66673667D01*
%TO.C,K-2-2*%
X76387518Y-69583333D02*
G75*
G03*
X74449439Y-71793728I136158J-2074237D01*
G01*
X72205476Y-66191793D02*
G75*
G03*
X70264072Y-68406765I136784J-2078188D01*
G01*
X81342830Y-68747865D02*
X76362200Y-69583293D01*
X81335634Y-68702431D02*
X80724288Y-64842545D01*
X80724288Y-64842545D02*
X72205476Y-66191792D01*
X70264158Y-68477624D02*
X70881292Y-72374054D01*
X70882700Y-72382943D02*
X74448255Y-71818215D01*
%TO.C,K-2-1*%
X54703732Y-91821952D02*
X58234845Y-91071391D01*
X53881649Y-87954356D02*
X54701861Y-91813149D01*
X64137198Y-83776819D02*
X55700675Y-85570057D01*
X64949717Y-87599419D02*
X64137198Y-83776819D01*
X64959281Y-87644414D02*
X60029200Y-88739363D01*
X55700675Y-85570057D02*
G75*
G03*
X53877855Y-87883599I245361J-2068181D01*
G01*
X60054485Y-88738078D02*
G75*
G03*
X58234745Y-91046876I244529J-2064269D01*
G01*
%TO.C,K-2-0*%
X35721278Y-96750954D02*
X39208270Y-95816617D01*
X34697907Y-92931683D02*
X35718948Y-96742260D01*
X44720766Y-88223136D02*
X36389656Y-90455451D01*
X45732231Y-91997974D02*
X44720766Y-88223136D01*
X45744137Y-92042407D02*
X40878117Y-93393876D01*
X36389656Y-90455450D02*
G75*
G03*
X34690415Y-92861221I353265J-2052506D01*
G01*
X40903300Y-93391269D02*
G75*
G03*
X39206888Y-95792141I352230J-2048642D01*
G01*
%TO.C,K-1-5*%
X130749511Y-47740339D02*
X134359511Y-47740339D01*
X130749511Y-43786339D02*
X130749511Y-47731339D01*
X141649511Y-41832339D02*
X133024511Y-41832339D01*
X141649511Y-45740339D02*
X141649511Y-41832339D01*
X141649511Y-45786339D02*
X136599511Y-45832339D01*
X133024511Y-41832339D02*
G75*
G03*
X130760511Y-43716339I-190000J-2074000D01*
G01*
X136624511Y-45836339D02*
G75*
G03*
X134364511Y-47716339I-190000J-2070000D01*
G01*
%TO.C,K-1-4*%
X109602866Y-48574184D02*
X113207918Y-48385251D01*
X109395929Y-44625603D02*
X109602395Y-48565197D01*
X120178727Y-42103819D02*
X111565547Y-42555217D01*
X120383256Y-46006463D02*
X120178727Y-42103819D01*
X120385663Y-46052400D02*
X115344992Y-46362634D01*
X111565547Y-42555217D02*
G75*
G03*
X109403251Y-44555123I-81195J-2081101D01*
G01*
X115370167Y-46365321D02*
G75*
G03*
X113211656Y-48361023I-81405J-2077106D01*
G01*
%TO.C,K-1-3*%
X94071404Y-45597697D02*
G75*
G03*
X92020298Y-47703633I27415J-2078521D01*
G01*
X90072593Y-41991934D02*
G75*
G03*
X88017927Y-44102266I27833J-2082499D01*
G01*
X99063650Y-45022716D02*
X94046123Y-45596333D01*
X99058842Y-44976968D02*
X98650344Y-41090376D01*
X98650344Y-41090376D02*
X90072593Y-41991934D01*
X88014304Y-44173032D02*
X88426669Y-48096421D01*
X88427610Y-48105372D02*
X92017834Y-47728024D01*
%TO.C,K-1-2*%
X73407441Y-50767871D02*
G75*
G03*
X71469362Y-52978266I136158J-2074237D01*
G01*
X69225399Y-47376331D02*
G75*
G03*
X67283995Y-49591303I136784J-2078188D01*
G01*
X78362753Y-49932403D02*
X73382123Y-50767831D01*
X78355557Y-49886969D02*
X77744211Y-46027083D01*
X77744211Y-46027083D02*
X69225399Y-47376330D01*
X67284081Y-49662162D02*
X67901215Y-53558592D01*
X67902623Y-53567481D02*
X71468178Y-53002753D01*
%TO.C,K-1-1*%
X50743011Y-73188241D02*
X54274124Y-72437680D01*
X49920928Y-69320645D02*
X50741140Y-73179438D01*
X60176477Y-65143108D02*
X51739954Y-66936346D01*
X60988996Y-68965708D02*
X60176477Y-65143108D01*
X60998560Y-69010703D02*
X56068479Y-70105652D01*
X51739954Y-66936346D02*
G75*
G03*
X49917134Y-69249888I245361J-2068181D01*
G01*
X56093764Y-70104367D02*
G75*
G03*
X54274024Y-72413165I244529J-2064269D01*
G01*
%TO.C,K-1-0*%
X30790774Y-78350068D02*
X34277766Y-77415731D01*
X29767403Y-74530797D02*
X30788444Y-78341374D01*
X39790262Y-69822250D02*
X31459152Y-72054565D01*
X40801727Y-73597088D02*
X39790262Y-69822250D01*
X40813633Y-73641521D02*
X35947613Y-74992990D01*
X31459152Y-72054564D02*
G75*
G03*
X29759911Y-74460335I353265J-2052506D01*
G01*
X35972796Y-74990383D02*
G75*
G03*
X34276384Y-77391255I352230J-2048642D01*
G01*
%TO.C,K-0-5*%
X130749511Y-28690339D02*
X134359511Y-28690339D01*
X130749511Y-24736339D02*
X130749511Y-28681339D01*
X141649511Y-22782339D02*
X133024511Y-22782339D01*
X141649511Y-26690339D02*
X141649511Y-22782339D01*
X141649511Y-26736339D02*
X136599511Y-26782339D01*
X133024511Y-22782339D02*
G75*
G03*
X130760511Y-24666339I-190000J-2074000D01*
G01*
X136624511Y-26786339D02*
G75*
G03*
X134364511Y-28666339I-190000J-2070000D01*
G01*
%TO.C,K-0-4*%
X108605867Y-29550292D02*
X112210919Y-29361359D01*
X108398930Y-25601711D02*
X108605396Y-29541305D01*
X119181728Y-23079927D02*
X110568548Y-23531325D01*
X119386257Y-26982571D02*
X119181728Y-23079927D01*
X119388664Y-27028508D02*
X114347993Y-27338742D01*
X110568548Y-23531325D02*
G75*
G03*
X108406252Y-25531231I-81195J-2081101D01*
G01*
X114373168Y-27341429D02*
G75*
G03*
X112214657Y-29337131I-81405J-2077106D01*
G01*
%TO.C,K-0-3*%
X92080136Y-26652057D02*
G75*
G03*
X90029030Y-28757993I27415J-2078521D01*
G01*
X88081325Y-23046294D02*
G75*
G03*
X86026659Y-25156626I27833J-2082499D01*
G01*
X97072382Y-26077076D02*
X92054855Y-26650693D01*
X97067574Y-26031328D02*
X96659076Y-22144736D01*
X96659076Y-22144736D02*
X88081325Y-23046294D01*
X86023036Y-25227392D02*
X86435401Y-29150781D01*
X86436342Y-29159732D02*
X90026566Y-28782384D01*
%TO.C,K-0-2*%
X70427367Y-31952409D02*
G75*
G03*
X68489288Y-34162804I136158J-2074237D01*
G01*
X66245325Y-28560869D02*
G75*
G03*
X64303921Y-30775841I136784J-2078188D01*
G01*
X75382679Y-31116941D02*
X70402049Y-31952369D01*
X75375483Y-31071507D02*
X74764137Y-27211621D01*
X74764137Y-27211621D02*
X66245325Y-28560868D01*
X64304007Y-30846700D02*
X64921141Y-34743130D01*
X64922549Y-34752019D02*
X68488104Y-34187291D01*
%TO.C,K-0-1*%
X46782297Y-54554529D02*
X50313410Y-53803968D01*
X45960214Y-50686933D02*
X46780426Y-54545726D01*
X56215763Y-46509396D02*
X47779240Y-48302634D01*
X57028282Y-50331996D02*
X56215763Y-46509396D01*
X57037846Y-50376991D02*
X52107765Y-51471940D01*
X47779240Y-48302634D02*
G75*
G03*
X45956420Y-50616176I245361J-2068181D01*
G01*
X52133050Y-51470655D02*
G75*
G03*
X50313310Y-53779453I244529J-2064269D01*
G01*
%TO.C,K-0-0*%
X25869978Y-60060114D02*
X29356970Y-59125777D01*
X24846607Y-56240843D02*
X25867648Y-60051420D01*
X34869466Y-51532296D02*
X26538356Y-53764611D01*
X35880931Y-55307134D02*
X34869466Y-51532296D01*
X35892837Y-55351567D02*
X31026817Y-56703036D01*
X26538356Y-53764610D02*
G75*
G03*
X24839115Y-56170381I353265J-2052506D01*
G01*
X31052000Y-56700429D02*
G75*
G03*
X29355588Y-59101301I352230J-2048642D01*
G01*
%TO.C,D-0-0*%
X40493877Y-62691212D02*
X42618914Y-62121810D01*
D13*
X40613845Y-63305079D02*
X39824965Y-60360937D01*
D10*
X40597404Y-63077583D02*
X42625849Y-62534063D01*
X42625849Y-62534063D02*
X42722441Y-62508181D01*
X42722441Y-62508181D02*
X42625849Y-62534063D01*
D13*
X42033071Y-59769277D02*
X42821951Y-62713419D01*
X42821951Y-62713419D02*
X40613845Y-63305079D01*
X39824965Y-60360937D02*
X42033071Y-59769277D01*
D10*
X42670677Y-62314995D02*
X40545641Y-62884397D01*
%TO.C,D-0-1*%
X61413475Y-58362183D02*
X63467585Y-57925568D01*
X63467585Y-57925568D02*
X63565400Y-57904777D01*
X63565400Y-57904777D02*
X63467585Y-57925568D01*
D13*
X60784272Y-55608834D02*
X63020317Y-55133548D01*
X63020317Y-55133548D02*
X63654032Y-58114942D01*
D10*
X61330310Y-57970924D02*
X63482235Y-57513518D01*
D13*
X63654032Y-58114942D02*
X61417987Y-58590228D01*
X61417987Y-58590228D02*
X60784272Y-55608834D01*
D10*
X63523817Y-57709148D02*
X61371892Y-58166553D01*
D13*
%TO.C,D-0-2*%
X78782813Y-36596378D02*
X81040669Y-36238768D01*
D10*
X79204481Y-38983807D02*
X81377395Y-38639652D01*
D13*
X79259625Y-39606852D02*
X78782813Y-36596378D01*
D10*
X81341200Y-39050370D02*
X81439969Y-39034727D01*
D13*
X81040669Y-36238768D02*
X81517481Y-39249242D01*
D10*
X79267055Y-39378883D02*
X81341200Y-39050370D01*
X81439969Y-39034727D02*
X81341200Y-39050370D01*
D13*
X81517481Y-39249242D02*
X79259625Y-39606852D01*
D10*
X81408682Y-38837189D02*
X79235768Y-39181345D01*
D13*
%TO.C,D-0-3*%
X102425037Y-31531441D02*
X102743640Y-34562743D01*
X102743640Y-34562743D02*
X100470163Y-34801695D01*
D10*
X102677461Y-34344465D02*
X102578009Y-34354918D01*
X102656555Y-34145561D02*
X100468607Y-34375523D01*
X100447702Y-34176619D02*
X102635650Y-33946656D01*
D13*
X100151560Y-31770393D02*
X102425037Y-31531441D01*
X100470163Y-34801695D02*
X100151560Y-31770393D01*
D10*
X100489513Y-34574428D02*
X102578009Y-34354918D01*
X102578009Y-34354918D02*
X102677461Y-34344465D01*
%TO.C,D-0-4*%
X122406923Y-35254619D02*
X124603908Y-35139480D01*
X124524979Y-35544165D02*
X124624842Y-35538932D01*
D13*
X124679507Y-35760374D02*
X122396639Y-35880014D01*
D10*
X122427857Y-35654071D02*
X124524979Y-35544165D01*
X124614375Y-35339206D02*
X122417390Y-35454345D01*
X124624842Y-35538932D02*
X124524979Y-35544165D01*
D13*
X124519987Y-32716552D02*
X124679507Y-35760374D01*
X122396639Y-35880014D02*
X122237119Y-32836192D01*
X122237119Y-32836192D02*
X124519987Y-32716552D01*
%TO.C,D-0-5*%
X144043400Y-35610800D02*
X144043400Y-32562800D01*
X146329400Y-32562800D02*
X146329400Y-35610800D01*
D10*
X146286400Y-35386800D02*
X146186400Y-35386800D01*
D13*
X146329400Y-35610800D02*
X144043400Y-35610800D01*
D10*
X144086400Y-35386800D02*
X146186400Y-35386800D01*
D13*
X144043400Y-32562800D02*
X146329400Y-32562800D01*
D10*
X144086400Y-34986800D02*
X146286400Y-34986800D01*
X146286400Y-35186800D02*
X144086400Y-35186800D01*
X146186400Y-35386800D02*
X146286400Y-35386800D01*
D13*
%TO.C,D-1-0*%
X45619292Y-81594022D02*
X44830412Y-78649880D01*
D10*
X47676124Y-80603938D02*
X45551088Y-81173340D01*
X47727888Y-80797124D02*
X47631296Y-80823006D01*
X45499324Y-80980155D02*
X47624361Y-80410753D01*
X45602851Y-81366526D02*
X47631296Y-80823006D01*
D13*
X47038518Y-78058220D02*
X47827398Y-81002362D01*
X47827398Y-81002362D02*
X45619292Y-81594022D01*
X44830412Y-78649880D02*
X47038518Y-78058220D01*
D10*
X47631296Y-80823006D02*
X47727888Y-80797124D01*
%TO.C,D-1-1*%
X65230782Y-76613740D02*
X67382707Y-76156334D01*
D13*
X64684744Y-74251650D02*
X66920789Y-73776364D01*
D10*
X65313947Y-77004999D02*
X67368057Y-76568384D01*
D13*
X67554504Y-76757758D02*
X65318459Y-77233044D01*
D10*
X67368057Y-76568384D02*
X67465872Y-76547593D01*
D13*
X66920789Y-73776364D02*
X67554504Y-76757758D01*
D10*
X67465872Y-76547593D02*
X67368057Y-76568384D01*
D13*
X65318459Y-77233044D02*
X64684744Y-74251650D01*
D10*
X67424289Y-76351964D02*
X65272364Y-76809369D01*
D13*
%TO.C,D-1-2*%
X84535326Y-58005997D02*
X82277470Y-58363607D01*
D10*
X84359045Y-57807125D02*
X84457814Y-57791482D01*
X84457814Y-57791482D02*
X84359045Y-57807125D01*
D13*
X84058514Y-54995523D02*
X84535326Y-58005997D01*
X82277470Y-58363607D02*
X81800658Y-55353133D01*
D10*
X82222326Y-57740562D02*
X84395240Y-57396407D01*
X84426527Y-57593944D02*
X82253613Y-57938100D01*
X82284900Y-58135638D02*
X84359045Y-57807125D01*
D13*
X81800658Y-55353133D02*
X84058514Y-54995523D01*
%TO.C,D-1-3*%
X102237020Y-50670156D02*
X104510497Y-50431204D01*
D10*
X104762921Y-53244228D02*
X104663469Y-53254681D01*
D13*
X104510497Y-50431204D02*
X104829100Y-53462506D01*
D10*
X104663469Y-53254681D02*
X104762921Y-53244228D01*
X102533162Y-53076382D02*
X104721110Y-52846419D01*
X104742015Y-53045324D02*
X102554067Y-53275286D01*
X102574973Y-53474191D02*
X104663469Y-53254681D01*
D13*
X102555623Y-53701458D02*
X102237020Y-50670156D01*
X104829100Y-53462506D02*
X102555623Y-53701458D01*
D10*
%TO.C,D-1-4*%
X123297144Y-54182368D02*
X125494129Y-54067229D01*
X125515063Y-54466681D02*
X125415200Y-54471914D01*
D13*
X123286860Y-54807763D02*
X123127340Y-51763941D01*
X125410208Y-51644301D02*
X125569728Y-54688123D01*
D10*
X125504596Y-54266955D02*
X123307611Y-54382094D01*
D13*
X123127340Y-51763941D02*
X125410208Y-51644301D01*
D10*
X125415200Y-54471914D02*
X125515063Y-54466681D01*
X123318078Y-54581820D02*
X125415200Y-54471914D01*
D13*
X125569728Y-54688123D02*
X123286860Y-54807763D01*
D10*
%TO.C,D-1-5*%
X146337200Y-54338400D02*
X144137200Y-54338400D01*
X146237200Y-54538400D02*
X146337200Y-54538400D01*
D13*
X146380200Y-54762400D02*
X144094200Y-54762400D01*
D10*
X146337200Y-54538400D02*
X146237200Y-54538400D01*
D13*
X144094200Y-54762400D02*
X144094200Y-51714400D01*
X146380200Y-51714400D02*
X146380200Y-54762400D01*
D10*
X144137200Y-54538400D02*
X146237200Y-54538400D01*
D13*
X144094200Y-51714400D02*
X146380200Y-51714400D01*
D10*
X144137200Y-54138400D02*
X146337200Y-54138400D01*
D13*
%TO.C,D-2-0*%
X51917282Y-96521528D02*
X52706162Y-99465670D01*
D10*
X50378088Y-99443463D02*
X52503125Y-98874061D01*
X52510060Y-99286314D02*
X52606652Y-99260432D01*
X50481615Y-99829834D02*
X52510060Y-99286314D01*
D13*
X49709176Y-97113188D02*
X51917282Y-96521528D01*
X52706162Y-99465670D02*
X50498056Y-100057330D01*
X50498056Y-100057330D02*
X49709176Y-97113188D01*
D10*
X52606652Y-99260432D02*
X52510060Y-99286314D01*
X52554888Y-99067246D02*
X50429852Y-99636648D01*
%TO.C,D-2-1*%
X71374882Y-95251102D02*
X71472697Y-95230311D01*
X69320772Y-95687717D02*
X71374882Y-95251102D01*
D13*
X68691569Y-92934368D02*
X70927614Y-92459082D01*
X69325284Y-95915762D02*
X68691569Y-92934368D01*
X71561329Y-95440476D02*
X69325284Y-95915762D01*
D10*
X71431114Y-95034682D02*
X69279189Y-95492087D01*
D13*
X70927614Y-92459082D02*
X71561329Y-95440476D01*
D10*
X69237607Y-95296458D02*
X71389532Y-94839052D01*
X71472697Y-95230311D02*
X71374882Y-95251102D01*
D13*
%TO.C,D-2-2*%
X87460808Y-76872815D02*
X85202952Y-77230425D01*
X86983996Y-73862341D02*
X87460808Y-76872815D01*
X85202952Y-77230425D02*
X84726140Y-74219951D01*
D10*
X87284527Y-76673943D02*
X87383296Y-76658300D01*
X85210382Y-77002456D02*
X87284527Y-76673943D01*
X87383296Y-76658300D02*
X87284527Y-76673943D01*
X87352009Y-76460762D02*
X85179095Y-76804918D01*
D13*
X84726140Y-74219951D02*
X86983996Y-73862341D01*
D10*
X85147808Y-76607380D02*
X87320722Y-76263225D01*
D13*
%TO.C,D-2-3*%
X106498151Y-69388732D02*
X106816754Y-72420034D01*
D10*
X104520816Y-72033910D02*
X106708764Y-71803947D01*
D13*
X106816754Y-72420034D02*
X104543277Y-72658986D01*
D10*
X106750575Y-72201756D02*
X106651123Y-72212209D01*
X106729669Y-72002852D02*
X104541721Y-72232814D01*
D13*
X104543277Y-72658986D02*
X104224674Y-69627684D01*
D10*
X106651123Y-72212209D02*
X106750575Y-72201756D01*
D13*
X104224674Y-69627684D02*
X106498151Y-69388732D01*
D10*
X104562627Y-72431719D02*
X106651123Y-72212209D01*
%TO.C,D-2-4*%
X126616183Y-73535986D02*
X126516320Y-73541219D01*
X126516320Y-73541219D02*
X126616183Y-73535986D01*
D13*
X124387980Y-73877068D02*
X124228460Y-70833246D01*
D10*
X126605716Y-73336260D02*
X124408731Y-73451399D01*
X124398264Y-73251673D02*
X126595249Y-73136534D01*
X124419198Y-73651125D02*
X126516320Y-73541219D01*
D13*
X126670848Y-73757428D02*
X124387980Y-73877068D01*
X126511328Y-70713606D02*
X126670848Y-73757428D01*
X124228460Y-70833246D02*
X126511328Y-70713606D01*
%TO.C,D-2-5*%
X146481800Y-70713600D02*
X146481800Y-73761600D01*
X144195800Y-73761600D02*
X144195800Y-70713600D01*
D10*
X144238800Y-73537600D02*
X146338800Y-73537600D01*
D13*
X146481800Y-73761600D02*
X144195800Y-73761600D01*
D10*
X144238800Y-73137600D02*
X146438800Y-73137600D01*
X146338800Y-73537600D02*
X146438800Y-73537600D01*
X146438800Y-73537600D02*
X146338800Y-73537600D01*
D13*
X144195800Y-70713600D02*
X146481800Y-70713600D01*
D10*
X146438800Y-73337600D02*
X144238800Y-73337600D01*
D13*
%TO.C,D-3-3*%
X123675683Y-91401038D02*
X125960291Y-91480819D01*
X125960291Y-91480819D02*
X125853917Y-94526962D01*
D10*
X123634061Y-93825062D02*
X125832720Y-93901841D01*
X125718821Y-94298108D02*
X125818761Y-94301598D01*
X125818761Y-94301598D02*
X125718821Y-94298108D01*
D13*
X123569309Y-94447181D02*
X123675683Y-91401038D01*
X125853917Y-94526962D02*
X123569309Y-94447181D01*
D10*
X125825740Y-94101719D02*
X123627081Y-94024940D01*
X123620101Y-94224819D02*
X125718821Y-94298108D01*
D13*
%TO.C,D-3-4*%
X143192963Y-93259273D02*
X145466440Y-93498225D01*
D10*
X145128487Y-96302260D02*
X145029035Y-96291807D01*
X142940539Y-96072297D02*
X145029035Y-96291807D01*
X142982350Y-95674488D02*
X145170298Y-95904451D01*
D13*
X145147837Y-96529527D02*
X142874360Y-96290575D01*
X145466440Y-93498225D02*
X145147837Y-96529527D01*
D10*
X145029035Y-96291807D02*
X145128487Y-96302260D01*
X145149393Y-96103355D02*
X142961445Y-95873393D01*
D13*
X142874360Y-96290575D02*
X143192963Y-93259273D01*
D10*
%TO.C,D-3-5*%
X161963369Y-99292719D02*
X164031465Y-99657380D01*
D13*
X162411405Y-96504155D02*
X164662675Y-96901115D01*
X164662675Y-96901115D02*
X164133395Y-99902809D01*
D10*
X162032828Y-98898796D02*
X164199405Y-99280822D01*
X164031465Y-99657380D02*
X164129946Y-99674745D01*
D13*
X161882125Y-99505849D02*
X162411405Y-96504155D01*
D10*
X164129946Y-99674745D02*
X164031465Y-99657380D01*
D13*
X164133395Y-99902809D02*
X161882125Y-99505849D01*
D10*
X164164676Y-99477784D02*
X161998098Y-99095758D01*
D13*
%TO.C,J2*%
X163578540Y-69916040D02*
X165077140Y-69916040D01*
X165077140Y-57617360D02*
X156179520Y-57617360D01*
X165077140Y-69916040D02*
X165077140Y-65516760D01*
X163352480Y-62001400D02*
X163352480Y-63271400D01*
X156080460Y-77815440D02*
X165077140Y-77815440D01*
X165077140Y-65516760D02*
X163578540Y-65516760D01*
X156080460Y-57617360D02*
X156080460Y-77815440D01*
X163578540Y-65516760D02*
X163578540Y-69916040D01*
X163390580Y-62001400D02*
X163390580Y-63271400D01*
X165077140Y-77815440D02*
X165077140Y-69916040D01*
X165077140Y-65516760D02*
X165077140Y-57617360D01*
%TD*%
D14*
%TO.C,U1*%
X164795200Y-24033950D03*
D15*
X164795200Y-26573950D03*
X164795200Y-29113950D03*
X164795200Y-31653950D03*
X164795200Y-34193950D03*
X164795200Y-36733950D03*
X164795200Y-39273950D03*
X164795200Y-41813950D03*
X164795200Y-44353950D03*
X164795200Y-46893950D03*
X164795200Y-49433950D03*
X164795200Y-51973950D03*
X149555200Y-51973950D03*
X149555200Y-49433950D03*
X149555200Y-46893950D03*
X149555200Y-44353950D03*
X149555200Y-41813950D03*
X149555200Y-39273950D03*
X149555200Y-36733950D03*
X149555200Y-34193950D03*
X149555200Y-31653950D03*
X149555200Y-29113950D03*
X149555200Y-26573950D03*
X149555200Y-24033950D03*
%TD*%
M02*
