%TF.GenerationSoftware,KiCad,Pcbnew,(6.0.0-0)*%
%TF.CreationDate,2022-02-08T20:15:09+07:00*%
%TF.ProjectId,kibod-01-mirrored-rev2,6b69626f-642d-4303-912d-6d6972726f72,rev?*%
%TF.SameCoordinates,Original*%
%TF.FileFunction,Legend,Bot*%
%TF.FilePolarity,Positive*%
%FSLAX46Y46*%
G04 Gerber Fmt 4.6, Leading zero omitted, Abs format (unit mm)*
G04 Created by KiCad (PCBNEW (6.0.0-0)) date 2022-02-08 20:15:09*
%MOMM*%
%LPD*%
G01*
G04 APERTURE LIST*
%ADD10C,0.750000*%
%ADD11C,0.150000*%
%ADD12C,0.381000*%
%ADD13C,0.203200*%
%ADD14R,1.752600X1.752600*%
%ADD15C,1.752600*%
G04 APERTURE END LIST*
D10*
X94080077Y-90118876D02*
X93667046Y-90426629D01*
X92953739Y-90464012D01*
X92653463Y-90193642D01*
X92495849Y-89915796D01*
X92323281Y-89352627D01*
X92293375Y-88781981D01*
X92406130Y-88203859D01*
X92533838Y-87911060D01*
X92804208Y-87610784D01*
X93359900Y-87295555D01*
X93630270Y-86995279D01*
X93757978Y-86702480D01*
X93870733Y-86124358D01*
X93840827Y-85553713D01*
X93668259Y-84990544D01*
X93510645Y-84712698D01*
X93210369Y-84442328D01*
X92497062Y-84479711D01*
X92084031Y-84787463D01*
X91099142Y-90561207D02*
X90785126Y-84569430D01*
X89815189Y-90628496D02*
X89650705Y-87489946D01*
X89763460Y-86911824D01*
X90033830Y-86611548D01*
X90461814Y-86589118D01*
X90762090Y-86859488D01*
X90919704Y-87137334D01*
X88388576Y-90703262D02*
X88179232Y-86708743D01*
X88239044Y-87850034D02*
X88066477Y-87286865D01*
X87908862Y-87009019D01*
X87608586Y-86738650D01*
X87323264Y-86753603D01*
X86533978Y-90800457D02*
X86324634Y-86805939D01*
X86219962Y-84808680D02*
X86377577Y-85086526D01*
X86249868Y-85379325D01*
X86092254Y-85101479D01*
X86219962Y-84808680D01*
X86249868Y-85379325D01*
X85107364Y-90875223D02*
X84898021Y-86880704D01*
X84927927Y-87451350D02*
X84770312Y-87173504D01*
X84470036Y-86903134D01*
X84042052Y-86925564D01*
X83771683Y-87225840D01*
X83658928Y-87803962D01*
X83823412Y-90942512D01*
X83658928Y-87803962D02*
X83486360Y-87240793D01*
X83186084Y-86970423D01*
X82758100Y-86992853D01*
X82487731Y-87293129D01*
X82374975Y-87871251D01*
X82539460Y-91009801D01*
X80903502Y-87090048D02*
X81217518Y-93081826D01*
X80918456Y-87375371D02*
X80618180Y-87105001D01*
X80047534Y-87134908D01*
X79777165Y-87435184D01*
X79649456Y-87727983D01*
X79536701Y-88306105D01*
X79626420Y-90018041D01*
X79798988Y-90581210D01*
X79956602Y-90859056D01*
X80256878Y-91129426D01*
X80827523Y-91099520D01*
X81097893Y-90799244D01*
X74626402Y-87419017D02*
X74835746Y-91413535D01*
X75220084Y-85099053D02*
X76157688Y-89341511D01*
X74303090Y-89438706D01*
X73125023Y-86067169D02*
X72967409Y-85789323D01*
X72667133Y-85518953D01*
X71953826Y-85556336D01*
X71683456Y-85856612D01*
X71555748Y-86149411D01*
X71442993Y-86727533D01*
X71472899Y-87298179D01*
X71660420Y-88146670D01*
X73551794Y-91480824D01*
X71697196Y-91578020D01*
D11*
X99171962Y-93573835D02*
X99200214Y-94382865D01*
X99251128Y-94476384D01*
X99300379Y-94522312D01*
X99397221Y-94566578D01*
X99539992Y-94561592D01*
X99633510Y-94510679D01*
X99193566Y-94192505D02*
X99290408Y-94236772D01*
X99480768Y-94230124D01*
X99574287Y-94179210D01*
X99620215Y-94129958D01*
X99664481Y-94033116D01*
X99654510Y-93747576D01*
X99603596Y-93654058D01*
X99554344Y-93608130D01*
X99457502Y-93563863D01*
X99267142Y-93570511D01*
X99173624Y-93621425D01*
X98719328Y-94256714D02*
X98696061Y-93590454D01*
X98684428Y-93257323D02*
X98733680Y-93303251D01*
X98687752Y-93352503D01*
X98638500Y-93306575D01*
X98684428Y-93257323D01*
X98687752Y-93352503D01*
X98362931Y-93602087D02*
X97982211Y-93615382D01*
X98208528Y-93273942D02*
X98238442Y-94130563D01*
X98194175Y-94227405D01*
X98100657Y-94278319D01*
X98005477Y-94281642D01*
X97672347Y-94293276D02*
X97637447Y-93293885D01*
X97244036Y-94308232D02*
X97225756Y-93784742D01*
X97270022Y-93687900D01*
X97363540Y-93636986D01*
X97506310Y-93632001D01*
X97603152Y-93676267D01*
X97652404Y-93722195D01*
X96316559Y-93673548D02*
X96339826Y-94339808D01*
X96744870Y-93658591D02*
X96763150Y-94182081D01*
X96718884Y-94278923D01*
X96625366Y-94329837D01*
X96482596Y-94334823D01*
X96385754Y-94290556D01*
X96336502Y-94244628D01*
X95863925Y-94356427D02*
X95829026Y-93357036D01*
X95842321Y-93737756D02*
X95745479Y-93693490D01*
X95555119Y-93700138D01*
X95461601Y-93751052D01*
X95415672Y-93800303D01*
X95371406Y-93897145D01*
X95381377Y-94182686D01*
X95432291Y-94276204D01*
X95481543Y-94322132D01*
X95578385Y-94366398D01*
X95768745Y-94359751D01*
X95862263Y-94308837D01*
X94956391Y-94292823D02*
X94910463Y-94342075D01*
X94959715Y-94388003D01*
X95005643Y-94338751D01*
X94956391Y-94292823D01*
X94959715Y-94388003D01*
X94053842Y-94371988D02*
X94150684Y-94416255D01*
X94341044Y-94409607D01*
X94434562Y-94358693D01*
X94480490Y-94309441D01*
X94524757Y-94212599D01*
X94514785Y-93927059D01*
X94463872Y-93833541D01*
X94414620Y-93787613D01*
X94317778Y-93743347D01*
X94127418Y-93749994D01*
X94033899Y-93800908D01*
X93484423Y-94439521D02*
X93577942Y-94388607D01*
X93623870Y-94339355D01*
X93668136Y-94242513D01*
X93658165Y-93956973D01*
X93607251Y-93863455D01*
X93557999Y-93817527D01*
X93461157Y-93773260D01*
X93318387Y-93778246D01*
X93224869Y-93829160D01*
X93178941Y-93878412D01*
X93134674Y-93975254D01*
X93144646Y-94260794D01*
X93195559Y-94354312D01*
X93244811Y-94400240D01*
X93341653Y-94444507D01*
X93484423Y-94439521D01*
X92722983Y-94466111D02*
X92699716Y-93799851D01*
X92703040Y-93895031D02*
X92653788Y-93849102D01*
X92556946Y-93804836D01*
X92414176Y-93809822D01*
X92320658Y-93860736D01*
X92276392Y-93957578D01*
X92294672Y-94481068D01*
X92276392Y-93957578D02*
X92225478Y-93864059D01*
X92128636Y-93819793D01*
X91985866Y-93824779D01*
X91892348Y-93875693D01*
X91848081Y-93972535D01*
X91866362Y-94496025D01*
X90640050Y-93490591D02*
X91541541Y-94745608D01*
X89786753Y-93615685D02*
X89880271Y-93564771D01*
X90023041Y-93559786D01*
X90167473Y-93602390D01*
X90265977Y-93694246D01*
X90316891Y-93787765D01*
X90371128Y-93976463D01*
X90376114Y-94119233D01*
X90335171Y-94311255D01*
X90290905Y-94408097D01*
X90199049Y-94506601D01*
X90057941Y-94559176D01*
X89962760Y-94562500D01*
X89818328Y-94519896D01*
X89769077Y-94473968D01*
X89757443Y-94140837D01*
X89947804Y-94134190D01*
X89344090Y-94584105D02*
X89320824Y-93917844D01*
X89327471Y-94108204D02*
X89276557Y-94014686D01*
X89227305Y-93968758D01*
X89130463Y-93924492D01*
X89035283Y-93927815D01*
X88343037Y-94571414D02*
X88439879Y-94615680D01*
X88630239Y-94609033D01*
X88723758Y-94558119D01*
X88768024Y-94461277D01*
X88754729Y-94080557D01*
X88703815Y-93987039D01*
X88606973Y-93942772D01*
X88416613Y-93949420D01*
X88323095Y-94000334D01*
X88278828Y-94097176D01*
X88282152Y-94192356D01*
X88761376Y-94270917D01*
X87486416Y-94601328D02*
X87583258Y-94645594D01*
X87773619Y-94638947D01*
X87867137Y-94588033D01*
X87911403Y-94491191D01*
X87898108Y-94110471D01*
X87847194Y-94016952D01*
X87750352Y-93972686D01*
X87559992Y-93979334D01*
X87466474Y-94030247D01*
X87422208Y-94127089D01*
X87425531Y-94222270D01*
X87904756Y-94300831D01*
X86988912Y-93999276D02*
X87012178Y-94665537D01*
X86992235Y-94094456D02*
X86942983Y-94048528D01*
X86846142Y-94004262D01*
X86703371Y-94009248D01*
X86609853Y-94060161D01*
X86565587Y-94157003D01*
X86583868Y-94680494D01*
X86107967Y-94697113D02*
X86073068Y-93697722D01*
X85764866Y-94423205D01*
X85406807Y-93720988D01*
X85441707Y-94720379D01*
X84537496Y-94751955D02*
X84519215Y-94228464D01*
X84563482Y-94131622D01*
X84657000Y-94080708D01*
X84847360Y-94074061D01*
X84944202Y-94118327D01*
X84535834Y-94704365D02*
X84632676Y-94748631D01*
X84870626Y-94740321D01*
X84964144Y-94689408D01*
X85008411Y-94592566D01*
X85005087Y-94497386D01*
X84954173Y-94403867D01*
X84857331Y-94359601D01*
X84619381Y-94367911D01*
X84522539Y-94323644D01*
X84107524Y-94719321D02*
X84014006Y-94770235D01*
X83823645Y-94776883D01*
X83726803Y-94732617D01*
X83675890Y-94639098D01*
X83674228Y-94591508D01*
X83718494Y-94494666D01*
X83812012Y-94443753D01*
X83954782Y-94438767D01*
X84048300Y-94387853D01*
X84092567Y-94291011D01*
X84090905Y-94243421D01*
X84039991Y-94149903D01*
X83943149Y-94105637D01*
X83800379Y-94110622D01*
X83706861Y-94161536D01*
X83252565Y-94796825D02*
X83217665Y-93797435D01*
X82824255Y-94811782D02*
X82805974Y-94288292D01*
X82850240Y-94191450D01*
X82943758Y-94140536D01*
X83086528Y-94135550D01*
X83183370Y-94179817D01*
X83232622Y-94225745D01*
X81965972Y-94794106D02*
X82062814Y-94838372D01*
X82253174Y-94831725D01*
X82346692Y-94780811D01*
X82390959Y-94683969D01*
X82377663Y-94303249D01*
X82326750Y-94209731D01*
X82229908Y-94165464D01*
X82039548Y-94172112D01*
X81946029Y-94223026D01*
X81901763Y-94319868D01*
X81905087Y-94415048D01*
X82384311Y-94493609D01*
X81063423Y-94873272D02*
X81028524Y-93873881D01*
X81061761Y-94825682D02*
X81158603Y-94869948D01*
X81348963Y-94863301D01*
X81442481Y-94812387D01*
X81488410Y-94763135D01*
X81532676Y-94666293D01*
X81522705Y-94380753D01*
X81471791Y-94287235D01*
X81422539Y-94241306D01*
X81325697Y-94197040D01*
X81135337Y-94203688D01*
X81041819Y-94254601D01*
X80587523Y-94889891D02*
X80552623Y-93890500D01*
X80171903Y-93903795D01*
X80078385Y-93954709D01*
X80032457Y-94003961D01*
X79988190Y-94100803D01*
X79993176Y-94243573D01*
X80044090Y-94337091D01*
X80093342Y-94383019D01*
X80190184Y-94427285D01*
X80570904Y-94413990D01*
X79445362Y-94929776D02*
X79538880Y-94878862D01*
X79584808Y-94829610D01*
X79629074Y-94732768D01*
X79619103Y-94447228D01*
X79568189Y-94353710D01*
X79518937Y-94307782D01*
X79422095Y-94263515D01*
X79279325Y-94268501D01*
X79185807Y-94319415D01*
X79139879Y-94368667D01*
X79095613Y-94465509D01*
X79105584Y-94751049D01*
X79156498Y-94844567D01*
X79205750Y-94890495D01*
X79302592Y-94934761D01*
X79445362Y-94929776D01*
X78803425Y-94285120D02*
X78422705Y-94298415D01*
X78649022Y-93956975D02*
X78678935Y-94813596D01*
X78634669Y-94910438D01*
X78541151Y-94961352D01*
X78445971Y-94964675D01*
X77684530Y-94991265D02*
X77666250Y-94467775D01*
X77710516Y-94370933D01*
X77804034Y-94320019D01*
X77994394Y-94313372D01*
X78091236Y-94357638D01*
X77682868Y-94943675D02*
X77779710Y-94987942D01*
X78017661Y-94979632D01*
X78111179Y-94928718D01*
X78155445Y-94831877D01*
X78152121Y-94736696D01*
X78101207Y-94643178D01*
X78004365Y-94598912D01*
X77766415Y-94607221D01*
X77669573Y-94562955D01*
X77328134Y-94336638D02*
X76947413Y-94349933D01*
X77173730Y-94008493D02*
X77203644Y-94865114D01*
X77159378Y-94961956D01*
X77065860Y-95012870D01*
X76970680Y-95016194D01*
X76494779Y-95032812D02*
X76588297Y-94981899D01*
X76634226Y-94932647D01*
X76678492Y-94835805D01*
X76668521Y-94550265D01*
X76617607Y-94456746D01*
X76568355Y-94410818D01*
X76471513Y-94366552D01*
X76328743Y-94371538D01*
X76235225Y-94422451D01*
X76189296Y-94471703D01*
X76145030Y-94568545D01*
X76155001Y-94854085D01*
X76205915Y-94947604D01*
X76255167Y-94993532D01*
X76352009Y-95037798D01*
X76494779Y-95032812D01*
X74982927Y-94037350D02*
X75884418Y-95292367D01*
X74732286Y-95046712D02*
X74591178Y-95099288D01*
X74353228Y-95107597D01*
X74256386Y-95063331D01*
X74207134Y-95017403D01*
X74156220Y-94923884D01*
X74152896Y-94828704D01*
X74197162Y-94731862D01*
X74243091Y-94682610D01*
X74336609Y-94631697D01*
X74525307Y-94577459D01*
X74618825Y-94526545D01*
X74664753Y-94477293D01*
X74709020Y-94380451D01*
X74705696Y-94285271D01*
X74654782Y-94191753D01*
X74605530Y-94145825D01*
X74508688Y-94101559D01*
X74270738Y-94109868D01*
X74129630Y-94162444D01*
X73734557Y-95129202D02*
X73699658Y-94129811D01*
X73306247Y-95144158D02*
X73287966Y-94620668D01*
X73332232Y-94523826D01*
X73425750Y-94472912D01*
X73568521Y-94467927D01*
X73665363Y-94512193D01*
X73714614Y-94558121D01*
X72830346Y-95160777D02*
X72807080Y-94494517D01*
X72813727Y-94684877D02*
X72762814Y-94591359D01*
X72713562Y-94545431D01*
X72616720Y-94501164D01*
X72521540Y-94504488D01*
X72211676Y-95182382D02*
X72188409Y-94516121D01*
X72176776Y-94182991D02*
X72226028Y-94228919D01*
X72180100Y-94278171D01*
X72130848Y-94232243D01*
X72176776Y-94182991D01*
X72180100Y-94278171D01*
X71735775Y-95199001D02*
X71712509Y-94532740D01*
X71715833Y-94627920D02*
X71666581Y-94581992D01*
X71569739Y-94537726D01*
X71426969Y-94542711D01*
X71333451Y-94593625D01*
X71289184Y-94690467D01*
X71307465Y-95213957D01*
X71289184Y-94690467D02*
X71238271Y-94596949D01*
X71141429Y-94552683D01*
X70998658Y-94557668D01*
X70905140Y-94608582D01*
X70860874Y-94705424D01*
X70879155Y-95228914D01*
X70379988Y-94579273D02*
X70414887Y-95578663D01*
X70381650Y-94626863D02*
X70284808Y-94582596D01*
X70094448Y-94589244D01*
X70000929Y-94640158D01*
X69955001Y-94689410D01*
X69910735Y-94786252D01*
X69920706Y-95071792D01*
X69971620Y-95165310D01*
X70020872Y-95211238D01*
X70117714Y-95255504D01*
X70308074Y-95248857D01*
X70401592Y-95197943D01*
X69047467Y-94625805D02*
X69070733Y-95292066D01*
X69272122Y-94236776D02*
X69535000Y-94942317D01*
X68916330Y-94963921D01*
X68563257Y-94404474D02*
X68514005Y-94358546D01*
X68417163Y-94314279D01*
X68179213Y-94322589D01*
X68085695Y-94373503D01*
X68039767Y-94422755D01*
X67995500Y-94519597D01*
X67998824Y-94614777D01*
X68051400Y-94755885D01*
X68642423Y-95307023D01*
X68023752Y-95328627D01*
%TO.C,U1*%
X156875662Y-47942754D02*
X156761376Y-47980849D01*
X156723281Y-48018944D01*
X156685186Y-48095135D01*
X156685186Y-48209420D01*
X156723281Y-48285611D01*
X156761376Y-48323706D01*
X156837567Y-48361801D01*
X157142329Y-48361801D01*
X157142329Y-47561801D01*
X156875662Y-47561801D01*
X156799472Y-47599897D01*
X156761376Y-47637992D01*
X156723281Y-47714182D01*
X156723281Y-47790373D01*
X156761376Y-47866563D01*
X156799472Y-47904658D01*
X156875662Y-47942754D01*
X157142329Y-47942754D01*
X155961376Y-47561801D02*
X156342329Y-47561801D01*
X156380424Y-47942754D01*
X156342329Y-47904658D01*
X156266138Y-47866563D01*
X156075662Y-47866563D01*
X155999472Y-47904658D01*
X155961376Y-47942754D01*
X155923281Y-48018944D01*
X155923281Y-48209420D01*
X155961376Y-48285611D01*
X155999472Y-48323706D01*
X156075662Y-48361801D01*
X156266138Y-48361801D01*
X156342329Y-48323706D01*
X156380424Y-48285611D01*
X145891066Y-25433706D02*
X145776780Y-25471801D01*
X145586304Y-25471801D01*
X145510113Y-25433706D01*
X145472018Y-25395611D01*
X145433923Y-25319420D01*
X145433923Y-25243230D01*
X145472018Y-25167039D01*
X145510113Y-25128944D01*
X145586304Y-25090849D01*
X145738685Y-25052754D01*
X145814875Y-25014658D01*
X145852971Y-24976563D01*
X145891066Y-24900373D01*
X145891066Y-24824182D01*
X145852971Y-24747992D01*
X145814875Y-24709897D01*
X145738685Y-24671801D01*
X145548209Y-24671801D01*
X145433923Y-24709897D01*
X145205352Y-24671801D02*
X144748209Y-24671801D01*
X144976780Y-25471801D02*
X144976780Y-24671801D01*
X146182233Y-20421801D02*
X146448900Y-20040849D01*
X146639376Y-20421801D02*
X146639376Y-19621801D01*
X146334614Y-19621801D01*
X146258424Y-19659897D01*
X146220329Y-19697992D01*
X146182233Y-19774182D01*
X146182233Y-19888468D01*
X146220329Y-19964658D01*
X146258424Y-20002754D01*
X146334614Y-20040849D01*
X146639376Y-20040849D01*
X145877472Y-20193230D02*
X145496519Y-20193230D01*
X145953662Y-20421801D02*
X145686995Y-19621801D01*
X145420329Y-20421801D01*
X145229853Y-19621801D02*
X145039376Y-20421801D01*
X144886995Y-19850373D01*
X144734614Y-20421801D01*
X144544138Y-19621801D01*
X145896519Y-35242754D02*
X146163186Y-35242754D01*
X146163186Y-35661801D02*
X146163186Y-34861801D01*
X145782233Y-34861801D01*
X145134614Y-34861801D02*
X145286995Y-34861801D01*
X145363186Y-34899897D01*
X145401281Y-34937992D01*
X145477472Y-35052277D01*
X145515567Y-35204658D01*
X145515567Y-35509420D01*
X145477472Y-35585611D01*
X145439376Y-35623706D01*
X145363186Y-35661801D01*
X145210805Y-35661801D01*
X145134614Y-35623706D01*
X145096519Y-35585611D01*
X145058424Y-35509420D01*
X145058424Y-35318944D01*
X145096519Y-35242754D01*
X145134614Y-35204658D01*
X145210805Y-35166563D01*
X145363186Y-35166563D01*
X145439376Y-35204658D01*
X145477472Y-35242754D01*
X145515567Y-35318944D01*
X156875662Y-45402754D02*
X156761376Y-45440849D01*
X156723281Y-45478944D01*
X156685186Y-45555135D01*
X156685186Y-45669420D01*
X156723281Y-45745611D01*
X156761376Y-45783706D01*
X156837567Y-45821801D01*
X157142329Y-45821801D01*
X157142329Y-45021801D01*
X156875662Y-45021801D01*
X156799472Y-45059897D01*
X156761376Y-45097992D01*
X156723281Y-45174182D01*
X156723281Y-45250373D01*
X156761376Y-45326563D01*
X156799472Y-45364658D01*
X156875662Y-45402754D01*
X157142329Y-45402754D01*
X155999472Y-45288468D02*
X155999472Y-45821801D01*
X156189948Y-44983706D02*
X156380424Y-45555135D01*
X155885186Y-45555135D01*
X146696519Y-27241801D02*
X146429853Y-28041801D01*
X146163186Y-27241801D01*
X145439376Y-27965611D02*
X145477472Y-28003706D01*
X145591757Y-28041801D01*
X145667948Y-28041801D01*
X145782233Y-28003706D01*
X145858424Y-27927516D01*
X145896519Y-27851325D01*
X145934614Y-27698944D01*
X145934614Y-27584658D01*
X145896519Y-27432277D01*
X145858424Y-27356087D01*
X145782233Y-27279897D01*
X145667948Y-27241801D01*
X145591757Y-27241801D01*
X145477472Y-27279897D01*
X145439376Y-27317992D01*
X144639376Y-27965611D02*
X144677472Y-28003706D01*
X144791757Y-28041801D01*
X144867948Y-28041801D01*
X144982233Y-28003706D01*
X145058424Y-27927516D01*
X145096519Y-27851325D01*
X145134614Y-27698944D01*
X145134614Y-27584658D01*
X145096519Y-27432277D01*
X145058424Y-27356087D01*
X144982233Y-27279897D01*
X144867948Y-27241801D01*
X144791757Y-27241801D01*
X144677472Y-27279897D01*
X144639376Y-27317992D01*
X145953662Y-47942754D02*
X145839376Y-47980849D01*
X145801281Y-48018944D01*
X145763186Y-48095135D01*
X145763186Y-48209420D01*
X145801281Y-48285611D01*
X145839376Y-48323706D01*
X145915567Y-48361801D01*
X146220329Y-48361801D01*
X146220329Y-47561801D01*
X145953662Y-47561801D01*
X145877472Y-47599897D01*
X145839376Y-47637992D01*
X145801281Y-47714182D01*
X145801281Y-47790373D01*
X145839376Y-47866563D01*
X145877472Y-47904658D01*
X145953662Y-47942754D01*
X146220329Y-47942754D01*
X145077472Y-47561801D02*
X145229853Y-47561801D01*
X145306043Y-47599897D01*
X145344138Y-47637992D01*
X145420329Y-47752277D01*
X145458424Y-47904658D01*
X145458424Y-48209420D01*
X145420329Y-48285611D01*
X145382233Y-48323706D01*
X145306043Y-48361801D01*
X145153662Y-48361801D01*
X145077472Y-48323706D01*
X145039376Y-48285611D01*
X145001281Y-48209420D01*
X145001281Y-48018944D01*
X145039376Y-47942754D01*
X145077472Y-47904658D01*
X145153662Y-47866563D01*
X145306043Y-47866563D01*
X145382233Y-47904658D01*
X145420329Y-47942754D01*
X145458424Y-48018944D01*
X157161376Y-24739897D02*
X157237567Y-24701801D01*
X157351853Y-24701801D01*
X157466138Y-24739897D01*
X157542329Y-24816087D01*
X157580424Y-24892277D01*
X157618519Y-25044658D01*
X157618519Y-25158944D01*
X157580424Y-25311325D01*
X157542329Y-25387516D01*
X157466138Y-25463706D01*
X157351853Y-25501801D01*
X157275662Y-25501801D01*
X157161376Y-25463706D01*
X157123281Y-25425611D01*
X157123281Y-25158944D01*
X157275662Y-25158944D01*
X156780424Y-25501801D02*
X156780424Y-24701801D01*
X156323281Y-25501801D01*
X156323281Y-24701801D01*
X155942329Y-25501801D02*
X155942329Y-24701801D01*
X155751853Y-24701801D01*
X155637567Y-24739897D01*
X155561376Y-24816087D01*
X155523281Y-24892277D01*
X155485186Y-25044658D01*
X155485186Y-25158944D01*
X155523281Y-25311325D01*
X155561376Y-25387516D01*
X155637567Y-25463706D01*
X155751853Y-25501801D01*
X155942329Y-25501801D01*
X146239376Y-22199897D02*
X146315567Y-22161801D01*
X146429853Y-22161801D01*
X146544138Y-22199897D01*
X146620329Y-22276087D01*
X146658424Y-22352277D01*
X146696519Y-22504658D01*
X146696519Y-22618944D01*
X146658424Y-22771325D01*
X146620329Y-22847516D01*
X146544138Y-22923706D01*
X146429853Y-22961801D01*
X146353662Y-22961801D01*
X146239376Y-22923706D01*
X146201281Y-22885611D01*
X146201281Y-22618944D01*
X146353662Y-22618944D01*
X145858424Y-22961801D02*
X145858424Y-22161801D01*
X145401281Y-22961801D01*
X145401281Y-22161801D01*
X145020329Y-22961801D02*
X145020329Y-22161801D01*
X144829853Y-22161801D01*
X144715567Y-22199897D01*
X144639376Y-22276087D01*
X144601281Y-22352277D01*
X144563186Y-22504658D01*
X144563186Y-22618944D01*
X144601281Y-22771325D01*
X144639376Y-22847516D01*
X144715567Y-22923706D01*
X144829853Y-22961801D01*
X145020329Y-22961801D01*
X156685186Y-38125611D02*
X156723281Y-38163706D01*
X156837567Y-38201801D01*
X156913757Y-38201801D01*
X157028043Y-38163706D01*
X157104233Y-38087516D01*
X157142329Y-38011325D01*
X157180424Y-37858944D01*
X157180424Y-37744658D01*
X157142329Y-37592277D01*
X157104233Y-37516087D01*
X157028043Y-37439897D01*
X156913757Y-37401801D01*
X156837567Y-37401801D01*
X156723281Y-37439897D01*
X156685186Y-37477992D01*
X155999472Y-37401801D02*
X156151853Y-37401801D01*
X156228043Y-37439897D01*
X156266138Y-37477992D01*
X156342329Y-37592277D01*
X156380424Y-37744658D01*
X156380424Y-38049420D01*
X156342329Y-38125611D01*
X156304233Y-38163706D01*
X156228043Y-38201801D01*
X156075662Y-38201801D01*
X155999472Y-38163706D01*
X155961376Y-38125611D01*
X155923281Y-38049420D01*
X155923281Y-37858944D01*
X155961376Y-37782754D01*
X155999472Y-37744658D01*
X156075662Y-37706563D01*
X156228043Y-37706563D01*
X156304233Y-37744658D01*
X156342329Y-37782754D01*
X156380424Y-37858944D01*
X157142329Y-30581801D02*
X157142329Y-29781801D01*
X156951853Y-29781801D01*
X156837567Y-29819897D01*
X156761376Y-29896087D01*
X156723281Y-29972277D01*
X156685186Y-30124658D01*
X156685186Y-30238944D01*
X156723281Y-30391325D01*
X156761376Y-30467516D01*
X156837567Y-30543706D01*
X156951853Y-30581801D01*
X157142329Y-30581801D01*
X155923281Y-30581801D02*
X156380424Y-30581801D01*
X156151853Y-30581801D02*
X156151853Y-29781801D01*
X156228043Y-29896087D01*
X156304233Y-29972277D01*
X156380424Y-30010373D01*
X156853201Y-19621801D02*
X156396058Y-19621801D01*
X156624629Y-20421801D02*
X156624629Y-19621801D01*
X156205582Y-19621801D02*
X155672248Y-20421801D01*
X155672248Y-19621801D02*
X156205582Y-20421801D01*
X155215105Y-19621801D02*
X155138915Y-19621801D01*
X155062725Y-19659897D01*
X155024629Y-19697992D01*
X154986534Y-19774182D01*
X154948439Y-19926563D01*
X154948439Y-20117039D01*
X154986534Y-20269420D01*
X155024629Y-20345611D01*
X155062725Y-20383706D01*
X155138915Y-20421801D01*
X155215105Y-20421801D01*
X155291296Y-20383706D01*
X155329391Y-20345611D01*
X155367486Y-20269420D01*
X155405582Y-20117039D01*
X155405582Y-19926563D01*
X155367486Y-19774182D01*
X155329391Y-19697992D01*
X155291296Y-19659897D01*
X155215105Y-19621801D01*
X154034153Y-19583706D02*
X154719867Y-20612277D01*
X153767486Y-20421801D02*
X153767486Y-19621801D01*
X153577010Y-19621801D01*
X153462725Y-19659897D01*
X153386534Y-19736087D01*
X153348439Y-19812277D01*
X153310344Y-19964658D01*
X153310344Y-20078944D01*
X153348439Y-20231325D01*
X153386534Y-20307516D01*
X153462725Y-20383706D01*
X153577010Y-20421801D01*
X153767486Y-20421801D01*
X153043677Y-19621801D02*
X152548439Y-19621801D01*
X152815105Y-19926563D01*
X152700820Y-19926563D01*
X152624629Y-19964658D01*
X152586534Y-20002754D01*
X152548439Y-20078944D01*
X152548439Y-20269420D01*
X152586534Y-20345611D01*
X152624629Y-20383706D01*
X152700820Y-20421801D01*
X152929391Y-20421801D01*
X153005582Y-20383706D01*
X153043677Y-20345611D01*
X145953662Y-42862754D02*
X145839376Y-42900849D01*
X145801281Y-42938944D01*
X145763186Y-43015135D01*
X145763186Y-43129420D01*
X145801281Y-43205611D01*
X145839376Y-43243706D01*
X145915567Y-43281801D01*
X146220329Y-43281801D01*
X146220329Y-42481801D01*
X145953662Y-42481801D01*
X145877472Y-42519897D01*
X145839376Y-42557992D01*
X145801281Y-42634182D01*
X145801281Y-42710373D01*
X145839376Y-42786563D01*
X145877472Y-42824658D01*
X145953662Y-42862754D01*
X146220329Y-42862754D01*
X145496519Y-42481801D02*
X145001281Y-42481801D01*
X145267948Y-42786563D01*
X145153662Y-42786563D01*
X145077472Y-42824658D01*
X145039376Y-42862754D01*
X145001281Y-42938944D01*
X145001281Y-43129420D01*
X145039376Y-43205611D01*
X145077472Y-43243706D01*
X145153662Y-43281801D01*
X145382233Y-43281801D01*
X145458424Y-43243706D01*
X145496519Y-43205611D01*
X157104233Y-42862754D02*
X156837567Y-42862754D01*
X156723281Y-43281801D02*
X157104233Y-43281801D01*
X157104233Y-42481801D01*
X156723281Y-42481801D01*
X156037567Y-42481801D02*
X156189948Y-42481801D01*
X156266138Y-42519897D01*
X156304233Y-42557992D01*
X156380424Y-42672277D01*
X156418519Y-42824658D01*
X156418519Y-43129420D01*
X156380424Y-43205611D01*
X156342329Y-43243706D01*
X156266138Y-43281801D01*
X156113757Y-43281801D01*
X156037567Y-43243706D01*
X155999472Y-43205611D01*
X155961376Y-43129420D01*
X155961376Y-42938944D01*
X155999472Y-42862754D01*
X156037567Y-42824658D01*
X156113757Y-42786563D01*
X156266138Y-42786563D01*
X156342329Y-42824658D01*
X156380424Y-42862754D01*
X156418519Y-42938944D01*
X157142329Y-33121801D02*
X157142329Y-32321801D01*
X156951853Y-32321801D01*
X156837567Y-32359897D01*
X156761376Y-32436087D01*
X156723281Y-32512277D01*
X156685186Y-32664658D01*
X156685186Y-32778944D01*
X156723281Y-32931325D01*
X156761376Y-33007516D01*
X156837567Y-33083706D01*
X156951853Y-33121801D01*
X157142329Y-33121801D01*
X156189948Y-32321801D02*
X156113757Y-32321801D01*
X156037567Y-32359897D01*
X155999472Y-32397992D01*
X155961376Y-32474182D01*
X155923281Y-32626563D01*
X155923281Y-32817039D01*
X155961376Y-32969420D01*
X155999472Y-33045611D01*
X156037567Y-33083706D01*
X156113757Y-33121801D01*
X156189948Y-33121801D01*
X156266138Y-33083706D01*
X156304233Y-33045611D01*
X156342329Y-32969420D01*
X156380424Y-32817039D01*
X156380424Y-32626563D01*
X156342329Y-32474182D01*
X156304233Y-32397992D01*
X156266138Y-32359897D01*
X156189948Y-32321801D01*
X145896519Y-32702754D02*
X146163186Y-32702754D01*
X146163186Y-33121801D02*
X146163186Y-32321801D01*
X145782233Y-32321801D01*
X145096519Y-32321801D02*
X145477472Y-32321801D01*
X145515567Y-32702754D01*
X145477472Y-32664658D01*
X145401281Y-32626563D01*
X145210805Y-32626563D01*
X145134614Y-32664658D01*
X145096519Y-32702754D01*
X145058424Y-32778944D01*
X145058424Y-32969420D01*
X145096519Y-33045611D01*
X145134614Y-33083706D01*
X145210805Y-33121801D01*
X145401281Y-33121801D01*
X145477472Y-33083706D01*
X145515567Y-33045611D01*
X145896519Y-37782754D02*
X146163186Y-37782754D01*
X146163186Y-38201801D02*
X146163186Y-37401801D01*
X145782233Y-37401801D01*
X145553662Y-37401801D02*
X145020329Y-37401801D01*
X145363186Y-38201801D01*
X157142329Y-35661801D02*
X157142329Y-34861801D01*
X156951853Y-34861801D01*
X156837567Y-34899897D01*
X156761376Y-34976087D01*
X156723281Y-35052277D01*
X156685186Y-35204658D01*
X156685186Y-35318944D01*
X156723281Y-35471325D01*
X156761376Y-35547516D01*
X156837567Y-35623706D01*
X156951853Y-35661801D01*
X157142329Y-35661801D01*
X155999472Y-35128468D02*
X155999472Y-35661801D01*
X156189948Y-34823706D02*
X156380424Y-35395135D01*
X155885186Y-35395135D01*
X157142329Y-40741801D02*
X157142329Y-39941801D01*
X156951853Y-39941801D01*
X156837567Y-39979897D01*
X156761376Y-40056087D01*
X156723281Y-40132277D01*
X156685186Y-40284658D01*
X156685186Y-40398944D01*
X156723281Y-40551325D01*
X156761376Y-40627516D01*
X156837567Y-40703706D01*
X156951853Y-40741801D01*
X157142329Y-40741801D01*
X156418519Y-39941801D02*
X155885186Y-39941801D01*
X156228043Y-40741801D01*
X157142329Y-22961801D02*
X157142329Y-22161801D01*
X156951853Y-22161801D01*
X156837567Y-22199897D01*
X156761376Y-22276087D01*
X156723281Y-22352277D01*
X156685186Y-22504658D01*
X156685186Y-22618944D01*
X156723281Y-22771325D01*
X156761376Y-22847516D01*
X156837567Y-22923706D01*
X156951853Y-22961801D01*
X157142329Y-22961801D01*
X156380424Y-22237992D02*
X156342329Y-22199897D01*
X156266138Y-22161801D01*
X156075662Y-22161801D01*
X155999472Y-22199897D01*
X155961376Y-22237992D01*
X155923281Y-22314182D01*
X155923281Y-22390373D01*
X155961376Y-22504658D01*
X156418519Y-22961801D01*
X155923281Y-22961801D01*
X145896519Y-30162754D02*
X146163186Y-30162754D01*
X146163186Y-30581801D02*
X146163186Y-29781801D01*
X145782233Y-29781801D01*
X145134614Y-30048468D02*
X145134614Y-30581801D01*
X145325091Y-29743706D02*
X145515567Y-30315135D01*
X145020329Y-30315135D01*
X145953662Y-40322754D02*
X145839376Y-40360849D01*
X145801281Y-40398944D01*
X145763186Y-40475135D01*
X145763186Y-40589420D01*
X145801281Y-40665611D01*
X145839376Y-40703706D01*
X145915567Y-40741801D01*
X146220329Y-40741801D01*
X146220329Y-39941801D01*
X145953662Y-39941801D01*
X145877472Y-39979897D01*
X145839376Y-40017992D01*
X145801281Y-40094182D01*
X145801281Y-40170373D01*
X145839376Y-40246563D01*
X145877472Y-40284658D01*
X145953662Y-40322754D01*
X146220329Y-40322754D01*
X145001281Y-40741801D02*
X145458424Y-40741801D01*
X145229853Y-40741801D02*
X145229853Y-39941801D01*
X145306043Y-40056087D01*
X145382233Y-40132277D01*
X145458424Y-40170373D01*
X145953662Y-45402754D02*
X145839376Y-45440849D01*
X145801281Y-45478944D01*
X145763186Y-45555135D01*
X145763186Y-45669420D01*
X145801281Y-45745611D01*
X145839376Y-45783706D01*
X145915567Y-45821801D01*
X146220329Y-45821801D01*
X146220329Y-45021801D01*
X145953662Y-45021801D01*
X145877472Y-45059897D01*
X145839376Y-45097992D01*
X145801281Y-45174182D01*
X145801281Y-45250373D01*
X145839376Y-45326563D01*
X145877472Y-45364658D01*
X145953662Y-45402754D01*
X146220329Y-45402754D01*
X145458424Y-45097992D02*
X145420329Y-45059897D01*
X145344138Y-45021801D01*
X145153662Y-45021801D01*
X145077472Y-45059897D01*
X145039376Y-45097992D01*
X145001281Y-45174182D01*
X145001281Y-45250373D01*
X145039376Y-45364658D01*
X145496519Y-45821801D01*
X145001281Y-45821801D01*
X157161376Y-27279897D02*
X157237567Y-27241801D01*
X157351853Y-27241801D01*
X157466138Y-27279897D01*
X157542329Y-27356087D01*
X157580424Y-27432277D01*
X157618519Y-27584658D01*
X157618519Y-27698944D01*
X157580424Y-27851325D01*
X157542329Y-27927516D01*
X157466138Y-28003706D01*
X157351853Y-28041801D01*
X157275662Y-28041801D01*
X157161376Y-28003706D01*
X157123281Y-27965611D01*
X157123281Y-27698944D01*
X157275662Y-27698944D01*
X156780424Y-28041801D02*
X156780424Y-27241801D01*
X156323281Y-28041801D01*
X156323281Y-27241801D01*
X155942329Y-28041801D02*
X155942329Y-27241801D01*
X155751853Y-27241801D01*
X155637567Y-27279897D01*
X155561376Y-27356087D01*
X155523281Y-27432277D01*
X155485186Y-27584658D01*
X155485186Y-27698944D01*
X155523281Y-27851325D01*
X155561376Y-27927516D01*
X155637567Y-28003706D01*
X155751853Y-28041801D01*
X155942329Y-28041801D01*
%TO.C,K-0-0*%
X29813683Y-52606056D02*
X24947663Y-53957525D01*
X19790824Y-57314603D02*
X23277816Y-56380266D01*
X29801777Y-52561623D02*
X28790312Y-48786785D01*
X18767453Y-53495332D02*
X19788494Y-57305909D01*
X28790312Y-48786785D02*
X20459202Y-51019100D01*
X20459202Y-51019099D02*
G75*
G03*
X18759961Y-53424870I353265J-2052506D01*
G01*
X24972846Y-53954918D02*
G75*
G03*
X23276434Y-56355790I352230J-2048642D01*
G01*
%TO.C,K-0-1*%
X50949128Y-47586485D02*
X50136609Y-43763885D01*
X50136609Y-43763885D02*
X41700086Y-45557123D01*
X39881060Y-47941422D02*
X40701272Y-51800215D01*
X50958692Y-47631480D02*
X46028611Y-48726429D01*
X40703143Y-51809018D02*
X44234256Y-51058457D01*
X46053896Y-48725144D02*
G75*
G03*
X44234156Y-51033942I244529J-2064269D01*
G01*
X41700086Y-45557123D02*
G75*
G03*
X39877266Y-47870665I245361J-2068181D01*
G01*
%TO.C,K-0-2*%
X68684983Y-24466110D02*
X60166171Y-25815357D01*
X58224853Y-28101189D02*
X58841987Y-31997619D01*
X69296329Y-28325996D02*
X68684983Y-24466110D01*
X69303525Y-28371430D02*
X64322895Y-29206858D01*
X58843395Y-32006508D02*
X62408950Y-31441780D01*
X64348213Y-29206898D02*
G75*
G03*
X62410134Y-31417293I136158J-2074237D01*
G01*
X60166171Y-25815358D02*
G75*
G03*
X58224767Y-28030330I136784J-2078188D01*
G01*
%TO.C,K-0-3*%
X80357188Y-26414221D02*
X83947412Y-26036873D01*
X79943882Y-22481881D02*
X80356247Y-26405270D01*
X90988420Y-23285817D02*
X90579922Y-19399225D01*
X90579922Y-19399225D02*
X82002171Y-20300783D01*
X90993228Y-23331565D02*
X85975701Y-23905182D01*
X82002171Y-20300783D02*
G75*
G03*
X79947505Y-22411115I27833J-2082499D01*
G01*
X86000982Y-23906546D02*
G75*
G03*
X83949876Y-26012482I27415J-2078521D01*
G01*
%TO.C,K-0-4*%
X113102574Y-20334416D02*
X104489394Y-20785814D01*
X102526713Y-26804781D02*
X106131765Y-26615848D01*
X113307103Y-24237060D02*
X113102574Y-20334416D01*
X102319776Y-22856200D02*
X102526242Y-26795794D01*
X113309510Y-24282997D02*
X108268839Y-24593231D01*
X108294014Y-24595918D02*
G75*
G03*
X106135503Y-26591620I-81405J-2077106D01*
G01*
X104489394Y-20785814D02*
G75*
G03*
X102327098Y-22785720I-81195J-2081101D01*
G01*
%TO.C,K-0-5*%
X135570357Y-23990828D02*
X130520357Y-24036828D01*
X124670357Y-21990828D02*
X124670357Y-25935828D01*
X124670357Y-25944828D02*
X128280357Y-25944828D01*
X135570357Y-20036828D02*
X126945357Y-20036828D01*
X135570357Y-23944828D02*
X135570357Y-20036828D01*
X130545357Y-24040828D02*
G75*
G03*
X128285357Y-25920828I-190000J-2070000D01*
G01*
X126945357Y-20036828D02*
G75*
G03*
X124681357Y-21920828I-190000J-2074000D01*
G01*
%TO.C,K-1-0*%
X33711108Y-67076739D02*
X25379998Y-69309054D01*
X23688249Y-71785286D02*
X24709290Y-75595863D01*
X24711620Y-75604557D02*
X28198612Y-74670220D01*
X34734479Y-70896010D02*
X29868459Y-72247479D01*
X34722573Y-70851577D02*
X33711108Y-67076739D01*
X29893642Y-72244872D02*
G75*
G03*
X28197230Y-74645744I352230J-2048642D01*
G01*
X25379998Y-69309053D02*
G75*
G03*
X23680757Y-71714824I353265J-2052506D01*
G01*
%TO.C,K-1-1*%
X54909842Y-66220197D02*
X54097323Y-62397597D01*
X44663857Y-70442730D02*
X48194970Y-69692169D01*
X43841774Y-66575134D02*
X44661986Y-70433927D01*
X54097323Y-62397597D02*
X45660800Y-64190835D01*
X54919406Y-66265192D02*
X49989325Y-67360141D01*
X50014610Y-67358856D02*
G75*
G03*
X48194870Y-69667654I244529J-2064269D01*
G01*
X45660800Y-64190835D02*
G75*
G03*
X43837980Y-66504377I245361J-2068181D01*
G01*
%TO.C,K-1-2*%
X61204927Y-46916651D02*
X61822061Y-50813081D01*
X72276403Y-47141458D02*
X71665057Y-43281572D01*
X71665057Y-43281572D02*
X63146245Y-44630819D01*
X61823469Y-50821970D02*
X65389024Y-50257242D01*
X72283599Y-47186892D02*
X67302969Y-48022320D01*
X63146245Y-44630820D02*
G75*
G03*
X61204841Y-46845792I136784J-2078188D01*
G01*
X67328287Y-48022360D02*
G75*
G03*
X65390208Y-50232755I136158J-2074237D01*
G01*
%TO.C,K-1-3*%
X92979688Y-42231457D02*
X92571190Y-38344865D01*
X92571190Y-38344865D02*
X83993439Y-39246423D01*
X82348456Y-45359861D02*
X85938680Y-44982513D01*
X92984496Y-42277205D02*
X87966969Y-42850822D01*
X81935150Y-41427521D02*
X82347515Y-45350910D01*
X87992250Y-42852186D02*
G75*
G03*
X85941144Y-44958122I27415J-2078521D01*
G01*
X83993439Y-39246423D02*
G75*
G03*
X81938773Y-41356755I27833J-2082499D01*
G01*
%TO.C,K-1-4*%
X114306509Y-43306889D02*
X109265838Y-43617123D01*
X114099573Y-39358308D02*
X105486393Y-39809706D01*
X103523712Y-45828673D02*
X107128764Y-45639740D01*
X114304102Y-43260952D02*
X114099573Y-39358308D01*
X103316775Y-41880092D02*
X103523241Y-45819686D01*
X109291013Y-43619810D02*
G75*
G03*
X107132502Y-45615512I-81405J-2077106D01*
G01*
X105486393Y-39809706D02*
G75*
G03*
X103324097Y-41809612I-81195J-2081101D01*
G01*
%TO.C,K-1-5*%
X135570357Y-43040828D02*
X130520357Y-43086828D01*
X124670357Y-41040828D02*
X124670357Y-44985828D01*
X124670357Y-44994828D02*
X128280357Y-44994828D01*
X135570357Y-39086828D02*
X126945357Y-39086828D01*
X135570357Y-42994828D02*
X135570357Y-39086828D01*
X126945357Y-39086828D02*
G75*
G03*
X124681357Y-40970828I-190000J-2074000D01*
G01*
X130545357Y-43090828D02*
G75*
G03*
X128285357Y-44970828I-190000J-2070000D01*
G01*
%TO.C,K-2-0*%
X28618753Y-90186172D02*
X29639794Y-93996749D01*
X29642124Y-94005443D02*
X33129116Y-93071106D01*
X39653077Y-89252463D02*
X38641612Y-85477625D01*
X39664983Y-89296896D02*
X34798963Y-90648365D01*
X38641612Y-85477625D02*
X30310502Y-87709940D01*
X30310502Y-87709939D02*
G75*
G03*
X28611261Y-90115710I353265J-2052506D01*
G01*
X34824146Y-90645758D02*
G75*
G03*
X33127734Y-93046630I352230J-2048642D01*
G01*
%TO.C,K-2-1*%
X58058044Y-81031308D02*
X49621521Y-82824546D01*
X58870563Y-84853908D02*
X58058044Y-81031308D01*
X48624578Y-89076441D02*
X52155691Y-88325880D01*
X47802495Y-85208845D02*
X48622707Y-89067638D01*
X58880127Y-84898903D02*
X53950046Y-85993852D01*
X49621521Y-82824546D02*
G75*
G03*
X47798701Y-85138088I245361J-2068181D01*
G01*
X53975331Y-85992567D02*
G75*
G03*
X52155591Y-88301365I244529J-2064269D01*
G01*
%TO.C,K-2-2*%
X74645134Y-62097034D02*
X66126322Y-63446281D01*
X75263676Y-66002354D02*
X70283046Y-66837782D01*
X64803546Y-69637432D02*
X68369101Y-69072704D01*
X64185004Y-65732113D02*
X64802138Y-69628543D01*
X75256480Y-65956920D02*
X74645134Y-62097034D01*
X66126322Y-63446282D02*
G75*
G03*
X64184918Y-65661254I136784J-2078188D01*
G01*
X70308364Y-66837822D02*
G75*
G03*
X68370285Y-69048217I136158J-2074237D01*
G01*
%TO.C,K-2-3*%
X84339722Y-64305504D02*
X87929946Y-63928156D01*
X83926416Y-60373164D02*
X84338781Y-64296553D01*
X94970954Y-61177100D02*
X94562456Y-57290508D01*
X94975762Y-61222848D02*
X89958235Y-61796465D01*
X94562456Y-57290508D02*
X85984705Y-58192066D01*
X85984705Y-58192066D02*
G75*
G03*
X83930039Y-60302398I27833J-2082499D01*
G01*
X89983516Y-61797829D02*
G75*
G03*
X87932410Y-63903765I27415J-2078521D01*
G01*
%TO.C,K-2-4*%
X104520713Y-64852566D02*
X108125765Y-64663633D01*
X115096574Y-58382201D02*
X106483394Y-58833599D01*
X115303510Y-62330782D02*
X110262839Y-62641016D01*
X104313776Y-60903985D02*
X104520242Y-64843579D01*
X115301103Y-62284845D02*
X115096574Y-58382201D01*
X110288014Y-62643703D02*
G75*
G03*
X108129503Y-64639405I-81405J-2077106D01*
G01*
X106483394Y-58833599D02*
G75*
G03*
X104321098Y-60833505I-81195J-2081101D01*
G01*
%TO.C,K-2-5*%
X135570357Y-58136828D02*
X126945357Y-58136828D01*
X124670357Y-64044828D02*
X128280357Y-64044828D01*
X135570357Y-62044828D02*
X135570357Y-58136828D01*
X124670357Y-60090828D02*
X124670357Y-64035828D01*
X135570357Y-62090828D02*
X130520357Y-62136828D01*
X130545357Y-62140828D02*
G75*
G03*
X128285357Y-64020828I-190000J-2070000D01*
G01*
X126945357Y-58136828D02*
G75*
G03*
X124681357Y-60020828I-190000J-2074000D01*
G01*
%TO.C,K-3-3*%
X104375045Y-84632203D02*
X107982846Y-84758190D01*
X104513038Y-80680612D02*
X104375359Y-84623208D01*
X115474591Y-79108206D02*
X106854845Y-78807198D01*
X115336599Y-83059798D02*
X110288069Y-82929527D01*
X115338204Y-83013826D02*
X115474591Y-79108206D01*
X110312915Y-82934398D02*
G75*
G03*
X107988680Y-84734379I-262127J-2062107D01*
G01*
X106854845Y-78807199D02*
G75*
G03*
X104526474Y-80611038I-262266J-2066105D01*
G01*
%TO.C,K-3-4*%
X135120470Y-84830293D02*
X130093326Y-84348172D01*
X135533776Y-80897954D02*
X126956024Y-79996396D01*
X124075933Y-85634229D02*
X127666157Y-86011577D01*
X135125279Y-84784545D02*
X135533776Y-80897954D01*
X124489238Y-81701889D02*
X124076874Y-85625278D01*
X126956024Y-79996396D02*
G75*
G03*
X124507495Y-81633422I-405751J-2042778D01*
G01*
X130117771Y-84354764D02*
G75*
G03*
X127673638Y-85988231I-405333J-2038800D01*
G01*
%TO.C,K-3-5*%
X154778034Y-87983753D02*
X149796767Y-87152131D01*
X144390925Y-84121373D02*
X143705883Y-88006439D01*
X155464638Y-84089823D02*
X146970672Y-82592108D01*
X143704320Y-88015302D02*
X147259476Y-88642172D01*
X154786021Y-87938452D02*
X155464638Y-84089823D01*
X146970672Y-82592108D02*
G75*
G03*
X144413914Y-84054346I-547260J-2009498D01*
G01*
X149820692Y-87160411D02*
G75*
G03*
X147268568Y-88619405I-546565J-2005559D01*
G01*
D12*
%TO.C,U1*%
X157440853Y-18789897D02*
X159980853Y-18789897D01*
X142200853Y-18789897D02*
X142200853Y-16249897D01*
X142200853Y-49269897D02*
X142200853Y-18789897D01*
X159980853Y-18789897D02*
X159980853Y-49269897D01*
X157440853Y-21329897D02*
X159980853Y-21329897D01*
X159980853Y-16249897D02*
X159980853Y-18789897D01*
X157440853Y-18789897D02*
X157440853Y-21329897D01*
X142200853Y-16249897D02*
X159980853Y-16249897D01*
X159980853Y-49269897D02*
X142200853Y-49269897D01*
D11*
X146159285Y-25269257D02*
X146159285Y-25469257D01*
X146159285Y-25469257D02*
X146259285Y-25469257D01*
X146259285Y-25469257D02*
X146259285Y-25269257D01*
X146259285Y-25269257D02*
X146159285Y-25269257D01*
G36*
X146259285Y-25469257D02*
G01*
X146159285Y-25469257D01*
X146159285Y-25269257D01*
X146259285Y-25269257D01*
X146259285Y-25469257D01*
G37*
X146259285Y-25469257D02*
X146159285Y-25469257D01*
X146159285Y-25269257D01*
X146259285Y-25269257D01*
X146259285Y-25469257D01*
X146559285Y-24669257D02*
X146559285Y-25469257D01*
X146559285Y-25469257D02*
X146659285Y-25469257D01*
X146659285Y-25469257D02*
X146659285Y-24669257D01*
X146659285Y-24669257D02*
X146559285Y-24669257D01*
G36*
X146659285Y-25469257D02*
G01*
X146559285Y-25469257D01*
X146559285Y-24669257D01*
X146659285Y-24669257D01*
X146659285Y-25469257D01*
G37*
X146659285Y-25469257D02*
X146559285Y-25469257D01*
X146559285Y-24669257D01*
X146659285Y-24669257D01*
X146659285Y-25469257D01*
X146159285Y-24669257D02*
X146159285Y-24769257D01*
X146159285Y-24769257D02*
X146659285Y-24769257D01*
X146659285Y-24769257D02*
X146659285Y-24669257D01*
X146659285Y-24669257D02*
X146159285Y-24669257D01*
G36*
X146659285Y-24769257D02*
G01*
X146159285Y-24769257D01*
X146159285Y-24669257D01*
X146659285Y-24669257D01*
X146659285Y-24769257D01*
G37*
X146659285Y-24769257D02*
X146159285Y-24769257D01*
X146159285Y-24669257D01*
X146659285Y-24669257D01*
X146659285Y-24769257D01*
X146359285Y-25069257D02*
X146359285Y-25169257D01*
X146359285Y-25169257D02*
X146459285Y-25169257D01*
X146459285Y-25169257D02*
X146459285Y-25069257D01*
X146459285Y-25069257D02*
X146359285Y-25069257D01*
G36*
X146459285Y-25169257D02*
G01*
X146359285Y-25169257D01*
X146359285Y-25069257D01*
X146459285Y-25069257D01*
X146459285Y-25169257D01*
G37*
X146459285Y-25169257D02*
X146359285Y-25169257D01*
X146359285Y-25069257D01*
X146459285Y-25069257D01*
X146459285Y-25169257D01*
X146159285Y-24669257D02*
X146159285Y-24969257D01*
X146159285Y-24969257D02*
X146259285Y-24969257D01*
X146259285Y-24969257D02*
X146259285Y-24669257D01*
X146259285Y-24669257D02*
X146159285Y-24669257D01*
G36*
X146259285Y-24969257D02*
G01*
X146159285Y-24969257D01*
X146159285Y-24669257D01*
X146259285Y-24669257D01*
X146259285Y-24969257D01*
G37*
X146259285Y-24969257D02*
X146159285Y-24969257D01*
X146159285Y-24669257D01*
X146259285Y-24669257D01*
X146259285Y-24969257D01*
D13*
%TO.C,J2*%
X159145193Y-66673507D02*
X159145193Y-58774107D01*
X159145193Y-78972187D02*
X159145193Y-71072787D01*
X157458633Y-63158147D02*
X157458633Y-64428147D01*
X157646593Y-66673507D02*
X157646593Y-71072787D01*
X150148513Y-58774107D02*
X150148513Y-78972187D01*
X159145193Y-66673507D02*
X157646593Y-66673507D01*
X150148513Y-78972187D02*
X159145193Y-78972187D01*
X157420533Y-63158147D02*
X157420533Y-64428147D01*
X159145193Y-71072787D02*
X159145193Y-66673507D01*
X159145193Y-58774107D02*
X150247573Y-58774107D01*
X157646593Y-71072787D02*
X159145193Y-71072787D01*
%TO.C,G\u002A\u002A\u002A*%
G36*
X138887071Y-17152195D02*
G01*
X139845758Y-17313915D01*
X140369420Y-17506498D01*
X141175971Y-17990703D01*
X141851429Y-18606031D01*
X142265157Y-19248045D01*
X142348472Y-19520216D01*
X142473199Y-20363977D01*
X142497295Y-21352639D01*
X142421574Y-22316231D01*
X142246846Y-23084776D01*
X142141954Y-23380239D01*
X142036615Y-23802024D01*
X142095111Y-24082904D01*
X142327108Y-24378757D01*
X142333578Y-24385966D01*
X142661502Y-25008283D01*
X142867710Y-26004095D01*
X142879021Y-26104949D01*
X142881658Y-26128462D01*
X142873443Y-27131994D01*
X142618191Y-28107222D01*
X142085446Y-29134671D01*
X141244752Y-30294861D01*
X140943579Y-30658789D01*
X140486261Y-31133846D01*
X139984063Y-31520592D01*
X139328054Y-31897747D01*
X138409305Y-32344038D01*
X137780897Y-32631585D01*
X136968994Y-32964170D01*
X136245793Y-33183062D01*
X135448852Y-33333719D01*
X134415734Y-33461597D01*
X133465894Y-33545651D01*
X132272766Y-33572382D01*
X131420111Y-33476785D01*
X131133927Y-33410632D01*
X130667454Y-33307972D01*
X130460057Y-33270369D01*
X130449485Y-33285190D01*
X130431908Y-33389599D01*
X130405038Y-33549211D01*
X130366245Y-34037521D01*
X130343295Y-34276942D01*
X130145832Y-35204753D01*
X129794588Y-36306876D01*
X129336886Y-37460344D01*
X128820045Y-38542184D01*
X128291386Y-39429425D01*
X127305347Y-40652186D01*
X125802971Y-42028185D01*
X124103512Y-43147966D01*
X122302398Y-43939662D01*
X121184318Y-44247082D01*
X119135340Y-44507167D01*
X117084424Y-44405726D01*
X115083788Y-43961168D01*
X113185653Y-43191897D01*
X111442238Y-42116321D01*
X109905760Y-40752844D01*
X108628440Y-39119875D01*
X108484444Y-38885330D01*
X108043162Y-38067277D01*
X107600903Y-37128260D01*
X107207578Y-36185313D01*
X106936145Y-35420423D01*
X108025967Y-35420423D01*
X108232869Y-36049901D01*
X108758068Y-37336170D01*
X109792025Y-39019657D01*
X111120612Y-40497083D01*
X112695356Y-41725574D01*
X114467786Y-42662256D01*
X116389430Y-43264256D01*
X116948859Y-43347163D01*
X117876576Y-43405115D01*
X118911578Y-43409239D01*
X119927559Y-43362870D01*
X120798210Y-43269345D01*
X121397222Y-43132000D01*
X121522103Y-43084941D01*
X122033424Y-42891177D01*
X122648672Y-42657086D01*
X123351659Y-42347714D01*
X124844820Y-41421716D01*
X126230461Y-40209296D01*
X127426951Y-38788046D01*
X128352662Y-37235552D01*
X128551076Y-36777260D01*
X128846226Y-35925923D01*
X129088609Y-35030842D01*
X129255063Y-34196113D01*
X129322426Y-33525826D01*
X129267535Y-33124078D01*
X129264837Y-33119286D01*
X129190798Y-33060087D01*
X129030157Y-33022315D01*
X128751893Y-33008875D01*
X128324985Y-33022674D01*
X127718415Y-33066614D01*
X126901162Y-33143601D01*
X125842207Y-33256540D01*
X124510529Y-33408335D01*
X122875108Y-33601891D01*
X120904926Y-33840114D01*
X118568959Y-34125907D01*
X108025967Y-35420423D01*
X106936145Y-35420423D01*
X106913097Y-35355474D01*
X106767368Y-34755778D01*
X106800336Y-34734820D01*
X107151929Y-34654146D01*
X107871355Y-34532247D01*
X108937799Y-34372005D01*
X110330444Y-34176304D01*
X112028473Y-33948028D01*
X114011071Y-33690058D01*
X116257422Y-33405278D01*
X118746709Y-33096572D01*
X119046030Y-33059815D01*
X121669149Y-32736640D01*
X123932611Y-32453611D01*
X124534659Y-32375921D01*
X131908954Y-32375921D01*
X131909249Y-32500458D01*
X131956138Y-32517023D01*
X132470778Y-32583828D01*
X133239138Y-32578086D01*
X134141740Y-32511345D01*
X135059108Y-32395150D01*
X135871766Y-32241053D01*
X136460235Y-32060598D01*
X136877422Y-31879356D01*
X137676413Y-31532596D01*
X138468980Y-31188950D01*
X139012607Y-30926913D01*
X139556451Y-30560375D01*
X140077141Y-30049953D01*
X140690570Y-29296947D01*
X141237753Y-28534997D01*
X141684364Y-27729112D01*
X141886584Y-27039466D01*
X141906848Y-26849452D01*
X141901593Y-26224962D01*
X141812287Y-25641359D01*
X141663673Y-25218308D01*
X141480491Y-25075474D01*
X141476374Y-25076844D01*
X141290205Y-25250455D01*
X140907872Y-25669537D01*
X140382838Y-26273884D01*
X139768564Y-27003292D01*
X138719268Y-28158167D01*
X136955623Y-29709007D01*
X135059989Y-30954514D01*
X133097547Y-31847355D01*
X133031949Y-31870765D01*
X132286797Y-32164041D01*
X131908954Y-32375921D01*
X124534659Y-32375921D01*
X125870285Y-32203568D01*
X127516040Y-31979350D01*
X128903746Y-31773795D01*
X130067271Y-31579743D01*
X131040483Y-31390035D01*
X131857254Y-31197507D01*
X132551451Y-30995000D01*
X133156943Y-30775354D01*
X133707601Y-30531408D01*
X134237293Y-30255999D01*
X134779886Y-29941968D01*
X135369252Y-29582155D01*
X135985238Y-29155176D01*
X136930781Y-28378466D01*
X137923680Y-27455488D01*
X138869819Y-26479644D01*
X139675081Y-25544339D01*
X140245350Y-24742976D01*
X140704153Y-23977300D01*
X139759627Y-23379456D01*
X139729538Y-23360501D01*
X138465852Y-22718562D01*
X137078720Y-22314147D01*
X135536084Y-22148585D01*
X133805883Y-22223207D01*
X131856058Y-22539340D01*
X129654552Y-23098315D01*
X127169304Y-23901460D01*
X126495493Y-24133553D01*
X125066888Y-24607131D01*
X123484637Y-25113275D01*
X121897749Y-25604654D01*
X120455241Y-26033941D01*
X119708570Y-26254915D01*
X118408121Y-26652421D01*
X116857554Y-27137081D01*
X115131414Y-27685179D01*
X113304246Y-28273001D01*
X111450594Y-28876833D01*
X109645004Y-29472959D01*
X108470976Y-29862661D01*
X105816356Y-30735790D01*
X103482719Y-31489347D01*
X101430567Y-32134458D01*
X99620402Y-32682253D01*
X98012727Y-33143858D01*
X96568043Y-33530401D01*
X95246853Y-33853009D01*
X94009660Y-34122810D01*
X92816965Y-34350933D01*
X91629271Y-34548503D01*
X90731206Y-34684868D01*
X89522319Y-34850603D01*
X88527192Y-34954003D01*
X87634924Y-35002955D01*
X86734618Y-35005346D01*
X85715374Y-34969062D01*
X84825981Y-34909906D01*
X83675178Y-34792308D01*
X82625831Y-34643875D01*
X81827187Y-34483254D01*
X81771368Y-34469195D01*
X80819169Y-34287684D01*
X79711988Y-34155512D01*
X78678129Y-34100432D01*
X78321073Y-34096369D01*
X77610121Y-34069768D01*
X77191175Y-34005953D01*
X76985786Y-33886853D01*
X76915507Y-33694397D01*
X76935840Y-33466316D01*
X77160829Y-33280572D01*
X77693045Y-33139089D01*
X78399003Y-33048526D01*
X79429549Y-33056753D01*
X80682917Y-33207400D01*
X82232224Y-33506383D01*
X83532047Y-33738034D01*
X86088188Y-33942099D01*
X88860788Y-33867333D01*
X91804466Y-33513701D01*
X92129721Y-33457746D01*
X93620877Y-33151862D01*
X95430826Y-32716331D01*
X97516651Y-32163582D01*
X99835432Y-31506042D01*
X102344255Y-30756138D01*
X105000203Y-29926296D01*
X107760358Y-29028944D01*
X110581802Y-28076509D01*
X110692914Y-28038365D01*
X112337871Y-27485075D01*
X114173269Y-26885325D01*
X116057328Y-26284375D01*
X117848268Y-25727489D01*
X119404309Y-25259932D01*
X119431325Y-25252009D01*
X120935461Y-24801442D01*
X122544145Y-24303628D01*
X124134987Y-23797495D01*
X125585597Y-23321973D01*
X126773584Y-22915990D01*
X128806645Y-22247173D01*
X131251543Y-21599864D01*
X133440675Y-21221339D01*
X135396260Y-21110696D01*
X137140521Y-21267038D01*
X138695675Y-21689463D01*
X140083942Y-22377072D01*
X140597560Y-22687734D01*
X140926918Y-22830411D01*
X141116079Y-22785899D01*
X141266365Y-22570801D01*
X141346204Y-22319758D01*
X141384019Y-21633144D01*
X141305894Y-20651169D01*
X141287533Y-20503605D01*
X141176983Y-19760548D01*
X141049062Y-19290810D01*
X140862331Y-18985815D01*
X140575352Y-18736984D01*
X140472248Y-18665703D01*
X139953552Y-18410251D01*
X139283638Y-18240773D01*
X138414059Y-18154491D01*
X137296368Y-18148628D01*
X135882121Y-18220406D01*
X134122869Y-18367048D01*
X131479318Y-18681126D01*
X128499610Y-19170251D01*
X125266082Y-19829569D01*
X121759445Y-20663682D01*
X117960417Y-21677187D01*
X113849708Y-22874684D01*
X109408032Y-24260773D01*
X109041957Y-24376509D01*
X106655519Y-25057982D01*
X103940046Y-25724089D01*
X100956245Y-26363278D01*
X97764827Y-26963997D01*
X94426504Y-27514691D01*
X91001984Y-28003810D01*
X87551978Y-28419800D01*
X81586826Y-29070591D01*
X79125756Y-28720005D01*
X78777808Y-28670059D01*
X77094735Y-28416608D01*
X75406819Y-28140613D01*
X73637186Y-27828123D01*
X71708964Y-27465190D01*
X69545280Y-27037863D01*
X67069262Y-26532194D01*
X66288192Y-26371626D01*
X64528623Y-26020671D01*
X63072543Y-25752734D01*
X61858167Y-25561563D01*
X60823713Y-25440904D01*
X59907395Y-25384506D01*
X59047433Y-25386114D01*
X58182041Y-25439477D01*
X57249435Y-25538339D01*
X57166431Y-25548332D01*
X56175065Y-25652505D01*
X55504625Y-25683815D01*
X55087396Y-25641927D01*
X54855661Y-25526506D01*
X54675083Y-25247459D01*
X54802217Y-24900316D01*
X54922752Y-24761980D01*
X55163808Y-24636415D01*
X55579038Y-24543229D01*
X56243624Y-24466671D01*
X57232751Y-24390984D01*
X57499904Y-24373020D01*
X58291246Y-24327048D01*
X59008091Y-24304654D01*
X59702263Y-24312098D01*
X60425587Y-24355641D01*
X61229891Y-24441547D01*
X62166999Y-24576074D01*
X63288737Y-24765484D01*
X64646931Y-25016038D01*
X66293407Y-25333998D01*
X68279990Y-25725625D01*
X68891489Y-25846049D01*
X70684418Y-26192133D01*
X72494967Y-26532339D01*
X74241232Y-26851820D01*
X75841312Y-27135729D01*
X77213303Y-27369220D01*
X78275299Y-27537447D01*
X81661835Y-28040389D01*
X87131739Y-27458881D01*
X89023948Y-27243846D01*
X92730787Y-26746228D01*
X96419976Y-26154907D01*
X100015144Y-25484623D01*
X103439921Y-24750114D01*
X106617938Y-23966117D01*
X109472825Y-23147372D01*
X110096210Y-22953984D01*
X112338741Y-22271030D01*
X114601575Y-21600162D01*
X116817994Y-20960185D01*
X118921284Y-20369902D01*
X120844727Y-19848118D01*
X122521607Y-19413636D01*
X123885206Y-19085262D01*
X124333661Y-18983197D01*
X125588197Y-18695710D01*
X126816172Y-18411805D01*
X127896366Y-18159591D01*
X128707559Y-17967173D01*
X129536717Y-17785053D01*
X131113609Y-17512761D01*
X132792398Y-17300785D01*
X134491110Y-17153932D01*
X136127774Y-17077011D01*
X137620419Y-17074830D01*
X138887071Y-17152195D01*
G37*
G36*
X96279926Y-49401865D02*
G01*
X97103077Y-50012829D01*
X98581752Y-50943670D01*
X100044398Y-51609512D01*
X101615259Y-52061690D01*
X103418577Y-52351542D01*
X103824261Y-52399146D01*
X104559150Y-52490546D01*
X105083250Y-52562891D01*
X105303173Y-52603685D01*
X105317180Y-52654790D01*
X105224272Y-52978136D01*
X105030272Y-53433349D01*
X104995502Y-53514936D01*
X104676418Y-54173564D01*
X104312565Y-54862395D01*
X103949488Y-55489802D01*
X103632734Y-55964160D01*
X102960720Y-56755381D01*
X101578899Y-58013826D01*
X99993572Y-59094874D01*
X98327360Y-59907388D01*
X97853058Y-60066868D01*
X96544028Y-60341279D01*
X95057402Y-60475128D01*
X93533836Y-60459826D01*
X92113981Y-60286785D01*
X91859793Y-60235823D01*
X89833462Y-59664571D01*
X88011674Y-58819947D01*
X86319065Y-57659933D01*
X84680271Y-56142516D01*
X83888036Y-55314897D01*
X85313882Y-55314897D01*
X85329554Y-55344380D01*
X85553935Y-55587741D01*
X85987426Y-56000564D01*
X86557348Y-56512833D01*
X88090713Y-57647329D01*
X89997410Y-58610243D01*
X92039164Y-59221138D01*
X93175647Y-59396319D01*
X95209091Y-59434555D01*
X97152110Y-59122966D01*
X98962938Y-58478433D01*
X100599806Y-57517839D01*
X102020951Y-56258067D01*
X103184602Y-54715999D01*
X103879209Y-53574682D01*
X102467892Y-53321652D01*
X101745898Y-53176062D01*
X99373884Y-52449368D01*
X97197376Y-51381156D01*
X95236898Y-49980908D01*
X94112458Y-49028588D01*
X89705307Y-52111389D01*
X89683225Y-52126837D01*
X88520832Y-52944797D01*
X87475698Y-53689258D01*
X86590130Y-54329362D01*
X85906433Y-54834244D01*
X85466916Y-55173043D01*
X85313882Y-55314897D01*
X83888036Y-55314897D01*
X83664095Y-55080954D01*
X88351854Y-51788706D01*
X88523744Y-51668010D01*
X89750781Y-50807711D01*
X90889426Y-50011550D01*
X91891943Y-49312750D01*
X92710590Y-48744532D01*
X93297630Y-48340120D01*
X93605322Y-48132735D01*
X94171032Y-47769010D01*
X96279926Y-49401865D01*
G37*
G36*
X93271413Y-68777620D02*
G01*
X93217190Y-69183361D01*
X93104151Y-69786530D01*
X93044330Y-70098400D01*
X92858142Y-72238987D01*
X93032834Y-74414995D01*
X93551012Y-76550896D01*
X94395285Y-78571161D01*
X95548261Y-80400260D01*
X95630102Y-80501336D01*
X96065183Y-80958577D01*
X96678535Y-81532527D01*
X97402691Y-82167765D01*
X98170184Y-82808870D01*
X98701246Y-83231475D01*
X98913550Y-83400421D01*
X99565323Y-83886998D01*
X100058036Y-84213180D01*
X100324223Y-84323546D01*
X100351598Y-84303998D01*
X100579941Y-84041703D01*
X101007225Y-83500853D01*
X101418564Y-82962964D01*
X104290093Y-82962964D01*
X104417199Y-82998064D01*
X104915708Y-82985399D01*
X105722368Y-82886271D01*
X106786970Y-82709984D01*
X108059301Y-82465845D01*
X109489152Y-82163154D01*
X111026311Y-81811217D01*
X112620569Y-81419339D01*
X113534719Y-81187692D01*
X114794198Y-80872003D01*
X115899498Y-80599017D01*
X116792314Y-80382955D01*
X117414338Y-80238044D01*
X117707264Y-80178503D01*
X117949306Y-80244232D01*
X118422537Y-80574089D01*
X118994914Y-81128660D01*
X119475326Y-81623085D01*
X119865388Y-81973644D01*
X120076277Y-82099801D01*
X120089917Y-82097436D01*
X120293855Y-81866828D01*
X120432275Y-81346028D01*
X120488649Y-80636031D01*
X120446449Y-79837828D01*
X120266011Y-78974853D01*
X119714036Y-77811987D01*
X119477189Y-77485049D01*
X118774801Y-76722426D01*
X117912217Y-75962987D01*
X117018874Y-75315197D01*
X116224206Y-74887523D01*
X115593157Y-74634576D01*
X109898238Y-78764872D01*
X108714276Y-79626423D01*
X107494878Y-80520308D01*
X106420377Y-81314945D01*
X105526709Y-81983431D01*
X104849814Y-82498865D01*
X104425629Y-82834342D01*
X104290093Y-82962964D01*
X101418564Y-82962964D01*
X101607394Y-82716040D01*
X102066324Y-82105251D01*
X103526240Y-82105251D01*
X103577341Y-82073060D01*
X103907262Y-81841512D01*
X104517407Y-81404120D01*
X105379596Y-80781363D01*
X106465650Y-79993720D01*
X107747391Y-79061671D01*
X109196639Y-78005693D01*
X110785216Y-76846267D01*
X112484941Y-75603871D01*
X114267637Y-74298984D01*
X115492669Y-73401665D01*
X116804754Y-74038096D01*
X116915922Y-74091336D01*
X117521055Y-74354119D01*
X117941531Y-74490750D01*
X118092024Y-74472438D01*
X118073566Y-74407079D01*
X117894143Y-74050415D01*
X117592474Y-73567290D01*
X117413959Y-73324794D01*
X116516491Y-72454806D01*
X115351278Y-71712331D01*
X114019847Y-71153232D01*
X112623723Y-70833371D01*
X111718560Y-70715493D01*
X108010897Y-75814349D01*
X107598293Y-76381858D01*
X106687588Y-77635088D01*
X105849304Y-78789481D01*
X105116024Y-79800118D01*
X104520335Y-80622078D01*
X104094817Y-81210438D01*
X103872057Y-81520279D01*
X103792485Y-81634064D01*
X103572126Y-81977874D01*
X103526240Y-82105251D01*
X102066324Y-82105251D01*
X102354396Y-81721856D01*
X103222174Y-80552892D01*
X104184675Y-79243743D01*
X105215844Y-77828998D01*
X105467521Y-77482301D01*
X106514252Y-76041338D01*
X107503951Y-74680369D01*
X108406994Y-73440033D01*
X109193756Y-72360973D01*
X109834605Y-71483830D01*
X110299919Y-70849247D01*
X110560068Y-70497862D01*
X111207727Y-69637324D01*
X112301908Y-69753513D01*
X113711487Y-69997539D01*
X115336569Y-70544731D01*
X116749053Y-71329998D01*
X117906284Y-72322479D01*
X118765603Y-73491309D01*
X119103814Y-74348205D01*
X119284353Y-74805621D01*
X119375758Y-75119166D01*
X119691565Y-75872906D01*
X120062328Y-76473784D01*
X120382941Y-76900444D01*
X121059194Y-78113521D01*
X121467658Y-79377582D01*
X121502236Y-79708194D01*
X121597314Y-80617264D01*
X121437140Y-81757204D01*
X120976115Y-82722038D01*
X120959158Y-82745597D01*
X120717481Y-83149173D01*
X120701761Y-83494482D01*
X120899779Y-83983421D01*
X121114457Y-84597772D01*
X121303568Y-85534793D01*
X121381269Y-86270050D01*
X121411992Y-86560759D01*
X121424208Y-87519614D01*
X121324694Y-88255306D01*
X121179399Y-88640027D01*
X120826594Y-89327118D01*
X120392278Y-90008160D01*
X120040295Y-90475228D01*
X119700193Y-90874621D01*
X119507127Y-91035770D01*
X119499236Y-91035138D01*
X119234896Y-90960129D01*
X118633932Y-90769916D01*
X117733313Y-90476748D01*
X116570005Y-90092874D01*
X115180976Y-89630543D01*
X113603191Y-89102004D01*
X111873619Y-88519506D01*
X110029225Y-87895297D01*
X100713170Y-84734951D01*
X98698981Y-84741718D01*
X98251706Y-84739552D01*
X97221170Y-84711626D01*
X97173251Y-84708940D01*
X104123246Y-84708940D01*
X104132395Y-84718030D01*
X104393932Y-84827834D01*
X104984284Y-85046060D01*
X105863217Y-85358659D01*
X106990499Y-85751574D01*
X108325899Y-86210755D01*
X109829184Y-86722148D01*
X111460123Y-87271701D01*
X111852540Y-87403295D01*
X113473816Y-87946408D01*
X114969968Y-88446709D01*
X116298655Y-88890096D01*
X117417534Y-89262477D01*
X118284266Y-89549753D01*
X118856510Y-89737827D01*
X119091924Y-89812604D01*
X119215431Y-89794241D01*
X119520748Y-89524081D01*
X119852570Y-89030130D01*
X120146684Y-88416650D01*
X120338876Y-87787903D01*
X120385648Y-87437516D01*
X120355033Y-86396056D01*
X120140734Y-85237582D01*
X119776530Y-84111767D01*
X119296205Y-83168281D01*
X119008016Y-82754025D01*
X118530953Y-82144357D01*
X118129107Y-81712862D01*
X117614536Y-81250773D01*
X110900427Y-82939493D01*
X109590702Y-83270158D01*
X108119144Y-83644873D01*
X106812079Y-83981191D01*
X105714233Y-84267432D01*
X104870330Y-84491922D01*
X104325093Y-84642984D01*
X104123246Y-84708940D01*
X97173251Y-84708940D01*
X96269318Y-84658272D01*
X95556750Y-84587376D01*
X95449111Y-84571595D01*
X93100788Y-84024216D01*
X90847805Y-83122253D01*
X88736924Y-81902020D01*
X86814907Y-80399829D01*
X85128517Y-78651992D01*
X83724516Y-76694821D01*
X82649666Y-74564628D01*
X82619767Y-74490531D01*
X82267747Y-73551774D01*
X81983948Y-72687187D01*
X83235549Y-72687187D01*
X83367727Y-73136042D01*
X83684878Y-73887281D01*
X83859866Y-74282396D01*
X84713273Y-75958140D01*
X85665047Y-77379316D01*
X86805278Y-78666017D01*
X88224052Y-79938336D01*
X89436384Y-80850522D01*
X91406375Y-82015692D01*
X93426747Y-82849154D01*
X95433024Y-83320658D01*
X95585072Y-83342763D01*
X96164988Y-83436261D01*
X96554412Y-83512733D01*
X96591309Y-83490543D01*
X96461595Y-83262389D01*
X96117635Y-82841153D01*
X95603828Y-82284218D01*
X95477730Y-82151395D01*
X94192498Y-80536273D01*
X93126941Y-78708275D01*
X92319060Y-76757583D01*
X91806851Y-74774382D01*
X91628313Y-72848855D01*
X91627645Y-72576285D01*
X91617133Y-71854634D01*
X91596470Y-71338078D01*
X91569006Y-71124062D01*
X91530972Y-71123299D01*
X91211508Y-71211855D01*
X90644343Y-71407210D01*
X89918794Y-71679311D01*
X88906466Y-72022276D01*
X87268395Y-72398981D01*
X85670831Y-72568275D01*
X84250626Y-72510098D01*
X84215725Y-72505250D01*
X83632858Y-72436758D01*
X83315029Y-72475748D01*
X83235549Y-72687187D01*
X81983948Y-72687187D01*
X81966301Y-72633426D01*
X81733554Y-71806254D01*
X81587637Y-71141024D01*
X81546677Y-70708504D01*
X81628803Y-70579462D01*
X83380525Y-71048383D01*
X84982418Y-71295073D01*
X86454932Y-71296098D01*
X87893200Y-71051223D01*
X89392359Y-70560214D01*
X89523947Y-70507846D01*
X90456780Y-70109632D01*
X91376978Y-69678408D01*
X92102802Y-69298757D01*
X92620256Y-69006034D01*
X93063775Y-68763891D01*
X93262432Y-68667464D01*
X93271413Y-68777620D01*
G37*
G36*
X126218334Y-35114785D02*
G01*
X126560465Y-35562420D01*
X126653669Y-36120181D01*
X126433221Y-36672188D01*
X126251546Y-36849901D01*
X125727910Y-37046104D01*
X125167150Y-36972510D01*
X124703213Y-36664294D01*
X124470042Y-36156632D01*
X124562001Y-35618150D01*
X124924142Y-35135290D01*
X125440139Y-34894248D01*
X125691997Y-34893151D01*
X126218334Y-35114785D01*
G37*
G36*
X105967895Y-37313402D02*
G01*
X106202407Y-37530668D01*
X106505623Y-37983067D01*
X106933151Y-38731660D01*
X107839505Y-40185778D01*
X109368702Y-42043555D01*
X111136139Y-43589145D01*
X113125981Y-44809411D01*
X115322392Y-45691217D01*
X116217817Y-45967600D01*
X115944956Y-46336710D01*
X115650328Y-46735265D01*
X115249954Y-47224564D01*
X114202082Y-48243314D01*
X112930938Y-49235167D01*
X111548596Y-50124470D01*
X110167130Y-50835573D01*
X108898613Y-51292821D01*
X108086961Y-51469564D01*
X106731862Y-51657546D01*
X105378244Y-51738512D01*
X104212867Y-51696377D01*
X102583864Y-51404348D01*
X100525988Y-50725091D01*
X98538406Y-49742692D01*
X96699258Y-48503970D01*
X95086681Y-47055740D01*
X93778816Y-45444818D01*
X93421604Y-44884362D01*
X92997646Y-44157582D01*
X92602229Y-43425505D01*
X92409357Y-43035931D01*
X93650634Y-43035931D01*
X93678471Y-43331961D01*
X93843963Y-43681681D01*
X94116852Y-44109942D01*
X94466880Y-44641594D01*
X95309582Y-45781033D01*
X96762307Y-47244344D01*
X98464931Y-48513820D01*
X100339169Y-49541352D01*
X102306734Y-50278828D01*
X104289345Y-50678137D01*
X106048510Y-50722930D01*
X108081725Y-50425674D01*
X110049589Y-49776165D01*
X111884627Y-48797541D01*
X113519366Y-47512942D01*
X113979172Y-47064238D01*
X114325819Y-46697257D01*
X114454815Y-46519676D01*
X114326777Y-46428066D01*
X113913607Y-46235019D01*
X113315612Y-45995841D01*
X112210325Y-45502222D01*
X110464279Y-44385382D01*
X108795680Y-42890429D01*
X107215972Y-41028220D01*
X105736605Y-38809605D01*
X105691705Y-38739445D01*
X105604044Y-38656714D01*
X105460592Y-38618026D01*
X105221095Y-38634296D01*
X104845298Y-38716438D01*
X104292952Y-38875369D01*
X103523802Y-39122004D01*
X102497598Y-39467260D01*
X101174084Y-39922049D01*
X99513010Y-40497290D01*
X98068769Y-40995663D01*
X96635274Y-41491396D01*
X95520979Y-41891720D01*
X94695624Y-42221486D01*
X94128953Y-42505543D01*
X93790709Y-42768741D01*
X93650634Y-43035931D01*
X92409357Y-43035931D01*
X92280137Y-42774925D01*
X92076151Y-42292628D01*
X92035057Y-42065408D01*
X92035903Y-42064541D01*
X92246171Y-41975673D01*
X92780891Y-41775219D01*
X93588190Y-41481389D01*
X94616202Y-41112394D01*
X95813058Y-40686443D01*
X97126887Y-40221747D01*
X98505823Y-39736515D01*
X99897995Y-39248956D01*
X101251533Y-38777283D01*
X102514571Y-38339704D01*
X103635238Y-37954429D01*
X104561667Y-37639668D01*
X105241986Y-37413632D01*
X105624329Y-37294530D01*
X105746482Y-37270210D01*
X105967895Y-37313402D01*
G37*
G36*
X87213960Y-59966582D02*
G01*
X87318040Y-60019031D01*
X88343714Y-60465773D01*
X89557459Y-60903872D01*
X90779190Y-61272991D01*
X91828823Y-61512792D01*
X92548834Y-61593854D01*
X93754246Y-61593507D01*
X95263199Y-61460508D01*
X97474836Y-61198428D01*
X97142937Y-61999835D01*
X97045849Y-62227131D01*
X96863142Y-62561893D01*
X96053790Y-64044807D01*
X94761432Y-65729446D01*
X93235817Y-67214631D01*
X91543986Y-68433943D01*
X89752982Y-69320967D01*
X88961636Y-69580480D01*
X87716724Y-69875750D01*
X86399279Y-70088912D01*
X85157106Y-70197390D01*
X84138005Y-70178607D01*
X83745381Y-70120705D01*
X82922633Y-69942192D01*
X82114972Y-69711547D01*
X81557769Y-69498519D01*
X80821443Y-69159955D01*
X80084952Y-68775041D01*
X79440112Y-68395078D01*
X78978742Y-68071369D01*
X78792656Y-67855216D01*
X78794708Y-67846308D01*
X78937377Y-67659859D01*
X80390015Y-67659859D01*
X80466655Y-67768943D01*
X80836968Y-68010556D01*
X81423072Y-68297999D01*
X82123052Y-68586988D01*
X82834991Y-68833240D01*
X83456971Y-68992471D01*
X83546641Y-69007675D01*
X84304134Y-69076244D01*
X85247390Y-69092190D01*
X86193620Y-69051565D01*
X87877630Y-68795353D01*
X89822918Y-68148777D01*
X91644114Y-67128827D01*
X93359433Y-65727051D01*
X93755097Y-65318742D01*
X94279658Y-64716497D01*
X94800801Y-64068361D01*
X95252498Y-63460149D01*
X95568719Y-62977671D01*
X95683432Y-62706743D01*
X95671282Y-62692570D01*
X95402525Y-62648434D01*
X94853935Y-62631229D01*
X94121926Y-62644782D01*
X92346841Y-62604128D01*
X90398543Y-62273527D01*
X88395965Y-61616515D01*
X87621667Y-61312995D01*
X87123540Y-61148712D01*
X86810455Y-61114166D01*
X86589473Y-61199134D01*
X86367652Y-61393390D01*
X85920791Y-61834377D01*
X85265758Y-62495759D01*
X84509884Y-63269940D01*
X83700729Y-64107069D01*
X82885845Y-64957289D01*
X82112793Y-65770747D01*
X81429126Y-66497587D01*
X80882404Y-67087956D01*
X80520181Y-67491997D01*
X80390015Y-67659859D01*
X78937377Y-67659859D01*
X78960462Y-67629690D01*
X79366044Y-67170793D01*
X79976205Y-66507546D01*
X80755691Y-65677881D01*
X81669252Y-64719722D01*
X82681632Y-63670999D01*
X86590145Y-59645900D01*
X87213960Y-59966582D01*
G37*
%TD*%
D14*
%TO.C,U1*%
X158710853Y-20059897D03*
D15*
X158710853Y-22599897D03*
X158710853Y-25139897D03*
X158710853Y-27679897D03*
X158710853Y-30219897D03*
X158710853Y-32759897D03*
X158710853Y-35299897D03*
X158710853Y-37839897D03*
X158710853Y-40379897D03*
X158710853Y-42919897D03*
X158710853Y-45459897D03*
X158710853Y-47999897D03*
X143470853Y-47999897D03*
X143470853Y-45459897D03*
X143470853Y-42919897D03*
X143470853Y-40379897D03*
X143470853Y-37839897D03*
X143470853Y-35299897D03*
X143470853Y-32759897D03*
X143470853Y-30219897D03*
X143470853Y-27679897D03*
X143470853Y-25139897D03*
X143470853Y-22599897D03*
X143470853Y-20059897D03*
%TD*%
M02*
