M48
; DRILL file {KiCad (6.0.0)} date Sat Feb  5 19:22:15 2022
; FORMAT={-:-/ absolute / inch / decimal}
; #@! TF.CreationDate,2022-02-05T19:22:15+07:00
; #@! TF.GenerationSoftware,Kicad,Pcbnew,(6.0.0)
; #@! TF.FileFunction,NonPlated,1,2,NPTH
FMAT,2
INCH
; #@! TA.AperFunction,NonPlated,NPTH,ComponentDrill
T1C0.0591
; #@! TA.AperFunction,NonPlated,NPTH,ComponentDrill
T2C0.0669
; #@! TA.AperFunction,NonPlated,NPTH,ComponentDrill
T3C0.1181
; #@! TA.AperFunction,NonPlated,NPTH,ComponentDrill
T4C0.1575
; #@! TA.AperFunction,NonPlated,NPTH,ComponentDrill
T5C0.1693
%
G90
G05
T1
X5.8843Y-2.2586
X5.8843Y-2.4397
X6.1599Y-2.2586
X6.1599Y-2.4397
T2
X0.7666Y-2.4366
X0.9604Y-3.1567
X1.153Y-2.3331
X1.1545Y-3.8811
X1.3467Y-3.0532
X1.5408Y-3.7776
X1.5886Y-2.2223
X1.7446Y-2.956
X1.9005Y-3.6896
X1.9799Y-2.1392
X2.1358Y-2.8728
X2.2918Y-3.6064
X2.3014Y-1.4451
X2.4187Y-2.1859
X2.536Y-2.9266
X2.6965Y-1.3825
X2.8138Y-2.1233
X2.9311Y-2.8641
X3.1468Y-1.2273
X3.2252Y-1.9732
X3.3036Y-2.7191
X3.5446Y-1.1855
X3.623Y-1.9314
X3.7014Y-2.6772
X4.018Y-1.2449
X4.0572Y-1.9939
X4.0881Y-3.5062
X4.0965Y-2.7428
X4.4174Y-1.224
X4.4567Y-1.9729
X4.4879Y-3.5202
X4.4959Y-2.7219
X4.8639Y-3.5463
X4.888Y-1.2132
X4.888Y-1.9632
X4.888Y-2.7132
X5.2617Y-3.5881
X5.288Y-1.2132
X5.288Y-1.9632
X5.288Y-2.7132
X5.6352Y-3.6416
X6.0292Y-3.7111
T3
X0.789Y-2.3271
X0.8115Y-2.2176
X0.9828Y-3.0472
X1.0046Y-2.1658
X1.0052Y-2.9376
X1.0788Y-2.2494
X1.1769Y-3.7716
X1.1984Y-2.8859
X1.1993Y-3.6621
X1.2726Y-2.9695
X1.3925Y-3.6103
X1.4667Y-3.694
X1.6168Y-2.1141
X1.6449Y-2.0059
X1.7727Y-2.8477
X1.8008Y-2.7395
X1.8405Y-1.9643
X1.9102Y-2.0518
X1.9286Y-3.5814
X1.9567Y-3.4731
X1.9964Y-2.6979
X2.0661Y-2.7854
X2.1524Y-3.4316
X2.2221Y-3.519
X2.3351Y-1.3385
X2.3689Y-1.2319
X2.4525Y-2.0793
X2.4862Y-1.9727
X2.5664Y-1.2006
X2.5698Y-2.8201
X2.6035Y-2.7135
X2.6314Y-1.2916
X2.6837Y-1.9414
X2.7488Y-2.0324
X2.8011Y-2.6822
X2.8661Y-2.7731
X3.1861Y-1.1226
X3.2254Y-1.0179
X3.2645Y-1.8685
X3.3038Y-1.7638
X3.3429Y-2.6144
X3.3822Y-2.5097
X3.4243Y-0.997
X3.4845Y-1.0912
X3.5027Y-1.7429
X3.5629Y-1.8371
X3.5811Y-2.4888
X3.6413Y-2.583
X4.0627Y-1.1424
X4.1019Y-1.8914
X4.1074Y-1.0399
X4.1412Y-2.6404
X4.1416Y-3.408
X4.1466Y-1.7889
X4.1859Y-2.5379
X4.1951Y-3.3098
X4.3071Y-1.0295
X4.3463Y-1.7784
X4.3623Y-1.1267
X4.3856Y-2.5274
X4.3949Y-3.3168
X4.4015Y-1.8757
X4.4408Y-2.6247
X4.4414Y-3.4185
X4.924Y-3.4521
X4.938Y-1.1132
X4.938Y-1.8632
X4.938Y-2.6132
X4.9842Y-3.3578
X4.988Y-1.0132
X4.988Y-1.7632
X4.988Y-2.5132
X5.1831Y-3.3787
X5.188Y-1.0132
X5.188Y-1.7632
X5.188Y-2.5132
X5.2224Y-3.4834
X5.238Y-1.1132
X5.238Y-1.8632
X5.238Y-2.6132
X5.7018Y-3.5518
X5.7685Y-3.462
X5.9654Y-3.4968
X5.9973Y-3.6039
T4
X0.9598Y-2.3849
X1.1535Y-3.1049
X1.3477Y-3.8294
X1.7843Y-2.1808
X1.9402Y-2.9144
X2.0961Y-3.648
X2.4989Y-1.4138
X2.6163Y-2.1546
X2.7336Y-2.8954
X3.3457Y-1.2064
X3.4241Y-1.9523
X3.5025Y-2.6982
X4.2177Y-1.2344
X4.257Y-1.9834
X4.288Y-3.5132
X4.2962Y-2.7324
X5.0628Y-3.5672
X5.088Y-1.2132
X5.088Y-1.9632
X5.088Y-2.7132
X5.8322Y-3.6764
T5
X1.478Y-2.728
X1.668Y-3.508
X2.988Y-1.818
X3.078Y-2.588
X4.668Y-1.698
X4.688Y-2.498
X5.488Y-3.378
T0
M30
