M48
; DRILL file {KiCad (6.0.0)} date Sun Feb  6 15:22:47 2022
; FORMAT={-:-/ absolute / inch / decimal}
; #@! TF.CreationDate,2022-02-06T15:22:47+07:00
; #@! TF.GenerationSoftware,Kicad,Pcbnew,(6.0.0)
; #@! TF.FileFunction,Plated,1,2,PTH
FMAT,2
INCH
; #@! TA.AperFunction,Plated,PTH,ViaDrill
T1C0.0157
; #@! TA.AperFunction,Plated,PTH,ComponentDrill
T2C0.0354
; #@! TA.AperFunction,Plated,PTH,ComponentDrill
T3C0.0394
; #@! TA.AperFunction,Plated,PTH,ComponentDrill
T4C0.0400
; #@! TA.AperFunction,Plated,PTH,ComponentDrill
T5C0.0430
; #@! TA.AperFunction,Plated,PTH,ComponentDrill
T6C0.0591
%
G90
G05
T1
X1.8701Y-3.3903
X5.5418Y-3.0685
X5.5704Y-3.1008
T3
X1.2874Y-2.3228
X1.3669Y-2.6194
X1.4844Y-3.0428
X1.5639Y-3.3394
X1.6765Y-3.7697
X1.756Y-4.0663
X2.1179Y-2.1368
X2.1817Y-2.4372
X2.2714Y-2.8708
X2.3353Y-3.1712
X2.4292Y-3.6063
X2.493Y-3.9067
X2.8317Y-1.3897
X2.8797Y-1.693
X2.9505Y-2.1282
X2.9986Y-2.4315
X3.0657Y-2.871
X3.1137Y-3.1743
X3.6782Y-1.2014
X3.7103Y-1.5068
X3.7603Y-1.9455
X3.7924Y-2.2509
X3.8385Y-2.6919
X3.8706Y-2.9973
X4.5527Y-1.2454
X4.5688Y-1.552
X4.5878Y-1.9905
X4.6039Y-2.2972
X4.6068Y-3.8618
X4.6176Y-3.5549
X4.6311Y-2.7413
X4.6472Y-3.048
X5.3602Y-3.9371
X5.3923Y-3.6317
X5.4162Y-1.2368
X5.4162Y-1.5439
X5.4182Y-1.9908
X5.4182Y-2.2979
X5.4222Y-2.7388
X5.4222Y-3.0459
X6.1016Y-4.0659
X6.1549Y-3.7634
T4
X5.712Y-2.668
X5.712Y-2.768
X5.712Y-2.868
X5.712Y-2.968
X5.712Y-3.068
X5.812Y-2.668
X5.812Y-2.768
X5.812Y-2.868
X5.812Y-2.968
X5.812Y-3.068
X5.978Y-2.668
X5.978Y-2.768
X5.978Y-2.868
X5.978Y-2.968
X5.978Y-3.068
X6.078Y-2.668
X6.078Y-2.768
X6.078Y-2.868
X6.078Y-2.968
X6.078Y-3.068
T5
X5.588Y-0.9462
X5.588Y-1.0462
X5.588Y-1.1462
X5.588Y-1.2462
X5.588Y-1.3462
X5.588Y-1.4462
X5.588Y-1.5462
X5.588Y-1.6462
X5.588Y-1.7462
X5.588Y-1.8462
X5.588Y-1.9462
X5.588Y-2.0462
X6.188Y-0.9462
X6.188Y-1.0462
X6.188Y-1.1462
X6.188Y-1.2462
X6.188Y-1.3462
X6.188Y-1.4462
X6.188Y-1.5462
X6.188Y-1.6462
X6.188Y-1.7462
X6.188Y-1.8462
X6.188Y-1.9462
X6.188Y-2.0462
T6
X0.8636Y-2.5439
X0.9128Y-2.5927
X1.0574Y-3.264
X1.1045Y-2.5413
X1.1065Y-3.3128
X1.1226Y-2.4745
X1.2515Y-3.9884
X1.2982Y-3.2614
X1.3006Y-4.0372
X1.3164Y-3.1946
X1.4923Y-3.9859
X1.5105Y-3.919
X1.6799Y-2.3346
X1.7264Y-2.3858
X1.8358Y-3.0682
X1.8824Y-3.1195
X1.9205Y-2.3446
X1.9422Y-2.2788
X1.9918Y-3.8018
X2.0383Y-3.8531
X2.0765Y-3.0782
X2.0981Y-3.0124
X2.2324Y-3.8118
X2.254Y-3.746
X2.3867Y-1.562
X2.4304Y-1.6156
X2.504Y-2.3027
X2.5478Y-2.3564
X2.6213Y-3.0435
X2.6264Y-1.5846
X2.6515Y-1.52
X2.6651Y-3.0971
X2.7437Y-2.3253
X2.7688Y-2.2608
X2.8611Y-3.0661
X2.8861Y-3.0015
X3.2259Y-1.3484
X3.2668Y-1.4043
X3.3043Y-2.0943
X3.3452Y-2.1502
X3.3827Y-2.8402
X3.4236Y-2.8961
X3.4641Y-1.3835
X3.4925Y-1.3204
X3.5425Y-2.1294
X3.5709Y-2.0663
X3.6209Y-2.8753
X3.6493Y-2.8122
X4.0906Y-1.37
X4.1285Y-1.4279
X4.1298Y-2.119
X4.1495Y-3.6372
X4.1677Y-2.1769
X4.1691Y-2.8679
X4.1823Y-3.6982
X4.207Y-2.9259
X4.3266Y-1.4176
X4.3583Y-1.356
X4.3659Y-2.1665
X4.3806Y-3.7051
X4.3976Y-2.1049
X4.4052Y-2.9155
X4.4175Y-3.6465
X4.4368Y-2.8539
X4.916Y-3.6812
X4.9444Y-3.7444
X4.9539Y-1.3419
X4.9539Y-2.0919
X4.9539Y-2.8419
X4.9888Y-1.4018
X4.9888Y-2.1518
X4.9888Y-2.9018
X5.1417Y-3.7651
X5.1826Y-3.7092
X5.1872Y-1.4018
X5.1872Y-2.1518
X5.1872Y-2.9018
X5.222Y-1.3419
X5.222Y-2.0919
X5.222Y-2.8419
X5.6778Y-3.7799
X5.7018Y-3.8449
X5.8972Y-3.8793
X5.9419Y-3.8264
T2
G00X5.7898Y-2.168
M15
G01X5.7662Y-2.168
M16
G05
G00X5.7898Y-2.5302
M15
G01X5.7662Y-2.5302
M16
G05
G00X5.8331Y-2.3491
M15
G01X5.8095Y-2.3491
M16
G05
G00X5.9906Y-2.3491
M15
G01X5.967Y-2.3491
M16
G05
G00X6.1087Y-2.3491
M15
G01X6.0851Y-2.3491
M16
G05
T0
M30
