M48
; DRILL file {KiCad (6.0.0-0)} date 2022 February 04, Friday 21:27:01
; FORMAT={-:-/ absolute / inch / decimal}
; #@! TF.CreationDate,2022-02-04T21:27:01+07:00
; #@! TF.GenerationSoftware,Kicad,Pcbnew,(6.0.0-0)
; #@! TF.FileFunction,NonPlated,1,2,NPTH
FMAT,2
INCH
; #@! TA.AperFunction,NonPlated,NPTH,ComponentDrill
T1C0.0669
; #@! TA.AperFunction,NonPlated,NPTH,ComponentDrill
T2C0.1181
; #@! TA.AperFunction,NonPlated,NPTH,ComponentDrill
T3C0.1575
%
G90
G05
T1
X1.0664Y-2.3883
X1.2602Y-3.1083
X1.4528Y-2.2847
X1.4543Y-3.8328
X1.6465Y-3.0048
X1.8406Y-3.7292
X1.8884Y-2.174
X2.0444Y-2.9076
X2.2003Y-3.6412
X2.2797Y-2.0908
X2.4356Y-2.8244
X2.5916Y-3.558
X2.6012Y-1.3967
X2.7185Y-2.1375
X2.8358Y-2.8783
X2.9963Y-1.3342
X3.1136Y-2.0749
X3.2309Y-2.8157
X3.4466Y-1.1789
X3.525Y-1.9248
X3.6034Y-2.6707
X3.8444Y-1.1371
X3.9228Y-1.883
X4.0012Y-2.6289
X4.3178Y-1.1965
X4.357Y-1.9455
X4.3879Y-3.4578
X4.3963Y-2.6945
X4.7172Y-1.1756
X4.7565Y-1.9246
X4.7877Y-3.4718
X4.7957Y-2.6735
X5.1637Y-3.4979
X5.1878Y-1.1648
X5.1878Y-1.9148
X5.1878Y-2.6648
X5.5615Y-3.5397
X5.5878Y-1.1648
X5.5878Y-1.9148
X5.5878Y-2.6648
X5.935Y-3.5933
X6.329Y-3.6627
T2
X1.0888Y-2.2787
X1.1113Y-2.1692
X1.2826Y-2.9988
X1.3044Y-2.1174
X1.305Y-2.8893
X1.3786Y-2.2011
X1.4767Y-3.7232
X1.4982Y-2.8375
X1.4991Y-3.6137
X1.5723Y-2.9211
X1.6923Y-3.5619
X1.7665Y-3.6456
X1.9166Y-2.0658
X1.9447Y-1.9576
X2.0725Y-2.7994
X2.1006Y-2.6912
X2.1403Y-1.916
X2.21Y-2.0034
X2.2284Y-3.533
X2.2565Y-3.4248
X2.2962Y-2.6496
X2.3659Y-2.737
X2.4522Y-3.3832
X2.5219Y-3.4706
X2.6349Y-1.2902
X2.6687Y-1.1836
X2.7523Y-2.0309
X2.786Y-1.9243
X2.8662Y-1.1523
X2.8696Y-2.7717
X2.9033Y-2.6651
X2.9312Y-1.2432
X2.9835Y-1.893
X3.0486Y-1.984
X3.1009Y-2.6338
X3.1659Y-2.7248
X3.4859Y-1.0742
X3.5252Y-0.9695
X3.5643Y-1.8201
X3.6036Y-1.7154
X3.6427Y-2.566
X3.682Y-2.4613
X3.7241Y-0.9486
X3.7843Y-1.0429
X3.8025Y-1.6945
X3.8627Y-1.7888
X3.8809Y-2.4404
X3.9411Y-2.5347
X4.3625Y-1.094
X4.4017Y-1.843
X4.4072Y-0.9916
X4.441Y-2.592
X4.4414Y-3.3596
X4.4464Y-1.7405
X4.4857Y-2.4895
X4.4948Y-3.2614
X4.6069Y-0.9811
X4.6461Y-1.7301
X4.6621Y-1.0783
X4.6854Y-2.479
X4.6947Y-3.2684
X4.7013Y-1.8273
X4.7406Y-2.5763
X4.7412Y-3.3701
X5.2238Y-3.4037
X5.2378Y-1.0648
X5.2378Y-1.8148
X5.2378Y-2.5648
X5.284Y-3.3095
X5.2878Y-0.9648
X5.2878Y-1.7148
X5.2878Y-2.4648
X5.4829Y-3.3304
X5.4878Y-0.9648
X5.4878Y-1.7148
X5.4878Y-2.4648
X5.5222Y-3.435
X5.5378Y-1.0648
X5.5378Y-1.8148
X5.5378Y-2.5648
X6.0016Y-3.5035
X6.0682Y-3.4137
X6.2652Y-3.4484
X6.2971Y-3.5556
T3
X1.2596Y-2.3365
X1.4533Y-3.0566
X1.6475Y-3.781
X2.0841Y-2.1324
X2.24Y-2.866
X2.3959Y-3.5996
X2.7987Y-1.3655
X2.9161Y-2.1062
X3.0334Y-2.847
X3.6455Y-1.158
X3.7239Y-1.9039
X3.8023Y-2.6498
X4.5175Y-1.1861
X4.5567Y-1.935
X4.5878Y-3.4648
X4.596Y-2.684
X5.3626Y-3.5188
X5.3878Y-1.1648
X5.3878Y-1.9148
X5.3878Y-2.6648
X6.132Y-3.628
T0
M30
